<?xml version="1.0" encoding="utf-8"?>
<!-- Generator: Adobe Illustrator 24.3.0, SVG Export Plug-In . SVG Version: 6.00 Build 0)  -->
<svg version="1.1" id="Calque_1" xmlns="http://www.w3.org/2000/svg" xmlns:xlink="http://www.w3.org/1999/xlink" x="0px" y="0px"
	 viewBox="0 0 1400 74" style="enable-background:new 0 0 1400 74;" xml:space="preserve">
<style type="text/css">
	.st0{fill:#EBEEF6;}
	.st1{fill:#EA5355;}
	.st2{fill:#FAE268;}
	.st3{fill:#72B95A;}
	.st4{fill:#FFFFFF;}
	.st5{fill:#A7B1B8;}
	.st6{fill:#EDF3F7;}
</style>
<path id="Rectangle_807" class="st0" d="M5,0h1390c2.8,0,5,2.2,5,5v69l0,0H0l0,0V5C0,2.2,2.2,0,5,0z"/>
<g id="Groupe_3565" transform="translate(38.5 26.544)">
	<ellipse id="Ellipse_93" class="st1" cx="10" cy="10.6" rx="10" ry="10.6"/>
	<ellipse id="Ellipse_94" class="st2" cx="44" cy="10.6" rx="10" ry="10.6"/>
	<ellipse id="Ellipse_95" class="st3" cx="78" cy="10.6" rx="10" ry="10.6"/>
</g>
<path id="Tracé_8280" class="st4" d="M1153.8,58.4h-741c-14,0-25.3-9.5-25.3-21.2l0,0c0-11.7,11.3-21.2,25.3-21.2h741
	c14,0,25.3,9.5,25.3,21.2l0,0C1179.2,48.9,1167.8,58.4,1153.8,58.4z"/>
<path id="Tracé_8281" class="st4" d="M267.8,58.1h-60c-11,0-20-9.5-20-21.2l0,0c0-11.7,9-21.2,20-21.2h60c11,0,20,9.5,20,21.2l0,0
	C287.8,48.6,278.8,58.1,267.8,58.1z"/>
<path id="Tracé_8282" class="st5" d="M209.3,36.8l8-8.4c0.5-0.5,0.5-1.3,0-1.9c-0.4-0.5-1.2-0.5-1.7-0.1c0,0,0,0-0.1,0.1l-8.8,9.4
	c-0.5,0.5-0.5,1.3,0,1.9l8.8,9.4c0.4,0.5,1.2,0.5,1.7,0.1c0,0,0,0,0.1-0.1c0.5-0.5,0.5-1.3,0-1.9L209.3,36.8z"/>
<path id="Tracé_8283" class="st5" d="M269.7,35.9l-8.8-9.4c-0.4-0.5-1.2-0.5-1.7-0.1c0,0,0,0-0.1,0.1c-0.5,0.5-0.5,1.3,0,1.9l8,8.4
	l-8,8.4c-0.5,0.5-0.5,1.3,0,1.9c0.4,0.5,1.2,0.5,1.7,0.1c0,0,0,0,0.1-0.1l8.8-9.4C270.2,37.2,270.2,36.4,269.7,35.9z"/>
<g id="Groupe_3566" transform="translate(236.25 15.587)">
	
		<rect id="Rectangle_808" x="0.1" y="0" transform="matrix(1 -6.352955e-03 6.352955e-03 1 -0.136 9.185988e-03)" class="st6" width="2.5" height="42.8"/>
</g>
<g id="Groupe_3569" transform="translate(1285 24.553)">
	<g id="Groupe_3567" transform="translate(0 10.618)">
		<path id="Tracé_8284" class="st5" d="M21.2,2.6h-20C0.5,2.6,0,2,0,1.2C0.1,0.6,0.6,0,1.2,0h20c0.7,0,1.3,0.7,1.2,1.4
			C22.4,2.1,21.9,2.6,21.2,2.6z"/>
	</g>
	<g id="Groupe_3568" transform="translate(10)">
		<path id="Tracé_8285" class="st5" d="M1.2,23.9c-0.7,0-1.3-0.6-1.2-1.3V1.3C0,0.6,0.5,0,1.2,0c0.7,0,1.3,0.5,1.3,1.2
			c0,0,0,0.1,0,0.1v21.2C2.5,23.3,2,23.9,1.2,23.9z"/>
	</g>
</g>
<g id="Groupe_3570" transform="translate(1340.418 25.217)">
	<path id="Tracé_8286" class="st5" d="M18.8,18.6h-10c-2.1-0.1-3.8-1.8-3.8-4V4C4.9,1.8,6.6,0.1,8.8,0h10c2.1,0.1,3.8,1.8,3.8,4
		v10.6C22.6,16.7,20.9,18.5,18.8,18.6z M8.8,2.7C8,2.7,7.5,3.3,7.5,4v10.6c0,0.7,0.5,1.3,1.3,1.3h10c0.7,0,1.3-0.6,1.2-1.3V4
		c0-0.7-0.5-1.3-1.2-1.3L8.8,2.7z"/>
	<path id="Rectangle_809" class="st0" d="M2.4,6.6H15c0.7,0,1.2,0.5,1.2,1.2v13.5c0,0.7-0.5,1.2-1.2,1.2H2.4c-0.7,0-1.2-0.5-1.2-1.2
		V7.8C1.2,7.2,1.8,6.6,2.4,6.6z"/>
	<path id="Tracé_8287" class="st5" d="M13.8,23.9h-10c-2.1-0.1-3.8-1.8-3.8-4V9.3c-0.1-2.1,1.6-3.9,3.8-4h10c2.1,0.1,3.8,1.8,3.8,4
		v10.6C17.6,22,15.9,23.8,13.8,23.9z M3.7,8C3,8,2.5,8.6,2.5,9.3v10.6c0,0.7,0.5,1.3,1.2,1.3h10c0.7,0,1.3-0.6,1.2-1.3V9.3
		C15,8.6,14.5,8,13.8,8L3.7,8z"/>
</g>
<g id="Groupe_3574" transform="translate(1138.2 26.529)">
	<g id="Groupe_3571" transform="translate(17.39)">
		<path id="Tracé_8288" class="st5" d="M1.3,8C0.5,7.9,0,7.4,0,6.6V1.3C0,0.6,0.5,0,1.2,0c0.7,0,1.3,0.5,1.3,1.2c0,0,0,0.1,0,0.1
			v5.3C2.5,7.4,2,7.9,1.3,8z"/>
	</g>
	<g id="Groupe_3572" transform="translate(12.39 5.312)">
		<path id="Tracé_8289" class="st5" d="M6.3,2.7h-5C0.5,2.6,0,2,0,1.2C0.1,0.6,0.6,0,1.3,0h5C7,0,7.5,0.7,7.5,1.4
			C7.4,2.1,6.9,2.6,6.3,2.7z"/>
	</g>
	<g id="Groupe_3573">
		<path id="Tracé_8290" class="st5" d="M10,21.2c-5.5,0-10-4.8-10-10.6S4.5,0,10,0c3.4,0,6.5,1.8,8.3,4.7c0.4,0.6,0.2,1.4-0.3,1.8
			c-0.5,0.4-1.3,0.3-1.7-0.3c0,0,0-0.1-0.1-0.1C14.9,4,12.5,2.7,10,2.7c-4.4,0.3-7.8,4.1-7.5,8.5c0.2,4,3.5,7.2,7.5,7.5
			c3.1,0,5.8-2,6.9-4.9c0.2-0.6,0.9-1,1.6-0.7c0,0,0,0,0.1,0c0.6,0.3,0.9,1.1,0.7,1.7C17.8,18.6,14.1,21.2,10,21.2z"/>
	</g>
</g>
</svg>
