<?xml version="1.0" encoding="utf-8"?>
<!-- Generator: Adobe Illustrator 24.3.0, SVG Export Plug-In . SVG Version: 6.00 Build 0)  -->
<svg version="1.1" id="Calque_1" xmlns="http://www.w3.org/2000/svg" xmlns:xlink="http://www.w3.org/1999/xlink" x="0px" y="0px"
	 viewBox="0 0 280 23" style="enable-background:new 0 0 280 23;" xml:space="preserve">
<style type="text/css">
	.st0{fill:#EBEEF6;}
	.st1{fill:#FFFFFF;}
	.st2{fill:#A7B1B8;}
	.st3{fill:#EDF3F7;}
</style>
<path id="Rectangle_807" class="st0" d="M5,0h270c2.8,0,5,2.2,5,5v18l0,0H0l0,0V5C0,2.2,2.2,0,5,0z"/>
<path id="Tracé_8280" class="st1" d="M234.9,18.1H48.6c-3.6-0.1-6.4-3-6.4-6.6l0,0C42.1,7.9,45,5,48.6,4.9h186.3
	c3.6,0.1,6.4,3,6.4,6.6l0,0C241.3,15.1,238.5,18,234.9,18.1z"/>
<path id="Tracé_8281" class="st1" d="M29.6,18H11.1c-3.5-0.1-6.3-3.1-6.2-6.6l0,0C4.8,7.9,7.6,5,11.1,4.8h18.5
	c3.5,0.1,6.3,3.1,6.2,6.6l0,0C35.9,14.9,33.1,17.9,29.6,18z"/>
<path id="Tracé_8282" class="st2" d="M11.6,11.4L14,8.8c0.2-0.2,0.2-0.4,0-0.6c-0.1-0.2-0.4-0.2-0.5,0c0,0,0,0,0,0l-2.7,2.9
	c-0.2,0.2-0.2,0.4,0,0.6l2.7,2.9c0.1,0.2,0.4,0.2,0.5,0c0,0,0,0,0,0c0.2-0.2,0.2-0.4,0-0.6L11.6,11.4z"/>
<path id="Tracé_8283" class="st2" d="M30.2,11.1l-2.7-2.9c-0.1-0.2-0.4-0.2-0.5,0c0,0,0,0,0,0c-0.2,0.2-0.2,0.4,0,0.6l2.5,2.6
	L26.9,14c-0.2,0.2-0.2,0.4,0,0.6c0.1,0.2,0.4,0.2,0.5,0c0,0,0,0,0,0l2.7-2.9C30.3,11.5,30.3,11.3,30.2,11.1z"/>
<g id="Groupe_3566" transform="translate(19.876 4.829)">
	
		<rect id="Rectangle_808" x="0" y="0" transform="matrix(1 -6.352955e-03 6.352955e-03 1 -4.212700e-02 2.831390e-03)" class="st3" width="0.8" height="13.3"/>
</g>
<g id="Groupe_3569" transform="translate(247.691 7.607)">
	<g id="Groupe_3567" transform="translate(0 3.289)">
		<path id="Tracé_8284" class="st2" d="M6.5,0.8H0.4C0.2,0.8,0,0.6,0,0.4C0,0.2,0.2,0,0.4,0h6.2c0.2,0,0.4,0.2,0.4,0.4
			C6.9,0.6,6.7,0.8,6.5,0.8z"/>
	</g>
	<g id="Groupe_3568" transform="translate(3.08)">
		<path id="Tracé_8285" class="st2" d="M0.4,7.4C0.2,7.4,0,7.2,0,7V0.4C0,0.2,0.1,0,0.4,0s0.4,0.1,0.4,0.4c0,0,0,0,0,0.1V7
			C0.8,7.2,0.6,7.4,0.4,7.4z"/>
	</g>
</g>
<g id="Groupe_3570" transform="translate(264.76 7.812)">
	<path id="Tracé_8286" class="st2" d="M5.8,5.8H2.7C2,5.7,1.5,5.2,1.5,4.5V1.2C1.5,0.6,2,0,2.7,0h3.1c0.7,0,1.2,0.6,1.2,1.2v3.3
		C6.9,5.2,6.4,5.7,5.8,5.8z M2.7,0.8C2.5,0.8,2.3,1,2.3,1.2v3.3c0,0.2,0.2,0.4,0.4,0.4h3.1c0.2,0,0.4-0.2,0.4-0.4V1.2
		C6.2,1,6,0.8,5.8,0.8H2.7z"/>
	<path id="Rectangle_809" class="st0" d="M1.6,2.1h2.2C4.5,2.1,5,2.6,5,3.3v2.5C5,6.5,4.5,7,3.8,7H1.6C0.9,7,0.4,6.5,0.4,5.8V3.3
		C0.4,2.6,0.9,2.1,1.6,2.1z"/>
	<path id="Tracé_8287" class="st2" d="M4.2,7.4H1.2C0.5,7.4,0,6.8,0,6.2V2.9c0-0.7,0.5-1.2,1.2-1.2h3.1c0.7,0,1.2,0.6,1.2,1.2v3.3
		C5.4,6.8,4.9,7.4,4.2,7.4z M1.2,2.5c-0.2,0-0.4,0.2-0.4,0.4v3.3c0,0.2,0.2,0.4,0.4,0.4h3.1c0.2,0,0.4-0.2,0.4-0.4V2.9
		c0-0.2-0.2-0.4-0.4-0.4H1.2z"/>
</g>
<g id="Groupe_3574" transform="translate(231.099 8.219)">
	<g id="Groupe_3571" transform="translate(5.356)">
		<path id="Tracé_8288" class="st2" d="M0.4,2.5C0.2,2.5,0,2.3,0,2.1V0.4C0,0.2,0.1,0,0.4,0s0.4,0.1,0.4,0.4c0,0,0,0,0,0.1v1.6
			C0.8,2.3,0.6,2.5,0.4,2.5z"/>
	</g>
	<g id="Groupe_3572" transform="translate(3.816 1.646)">
		<path id="Tracé_8289" class="st2" d="M1.9,0.8H0.4C0.2,0.8,0,0.6,0,0.4C0,0.2,0.2,0,0.4,0h1.5c0.2,0,0.4,0.2,0.4,0.4
			C2.3,0.6,2.1,0.8,1.9,0.8z"/>
	</g>
	<g id="Groupe_3573">
		<path id="Tracé_8290" class="st2" d="M3.1,6.6C1.3,6.5-0.1,4.9,0,3.1C0.1,1.4,1.4,0.1,3.1,0c1,0,2,0.6,2.6,1.5
			C5.8,1.6,5.7,1.9,5.5,2C5.4,2.1,5.1,2.1,5,1.9c0,0,0,0,0,0C4.6,1.2,3.9,0.8,3.1,0.8C1.7,0.9,0.7,2.1,0.8,3.5
			c0.1,1.2,1.1,2.2,2.3,2.3c1,0,1.8-0.6,2.1-1.5C5.3,4.1,5.5,4,5.7,4c0,0,0,0,0,0C5.9,4.1,6,4.4,5.9,4.6C5.5,5.8,4.3,6.6,3.1,6.6z"
			/>
	</g>
</g>
</svg>
