<?xml version="1.0" encoding="utf-8"?>
<!-- Generator: Adobe Illustrator 24.3.0, SVG Export Plug-In . SVG Version: 6.00 Build 0)  -->
<svg version="1.1" id="Calque_1" xmlns="http://www.w3.org/2000/svg" xmlns:xlink="http://www.w3.org/1999/xlink" x="0px" y="0px"
	 viewBox="0 0 856 658" style="enable-background:new 0 0 856 658;" xml:space="preserve">
<style type="text/css">
	.st0{fill:#272A3A;}
	.st1{fill:#9D68D9;}
	.st2{fill:#AEBBC0;}
	.st3{fill:#FFAD4D;}
	.st4{fill:#FFE920;}
	.st5{fill:#90D960;}
	.st6{fill:#E85D00;}
	.st7{fill:#60C8D9;}
	.st8{fill:#3CDB81;}
	.st9{fill:#3D4051;}
	.st10{fill:#FFBB00;}
	.st11{fill:#EADDEB;}
	.st12{fill:#FFE800;}
	.st13{opacity:0.4;fill:#B19FB7;enable-background:new    ;}
	.st14{opacity:0.5;fill:#B19FB7;enable-background:new    ;}
	.st15{fill:#100E0C;}
	.st16{clip-path:url(#SVGID_2_);}
	.st17{opacity:0.1;fill:#FFFFFF;enable-background:new    ;}
	.st18{fill:#FFFFFF;}
	.st19{fill:#161615;}
	.st20{fill:#424444;}
</style>
<g id="Groupe_4467" transform="translate(-859 -116)">
	<path id="Tracé_9887" class="st0" d="M1511.7,416.7l-27.9-55.3c-37-56.7-106.9-28.5-187.1-28.5c-80.2,0-150.1-28.2-187.1,28.5
		l-27.9,55.3l-0.1,21.7c0,2,0.1,3.9,0.3,5.8c0,0.6,0.1,1.2,0.2,1.8c0.1,1.3,0.3,2.6,0.5,4c0.1,0.7,0.2,1.4,0.4,2.1
		c0.2,1.2,0.5,2.5,0.8,3.7c0.2,0.7,0.3,1.4,0.5,2.1c0.4,1.3,0.8,2.7,1.2,4c0.2,0.5,0.3,1.1,0.5,1.6c0.7,1.8,1.4,3.6,2.2,5.4
		c0.2,0.5,0.5,1,0.7,1.4c0.6,1.3,1.3,2.6,2,3.9c0.4,0.7,0.8,1.4,1.2,2.1c0.6,1.1,1.2,2.1,1.9,3.2c0.5,0.7,0.9,1.5,1.4,2.2
		c0.7,1,1.4,2,2.1,3c0.5,0.7,1,1.5,1.6,2.2c0.8,1.1,1.7,2.1,2.5,3.2c0.6,0.7,1.1,1.4,1.7,2.1c1.2,1.5,2.5,2.9,3.9,4.3
		c0.7,0.8,1.5,1.5,2.3,2.3c0.8,0.8,1.6,1.6,2.4,2.4c0.9,0.8,1.7,1.6,2.6,2.4c0.8,0.7,1.5,1.4,2.3,2.1c1,0.8,1.9,1.7,2.9,2.5
		c0.7,0.6,1.5,1.2,2.3,1.8c1.1,0.9,2.2,1.7,3.3,2.6c0.5,0.4,1,0.7,1.4,1c2.7,2,5.5,3.9,8.4,5.8c0.4,0.3,0.8,0.5,1.2,0.8
		c1.4,0.9,2.9,1.8,4.4,2.7c0.6,0.4,1.2,0.7,1.8,1.1c1.5,0.9,3,1.8,4.6,2.6c0.6,0.3,1.2,0.6,1.8,1c1.7,0.9,3.3,1.8,5,2.6
		c0.3,0.2,0.6,0.3,1,0.5c6.1,3.1,12.5,5.9,19.2,8.6l0.1,0c2.1,0.8,4.3,1.7,6.5,2.5c0.3,0.1,0.7,0.2,1,0.4c2.2,0.8,4.4,1.6,6.6,2.3
		l0.7,0.2c12.5,4.1,25.3,7.5,38.3,10l0.7,0.1c2.6,0.5,5.3,1,7.9,1.4v-0.1c40.2,6.8,81.3,6.8,121.5,0v0.1c2.7-0.4,5.3-0.9,7.9-1.4
		l0.7-0.1c13-2.5,25.8-5.8,38.3-10l0.7-0.2c2.2-0.7,4.4-1.5,6.6-2.3c0.3-0.1,0.7-0.2,1-0.4c2.2-0.8,4.4-1.6,6.5-2.5l0.1,0
		c6.7-2.7,13.1-5.5,19.2-8.6c0.3-0.2,0.6-0.3,1-0.5c1.7-0.9,3.4-1.8,5-2.6c0.6-0.3,1.2-0.6,1.8-1c1.6-0.9,3.1-1.7,4.6-2.6
		c0.6-0.4,1.2-0.7,1.8-1.1c1.5-0.9,3-1.8,4.4-2.7c0.4-0.3,0.8-0.5,1.2-0.8c2.9-1.9,5.7-3.8,8.4-5.8c0.5-0.3,1-0.7,1.4-1
		c1.1-0.8,2.2-1.7,3.3-2.6c0.8-0.6,1.5-1.2,2.3-1.8c1-0.8,2-1.7,2.9-2.5c0.8-0.7,1.6-1.4,2.3-2.1c0.9-0.8,1.8-1.6,2.6-2.4
		c0.8-0.8,1.6-1.6,2.4-2.4c0.8-0.8,1.5-1.5,2.3-2.3c1.3-1.4,2.6-2.9,3.9-4.3c0.6-0.7,1.1-1.4,1.7-2.1c0.9-1.1,1.7-2.1,2.5-3.2
		c0.5-0.7,1.1-1.5,1.6-2.2c0.7-1,1.4-2,2.1-3c0.5-0.7,1-1.5,1.4-2.2c0.7-1.1,1.3-2.1,1.9-3.2c0.4-0.7,0.8-1.4,1.2-2.1
		c0.7-1.3,1.3-2.6,2-3.9c0.2-0.5,0.5-1,0.7-1.4c0.8-1.8,1.5-3.6,2.2-5.4c0.2-0.5,0.4-1.1,0.5-1.6c0.4-1.3,0.9-2.6,1.2-4
		c0.2-0.7,0.4-1.4,0.5-2.1c0.3-1.2,0.6-2.5,0.8-3.7c0.1-0.7,0.3-1.4,0.4-2.1c0.2-1.3,0.4-2.6,0.5-4c0.1-0.6,0.2-1.2,0.2-1.8
		c0.2-1.9,0.3-3.9,0.3-5.8L1511.7,416.7z"/>
	<path id="Tracé_9762" class="st1" d="M1557.3,192c5,2.9,13.9-0.8,9-3.6C1561.2,185.5,1552.4,189.2,1557.3,192z"/>
	<path id="Tracé_9763" class="st2" d="M1038.4,317.1c5,2.9,13.9-0.8,9-3.6C1042.3,310.5,1033.4,314.2,1038.4,317.1z"/>
	<g id="Groupe_4438" transform="translate(1505.405 435.553)">
		<path id="Tracé_9764" class="st3" d="M100.3,61c-0.2,0-0.3,0-0.5-0.1L5,6.1C4.5,5.9,4.3,5.3,4.6,4.8c0.3-0.5,0.9-0.7,1.3-0.4
			c0,0,0,0,0,0l94.8,54.7c0.5,0.3,0.6,0.9,0.3,1.4C101,60.8,100.6,61,100.3,61L100.3,61z"/>
	</g>
	<path id="Tracé_9765" class="st3" d="M1601.2,497.4c5,2.9,13.9-0.8,9-3.6C1605.1,490.8,1596.2,494.5,1601.2,497.4z"/>
	<path id="Tracé_9766" class="st4" d="M1490.3,535.7c5,2.9,13.9-0.8,9-3.6C1494.2,529.2,1485.3,532.9,1490.3,535.7z"/>
	<path id="Tracé_9767" class="st5" d="M1451.9,649.5c5,2.9,13.9-0.8,9-3.6C1455.8,643,1447,646.7,1451.9,649.5z"/>
	<g id="Groupe_4439" transform="translate(1038.05 310.854)">
		<path id="Tracé_9768" class="st2" d="M72.1,44.7c-0.2,0-0.3,0-0.5-0.1L5,6.1C4.5,5.9,4.3,5.3,4.5,4.8c0.2-0.5,0.8-0.7,1.3-0.5
			c0,0,0.1,0,0.1,0.1l66.6,38.5c0.5,0.3,0.6,0.9,0.3,1.4C72.8,44.5,72.5,44.7,72.1,44.7L72.1,44.7z"/>
	</g>
	<path id="Tracé_9769" class="st6" d="M1017.1,230.2c5,2.9,13.9-0.8,9-3.6C1021,223.7,1012.1,227.4,1017.1,230.2z"/>
	<g id="Groupe_4440" transform="translate(1016.772 224.007)">
		<path id="Tracé_9770" class="st6" d="M154.1,92.1c-0.2,0-0.3,0-0.5-0.1L5,6.1C4.5,5.8,4.4,5.2,4.7,4.7C5,4.3,5.5,4.2,6,4.4
			l148.7,85.8c0.5,0.3,0.6,0.9,0.3,1.4C154.8,91.9,154.5,92.1,154.1,92.1L154.1,92.1z"/>
	</g>
	<path id="Tracé_9771" class="st7" d="M1047.6,730c5,2.9,13.9-0.8,9-3.6C1051.6,723.4,1042.7,727.1,1047.6,730z"/>
	<path id="Tracé_9772" class="st8" d="M900.2,560.9c5,2.9,13.9-0.8,9-3.6C904.1,554.4,895.2,558.1,900.2,560.9z"/>
	<g id="Groupe_4441" transform="translate(1284.723 544.38)">
		<path id="Tracé_9773" class="st5" d="M171.6,104.3c-0.2,0-0.3,0-0.5-0.1L5,6.1C4.5,5.9,4.4,5.3,4.6,4.8C4.9,4.3,5.5,4.1,6,4.4
			l0,0l166.1,98.1c0.5,0.3,0.6,0.9,0.3,1.4C172.3,104.1,172,104.3,171.6,104.3L171.6,104.3z"/>
	</g>
	<g id="Groupe_4442" transform="translate(1367.744 184.933)">
		<path id="Tracé_9775" class="st1" d="M5.5,115.1c-0.6,0-1-0.5-1-1c0-0.4,0.2-0.7,0.5-0.9L193.6,4.4c0.5-0.2,1.1,0,1.3,0.5
			c0.2,0.4,0.1,1-0.3,1.3L6,115C5.8,115.1,5.7,115.1,5.5,115.1z"/>
	</g>
	<g id="Groupe_4443" transform="translate(899.648 484.479)">
		<path id="Tracé_9776" class="st8" d="M5.5,75.1c-0.5,0-1-0.4-1-1c0-0.4,0.2-0.7,0.5-0.9L124.6,4.4c0.3-0.2,0.7-0.2,1,0l42.9,24.8
			l41.5-24c0.5-0.3,1.1-0.2,1.4,0.2c0.3,0.5,0.2,1.1-0.2,1.4c-0.1,0-0.1,0.1-0.2,0.1l-42,24.3c-0.3,0.2-0.7,0.2-1,0L125.1,6.4L6,75
			C5.8,75.1,5.7,75.1,5.5,75.1z"/>
	</g>
	<g id="Groupe_4444" transform="translate(1046.964 525.351)">
		<path id="Tracé_9777" class="st7" d="M5.5,203.7c-0.6,0-1-0.5-1-1c0-0.3,0.2-0.7,0.5-0.8l164.1-94.3L63.6,46.4
			c-0.5-0.3-0.6-0.9-0.4-1.4c0.1-0.2,0.2-0.3,0.4-0.4l69.8-40.3c0.5-0.3,1.1-0.1,1.4,0.4c0.3,0.5,0.1,1.1-0.4,1.4l0,0L66.1,45.6
			l105.5,61.2c0.5,0.3,0.6,0.9,0.4,1.4c-0.1,0.1-0.2,0.3-0.4,0.4L6,203.6C5.8,203.7,5.7,203.7,5.5,203.7z"/>
	</g>
	<g id="Groupe_4445" transform="translate(1450.996 506.286)">
		<path id="Tracé_9778" class="st4" d="M43.8,28.4c-0.2,0-0.3,0-0.5-0.1L5,6.1C4.5,5.9,4.3,5.3,4.6,4.8c0.3-0.5,0.9-0.7,1.3-0.4
			c0,0,0,0,0,0l38.3,22.1c0.5,0.3,0.6,0.9,0.3,1.4C44.4,28.2,44.1,28.4,43.8,28.4L43.8,28.4z"/>
	</g>
	<g id="Groupe_4446" transform="translate(859 518.05)">
		<path id="Tracé_9779" class="st8" d="M18.2,97.4L4.5,89.5l7-4.1l2.7,1.5l-4.7,2.7l2.8,1.6l3.8-2.2l2.7,1.5l-3.8,2.2l2.9,1.7
			l4.7-2.7l2.7,1.5L18.2,97.4z"/>
		<path id="Tracé_9780" class="st8" d="M37.3,86.4l-2,1.1l-14.7-1.8l8.9,5.2l-2.3,1.3l-13.7-7.9l2-1.1L30.2,85l-8.9-5.2l2.3-1.3
			L37.3,86.4z"/>
		<path id="Tracé_9781" class="st8" d="M41.9,83.7l-11-6.4l-3,1.7l-2.7-1.5l8.4-4.8l2.7,1.5l-3,1.8l11,6.4L41.9,83.7z"/>
		<path id="Tracé_9782" class="st8" d="M48.8,79.7l-13.7-7.9l4.3-2.5c1.1-0.6,2.4-0.9,3.7-0.8c1.4,0.1,2.7,0.4,3.9,1.1
			c1.8,1,2.2,2.2,1.3,3.4l10.1,1.2l-2.8,1.6l-9.6-1.1l-0.6,0.3l5.8,3.3L48.8,79.7z M42.9,73.7l1.7-1c0.4-0.3,0.7-0.5,0.7-0.8
			s-0.2-0.6-0.7-0.9c-0.4-0.3-1-0.4-1.5-0.4c-0.5,0-1,0.1-1.4,0.4L40,72L42.9,73.7z"/>
		<path id="Tracé_9783" class="st8" d="M59.2,73.7l-13.7-7.9l7-4l2.7,1.5L50.5,66l2.8,1.6l3.8-2.2l2.7,1.5L56,69.2l2.9,1.7l4.7-2.7
			l2.7,1.5L59.2,73.7z"/>
		<path id="Tracé_9784" class="st8" d="M62.4,57.6c1.6,0.1,3.1,0.5,4.4,1.2c1.1,0.5,1.9,1.4,2.2,2.5c0.1,0.9-0.4,1.7-1.5,2.4
			L66,64.6l4.5,2.6l-2.3,1.3l-13.7-7.9l3.7-2.2C59.5,57.8,61,57.4,62.4,57.6z M65.5,61.2c-0.1-0.5-0.5-0.9-0.9-1.1
			c-0.6-0.3-1.2-0.5-1.9-0.5c-0.6,0-1.3,0.1-1.8,0.4l-1.4,0.8l4,2.3l1.4-0.8C65.4,62,65.6,61.6,65.5,61.2L65.5,61.2z"/>
		<path id="Tracé_9785" class="st8" d="M77.6,63.1l-13.7-7.9l4.3-2.5c1.1-0.6,2.4-0.9,3.7-0.8c1.4,0.1,2.7,0.4,3.9,1.1
			c1.8,1,2.2,2.2,1.2,3.4l10.1,1.2l-2.8,1.6l-9.6-1.1l-0.6,0.3l5.8,3.3L77.6,63.1z M71.7,57l1.7-1c0.4-0.3,0.7-0.5,0.7-0.8
			s-0.2-0.6-0.7-0.9c-0.4-0.3-1-0.4-1.5-0.4c-0.5,0-1,0.1-1.4,0.4l-1.7,1L71.7,57z"/>
		<path id="Tracé_9786" class="st8" d="M88,57.1l-13.7-7.9l2.3-1.3l13.7,7.9L88,57.1z"/>
		<path id="Tracé_9787" class="st8" d="M96.3,52.5c-0.9,0.5-2,0.9-3.1,1c-1.2,0.2-2.3,0.1-3.5-0.1l0-2.1c0.7,0.1,1.5,0.1,2.3,0.1
			c0.6-0.1,1.2-0.2,1.8-0.5c0.5-0.3,0.7-0.5,0.7-0.8s-0.2-0.6-0.6-0.8c-0.4-0.2-0.9-0.4-1.4-0.4c-0.7,0-1.3,0.1-2,0.3l-1.4,0.3
			c-2.2,0.7-4.6,0.4-6.7-0.7c-1.3-0.7-1.9-1.5-1.9-2.3c0-0.8,0.5-1.6,1.6-2.2c1.7-0.9,3.6-1.2,5.4-1l0.4,2c-1.1-0.2-2.2,0-3.2,0.5
			c-0.3,0.2-0.6,0.4-0.7,0.8c-0.1,0.3,0.1,0.5,0.5,0.8c0.4,0.2,0.9,0.3,1.3,0.3c0.7-0.1,1.4-0.2,2.1-0.3l1.3-0.3
			c2.3-0.6,4.7-0.3,6.8,0.8c1.2,0.7,1.8,1.5,1.9,2.4S97.5,51.9,96.3,52.5z"/>
		<path id="Tracé_9788" class="st8" d="M101.9,49.1l-13.7-7.9l7-4l2.7,1.5l-4.7,2.7L96,43l3.8-2.2l2.7,1.5l-3.8,2.2l2.9,1.7
			l4.7-2.7l2.7,1.5L101.9,49.1z"/>
		<path id="Tracé_9789" class="st8" d="M114.5,41.8l-13.7-7.9l3.7-2.1c1.9-1,4-1.4,6.1-1.2c2.3,0.1,4.5,0.7,6.5,1.8
			c1.9,1.1,3,2.4,3.2,3.8s-0.5,2.6-2.1,3.5L114.5,41.8z M114.3,39l1.4-0.8c1-0.6,1.5-1.3,1.3-2.2c-0.3-1-1.1-1.9-2.1-2.3
			c-1.2-0.7-2.6-1.1-4-1.2c-1.3-0.1-2.6,0.1-3.7,0.7l-1.4,0.8L114.3,39z"/>
		<path id="Tracé_9790" class="st8" d="M125.9,35.2l-13.7-7.9l7-4.1l2.7,1.5l-4.7,2.7l2.8,1.6l3.8-2.2l2.7,1.5l-3.8,2.2l2.9,1.7
			l4.7-2.7l2.7,1.5L125.9,35.2z"/>
		<path id="Tracé_9791" class="st8" d="M141.5,26.2L123.1,21l2.5-1.4l12.7,3.6l-6.4-7.3l2.5-1.5l9,10.6L141.5,26.2z"/>
		<path id="Tracé_9792" class="st8" d="M149.5,21.6l-13.7-7.9l4.3-2.5c1.1-0.6,2.4-0.9,3.7-0.8c1.4,0.1,2.7,0.4,3.9,1.1
			c1.8,1,2.2,2.2,1.3,3.4l10.1,1.2l-2.8,1.6l-9.6-1.1l-0.6,0.3l5.8,3.3L149.5,21.6z M143.6,15.5l1.7-1c0.4-0.3,0.7-0.5,0.7-0.8
			s-0.2-0.6-0.7-0.9c-0.4-0.3-1-0.4-1.5-0.4c-0.5,0-1,0.1-1.4,0.4l-1.7,1L143.6,15.5z"/>
		<path id="Tracé_9793" class="st8" d="M159.9,15.6l-13.7-7.9l3.7-2.1c1.9-1,4-1.4,6.1-1.2c2.3,0.1,4.5,0.7,6.5,1.8
			c1.9,1.1,3,2.4,3.2,3.8c0.2,1.4-0.5,2.6-2.1,3.5L159.9,15.6z M159.6,12.8l1.4-0.8c1-0.6,1.4-1.3,1.3-2.2c-0.3-1-1.1-1.9-2.1-2.3
			c-1.2-0.7-2.6-1.1-4-1.2c-1.3-0.1-2.6,0.1-3.7,0.7l-1.4,0.8L159.6,12.8z"/>
	</g>
	<g id="Groupe_4447" transform="translate(973.632 116)">
		<path id="Tracé_9794" class="st6" d="M13.3,111.1l-8.8-10.7l2-1.2l18.6,5.1l-2.4,1.4l-4.2-1.2l-4.8,2.8l2,2.4L13.3,111.1z
			 M9.2,102l2.9,3.5l3.1-1.8L9.2,102z"/>
		<path id="Tracé_9795" class="st6" d="M31.6,100.9c-2,1.1-4.2,1.5-6.4,1.3c-2.4-0.1-4.7-0.7-6.8-1.9c-2-1.1-3.1-2.4-3.4-3.9
			c-0.3-1.4,0.5-2.6,2.2-3.6c2.1-1.1,4.4-1.6,6.8-1.3l0.3,2c-1.5-0.2-3.1,0.1-4.4,0.8c-1.1,0.6-1.5,1.4-1.3,2.2
			c0.3,1.1,1.1,1.9,2.1,2.4c1.3,0.7,2.7,1.1,4.2,1.2c1.4,0.1,2.8-0.2,4-0.9c1.1-0.6,1.6-1.2,1.6-1.8l-2.4-1.4l-2.4,1.4l-2.6-1.5
			l4.7-2.7l6.4,3.7c0.1,0.7,0,1.4-0.5,2C33.1,99.8,32.4,100.4,31.6,100.9z"/>
		<path id="Tracé_9796" class="st6" d="M38,96.9L24.3,89l7-4.1l2.7,1.5l-4.7,2.7l2.8,1.6l3.8-2.2l2.7,1.5l-3.8,2.2l2.9,1.7l4.7-2.7
			l2.7,1.5L38,96.9z"/>
		<path id="Tracé_9797" class="st6" d="M57.1,85.9l-2,1.1l-14.7-1.8l8.9,5.2L47,91.7l-13.7-7.9l2-1.1L50,84.5l-8.9-5.2l2.3-1.3
			L57.1,85.9z"/>
		<path id="Tracé_9798" class="st6" d="M65,81.6c-1.9,1-4.1,1.4-6.2,1.2c-2.4-0.1-4.7-0.7-6.7-1.9c-2-1.1-3.1-2.4-3.3-3.9
			c-0.2-1.5,0.4-2.6,2-3.6c1.3-0.7,2.6-1.1,4.1-1.2c1.6-0.2,3.2-0.1,4.8,0.3L59,74.5c-1.8-0.5-3.8-0.3-5.5,0.5
			c-0.9,0.4-1.4,1.3-1.2,2.2c0.3,1.1,1.1,1.9,2.1,2.4c1.3,0.7,2.7,1.1,4.1,1.2c1.3,0.1,2.6-0.1,3.8-0.7c1.4-0.8,1.7-1.9,0.9-3.2
			l3.4-0.4c0.6,0.8,0.8,1.8,0.6,2.8C66.7,80.3,66,81.1,65,81.6z"/>
		<path id="Tracé_9799" class="st6" d="M71.5,77.5l-13.7-7.9l7-4.1l2.7,1.5l-4.7,2.7l2.8,1.6l3.8-2.2l2.7,1.5L68.3,73l2.9,1.7
			l4.7-2.7l2.7,1.5L71.5,77.5z"/>
		<path id="Tracé_9800" class="st6" d="M84.2,70.2l-13.7-7.9l2.3-1.3l13.7,7.9L84.2,70.2z"/>
		<path id="Tracé_9801" class="st6" d="M75.3,59.6l2.1-1.2l9.8,1.4l-2.4-5.6l2.1-1.2l13.7,7.9l-2.3,1.3L89.3,57l2.3,5.3L82.4,61
			l8.9,5.1L89,67.5L75.3,59.6z"/>
		<path id="Tracé_9802" class="st6" d="M89.3,51.5l2.1-1.2l9.8,1.4L98.7,46l2.1-1.2l13.7,7.9l-2.3,1.3l-8.9-5.1l2.3,5.3l-9.2-1.3
			l8.9,5.1l-2.3,1.3L89.3,51.5z"/>
		<path id="Tracé_9803" class="st6" d="M124.5,44.8c0.2,1.5-0.4,2.6-2,3.6c-1.9,1-4.1,1.4-6.2,1.2c-2.4-0.1-4.7-0.7-6.7-1.9
			c-2-1.1-3.1-2.4-3.3-3.9c-0.2-1.5,0.4-2.6,2-3.6c1.9-1,4.1-1.4,6.2-1.2c2.4,0.1,4.7,0.7,6.7,1.9C123.1,42.1,124.2,43.4,124.5,44.8
			z M116,47.6c1.3,0.1,2.6-0.1,3.8-0.7c0.9-0.4,1.4-1.3,1.2-2.2c-0.3-1.1-1.1-1.9-2.1-2.4c-1.3-0.7-2.7-1.1-4.1-1.2
			c-1.3-0.1-2.6,0.1-3.8,0.7c-0.9,0.4-1.4,1.3-1.2,2.2c0.3,1.1,1.1,1.9,2.1,2.4C113.1,47.1,114.5,47.5,116,47.6L116,47.6z"/>
		<path id="Tracé_9804" class="st6" d="M129.9,43.9L116.2,36l4.1-2.4c1.1-0.6,2.3-0.8,3.6-0.7c1.3,0,2.6,0.4,3.8,1.1
			c1,0.6,1.5,1.2,1.6,1.9c1.7-0.3,3.4,0,4.9,0.9c0.9,0.4,1.6,1.2,1.9,2.2c0.1,0.8-0.3,1.5-1.3,2.1L129.9,43.9z M124.1,37.9l1.6-0.9
			c0.4-0.2,0.6-0.5,0.5-0.8c-0.1-0.4-0.4-0.7-0.7-0.8c-0.4-0.3-0.9-0.4-1.5-0.4c-0.5,0-1,0.1-1.4,0.3l-1.6,0.9L124.1,37.9z
			 M129.6,41l2.3-1.3c0.4-0.2,0.6-0.5,0.6-0.8s-0.3-0.6-0.7-0.9c-0.5-0.3-1-0.4-1.5-0.4c-0.5,0-1,0.1-1.5,0.3l-2.3,1.3L129.6,41z"/>
		<path id="Tracé_9805" class="st6" d="M139.9,38.1l-13.7-7.9l2.3-1.3l13.7,7.9L139.9,38.1z"/>
		<path id="Tracé_9806" class="st6" d="M144.7,35.3L131,27.4l2.3-1.3l11,6.4l4.8-2.8l2.7,1.5L144.7,35.3z"/>
		<path id="Tracé_9807" class="st6" d="M153.5,30.2l-13.7-7.9l2.3-1.3l13.7,7.9L153.5,30.2z"/>
		<path id="Tracé_9808" class="st6" d="M147.7,16.4l-1.6,0.9l-5-0.6l2.4-1.4L147.7,16.4z M158.3,27.4l-13.7-7.9l7-4.1l2.7,1.5
			l-4.7,2.7l2.8,1.6l3.8-2.2l2.7,1.5l-3.8,2.2l2.9,1.7l4.7-2.7l2.7,1.5L158.3,27.4z"/>
		<path id="Tracé_9809" class="st6" d="M167.3,22.2l-13.7-7.9l4.3-2.5c1.1-0.6,2.4-0.9,3.7-0.8c1.4,0.1,2.7,0.4,3.9,1.1
			c1.8,1,2.2,2.2,1.3,3.4l10.1,1.2l-2.8,1.6l-9.6-1.1l-0.6,0.3l5.8,3.3L167.3,22.2z M161.5,16.2l1.7-1c0.4-0.3,0.7-0.5,0.7-0.8
			s-0.2-0.6-0.7-0.9c-0.4-0.3-1-0.4-1.5-0.4c-0.5,0-1,0.1-1.5,0.4l-1.7,1L161.5,16.2z"/>
		<path id="Tracé_9810" class="st6" d="M177.7,16.2L164,8.3l7-4.1l2.7,1.5L169,8.5l2.8,1.6l3.8-2.2l2.7,1.5l-3.8,2.2l2.9,1.7
			l4.7-2.7l2.7,1.5L177.7,16.2z"/>
	</g>
	<g id="Groupe_4448" transform="translate(1488.37 139.159)">
		<path id="Tracé_9811" class="st1" d="M21.1,57.2c-2,1.1-4.2,1.5-6.4,1.3c-2.4-0.1-4.7-0.7-6.8-1.9c-2-1.1-3.1-2.4-3.4-3.9
			c-0.3-1.4,0.5-2.6,2.2-3.6c2.1-1.1,4.4-1.6,6.8-1.3l0.3,2c-1.5-0.2-3.1,0.1-4.4,0.8c-1.1,0.6-1.5,1.4-1.3,2.2
			c0.3,1.1,1.1,1.9,2.1,2.4c1.3,0.7,2.7,1.1,4.2,1.2c1.4,0.1,2.8-0.2,4-0.9c1.1-0.6,1.6-1.2,1.6-1.8l-2.4-1.4l-2.4,1.4l-2.6-1.5
			l4.7-2.7l6.4,3.7c0.1,0.7,0,1.4-0.5,2C22.6,56.1,21.9,56.7,21.1,57.2z"/>
		<path id="Tracé_9812" class="st1" d="M15.4,43l-1.9-2.4l2.4-1.4l1.1,2.9L15.4,43z M27.5,53.2l-13.7-7.9l7-4.1l2.7,1.5l-4.7,2.7
			l2.8,1.6l3.8-2.2l2.7,1.5l-3.8,2.2l2.9,1.7l4.7-2.7l2.7,1.5L27.5,53.2z"/>
		<path id="Tracé_9813" class="st1" d="M43.7,41.7c0.2,1.5-0.4,2.6-2,3.6c-1.9,1-4.1,1.4-6.2,1.2c-2.4-0.1-4.7-0.7-6.7-1.9
			c-2-1.1-3.1-2.4-3.3-3.9c-0.2-1.5,0.4-2.6,2-3.6c1.9-1,4.1-1.4,6.2-1.2c2.4,0.1,4.7,0.7,6.7,1.9C42.3,39,43.4,40.3,43.7,41.7z
			 M35.2,44.4c1.3,0.1,2.6-0.1,3.8-0.7c0.9-0.4,1.4-1.3,1.2-2.2c-0.3-1.1-1.1-1.9-2.1-2.4c-1.3-0.7-2.7-1.1-4.1-1.2
			c-1.3-0.1-2.6,0.1-3.8,0.7C29.3,39,28.8,40,29,40.9c0.3,1.1,1.1,1.9,2.1,2.4C32.3,44,33.7,44.4,35.2,44.4z"/>
		<path id="Tracé_9814" class="st1" d="M35.4,32.8l2.1-1.2l9.8,1.4l-2.5-5.6l2.1-1.2l13.7,7.9l-2.3,1.3l-8.9-5.1l2.3,5.3l-9.2-1.3
			l8.9,5.1l-2.3,1.3L35.4,32.8z"/>
		<path id="Tracé_9815" class="st1" d="M52.5,21.6l-1.6,0.9l-5-0.6l2.4-1.4L52.5,21.6z M63.1,32.7l-13.7-7.9l7-4.1l2.7,1.5L54.3,25
			l2.8,1.6l3.8-2.2l2.7,1.5l-3.8,2.2l2.9,1.7l4.7-2.7l2.7,1.5L63.1,32.7z"/>
		<path id="Tracé_9816" class="st1" d="M74.2,26.2l-11-6.4l-3,1.7l-2.7-1.5l8.4-4.8l2.7,1.5l-3,1.7l11,6.4L74.2,26.2z"/>
		<path id="Tracé_9817" class="st1" d="M81.1,22.2l-13.7-7.9l4.3-2.5c1.1-0.6,2.4-0.9,3.7-0.8c1.4,0.1,2.7,0.4,3.9,1.1
			c1.8,1,2.2,2.2,1.3,3.4l10.1,1.2l-2.8,1.6l-9.6-1.1l-0.6,0.3l5.8,3.3L81.1,22.2z M75.3,16.2l1.7-1c0.4-0.3,0.7-0.5,0.7-0.8
			s-0.2-0.6-0.7-0.9c-0.4-0.3-1-0.4-1.5-0.4c-0.5,0-1,0.1-1.5,0.4l-1.7,1L75.3,16.2z"/>
		<path id="Tracé_9818" class="st1" d="M91.5,16.2L77.8,8.3l7-4.1l2.7,1.5l-4.7,2.7l2.8,1.6L89.4,8L92,9.5l-3.8,2.2l2.9,1.7
			l4.7-2.7l2.7,1.5L91.5,16.2z"/>
	</g>
	<g id="Groupe_4449" transform="translate(1598.326 460.689)">
		<path id="Tracé_9819" class="st3" d="M13.3,68.5L4.5,57.8l2-1.2l18.6,5.1l-2.4,1.4l-4.2-1.2l-4.8,2.8l2,2.4L13.3,68.5z M9.2,59.3
			l2.9,3.5l3.1-1.8L9.2,59.3z"/>
		<path id="Tracé_9820" class="st3" d="M26.4,61l-13.7-7.9l4.3-2.5c1.1-0.6,2.4-0.9,3.7-0.8c1.4,0.1,2.7,0.4,3.9,1.1
			c1.8,1,2.2,2.2,1.3,3.4l10.1,1.2l-2.8,1.6L23.5,56l-0.6,0.3l5.8,3.3L26.4,61z M20.5,54.9l1.7-1c0.4-0.3,0.7-0.5,0.7-0.8
			s-0.2-0.6-0.7-0.9c-0.4-0.3-1-0.4-1.5-0.4c-0.5,0-1,0.1-1.5,0.4l-1.7,1L20.5,54.9z"/>
		<path id="Tracé_9821" class="st3" d="M41.8,52.3c-1.9,1-4.1,1.4-6.2,1.2c-2.4-0.1-4.7-0.7-6.7-1.9c-2-1.1-3.1-2.4-3.3-3.9
			c-0.2-1.5,0.4-2.6,2-3.6c1.3-0.7,2.6-1.1,4.1-1.2c1.6-0.2,3.2-0.1,4.8,0.3l-0.6,1.9c-1.8-0.5-3.8-0.3-5.5,0.5
			c-0.9,0.4-1.4,1.3-1.2,2.2c0.3,1.1,1.1,1.9,2.1,2.4c1.3,0.7,2.7,1.1,4.1,1.2c1.3,0.1,2.6-0.1,3.8-0.7c1.4-0.8,1.7-1.9,0.9-3.2
			l3.4-0.4C44,48,44.2,49,43.9,50C43.5,51,42.8,51.9,41.8,52.3z"/>
		<path id="Tracé_9822" class="st3" d="M48.4,48.3l-13.7-7.9L37,39l5.5,3.2l4.9-2.8l-5.5-3.2l2.3-1.3l13.7,7.9l-2.3,1.3L50,40.9
			l-4.9,2.8l5.6,3.2L48.4,48.3z"/>
		<path id="Tracé_9823" class="st3" d="M60.4,41.4l-13.7-7.9l2.3-1.3L62.7,40L60.4,41.4z"/>
		<path id="Tracé_9824" class="st3" d="M67.3,37.4l-11-6.4l-3,1.7l-2.7-1.5l8.4-4.8l2.7,1.5l-3,1.8l11,6.4L67.3,37.4z"/>
		<path id="Tracé_9825" class="st3" d="M74.2,33.4l-13.7-7.9l7-4l2.7,1.5l-4.7,2.7l2.8,1.6l3.8-2.2l2.7,1.5l-3.8,2.2l2.9,1.7
			l4.7-2.7l2.7,1.5L74.2,33.4z"/>
		<path id="Tracé_9826" class="st3" d="M88.3,25.5c-1.9,1-4.1,1.4-6.2,1.2c-2.4-0.1-4.7-0.7-6.7-1.9c-2-1.1-3.1-2.4-3.3-3.9
			c-0.2-1.5,0.4-2.6,2-3.6c1.3-0.7,2.6-1.1,4.1-1.2c1.6-0.2,3.2-0.1,4.8,0.3l-0.6,1.9c-1.8-0.5-3.8-0.3-5.5,0.5
			c-0.9,0.4-1.4,1.3-1.2,2.2c0.3,1.1,1.1,1.9,2.1,2.4c1.3,0.7,2.7,1.1,4.1,1.2c1.3,0.1,2.6-0.1,3.8-0.7c1.4-0.8,1.7-1.9,0.9-3.2
			l3.4-0.4c0.6,0.8,0.8,1.8,0.6,2.8C90.1,24.2,89.3,25,88.3,25.5z"/>
		<path id="Tracé_9827" class="st3" d="M96.9,20.2l-11-6.4l-3,1.7l-2.7-1.5l8.3-4.8l2.7,1.5l-3,1.7l11,6.4L96.9,20.2z"/>
		<path id="Tracé_9828" class="st3" d="M103.9,16.2L90.2,8.3l7-4.1l2.7,1.5l-4.7,2.7l2.8,1.6l3.8-2.2l2.7,1.5l-3.8,2.2l2.9,1.7
			l4.7-2.7l2.7,1.5L103.9,16.2z"/>
	</g>
	<g id="Groupe_4450" transform="translate(1429.497 513.67)">
		<path id="Tracé_9829" class="st4" d="M20.7,80.9c-1.9,1-4.1,1.4-6.2,1.2c-2.4-0.1-4.7-0.7-6.7-1.9c-2-1.1-3.1-2.4-3.3-3.9
			c-0.2-1.5,0.4-2.6,2-3.6c1.3-0.7,2.6-1.1,4.1-1.2c1.6-0.2,3.2-0.1,4.8,0.3l-0.6,1.9c-1.8-0.5-3.8-0.3-5.5,0.5
			c-0.9,0.4-1.4,1.3-1.2,2.2c0.3,1.1,1.1,1.9,2.1,2.4c1.3,0.7,2.7,1.1,4.1,1.2c1.3,0.1,2.6-0.1,3.8-0.7c1.4-0.8,1.7-1.9,0.9-3.2
			l3.4-0.4c0.6,0.8,0.8,1.8,0.6,2.8C22.5,79.6,21.7,80.5,20.7,80.9z"/>
		<path id="Tracé_9830" class="st4" d="M34.7,70.5c0.2,1.5-0.4,2.6-2,3.6c-1.9,1-4.1,1.4-6.2,1.2c-2.4-0.1-4.7-0.7-6.7-1.9
			c-2-1.1-3.1-2.4-3.3-3.9c-0.2-1.5,0.4-2.6,2-3.6c1.9-1,4.1-1.4,6.2-1.2c2.4,0.1,4.7,0.7,6.7,1.9C33.4,67.7,34.5,69,34.7,70.5z
			 M26.2,73.2c1.3,0.1,2.6-0.1,3.8-0.7c0.9-0.4,1.4-1.3,1.2-2.2c-0.3-1.1-1.1-1.9-2.1-2.4c-1.3-0.7-2.7-1.1-4.1-1.2
			c-1.3-0.1-2.6,0.1-3.8,0.7c-0.9,0.3-1.4,1.3-1.2,2.2c0.3,1.1,1.1,1.9,2.1,2.4C23.4,72.7,24.8,73.1,26.2,73.2L26.2,73.2z"/>
		<path id="Tracé_9831" class="st4" d="M50.2,63.7l-2,1.1L33.5,63l8.9,5.2l-2.3,1.3l-13.7-7.9l2-1.1l14.7,1.8l-8.9-5.2l2.3-1.3
			L50.2,63.7z"/>
		<path id="Tracé_9832" class="st4" d="M56.2,60.5c-0.9,0.5-2,0.9-3.1,1c-1.2,0.2-2.3,0.2-3.5-0.1l0-2.1c0.7,0.1,1.5,0.2,2.3,0.1
			c0.6-0.1,1.2-0.2,1.8-0.5c0.5-0.3,0.7-0.5,0.7-0.8s-0.2-0.6-0.6-0.8c-0.4-0.2-0.9-0.4-1.4-0.4c-0.7,0-1.3,0.1-2,0.3l-1.4,0.3
			c-2.2,0.7-4.6,0.4-6.7-0.7c-1.3-0.7-1.9-1.5-1.9-2.3s0.5-1.6,1.6-2.2c1.7-0.9,3.6-1.2,5.4-1l0.4,2c-1.1-0.2-2.2,0-3.2,0.5
			c-0.3,0.2-0.6,0.4-0.7,0.8c-0.1,0.3,0.1,0.6,0.4,0.8c0.4,0.2,0.9,0.3,1.3,0.3c0.7-0.1,1.4-0.2,2.1-0.3l1.3-0.3
			c2.3-0.6,4.7-0.3,6.8,0.8c1.2,0.7,1.8,1.5,1.9,2.4C57.9,59,57.4,59.8,56.2,60.5z"/>
		<path id="Tracé_9833" class="st4" d="M63.7,55.9l-11-6.4l-3,1.7L47,49.7l8.3-4.8l2.7,1.5l-3,1.8l11,6.4L63.7,55.9z"/>
		<path id="Tracé_9834" class="st4" d="M70.6,51.9L56.9,44l4.3-2.5c1.1-0.6,2.4-0.9,3.7-0.8c1.4,0.1,2.7,0.4,3.9,1.1
			c1.8,1,2.2,2.2,1.2,3.4l10.1,1.2L77.4,48l-9.6-1.1l-0.6,0.3l5.8,3.3L70.6,51.9z M64.8,45.8l1.7-1c0.4-0.3,0.7-0.5,0.7-0.8
			s-0.2-0.6-0.7-0.9c-0.4-0.3-1-0.4-1.5-0.4c-0.5,0-1,0.1-1.5,0.4l-1.7,1L64.8,45.8z"/>
		<path id="Tracé_9835" class="st4" d="M85.5,43.5c-1.5,0.8-3.2,1.2-4.9,1c-1.9-0.1-3.7-0.7-5.4-1.6L67,38.1l2.3-1.3l8.3,4.8
			c0.8,0.5,1.8,0.8,2.7,0.9c0.8,0.1,1.7-0.1,2.4-0.5c0.7-0.4,1-0.9,0.9-1.4c-0.1-0.5-0.6-1.1-1.5-1.6l-8.3-4.8l2.3-1.3l8.3,4.8
			c1.7,1,2.6,2,2.8,3.1S86.9,42.8,85.5,43.5z"/>
		<path id="Tracé_9836" class="st4" d="M97.7,36.5c-1.9,1-4.1,1.4-6.2,1.2c-2.4-0.1-4.7-0.7-6.7-1.9c-2-1.1-3.1-2.4-3.3-3.9
			c-0.2-1.5,0.4-2.6,2-3.6c1.3-0.7,2.6-1.1,4.1-1.2c1.6-0.2,3.2-0.1,4.8,0.3l-0.6,1.9c-1.8-0.5-3.8-0.3-5.5,0.5
			c-0.9,0.4-1.4,1.3-1.2,2.2c0.3,1.1,1.1,1.9,2.1,2.4c1.3,0.7,2.7,1.1,4.1,1.2c1.3,0.1,2.6-0.1,3.8-0.7c1.4-0.8,1.7-1.9,0.9-3.2
			l3.3-0.4c0.6,0.8,0.8,1.8,0.6,2.8C99.4,35.2,98.6,36.1,97.7,36.5z"/>
		<path id="Tracé_9837" class="st4" d="M106.3,31.3l-11-6.4l-3,1.7l-2.7-1.5l8.3-4.8l2.7,1.5l-3,1.8l11,6.4L106.3,31.3z"/>
		<path id="Tracé_9838" class="st4" d="M113.2,27.3l-13.7-7.9l7-4l2.7,1.5l-4.7,2.7l2.8,1.6l3.8-2.2l2.7,1.5l-3.8,2.2l2.9,1.7
			l4.7-2.7l2.7,1.5L113.2,27.3z"/>
		<path id="Tracé_9839" class="st4" d="M127,19.6c-1.5,0.8-3.2,1.2-4.9,1c-1.9-0.1-3.7-0.7-5.4-1.6l-8.3-4.8l2.3-1.3l8.3,4.8
			c0.8,0.5,1.8,0.8,2.7,0.9c0.8,0.1,1.7-0.1,2.4-0.5c0.7-0.4,1-0.9,0.9-1.4s-0.6-1.1-1.5-1.6l-8.3-4.8l2.3-1.3l8.3,4.8
			c1.7,1,2.6,2,2.8,3.1S128.3,18.8,127,19.6z"/>
		<path id="Tracé_9840" class="st4" d="M133.7,15.5L120,7.6l4.3-2.5c1.1-0.6,2.4-0.9,3.7-0.8c1.4,0.1,2.7,0.4,3.9,1.1
			c1.8,1,2.2,2.2,1.2,3.4l10.1,1.2l-2.8,1.6l-9.6-1.1l-0.6,0.3l5.8,3.3L133.7,15.5z M127.8,9.4l1.7-1c0.4-0.3,0.7-0.5,0.7-0.8
			S130,7,129.5,6.7c-0.4-0.3-1-0.4-1.5-0.4c-0.5,0-1,0.1-1.5,0.4l-1.7,1L127.8,9.4z"/>
	</g>
	<g id="Groupe_4451" transform="translate(1389.856 646.341)">
		<path id="Tracé_9841" class="st5" d="M12.4,55.4c1.6,0.1,3.1,0.5,4.4,1.2c1.1,0.5,1.9,1.4,2.2,2.5c0.1,0.9-0.4,1.7-1.5,2.4
			L16,62.4l4.5,2.6l-2.3,1.3L4.5,58.4l3.7-2.2C9.5,55.6,11,55.3,12.4,55.4z M15.5,59c-0.1-0.5-0.5-0.9-1-1.1
			c-0.6-0.3-1.2-0.5-1.9-0.5c-0.6,0-1.3,0.1-1.8,0.4l-1.4,0.8l4,2.3l1.4-0.8C15.3,59.8,15.6,59.4,15.5,59L15.5,59z"/>
		<path id="Tracé_9842" class="st5" d="M27.6,60.9L13.9,53l4.3-2.5c1.1-0.6,2.4-0.9,3.7-0.8c1.4,0.1,2.7,0.4,3.9,1.1
			c1.8,1,2.2,2.2,1.2,3.4l10.1,1.2L34.3,57l-9.6-1.1l-0.6,0.3l5.8,3.3L27.6,60.9z M21.7,54.9l1.7-1c0.4-0.3,0.7-0.5,0.7-0.8
			s-0.2-0.6-0.7-0.9c-0.4-0.3-1-0.4-1.5-0.4c-0.5,0-1,0.1-1.5,0.4l-1.7,1L21.7,54.9z"/>
		<path id="Tracé_9843" class="st5" d="M45.1,48.7c0.2,1.5-0.4,2.6-2,3.6c-1.9,1-4.1,1.4-6.2,1.2c-2.4-0.1-4.7-0.7-6.7-1.9
			c-2-1.1-3.1-2.4-3.3-3.9s0.4-2.6,2-3.6c1.9-1,4.1-1.4,6.2-1.2c2.4,0.1,4.7,0.7,6.7,1.9C43.7,45.9,44.8,47.2,45.1,48.7z M36.5,51.4
			c1.3,0.1,2.6-0.1,3.8-0.7c0.9-0.4,1.4-1.3,1.2-2.2c-0.3-1.1-1.1-1.9-2.1-2.4c-1.3-0.7-2.7-1.1-4.1-1.2c-1.3-0.2-2.6,0.1-3.8,0.7
			c-0.9,0.4-1.4,1.3-1.2,2.2c0.3,1.1,1.1,1.9,2.1,2.4C33.7,50.9,35.1,51.3,36.5,51.4z"/>
		<path id="Tracé_9844" class="st5" d="M36.7,39.8l2.1-1.2l9.8,1.4l-2.4-5.6l2.1-1.2L62,41.1l-2.3,1.3l-8.9-5.1l2.3,5.3l-9.2-1.3
			l8.9,5.1l-2.3,1.3L36.7,39.8z"/>
		<path id="Tracé_9845" class="st5" d="M71.9,33.2c0.2,1.5-0.4,2.6-2,3.6c-1.9,1-4.1,1.4-6.2,1.2C61.3,37.9,59,37.2,57,36
			c-2-1.1-3.1-2.4-3.3-3.9c-0.2-1.5,0.4-2.6,2-3.6c1.9-1,4.1-1.4,6.2-1.2c2.4,0.1,4.7,0.7,6.7,1.9C70.6,30.4,71.7,31.7,71.9,33.2z
			 M63.4,35.9c1.3,0.1,2.6-0.1,3.8-0.7c0.9-0.3,1.4-1.3,1.2-2.2c-0.3-1.1-1.1-1.9-2.1-2.4c-1.3-0.7-2.7-1.1-4.1-1.2
			c-1.3-0.1-2.6,0.1-3.8,0.7c-0.9,0.4-1.4,1.3-1.2,2.2c0.3,1.1,1.1,1.9,2.1,2.4C60.5,35.4,61.9,35.8,63.4,35.9L63.4,35.9z"/>
		<path id="Tracé_9846" class="st5" d="M78.9,31.3l-11-6.4l-3,1.7l-2.7-1.5l8.3-4.8l2.7,1.5l-3,1.8l11,6.4L78.9,31.3z"/>
		<path id="Tracé_9847" class="st5" d="M85.9,27.3l-13.7-7.9l7-4l2.7,1.5l-4.7,2.7l2.8,1.6l3.8-2.2l2.7,1.5l-3.8,2.2l2.9,1.7
			l4.7-2.7l2.7,1.5L85.9,27.3z"/>
		<path id="Tracé_9848" class="st5" d="M99.6,19.6c-1.5,0.8-3.2,1.2-4.9,1C92.8,20.5,91,20,89.3,19L81,14.2l2.3-1.3l8.3,4.8
			c0.8,0.5,1.8,0.8,2.7,0.9c0.8,0.1,1.7-0.1,2.4-0.5c0.7-0.4,1-0.9,0.9-1.4s-0.6-1.1-1.5-1.6l-8.3-4.8l2.3-1.3l8.3,4.8
			c1.7,1,2.6,2,2.8,3.1C101.5,17.9,100.9,18.8,99.6,19.6z"/>
		<path id="Tracé_9849" class="st5" d="M106.3,15.5L92.6,7.6l4.3-2.5c1.1-0.6,2.4-0.9,3.7-0.8c1.4,0.1,2.7,0.4,3.9,1.1
			c1.8,1,2.2,2.2,1.2,3.4l10.1,1.2l-2.8,1.6l-9.6-1.1l-0.6,0.3l5.8,3.3L106.3,15.5z M100.4,9.4l1.7-1c0.4-0.3,0.7-0.5,0.7-0.8
			s-0.2-0.6-0.7-0.9c-0.4-0.3-1-0.4-1.5-0.4c-0.5,0-1,0.1-1.5,0.4l-1.7,1L100.4,9.4z"/>
	</g>
	<g id="Groupe_4452" transform="translate(1013.952 712.683)">
		<path id="Tracé_9850" class="st7" d="M18.2,57.6L4.5,49.7l2.3-1.3l11,6.4l4.8-2.8l2.7,1.5L18.2,57.6z"/>
		<path id="Tracé_9851" class="st7" d="M33.8,46.4c0.2,1.5-0.4,2.6-2,3.6c-1.9,1-4.1,1.4-6.2,1.2c-2.4-0.1-4.7-0.7-6.7-1.9
			c-2-1.1-3.1-2.4-3.3-3.9c-0.2-1.5,0.4-2.6,2-3.6c1.9-1,4.1-1.4,6.2-1.2c2.4,0.1,4.7,0.7,6.7,1.9C32.5,43.7,33.6,45,33.8,46.4z
			 M25.3,49.1c1.3,0.1,2.6-0.1,3.8-0.7c0.9-0.4,1.4-1.3,1.2-2.2c-0.3-1.1-1.1-1.9-2.1-2.4c-1.3-0.7-2.7-1.1-4.1-1.2
			c-1.3-0.1-2.6,0.1-3.8,0.7c-0.9,0.4-1.4,1.3-1.2,2.2c0.3,1.1,1.1,1.9,2.1,2.4C22.5,48.7,23.9,49.1,25.3,49.1L25.3,49.1z"/>
		<path id="Tracé_9852" class="st7" d="M40.8,44.5l-11-6.4l-3,1.7l-2.7-1.5l8.4-4.8l2.7,1.5l-3,1.8l11,6.4L40.8,44.5z"/>
		<path id="Tracé_9853" class="st7" d="M47.8,40.5l-13.7-7.9l2.3-1.3l13.7,7.9L47.8,40.5z"/>
		<path id="Tracé_9854" class="st7" d="M56.1,36c-0.9,0.5-2,0.9-3.1,1c-1.2,0.2-2.3,0.1-3.5-0.1l0-2.1c0.7,0.1,1.5,0.1,2.3,0.1
			c0.6-0.1,1.2-0.2,1.8-0.5c0.5-0.3,0.7-0.5,0.7-0.8s-0.2-0.6-0.6-0.8c-0.4-0.2-0.9-0.4-1.4-0.4c-0.7,0-1.3,0.1-2,0.3L49,33
			c-2.2,0.7-4.6,0.4-6.7-0.7c-1.3-0.7-1.9-1.5-1.9-2.3s0.5-1.6,1.6-2.2c1.7-0.9,3.6-1.2,5.4-1l0.4,2c-1.1-0.2-2.2,0-3.2,0.5
			c-0.3,0.2-0.6,0.4-0.7,0.8c-0.1,0.3,0.1,0.6,0.5,0.8c0.4,0.2,0.9,0.3,1.3,0.3c0.7-0.1,1.4-0.2,2.1-0.3l1.3-0.3
			c2.3-0.6,4.7-0.3,6.8,0.8c1.2,0.7,1.9,1.5,1.9,2.4S57.3,35.3,56.1,36z"/>
		<path id="Tracé_9855" class="st7" d="M65.2,30.7c-0.9,0.5-2,0.9-3.1,1c-1.2,0.2-2.3,0.1-3.5-0.1l0-2.1c0.7,0.1,1.5,0.1,2.3,0.1
			c0.6-0.1,1.2-0.2,1.8-0.5c0.5-0.3,0.7-0.5,0.7-0.8s-0.2-0.6-0.6-0.8c-0.4-0.2-0.9-0.4-1.4-0.4c-0.7,0-1.3,0.1-2,0.3l-1.4,0.3
			c-2.2,0.7-4.6,0.4-6.7-0.7c-1.3-0.7-1.9-1.5-1.9-2.3c0-0.8,0.5-1.6,1.6-2.2c1.7-0.9,3.6-1.2,5.4-1l0.4,2c-1.1-0.2-2.2,0-3.2,0.5
			c-0.3,0.2-0.6,0.4-0.7,0.8c-0.1,0.3,0.1,0.5,0.5,0.8c0.4,0.2,0.9,0.3,1.3,0.3c0.7-0.1,1.4-0.2,2.1-0.3l1.3-0.3
			c2.3-0.6,4.7-0.3,6.8,0.8c1.2,0.7,1.8,1.5,1.9,2.4C66.9,29.3,66.3,30.1,65.2,30.7z"/>
		<path id="Tracé_9856" class="st7" d="M70.7,27.3L57,19.4l7-4l2.7,1.5L62,19.6l2.8,1.6l3.8-2.2l2.7,1.5l-3.8,2.2l2.9,1.7l4.7-2.7
			l2.7,1.5L70.7,27.3z"/>
		<path id="Tracé_9857" class="st7" d="M84.4,19.6c-1.5,0.8-3.2,1.2-4.9,1c-1.9-0.1-3.7-0.7-5.4-1.6l-8.3-4.8l2.3-1.3l8.3,4.8
			c0.8,0.5,1.8,0.8,2.7,0.9c0.8,0.1,1.7-0.1,2.4-0.5c0.7-0.4,1-0.9,0.9-1.4c-0.1-0.5-0.6-1.1-1.5-1.6l-8.3-4.8l2.3-1.3l8.3,4.8
			c1.7,1,2.6,2,2.8,3.1C86.3,17.9,85.8,18.8,84.4,19.6z"/>
		<path id="Tracé_9858" class="st7" d="M91.2,15.5L77.5,7.6l4.3-2.5c1.1-0.6,2.4-0.9,3.7-0.8c1.4,0.1,2.7,0.4,3.9,1.1
			c1.8,1,2.2,2.2,1.3,3.4l10.1,1.2l-2.8,1.6l-9.6-1.1l-0.6,0.3l5.8,3.3L91.2,15.5z M85.3,9.4l1.7-1c0.4-0.3,0.7-0.5,0.7-0.8
			S87.5,7,87,6.7c-0.4-0.3-1-0.4-1.5-0.4c-0.5,0-1,0.1-1.5,0.4l-1.7,1L85.3,9.4z"/>
	</g>
	<g id="Groupe_4453" transform="translate(950.987 284.418)">
		<path id="Tracé_9859" class="st2" d="M18.2,50.2L4.5,42.3L6.8,41l5.5,3.1l4.9-2.8l-5.5-3.1l2.3-1.3l13.7,7.9l-2.3,1.3l-5.6-3.2
			l-4.9,2.8l5.6,3.2L18.2,50.2z"/>
		<path id="Tracé_9860" class="st2" d="M34.9,40.8c-1.5,0.8-3.2,1.2-4.9,1c-1.9-0.1-3.7-0.7-5.4-1.6l-8.3-4.8l2.3-1.3l8.3,4.8
			c0.8,0.5,1.8,0.8,2.7,0.9c0.8,0.1,1.7-0.1,2.4-0.5c0.7-0.4,1-0.9,0.9-1.4s-0.6-1.1-1.5-1.6l-8.3-4.8l2.3-1.3l8.3,4.8
			c1.7,1,2.6,2,2.8,3.1C36.8,39.1,36.2,40.1,34.9,40.8z"/>
		<path id="Tracé_9861" class="st2" d="M41.6,36.7l-13.7-7.9l2.3-1.3l13.7,7.9L41.6,36.7z"/>
		<path id="Tracé_9862" class="st2" d="M49.9,32.1c-0.9,0.5-2,0.9-3.1,1c-1.2,0.2-2.3,0.1-3.5-0.1l0-2.1c0.7,0.1,1.5,0.2,2.3,0.1
			c0.6-0.1,1.2-0.2,1.8-0.5c0.5-0.3,0.7-0.5,0.7-0.8s-0.2-0.6-0.6-0.8c-0.4-0.2-0.9-0.4-1.4-0.4c-0.7,0-1.3,0.1-2,0.3l-1.4,0.3
			c-2.2,0.7-4.6,0.4-6.7-0.7c-1.3-0.7-1.9-1.5-1.9-2.3c0-0.8,0.5-1.6,1.6-2.2c1.7-0.9,3.6-1.2,5.4-1l0.4,2c-1.1-0.2-2.2,0-3.2,0.5
			c-0.3,0.2-0.6,0.4-0.7,0.8c-0.1,0.3,0.1,0.6,0.5,0.8c0.4,0.2,0.9,0.3,1.3,0.3c0.7-0.1,1.4-0.2,2.1-0.3l1.3-0.3
			c2.3-0.6,4.7-0.3,6.8,0.8c1.2,0.7,1.8,1.5,1.9,2.4C51.7,30.7,51.1,31.5,49.9,32.1z"/>
		<path id="Tracé_9863" class="st2" d="M59,26.9c-0.9,0.5-2,0.9-3.1,1c-1.2,0.2-2.3,0.1-3.5-0.1l0-2.1c0.7,0.1,1.5,0.2,2.3,0.1
			c0.6-0.1,1.2-0.2,1.8-0.5c0.5-0.3,0.7-0.5,0.7-0.8s-0.2-0.6-0.6-0.8c-0.4-0.2-0.9-0.4-1.4-0.4c-0.7,0-1.3,0.1-2,0.2l-1.4,0.3
			c-2.2,0.7-4.6,0.4-6.7-0.7c-1.3-0.7-1.9-1.5-1.9-2.3s0.5-1.6,1.6-2.2c1.7-0.9,3.6-1.2,5.4-1l0.4,2c-1.1-0.2-2.2,0-3.2,0.5
			c-0.3,0.2-0.6,0.4-0.7,0.8c-0.1,0.3,0.1,0.6,0.4,0.8c0.4,0.2,0.9,0.3,1.3,0.3c0.7,0,1.4-0.2,2.1-0.3l1.3-0.3
			c2.3-0.6,4.7-0.3,6.8,0.8c1.2,0.7,1.8,1.5,1.9,2.4S60.2,26.2,59,26.9z"/>
		<path id="Tracé_9864" class="st2" d="M64.6,23.4l-13.7-7.9l2.3-1.3l13.7,7.9L64.6,23.4z"/>
		<path id="Tracé_9865" class="st2" d="M69.4,20.7l-13.7-7.9l7-4.1l2.7,1.5L60.6,13l2.8,1.6l3.8-2.2l2.7,1.5l-3.8,2.2l2.9,1.7
			l4.7-2.7l2.7,1.5L69.4,20.7z"/>
		<path id="Tracé_9866" class="st2" d="M78.4,15.5L64.7,7.6L69,5.1c1.1-0.6,2.4-0.9,3.7-0.8c1.4,0.1,2.7,0.4,3.9,1.1
			c1.8,1,2.2,2.2,1.3,3.4L87.9,10l-2.8,1.6l-9.6-1.1l-0.6,0.3l5.8,3.3L78.4,15.5z M72.5,9.4l1.7-1c0.4-0.3,0.7-0.5,0.7-0.8
			S74.7,7,74.2,6.7c-0.4-0.3-1-0.4-1.5-0.4c-0.5,0-1,0.1-1.5,0.4l-1.7,1L72.5,9.4z"/>
	</g>
	<ellipse id="Ellipse_145" class="st9" cx="1296.8" cy="415.4" rx="215.3" ry="124.3"/>
	<g id="Groupe_4457" transform="translate(1143.453 311.866)">
		<g id="Axonometric_Cube" transform="translate(0 75.072)">
			<path id="Cube_face_-_left" class="st10" d="M188.4,127.9L4.5,21.7l0-17.4l183.9,36.2V127.9z"/>
			<path id="Cube_face_-_right" class="st11" d="M318.4,52.8l-130,75.1V40.5l130-5.1V52.8z"/>
		</g>
		<path id="Tracé_9867" class="st12" d="M318.4,110.4l-130,75.1L4.5,79.3l130-75.1L318.4,110.4z"/>
		<path id="Tracé_9868" class="st13" d="M203.2,183.1c-4.9,2.7-9.7,5.5-14.6,8.3c-5.2-3-0.1,0,0,0c0-0.1-0.1-0.1,0,0
			c0.1,0.5,0.1,0.9,0,1.4c-0.1-0.1-5.5-3.2-0.3-0.2l0.3,0.2l0.3-0.2c4.9-2.9,9.9-5.7,14.8-8.7c4.9-2.9,9.8-5.9,14.6-9
			C213.2,177.6,208.2,180.4,203.2,183.1z"/>
		<path id="Tracé_9869" class="st14" d="M290.6,133.4c9.6-4.8,18.9-10.2,27.8-16.1C308.8,122.1,299.5,127.5,290.6,133.4z"/>
		<path id="Tracé_9870" class="st13" d="M220.4,180.1c4.5-2.2,8.8-4.7,12.9-7.5C228.8,174.9,224.5,177.4,220.4,180.1z"/>
		<g id="Groupe_25" transform="translate(228.792 103.182)">
			<g id="Groupe_19" transform="translate(0 20.344)">
				<path id="Rectangle_6" class="st15" d="M6,5.3l0.3-0.2c2.2-1.3,6.1-1.1,8.6,0.4l0.4,0.2c2.5,1.5,2.8,3.7,0.6,5l-0.3,0.2
					C13.4,12.1,9.5,12,7,10.5l-0.4-0.2C4,8.8,3.8,6.6,6,5.3z"/>
				<g id="Groupe_18">
					<g id="Groupe_4405">
						<g id="Groupe_4455">
							<g>
								<defs>
									<path id="SVGID_1_" d="M6,5.3l0.3-0.2c2.2-1.3,6.1-1.1,8.6,0.4l0.4,0.2c2.5,1.5,2.8,3.7,0.6,5l-0.3,0.2
										C13.4,12.1,9.5,12,7,10.5l-0.4-0.2C4,8.8,3.8,6.6,6,5.3z"/>
								</defs>
								<clipPath id="SVGID_2_">
									<use xlink:href="#SVGID_1_"  style="overflow:visible;"/>
								</clipPath>
								<g id="Groupe_4454" class="st16">
									<g id="Groupe_4404" transform="translate(-13.529 -11.366)">
										<g id="Groupe_17" transform="translate(0 0)">
											
												<ellipse id="Ellipse_3" transform="matrix(0.9999 -1.129204e-02 1.129204e-02 0.9999 -0.1457 0.2203)" class="st17" cx="19.4" cy="13" rx="14.9" ry="8.6"/>
										</g>
									</g>
								</g>
							</g>
						</g>
					</g>
				</g>
			</g>
			<g id="Groupe_22" transform="translate(2.274 21.656)">
				<g id="Groupe_20">
					<path id="Tracé_64" class="st18" d="M5,6.3c-0.3,0-0.5,0.1-0.5,0.3S4.8,6.8,5,6.8l7.4,0.3c0.3,0,0.5-0.1,0.5-0.3
						s-0.3-0.3-0.5-0.3L5,6.3z"/>
					<path id="Tracé_65" class="st18" d="M8.8,4.4c-0.2-0.1-0.5-0.1-0.7,0C8,4.4,7.9,4.5,7.9,4.5l0.5,4.3C8.5,9,8.8,9.1,9,9.1
						S9.5,9,9.5,8.9L8.9,4.6C8.9,4.5,8.9,4.4,8.8,4.4z"/>
				</g>
				<g id="Groupe_21" transform="translate(0.853 0.493)">
					<path id="Tracé_66" class="st12" d="M4.6,4.4C4.4,4.5,4.4,4.7,4.7,4.9c0.3,0.2,0.6,0.2,0.9,0c0.2-0.1,0.2-0.4-0.1-0.5l0,0
						C5.3,4.2,4.9,4.2,4.6,4.4z"/>
					<path id="Tracé_67" class="st12" d="M10,7.4C9.7,7.6,9.8,7.8,10,8c0.3,0.2,0.6,0.2,0.9,0c0.2-0.1,0.2-0.4-0.1-0.5
						C10.6,7.3,10.3,7.3,10,7.4z"/>
					<path id="Tracé_68" class="st12" d="M9.9,4.6L5,7.4C4.8,7.5,4.8,7.7,5.1,7.8c0.2,0.1,0.5,0.1,0.7,0L10.6,5
						c0.2-0.1,0.1-0.3-0.1-0.4C10.3,4.5,10.1,4.5,9.9,4.6z"/>
				</g>
			</g>
			<g id="Groupe_23" transform="translate(10.823)">
				<path id="Tracé_69" class="st19" d="M5.9,23l2.3,1.4c0.2,0.1,0.3,0.2,0.3,0.4c0,0.2-0.1,0.3-0.3,0.4c-0.1,0-0.1,0.1-0.2,0.1
					l-0.4-0.2c0,0,0.1,0,0.1-0.1C8,24.8,8,24.7,7.8,24.5l-2.3-1.3L5.9,23z M5.2,22.8c-0.1,0-0.2,0.1-0.3,0.1c-0.1,0-0.2,0-0.3-0.1
					c-0.1,0-0.1-0.1-0.1-0.2c0-0.1,0-0.1,0.1-0.2c0.1,0,0.2-0.1,0.3-0.1c0.1,0,0.2,0,0.3,0.1c0.1,0,0.1,0.1,0.1,0.2
					C5.3,22.7,5.3,22.8,5.2,22.8L5.2,22.8z"/>
				<path id="Tracé_70" class="st19" d="M9.5,23.4c-0.3,0.2-0.7,0.2-1,0.2c-0.4,0-0.7-0.1-1.1-0.3c-0.6-0.3-0.7-0.9-0.2-1.2l0,0
					c0.6-0.3,1.3-0.3,1.8,0c0,0,0.1,0,0.1,0.1c0.1,0,0.1,0.1,0.1,0.1l-1.4,0.8c0.2,0.1,0.4,0.1,0.6,0.1c0.5,0,0.9-0.3,0.8-0.6l0,0
					l0.6,0C10,22.9,9.8,23.2,9.5,23.4z M7.6,22.9l1-0.6c-0.2-0.1-0.3-0.1-0.5-0.1c-0.2,0-0.3,0-0.4,0.1c-0.1,0.1-0.2,0.1-0.2,0.3
					C7.4,22.7,7.5,22.9,7.6,22.9L7.6,22.9z"/>
				<path id="Tracé_71" class="st19" d="M11.6,22.2c-0.3,0.2-0.6,0.2-1,0.2c-0.8-0.1-1.5-0.4-1.6-0.9c0-0.2,0.1-0.5,0.3-0.6
					c0.1-0.1,0.3-0.1,0.4-0.1c0.2,0,0.3,0,0.5,0L9,20l0.4-0.2l3.2,1.8l-0.4,0.2l-0.3-0.2c0,0.1,0,0.2,0,0.3
					C11.8,22,11.7,22.1,11.6,22.2z M10.7,22c0.5,0,0.8-0.2,0.8-0.4v0c-0.1-0.3-0.5-0.5-1-0.6c-0.5,0-0.8,0.2-0.8,0.4v0
					C9.8,21.7,10.2,21.9,10.7,22L10.7,22z"/>
				<path id="Tracé_72" class="st19" d="M10.8,19.6c-0.1,0-0.2,0.1-0.3,0.1c-0.1,0-0.2,0-0.3-0.1c-0.1,0-0.1-0.1-0.1-0.2
					c0-0.1,0-0.1,0.1-0.2c0.1,0,0.2-0.1,0.3-0.1c0.1,0,0.2,0,0.3,0.1c0.1,0,0.1,0.1,0.1,0.2C10.9,19.5,10.9,19.6,10.8,19.6z
					 M13.2,21.2L11.1,20l0.4-0.2l2.1,1.2L13.2,21.2z"/>
				<path id="Tracé_73" class="st19" d="M14.8,20.3l-2.9-0.7l0.4-0.3l2,0.5l-0.9-1.2l0.5-0.3l1.3,1.7L14.8,20.3z"/>
				<path id="Tracé_74" class="st19" d="M13.9,17.8c-0.1,0-0.2,0.1-0.3,0.1c-0.1,0-0.2,0-0.3-0.1c-0.1,0-0.1-0.1-0.1-0.2
					c0-0.1,0-0.1,0.1-0.2c0.1,0,0.2-0.1,0.3-0.1c0.1,0,0.2,0,0.3,0.1c0.1,0,0.1,0.1,0.1,0.2C14,17.7,14,17.8,13.9,17.8z M16.3,19.4
					l-2.1-1.2l0.4-0.2l2.1,1.2L16.3,19.4z"/>
				<path id="Tracé_75" class="st19" d="M18,18.5c-0.4,0.2-0.8,0.3-1.2,0.2l0.1-0.3c0.1,0,0.3,0,0.4,0c0.1,0,0.2,0,0.3-0.1
					c0.1,0,0.1-0.1,0.1-0.1c0-0.1-0.1-0.2-0.2-0.2c0,0,0,0-0.1,0c-0.1,0-0.2,0-0.3,0.1L16.8,18c-0.4,0.1-0.8,0.1-1.1-0.1
					c-0.2-0.1-0.3-0.2-0.3-0.4c0-0.2,0.2-0.3,0.3-0.4c0.3-0.2,0.6-0.2,1-0.1l0,0.3c-0.2,0-0.4,0-0.6,0.1c-0.1,0-0.1,0.1-0.1,0.1
					c0,0,0,0.1,0.1,0.1c0.1,0,0.1,0.1,0.2,0.1c0.1,0,0.2,0,0.3,0l0.2-0.1c0.2-0.1,0.4-0.1,0.6-0.1c0.2,0,0.4,0.1,0.5,0.2
					c0.2,0.1,0.3,0.2,0.3,0.4C18.2,18.3,18.1,18.4,18,18.5z"/>
				<path id="Tracé_76" class="st19" d="M19.9,17.3c-0.3,0.2-0.7,0.2-1,0.2c-0.4,0-0.7-0.1-1.1-0.3c-0.6-0.3-0.7-0.9-0.2-1.2l0,0
					c0.6-0.3,1.3-0.3,1.8,0c0,0,0.1,0,0.1,0.1l0.1,0.1l-1.4,0.8c0.2,0.1,0.4,0.1,0.6,0.1c0.5,0,0.9-0.3,0.8-0.6l0,0l0.6,0
					C20.4,16.9,20.3,17.2,19.9,17.3z M18.1,16.9l1-0.6c-0.2-0.1-0.3-0.1-0.5-0.1c-0.2,0-0.3,0-0.4,0.1c-0.1,0-0.2,0.1-0.2,0.3
					C17.9,16.7,18,16.8,18.1,16.9L18.1,16.9z"/>
				<path id="Tracé_77" class="st19" d="M23.6,15.2l-1.2-0.7c-0.1-0.1-0.3-0.2-0.5-0.2c-0.1,0-0.3,0-0.4,0.1
					c-0.1,0-0.2,0.2-0.1,0.3c0.1,0.2,0.2,0.3,0.4,0.4l1.1,0.6l-0.4,0.2l-1.2-0.7c-0.1-0.1-0.3-0.2-0.5-0.2c-0.1,0-0.3,0-0.4,0.1
					c-0.1,0-0.2,0.2-0.1,0.3c0.1,0.2,0.2,0.3,0.4,0.4l1,0.6l-0.4,0.2l-2.1-1.2l0.4-0.2l0.3,0.2c-0.1-0.3,0.1-0.6,0.6-0.6
					c0.2,0,0.4,0,0.5,0c-0.1-0.1-0.1-0.2-0.1-0.3c0-0.1,0.1-0.2,0.2-0.3c0.2-0.1,0.5-0.2,0.7-0.1c0.3,0,0.6,0.1,0.8,0.3l1.3,0.7
					L23.6,15.2z"/>
				<path id="Tracé_78" class="st19" d="M25.8,13.6c0,0.5-0.6,0.8-1.4,0.8s-1.5-0.4-1.6-0.9s0.5-0.8,1.4-0.8S25.8,13.1,25.8,13.6z
					 M25,13.9c0.1-0.1,0.2-0.2,0.2-0.3c-0.1-0.3-0.5-0.5-1-0.6c-0.5,0-0.8,0.2-0.8,0.4v0c0.1,0.3,0.5,0.5,1,0.6
					C24.7,14,24.9,14,25,13.9L25,13.9z"/>
				<path id="Tracé_79" class="st19" d="M26.9,13.3l-2.1-1.2l0.4-0.2l0.3,0.2c-0.1-0.2,0-0.4,0.2-0.5c0.2-0.1,0.5-0.2,0.8-0.2
					c0.3,0,0.6,0.1,0.8,0.3l1.3,0.7l-0.4,0.2l-1.2-0.7c-0.2-0.1-0.3-0.1-0.5-0.2c-0.1,0-0.3,0-0.4,0.1c-0.1,0-0.2,0.2-0.2,0.3
					c0.1,0.2,0.2,0.3,0.4,0.4l1,0.6L26.9,13.3z"/>
				<path id="Tracé_80" class="st19" d="M29.9,11.6c-0.2,0.1-0.4,0.2-0.6,0.2c-0.2,0-0.5-0.1-0.7-0.2l-1-0.6l-0.4,0.2l-0.4-0.2
					l0.4-0.2l-0.6-0.3l0.4-0.2l0.6,0.3l0.5-0.3l0.4,0.2L28,10.7l0.9,0.5c0.2,0.1,0.4,0.1,0.6,0.1c0,0,0.1,0,0.1-0.1
					c0.1,0,0.1-0.1,0.2-0.1l0.4,0.2C30.1,11.4,30,11.5,29.9,11.6z"/>
				<path id="Tracé_81" class="st19" d="M31.5,10.7c-0.6,0.3-1.4,0.3-2,0c-0.6-0.3-0.7-0.9-0.2-1.2c0,0,0.1,0,0.1-0.1
					c0.6-0.3,1.3-0.3,1.8,0c0,0,0.1,0,0.1,0.1c0.1,0,0.1,0.1,0.1,0.1L30,10.4c0.2,0.1,0.4,0.1,0.6,0.1c0.5,0,0.9-0.3,0.8-0.6l0,0
					l0.6,0C32,10.2,31.9,10.5,31.5,10.7z M29.6,10.2l1-0.6c-0.2-0.1-0.3-0.1-0.5-0.1c-0.2,0-0.3,0-0.4,0.1c-0.1,0.1-0.2,0.1-0.2,0.3
					C29.5,10,29.5,10.1,29.6,10.2L29.6,10.2z"/>
				<path id="Tracé_82" class="st19" d="M32.8,9.8l-2.1-1.2l0.4-0.2l0.4,0.2c-0.1-0.1-0.1-0.2-0.1-0.3c0-0.1,0.1-0.2,0.2-0.2
					c0.1,0,0.1-0.1,0.2-0.1l0.5,0.3c-0.1,0-0.2,0.1-0.2,0.1c-0.1,0-0.2,0.2-0.1,0.3c0.1,0.2,0.2,0.3,0.3,0.3l1,0.6L32.8,9.8z"/>
				<path id="Tracé_83" class="st19" d="M34.3,9l-2.1-1.2l0.4-0.2L33,7.8c-0.1-0.1-0.1-0.2-0.1-0.3c0-0.1,0.1-0.2,0.2-0.2
					c0.1,0,0.1-0.1,0.2-0.1l0.5,0.3c-0.1,0-0.2,0.1-0.2,0.1c-0.1,0-0.2,0.2-0.1,0.3c0.1,0.2,0.2,0.3,0.3,0.3l1,0.6L34.3,9z"/>
				<path id="Tracé_84" class="st19" d="M36.5,7.8c-0.3,0.2-0.6,0.2-1,0.2c-0.8-0.1-1.5-0.4-1.6-0.9c0-0.2,0.1-0.5,0.3-0.5
					c0.1-0.1,0.3-0.1,0.4-0.1c0.2,0,0.3,0,0.5,0l-0.3-0.2L35.3,6l2.1,1.2l-0.4,0.2l-0.3-0.2c0,0.1,0,0.2,0,0.3
					C36.7,7.6,36.6,7.7,36.5,7.8z M35.6,7.6c0.5,0,0.8-0.2,0.8-0.4v0c-0.1-0.3-0.5-0.5-1-0.6c-0.5,0-0.8,0.2-0.8,0.4v0
					C34.7,7.3,35.1,7.6,35.6,7.6z"/>
				<path id="Tracé_85" class="st19" d="M35.7,5.2c-0.1,0-0.2,0.1-0.3,0.1c-0.1,0-0.2,0-0.3-0.1C35,5.2,35,5.1,35,5
					c0-0.1,0-0.1,0.1-0.2c0.1,0,0.2-0.1,0.3-0.1c0.1,0,0.2,0,0.3,0.1c0.1,0,0.1,0.1,0.1,0.2C35.8,5.1,35.8,5.2,35.7,5.2z M38.1,6.8
					L36,5.6l0.4-0.2l2.1,1.2L38.1,6.8z"/>
				<path id="Tracé_86" class="st19" d="M39.1,6.2L37,5l0.4-0.2l0.3,0.2c-0.1-0.2,0-0.4,0.2-0.5c0.2-0.1,0.5-0.2,0.8-0.2
					c0.3,0,0.6,0.1,0.8,0.3l1.3,0.7l-0.4,0.2l-1.2-0.7c-0.2-0.1-0.3-0.1-0.5-0.2c-0.1,0-0.3,0-0.4,0.1c-0.1,0-0.2,0.2-0.2,0.3
					c0.1,0.2,0.2,0.3,0.4,0.4l1,0.6L39.1,6.2z"/>
			</g>
			<g id="Groupe_24" transform="translate(15.379 2.082)">
				<path id="Tracé_87" class="st20" d="M5.5,24l-1-0.6l0.1-0.1l0.2,0.1c-0.1-0.1-0.1-0.2,0-0.2c0,0,0,0,0,0c0,0,0,0,0.1,0
					c0,0,0,0,0.1,0l0.1,0.1c0,0-0.1,0-0.1,0c-0.1,0-0.1,0.1-0.1,0.1c0,0.1,0.1,0.2,0.2,0.2l0.5,0.3L5.5,24z"/>
				<path id="Tracé_88" class="st20" d="M6.5,23.4c-0.1,0.1-0.3,0.1-0.5,0.1c-0.2,0-0.3-0.1-0.5-0.1c-0.1-0.1-0.2-0.2-0.2-0.3
					c0-0.1,0.1-0.2,0.2-0.3c0.1-0.1,0.3-0.1,0.4-0.1c0.2,0,0.3,0.1,0.5,0.1l0,0l-0.7,0.4c0.2,0.1,0.5,0.1,0.7,0l0,0
					c0.1,0,0.1-0.1,0.1-0.1c0-0.1,0-0.1,0-0.1l0.2,0C6.7,23.2,6.7,23.4,6.5,23.4z M5.6,23.3l0.6-0.3c-0.1,0-0.2-0.1-0.3-0.1
					c-0.1,0-0.2,0-0.3,0.1c-0.1,0-0.1,0.1-0.1,0.2C5.5,23.1,5.5,23.2,5.6,23.3L5.6,23.3z M5.3,22.8l-0.2-0.3l0.2-0.1l0.2,0.3
					L5.3,22.8z"/>
				<path id="Tracé_89" class="st20" d="M7.4,22.9L6,22.5l0.1-0.1l1.1,0.3l-0.5-0.6L6.9,22L7.4,22.9L7.4,22.9z"/>
				<path id="Tracé_90" class="st20" d="M8.5,22.3c-0.1,0.1-0.3,0.1-0.5,0.1c-0.2,0-0.3-0.1-0.5-0.1c-0.1-0.1-0.2-0.2-0.2-0.3
					c0-0.1,0.1-0.2,0.2-0.3c0.1-0.1,0.3-0.1,0.4-0.1c0.2,0,0.3,0.1,0.5,0.1l0,0l-0.7,0.4c0.2,0.1,0.5,0.1,0.7,0l0,0
					c0.1,0,0.1-0.1,0.1-0.1c0-0.1,0-0.1,0-0.1l0.2,0C8.7,22,8.7,22.2,8.5,22.3C8.6,22.3,8.5,22.3,8.5,22.3z M7.6,22.1l0.6-0.3
					c-0.1,0-0.2-0.1-0.3-0.1c-0.1,0-0.2,0-0.3,0.1c-0.1,0-0.1,0.1-0.1,0.2C7.5,22,7.5,22.1,7.6,22.1L7.6,22.1z M7.3,21.7l-0.6-0.1
					l0.2-0.1l0.5,0.1L7.3,21.7z"/>
				<path id="Tracé_91" class="st20" d="M9.2,21.9L7.7,21l0.1-0.1l1.5,0.9L9.2,21.9z"/>
				<path id="Tracé_92" class="st20" d="M10,21.4c-0.1,0.1-0.3,0.1-0.5,0.1c-0.2,0-0.3-0.1-0.5-0.1c-0.1-0.1-0.2-0.2-0.2-0.3
					c0-0.1,0.1-0.2,0.2-0.3c0.1-0.1,0.3-0.1,0.4-0.1c0.2,0,0.3,0.1,0.5,0.1l0,0l-0.7,0.4c0.2,0.1,0.5,0.1,0.7,0l0,0
					c0.1,0,0.1-0.1,0.1-0.1c0-0.1,0-0.1,0-0.1l0.2,0C10.3,21.2,10.2,21.3,10,21.4z M9.1,21.2l0.6-0.3c-0.1,0-0.2-0.1-0.3-0.1
					c-0.1,0-0.2,0-0.3,0.1C9,20.9,9,21,9,21C9,21.1,9,21.2,9.1,21.2L9.1,21.2z"/>
				<path id="Tracé_93" class="st20" d="M11.1,20.7l-1.5-0.9l0.1-0.1l1.5,0.9L11.1,20.7z"/>
				<path id="Tracé_94" class="st20" d="M12,20.3c-0.1,0.1-0.3,0.1-0.5,0.1c-0.2,0-0.3-0.1-0.5-0.1c-0.1-0.1-0.2-0.2-0.2-0.3
					c0-0.1,0.1-0.2,0.2-0.3c0.1-0.1,0.3-0.1,0.4-0.1c0.2,0,0.3,0.1,0.5,0.1l0,0l-0.7,0.4c0.2,0.1,0.5,0.1,0.7,0l0,0
					c0.1,0,0.1-0.1,0.1-0.1c0-0.1,0-0.1,0-0.1l0.2,0C12.2,20.1,12.2,20.2,12,20.3z M11.1,20.1l0.6-0.3c-0.1,0-0.2-0.1-0.3-0.1
					c-0.1,0-0.2,0-0.3,0.1c-0.1,0-0.1,0.1-0.1,0.2C11,20,11,20.1,11.1,20.1L11.1,20.1z"/>
				<path id="Tracé_95" class="st20" d="M13.5,19.4l-2-0.5l0.2-0.1l1.5,0.4l-0.7-0.8l0.2-0.1l0.9,1.1L13.5,19.4z"/>
				<path id="Tracé_96" class="st20" d="M14.4,18.9L13,18l0.4-0.3c0.1-0.1,0.3-0.1,0.4-0.1c0.1,0,0.3,0,0.4,0.1
					c0.1,0,0.1,0.1,0.2,0.2c0,0.1,0,0.1-0.1,0.2l1.1,0.1l-0.3,0.1l-1.1-0.1L14,18.4l0.6,0.4L14.4,18.9z M13.8,18.3l0.2-0.1
					c0,0,0.1-0.1,0.1-0.1c0-0.1-0.1-0.2-0.3-0.2h0c-0.1,0-0.1,0-0.2,0.1l-0.2,0.1L13.8,18.3z"/>
				<path id="Tracé_97" class="st20" d="M15.4,18.3l-0.9-1.1l0.2-0.1l2,0.5l-0.2,0.1l-0.5-0.1l-0.6,0.3l0.2,0.3L15.4,18.3z
					 M14.9,17.3l0.3,0.4l0.4-0.2L14.9,17.3z"/>
				<path id="Tracé_98" class="st20" d="M16.9,17.4l-1.4-0.8l0.2-0.1l1.4,0.8L16.9,17.4z"/>
				<path id="Tracé_99" class="st20" d="M18.4,17l-0.2,0.1l-1.4-0.8l0.2-0.1l0.1,0.1c0,0,0-0.1,0-0.1c0-0.1,0.1-0.1,0.1-0.1
					c0.1-0.1,0.3-0.1,0.5-0.1c0.4,0,0.7,0.2,0.7,0.4c0,0.1,0,0.2-0.1,0.3c-0.1,0-0.1,0.1-0.2,0.1c-0.1,0-0.2,0-0.2,0L18.4,17z
					 M18.1,16.5c0.1,0,0.1-0.1,0.1-0.2c-0.1-0.2-0.3-0.3-0.5-0.3c-0.1,0-0.2,0-0.3,0.1c-0.1,0-0.1,0.1-0.1,0.2
					c0.1,0.2,0.3,0.3,0.5,0.3C17.9,16.6,18,16.6,18.1,16.5L18.1,16.5z"/>
				<path id="Tracé_100" class="st20" d="M19.5,15.8c0,0.2-0.3,0.4-0.6,0.4s-0.7-0.2-0.8-0.4s0.3-0.4,0.6-0.4
					c0.2,0,0.4,0.1,0.5,0.1C19.4,15.5,19.5,15.6,19.5,15.8z M19.2,15.9c0.1,0,0.1-0.1,0.1-0.2c0-0.1-0.2-0.2-0.5-0.3
					s-0.4,0.1-0.4,0.2v0c0,0.1,0.2,0.2,0.5,0.3C19,16,19.1,16,19.2,15.9L19.2,15.9z"/>
				<path id="Tracé_101" class="st20" d="M20.4,15.4c-0.1,0.1-0.2,0.1-0.3,0.1c-0.1,0-0.2,0-0.3-0.1l-0.5-0.3l-0.2,0.1l-0.2-0.1
					l0.2-0.1l-0.3-0.2l0.2-0.1l0.3,0.2l0.2-0.1l0.2,0.1L19.5,15l0.5,0.3c0.1,0.1,0.2,0.1,0.3,0c0,0,0,0,0,0c0,0,0.1,0,0.1-0.1
					l0.2,0.1C20.5,15.4,20.4,15.4,20.4,15.4z"/>
				<path id="Tracé_102" class="st20" d="M21.2,15c-0.1,0.1-0.3,0.1-0.5,0.1c-0.4,0-0.7-0.2-0.8-0.4c0-0.1,0.1-0.2,0.2-0.3
					c0.3-0.1,0.6-0.1,0.9,0l0.1,0l0.1,0l-0.7,0.4c0.1,0,0.2,0.1,0.3,0.1c0.2,0,0.4-0.1,0.4-0.3l0,0l0.3,0
					C21.4,14.8,21.3,14.9,21.2,15z M20.3,14.8l0.5-0.3c-0.1,0-0.2,0-0.2,0c-0.1,0-0.1,0-0.2,0.1c-0.1,0-0.1,0.1-0.1,0.1
					C20.2,14.7,20.2,14.7,20.3,14.8L20.3,14.8z"/>
				<path id="Tracé_103" class="st20" d="M21.8,14.6l-1-0.6l0.2-0.1l0.1,0.1c0-0.1,0-0.2,0.1-0.2c0.1-0.1,0.2-0.1,0.4-0.1
					c0.1,0,0.3,0.1,0.4,0.1l0.6,0.4l-0.2,0.1l-0.6-0.3c-0.1,0-0.2-0.1-0.2-0.1c-0.1,0-0.1,0-0.2,0c-0.1,0-0.1,0.1-0.1,0.1
					c0,0.1,0.1,0.1,0.2,0.2l0.5,0.3L21.8,14.6z"/>
				<path id="Tracé_104" class="st20" d="M23.2,13.8c-0.1,0.1-0.2,0.1-0.3,0.1c-0.1,0-0.2,0-0.3-0.1l-0.5-0.3l-0.2,0.1l-0.2-0.1
					l0.2-0.1l-0.3-0.2l0.2-0.1l0.3,0.2l0.2-0.1l0.2,0.1l-0.2,0.1l0.5,0.3c0.1,0.1,0.2,0.1,0.3,0c0,0,0,0,0,0c0,0,0.1,0,0.1-0.1
					l0.2,0.1C23.3,13.7,23.3,13.8,23.2,13.8z"/>
				<path id="Tracé_105" class="st20" d="M22.5,12.8c0,0-0.1,0-0.1,0c-0.1,0-0.1,0-0.1,0c0,0-0.1,0-0.1-0.1c0,0,0-0.1,0-0.1
					c0,0,0.1,0,0.1,0c0,0,0.1,0,0.1,0C22.5,12.7,22.5,12.7,22.5,12.8C22.5,12.8,22.5,12.8,22.5,12.8z M23.6,13.6l-1-0.6l0.2-0.1
					l1,0.6L23.6,13.6z"/>
				<path id="Tracé_106" class="st20" d="M24.5,13.1c-0.3,0.1-0.7,0.1-1,0c-0.1-0.1-0.2-0.2-0.2-0.3c0-0.1,0.1-0.2,0.2-0.3
					c0.3-0.1,0.6-0.1,0.9,0l0.1,0l0.1,0l-0.7,0.4c0.1,0,0.2,0.1,0.3,0.1c0.2,0,0.4-0.1,0.4-0.3l0,0l0.3,0
					C24.7,12.8,24.7,13,24.5,13.1z M23.6,12.9l0.5-0.3c-0.1,0-0.2-0.1-0.2-0.1c-0.1,0-0.1,0-0.2,0.1c-0.1,0-0.1,0.1-0.1,0.1
					C23.5,12.8,23.5,12.8,23.6,12.9L23.6,12.9z"/>
				<path id="Tracé_107" class="st20" d="M25.1,12.7l-1.5-0.9l0.2-0.1l1.5,0.9L25.1,12.7z"/>
				<path id="Tracé_108" class="st20" d="M26.4,11.9C26.3,12,26.1,12,26,12c-0.4,0-0.7-0.2-0.7-0.4c0-0.1,0-0.2,0.2-0.3
					c0.1,0,0.2-0.1,0.2-0.1c0.1,0,0.2,0,0.3,0l-0.7-0.4l0.1-0.1l1.5,0.9l-0.1,0.1l-0.2-0.1c0,0.1,0,0.1,0,0.2
					C26.6,11.9,26.5,11.9,26.4,11.9z M26,11.9c0.3,0,0.5-0.1,0.5-0.3v0c0-0.2-0.3-0.3-0.6-0.3s-0.5,0.1-0.5,0.3v0
					C25.5,11.8,25.7,11.9,26,11.9L26,11.9z"/>
				<path id="Tracé_109" class="st20" d="M27.6,11.3c-0.1,0.1-0.3,0.1-0.5,0.1c-0.2,0-0.3-0.1-0.5-0.1c-0.1-0.1-0.2-0.2-0.2-0.3
					c0-0.1,0.1-0.2,0.2-0.3c0.1-0.1,0.3-0.1,0.4-0.1c0.2,0,0.3,0.1,0.5,0.1l0,0l-0.7,0.4c0.2,0.1,0.5,0.1,0.7,0l0,0
					c0.1,0,0.1-0.1,0.1-0.1c0-0.1,0-0.1,0-0.1l0.2,0C27.8,11,27.8,11.2,27.6,11.3z M26.7,11.1l0.6-0.3c-0.1,0-0.2-0.1-0.3-0.1
					c-0.1,0-0.2,0-0.3,0.1c-0.1,0-0.1,0.1-0.1,0.2C26.6,11,26.6,11,26.7,11.1L26.7,11.1z"/>
				<path id="Tracé_110" class="st20" d="M29,10.5l-1.4-0.3l0.1-0.1l1.1,0.3l-0.5-0.6l0.1-0.1l0.6,0.8L29,10.5z"/>
				<path id="Tracé_111" class="st20" d="M30.2,9.6c0,0.2-0.3,0.4-0.6,0.4c-0.2,0-0.4-0.1-0.5-0.1c-0.1-0.1-0.2-0.2-0.2-0.3
					c0-0.2,0.3-0.4,0.7-0.4S30.2,9.4,30.2,9.6z M29.6,9.9c0.3,0,0.5-0.1,0.5-0.3l0,0c0-0.2-0.3-0.3-0.6-0.3S29,9.4,29,9.5l0,0
					C29,9.7,29.3,9.8,29.6,9.9z"/>
				<path id="Tracé_112" class="st20" d="M31,9.3c-0.1,0-0.2,0.1-0.3,0.1c-0.1,0-0.2,0-0.3-0.1l-0.6-0.3L29.7,9l-0.1-0.1l0.2-0.1
					l-0.3-0.2l0.1-0.1l0.3,0.2l0.3-0.1l0.1,0.1L30,8.8l0.6,0.3c0.1,0.1,0.2,0.1,0.3,0c0,0,0,0,0,0c0,0,0.1,0,0.1-0.1l0.1,0.1
					C31.1,9.2,31.1,9.2,31,9.3z"/>
				<path id="Tracé_113" class="st20" d="M31.4,9.1l-1-0.6l0.1-0.1l0.2,0.1c-0.1-0.1-0.1-0.2,0-0.2c0,0,0,0,0.1,0c0,0,0,0,0.1,0
					L31,8.3c0,0-0.1,0-0.1,0c-0.1,0-0.1,0.1-0.1,0.2c0,0.1,0.1,0.2,0.2,0.2L31.5,9L31.4,9.1z"/>
				<path id="Tracé_114" class="st20" d="M32.4,8.5c-0.1,0.1-0.3,0.1-0.5,0.1c-0.2,0-0.3-0.1-0.5-0.1c-0.1-0.1-0.2-0.2-0.2-0.3
					c0-0.1,0.1-0.2,0.2-0.3c0.1-0.1,0.3-0.1,0.4-0.1c0.2,0,0.3,0.1,0.5,0.1l0,0l-0.7,0.4c0.2,0.1,0.5,0.1,0.7,0l0,0
					c0.1,0,0.1-0.1,0.1-0.1c0-0.1,0-0.1,0-0.1l0.2,0C32.6,8.3,32.6,8.4,32.4,8.5z M31.5,8.3L32.1,8c-0.1,0-0.2-0.1-0.3-0.1
					c-0.1,0-0.2,0-0.3,0.1c-0.1,0-0.1,0.1-0.1,0.2C31.4,8.2,31.4,8.3,31.5,8.3L31.5,8.3z"/>
				<path id="Tracé_115" class="st20" d="M33.8,7.7c-0.1,0-0.2,0.1-0.3,0.1c-0.1,0-0.2,0-0.3-0.1l-0.6-0.3l-0.2,0.1l-0.1-0.1
					l0.2-0.1l-0.3-0.2L32.4,7l0.3,0.2L32.9,7l0.1,0.1l-0.3,0.1l0.6,0.3c0.1,0.1,0.2,0.1,0.3,0c0,0,0,0,0,0c0,0,0.1,0,0.1-0.1
					l0.1,0.1C33.9,7.6,33.9,7.6,33.8,7.7z"/>
				<path id="Tracé_116" class="st20" d="M34.6,7.3c-0.1,0.1-0.3,0.1-0.5,0.1c-0.2,0-0.3-0.1-0.5-0.1c-0.1-0.1-0.2-0.2-0.2-0.3
					c0-0.1,0.1-0.2,0.2-0.3c0.1-0.1,0.3-0.1,0.4-0.1c0.2,0,0.3,0.1,0.5,0.1l0,0l-0.7,0.4c0.2,0.1,0.5,0.1,0.7,0l0,0
					c0.1,0,0.1-0.1,0.1-0.1c0-0.1,0-0.1,0-0.1l0.2,0C34.8,7,34.7,7.2,34.6,7.3z M33.6,7.1l0.6-0.3c-0.1,0-0.2-0.1-0.3-0.1
					c-0.1,0-0.2,0-0.3,0.1c-0.1,0-0.1,0.1-0.1,0.2C33.6,7,33.6,7,33.6,7.1L33.6,7.1z"/>
				<path id="Tracé_117" class="st20" d="M35.2,6.8l-1-0.6l0.1-0.1l0.2,0.1c-0.1-0.1-0.1-0.2,0-0.2c0,0,0,0,0.1,0c0,0,0,0,0.1,0
					l0.1,0.1c0,0-0.1,0-0.1,0c-0.1,0-0.1,0.1-0.1,0.2c0,0.1,0.1,0.2,0.2,0.2l0.5,0.3L35.2,6.8z"/>
				<path id="Tracé_118" class="st20" d="M35.9,6.5l-1-0.6L35,5.8l0.2,0.1c-0.1-0.1-0.1-0.1,0-0.2c0,0,0,0,0,0c0,0,0,0,0.1-0.1
					c0,0,0,0,0.1,0l0.1,0.1c0,0-0.1,0-0.1,0c-0.1,0-0.1,0.1-0.1,0.2c0,0.1,0.1,0.2,0.2,0.2L36,6.4L35.9,6.5z"/>
				<path id="Tracé_119" class="st20" d="M36.9,5.9C36.7,6,36.6,6,36.4,6c-0.4,0-0.7-0.2-0.7-0.4c0-0.1,0-0.2,0.2-0.3
					c0.1,0,0.2-0.1,0.2-0.1c0.1,0,0.2,0,0.3,0l-0.2-0.1l0.1-0.1l1,0.6l-0.1,0.1L37,5.6c0,0,0,0.1,0,0.2C37,5.8,36.9,5.9,36.9,5.9z
					 M36.4,5.9c0.3,0,0.5-0.1,0.5-0.3v0c0-0.2-0.3-0.3-0.6-0.3s-0.5,0.1-0.5,0.3v0C35.9,5.7,36.1,5.9,36.4,5.9L36.4,5.9z"/>
				<path id="Tracé_120" class="st20" d="M36.4,4.7c0,0-0.1,0-0.1,0c-0.1,0-0.1,0-0.2-0.1l0,0c0,0,0,0,0-0.1c0,0,0.1,0,0.1,0
					C36.4,4.5,36.4,4.6,36.4,4.7C36.4,4.6,36.4,4.6,36.4,4.7z M37.6,5.4l-1-0.6l0.1-0.1l1,0.6L37.6,5.4z"/>
				<path id="Tracé_121" class="st20" d="M38.1,5.2l-1-0.6l0.1-0.1l0.2,0.1c-0.1-0.1,0-0.2,0.1-0.3c0.1-0.1,0.2-0.1,0.3-0.1
					c0.1,0,0.3,0,0.4,0.1l0.6,0.4l-0.1,0.1l-0.6-0.4c-0.1-0.1-0.2-0.1-0.3-0.1c-0.1,0-0.2,0-0.2,0c-0.1,0-0.1,0.1-0.1,0.2
					c0,0.1,0.1,0.2,0.2,0.2l0.5,0.3L38.1,5.2z"/>
			</g>
		</g>
		<g id="Groupe_4456" transform="translate(49.084 50.617)">
			<path id="Tracé_9873" d="M18.2,42.2L4.5,34.3L8.4,32c1.9-1,4.1-1.5,6.3-1.4c2.3,0,4.6,0.6,6.6,1.8c1.9,1.1,2.9,2.4,3.1,3.8
				c0.1,1.4-0.6,2.7-2.3,3.6L18.2,42.2z M18,39.3l1.5-0.9c1.1-0.6,1.5-1.4,1.4-2.2c-0.3-1-1-1.9-2-2.3c-1.2-0.7-2.6-1.1-4.1-1.2
				c-1.3-0.1-2.7,0.2-3.9,0.8l-1.5,0.9L18,39.3z"/>
			<path id="Tracé_9874" d="M35.6,30.7c0.1,1.1-0.6,2.2-1.6,2.6c-1.4,0.7-3,1.1-4.6,0.9c-1.7,0-3.4-0.5-4.9-1.3
				c-1.2-0.5-2-1.6-2.3-2.8c-0.1-1.1,0.6-2.2,1.6-2.6c1.4-0.7,3-1.1,4.6-0.9c1.7,0,3.4,0.5,4.8,1.3C34.4,28.4,35.3,29.5,35.6,30.7z
				 M31.5,31.9c0.5-0.2,0.8-0.7,0.8-1.3C32,30,31.6,29.5,31,29.2c-0.7-0.4-1.6-0.7-2.4-0.7c-0.8-0.1-1.5,0.1-2.2,0.4
				c-0.5,0.2-0.8,0.7-0.8,1.3c0.2,0.6,0.6,1.1,1.2,1.4c0.7,0.4,1.6,0.7,2.4,0.7C30,32.4,30.8,32.3,31.5,31.9L31.5,31.9z"/>
			<path id="Tracé_9875" d="M42.7,28.3c-1.6,0.9-3.5,1.2-5.3,0.9l0-1.8c1,0.2,2.1,0.1,3-0.4c0.2-0.1,0.4-0.3,0.5-0.5
				c0.1-0.2,0-0.3-0.2-0.5c-0.2-0.1-0.5-0.2-0.7-0.2c-0.4,0-0.9,0.1-1.3,0.3l-0.8,0.3c-0.9,0.3-1.9,0.4-2.9,0.3
				c-0.9-0.1-1.7-0.3-2.5-0.8c-0.9-0.5-1.3-1.1-1.2-1.7s0.5-1.2,1.4-1.7c1.4-0.8,3-1,4.5-0.7l-0.1,1.7c-0.8-0.1-1.6,0-2.3,0.3
				c-0.2,0.1-0.3,0.2-0.4,0.4c-0.1,0.2,0,0.3,0.2,0.4c0.5,0.2,1.1,0.2,1.6,0l1.1-0.3c1.8-0.7,3.7-0.5,5.4,0.3
				c0.9,0.5,1.4,1.1,1.4,1.8S43.6,27.7,42.7,28.3z"/>
			<path id="Tracé_9876" d="M50.3,23.9c-1.6,0.9-3.5,1.2-5.3,0.9l0-1.8c1,0.2,2.1,0.1,3-0.4c0.2-0.1,0.4-0.3,0.5-0.5
				c0.1-0.2,0-0.3-0.2-0.5c-0.2-0.1-0.5-0.2-0.7-0.2c-0.4,0-0.9,0.1-1.3,0.3L45.5,22c-0.9,0.3-1.9,0.4-2.9,0.3
				c-0.9-0.1-1.7-0.3-2.5-0.8c-0.9-0.5-1.2-1.1-1.2-1.7c0-0.6,0.5-1.2,1.4-1.7c1.4-0.8,3-1,4.5-0.7L44.7,19c-0.8-0.1-1.6,0-2.3,0.3
				c-0.2,0.1-0.3,0.2-0.4,0.4c-0.1,0.2,0,0.3,0.2,0.4c0.5,0.2,1.1,0.2,1.6,0l1.1-0.3c1.8-0.7,3.7-0.5,5.4,0.3
				c0.9,0.5,1.4,1.1,1.4,1.8S51.2,23.3,50.3,23.9z"/>
			<path id="Tracé_9877" d="M44.9,13.8c-0.5,0.2-1,0.3-1.5,0.3c-0.6,0-1.1-0.2-1.6-0.4c-0.4-0.2-0.7-0.5-0.8-0.9
				c0-0.4,0.2-0.7,0.5-0.9c0.5-0.3,1-0.4,1.5-0.3c0.6,0,1.1,0.2,1.6,0.4c0.4,0.2,0.7,0.5,0.8,0.9C45.5,13.3,45.3,13.7,44.9,13.8z
				 M55,20.9l-9.6-5.6l2.3-1.3l9.6,5.6L55,20.9z"/>
			<path id="Tracé_9878" d="M63.6,16.2c-1.4,0.8-3,1.1-4.5,1c-1.7,0-3.4-0.5-4.9-1.4c-1.4-0.8-2.2-1.8-2.3-2.8
				c-0.1-1,0.4-1.9,1.7-2.6c1.3-0.7,2.7-1,4.2-1c1.6,0,3.3,0.5,4.7,1.3c0.3,0.2,0.6,0.3,0.9,0.5L56.9,15c0.7,0.3,1.4,0.5,2.2,0.4
				c0.7,0,1.4-0.2,2-0.6c1-0.6,1.3-1.2,0.9-1.9l3.2-0.1C65.8,14.1,65.3,15.2,63.6,16.2z M55.2,13.9l3.9-2.2
				c-0.6-0.3-1.3-0.4-1.9-0.3c-0.6,0-1.1,0.2-1.6,0.5c-0.4,0.2-0.7,0.6-0.9,1C54.6,13.2,54.8,13.6,55.2,13.9L55.2,13.9z"/>
			<path id="Tracé_9879" d="M69.1,12.8l-9.6-5.6l2.3-1.3l1.5,0.9c-0.3-0.3-0.5-0.7-0.4-1.1c0.1-0.4,0.4-0.8,0.8-1
				c0.3-0.2,0.6-0.3,0.9-0.4l2.7,1.5c-0.4,0.1-0.9,0.3-1.2,0.5c-0.5,0.3-0.8,0.7-0.6,1.1c0.3,0.6,0.8,1.1,1.4,1.4l4.6,2.7L69.1,12.8
				z"/>
			<path id="Tracé_9880" d="M43.2,53c-1.3,0.7-2.8,0.9-4.3,0.8c-1.6-0.1-3.2-0.6-4.7-1.4c-1.1-0.5-2-1.5-2.4-2.7
				c-0.2-1,0.3-2.1,1.3-2.5c0.6-0.3,1.2-0.5,1.8-0.6c0.6-0.1,1.2-0.1,1.9,0l-5.9-3.4l2.3-1.3l14.4,8.3l-2.3,1.3l-1.1-0.6
				c0.1,0.4,0.1,0.7-0.1,1.1C44,52.4,43.6,52.8,43.2,53z M39,51.8c0.8,0.1,1.6-0.1,2.3-0.5c0.6-0.4,0.9-0.8,0.8-1.3
				c-0.2-0.6-0.7-1.1-1.3-1.4c-0.8-0.4-1.6-0.7-2.5-0.8c-0.8-0.1-1.6,0.1-2.3,0.5c-0.6,0.4-0.9,0.8-0.8,1.3c0.2,0.6,0.7,1.2,1.3,1.4
				C37.3,51.5,38.1,51.7,39,51.8L39,51.8z"/>
			<path id="Tracé_9881" d="M54,46.8c-1.4,0.8-3,1.1-4.5,1c-1.7,0-3.4-0.5-4.9-1.4c-1.4-0.8-2.2-1.8-2.3-2.8s0.4-1.9,1.7-2.6
				c1.3-0.7,2.7-1,4.2-1c1.6,0,3.3,0.5,4.7,1.3c0.4,0.2,0.7,0.4,0.9,0.5l-6.2,3.6c0.7,0.3,1.4,0.5,2.2,0.4c0.7,0,1.4-0.2,2-0.6
				c1-0.6,1.3-1.2,0.9-1.9l3.2-0.1C56.3,44.6,55.7,45.8,54,46.8z M45.7,44.4l3.9-2.3c-0.6-0.3-1.3-0.4-1.9-0.3
				c-0.6,0-1.1,0.2-1.6,0.5c-0.4,0.2-0.7,0.6-0.9,1C45.1,43.7,45.3,44.2,45.7,44.4L45.7,44.4z"/>
			<path id="Tracé_9882" d="M65.5,39.8l-13.3-3.4l2.5-1.5l8.4,2.3l-4-4.8l2.6-1.5l5.9,7.7L65.5,39.8z"/>
			<path id="Tracé_9883" d="M76.3,33.9c-1.4,0.8-3,1.1-4.5,1c-1.7,0-3.4-0.5-4.9-1.4c-1.4-0.8-2.2-1.8-2.3-2.8
				c-0.1-1,0.4-1.9,1.7-2.6c1.3-0.7,2.7-1,4.2-1c1.6,0,3.3,0.5,4.7,1.3c0.4,0.2,0.7,0.4,0.9,0.5l-6.2,3.6c0.7,0.3,1.4,0.5,2.2,0.4
				c0.7,0,1.4-0.2,2-0.6c1-0.6,1.3-1.2,0.9-1.9l3.2-0.1C78.6,31.7,78,32.9,76.3,33.9z M68,31.5l3.9-2.2c-0.6-0.3-1.3-0.4-1.9-0.3
				c-0.6,0-1.1,0.2-1.6,0.5c-0.4,0.2-0.7,0.6-0.9,1C67.3,30.8,67.5,31.2,68,31.5z"/>
			<path id="Tracé_9884" d="M81.8,30.4l-9.6-5.6l2.3-1.3l1.1,0.6c-0.4-0.8,0-1.5,1.1-2.1c1.1-0.6,2.3-0.8,3.5-0.7
				c1.4,0.1,2.7,0.6,3.9,1.3l5.6,3.3l-2.3,1.3l-5.2-3c-0.6-0.4-1.3-0.6-2-0.7c-0.6-0.1-1.2,0-1.7,0.3c-0.6,0.3-0.8,0.7-0.6,1.2
				s0.6,1,1.5,1.5l4.7,2.7L81.8,30.4z"/>
			<path id="Tracé_9885" d="M95.8,22.5c-1,0.5-2.1,0.8-3.2,0.8c-1.2,0-2.4-0.4-3.5-1L85.2,20l-1.7,1l-2.3-1.3l1.7-1l-2.7-1.5
				l2.3-1.3l2.7,1.5l2.3-1.4l2.3,1.3l-2.4,1.4l3.4,2c0.5,0.3,1,0.5,1.6,0.5c0.5,0,1-0.1,1.5-0.4c0.3-0.2,0.6-0.4,0.8-0.6l2.3,1.3
				C96.7,21.9,96.3,22.2,95.8,22.5z"/>
			<path id="Tracé_9886" d="M102.8,18.6c-1.4,0.8-3,1.1-4.5,1c-1.7,0-3.4-0.5-4.9-1.4c-1.4-0.8-2.2-1.8-2.3-2.8s0.4-1.9,1.7-2.6
				c1.3-0.7,2.7-1,4.2-1c1.6,0,3.3,0.5,4.7,1.3c0.4,0.2,0.7,0.4,0.9,0.5l-6.2,3.6c0.7,0.3,1.4,0.5,2.2,0.4c0.7,0,1.4-0.2,2-0.6
				c1-0.6,1.3-1.2,0.9-1.9l3.2-0.1C105.1,16.4,104.5,17.6,102.8,18.6z M94.5,16.2l3.9-2.2c-0.6-0.3-1.3-0.4-1.9-0.3
				c-0.6,0-1.1,0.2-1.6,0.5c-0.4,0.2-0.7,0.6-0.9,1C93.9,15.5,94.1,16,94.5,16.2L94.5,16.2z"/>
		</g>
	</g>
</g>
</svg>
