<?xml version="1.0" encoding="utf-8"?>
<!-- Generator: Adobe Illustrator 24.3.0, SVG Export Plug-In . SVG Version: 6.00 Build 0)  -->
<svg version="1.1" id="Calque_1" xmlns="http://www.w3.org/2000/svg" xmlns:xlink="http://www.w3.org/1999/xlink" x="0px" y="0px"
	 viewBox="0 0 746 768" style="enable-background:new 0 0 746 768;" xml:space="preserve">
<style type="text/css">
	.st0{opacity:0.3;fill:none;stroke:#161615;stroke-width:2.5375;enable-background:new    ;}
	.st1{fill:#FFE800;}
	
		.st2{opacity:0.3;fill:none;stroke:#161615;stroke-width:2.5375;stroke-linecap:round;stroke-linejoin:round;stroke-miterlimit:10;enable-background:new    ;}
	.st3{opacity:0.2;fill:#424444;enable-background:new    ;}
	.st4{fill:none;stroke:#FFE800;stroke-width:2.5375;stroke-linecap:round;}
	.st5{opacity:0.3;fill:none;stroke:#161615;stroke-width:2.5375;stroke-linecap:round;enable-background:new    ;}
	.st6{fill:#0F7A79;}
	.st7{fill:#0CA4A4;}
	.st8{fill:#00B9B4;}
	.st9{fill:none;stroke:#FFE800;stroke-width:2.5375;stroke-linecap:round;stroke-linejoin:round;stroke-miterlimit:10;}
	.st10{opacity:0.4;}
	.st11{fill:#100E0C;}
	.st12{clip-path:url(#SVGID_2_);}
	.st13{opacity:0.1;fill:#FFFFFF;enable-background:new    ;}
	.st14{fill:#FFFFFF;}
	.st15{fill:#161615;}
	.st16{fill:#424444;}
	.st17{opacity:0.7;fill:#00B9B4;enable-background:new    ;}
	.st18{opacity:0.5;fill:#FFEF4D;enable-background:new    ;}
	.st19{fill:#FFEF4D;}
	.st20{opacity:0.7;fill:#FFEF4D;enable-background:new    ;}
	.st21{opacity:0.8;fill:#00B9B4;enable-background:new    ;}
	.st22{fill:#AEBBC0;}
	.st23{opacity:0.8;}
	.st24{opacity:0.8;fill:#161615;enable-background:new    ;}
	.st25{fill:#767A91;}
	.st26{fill:#4EB608;}
	.st27{opacity:0.5;}
	.st28{fill:#57A11F;}
	.st29{opacity:0.7;}
	.st30{opacity:0.5;fill:#161615;enable-background:new    ;}
	.st31{fill:#A7D800;}
	.st32{opacity:0.2;fill:#161615;enable-background:new    ;}
	.st33{opacity:0.2;}
	.st34{opacity:0.3;}
	.st35{fill:#EAEA00;}
	.st36{fill:#EBD900;}
	.st37{opacity:0.1;fill:#161615;enable-background:new    ;}
	.st38{opacity:0.1;}
	.st39{fill:#FFBB00;}
	.st40{fill:#FFA900;}
	.st41{opacity:0.6;fill:url(#Tracé_9585-2_1_);enable-background:new    ;}
</style>
<g id="Groupe_4531" transform="translate(-242.458 -2253.504)">
	<line id="Ligne_61" class="st0" x1="983.5" y1="2492" x2="639.2" y2="2684.8"/>
	<circle id="Ellipse_222" class="st1" cx="445.3" cy="2632.9" r="5.9"/>
	<path id="Tracé_9922" class="st2" d="M567.9,2639.5c0,0,230.5-136.6,237.8-140.7c4-2.2,5.6-10.9,0-14.2
		c-6.6-3.9-380.1-229.8-380.1-229.8"/>
	<path id="Tracé_9669" class="st3" d="M546.6,2785.5l-118.5-68.4l118.5-68.4l118.5,68.4L546.6,2785.5z"/>
	<line id="Ligne_52" class="st4" x1="349.5" y1="2577.2" x2="494.3" y2="2660.8"/>
	<line id="Ligne_58" class="st5" x1="244.2" y1="2550.9" x2="474.9" y2="2680.2"/>
	<path id="Tracé_9583" class="st6" d="M544.1,2771.3l-118.7-68.5v-16.7l118.7,68.5V2771.3z"/>
	<path id="Tracé_9584" class="st7" d="M544,2771.3l118.7-68.5v-16.7L544,2754.6V2771.3z"/>
	<path id="Tracé_9585" class="st8" d="M544.2,2754.5l-118.5-68.4l118.5-68.4l118.5,68.4L544.2,2754.5z"/>
	<line id="Ligne_51" class="st4" x1="603.4" y1="2729.4" x2="748.2" y2="2813"/>
	<path id="Tracé_9588" class="st9" d="M574.1,2854.5c0,0-132.4-76.7-139.7-80.8c-4-2.2-5.6-10.9,0-14.2
		c6.6-3.9,49.8-28.7,49.8-28.7"/>
	<g id="Groupe_4403" transform="translate(553.895 2796.286)">
		<path id="Tracé_9589" class="st6" d="M-21-65l-13.5-17l3.4-2l29.6,7.8l-4,2.3l-6.7-1.8l-7.9,4.6l3.1,3.9L-21-65z M-27-79.7
			l4.4,5.5l5.1-3L-27-79.7z"/>
		<path id="Tracé_9590" class="st6" d="M-26.5-61.9L-48-74.3l3.8-2.2l21.5,12.4L-26.5-61.9z"/>
	</g>
	<g id="Groupe_25" transform="translate(588.432 2791.166)" class="st10">
		<g id="Groupe_19" transform="translate(0 30.63)">
			<path id="Rectangle_6" class="st11" d="M-51.4-86.6l0.4-0.2c2.8-1.6,7.7-1.4,11,0.5l0.5,0.3c3.2,1.9,3.6,4.7,0.8,6.3l-0.4,0.2
				c-2.8,1.6-7.7,1.4-11-0.5l-0.5-0.3C-53.9-82.2-54.2-85-51.4-86.6z"/>
			<g id="Groupe_18">
				<g id="Groupe_4405">
					<g>
						<defs>
							<path id="SVGID_1_" d="M-51.4-86.6l0.4-0.2c2.8-1.6,7.7-1.4,11,0.5l0.5,0.3c3.2,1.9,3.6,4.7,0.8,6.3l-0.4,0.2
								c-2.8,1.6-7.7,1.4-11-0.5l-0.5-0.3C-53.9-82.2-54.2-85-51.4-86.6z"/>
						</defs>
						<clipPath id="SVGID_2_">
							<use xlink:href="#SVGID_1_"  style="overflow:visible;"/>
						</clipPath>
						<g id="Groupe_4404" class="st12">
							<g id="Groupe_17" transform="translate(-20.375 -17.115)">
								
									<ellipse id="Ellipse_3" transform="matrix(0.9999 -1.129204e-02 1.129204e-02 0.9999 0.8358 -0.3564)" class="st13" cx="-31.1" cy="-74.2" rx="18.9" ry="10.9"/>
							</g>
						</g>
					</g>
				</g>
			</g>
		</g>
		<g id="Groupe_22" transform="translate(3.426 32.608)">
			<g id="Groupe_20">
				<path id="Tracé_64" class="st14" d="M-53.3-85.7c-0.4,0-0.6,0.1-0.6,0.3c0,0.2,0.3,0.4,0.7,0.4l9.5,0.4c0.4,0,0.6-0.1,0.6-0.3
					c0-0.2-0.3-0.4-0.7-0.4L-53.3-85.7z"/>
				<path id="Tracé_65" class="st14" d="M-48.4-88.1c-0.3-0.2-0.6-0.2-0.9,0c-0.1,0-0.2,0.1-0.2,0.3l0.7,5.5c0,0.2,0.4,0.4,0.7,0.4
					c0.3,0,0.6-0.1,0.6-0.3l-0.7-5.5C-48.2-88-48.3-88.1-48.4-88.1z"/>
			</g>
			<g id="Groupe_21" transform="translate(1.283 0.741)">
				<path id="Tracé_66" class="st1" d="M-53.8-88.3c-0.3,0.2-0.3,0.5,0.1,0.7c0.4,0.2,0.8,0.2,1.2,0c0.3-0.2,0.3-0.5-0.1-0.7l0,0
					C-53-88.4-53.5-88.4-53.8-88.3z"/>
				<path id="Tracé_67" class="st1" d="M-47.1-84.4c-0.3,0.2-0.3,0.5,0.1,0.7c0.4,0.2,0.8,0.2,1.2,0c0.3-0.2,0.3-0.5-0.1-0.7
					C-46.2-84.5-46.7-84.5-47.1-84.4z"/>
				<path id="Tracé_68" class="st1" d="M-47.2-88l-6.2,3.6c-0.2,0.1-0.2,0.4,0.1,0.5c0.3,0.1,0.6,0.2,0.9,0l6.2-3.6
					c0.2-0.1,0.2-0.4-0.1-0.5C-46.6-88.1-46.9-88.1-47.2-88z"/>
			</g>
		</g>
		<g id="Groupe_23" transform="translate(16.301)">
			<path id="Tracé_69" class="st15" d="M-54.1-59.4l3,1.7c0.2,0.1,0.4,0.3,0.4,0.5c0,0.2-0.1,0.4-0.3,0.5c-0.1,0-0.2,0.1-0.2,0.1
				l-0.5-0.3c0,0,0.1,0,0.1-0.1c0.2-0.1,0.2-0.3-0.1-0.5l-2.9-1.7L-54.1-59.4z M-54.9-59.6c-0.1,0.1-0.2,0.1-0.4,0.1
				c-0.1,0-0.3,0-0.4-0.1c-0.1,0-0.2-0.1-0.2-0.2c0-0.1,0-0.2,0.1-0.2c0.1-0.1,0.2-0.1,0.4-0.1c0.1,0,0.3,0,0.4,0.1
				c0.1,0,0.2,0.1,0.2,0.2C-54.8-59.7-54.8-59.7-54.9-59.6L-54.9-59.6z"/>
			<path id="Tracé_70" class="st15" d="M-49.5-58.9c-0.4,0.2-0.8,0.3-1.3,0.3c-0.5,0-0.9-0.1-1.4-0.4c-0.8-0.4-0.9-1.1-0.2-1.5
				l0.1,0c0.7-0.4,1.6-0.3,2.3,0c0.1,0,0.1,0.1,0.1,0.1c0.1,0,0.1,0.1,0.2,0.1l-1.8,1.1c0.2,0.1,0.5,0.2,0.8,0.2
				c0.7,0,1.1-0.3,1-0.7c0,0,0,0,0-0.1l0.7,0C-48.8-59.5-49-59.1-49.5-58.9z M-51.9-59.5l1.3-0.8c-0.2-0.1-0.4-0.1-0.7-0.1
				c-0.2,0-0.4,0-0.6,0.1c-0.1,0.1-0.2,0.2-0.3,0.3C-52.1-59.7-52-59.6-51.9-59.5L-51.9-59.5z"/>
			<path id="Tracé_71" class="st15" d="M-46.8-60.5c-0.4,0.2-0.8,0.3-1.2,0.2c-1-0.1-1.8-0.6-2-1.1c-0.1-0.3,0.1-0.6,0.4-0.7
				c0.2-0.1,0.4-0.2,0.6-0.2c0.2,0,0.4,0,0.6,0l-1.7-1l0.5-0.3l4,2.3l-0.5,0.3l-0.4-0.2c0,0.1,0,0.2,0,0.3
				C-46.5-60.7-46.6-60.5-46.8-60.5z M-48-60.7c0.6,0,1-0.2,1-0.5c0,0,0,0,0,0c-0.1-0.4-0.6-0.7-1.2-0.7c-0.6,0-1,0.2-1,0.5
				c0,0,0,0,0,0C-49.1-61-48.6-60.7-48-60.7L-48-60.7z"/>
			<path id="Tracé_72" class="st15" d="M-47.8-63.7c-0.1,0.1-0.2,0.1-0.4,0.1c-0.1,0-0.3,0-0.4-0.1c-0.1,0-0.2-0.1-0.2-0.2
				c0-0.1,0-0.2,0.1-0.2c0.1-0.1,0.2-0.1,0.4-0.1c0.1,0,0.3,0,0.4,0.1c0.1,0,0.2,0.1,0.2,0.2C-47.7-63.9-47.7-63.8-47.8-63.7z
				 M-44.8-61.7l-2.7-1.6l0.5-0.3l2.7,1.6L-44.8-61.7z"/>
			<path id="Tracé_73" class="st15" d="M-42.7-62.9l-3.8-0.9l0.6-0.3l2.6,0.7l-1.2-1.5l0.6-0.3l1.6,2.2L-42.7-62.9z"/>
			<path id="Tracé_74" class="st15" d="M-43.8-66C-43.9-66-44-66-44.2-66c-0.1,0-0.3,0-0.4-0.1c-0.1,0-0.2-0.1-0.2-0.2
				c0-0.1,0-0.2,0.1-0.2c0.1-0.1,0.2-0.1,0.4-0.1c0.1,0,0.3,0,0.4,0.1c0.1,0,0.2,0.1,0.2,0.2C-43.7-66.2-43.7-66.1-43.8-66z
				 M-40.8-64l-2.7-1.6l0.5-0.3l2.7,1.6L-40.8-64z"/>
			<path id="Tracé_75" class="st15" d="M-38.7-65.1c-0.2,0.1-0.5,0.2-0.7,0.2c-0.3,0-0.5,0-0.8,0l0.1-0.4c0.2,0,0.3,0,0.5,0
				c0.2,0,0.3-0.1,0.4-0.1c0.1,0,0.1-0.1,0.2-0.2c0-0.1-0.1-0.2-0.3-0.2c0,0-0.1,0-0.1,0c-0.1,0-0.3,0-0.4,0.1l-0.3,0.1
				c-0.5,0.2-1,0.1-1.4-0.1c-0.2-0.1-0.3-0.3-0.3-0.5c0-0.2,0.2-0.4,0.4-0.5c0.4-0.2,0.8-0.3,1.2-0.2l0,0.4c-0.2,0-0.5,0-0.7,0.1
				c-0.1,0-0.1,0.1-0.2,0.2c0,0.1,0,0.1,0.1,0.2c0.1,0,0.2,0.1,0.2,0.1c0.1,0,0.2,0,0.4,0l0.3-0.1c0.3-0.1,0.5-0.1,0.8-0.1
				c0.2,0,0.5,0.1,0.7,0.2c0.2,0.1,0.4,0.3,0.4,0.5C-38.3-65.4-38.5-65.2-38.7-65.1z"/>
			<path id="Tracé_76" class="st15" d="M-36.1-66.6c-0.4,0.2-0.8,0.3-1.3,0.3c-0.5,0-0.9-0.1-1.4-0.4c-0.8-0.4-0.9-1.1-0.2-1.5
				c0,0,0,0,0.1,0c0.7-0.4,1.6-0.3,2.3,0c0.1,0,0.1,0.1,0.1,0.1c0.1,0,0.1,0.1,0.2,0.1l-1.8,1.1c0.2,0.1,0.5,0.2,0.8,0.2
				c0.7,0,1.1-0.3,1-0.7c0,0,0,0,0-0.1l0.7,0C-35.5-67.2-35.7-66.8-36.1-66.6z M-38.5-67.2l1.3-0.7c-0.2-0.1-0.4-0.1-0.7-0.1
				c-0.2,0-0.4,0-0.6,0.1c-0.1,0.1-0.2,0.2-0.3,0.3C-38.8-67.4-38.7-67.3-38.5-67.2L-38.5-67.2z"/>
			<path id="Tracé_77" class="st15" d="M-31.5-69.4l-1.5-0.9c-0.2-0.1-0.4-0.2-0.6-0.2c-0.2,0-0.3,0-0.5,0.1
				c-0.1,0.1-0.2,0.2-0.2,0.4c0.1,0.2,0.3,0.4,0.5,0.4l1.4,0.8l-0.5,0.3l-1.5-0.9c-0.2-0.1-0.4-0.2-0.6-0.2c-0.2,0-0.3,0-0.5,0.1
				c-0.2,0.1-0.2,0.2-0.2,0.4c0.1,0.2,0.3,0.4,0.5,0.5l1.3,0.8l-0.5,0.3l-2.7-1.6l0.5-0.3l0.4,0.2c-0.2-0.4,0.2-0.7,0.8-0.8
				c0.2,0,0.5,0,0.7,0.1c-0.1-0.1-0.1-0.3-0.1-0.4c0.1-0.1,0.2-0.3,0.3-0.3c0.3-0.2,0.6-0.2,0.9-0.2c0.4,0,0.7,0.2,1.1,0.4l1.6,0.9
				L-31.5-69.4z"/>
			<path id="Tracé_78" class="st15" d="M-28.6-71.4c0.1,0.6-0.7,1-1.7,1c-1,0-1.9-0.6-2-1.1c-0.1-0.6,0.7-1,1.7-1
				C-29.6-72.5-28.7-72-28.6-71.4L-28.6-71.4z M-29.7-71c0.2-0.1,0.3-0.2,0.3-0.4c-0.1-0.4-0.6-0.7-1.2-0.7c-0.6,0-1,0.2-1,0.6v0
				c0.1,0.4,0.6,0.7,1.2,0.7C-30.1-70.8-29.9-70.9-29.7-71L-29.7-71z"/>
			<path id="Tracé_79" class="st15" d="M-27.3-71.8l-2.7-1.6l0.5-0.3l0.4,0.2c-0.1-0.3,0-0.5,0.3-0.7c0.3-0.2,0.6-0.2,1-0.2
				c0.4,0,0.7,0.1,1.1,0.3l1.6,0.9l-0.5,0.3l-1.5-0.9c-0.2-0.1-0.4-0.2-0.6-0.2c-0.2,0-0.4,0-0.5,0.1c-0.2,0.1-0.2,0.2-0.2,0.4
				c0.1,0.2,0.3,0.4,0.5,0.5l1.3,0.8L-27.3-71.8z"/>
			<path id="Tracé_80" class="st15" d="M-23.4-74c-0.2,0.1-0.5,0.2-0.8,0.2c-0.3,0-0.6-0.1-0.9-0.3l-1.3-0.8l-0.5,0.3l-0.5-0.3
				l0.5-0.3l-0.8-0.4l0.5-0.3l0.8,0.4l0.7-0.4l0.5,0.3l-0.7,0.4l1.2,0.7c0.2,0.1,0.5,0.2,0.7,0.1c0,0,0.1,0,0.1-0.1
				c0.1,0,0.2-0.1,0.2-0.2l0.5,0.3C-23.2-74.1-23.3-74-23.4-74z"/>
			<path id="Tracé_81" class="st15" d="M-21.4-75.1c-0.8,0.4-1.8,0.4-2.6,0c-0.8-0.4-0.9-1.1-0.3-1.5c0,0,0.1,0,0.1-0.1
				c0.7-0.4,1.6-0.3,2.3,0c0.1,0,0.1,0.1,0.1,0.1c0.1,0,0.1,0.1,0.2,0.1l-1.8,1.1c0.2,0.1,0.5,0.2,0.8,0.2c0.7,0,1.1-0.3,1-0.7
				c0,0,0,0,0-0.1l0.7,0C-20.8-75.7-21-75.3-21.4-75.1z M-23.8-75.7l1.3-0.8c-0.2-0.1-0.4-0.1-0.7-0.1c-0.2,0-0.4,0-0.6,0.1
				c-0.1,0.1-0.2,0.2-0.3,0.3C-24-75.9-24-75.8-23.8-75.7L-23.8-75.7z"/>
			<path id="Tracé_82" class="st15" d="M-19.7-76.1l-2.7-1.6l0.5-0.3l0.5,0.3c-0.1-0.1-0.1-0.2-0.1-0.4c0-0.1,0.1-0.2,0.2-0.3
				c0.1,0,0.1-0.1,0.2-0.1l0.6,0.4c-0.1,0-0.2,0.1-0.3,0.1c-0.1,0.1-0.2,0.2-0.2,0.4c0.1,0.2,0.2,0.4,0.4,0.4l1.3,0.8L-19.7-76.1z"
				/>
			<path id="Tracé_83" class="st15" d="M-17.9-77.2l-2.7-1.6l0.5-0.3l0.5,0.3c-0.1-0.1-0.1-0.2-0.1-0.4c0-0.1,0.1-0.2,0.2-0.3
				c0.1,0,0.1-0.1,0.2-0.1l0.6,0.4c-0.1,0-0.2,0.1-0.3,0.1c-0.1,0.1-0.2,0.2-0.2,0.4c0.1,0.2,0.2,0.4,0.4,0.4l1.3,0.8L-17.9-77.2z"
				/>
			<path id="Tracé_84" class="st15" d="M-15.1-78.8c-0.4,0.2-0.8,0.3-1.2,0.2c-1-0.1-1.8-0.6-2-1.1c-0.1-0.3,0.1-0.6,0.4-0.7
				c0.2-0.1,0.4-0.2,0.6-0.2c0.2,0,0.4,0,0.6,0l-0.4-0.2l0.5-0.3l2.7,1.6l-0.5,0.3l-0.4-0.2c0,0.1,0,0.2,0,0.3
				C-14.8-79-14.9-78.9-15.1-78.8z M-16.2-79c0.6,0,1-0.2,1-0.5c0,0,0,0,0,0c-0.1-0.4-0.6-0.7-1.2-0.7c-0.6,0-1,0.2-1,0.5
				c0,0,0,0,0,0C-17.4-79.4-16.9-79.1-16.2-79z"/>
			<path id="Tracé_85" class="st15" d="M-16.1-82c-0.1,0.1-0.2,0.1-0.4,0.1c-0.1,0-0.3,0-0.4-0.1c-0.1,0-0.2-0.1-0.2-0.2
				c0-0.1,0-0.2,0.1-0.2c0.1-0.1,0.2-0.1,0.4-0.1c0.1,0,0.3,0,0.4,0.1c0.1,0,0.2,0.1,0.2,0.2C-15.9-82.2-16-82.1-16.1-82z M-13.1-80
				l-2.7-1.6l0.5-0.3l2.7,1.6L-13.1-80z"/>
			<path id="Tracé_86" class="st15" d="M-11.8-80.7l-2.7-1.6l0.5-0.3l0.4,0.2c-0.1-0.3,0-0.5,0.3-0.7c0.3-0.2,0.6-0.2,1-0.2
				c0.4,0,0.7,0.1,1.1,0.3l1.6,0.9l-0.5,0.3l-1.5-0.9c-0.2-0.1-0.4-0.2-0.6-0.2c-0.2,0-0.4,0-0.5,0.1c-0.2,0.1-0.2,0.2-0.2,0.4
				c0.1,0.2,0.3,0.4,0.5,0.5l1.3,0.8L-11.8-80.7z"/>
		</g>
		<g id="Groupe_24" transform="translate(23.158 3.135)">
			<path id="Tracé_87" class="st16" d="M-55.6-58.6l-1.3-0.7l0.2-0.1l0.3,0.2c-0.1-0.1-0.1-0.2,0-0.3c0,0,0,0,0.1-0.1
				c0,0,0.1,0,0.1,0l0.2,0.1c0,0-0.1,0-0.1,0c-0.1,0-0.1,0.1-0.1,0.2c0,0.1,0.1,0.2,0.3,0.3l0.6,0.4L-55.6-58.6z"/>
			<path id="Tracé_88" class="st16" d="M-54.3-59.3c-0.2,0.1-0.4,0.1-0.6,0.1c-0.2,0-0.4-0.1-0.6-0.2c-0.2-0.1-0.3-0.2-0.3-0.4
				c0-0.2,0.1-0.3,0.2-0.4c0.2-0.1,0.4-0.1,0.5-0.1c0.2,0,0.4,0.1,0.6,0.2l0,0l-0.9,0.5c0.3,0.2,0.6,0.2,0.9,0l0,0
				c0.1,0,0.1-0.1,0.2-0.2c0-0.1,0-0.1,0-0.2l0.2,0C-54-59.6-54.1-59.4-54.3-59.3z M-55.5-59.5l0.8-0.4c-0.1-0.1-0.3-0.1-0.4-0.1
				c-0.1,0-0.2,0-0.3,0.1c-0.1,0-0.1,0.1-0.2,0.2C-55.6-59.7-55.6-59.6-55.5-59.5z M-55.8-60.1l-0.3-0.4l0.2-0.1l0.2,0.4L-55.8-60.1
				z"/>
			<path id="Tracé_89" class="st16" d="M-53.1-60l-1.8-0.4l0.2-0.1l1.4,0.4L-54-61l0.2-0.1l0.8,1L-53.1-60z"/>
			<path id="Tracé_90" class="st16" d="M-51.8-60.8c-0.2,0.1-0.4,0.1-0.6,0.1c-0.2,0-0.4-0.1-0.6-0.2c-0.2-0.1-0.3-0.2-0.3-0.4
				c0-0.2,0.1-0.3,0.2-0.4c0.2-0.1,0.4-0.1,0.5-0.1c0.2,0,0.4,0.1,0.6,0.2l0,0l-0.9,0.5c0.3,0.2,0.6,0.2,0.9,0l0,0
				c0.1,0,0.1-0.1,0.2-0.2c0-0.1,0-0.1,0-0.2l0.2,0C-51.5-61.1-51.5-60.9-51.8-60.8z M-53-61l0.8-0.4c-0.1-0.1-0.3-0.1-0.4-0.1
				c-0.1,0-0.2,0-0.3,0.1c-0.1,0-0.1,0.1-0.2,0.2C-53.1-61.2-53-61.1-53-61z M-53.3-61.6l-0.8-0.1l0.2-0.1l0.7,0.2L-53.3-61.6z"/>
			<path id="Tracé_91" class="st16" d="M-50.9-61.3l-1.9-1.1l0.2-0.1l1.9,1.1L-50.9-61.3z"/>
			<path id="Tracé_92" class="st16" d="M-49.8-61.9c-0.2,0.1-0.4,0.1-0.6,0.1c-0.2,0-0.4-0.1-0.6-0.2c-0.2-0.1-0.3-0.2-0.3-0.4
				c0-0.2,0.1-0.3,0.2-0.4c0.2-0.1,0.4-0.1,0.5-0.1c0.2,0,0.4,0.1,0.6,0.2l0,0l-0.9,0.5c0.3,0.2,0.6,0.2,0.9,0l0,0
				c0.1,0,0.1-0.1,0.2-0.2c0-0.1,0-0.1,0-0.2l0.2,0C-49.5-62.2-49.6-62-49.8-61.9z M-51-62.1l0.8-0.4c-0.1-0.1-0.3-0.1-0.4-0.1
				c-0.1,0-0.2,0-0.3,0.1c-0.1,0-0.1,0.1-0.2,0.2C-51.2-62.3-51.1-62.2-51-62.1L-51-62.1z"/>
			<path id="Tracé_93" class="st16" d="M-48.4-62.7l-1.9-1.1l0.2-0.1l1.9,1.1L-48.4-62.7z"/>
			<path id="Tracé_94" class="st16" d="M-47.3-63.3c-0.2,0.1-0.4,0.1-0.6,0.1c-0.2,0-0.4-0.1-0.6-0.2c-0.2-0.1-0.3-0.2-0.3-0.4
				c0-0.2,0.1-0.3,0.2-0.4c0.2-0.1,0.4-0.1,0.5-0.1c0.2,0,0.4,0.1,0.6,0.2l0,0l-0.9,0.5c0.3,0.2,0.6,0.2,0.9,0l0,0
				c0.1,0,0.1-0.1,0.2-0.2c0-0.1,0-0.1,0-0.2l0.2,0C-47-63.6-47.1-63.5-47.3-63.3z M-48.5-63.6l0.8-0.4c-0.1-0.1-0.3-0.1-0.4-0.1
				c-0.1,0-0.2,0-0.3,0.1c-0.1,0-0.1,0.1-0.2,0.2C-48.7-63.7-48.6-63.6-48.5-63.6L-48.5-63.6z"/>
			<path id="Tracé_95" class="st16" d="M-45.4-64.5l-2.5-0.7l0.3-0.2l1.9,0.5l-0.9-1.1l0.3-0.2l1.2,1.4L-45.4-64.5z"/>
			<path id="Tracé_96" class="st16" d="M-44.3-65.1l-1.8-1.1l0.6-0.3c0.1-0.1,0.3-0.1,0.5-0.1c0.2,0,0.4,0.1,0.5,0.1
				c0.1,0,0.2,0.1,0.2,0.2c0,0.1,0,0.2-0.1,0.3l1.4,0.1l-0.3,0.2l-1.4-0.1l-0.1,0.1l0.8,0.5L-44.3-65.1z M-45.1-65.9l0.3-0.2
				c0.1,0,0.1-0.1,0.1-0.1c0-0.1-0.2-0.2-0.3-0.2h0c-0.1,0-0.2,0-0.2,0.1l-0.3,0.2L-45.1-65.9z"/>
			<path id="Tracé_97" class="st16" d="M-43-65.9l-1.1-1.5l0.2-0.1l2.5,0.7l-0.3,0.2l-0.7-0.2l-0.7,0.4l0.3,0.4L-43-65.9z
				 M-43.6-67.2l0.4,0.5l0.5-0.3L-43.6-67.2z"/>
			<path id="Tracé_98" class="st16" d="M-41.1-67L-43-68l0.3-0.2l1.8,1.1L-41.1-67z"/>
			<path id="Tracé_99" class="st16" d="M-39.1-67.5l-0.2,0.1l-1.8-1.1l0.2-0.1l0.2,0.1c0-0.1,0-0.1,0-0.2c0-0.1,0.1-0.1,0.2-0.2
				c0.2-0.1,0.4-0.1,0.6-0.1c0.5,0,0.9,0.3,0.9,0.5c0,0.1-0.1,0.3-0.2,0.3c-0.1,0-0.2,0.1-0.3,0.1c-0.1,0-0.2,0-0.3,0L-39.1-67.5z
				 M-39.6-68.1c0.1,0,0.1-0.1,0.1-0.2c0-0.2-0.3-0.3-0.6-0.3c-0.1,0-0.2,0-0.4,0.1c-0.1,0-0.1,0.1-0.1,0.2c0,0.2,0.3,0.3,0.6,0.3
				C-39.8-68-39.7-68.1-39.6-68.1L-39.6-68.1z"/>
			<path id="Tracé_100" class="st16" d="M-37.7-69.1c0,0.3-0.3,0.5-0.8,0.5c-0.5,0-0.9-0.3-1-0.5s0.3-0.5,0.8-0.5
				c0.2,0,0.5,0.1,0.7,0.2C-37.9-69.4-37.8-69.3-37.7-69.1z M-38.2-68.9c0.1,0,0.1-0.1,0.1-0.2c0-0.2-0.3-0.3-0.6-0.3
				c-0.3,0-0.5,0.1-0.5,0.3v0c0,0.2,0.3,0.3,0.6,0.3C-38.4-68.8-38.3-68.9-38.2-68.9L-38.2-68.9z"/>
			<path id="Tracé_101" class="st16" d="M-36.6-69.5c-0.1,0.1-0.3,0.1-0.4,0.1c-0.1,0-0.3,0-0.4-0.1l-0.6-0.4l-0.2,0.1l-0.3-0.1
				l0.2-0.1l-0.4-0.2l0.2-0.1l0.4,0.2l0.3-0.2l0.3,0.1l-0.3,0.2l0.6,0.3c0.1,0.1,0.2,0.1,0.3,0.1c0,0,0,0,0.1,0c0,0,0.1-0.1,0.1-0.1
				l0.3,0.1C-36.5-69.6-36.6-69.6-36.6-69.5z"/>
			<path id="Tracé_102" class="st16" d="M-35.7-70.1c-0.2,0.1-0.4,0.1-0.6,0.1c-0.5,0-0.9-0.3-1-0.5c0-0.2,0.1-0.3,0.2-0.4
				c0.3-0.2,0.8-0.2,1.1,0c0,0,0,0,0.1,0c0,0,0.1,0,0.1,0.1l-0.9,0.5c0.1,0.1,0.2,0.1,0.4,0.1c0.3,0,0.5-0.2,0.5-0.4c0,0,0,0,0,0
				l0.3,0C-35.4-70.4-35.4-70.2-35.7-70.1z M-36.8-70.4l0.6-0.4c-0.1,0-0.2-0.1-0.3-0.1c-0.1,0-0.2,0-0.3,0.1
				c-0.1,0-0.1,0.1-0.1,0.2C-36.9-70.5-36.9-70.4-36.8-70.4L-36.8-70.4z"/>
			<path id="Tracé_103" class="st16" d="M-34.9-70.6l-1.3-0.7l0.2-0.1l0.2,0.1c-0.1-0.1,0-0.2,0.1-0.3c0.1-0.1,0.3-0.1,0.5-0.1
				c0.2,0,0.4,0.1,0.5,0.2l0.8,0.4l-0.2,0.1l-0.7-0.4c-0.1-0.1-0.2-0.1-0.3-0.1c-0.1,0-0.2,0-0.3,0c-0.1,0-0.1,0.1-0.1,0.2
				c0,0.1,0.1,0.2,0.2,0.2l0.6,0.4L-34.9-70.6z"/>
			<path id="Tracé_104" class="st16" d="M-33-71.6c-0.1,0.1-0.3,0.1-0.4,0.1c-0.1,0-0.3,0-0.4-0.1l-0.6-0.4l-0.2,0.1l-0.3-0.1
				l0.2-0.1l-0.4-0.2l0.2-0.1l0.4,0.2l0.3-0.2l0.3,0.1l-0.3,0.2l0.6,0.3c0.1,0.1,0.2,0.1,0.3,0.1c0,0,0,0,0.1,0c0,0,0.1-0.1,0.1-0.1
				l0.3,0.1C-32.9-71.7-33-71.7-33-71.6z"/>
			<path id="Tracé_105" class="st16" d="M-34-72.9c-0.1,0-0.1,0-0.2,0c-0.1,0-0.1,0-0.2,0c0,0-0.1-0.1-0.1-0.1c0,0,0-0.1,0.1-0.1
				c0.1,0,0.1,0,0.2,0c0.1,0,0.1,0,0.2,0C-34-73.1-34-73-34-72.9C-34-72.9-34-72.9-34-72.9z M-32.6-71.9l-1.3-0.7l0.2-0.1l1.3,0.7
				L-32.6-71.9z"/>
			<path id="Tracé_106" class="st16" d="M-31.4-72.5c-0.4,0.2-0.9,0.2-1.3-0.1c-0.1-0.1-0.3-0.2-0.3-0.4c0-0.2,0.1-0.3,0.2-0.4
				c0.3-0.2,0.8-0.2,1.1,0c0,0,0,0,0.1,0c0,0,0.1,0,0.1,0.1l-0.9,0.5c0.1,0.1,0.2,0.1,0.4,0.1c0.3,0,0.5-0.2,0.5-0.4c0,0,0,0,0,0
				l0.3,0C-31.1-72.8-31.2-72.6-31.4-72.5z M-32.6-72.8l0.6-0.4c-0.1,0-0.2-0.1-0.3-0.1c-0.1,0-0.2,0-0.3,0.1
				c-0.1,0-0.1,0.1-0.1,0.2C-32.7-72.9-32.6-72.8-32.6-72.8L-32.6-72.8z"/>
			<path id="Tracé_107" class="st16" d="M-30.6-73l-1.9-1.1l0.2-0.1l1.9,1.1L-30.6-73z"/>
			<path id="Tracé_108" class="st16" d="M-28.9-74c-0.2,0.1-0.4,0.1-0.6,0.1c-0.5,0-0.9-0.3-0.9-0.5c0-0.1,0.1-0.3,0.2-0.3
				c0.1-0.1,0.2-0.1,0.3-0.1c0.1,0,0.2,0,0.3,0l-0.9-0.5l0.2-0.1l1.9,1.1l-0.2,0.1l-0.2-0.1c0,0.1,0,0.1,0,0.2
				C-28.8-74.1-28.9-74-28.9-74z M-29.5-74c0.3,0,0.6-0.1,0.6-0.3c0,0,0,0,0,0c-0.1-0.2-0.4-0.4-0.7-0.4c-0.3,0-0.6,0.1-0.6,0.3
				c0,0,0,0,0,0C-30.2-74.2-29.9-74-29.5-74L-29.5-74z"/>
			<path id="Tracé_109" class="st16" d="M-27.5-74.8c-0.2,0.1-0.4,0.1-0.6,0.1c-0.2,0-0.4-0.1-0.6-0.2c-0.2-0.1-0.3-0.2-0.3-0.4
				c0-0.2,0.1-0.3,0.2-0.4c0.2-0.1,0.4-0.1,0.5-0.1c0.2,0,0.4,0.1,0.6,0.2l0,0l-0.9,0.5c0.3,0.2,0.6,0.2,0.9,0l0,0
				c0.1,0,0.1-0.1,0.2-0.2c0-0.1,0-0.1,0-0.2l0.2,0C-27.2-75.1-27.2-74.9-27.5-74.8z M-28.6-75.1l0.8-0.4c-0.1-0.1-0.3-0.1-0.4-0.1
				c-0.1,0-0.2,0-0.3,0.1c-0.1,0-0.1,0.1-0.2,0.2C-28.8-75.2-28.7-75.1-28.6-75.1L-28.6-75.1z"/>
			<path id="Tracé_110" class="st16" d="M-25.7-75.8l-1.8-0.4l0.2-0.1l1.4,0.4l-0.6-0.8l0.2-0.1l0.8,1L-25.7-75.8z"/>
			<path id="Tracé_111" class="st16" d="M-24.1-77c0,0.3-0.3,0.5-0.8,0.5c-0.2,0-0.5-0.1-0.7-0.2c-0.2-0.1-0.3-0.2-0.3-0.4
				c0-0.3,0.3-0.5,0.8-0.5C-24.6-77.5-24.2-77.2-24.1-77z M-25-76.6c0.4,0,0.6-0.1,0.6-0.4l0,0c0-0.2-0.4-0.4-0.7-0.4
				c-0.4,0-0.6,0.1-0.6,0.4l0,0C-25.6-76.8-25.3-76.6-25-76.6L-25-76.6z"/>
			<path id="Tracé_112" class="st16" d="M-23.1-77.4c-0.1,0.1-0.2,0.1-0.3,0.1c-0.1,0-0.3,0-0.4-0.1l-0.8-0.4l-0.2,0.1l-0.2-0.1
				l0.2-0.1l-0.4-0.2l0.2-0.1l0.4,0.2l0.3-0.2l0.2,0.1l-0.3,0.2l0.7,0.4c0.1,0.1,0.2,0.1,0.3,0.1c0,0,0,0,0.1,0c0,0,0.1-0.1,0.1-0.1
				l0.2,0.1C-23-77.4-23-77.4-23.1-77.4z"/>
			<path id="Tracé_113" class="st16" d="M-22.6-77.6l-1.3-0.7l0.2-0.1l0.3,0.2c-0.1-0.1-0.1-0.2,0-0.3c0,0,0,0,0.1-0.1
				c0,0,0.1,0,0.1,0l0.2,0.1c0,0-0.1,0-0.1,0c-0.1,0-0.1,0.1-0.1,0.2c0,0.1,0.1,0.2,0.3,0.3l0.6,0.4L-22.6-77.6z"/>
			<path id="Tracé_114" class="st16" d="M-21.3-78.4c-0.2,0.1-0.4,0.1-0.6,0.1c-0.2,0-0.4-0.1-0.6-0.2c-0.2-0.1-0.3-0.2-0.3-0.4
				c0-0.2,0.1-0.3,0.2-0.4c0.2-0.1,0.4-0.1,0.5-0.1c0.2,0,0.4,0.1,0.6,0.2l0,0l-0.9,0.5c0.3,0.2,0.6,0.2,0.9,0l0,0
				c0.1,0,0.1-0.1,0.2-0.2c0-0.1,0-0.1,0-0.2l0.2,0C-21-78.7-21.1-78.5-21.3-78.4z M-22.5-78.6l0.8-0.4c-0.1-0.1-0.3-0.1-0.4-0.1
				c-0.1,0-0.2,0-0.3,0.1c-0.1,0-0.1,0.1-0.2,0.2C-22.6-78.7-22.6-78.6-22.5-78.6L-22.5-78.6z"/>
			<path id="Tracé_115" class="st16" d="M-19.5-79.4c-0.1,0.1-0.2,0.1-0.3,0.1c-0.1,0-0.3,0-0.4-0.1l-0.8-0.4l-0.2,0.1l-0.2-0.1
				l0.2-0.1l-0.4-0.2l0.2-0.1l0.4,0.2l0.3-0.2l0.2,0.1l-0.3,0.2l0.7,0.4c0.1,0.1,0.2,0.1,0.3,0.1c0,0,0,0,0.1,0c0,0,0.1-0.1,0.1-0.1
				l0.2,0.1C-19.4-79.5-19.5-79.4-19.5-79.4z"/>
			<path id="Tracé_116" class="st16" d="M-18.6-79.9c-0.2,0.1-0.4,0.1-0.6,0.1c-0.2,0-0.4-0.1-0.6-0.2c-0.2-0.1-0.3-0.2-0.3-0.4
				c0-0.2,0.1-0.3,0.2-0.4c0.2-0.1,0.4-0.1,0.5-0.1c0.2,0,0.4,0.1,0.6,0.2l0,0l-0.9,0.5c0.3,0.2,0.6,0.2,0.9,0l0,0
				c0.1,0,0.1-0.1,0.2-0.2c0-0.1,0-0.1,0-0.2l0.2,0C-18.3-80.2-18.4-80.1-18.6-79.9z M-19.8-80.2l0.8-0.4c-0.1-0.1-0.3-0.1-0.4-0.1
				c-0.1,0-0.2,0-0.3,0.1c-0.1,0-0.1,0.1-0.2,0.2C-19.9-80.3-19.9-80.2-19.8-80.2L-19.8-80.2z"/>
			<path id="Tracé_117" class="st16" d="M-17.7-80.5l-1.3-0.7l0.2-0.1l0.3,0.2c-0.1-0.1-0.1-0.2,0-0.3c0,0,0,0,0.1-0.1
				c0,0,0.1,0,0.1,0l0.2,0.1c0,0-0.1,0-0.1,0c-0.1,0-0.1,0.1-0.1,0.2c0,0.1,0.1,0.2,0.3,0.3l0.6,0.4L-17.7-80.5z"/>
			<path id="Tracé_118" class="st16" d="M-16.9-80.9l-1.3-0.7l0.2-0.1l0.3,0.2c-0.1-0.1-0.1-0.2,0-0.3c0,0,0,0,0.1-0.1
				c0,0,0.1,0,0.1,0l0.2,0.1c0,0-0.1,0-0.1,0c-0.1,0-0.1,0.1-0.1,0.2c0,0.1,0.1,0.2,0.3,0.3l0.6,0.4L-16.9-80.9z"/>
			<path id="Tracé_119" class="st16" d="M-15.6-81.7c-0.2,0.1-0.4,0.1-0.6,0.1c-0.5,0-0.9-0.3-0.9-0.5c0-0.1,0.1-0.3,0.2-0.3
				c0.1-0.1,0.2-0.1,0.3-0.1c0.1,0,0.2,0,0.3,0l-0.2-0.1l0.2-0.1l1.3,0.7l-0.2,0.1l-0.2-0.1c0,0.1,0,0.1,0,0.2
				C-15.5-81.8-15.5-81.7-15.6-81.7z M-16.2-81.7c0.3,0,0.6-0.1,0.6-0.3c0,0,0,0,0,0c-0.1-0.2-0.4-0.4-0.7-0.4
				c-0.3,0-0.6,0.1-0.6,0.3c0,0,0,0,0,0C-16.9-81.9-16.6-81.7-16.2-81.7L-16.2-81.7z"/>
			<path id="Tracé_120" class="st16" d="M-16.2-83.2c0,0-0.1,0-0.1,0c-0.1,0-0.2-0.1-0.2-0.1l0,0c0,0,0-0.1,0-0.1c0,0,0.1,0,0.1,0
				C-16.3-83.4-16.2-83.4-16.2-83.2C-16.2-83.3-16.2-83.3-16.2-83.2z M-14.7-82.2l-1.3-0.7l0.2-0.1l1.3,0.7L-14.7-82.2z"/>
			<path id="Tracé_121" class="st16" d="M-14.1-82.6l-1.3-0.7l0.2-0.1l0.2,0.1c-0.1-0.1,0-0.3,0.1-0.4c0.1-0.1,0.3-0.1,0.4-0.1
				c0.2,0,0.3,0.1,0.5,0.1l0.8,0.5l-0.2,0.1l-0.8-0.4c-0.1-0.1-0.2-0.1-0.3-0.1c-0.1,0-0.2,0-0.3,0.1c-0.1,0-0.1,0.1-0.1,0.2
				c0.1,0.1,0.2,0.2,0.3,0.3l0.6,0.4L-14.1-82.6z"/>
		</g>
	</g>
	<circle id="Ellipse_125" class="st17" cx="426.3" cy="2481.5" r="4.4"/>
	<circle id="Ellipse_127" class="st18" cx="544" cy="2472.6" r="4.4"/>
	<circle id="Ellipse_130" class="st19" cx="417" cy="2583.6" r="3.1"/>
	<circle id="Ellipse_131" class="st20" cx="555.9" cy="2657.9" r="3.1"/>
	<circle id="Ellipse_134" class="st19" cx="475.4" cy="2505.8" r="3.1"/>
	<circle id="Ellipse_132" class="st19" cx="662.9" cy="2540.3" r="3.1"/>
	<circle id="Ellipse_136" class="st18" cx="696.6" cy="2657.9" r="3.1"/>
	<circle id="Ellipse_128" class="st18" cx="618.3" cy="2690.2" r="4.4"/>
	<circle id="Ellipse_124" class="st21" cx="646.1" cy="2446.5" r="6.6"/>
	<circle id="Ellipse_133" class="st18" cx="481.1" cy="2431" r="8.8"/>
	<circle id="Ellipse_135" class="st21" cx="405.1" cy="2654.8" r="8.8"/>
	<circle id="Ellipse_129" class="st20" cx="505.5" cy="2701.3" r="6.6"/>
	<circle id="Ellipse_126" class="st21" cx="664.7" cy="2607.5" r="6.6"/>
	<g id="Groupe_4407" transform="translate(621.898 2955.364)">
		<path id="Tracé_9610" class="st22" d="M-58.5-81.2l1.4-0.8l6.4,0.8l-1.4-3.7l1.4-0.8l8.8,5.1l-1.6,0.9l-5.7-3.3l1.4,3.5l-6-0.8
			l5.7,3.3l-1.6,0.9L-58.5-81.2z"/>
		<path id="Tracé_9611" class="st22" d="M-41-81.1l-5.5-7l1.4-0.8l12.1,3.2l-1.6,0.9l-2.7-0.7l-3.2,1.9l1.3,1.6L-41-81.1z
			 M-43.5-87.1l1.8,2.2l2.1-1.2L-43.5-87.1z"/>
		<path id="Tracé_9612" class="st22" d="M-32.2-86.2l-8.8-5.1l2.9-1.7c0.7-0.4,1.6-0.6,2.4-0.5c0.9,0,1.7,0.3,2.5,0.7
			c1.2,0.7,1.4,1.4,0.7,2.2l6.6,0.7l-1.9,1.1l-6.3-0.6l-0.4,0.2l3.7,2.1L-32.2-86.2z M-35.9-90.1l1.2-0.7c0.3-0.2,0.5-0.4,0.5-0.6
			c0-0.2-0.1-0.4-0.4-0.6c-0.3-0.2-0.6-0.3-1-0.3c-0.3,0-0.7,0.1-1,0.3l-1.2,0.7L-35.9-90.1z"/>
		<path id="Tracé_9613" class="st22" d="M-21.8-92c-1.3,0.7-2.7,1-4.1,0.8c-1.5,0-3-0.4-4.4-1.2c-1-0.5-1.8-1.4-2.1-2.5
			c-0.1-1,0.5-2,1.5-2.4c0.8-0.5,1.8-0.7,2.7-0.8c1-0.1,2.1-0.1,3.1,0.2l-0.5,1.3c-1.2-0.3-2.5-0.2-3.6,0.4
			c-0.6,0.2-0.9,0.8-0.9,1.4c0.2,0.7,0.6,1.3,1.3,1.5c0.8,0.5,1.7,0.7,2.7,0.7c0.9,0.1,1.7-0.1,2.5-0.5c0.9-0.5,1.2-1.2,0.7-2.1
			l2.2-0.3c0.4,0.5,0.5,1.2,0.3,1.8C-20.6-92.9-21.2-92.4-21.8-92z"/>
		<path id="Tracé_9614" class="st22" d="M-17.4-94.8l-8.8-5.1l1.6-0.9l3.5,2l3.3-1.9l-3.5-2l1.6-0.9l8.8,5.1l-1.6,0.9l-3.6-2.1
			l-3.3,1.9l3.6,2.1L-17.4-94.8z"/>
		<path id="Tracé_9615" class="st22" d="M-9.3-99.4l-8.8-5.1l4.7-2.7l1.7,1l-3.2,1.8l1.8,1l2.5-1.5l1.7,1l-2.5,1.5l1.9,1.1l3.2-1.8
			l1.7,1L-9.3-99.4z M-16.9-106l-1.2-1.6l1.7-1l0.6,1.9L-16.9-106z"/>
	</g>
	<g id="Groupe_4408" transform="translate(300.824 2593.501)">
		<path id="Tracé_9616" class="st22" d="M1.6-0.6C0.3,0-1.1,0.3-2.5,0.2c-1.5,0-3-0.4-4.4-1.2C-8-1.4-8.7-2.4-9-3.5
			c-0.1-1,0.5-2,1.5-2.4c0.8-0.5,1.8-0.7,2.7-0.8c1-0.1,2.1-0.1,3.1,0.2l-0.5,1.3c-1.2-0.3-2.5-0.2-3.6,0.4
			c-0.6,0.2-0.9,0.8-0.9,1.4C-6.5-2.7-6-2.2-5.3-1.9c0.8,0.5,1.7,0.7,2.7,0.8c0.9,0.1,1.7-0.1,2.5-0.5C0.8-2.2,1-2.9,0.5-3.7L2.8-4
			C3.1-3.5,3.2-2.8,3-2.2C2.8-1.5,2.2-1,1.6-0.6z"/>
		<path id="Tracé_9617" class="st22" d="M11.1-7.7c0.1,1-0.5,2-1.5,2.4C8.4-4.6,7-4.3,5.5-4.5c-1.5,0-3-0.4-4.4-1.2
			C0.1-6.1-0.6-7-0.9-8.2c-0.1-1,0.5-2,1.5-2.4c1.3-0.7,2.7-1,4.1-0.8c1.5,0,3,0.4,4.4,1.2C10.1-9.7,10.9-8.8,11.1-7.7z M5.4-5.8
			c0.9,0.1,1.7-0.1,2.5-0.5c0.6-0.2,0.9-0.8,0.9-1.4C8.6-8.4,8.1-9,7.5-9.3C6.7-9.7,5.7-10,4.8-10c-0.9-0.1-1.7,0.1-2.5,0.5
			C1.7-9.3,1.4-8.7,1.4-8.1c0.2,0.7,0.6,1.3,1.3,1.5C3.6-6.1,4.5-5.8,5.4-5.8L5.4-5.8z"/>
		<path id="Tracé_9618" class="st22" d="M21.5-12.3l-1.3,0.8l-9.6-1.1l5.7,3.3l-1.6,0.9l-8.8-5.1l1.3-0.8l9.6,1.1l-5.7-3.3l1.6-0.9
			L21.5-12.3z"/>
		<path id="Tracé_9619" class="st22" d="M25.5-14.5c-0.6,0.4-1.3,0.6-2,0.7c-0.8,0.1-1.5,0.1-2.3,0l0-1.4c0.5,0.1,1,0.1,1.5,0
			c0.4,0,0.8-0.2,1.2-0.4c0.3-0.2,0.5-0.4,0.5-0.6c0-0.2-0.1-0.4-0.3-0.5c-0.3-0.2-0.6-0.2-0.9-0.2c-0.4,0-0.9,0.1-1.3,0.2L21-16.4
			c-1.5,0.5-3,0.3-4.4-0.4c-0.8-0.5-1.2-1-1.2-1.5c0-0.6,0.4-1,1.1-1.5c1.1-0.6,2.4-0.8,3.6-0.7l0.2,1.3c-0.7-0.1-1.5,0-2.1,0.4
			c-0.2,0.1-0.4,0.3-0.5,0.5c-0.1,0.2,0,0.4,0.3,0.5c0.3,0.1,0.6,0.2,0.9,0.2c0.5,0,1-0.1,1.4-0.2l0.9-0.2c1.5-0.4,3.1-0.3,4.4,0.5
			c0.8,0.5,1.2,1,1.2,1.5C26.7-15.4,26.3-14.9,25.5-14.5z"/>
		<path id="Tracé_9620" class="st22" d="M30.6-17.6l-7.1-4.1l-2,1.2l-1.7-1l5.6-3.3l1.7,1l-2,1.2l7.1,4.1L30.6-17.6z"/>
		<path id="Tracé_9621" class="st22" d="M35.3-20.3l-8.8-5.1l2.9-1.7c0.7-0.4,1.6-0.6,2.4-0.5c0.9,0,1.7,0.3,2.5,0.7
			c1.2,0.7,1.4,1.4,0.7,2.2l6.6,0.7l-1.9,1.1l-6.3-0.6l-0.4,0.2l3.7,2.1L35.3-20.3z M31.6-24.2l1.2-0.7c0.3-0.2,0.5-0.4,0.5-0.6
			c0-0.2-0.1-0.4-0.4-0.6c-0.3-0.2-0.6-0.3-1-0.3c-0.3,0-0.7,0.1-1,0.3l-1.2,0.7L31.6-24.2z"/>
		<path id="Tracé_9622" class="st22" d="M45.4-25.9c-1,0.5-2.1,0.8-3.2,0.7c-1.2-0.1-2.4-0.4-3.5-1l-5.3-3.1l1.6-0.9l5.3,3.1
			c0.5,0.3,1.2,0.5,1.8,0.5c0.6,0,1.1-0.1,1.6-0.4c0.5-0.3,0.7-0.6,0.6-0.9c-0.1-0.4-0.4-0.7-0.9-1L38-32l1.6-0.9l5.3,3.1
			c1.1,0.6,1.7,1.3,1.8,2C46.7-27.1,46.3-26.4,45.4-25.9z"/>
		<path id="Tracé_9623" class="st22" d="M53.6-30.6c-1.3,0.7-2.7,1-4.1,0.8c-1.5,0-3-0.4-4.4-1.2c-1.1-0.5-1.8-1.4-2.1-2.5
			c-0.1-1,0.5-2,1.5-2.4c0.8-0.5,1.8-0.7,2.7-0.8c1-0.1,2.1-0.1,3.1,0.2l-0.5,1.3c-1.2-0.3-2.5-0.2-3.6,0.4
			c-0.6,0.2-0.9,0.8-0.9,1.4c0.2,0.7,0.6,1.3,1.3,1.5c0.8,0.5,1.7,0.7,2.7,0.7c0.9,0.1,1.7-0.1,2.5-0.5c0.9-0.5,1.2-1.2,0.7-2.1
			l2.2-0.3c0.4,0.5,0.5,1.2,0.3,1.8C54.7-31.5,54.2-31,53.6-30.6z"/>
		<path id="Tracé_9624" class="st22" d="M59.4-34.2l-7.1-4.1l-2,1.2l-1.7-1l5.6-3.3l1.7,1l-2,1.2l7.1,4.1L59.4-34.2z"/>
		<path id="Tracé_9625" class="st22" d="M64.1-36.9L55.3-42l1.6-0.9l8.8,5.1L64.1-36.9z"/>
		<path id="Tracé_9626" class="st22" d="M72.4-43.1c0.1,1-0.5,2-1.5,2.4c-1.3,0.7-2.7,1-4.1,0.8c-1.5,0-3-0.4-4.4-1.2
			c-1.1-0.5-1.8-1.4-2.1-2.5c-0.1-1,0.5-2,1.5-2.4c1.3-0.7,2.7-1,4.1-0.8c1.5,0,3,0.4,4.4,1.2C71.4-45.1,72.2-44.2,72.4-43.1z
			 M66.7-41.2c0.9,0.1,1.7-0.1,2.5-0.5c0.6-0.2,0.9-0.8,0.9-1.4c-0.2-0.7-0.6-1.3-1.3-1.5c-0.8-0.5-1.7-0.7-2.7-0.7
			c-0.9-0.1-1.7,0.1-2.5,0.5c-0.6,0.2-0.9,0.8-0.9,1.4c0.2,0.7,0.6,1.3,1.3,1.5C64.9-41.5,65.8-41.2,66.7-41.2L66.7-41.2z"/>
		<path id="Tracé_9627" class="st22" d="M82.8-47.7l-1.3,0.8L71.8-48l5.7,3.3L76-43.8l-8.8-5.1l1.3-0.8l9.6,1.1l-5.7-3.3l1.6-0.9
			L82.8-47.7z"/>
	</g>
	<g id="Groupe_4424" transform="translate(459.019 2621.739)" class="st23">
		<path id="Tracé_9596" class="st24" d="M85.2,79.7L-33.4,11.3L85.2-57.1l118.5,68.4L85.2,79.7z"/>
		<g id="Groupe_4409" transform="translate(130.458 98.31)">
			<path id="Tracé_9670" class="st25" d="M-43.3-30.4c-0.6,0.4-1.3,0.6-2.1,0.7c-0.8,0.1-1.5,0.1-2.3,0l0-1.4c0.5,0.1,1,0.1,1.5,0
				c0.4,0,0.8-0.2,1.2-0.4c0.3-0.2,0.5-0.4,0.5-0.6s-0.1-0.4-0.3-0.5c-0.3-0.1-0.6-0.2-0.9-0.2c-0.4,0-0.9,0.1-1.3,0.2l-0.9,0.2
				c-1.5,0.5-3,0.3-4.4-0.4c-0.8-0.5-1.2-1-1.2-1.5c0-0.5,0.4-1,1.1-1.5c1.1-0.6,2.4-0.8,3.6-0.7l0.2,1.3c-0.7-0.1-1.5,0-2.1,0.4
				c-0.2,0.1-0.4,0.3-0.5,0.5c-0.1,0.2,0,0.4,0.3,0.5c0.3,0.1,0.6,0.2,0.9,0.2c0.5,0,1-0.1,1.4-0.2l0.9-0.2c1.5-0.4,3.1-0.3,4.4,0.5
				c0.8,0.5,1.2,1,1.2,1.5S-42.5-30.9-43.3-30.4z"/>
			<path id="Tracé_9671" class="st25" d="M-36-35.7c0,0.7-0.4,1.4-1.1,1.7c-0.9,0.5-1.9,0.7-2.9,0.6c-1.1,0-2.2-0.3-3.1-0.8
				c-0.7-0.3-1.3-1-1.5-1.8c0-0.7,0.4-1.4,1.1-1.7c0.9-0.5,1.9-0.7,2.9-0.6c1.1,0,2.2,0.3,3.1,0.8C-36.8-37.2-36.2-36.5-36-35.7z
				 M-38.7-34.9c0.3-0.1,0.5-0.5,0.5-0.8c-0.1-0.4-0.4-0.7-0.8-0.9c-0.5-0.3-1-0.4-1.6-0.5c-0.5,0-1,0.1-1.4,0.3
				c-0.4,0.2-0.6,0.5-0.5,0.8c0.1,0.4,0.4,0.7,0.8,0.9c0.5,0.3,1,0.4,1.6,0.5C-39.6-34.6-39.1-34.7-38.7-34.9L-38.7-34.9z"/>
			<path id="Tracé_9672" class="st25" d="M-33.4-36.3l-9.3-5.4l1.5-0.9l9.3,5.4L-33.4-36.3z"/>
			<path id="Tracé_9673" class="st25" d="M-28.4-39.1c-0.7,0.4-1.5,0.5-2.2,0.4c-0.9-0.1-1.8-0.4-2.5-0.8l-3.6-2.1l1.5-0.8l3.3,1.9
				c1,0.6,1.8,0.7,2.4,0.3c0.3-0.2,0.5-0.4,0.4-0.7c-0.2-0.4-0.6-0.7-1-0.9l-3-1.7l1.5-0.8l6.2,3.6l-1.5,0.8l-0.7-0.4
				C-27.5-39.9-27.7-39.4-28.4-39.1z"/>
			<path id="Tracé_9674" class="st25" d="M-21.5-43.1c-0.6,0.4-1.3,0.5-2.1,0.5c-0.8,0-1.6-0.2-2.2-0.6l-2.5-1.5l-1.1,0.6l-1.5-0.9
				l1.1-0.6l-1.7-1l1.5-0.8l1.7,1l1.5-0.9l1.5,0.9l-1.5,0.9l2.2,1.3c0.3,0.2,0.7,0.3,1,0.3c0.3,0,0.7-0.1,0.9-0.3
				c0.2-0.1,0.4-0.2,0.5-0.4l1.5,0.9C-20.9-43.5-21.2-43.3-21.5-43.1z"/>
			<path id="Tracé_9675" class="st25" d="M-26.1-48.9c-0.3,0.2-0.6,0.2-1,0.2c-0.4,0-0.7-0.1-1-0.3c-0.2-0.1-0.4-0.3-0.5-0.6
				c0-0.2,0.1-0.5,0.3-0.6c0.3-0.2,0.6-0.2,1-0.2c0.4,0,0.7,0.1,1,0.3c0.2,0.1,0.4,0.3,0.5,0.6C-25.7-49.2-25.8-49-26.1-48.9z
				 M-19.6-44.3l-6.2-3.6l1.5-0.8l6.2,3.6L-19.6-44.3z"/>
			<path id="Tracé_9676" class="st25" d="M-13-49c0,0.7-0.4,1.4-1.1,1.7c-0.9,0.5-1.9,0.7-2.9,0.6c-1.1,0-2.2-0.3-3.1-0.8
				c-0.8-0.3-1.3-1-1.5-1.8c0-0.7,0.4-1.4,1.1-1.7c0.9-0.5,1.9-0.7,2.9-0.6c1.1,0,2.2,0.3,3.1,0.8C-13.8-50.5-13.2-49.8-13-49z
				 M-15.7-48.2c0.3-0.1,0.5-0.5,0.5-0.8c-0.1-0.4-0.4-0.7-0.8-0.9c-0.5-0.3-1-0.4-1.6-0.5c-0.5,0-1,0-1.4,0.3
				c-0.4,0.2-0.6,0.5-0.5,0.8c0.1,0.4,0.4,0.7,0.8,0.9c0.5,0.3,1,0.4,1.6,0.5C-16.6-47.9-16.1-48-15.7-48.2L-15.7-48.2z"/>
			<path id="Tracé_9677" class="st25" d="M-10.4-49.6l-6.2-3.6l1.5-0.8l0.7,0.4c-0.2-0.5,0-1,0.7-1.4c0.7-0.4,1.5-0.5,2.3-0.5
				c0.9,0.1,1.7,0.4,2.5,0.8l3.6,2.1l-1.5,0.8l-3.3-1.9c-0.4-0.2-0.8-0.4-1.3-0.5c-0.4-0.1-0.7,0-1.1,0.2c-0.4,0.2-0.5,0.5-0.4,0.8
				c0.1,0.3,0.4,0.6,1,0.9l3,1.7L-10.4-49.6z"/>
			<path id="Tracé_9678" class="st25" d="M5.5-58.8L4.1-58L-5.5-59l5.7,3.3l-1.6,0.9l-8.8-5.1l1.3-0.8l9.6,1.1l-5.7-3.3l1.6-0.9
				L5.5-58.8z"/>
			<path id="Tracé_9679" class="st25" d="M3.3-63.3C2.8-63,2.2-62.9,1.6-63c-0.6,0-1.3-0.2-1.8-0.5C-0.7-63.6-1-64-1.1-64.5
				c0-0.4,0.2-0.8,0.6-1c0.5-0.3,1.1-0.4,1.7-0.3c0.6,0,1.3,0.2,1.8,0.5c0.4,0.2,0.8,0.6,0.9,1.1C3.9-63.9,3.7-63.5,3.3-63.3z
				 M2.1-64c0.2-0.1,0.3-0.2,0.2-0.4c0-0.2-0.2-0.3-0.4-0.4C1.8-64.9,1.6-65,1.3-65c-0.2,0-0.5,0-0.7,0.1c-0.2,0.1-0.3,0.2-0.3,0.4
				c0,0.2,0.2,0.3,0.4,0.4c0.2,0.1,0.5,0.2,0.7,0.2C1.7-63.8,1.9-63.8,2.1-64z"/>
			<path id="Tracé_9680" class="st25" d="M12.3-62.7l-7.1-4.1l-1.6,0.9L3-67.5l2-1.2l8.8,5.1L12.3-62.7z"/>
			<path id="Tracé_9681" class="st25" d="M18.6-66.4l-2-1.2l-3.8,2.2l-1.4-0.8L10-71.5l1.3-0.8l5.2,3l1-0.6l1.6,0.9l-1,0.6l2,1.2
				L18.6-66.4z M13.1-67.3l2-1.1L12.3-70L13.1-67.3z"/>
		</g>
		<g id="Groupe_4422" transform="translate(84.441 48.109)">
			<path id="Tracé_9758" class="st26" d="M-43.8-39l-2.2-1.3l2.4-1.4l-2.8-1.6l1.9-1.1l2.8,1.6l2.4-1.4l2.2,1.3l-2.4,1.4l2.8,1.6
				l-1.9,1.1l-2.8-1.6L-43.8-39z"/>
			<path id="Tracé_9759" class="st26" d="M-27.2-43.4c-1.3,0.7-2.7,1-4.1,1c-1.6,0-3.2-0.4-4.6-1.1l2.2-1.3
				c0.6,0.3,1.4,0.5,2.1,0.5c0.7,0,1.3-0.2,1.9-0.5c0.5-0.3,0.8-0.6,0.8-1s-0.2-0.7-0.7-1c-0.5-0.3-1.2-0.5-1.8-0.5
				c-0.6,0-1.3,0.2-1.8,0.5l-1,0.6l-2.1-1.2l0.9-0.5c0.5-0.3,0.8-0.6,0.8-0.9c0-0.3-0.2-0.6-0.7-0.9c-0.5-0.3-1-0.4-1.5-0.4
				c-0.5,0-1,0.1-1.5,0.4c-0.5,0.3-0.8,0.6-0.7,1c0,0.4,0.3,0.7,0.8,1.1l-2.2,1.3c-1.3-0.8-2-1.6-2-2.5c0-1,0.7-1.9,1.6-2.3
				c1.2-0.7,2.5-1,3.8-0.9c1.3,0,2.6,0.4,3.7,1c0.5,0.3,1,0.7,1.3,1.2c0.2,0.4,0.3,0.8,0.3,1.2c0.8-0.1,1.5-0.1,2.3,0
				c0.8,0.1,1.6,0.4,2.3,0.8c1.2,0.7,1.8,1.4,1.8,2.3C-25.4-44.9-26-44.1-27.2-43.4z"/>
			<path id="Tracé_9760" class="st26" d="M-20.3-47.6L-31-53.8l-2.4,1.4l-0.9-2.4l3-1.7l13.2,7.6L-20.3-47.6z"/>
			<path id="Tracé_9761" class="st26" d="M-19.2-55.2c-1,0.5-2.2,0.8-3.3,0.7c-1.2,0-2.4-0.4-3.5-1c-0.8-0.4-1.5-1.1-1.7-2
				c-0.1-0.8,0.4-1.6,1.2-1.9c1-0.5,2.2-0.8,3.3-0.7c1.2,0,2.4,0.4,3.5,1c0.8,0.4,1.5,1.1,1.6,2C-18-56.3-18.5-55.5-19.2-55.2z
				 M-22.7-56.2c0.5,0,0.9,0,1.4-0.3c0.3-0.1,0.5-0.4,0.5-0.8c-0.1-0.4-0.3-0.7-0.7-0.8c-0.4-0.2-0.9-0.4-1.4-0.4
				c-0.5,0-0.9,0-1.4,0.3c-0.3,0.1-0.5,0.4-0.5,0.8c0.1,0.4,0.3,0.7,0.7,0.8C-23.7-56.3-23.2-56.2-22.7-56.2z M-11.4-52.8l-2.3,1.3
				l-5.9-11.8l2.3-1.3L-11.4-52.8z M-4.5-56.6c-1,0.5-2.2,0.8-3.3,0.7c-1.2,0-2.4-0.4-3.5-1c-0.8-0.4-1.5-1.1-1.7-2
				c-0.1-0.8,0.4-1.6,1.2-1.9c1-0.5,2.2-0.8,3.3-0.7c1.2,0,2.4,0.4,3.5,1c0.8,0.4,1.5,1.1,1.7,2C-3.3-57.6-3.8-56.9-4.5-56.6z
				 M-8.1-57.5c0.5,0,0.9-0.1,1.4-0.3c0.3-0.1,0.5-0.4,0.5-0.8c-0.1-0.4-0.3-0.7-0.7-0.8c-0.4-0.2-0.9-0.4-1.4-0.4
				c-0.5,0-0.9,0-1.3,0.3c-0.3,0.1-0.5,0.4-0.5,0.8c0.1,0.4,0.3,0.7,0.7,0.8C-9-57.7-8.6-57.5-8.1-57.5L-8.1-57.5z"/>
		</g>
		<g id="Groupe_4423" transform="translate(54.112 32.421)" class="st27">
			<path id="Tracé_9744" class="st25" d="M-31.5-28.1c-0.8,0.5-1.8,0.7-2.8,0.7c-1.1,0-2.1-0.2-3.1-0.8l1.5-0.8
				c0.4,0.2,0.9,0.3,1.4,0.3c0.5,0,0.9-0.1,1.3-0.4c0.3-0.2,0.5-0.4,0.5-0.7c0-0.2-0.1-0.5-0.5-0.7c-0.4-0.2-0.8-0.3-1.2-0.3
				c-0.4,0-0.9,0.1-1.2,0.4l-0.6,0.4l-1.4-0.8l0.6-0.3c0.4-0.2,0.5-0.4,0.5-0.6s-0.2-0.4-0.5-0.6c-0.3-0.2-0.7-0.3-1-0.3
				c-0.3,0-0.7,0.1-1,0.2c-0.3,0.2-0.5,0.4-0.5,0.7s0.2,0.5,0.6,0.7l-1.5,0.9c-0.9-0.5-1.3-1.1-1.3-1.7c0-0.7,0.4-1.3,1.1-1.5
				c0.8-0.4,1.7-0.7,2.5-0.6c0.9,0,1.7,0.2,2.5,0.7c0.3,0.2,0.6,0.5,0.9,0.8c0.2,0.2,0.2,0.5,0.2,0.8c0.5-0.1,1-0.1,1.5,0
				c0.5,0.1,1.1,0.3,1.5,0.5c0.8,0.4,1.2,1,1.2,1.5C-30.4-29-30.7-28.5-31.5-28.1z"/>
			<path id="Tracé_9745" class="st25" d="M-25.4-31.8l-9.3-5.4l1.5-0.8l9.3,5.4L-25.4-31.8z"/>
			<path id="Tracé_9746" class="st25" d="M-18.9-36.5c0,0.7-0.4,1.4-1.1,1.7c-0.9,0.5-1.9,0.7-2.9,0.6c-1.1,0-2.2-0.3-3.1-0.8
				c-0.8-0.3-1.3-1-1.5-1.8c0-0.7,0.4-1.4,1.1-1.7c0.9-0.5,1.9-0.7,2.9-0.6c1.1,0,2.2,0.3,3.1,0.8C-19.6-38-19-37.3-18.9-36.5z
				 M-21.5-35.7c0.3-0.1,0.5-0.5,0.5-0.8c-0.1-0.4-0.4-0.7-0.8-0.9c-0.5-0.3-1-0.4-1.6-0.5c-0.5,0-1,0.1-1.4,0.3
				c-0.4,0.2-0.6,0.5-0.5,0.8c0.1,0.4,0.4,0.7,0.8,0.9c0.5,0.3,1,0.4,1.6,0.5C-22.4-35.4-21.9-35.5-21.5-35.7L-21.5-35.7z"/>
			<path id="Tracé_9747" class="st25" d="M-13.6-38.5c-0.6,0.4-1.3,0.5-2.1,0.5c-0.8,0-1.6-0.2-2.2-0.6l-2.5-1.5l-1.1,0.6l-1.5-0.9
				l1.1-0.6l-1.7-1l1.5-0.8l1.7,1l1.5-0.9l1.5,0.9l-1.5,0.9l2.2,1.3c0.3,0.2,0.7,0.3,1,0.3c0.3,0,0.7-0.1,0.9-0.3
				c0.2-0.1,0.4-0.2,0.5-0.4l1.5,0.9C-13.1-38.9-13.3-38.7-13.6-38.5z"/>
			<path id="Tracé_9748" class="st25" d="M-9.8-40.6c-1,0.6-2.2,0.8-3.4,0.6l0-1.2c0.7,0.1,1.3,0,1.9-0.3c0.1-0.1,0.2-0.2,0.3-0.3
				c0-0.1,0-0.2-0.2-0.3c-0.1-0.1-0.3-0.1-0.5-0.1c-0.3,0-0.6,0.1-0.8,0.2l-0.5,0.2c-0.6,0.2-1.2,0.3-1.9,0.2
				c-0.6,0-1.1-0.2-1.6-0.5c-0.5-0.3-0.8-0.7-0.8-1.1c0.1-0.5,0.4-0.9,0.9-1.1c0.9-0.5,1.9-0.7,2.9-0.5l-0.1,1.1
				c-0.5-0.1-1,0-1.5,0.2c-0.1,0.1-0.2,0.2-0.3,0.3c0,0.1,0,0.2,0.1,0.3c0.3,0.1,0.7,0.1,1.1,0l0.7-0.2c1.1-0.4,2.4-0.4,3.5,0.2
				c0.6,0.3,0.9,0.7,0.9,1.2C-9-41.3-9.3-40.8-9.8-40.6z"/>
			<path id="Tracé_9749" class="st25" d="M-1.7-45.3c-0.9,0.5-1.9,0.7-2.9,0.6c-1.1,0-2.2-0.3-3.1-0.9c-0.8-0.3-1.3-1-1.5-1.8
				c0-0.7,0.4-1.4,1.1-1.7c0.6-0.3,1.3-0.5,2-0.6c0.8-0.1,1.6,0,2.3,0.2l-0.5,1.2c-0.4-0.1-0.8-0.1-1.2-0.1c-0.4,0-0.7,0.1-1,0.3
				c-0.3,0.1-0.5,0.5-0.5,0.8c0.1,0.4,0.4,0.7,0.8,0.9c0.5,0.3,1,0.4,1.6,0.5c0.5,0,1-0.1,1.4-0.3c0.2-0.1,0.4-0.3,0.5-0.6
				c0-0.3-0.1-0.5-0.2-0.7l2.1-0.3c0.3,0.4,0.4,0.9,0.3,1.3C-0.9-46-1.2-45.5-1.7-45.3z"/>
			<path id="Tracé_9750" class="st25" d="M1.6-47.4L-4.6-51l1.5-0.8l1,0.6c-0.2-0.2-0.3-0.5-0.3-0.7c0.1-0.3,0.3-0.5,0.5-0.6
				c0.2-0.1,0.4-0.2,0.6-0.2l1.7,1c-0.3,0.1-0.6,0.2-0.8,0.3c-0.4,0.2-0.5,0.4-0.4,0.7c0.2,0.4,0.5,0.7,0.9,0.9l3,1.7L1.6-47.4z"/>
			<path id="Tracé_9751" class="st25" d="M0.7-54.9l-1.2-2l1.7-1l0.6,2.4L0.7-54.9z M8.3-51.1c-0.9,0.5-1.9,0.7-2.9,0.7
				c-1.1,0-2.2-0.3-3.1-0.9c-0.8-0.3-1.3-1-1.5-1.8c0-0.7,0.4-1.4,1.1-1.7c0.8-0.4,1.7-0.7,2.7-0.6C5.8-55.4,7-55,8.1-54.2l-4,2.3
				c0.4,0.2,0.9,0.3,1.4,0.3c0.5,0,0.9-0.1,1.3-0.4c0.6-0.4,0.8-0.8,0.6-1.3l2-0.1C9.8-52.5,9.4-51.7,8.3-51.1L8.3-51.1z M3-52.6
				l2.5-1.4c-0.4-0.2-0.8-0.2-1.2-0.2c-0.4,0-0.7,0.1-1,0.3c-0.3,0.1-0.5,0.4-0.6,0.6C2.6-53.1,2.7-52.8,3-52.6L3-52.6z"/>
			<path id="Tracé_9752" class="st25" d="M6.9-58.5l-1.2-2l1.7-1L8-59.1L6.9-58.5z M14.5-54.7c-0.9,0.5-1.9,0.7-2.9,0.7
				c-1.1,0-2.2-0.3-3.1-0.9c-0.8-0.3-1.3-1-1.5-1.8c-0.1-0.7,0.3-1.2,1.1-1.7c0.8-0.4,1.7-0.7,2.7-0.6c1.1,0,2.1,0.3,3,0.9
				c0.3,0.2,0.5,0.3,0.6,0.3l-4,2.3c0.4,0.2,0.9,0.3,1.4,0.3c0.5,0,0.9-0.1,1.3-0.4c0.6-0.4,0.8-0.8,0.6-1.2l2-0.1
				C16-56.1,15.6-55.3,14.5-54.7z M9.2-56.2l2.5-1.4c-0.4-0.2-0.8-0.2-1.2-0.2c-0.4,0-0.7,0.1-1,0.3c-0.3,0.1-0.5,0.4-0.6,0.6
				C8.8-56.6,8.9-56.3,9.2-56.2L9.2-56.2z"/>
			<path id="Tracé_9753" class="st25" d="M20-57.9c-1,0.6-2.2,0.8-3.4,0.6l0-1.2c0.7,0.1,1.3,0,1.9-0.3c0.1-0.1,0.2-0.2,0.3-0.3
				c0-0.1,0-0.2-0.2-0.3c-0.1-0.1-0.3-0.1-0.5-0.1c-0.3,0-0.6,0.1-0.8,0.2l-0.5,0.2c-0.6,0.2-1.2,0.3-1.9,0.2
				c-0.6,0-1.1-0.2-1.6-0.5c-0.5-0.3-0.8-0.7-0.8-1.1c0-0.4,0.3-0.8,0.9-1.1c0.9-0.5,1.9-0.7,2.9-0.5L16.4-61c-0.5-0.1-1,0-1.5,0.2
				c-0.1,0.1-0.2,0.2-0.3,0.3c0,0.1,0,0.2,0.1,0.3c0.3,0.1,0.7,0.1,1.1,0l0.7-0.2c1.1-0.4,2.4-0.4,3.5,0.2c0.6,0.3,0.9,0.7,0.9,1.2
				C20.9-58.6,20.6-58.2,20-57.9z"/>
		</g>
		<g id="Groupe_4526" transform="translate(85.294 44.654)">
			<path id="Tracé_9893" class="st28" d="M-33.6-15.5l-2.9-1.6l-5.6,3.2l-2.3-1.3l-2.2-8l2.2-1.3l7.7,4.5l1.5-0.8l2.6,1.5l-1.5,0.8
				l2.9,1.6L-33.6-15.5z M-41.6-17.1l2.6-1.5l-3.6-2.1L-41.6-17.1z"/>
			<path id="Tracé_9894" class="st28" d="M-24.2-20.7c-1.3,0.7-2.7,1-4.2,1c-1.6,0-3.2-0.4-4.7-1.2l2.4-1.4
				c0.6,0.3,1.2,0.4,1.9,0.4c0.6,0,1.2-0.2,1.7-0.5c0.5-0.3,0.7-0.6,0.7-0.9c0-0.3-0.2-0.6-0.6-0.9c-0.5-0.3-1-0.4-1.6-0.4
				c-0.6,0-1.2,0.2-1.7,0.5l-1,0.6l-2.2-1.3l0.9-0.5c1-0.6,1-1.1,0.1-1.7c-0.8-0.5-1.8-0.5-2.6,0c-0.5,0.3-0.7,0.6-0.7,0.9
				c0.1,0.4,0.3,0.8,0.7,0.9l-2.4,1.4c-1.3-0.8-2-1.6-2-2.5c0.1-1,0.7-1.9,1.6-2.3c1.2-0.7,2.5-1,3.9-0.9c1.3,0,2.6,0.4,3.7,1
				c0.5,0.3,1,0.7,1.3,1.1c0.2,0.3,0.4,0.8,0.4,1.2c0.7-0.1,1.5-0.1,2.2,0c0.8,0.1,1.5,0.4,2.2,0.8c1.2,0.7,1.7,1.4,1.7,2.3
				C-22.4-22.2-23-21.4-24.2-20.7z"/>
			<path id="Tracé_9895" class="st28" d="M-14-30l2.8,1.6l-7.9,4.5l-0.9-0.5c-0.3-0.2-0.7-0.4-0.9-0.7c-0.2-0.2-0.5-0.4-0.7-0.6
				c-0.2-0.2-0.3-0.4-0.4-0.7c-0.1-0.3-0.2-0.5-0.2-0.7c0-0.2-0.1-0.5,0-0.7c0-0.3,0-0.5,0.1-0.7c0-0.1,0.1-0.4,0.1-0.7
				c0.1-0.3,0.1-0.5,0.1-0.7c0.2-1.2-0.1-2-0.8-2.4c-0.4-0.3-0.9-0.4-1.5-0.4c-0.5,0-1,0.1-1.4,0.3c-0.5,0.3-0.7,0.6-0.6,0.9
				c0.1,0.4,0.4,0.8,0.7,0.9l-2.4,1.4c-1.3-0.7-2-1.6-2-2.5c-0.1-0.9,0.5-1.7,1.7-2.4c1.1-0.6,2.4-0.9,3.7-0.9
				c1.4,0,2.9,0.4,4.1,1.1c0.6,0.3,1.2,0.8,1.7,1.4c0.3,0.4,0.5,0.8,0.6,1.3c0.1,0.5,0.1,0.9,0,1.4c0,0-0.1,0.2-0.2,0.6
				c-0.1,0.3-0.1,0.6-0.2,1c0,0.2,0,0.4,0.1,0.6L-14-30z"/>
			<path id="Tracé_9896" class="st28" d="M-1.5-33.8c-1.4,0.8-3,1.1-4.6,0.9c-1.8-0.1-3.5-0.6-5-1.5l-3.1-1.8
				c-1.5-0.9-2.4-1.8-2.6-2.9c-0.2-1,0.4-1.9,1.6-2.7c1.4-0.8,3-1.1,4.6-0.9c1.8,0.1,3.5,0.6,5,1.5l3.1,1.8c1.5,0.9,2.4,1.8,2.6,2.9
				C0.3-35.4-0.3-34.5-1.5-33.8z M-4.3-35.4c0.6-0.3,0.8-0.7,0.7-1.2s-0.5-0.9-1.3-1.4L-8-39.7c-0.7-0.4-1.5-0.7-2.3-0.8
				c-0.7-0.1-1.4,0.1-2,0.4c-0.6,0.3-0.8,0.7-0.7,1.2c0.1,0.5,0.5,0.9,1.3,1.4l3.1,1.8C-8-35.3-7.2-35-6.3-35
				C-5.6-34.9-4.9-35-4.3-35.4z"/>
			<path id="Tracé_9897" class="st28" d="M8.6-39.7c-1.4,0.8-3,1.1-4.6,0.9c-1.8-0.1-3.5-0.6-5-1.5L-4-42c-1.5-0.9-2.4-1.8-2.6-2.9
				c-0.2-1,0.4-1.9,1.6-2.6c1.4-0.8,3-1.1,4.6-0.9c1.8,0.1,3.5,0.6,5,1.5l3.1,1.8c1.5,0.9,2.4,1.8,2.6,2.9
				C10.4-41.3,9.9-40.4,8.6-39.7z M5.8-41.2c0.6-0.3,0.8-0.7,0.7-1.2c-0.1-0.5-0.5-0.9-1.3-1.4l-3.1-1.8c-0.7-0.4-1.5-0.7-2.3-0.8
				c-0.7-0.1-1.4,0.1-2,0.4c-0.6,0.3-0.8,0.7-0.7,1.2c0.1,0.5,0.5,0.9,1.3,1.4l3.1,1.8c0.7,0.4,1.5,0.7,2.3,0.8
				C4.5-40.8,5.2-40.9,5.8-41.2z"/>
			<path id="Tracé_9898" class="st28" d="M18.8-45.5c-1.4,0.8-3,1.1-4.6,0.9c-1.8-0.1-3.5-0.6-5-1.5l-3.1-1.8
				c-1.5-0.9-2.4-1.8-2.6-2.9s0.4-1.9,1.6-2.6c1.4-0.8,3-1.1,4.6-0.9c1.8,0.1,3.5,0.6,5,1.5l3.1,1.8c1.5,0.9,2.4,1.8,2.6,2.9
				C20.6-47.1,20-46.2,18.8-45.5z M16-47.1c0.6-0.3,0.8-0.7,0.7-1.2c-0.1-0.5-0.5-0.9-1.3-1.4l-3.1-1.8c-0.7-0.4-1.5-0.7-2.3-0.8
				c-0.7-0.1-1.4,0.1-2,0.4c-0.6,0.3-0.8,0.7-0.7,1.2c0.1,0.5,0.5,0.9,1.3,1.4l3.1,1.8c0.7,0.4,1.5,0.7,2.3,0.8
				C14.7-46.6,15.4-46.8,16-47.1L16-47.1z"/>
			<path id="Tracé_9899" class="st28" d="M21.6-55.7L20.4-55l-0.7-0.8l1-0.6c-1.1-0.8-1.7-2-1.6-3.3c0.1-1.2,0.9-2.1,2.3-3
				c1.3-0.7,2.8-1.2,4.3-1.3c1.7-0.1,3.5,0.1,5.1,0.5l-2.8,1.6c-1.3-0.2-2.7,0-3.9,0.7c-0.6,0.3-1.1,0.8-1.3,1.5
				c-0.1,0.6,0,1.2,0.5,1.7l5.4-3.1l0.8,0.8l-5.4,3.1c0.3,0.2,0.4,0.3,0.6,0.4c0.2,0.1,0.4,0.2,0.6,0.3l5.1-2.9l0.8,0.8L26.6-56
				c1,0.3,2,0.4,3,0.3c0.9-0.1,1.8-0.3,2.6-0.8c1.1-0.6,1.5-1.4,1.2-2.2l2.8-1.6c0.8,0.8,1.1,1.9,1,3c-0.3,1.1-1.1,2-2.2,2.5
				c-1.6,0.9-3.3,1.3-5.1,1.3c-2,0.1-3.9-0.3-5.8-1l-1.3,0.8L22-54.5l0.9-0.5c-0.1-0.1-0.4-0.2-0.6-0.3S21.8-55.6,21.6-55.7z"/>
		</g>
	</g>
	<g id="Groupe_4421" transform="translate(459.019 2548.53)" class="st29">
		<path id="Tracé_9597" class="st30" d="M85.2,91L-33.4,22.6L85.2-45.8l118.5,68.4L85.2,91z"/>
		<g id="Groupe_4410" transform="translate(132.55 98.309)" class="st27">
			<path id="Tracé_9682" class="st25" d="M-43.6-19c-0.6,0.4-1.3,0.6-2,0.7c-0.8,0.1-1.5,0.1-2.3,0l0-1.4c0.5,0.1,1,0.1,1.5,0
				c0.4,0,0.8-0.2,1.2-0.4c0.3-0.2,0.5-0.4,0.5-0.6c0-0.2-0.1-0.4-0.3-0.5c-0.3-0.2-0.6-0.2-0.9-0.2c-0.4,0-0.9,0.1-1.3,0.2
				l-0.9,0.2c-1.5,0.5-3,0.3-4.4-0.4c-0.8-0.5-1.2-1-1.2-1.5c0-0.5,0.4-1,1.1-1.5c1.1-0.6,2.4-0.8,3.6-0.7l0.2,1.3
				c-0.7-0.1-1.5,0-2.1,0.3c-0.2,0.1-0.4,0.3-0.5,0.5c-0.1,0.2,0,0.4,0.3,0.5c0.3,0.1,0.6,0.2,0.9,0.2c0.5,0,0.9-0.1,1.4-0.2
				l0.9-0.2c1.5-0.4,3.1-0.3,4.4,0.5c0.8,0.5,1.2,1,1.2,1.5C-42.5-20-42.9-19.4-43.6-19z"/>
			<path id="Tracé_9683" class="st25" d="M-36.4-24.3c0,0.7-0.4,1.4-1.1,1.7c-0.9,0.5-1.9,0.7-2.9,0.6c-1.1,0-2.2-0.3-3.1-0.8
				c-0.8-0.3-1.3-1-1.5-1.8c-0.1-0.7,0.4-1.4,1.1-1.7c0.9-0.5,1.9-0.7,2.9-0.6c1.1,0,2.2,0.3,3.1,0.8
				C-37.1-25.8-36.5-25.1-36.4-24.3z M-39-23.5c0.3-0.1,0.5-0.5,0.5-0.8c-0.1-0.4-0.4-0.7-0.8-0.9c-0.5-0.3-1-0.4-1.6-0.5
				c-0.5,0-1,0-1.4,0.3c-0.4,0.2-0.6,0.5-0.5,0.8c0.1,0.4,0.4,0.7,0.8,0.9c0.5,0.3,1,0.4,1.6,0.5C-39.9-23.2-39.4-23.3-39-23.5
				L-39-23.5z"/>
			<path id="Tracé_9684" class="st25" d="M-33.7-24.9l-9.3-5.4l1.5-0.8l9.3,5.4L-33.7-24.9z"/>
			<path id="Tracé_9685" class="st25" d="M-28.7-27.6c-0.7,0.4-1.5,0.5-2.2,0.4c-0.9-0.1-1.8-0.4-2.5-0.8l-3.6-2.1l1.5-0.8l3.3,1.9
				c1,0.6,1.8,0.7,2.4,0.3c0.3-0.2,0.5-0.4,0.4-0.7c-0.2-0.4-0.6-0.7-1-0.9l-3-1.7l1.5-0.8l6.2,3.6l-1.5,0.8l-0.7-0.4
				C-27.8-28.5-28.1-28-28.7-27.6z"/>
			<path id="Tracé_9686" class="st25" d="M-21.8-31.7c-0.6,0.4-1.3,0.5-2.1,0.5c-0.8,0-1.6-0.2-2.2-0.6l-2.5-1.5l-1.1,0.6l-1.5-0.9
				l1.1-0.6l-1.7-1l1.5-0.9l1.7,1l1.5-0.9l1.5,0.9l-1.5,0.9l2.2,1.3c0.3,0.2,0.7,0.3,1,0.3c0.3,0,0.7-0.1,0.9-0.3
				c0.2-0.1,0.4-0.2,0.5-0.4l1.5,0.9C-21.2-32-21.5-31.8-21.8-31.7z"/>
			<path id="Tracé_9687" class="st25" d="M-26.4-37.5c-0.3,0.2-0.6,0.2-1,0.2c-0.4,0-0.7-0.1-1-0.3c-0.2-0.1-0.4-0.3-0.5-0.6
				c0-0.2,0.1-0.5,0.3-0.6c0.3-0.2,0.6-0.2,1-0.2c0.4,0,0.7,0.1,1,0.3c0.2,0.1,0.4,0.3,0.5,0.6C-26-37.8-26.2-37.5-26.4-37.5z
				 M-19.9-32.9l-6.2-3.6l1.5-0.9l6.2,3.6L-19.9-32.9z"/>
			<path id="Tracé_9688" class="st25" d="M-13.4-37.6c0,0.7-0.4,1.4-1.1,1.7c-0.9,0.5-1.9,0.7-2.9,0.6c-1.1,0-2.2-0.3-3.1-0.9
				c-0.8-0.3-1.3-1-1.5-1.8c0-0.7,0.4-1.4,1.1-1.7c0.9-0.5,1.9-0.7,2.9-0.6c1.1,0,2.2,0.3,3.1,0.8C-14.1-39.1-13.5-38.4-13.4-37.6z
				 M-16-36.8c0.3-0.1,0.5-0.5,0.5-0.8c-0.1-0.4-0.4-0.7-0.8-0.9c-0.5-0.3-1-0.4-1.6-0.5c-0.5,0-1,0-1.4,0.3
				c-0.4,0.2-0.6,0.5-0.5,0.8c0.1,0.4,0.4,0.7,0.8,0.9c0.5,0.3,1,0.4,1.6,0.5C-16.9-36.5-16.4-36.6-16-36.8L-16-36.8z"/>
			<path id="Tracé_9689" class="st25" d="M-10.7-38.2l-6.2-3.6l1.5-0.8l0.7,0.4c-0.2-0.5,0-1,0.7-1.4c0.7-0.4,1.5-0.5,2.3-0.4
				c0.9,0.1,1.7,0.4,2.5,0.8l3.6,2.1l-1.5,0.8l-3.3-1.9c-0.4-0.2-0.8-0.4-1.3-0.5c-0.4-0.1-0.7,0-1.1,0.2c-0.4,0.2-0.5,0.5-0.4,0.8
				s0.4,0.6,1,0.9l3,1.7L-10.7-38.2z"/>
			<path id="Tracé_9690" class="st25" d="M5.1-47.3l-1.3,0.8l-9.6-1.1l5.7,3.3l-1.6,0.9l-8.8-5.1l1.3-0.8l9.6,1.1l-5.7-3.3l1.6-0.9
				L5.1-47.3z"/>
			<path id="Tracé_9691" class="st25" d="M3-51.9c-0.5,0.3-1.1,0.4-1.7,0.4c-0.6,0-1.3-0.2-1.8-0.5c-0.4-0.2-0.8-0.6-0.9-1.1
				c0-0.4,0.2-0.8,0.6-1c0.5-0.3,1.1-0.4,1.7-0.3c0.6,0,1.3,0.2,1.8,0.5c0.4,0.2,0.8,0.6,0.9,1.1C3.6-52.5,3.4-52.1,3-51.9z
				 M1.8-52.5c0.2-0.1,0.3-0.2,0.2-0.4c0-0.2-0.2-0.3-0.4-0.4c-0.2-0.1-0.5-0.2-0.7-0.2c-0.2,0-0.5,0-0.7,0.1C0.1-53.4,0-53.2,0-53
				c0,0.2,0.2,0.3,0.4,0.4c0.2,0.1,0.5,0.2,0.7,0.2C1.4-52.4,1.6-52.4,1.8-52.5z"/>
			<path id="Tracé_9692" class="st25" d="M12-51.3l-7.1-4.1l-1.6,0.9l-0.6-1.6l2-1.2l8.8,5.1L12-51.3z"/>
			<path id="Tracé_9693" class="st25" d="M16.5-53.9l-1.7,1L11.1-59L7.6-57l-1.6-1l5.3-3.1l1.5,0.8L16.5-53.9z"/>
		</g>
		<g id="Groupe_4417" transform="translate(54.112 32.421)" class="st27">
			<path id="Tracé_9744-2" class="st25" d="M-31.5-16.8c-0.8,0.5-1.8,0.7-2.8,0.7c-1.1,0-2.1-0.2-3.1-0.8l1.5-0.8
				c0.4,0.2,0.9,0.3,1.4,0.3c0.5,0,0.9-0.1,1.3-0.4c0.3-0.2,0.5-0.4,0.5-0.7c0-0.2-0.1-0.5-0.5-0.7c-0.4-0.2-0.8-0.3-1.2-0.3
				c-0.4,0-0.9,0.1-1.2,0.4l-0.6,0.4l-1.4-0.8l0.6-0.3c0.4-0.2,0.5-0.4,0.5-0.6s-0.2-0.4-0.5-0.6c-0.3-0.2-0.7-0.3-1-0.3
				c-0.3,0-0.7,0.1-1,0.2c-0.3,0.2-0.5,0.4-0.5,0.7s0.2,0.5,0.6,0.7l-1.5,0.9c-0.9-0.5-1.3-1.1-1.3-1.7c0-0.7,0.4-1.3,1.1-1.5
				c0.8-0.4,1.7-0.7,2.5-0.6c0.9,0,1.7,0.2,2.5,0.7c0.3,0.2,0.6,0.5,0.9,0.8c0.2,0.2,0.2,0.5,0.2,0.8c0.5-0.1,1-0.1,1.5,0
				c0.5,0.1,1.1,0.3,1.5,0.5c0.8,0.4,1.2,1,1.2,1.5C-30.4-17.8-30.7-17.2-31.5-16.8z"/>
			<path id="Tracé_9745-2" class="st25" d="M-25.4-20.5l-9.3-5.4l1.5-0.8l9.3,5.4L-25.4-20.5z"/>
			<path id="Tracé_9746-2" class="st25" d="M-18.9-25.2c0,0.7-0.4,1.4-1.1,1.7c-0.9,0.5-1.9,0.7-2.9,0.6c-1.1,0-2.2-0.3-3.1-0.8
				c-0.8-0.3-1.3-1-1.5-1.8c0-0.7,0.4-1.4,1.1-1.7c0.9-0.5,1.9-0.7,2.9-0.6c1.1,0,2.2,0.3,3.1,0.8C-19.6-26.7-19-26-18.9-25.2z
				 M-21.5-24.4c0.3-0.1,0.5-0.5,0.5-0.8c-0.1-0.4-0.4-0.7-0.8-0.9c-0.5-0.3-1-0.4-1.6-0.5c-0.5,0-1,0.1-1.4,0.3
				c-0.4,0.2-0.6,0.5-0.5,0.8c0.1,0.4,0.4,0.7,0.8,0.9c0.5,0.3,1,0.4,1.6,0.5C-22.4-24.1-21.9-24.2-21.5-24.4L-21.5-24.4z"/>
			<path id="Tracé_9747-2" class="st25" d="M-13.6-27.2c-0.6,0.4-1.3,0.5-2.1,0.5c-0.8,0-1.6-0.2-2.2-0.6l-2.5-1.5l-1.1,0.6L-23-29
				l1.1-0.6l-1.7-1l1.5-0.8l1.7,1l1.5-0.9l1.5,0.9l-1.5,0.9l2.2,1.3c0.3,0.2,0.7,0.3,1,0.3c0.3,0,0.7-0.1,0.9-0.3
				c0.2-0.1,0.4-0.2,0.5-0.4l1.5,0.9C-13.1-27.6-13.3-27.4-13.6-27.2z"/>
			<path id="Tracé_9748-2" class="st25" d="M-9.8-29.4c-1,0.6-2.2,0.8-3.4,0.6l0-1.2c0.7,0.1,1.3,0,1.9-0.3
				c0.1-0.1,0.2-0.2,0.3-0.3c0-0.1,0-0.2-0.2-0.3c-0.1-0.1-0.3-0.1-0.5-0.1c-0.3,0-0.6,0.1-0.8,0.2l-0.5,0.2
				c-0.6,0.2-1.2,0.3-1.9,0.2c-0.6,0-1.1-0.2-1.6-0.5c-0.5-0.3-0.8-0.7-0.8-1.1c0.1-0.5,0.4-0.9,0.9-1.1c0.9-0.5,1.9-0.7,2.9-0.5
				l-0.1,1.1c-0.5-0.1-1,0-1.5,0.2c-0.1,0.1-0.2,0.2-0.3,0.3c0,0.1,0,0.2,0.1,0.3c0.3,0.1,0.7,0.1,1.1,0l0.7-0.2
				c1.1-0.4,2.4-0.4,3.5,0.2c0.6,0.3,0.9,0.7,0.9,1.2C-9-30-9.3-29.6-9.8-29.4z"/>
			<path id="Tracé_9749-2" class="st25" d="M-1.7-34c-0.9,0.5-1.9,0.7-2.9,0.6c-1.1,0-2.2-0.3-3.1-0.9c-0.8-0.3-1.3-1-1.5-1.8
				c0-0.7,0.4-1.4,1.1-1.7c0.6-0.3,1.3-0.5,2-0.6c0.8-0.1,1.6,0,2.3,0.2L-4.3-37c-0.4-0.1-0.8-0.1-1.2-0.1c-0.4,0-0.7,0.1-1,0.3
				c-0.3,0.1-0.5,0.5-0.5,0.8c0.1,0.4,0.4,0.7,0.8,0.9c0.5,0.3,1,0.4,1.6,0.5c0.5,0,1-0.1,1.4-0.3c0.2-0.1,0.4-0.3,0.5-0.6
				c0-0.3-0.1-0.5-0.2-0.7l2.1-0.3c0.3,0.4,0.4,0.9,0.3,1.3C-0.9-34.7-1.2-34.3-1.7-34z"/>
			<path id="Tracé_9750-2" class="st25" d="M1.6-36.1l-6.2-3.6l1.5-0.8l1,0.6c-0.2-0.2-0.3-0.5-0.3-0.7c0.1-0.3,0.3-0.5,0.5-0.6
				c0.2-0.1,0.4-0.2,0.6-0.2l1.7,1c-0.3,0.1-0.6,0.2-0.8,0.3c-0.4,0.2-0.5,0.4-0.4,0.7c0.2,0.4,0.5,0.7,0.9,0.9l3,1.7L1.6-36.1z"/>
			<path id="Tracé_9751-2" class="st25" d="M0.7-43.6l-1.2-2l1.7-1l0.6,2.4L0.7-43.6z M8.3-39.8c-0.9,0.5-1.9,0.7-2.9,0.7
				c-1.1,0-2.2-0.3-3.1-0.9c-0.8-0.3-1.3-1-1.5-1.8c0-0.7,0.4-1.4,1.1-1.7c0.8-0.4,1.7-0.7,2.7-0.6c1.3,0.1,2.5,0.5,3.6,1.2l-4,2.3
				c0.4,0.2,0.9,0.3,1.4,0.3c0.5,0,0.9-0.1,1.3-0.4c0.6-0.4,0.8-0.8,0.6-1.3l2-0.1C9.8-41.2,9.4-40.4,8.3-39.8L8.3-39.8z M3-41.3
				l2.5-1.4C5.1-42.9,4.7-43,4.2-43c-0.4,0-0.7,0.1-1,0.3c-0.3,0.1-0.5,0.4-0.6,0.6C2.6-41.8,2.7-41.5,3-41.3L3-41.3z"/>
			<path id="Tracé_9752-2" class="st25" d="M6.9-47.2l-1.2-2l1.7-1L8-47.8L6.9-47.2z M14.5-43.4c-0.9,0.5-1.9,0.7-2.9,0.7
				c-1.1,0-2.2-0.3-3.1-0.9c-0.8-0.3-1.3-1-1.5-1.8c-0.1-0.7,0.3-1.2,1.1-1.7c0.8-0.4,1.7-0.7,2.7-0.6c1.1,0,2.1,0.3,3,0.9
				c0.3,0.2,0.5,0.3,0.6,0.3l-4,2.3c0.4,0.2,0.9,0.3,1.4,0.3c0.5,0,0.9-0.1,1.3-0.4c0.6-0.4,0.8-0.8,0.6-1.2l2-0.1
				C16-44.8,15.6-44,14.5-43.4z M9.2-44.9l2.5-1.4c-0.4-0.2-0.8-0.2-1.2-0.2c-0.4,0-0.7,0.1-1,0.3c-0.3,0.1-0.5,0.4-0.6,0.6
				C8.8-45.4,8.9-45.1,9.2-44.9L9.2-44.9z"/>
			<path id="Tracé_9753-2" class="st25" d="M20-46.6c-1,0.6-2.2,0.8-3.4,0.6l0-1.2c0.7,0.1,1.3,0,1.9-0.3c0.1-0.1,0.2-0.2,0.3-0.3
				c0-0.1,0-0.2-0.2-0.3c-0.1-0.1-0.3-0.1-0.5-0.1c-0.3,0-0.6,0.1-0.8,0.2l-0.5,0.2c-0.6,0.2-1.2,0.3-1.9,0.2
				c-0.6,0-1.1-0.2-1.6-0.5c-0.5-0.3-0.8-0.7-0.8-1.1c0-0.4,0.3-0.8,0.9-1.1c0.9-0.5,1.9-0.7,2.9-0.5l-0.1,1.1c-0.5-0.1-1,0-1.5,0.2
				c-0.1,0.1-0.2,0.2-0.3,0.3c0,0.1,0,0.2,0.1,0.3c0.3,0.1,0.7,0.1,1.1,0l0.7-0.2c1.1-0.4,2.4-0.4,3.5,0.2c0.6,0.3,0.9,0.7,0.9,1.2
				C20.9-47.3,20.6-46.9,20-46.6z"/>
		</g>
		<g id="Groupe_4418" transform="translate(84.441 44.971)" class="st27">
			<path id="Tracé_9754" class="st31" d="M-43.8-25.3l-2.2-1.3l2.4-1.4l-2.8-1.6l1.9-1.1l2.8,1.6l2.4-1.4l2.2,1.3l-2.4,1.4l2.8,1.6
				l-1.9,1.1l-2.8-1.6L-43.8-25.3z"/>
			<path id="Tracé_9755" class="st31" d="M-26.3-33.4l2.5,1.4l-7.8,4.5l-0.9-0.5c-0.3-0.2-0.7-0.4-0.9-0.7
				c-0.2-0.2-0.5-0.4-0.6-0.6c-0.2-0.2-0.3-0.4-0.4-0.7c-0.1-0.3-0.2-0.5-0.2-0.7c0-0.2-0.1-0.5,0-0.7c0-0.3,0-0.5,0.1-0.7
				c0-0.1,0.1-0.4,0.1-0.7s0.1-0.5,0.1-0.7c0.2-1.3-0.1-2.1-0.9-2.6c-0.5-0.3-1.1-0.5-1.6-0.5c-0.6,0-1.1,0.1-1.6,0.4
				c-0.5,0.3-0.7,0.6-0.7,1c0.1,0.5,0.4,0.9,0.9,1l-2.2,1.3c-1.3-0.7-2-1.6-2-2.5c-0.1-0.9,0.5-1.7,1.6-2.4c1.1-0.6,2.4-0.9,3.7-0.9
				c1.4,0,2.8,0.4,4.1,1.1c0.8,0.4,1.5,1,2,1.8c0.3,0.7,0.4,1.5,0.2,2.2c0,0.1-0.1,0.3-0.1,0.6c-0.1,0.3-0.1,0.6-0.1,0.7
				c0,0.2,0,0.4,0,0.6c0,0.2,0.1,0.4,0.2,0.6L-26.3-33.4z"/>
			<path id="Tracé_9756" class="st31" d="M-16.4-37.4c0,0.9-0.5,1.7-1.7,2.4c-1.3,0.7-2.7,1-4.1,1c-1.5,0-2.9-0.4-4.2-1.1
				c-1.4-0.8-2-1.7-1.7-2.7c-1.3,0-2.5-0.3-3.6-1c-1-0.6-1.5-1.3-1.6-2c0-0.8,0.5-1.5,1.6-2.1c2.2-1.2,4.9-1.2,7.1,0
				c1.1,0.6,1.6,1.3,1.6,2.1c1.6-0.2,3.2,0.2,4.6,1C-17-39.1-16.4-38.3-16.4-37.4z M-27.8-39.5c0.5,0,1-0.1,1.5-0.3
				c0.3-0.1,0.6-0.5,0.6-0.8c-0.1-0.4-0.3-0.7-0.7-0.9c-0.5-0.3-1-0.4-1.5-0.4c-0.5,0-1,0.1-1.5,0.3c-0.3,0.1-0.6,0.5-0.6,0.8
				c0.1,0.4,0.3,0.7,0.7,0.9C-28.8-39.6-28.3-39.5-27.8-39.5L-27.8-39.5z M-20.4-36.4c0.5-0.3,0.8-0.7,0.7-1.1
				c-0.1-0.5-0.4-0.9-0.9-1.1c-0.6-0.3-1.2-0.5-1.9-0.5c-0.6,0-1.3,0.1-1.9,0.4c-0.5,0.3-0.8,0.7-0.7,1.1c0.1,0.5,0.4,0.9,0.9,1.1
				c0.6,0.3,1.2,0.5,1.9,0.5C-21.6-35.9-21-36.1-20.4-36.4L-20.4-36.4z"/>
			<path id="Tracé_9757" class="st31" d="M-15.9-43.4c-1,0.5-2.2,0.8-3.3,0.7c-1.2,0-2.4-0.4-3.5-1c-0.8-0.4-1.5-1.1-1.7-2
				c-0.1-0.8,0.4-1.6,1.2-1.9c1-0.5,2.2-0.8,3.3-0.7c1.2,0,2.4,0.4,3.5,1c0.8,0.4,1.5,1.1,1.7,2C-14.7-44.5-15.2-43.7-15.9-43.4z
				 M-19.4-44.4c0.5,0,0.9,0,1.4-0.3c0.3-0.1,0.5-0.4,0.5-0.8c-0.1-0.4-0.3-0.7-0.7-0.8c-0.4-0.2-0.9-0.4-1.4-0.4
				c-0.5,0-0.9,0-1.4,0.3c-0.3,0.1-0.5,0.4-0.5,0.8c0.1,0.4,0.3,0.7,0.7,0.8C-20.4-44.5-19.9-44.4-19.4-44.4z M-8.1-41l-2.3,1.3
				l-5.9-11.8l2.3-1.3L-8.1-41z M-1.2-44.8c-1,0.5-2.2,0.8-3.3,0.7c-1.2,0-2.4-0.4-3.5-1c-0.8-0.4-1.5-1.1-1.7-2
				c-0.1-0.8,0.4-1.6,1.2-1.9c1-0.5,2.2-0.8,3.3-0.7c1.2,0,2.4,0.4,3.5,1c0.8,0.4,1.5,1.1,1.6,2C0-45.9-0.5-45.1-1.2-44.8L-1.2-44.8
				z M-4.7-45.8c0.5,0,0.9,0,1.4-0.3c0.3-0.1,0.5-0.4,0.5-0.8c-0.1-0.4-0.3-0.7-0.7-0.8C-4.1-47.9-4.5-48-5-48c-0.5,0-0.9,0-1.3,0.3
				c-0.3,0.1-0.5,0.4-0.5,0.8c0.1,0.4,0.3,0.7,0.7,0.8C-5.7-45.9-5.2-45.8-4.7-45.8L-4.7-45.8z"/>
		</g>
		<g id="Groupe_4527" transform="translate(84.267 46.364)" class="st27">
			<path id="Tracé_9900" class="st31" d="M-33.5-4.6l-2.9-1.7L-41.9-3l-2.3-1.3l-2.2-8l2.2-1.3l7.7,4.5L-35-10l2.6,1.5l-1.5,0.8
				L-31-6L-33.5-4.6z M-41.5-6.2l2.6-1.5l-3.6-2.1L-41.5-6.2z"/>
			<path id="Tracé_9901" class="st31" d="M-23.3-13.7l2.8,1.6l-7.9,4.5l-0.9-0.5c-0.3-0.2-0.7-0.4-1-0.7c-0.2-0.2-0.5-0.4-0.7-0.6
				c-0.2-0.2-0.3-0.4-0.4-0.7c-0.1-0.3-0.2-0.5-0.2-0.7c0-0.2-0.1-0.5,0-0.7c0-0.3,0-0.5,0.1-0.7c0-0.1,0.1-0.4,0.1-0.7
				c0.1-0.3,0.1-0.5,0.1-0.7c0.2-1.2-0.1-2-0.8-2.4c-0.4-0.3-0.9-0.4-1.5-0.4c-0.5,0-1,0.1-1.4,0.3c-0.5,0.3-0.7,0.6-0.6,0.9
				c0.1,0.4,0.4,0.8,0.7,0.9l-2.4,1.4c-1.3-0.7-2-1.6-2-2.5c-0.1-0.9,0.5-1.7,1.7-2.4c1.1-0.6,2.4-0.9,3.7-0.9
				c1.4,0,2.9,0.4,4.1,1.1c0.6,0.3,1.2,0.8,1.7,1.4c0.3,0.4,0.5,0.8,0.6,1.3c0.1,0.5,0.1,0.9,0,1.4c0,0-0.1,0.2-0.2,0.6
				c-0.1,0.3-0.1,0.6-0.2,1c0,0.2,0,0.4,0.1,0.6L-23.3-13.7z"/>
			<path id="Tracé_9902" class="st31" d="M-14-19l2.8,1.6l-7.9,4.5l-0.9-0.5c-0.3-0.2-0.7-0.4-1-0.7c-0.2-0.2-0.5-0.4-0.7-0.6
				c-0.2-0.2-0.3-0.4-0.4-0.7c-0.1-0.3-0.2-0.5-0.2-0.7c0-0.2-0.1-0.5,0-0.7c0-0.3,0-0.5,0.1-0.7s0.1-0.4,0.1-0.7
				c0.1-0.3,0.1-0.5,0.1-0.7c0.2-1.2-0.1-2-0.8-2.4c-0.4-0.3-0.9-0.4-1.5-0.4c-0.5,0-1,0.1-1.4,0.3c-0.5,0.3-0.7,0.6-0.6,0.9
				c0.1,0.4,0.4,0.8,0.7,0.9l-2.4,1.4c-1.3-0.7-2-1.6-2-2.5c-0.1-0.9,0.5-1.7,1.7-2.4c1.1-0.6,2.4-0.9,3.7-0.9
				c1.4,0,2.9,0.4,4.1,1.1c0.6,0.3,1.2,0.8,1.7,1.4c0.3,0.4,0.5,0.8,0.6,1.3c0.1,0.5,0.1,0.9,0,1.4c0,0-0.1,0.2-0.2,0.6
				c-0.1,0.3-0.1,0.6-0.2,1c0,0.2,0,0.4,0.1,0.6L-14-19z"/>
			<path id="Tracé_9903" class="st31" d="M-1.6-22.8c-1.4,0.8-3,1.1-4.6,0.9c-1.8-0.1-3.5-0.6-5-1.5l-3.1-1.8
				c-1.5-0.9-2.4-1.8-2.6-2.9c-0.2-1,0.4-1.9,1.6-2.7c1.4-0.8,3-1.1,4.6-0.9c1.8,0.1,3.5,0.6,5,1.5l3.1,1.8c1.5,0.9,2.4,1.8,2.6,2.9
				C0.2-24.4-0.3-23.5-1.6-22.8z M-4.4-24.4c0.6-0.3,0.8-0.7,0.7-1.2C-3.8-26-4.2-26.4-5-26.9L-8-28.7c-0.7-0.4-1.5-0.7-2.3-0.8
				c-0.7-0.1-1.4,0.1-2,0.4c-0.6,0.3-0.8,0.7-0.7,1.2c0.1,0.5,0.5,0.9,1.3,1.4l3.1,1.8C-8-24.3-7.2-24-6.4-24
				C-5.7-23.9-5-24-4.4-24.4L-4.4-24.4z"/>
			<path id="Tracé_9904" class="st31" d="M8.5-28.6c-1.4,0.8-3,1.1-4.6,0.9c-1.8-0.1-3.5-0.6-5-1.5l-3.1-1.8
				c-1.5-0.9-2.4-1.8-2.6-2.9c-0.2-1,0.4-1.9,1.6-2.7c1.4-0.8,3-1.1,4.6-0.9c1.8,0.1,3.5,0.6,5,1.5l3.1,1.8c1.5,0.9,2.4,1.8,2.6,2.9
				C10.3-30.2,9.8-29.4,8.5-28.6z M5.8-30.2c0.6-0.3,0.8-0.7,0.7-1.2c-0.1-0.5-0.5-0.9-1.3-1.4l-3.1-1.8c-0.7-0.4-1.5-0.7-2.3-0.8
				c-0.7-0.1-1.4,0.1-2,0.4c-0.6,0.3-0.8,0.7-0.7,1.2c0.1,0.5,0.5,0.9,1.3,1.4l3.1,1.8c0.7,0.4,1.5,0.7,2.3,0.8
				C4.5-29.7,5.2-29.9,5.8-30.2L5.8-30.2z"/>
			<path id="Tracé_9905" class="st31" d="M18.7-34.5c-1.4,0.8-3,1.1-4.6,0.9c-1.8-0.1-3.5-0.6-5-1.5l-3.1-1.8
				c-1.5-0.9-2.4-1.8-2.6-2.9c-0.2-1,0.4-1.9,1.6-2.7c1.4-0.8,3-1.1,4.6-0.9c1.8,0.1,3.5,0.6,5,1.5l3.1,1.8c1.5,0.9,2.4,1.8,2.6,2.9
				C20.5-36.1,20-35.2,18.7-34.5z M15.9-36.1c0.6-0.3,0.8-0.7,0.7-1.2c-0.1-0.5-0.5-0.9-1.3-1.4l-3.1-1.8c-0.7-0.4-1.5-0.7-2.3-0.8
				c-0.7-0.1-1.4,0.1-2,0.4c-0.6,0.3-0.8,0.7-0.7,1.2c0.1,0.5,0.5,0.9,1.3,1.4l3.1,1.8c0.7,0.4,1.5,0.7,2.3,0.8
				C14.6-35.6,15.3-35.7,15.9-36.1L15.9-36.1z"/>
			<path id="Tracé_9906" class="st31" d="M21.6-44.7L20.4-44l-0.7-0.8l1-0.6c-1.1-0.8-1.7-2-1.6-3.3c0.1-1.2,0.9-2.1,2.3-3
				c1.3-0.7,2.8-1.2,4.3-1.3c1.7-0.1,3.5,0.1,5.1,0.5L28-50.8c-1.3-0.2-2.7,0-3.9,0.7c-0.6,0.3-1.1,0.8-1.3,1.5
				c-0.1,0.6,0,1.2,0.5,1.7l5.4-3.1l0.8,0.8L24-46.1c0.2,0.2,0.4,0.3,0.6,0.4c0.2,0.1,0.4,0.2,0.6,0.3l5.1-2.9l0.8,0.8l-4.5,2.6
				c1,0.3,2,0.4,3,0.3c0.9-0.1,1.8-0.3,2.6-0.8c1.1-0.6,1.5-1.4,1.2-2.2l2.8-1.6c0.8,0.8,1.1,1.9,1,3c-0.3,1.1-1.1,2-2.2,2.5
				c-1.6,0.9-3.3,1.3-5.1,1.3c-2,0.1-3.9-0.3-5.8-1l-1.3,0.8L22-43.5l0.9-0.5c-0.1-0.1-0.4-0.2-0.6-0.3S21.7-44.6,21.6-44.7z"/>
		</g>
	</g>
	<g id="Groupe_4420" transform="translate(459.019 2485.779)" class="st27">
		<path id="Tracé_9598" class="st32" d="M85.2,100.7L-33.4,32.3L85.2-36.2l118.5,68.4L85.2,100.7z"/>
		<g id="Groupe_4411" transform="translate(132.55 101.447)" class="st33">
			<path id="Tracé_9694" class="st25" d="M-43.6-12.6c-0.6,0.4-1.3,0.6-2,0.7c-0.8,0.1-1.5,0.1-2.3,0l0-1.4c0.5,0.1,1,0.1,1.5,0
				c0.4,0,0.8-0.2,1.2-0.4c0.3-0.2,0.5-0.4,0.5-0.6c0-0.2-0.1-0.4-0.3-0.5c-0.3-0.1-0.6-0.2-0.9-0.2c-0.4,0-0.9,0.1-1.3,0.2
				l-0.9,0.2c-1.5,0.5-3,0.3-4.4-0.4c-0.8-0.5-1.2-1-1.2-1.5s0.4-1,1.1-1.5c1.1-0.6,2.4-0.8,3.6-0.7l0.2,1.3c-0.7-0.1-1.5,0-2.1,0.4
				c-0.2,0.1-0.4,0.3-0.5,0.5c-0.1,0.2,0,0.4,0.3,0.5c0.3,0.1,0.6,0.2,0.9,0.2c0.5,0,0.9-0.1,1.4-0.2l0.9-0.2
				c1.5-0.4,3.1-0.3,4.4,0.5c0.8,0.5,1.2,1,1.2,1.5C-42.5-13.6-42.9-13.1-43.6-12.6z"/>
			<path id="Tracé_9695" class="st25" d="M-36.4-17.9c0,0.7-0.4,1.4-1.1,1.7c-0.9,0.5-1.9,0.7-2.9,0.6c-1.1,0-2.2-0.3-3.1-0.8
				c-0.8-0.3-1.3-1-1.5-1.8c0-0.7,0.4-1.4,1.1-1.7c0.9-0.5,1.9-0.7,2.9-0.6c1.1,0,2.2,0.3,3.1,0.8C-37.1-19.4-36.5-18.7-36.4-17.9z
				 M-39-17.1c0.3-0.1,0.5-0.5,0.5-0.8c-0.1-0.4-0.4-0.7-0.8-0.9c-0.5-0.3-1-0.4-1.6-0.5c-0.5,0-1,0-1.4,0.3
				c-0.4,0.2-0.6,0.5-0.5,0.8c0.1,0.4,0.4,0.7,0.8,0.9c0.5,0.3,1,0.4,1.6,0.5C-39.9-16.8-39.4-16.9-39-17.1L-39-17.1z"/>
			<path id="Tracé_9696" class="st25" d="M-33.7-18.5l-9.3-5.4l1.5-0.8l9.3,5.4L-33.7-18.5z"/>
			<path id="Tracé_9697" class="st25" d="M-28.7-21.3c-0.7,0.4-1.5,0.5-2.2,0.4c-0.9-0.1-1.8-0.4-2.5-0.8l-3.6-2.1l1.5-0.8l3.3,1.9
				c1,0.6,1.8,0.7,2.4,0.3c0.3-0.2,0.5-0.4,0.4-0.7c-0.2-0.4-0.6-0.7-1-0.9l-3-1.7l1.5-0.8l6.2,3.6l-1.5,0.8l-0.7-0.4
				C-27.8-22.1-28.1-21.6-28.7-21.3z"/>
			<path id="Tracé_9698" class="st25" d="M-21.8-25.3c-0.6,0.4-1.3,0.5-2.1,0.5c-0.8,0-1.6-0.2-2.2-0.6l-2.5-1.5l-1.1,0.6l-1.5-0.9
				l1.1-0.6l-1.7-1l1.5-0.8l1.7,1l1.5-0.9l1.5,0.9l-1.5,0.9l2.2,1.3c0.3,0.2,0.7,0.3,1,0.3c0.3,0,0.7-0.1,0.9-0.3
				c0.2-0.1,0.4-0.2,0.5-0.4l1.5,0.9C-21.3-25.7-21.5-25.5-21.8-25.3z"/>
			<path id="Tracé_9699" class="st25" d="M-26.4-31.1c-0.3,0.2-0.6,0.2-1,0.2c-0.4,0-0.7-0.1-1-0.3c-0.2-0.1-0.4-0.3-0.5-0.6
				c0-0.2,0.1-0.5,0.3-0.6c0.3-0.2,0.6-0.2,1-0.2c0.4,0,0.7,0.1,1,0.3c0.2,0.1,0.4,0.3,0.5,0.6C-26-31.4-26.2-31.2-26.4-31.1z
				 M-19.9-26.5l-6.2-3.6l1.5-0.9l6.2,3.6L-19.9-26.5z"/>
			<path id="Tracé_9700" class="st25" d="M-13.4-31.2c0,0.7-0.4,1.4-1.1,1.7c-0.9,0.5-1.9,0.7-2.9,0.6c-1.1,0-2.2-0.3-3.1-0.9
				c-0.7-0.3-1.3-1-1.5-1.8c0-0.7,0.4-1.4,1.1-1.7c0.9-0.5,1.9-0.7,2.9-0.6c1.1,0,2.2,0.3,3.1,0.8C-14.1-32.7-13.5-32-13.4-31.2z
				 M-16-30.4c0.3-0.1,0.5-0.5,0.5-0.8c-0.1-0.4-0.4-0.7-0.8-0.9c-0.5-0.3-1-0.4-1.6-0.5c-0.5,0-1,0-1.4,0.3
				c-0.4,0.2-0.5,0.5-0.5,0.8c0.1,0.4,0.4,0.7,0.8,0.9c0.5,0.3,1,0.4,1.6,0.5C-16.9-30.1-16.4-30.2-16-30.4L-16-30.4z"/>
			<path id="Tracé_9701" class="st25" d="M-10.7-31.8l-6.2-3.6l1.5-0.8l0.7,0.4c-0.2-0.5,0-1,0.7-1.4c0.7-0.4,1.5-0.5,2.3-0.4
				c0.9,0.1,1.7,0.4,2.5,0.8l3.6,2.1l-1.5,0.8l-3.3-1.9c-0.4-0.2-0.8-0.4-1.3-0.5c-0.4-0.1-0.7,0-1.1,0.2c-0.4,0.2-0.5,0.5-0.4,0.8
				c0.1,0.3,0.4,0.6,1,0.9l3,1.7L-10.7-31.8z"/>
			<path id="Tracé_9702" class="st25" d="M5.1-41l-1.3,0.8l-9.6-1.1l5.7,3.3L-1.7-37l-8.8-5.1l1.3-0.8l9.6,1.1l-5.7-3.3l1.6-0.9
				L5.1-41z"/>
			<path id="Tracé_9703" class="st25" d="M3-45.5c-0.5,0.3-1.1,0.4-1.7,0.4c-0.6,0-1.3-0.2-1.8-0.5c-0.4-0.2-0.8-0.6-0.9-1.1
				c0-0.4,0.2-0.8,0.6-1c0.5-0.3,1.1-0.4,1.7-0.3c0.6,0,1.3,0.2,1.8,0.5c0.4,0.2,0.8,0.6,0.9,1.1C3.6-46.1,3.4-45.7,3-45.5z
				 M1.8-46.2c0.2-0.1,0.3-0.2,0.2-0.4c0-0.2-0.2-0.3-0.4-0.4c-0.2-0.1-0.5-0.2-0.7-0.2c-0.2,0-0.5,0-0.7,0.1C0.1-47,0-46.8,0-46.6
				c0,0.2,0.2,0.3,0.4,0.4C0.6-46.1,0.9-46,1.1-46C1.4-46,1.6-46,1.8-46.2L1.8-46.2z"/>
			<path id="Tracé_9704" class="st25" d="M13.2-45.4c-0.8,0.4-1.7,0.7-2.6,0.6c-1,0-1.9-0.2-2.8-0.6l1.5-0.9
				c0.4,0.1,0.8,0.2,1.2,0.2c0.4,0,0.7-0.1,1.1-0.3c0.4-0.2,0.5-0.5,0.5-0.7c-0.1-0.3-0.3-0.6-0.7-0.7c-0.4-0.2-0.8-0.4-1.3-0.4
				c-0.4,0-0.9,0.1-1.2,0.3c-0.2,0.1-0.4,0.3-0.5,0.6c0,0.2,0.1,0.5,0.2,0.6l-1.8,0.5l-4.1-3.4l3.7-2.1l1.6,1l-2.6,1.5l1.4,1.1
				c0.1-0.3,0.4-0.6,0.8-0.8c0.8-0.4,1.7-0.6,2.6-0.5c1,0.1,2,0.4,2.8,0.9c0.9,0.5,1.3,1.1,1.4,1.6C14.3-46.4,14-45.9,13.2-45.4z"/>
		</g>
		<g id="Groupe_4415" transform="translate(54.112 32.421)" class="st33">
			<path id="Tracé_9730" class="st25" d="M-30.8-9.7l1.7,1l-5.2,3L-34.9-6c-0.2-0.1-0.4-0.3-0.6-0.4c-0.2-0.1-0.3-0.3-0.4-0.4
				c-0.1-0.1-0.2-0.3-0.3-0.5c-0.1-0.2-0.1-0.3-0.1-0.4c0-0.2,0-0.3,0-0.5c0-0.2,0-0.3,0-0.4c0-0.1,0-0.3,0.1-0.5
				c0-0.2,0.1-0.4,0.1-0.4c0.2-0.6,0-1.4-0.6-1.7c-0.3-0.2-0.7-0.3-1.1-0.3c-0.4,0-0.7,0.1-1.1,0.2c-0.3,0.2-0.5,0.4-0.5,0.7
				c0,0.3,0.2,0.5,0.6,0.7l-1.5,0.9c-0.9-0.5-1.3-1-1.3-1.6s0.3-1.1,1.1-1.6c0.8-0.4,1.6-0.6,2.5-0.6c1,0,1.9,0.3,2.7,0.7
				c0.6,0.3,1,0.7,1.3,1.2c0.2,0.5,0.2,1,0.2,1.5c0,0.1,0,0.2-0.1,0.4c0,0.2-0.1,0.4-0.1,0.5c0,0.1,0,0.3,0,0.4
				c0,0.1,0.1,0.3,0.2,0.4L-30.8-9.7z"/>
			<path id="Tracé_9731" class="st25" d="M-25.5-10.8l-9.3-5.4l1.5-0.8l9.3,5.4L-25.5-10.8z"/>
			<path id="Tracé_9732" class="st25" d="M-18.9-15.5c0,0.7-0.4,1.4-1.1,1.7c-0.9,0.5-1.9,0.7-2.9,0.6c-1.1,0-2.2-0.3-3.1-0.8
				c-0.8-0.3-1.3-1-1.5-1.8c0-0.7,0.4-1.4,1.1-1.7c0.9-0.5,1.9-0.7,2.9-0.6c1.1,0,2.2,0.3,3.1,0.8C-19.7-17-19.1-16.3-18.9-15.5z
				 M-21.6-14.7c0.3-0.1,0.5-0.5,0.5-0.8c-0.1-0.4-0.4-0.7-0.8-0.9c-0.5-0.3-1-0.4-1.6-0.5c-0.5,0-1,0-1.4,0.3
				c-0.4,0.2-0.6,0.5-0.5,0.8c0.1,0.4,0.4,0.7,0.8,0.9c0.5,0.3,1,0.4,1.6,0.5C-22.5-14.4-22-14.5-21.6-14.7L-21.6-14.7z"/>
			<path id="Tracé_9733" class="st25" d="M-13.7-17.5c-0.6,0.4-1.3,0.5-2.1,0.5c-0.8,0-1.6-0.2-2.2-0.6l-2.5-1.5l-1.1,0.6l-1.5-0.9
				L-22-20l-1.7-1l1.5-0.8l1.7,1l1.5-0.9l1.5,0.9l-1.5,0.9l2.2,1.3c0.3,0.2,0.7,0.3,1,0.3c0.3,0,0.7-0.1,0.9-0.3
				c0.2-0.1,0.4-0.2,0.5-0.4l1.5,0.9C-13.1-17.9-13.4-17.7-13.7-17.5z"/>
			<path id="Tracé_9734" class="st25" d="M-9.9-19.7c-1,0.6-2.2,0.8-3.4,0.6l0-1.2c0.7,0.1,1.3,0,1.9-0.3c0.1-0.1,0.2-0.2,0.3-0.3
				c0-0.1,0-0.2-0.2-0.3c-0.1-0.1-0.3-0.1-0.5-0.1c-0.3,0-0.6,0.1-0.8,0.2l-0.5,0.2c-0.6,0.2-1.2,0.3-1.9,0.2
				c-0.6,0-1.1-0.2-1.6-0.5c-0.5-0.3-0.8-0.7-0.8-1.1c0-0.4,0.3-0.8,0.9-1.1c0.9-0.5,1.9-0.7,2.9-0.5l-0.1,1.1c-0.5-0.1-1,0-1.5,0.2
				c-0.1,0.1-0.2,0.2-0.3,0.3c0,0.1,0,0.2,0.1,0.3c0.3,0.1,0.7,0.1,1.1,0l0.7-0.2c1.1-0.4,2.4-0.4,3.5,0.2c0.6,0.3,0.9,0.7,0.9,1.2
				C-9-20.4-9.3-20-9.9-19.7z"/>
			<path id="Tracé_9735" class="st25" d="M-1.8-24.3c-0.9,0.5-1.9,0.7-2.9,0.6c-1.1,0-2.2-0.3-3.1-0.9c-0.8-0.3-1.3-1-1.5-1.8
				c0-0.7,0.4-1.4,1.1-1.7c0.6-0.3,1.3-0.5,2-0.6c0.8-0.1,1.6,0,2.3,0.1l-0.5,1.2c-0.4-0.1-0.8-0.1-1.2-0.1c-0.4,0-0.7,0.1-1,0.3
				C-7-27-7.2-26.7-7.2-26.3c0.1,0.4,0.4,0.7,0.8,0.9c0.5,0.3,1,0.4,1.6,0.5c0.5,0,1-0.1,1.4-0.3c0.2-0.1,0.4-0.3,0.5-0.6
				c0-0.3,0-0.5-0.2-0.7l2.1-0.3c0.3,0.4,0.4,0.9,0.3,1.3C-1-25-1.3-24.6-1.8-24.3z"/>
			<path id="Tracé_9736" class="st25" d="M1.5-26.4L-4.6-30l1.5-0.8l1,0.6c-0.2-0.2-0.3-0.5-0.3-0.7c0.1-0.3,0.3-0.5,0.5-0.6
				c0.2-0.1,0.4-0.2,0.6-0.2l1.7,1c-0.3,0.1-0.5,0.2-0.8,0.3c-0.4,0.2-0.5,0.4-0.4,0.7s0.4,0.6,0.9,0.9l3,1.7L1.5-26.4z"/>
			<path id="Tracé_9737" class="st25" d="M0.7-33.9l-1.2-2l1.7-1l0.6,2.4L0.7-33.9z M8.2-30.1c-0.9,0.5-1.9,0.7-2.9,0.7
				c-1.1,0-2.2-0.3-3.1-0.9c-0.8-0.3-1.3-1-1.5-1.8c-0.1-0.7,0.3-1.2,1.1-1.7c0.8-0.4,1.7-0.7,2.7-0.6c1.1,0,2.1,0.3,3,0.9
				c0.3,0.2,0.5,0.3,0.6,0.3L4-31c0.4,0.2,0.9,0.3,1.4,0.3c0.5,0,0.9-0.1,1.3-0.4c0.6-0.4,0.8-0.8,0.6-1.2l2-0.1
				C9.7-31.5,9.3-30.8,8.2-30.1z M2.9-31.7l2.5-1.4c-0.4-0.2-0.8-0.2-1.2-0.2c-0.4,0-0.7,0.1-1,0.3c-0.3,0.1-0.5,0.4-0.6,0.6
				C2.5-32.1,2.6-31.8,2.9-31.7L2.9-31.7z"/>
			<path id="Tracé_9738" class="st25" d="M6.9-37.5l-1.2-2l1.7-1l0.6,2.4L6.9-37.5z M14.4-33.7c-0.9,0.5-1.9,0.7-2.9,0.7
				c-1.1,0-2.2-0.3-3.1-0.9c-0.8-0.3-1.3-1-1.5-1.8c-0.1-0.7,0.3-1.2,1.1-1.7c0.8-0.4,1.7-0.7,2.7-0.6c1.3,0.1,2.5,0.5,3.6,1.2
				l-4,2.3c0.4,0.2,0.9,0.3,1.4,0.3c0.5,0,0.9-0.1,1.3-0.4c0.6-0.4,0.8-0.8,0.6-1.2l2-0.1C15.9-35.1,15.5-34.4,14.4-33.7L14.4-33.7z
				 M9.1-35.2l2.5-1.4c-0.4-0.2-0.8-0.2-1.2-0.2c-0.4,0-0.7,0.1-1,0.3C9-36.5,8.8-36.2,8.7-36C8.7-35.7,8.8-35.5,9.1-35.2L9.1-35.2z
				"/>
			<path id="Tracé_9739" class="st25" d="M19.9-36.9c-1,0.6-2.2,0.8-3.4,0.6l0-1.2c0.7,0.1,1.3,0,1.9-0.3c0.1-0.1,0.2-0.2,0.3-0.3
				c0-0.1,0-0.2-0.2-0.3c-0.1-0.1-0.3-0.1-0.5-0.1c-0.3,0-0.6,0.1-0.8,0.2l-0.5,0.2c-0.6,0.2-1.2,0.3-1.9,0.2
				c-0.6,0-1.1-0.2-1.6-0.5c-0.5-0.3-0.8-0.7-0.8-1.1c0-0.4,0.3-0.8,0.9-1.1c0.9-0.5,1.9-0.7,2.9-0.5L16.3-40c-0.5-0.1-1,0-1.5,0.2
				c-0.1,0.1-0.2,0.2-0.3,0.3c0,0.1,0,0.2,0.1,0.3c0.3,0.1,0.7,0.1,1.1,0l0.7-0.2c1.1-0.4,2.4-0.4,3.5,0.2c0.6,0.3,0.9,0.7,0.9,1.2
				C20.8-37.5,20.4-37.1,19.9-36.9z"/>
		</g>
		<g id="Groupe_4416" transform="translate(83.395 46.017)" class="st34">
			<path id="Tracé_9740" class="st35" d="M-43.6-15.9l-2.2-1.3l2.4-1.4l-2.8-1.6l1.9-1.1l2.8,1.6l2.4-1.4l2.2,1.3l-2.4,1.4l2.8,1.6
				l-1.9,1.1l-2.8-1.6L-43.6-15.9z"/>
			<path id="Tracé_9741" class="st35" d="M-26.1-24l2.5,1.4l-7.8,4.5l-0.9-0.5c-0.3-0.2-0.7-0.4-0.9-0.7c-0.2-0.2-0.5-0.4-0.7-0.6
				c-0.2-0.2-0.3-0.4-0.4-0.7c-0.1-0.2-0.1-0.4-0.2-0.7c-0.1-0.2-0.1-0.5,0-0.7c0-0.3,0-0.5,0.1-0.7c0-0.2,0.1-0.4,0.1-0.7
				c0.1-0.3,0.1-0.5,0.1-0.7c0.2-1.3-0.1-2.1-0.9-2.6c-0.5-0.3-1.1-0.4-1.6-0.5c-0.6,0-1.1,0.1-1.6,0.4c-0.5,0.3-0.7,0.6-0.7,1
				c0,0.4,0.3,0.7,0.9,1l-2.2,1.3c-1.3-0.7-2-1.6-2-2.5c-0.1-0.9,0.5-1.7,1.6-2.3c1.1-0.6,2.4-0.9,3.7-0.9c1.4,0,2.8,0.4,4.1,1.1
				c0.8,0.4,1.5,1,2,1.8c0.3,0.7,0.4,1.5,0.2,2.2c0,0.1-0.1,0.3-0.1,0.6c-0.1,0.3-0.1,0.6-0.1,0.7c0,0.2,0,0.4,0,0.6
				c0,0.2,0.1,0.4,0.2,0.6L-26.1-24z"/>
			<path id="Tracé_9742" class="st35" d="M-18-25.5c-1.2,0.7-2.6,1-4,1c-1.4,0-2.9-0.3-4.1-0.9l2.3-1.3c0.6,0.2,1.1,0.3,1.7,0.3
				c0.6,0,1.1-0.1,1.6-0.4c0.6-0.3,0.8-0.7,0.7-1.1c-0.1-0.5-0.5-0.9-1-1.1c-0.6-0.3-1.3-0.5-2-0.6c-0.6,0-1.3,0.1-1.8,0.4
				c-0.4,0.2-0.6,0.5-0.8,0.9c-0.1,0.4,0.1,0.7,0.3,1l-2.6,0.7l-6.2-5.1l5.6-3.2l2.5,1.4l-3.9,2.2l2,1.7c0.2-0.5,0.6-0.9,1.1-1.2
				c1.2-0.6,2.5-0.9,3.8-0.8c1.5,0.1,3,0.6,4.3,1.3c1.3,0.8,2,1.6,2.1,2.5C-16.3-27-16.8-26.2-18-25.5z"/>
			<path id="Tracé_9743" class="st35" d="M-16-33.9c-1,0.5-2.2,0.8-3.3,0.7c-1.2,0-2.4-0.4-3.5-1c-0.8-0.4-1.5-1.1-1.7-2
				c-0.1-0.8,0.4-1.6,1.2-1.9c1-0.5,2.2-0.8,3.3-0.7c1.2,0,2.4,0.4,3.5,1c0.8,0.4,1.5,1.1,1.6,2C-14.8-35-15.2-34.2-16-33.9z
				 M-19.5-34.9c0.5,0,0.9-0.1,1.3-0.3c0.3-0.1,0.5-0.4,0.5-0.8c-0.1-0.4-0.3-0.7-0.7-0.8c-0.4-0.2-0.9-0.4-1.4-0.4
				c-0.5,0-0.9,0-1.4,0.3c-0.3,0.1-0.5,0.4-0.5,0.8c0.1,0.4,0.3,0.7,0.7,0.8C-20.5-35-20-34.9-19.5-34.9L-19.5-34.9z M-8.2-31.5
				l-2.3,1.3l-6-11.8l2.3-1.3L-8.2-31.5z M-1.3-35.3c-1,0.5-2.2,0.8-3.3,0.7c-1.2,0-2.4-0.4-3.5-1c-0.9-0.4-1.5-1.1-1.7-2
				c-0.1-0.8,0.4-1.6,1.2-1.9c1-0.5,2.2-0.8,3.3-0.7c1.2,0,2.4,0.4,3.5,1c0.8,0.4,1.5,1.1,1.6,2C-0.1-36.4-0.5-35.6-1.3-35.3
				L-1.3-35.3z M-4.8-36.2c0.5,0,0.9-0.1,1.4-0.3C-3.1-36.6-3-37-3-37.3c-0.1-0.4-0.3-0.7-0.7-0.8c-0.4-0.2-0.9-0.4-1.4-0.4
				c-0.5,0-0.9,0-1.3,0.3c-0.3,0.1-0.5,0.4-0.5,0.8c0.1,0.4,0.3,0.7,0.7,0.8C-5.8-36.4-5.3-36.3-4.8-36.2L-4.8-36.2z"/>
		</g>
		<g id="Groupe_4528" transform="translate(84.632 46.343)" class="st34">
			<path id="Tracé_9907" class="st36" d="M-33.5,3.1l-2.9-1.6l-5.6,3.2l-2.3-1.3l-2.2-8l2.2-1.3l7.7,4.5l1.5-0.8l2.6,1.5L-33.9,0
				l2.9,1.6L-33.5,3.1z M-41.5,1.5l2.6-1.5l-3.6-2.1L-41.5,1.5z"/>
			<path id="Tracé_9908" class="st36" d="M-26.9-0.8l-10.4-6l-2.5,1.4l-1-2.6l3.2-1.8l13.1,7.6L-26.9-0.8z"/>
			<path id="Tracé_9909" class="st36" d="M-17.5-9.3l2.8,1.6l-7.9,4.5l-0.9-0.5c-0.3-0.2-0.7-0.4-0.9-0.7c-0.2-0.2-0.5-0.4-0.7-0.6
				c-0.2-0.2-0.3-0.4-0.4-0.7c-0.1-0.3-0.2-0.5-0.2-0.7c0-0.2-0.1-0.5,0-0.7c0-0.3,0-0.5,0.1-0.7c0-0.1,0.1-0.4,0.1-0.7
				c0.1-0.3,0.1-0.5,0.1-0.7c0.2-1.2-0.1-2-0.8-2.4c-0.4-0.3-0.9-0.4-1.5-0.4c-0.5,0-1,0.1-1.4,0.3c-0.5,0.3-0.7,0.6-0.6,0.9
				c0.1,0.4,0.4,0.8,0.7,0.9l-2.4,1.4c-1.3-0.7-2-1.6-2-2.5c-0.1-0.9,0.5-1.7,1.7-2.4c1.1-0.6,2.4-0.9,3.7-0.9
				c1.4,0,2.9,0.4,4.1,1.1c0.6,0.3,1.2,0.8,1.7,1.4c0.3,0.4,0.5,0.8,0.6,1.3c0.1,0.5,0.1,0.9,0,1.4c0,0-0.1,0.2-0.2,0.6
				c-0.1,0.3-0.1,0.6-0.2,1c0,0.2,0,0.4,0.1,0.6L-17.5-9.3z"/>
			<path id="Tracé_9910" class="st36" d="M-5.1-13.1c-1.4,0.8-3,1.1-4.6,0.9c-1.8-0.1-3.5-0.6-5-1.5l-3.1-1.8
				c-1.5-0.9-2.4-1.8-2.6-2.9c-0.2-1,0.4-1.9,1.6-2.7c1.4-0.8,3-1.1,4.6-0.9c1.8,0.1,3.5,0.6,5,1.5l3.1,1.8c1.5,0.9,2.4,1.8,2.6,2.9
				S-3.9-13.8-5.1-13.1z M-7.9-14.7c0.6-0.3,0.8-0.7,0.7-1.2c-0.1-0.5-0.5-0.9-1.3-1.4l-3.1-1.8c-0.7-0.4-1.5-0.7-2.3-0.8
				c-0.7-0.1-1.4,0.1-2,0.4c-0.6,0.3-0.8,0.7-0.7,1.2c0.1,0.5,0.5,0.9,1.3,1.4l3.1,1.8c0.7,0.4,1.5,0.7,2.3,0.8
				C-9.2-14.2-8.5-14.3-7.9-14.7L-7.9-14.7z"/>
			<path id="Tracé_9911" class="st36" d="M5-19c-1.4,0.8-3,1.1-4.6,0.9c-1.8-0.1-3.5-0.6-5-1.5l-3.1-1.8c-1.5-0.9-2.4-1.8-2.6-2.9
				c-0.2-1,0.4-1.9,1.6-2.7c1.4-0.8,3-1.1,4.6-0.9c1.8,0.1,3.5,0.6,5,1.5l3.1,1.8c1.5,0.9,2.4,1.8,2.6,2.9C6.8-20.6,6.3-19.7,5-19z
				 M2.3-20.5c0.6-0.3,0.8-0.7,0.7-1.2c-0.1-0.5-0.5-0.9-1.3-1.4l-3.1-1.8c-0.7-0.4-1.5-0.7-2.3-0.8c-0.7-0.1-1.4,0.1-2,0.4
				c-0.6,0.3-0.8,0.7-0.7,1.2c0.1,0.5,0.5,0.9,1.3,1.4l3.1,1.8c0.7,0.4,1.5,0.7,2.3,0.8C0.9-20.1,1.6-20.2,2.3-20.5L2.3-20.5z"/>
			<path id="Tracé_9912" class="st36" d="M15.2-24.8c-1.4,0.8-3,1.1-4.6,0.9c-1.8-0.1-3.5-0.6-5-1.5l-3.1-1.8C1-28,0.2-29,0-30
				c-0.2-1,0.4-1.9,1.6-2.7c1.4-0.8,3-1.1,4.6-0.9c1.8,0.1,3.5,0.6,5,1.5l3.1,1.8c1.5,0.9,2.4,1.8,2.6,2.9
				C17-26.4,16.4-25.5,15.2-24.8z M12.4-26.4c0.6-0.3,0.8-0.7,0.7-1.2c-0.1-0.5-0.5-0.9-1.3-1.4l-3.1-1.8c-0.7-0.4-1.5-0.7-2.3-0.8
				c-0.7-0.1-1.4,0.1-2,0.4c-0.6,0.3-0.8,0.7-0.7,1.2S4.2-29,5-28.5L8-26.8c0.7,0.4,1.5,0.7,2.3,0.8C11.1-25.9,11.8-26.1,12.4-26.4
				L12.4-26.4z"/>
			<path id="Tracé_9913" class="st36" d="M18.1-35l-1.2,0.7l-0.7-0.8l1-0.6c-1.1-0.8-1.7-2-1.6-3.3c0.1-1.2,0.9-2.1,2.3-3
				c1.3-0.7,2.8-1.2,4.3-1.3c1.7-0.1,3.5,0.1,5.1,0.6l-2.8,1.6c-1.3-0.2-2.7,0-3.9,0.7c-0.6,0.3-1.1,0.8-1.3,1.5
				c-0.1,0.6,0.1,1.2,0.5,1.7l5.4-3.1l0.8,0.8l-5.4,3.1c0.2,0.2,0.4,0.3,0.6,0.4c0.2,0.1,0.4,0.2,0.6,0.3l5.1-2.9l0.8,0.8l-4.5,2.6
				c1,0.3,2,0.4,3,0.3c0.9-0.1,1.8-0.3,2.6-0.8c1.1-0.6,1.5-1.4,1.2-2.2l2.8-1.6c0.8,0.8,1.1,1.9,1,3c-0.3,1.1-1.1,2-2.2,2.5
				c-1.6,0.9-3.3,1.3-5.1,1.3c-2,0.1-3.9-0.3-5.8-1L19.2-33l-0.7-0.8l0.9-0.5c-0.1-0.1-0.4-0.2-0.6-0.3C18.4-34.8,18.2-35,18.1-35z"
				/>
		</g>
	</g>
	<g id="Groupe_4419" transform="translate(459.019 2412.57)" class="st27">
		<path id="Tracé_9600" class="st37" d="M85.2,112L-33.4,43.5L85.2-24.9l118.5,68.4L85.2,112z"/>
		<g id="Groupe_4412" transform="translate(132.55 100.401)" class="st38">
			<path id="Tracé_9705" class="st25" d="M-43.6-0.8c-0.6,0.4-1.3,0.6-2,0.7C-46.5,0-47.2,0-48-0.1l0-1.4c0.5,0.1,1,0.1,1.5,0
				c0.4,0,0.8-0.2,1.2-0.4c0.3-0.2,0.5-0.4,0.5-0.6c0-0.2-0.1-0.4-0.3-0.5c-0.3-0.1-0.6-0.2-0.9-0.2c-0.4,0-0.9,0.1-1.3,0.2
				l-0.9,0.2c-1.5,0.5-3,0.3-4.4-0.4c-0.8-0.5-1.2-1-1.2-1.5c0-0.6,0.4-1,1.1-1.5c1.1-0.6,2.4-0.8,3.6-0.7l0.2,1.3
				c-0.7-0.1-1.5,0-2.1,0.4c-0.2,0.1-0.4,0.3-0.5,0.5c-0.1,0.2,0,0.4,0.3,0.5c0.3,0.2,0.6,0.2,0.9,0.2c0.5,0,0.9-0.1,1.4-0.2
				l0.9-0.2c1.5-0.4,3.1-0.3,4.4,0.5c0.8,0.5,1.2,1,1.2,1.5C-42.5-1.8-42.9-1.3-43.6-0.8z"/>
			<path id="Tracé_9706" class="st25" d="M-36.4-6.1c0,0.7-0.4,1.4-1.1,1.7c-0.9,0.5-1.9,0.7-2.9,0.6c-1.1,0-2.2-0.3-3.1-0.8
				c-0.8-0.3-1.3-1-1.5-1.8c0-0.7,0.4-1.4,1.1-1.7C-43-8.6-42-8.8-41-8.8c1.1,0,2.2,0.3,3.1,0.8C-37.1-7.6-36.5-6.9-36.4-6.1z
				 M-39-5.3c0.3-0.1,0.5-0.5,0.5-0.8c-0.1-0.4-0.4-0.7-0.8-0.9c-0.5-0.3-1-0.4-1.6-0.5c-0.5,0-1,0-1.4,0.3
				c-0.4,0.2-0.6,0.5-0.5,0.8c0.1,0.4,0.4,0.7,0.8,0.9c0.5,0.3,1,0.4,1.6,0.5C-39.9-5-39.4-5.1-39-5.3z"/>
			<path id="Tracé_9707" class="st25" d="M-33.7-6.7l-9.3-5.4l1.5-0.9l9.3,5.4L-33.7-6.7z"/>
			<path id="Tracé_9708" class="st25" d="M-28.7-9.5c-0.7,0.4-1.5,0.5-2.2,0.4c-0.9-0.1-1.8-0.4-2.5-0.8l-3.6-2.1l1.5-0.8l3.3,1.9
				c1,0.6,1.8,0.7,2.4,0.3c0.3-0.2,0.5-0.4,0.4-0.7c-0.2-0.4-0.6-0.7-1-0.9l-3-1.7l1.5-0.8l6.2,3.6l-1.5,0.8l-0.7-0.4
				C-27.8-10.3-28.1-9.8-28.7-9.5z"/>
			<path id="Tracé_9709" class="st25" d="M-21.8-13.5c-0.6,0.4-1.3,0.5-2.1,0.5c-0.8,0-1.6-0.2-2.2-0.6l-2.5-1.5l-1.1,0.6l-1.5-0.9
				l1.1-0.6l-1.7-1l1.5-0.8l1.7,1l1.5-0.9l1.5,0.9l-1.5,0.9l2.2,1.3c0.3,0.2,0.7,0.3,1,0.3c0.3,0,0.7-0.1,0.9-0.3
				c0.2-0.1,0.4-0.2,0.5-0.4l1.5,0.9C-21.2-13.9-21.5-13.7-21.8-13.5z"/>
			<path id="Tracé_9710" class="st25" d="M-26.4-19.3c-0.3,0.2-0.6,0.2-1,0.2c-0.4,0-0.7-0.1-1-0.3c-0.2-0.1-0.4-0.3-0.5-0.6
				c0-0.2,0.1-0.5,0.3-0.6c0.3-0.2,0.6-0.2,1-0.2c0.4,0,0.7,0.1,1,0.3c0.2,0.1,0.4,0.3,0.5,0.6C-26-19.6-26.2-19.4-26.4-19.3z
				 M-19.9-14.7l-6.2-3.6l1.5-0.8l6.2,3.6L-19.9-14.7z"/>
			<path id="Tracé_9711" class="st25" d="M-13.4-19.4c0,0.7-0.4,1.4-1.1,1.7c-0.9,0.5-1.9,0.7-2.9,0.6c-1.1,0-2.2-0.3-3.1-0.9
				c-0.7-0.3-1.3-1-1.5-1.8c0-0.7,0.4-1.4,1.1-1.7c0.9-0.5,1.9-0.7,2.9-0.6c1.1,0,2.2,0.3,3.1,0.8C-14.1-20.9-13.5-20.2-13.4-19.4z
				 M-16-18.6c0.3-0.1,0.5-0.5,0.5-0.8c-0.1-0.4-0.4-0.7-0.8-0.9c-0.5-0.3-1-0.4-1.6-0.5c-0.5,0-1,0-1.4,0.3
				c-0.4,0.2-0.6,0.5-0.5,0.8c0.1,0.4,0.4,0.7,0.8,0.9c0.5,0.3,1,0.4,1.6,0.5C-16.9-18.3-16.4-18.4-16-18.6z"/>
			<path id="Tracé_9712" class="st25" d="M-10.7-20l-6.2-3.6l1.5-0.8l0.7,0.4c-0.2-0.5,0-1,0.7-1.4c0.7-0.4,1.5-0.5,2.3-0.5
				c0.9,0.1,1.7,0.4,2.5,0.8l3.6,2.1l-1.5,0.9l-3.3-1.9c-0.4-0.2-0.8-0.4-1.3-0.5c-0.4-0.1-0.7,0-1.1,0.2c-0.4,0.2-0.5,0.5-0.4,0.8
				c0.1,0.3,0.4,0.6,1,0.9l3,1.7L-10.7-20z"/>
			<path id="Tracé_9713" class="st25" d="M5.1-29.2l-1.3,0.8l-9.6-1.1l5.7,3.3l-1.6,0.9l-8.8-5.1l1.3-0.8L0.5-30l-5.7-3.3l1.6-0.9
				L5.1-29.2z"/>
			<path id="Tracé_9714" class="st25" d="M3-33.7c-0.5,0.3-1.1,0.4-1.7,0.4c-0.6,0-1.3-0.2-1.8-0.5c-0.4-0.2-0.8-0.6-0.9-1.1
				c0-0.4,0.2-0.8,0.6-1c0.5-0.3,1.1-0.4,1.7-0.3c0.6,0,1.3,0.2,1.8,0.5c0.4,0.2,0.8,0.6,0.9,1.1C3.6-34.3,3.4-33.9,3-33.7z
				 M1.8-34.4c0.2-0.1,0.3-0.2,0.3-0.4c0-0.2-0.2-0.3-0.4-0.4c-0.2-0.1-0.5-0.2-0.7-0.2c-0.2,0-0.5,0-0.7,0.1C0.1-35.2,0-35,0-34.8
				c0,0.2,0.2,0.3,0.4,0.4c0.2,0.1,0.5,0.2,0.7,0.2C1.4-34.2,1.6-34.3,1.8-34.4L1.8-34.4z"/>
			<path id="Tracé_9715" class="st25" d="M12.2-33.2l-1.7,1l-3.7-6.1l-3.6,2.1l-1.6-1L7-40.4l1.5,0.8L12.2-33.2z"/>
		</g>
		<g id="Groupe_4413" transform="translate(54.112 32.421)" class="st38">
			<path id="Tracé_9716" class="st25" d="M-31.5,4.2c-0.8,0.5-1.8,0.7-2.8,0.7c-1.1,0-2.1-0.2-3.1-0.8l1.5-0.8
				c0.4,0.2,0.9,0.3,1.4,0.3c0.5,0,0.9-0.1,1.3-0.4c0.3-0.2,0.5-0.4,0.5-0.7c0-0.2-0.1-0.5-0.5-0.7c-0.4-0.2-0.8-0.3-1.2-0.3
				c-0.4,0-0.9,0.1-1.2,0.4l-0.6,0.4l-1.4-0.8l0.6-0.3c0.4-0.2,0.5-0.4,0.5-0.6s-0.2-0.4-0.5-0.6c-0.3-0.2-0.7-0.3-1-0.3
				c-0.3,0-0.7,0.1-1,0.2c-0.3,0.2-0.5,0.4-0.5,0.7s0.2,0.5,0.6,0.7l-1.5,0.9c-0.9-0.5-1.3-1.1-1.3-1.7c0-0.7,0.4-1.3,1.1-1.5
				c0.8-0.4,1.7-0.7,2.5-0.6c0.9,0,1.7,0.2,2.5,0.7c0.3,0.2,0.6,0.5,0.9,0.8c0.2,0.2,0.2,0.5,0.2,0.8c0.5-0.1,1-0.1,1.5,0
				c0.5,0.1,1.1,0.3,1.5,0.5c0.8,0.4,1.2,1,1.2,1.5C-30.4,3.2-30.7,3.7-31.5,4.2z"/>
			<path id="Tracé_9717" class="st25" d="M-25.4,0.5l-9.3-5.4l1.5-0.8l9.3,5.4L-25.4,0.5z"/>
			<path id="Tracé_9718" class="st25" d="M-18.9-4.2c0,0.7-0.4,1.4-1.1,1.7c-0.9,0.5-1.9,0.7-2.9,0.6C-24-2-25-2.2-26-2.8
				c-0.8-0.3-1.3-1-1.5-1.8c0-0.7,0.4-1.4,1.1-1.7c0.9-0.5,1.9-0.7,2.9-0.6c1.1,0,2.2,0.3,3.1,0.8C-19.6-5.7-19-5-18.9-4.2z
				 M-21.5-3.5c0.3-0.1,0.5-0.5,0.5-0.8c-0.1-0.4-0.4-0.7-0.8-0.9c-0.5-0.3-1-0.4-1.6-0.5c-0.5,0-1,0.1-1.4,0.3
				c-0.4,0.2-0.6,0.5-0.5,0.8c0.1,0.4,0.4,0.7,0.8,0.9c0.5,0.3,1,0.4,1.6,0.5C-22.4-3.1-21.9-3.2-21.5-3.5L-21.5-3.5z"/>
			<path id="Tracé_9719" class="st25" d="M-13.6-6.3c-0.6,0.4-1.3,0.5-2.1,0.5c-0.8,0-1.6-0.2-2.2-0.6l-2.5-1.5l-1.1,0.6L-23-8.1
				l1.1-0.6l-1.7-1l1.5-0.8l1.7,1l1.5-0.9l1.5,0.9L-19-8.7l2.2,1.3c0.3,0.2,0.7,0.3,1,0.3c0.3,0,0.7-0.1,0.9-0.3
				c0.2-0.1,0.4-0.2,0.5-0.4l1.5,0.9C-13.1-6.6-13.3-6.4-13.6-6.3z"/>
			<path id="Tracé_9720" class="st25" d="M-9.8-8.4c-1,0.6-2.2,0.8-3.4,0.6l0-1.2c0.7,0.1,1.3,0,1.9-0.3c0.1-0.1,0.2-0.2,0.3-0.3
				c0-0.1,0-0.2-0.2-0.3c-0.1-0.1-0.3-0.1-0.5-0.1c-0.3,0-0.6,0.1-0.8,0.2l-0.5,0.2c-0.6,0.2-1.2,0.3-1.9,0.2
				c-0.6,0-1.1-0.2-1.6-0.5c-0.5-0.3-0.8-0.7-0.8-1.1c0.1-0.5,0.4-0.9,0.9-1.1c0.9-0.5,1.9-0.7,2.9-0.5l-0.1,1.1
				c-0.5-0.1-1,0-1.5,0.2c-0.1,0.1-0.2,0.2-0.3,0.3c0,0.1,0,0.2,0.1,0.3c0.3,0.1,0.7,0.1,1.1,0l0.7-0.2c1.1-0.4,2.4-0.4,3.5,0.2
				c0.6,0.3,0.9,0.7,0.9,1.2C-9-9.1-9.3-8.6-9.8-8.4z"/>
			<path id="Tracé_9721" class="st25" d="M-1.7-13.1c-0.9,0.5-1.9,0.7-2.9,0.6c-1.1,0-2.2-0.3-3.1-0.9c-0.8-0.3-1.3-1-1.5-1.8
				c0-0.7,0.4-1.4,1.1-1.7c0.6-0.3,1.3-0.5,2-0.6c0.8-0.1,1.6,0,2.3,0.2L-4.3-16c-0.4-0.1-0.8-0.1-1.2-0.1c-0.4,0-0.7,0.1-1,0.3
				c-0.3,0.1-0.5,0.5-0.5,0.8c0.1,0.4,0.4,0.7,0.8,0.9c0.5,0.3,1,0.4,1.6,0.5c0.5,0,1-0.1,1.4-0.3c0.2-0.1,0.4-0.3,0.5-0.6
				c0-0.3-0.1-0.5-0.2-0.7l2.1-0.3c0.3,0.4,0.4,0.9,0.3,1.3C-0.9-13.7-1.2-13.3-1.7-13.1z"/>
			<path id="Tracé_9722" class="st25" d="M1.6-15.2l-6.2-3.6l1.5-0.8l1,0.6c-0.2-0.2-0.3-0.5-0.3-0.7c0.1-0.3,0.3-0.5,0.5-0.6
				c0.2-0.1,0.4-0.2,0.6-0.2l1.7,1c-0.3,0.1-0.6,0.2-0.8,0.3c-0.4,0.2-0.5,0.4-0.4,0.7c0.2,0.4,0.5,0.7,0.9,0.9l3,1.7L1.6-15.2z"/>
			<path id="Tracé_9723" class="st25" d="M0.7-22.6l-1.2-2l1.7-1l0.6,2.4L0.7-22.6z M8.3-18.9c-0.9,0.5-1.9,0.7-2.9,0.7
				c-1.1,0-2.2-0.3-3.1-0.9c-0.8-0.3-1.3-1-1.5-1.8c0-0.7,0.4-1.4,1.1-1.7c0.8-0.4,1.7-0.7,2.7-0.6C5.8-23.1,7-22.7,8.1-22l-4,2.3
				c0.4,0.2,0.9,0.3,1.4,0.3c0.5,0,0.9-0.1,1.3-0.4c0.6-0.4,0.8-0.8,0.6-1.3l2-0.1C9.8-20.2,9.4-19.5,8.3-18.9L8.3-18.9z M3-20.4
				l2.5-1.4C5.1-22,4.7-22.1,4.2-22c-0.4,0-0.7,0.1-1,0.3c-0.3,0.1-0.5,0.4-0.6,0.6C2.6-20.8,2.7-20.5,3-20.4L3-20.4z"/>
			<path id="Tracé_9724" class="st25" d="M6.9-26.2l-1.2-2l1.7-1L8-26.9L6.9-26.2z M14.5-22.4c-0.9,0.5-1.9,0.7-2.9,0.7
				c-1.1,0-2.2-0.3-3.1-0.9c-0.8-0.3-1.3-1-1.5-1.8c-0.1-0.7,0.3-1.2,1.1-1.7c0.8-0.4,1.7-0.7,2.7-0.6c1.1,0,2.1,0.3,3,0.9
				c0.3,0.2,0.5,0.3,0.6,0.3l-4,2.3c0.4,0.2,0.9,0.3,1.4,0.3c0.5,0,0.9-0.1,1.3-0.4c0.6-0.4,0.8-0.8,0.6-1.2l2-0.1
				C16-23.8,15.6-23.1,14.5-22.4z M9.2-23.9l2.5-1.4c-0.4-0.2-0.8-0.2-1.2-0.2c-0.4,0-0.7,0.1-1,0.3c-0.3,0.1-0.5,0.4-0.6,0.6
				C8.8-24.4,8.9-24.1,9.2-23.9L9.2-23.9z"/>
			<path id="Tracé_9725" class="st25" d="M20-25.6c-1,0.6-2.2,0.8-3.4,0.6l0-1.2c0.7,0.1,1.3,0,1.9-0.3c0.1-0.1,0.2-0.2,0.3-0.3
				c0-0.1,0-0.2-0.2-0.3c-0.1-0.1-0.3-0.1-0.5-0.1c-0.3,0-0.6,0.1-0.8,0.2l-0.5,0.2c-0.6,0.2-1.2,0.3-1.9,0.2
				c-0.6,0-1.1-0.2-1.6-0.5c-0.5-0.3-0.8-0.7-0.8-1.1c0-0.4,0.3-0.8,0.9-1.1c0.9-0.5,1.9-0.7,2.9-0.5l-0.1,1.1c-0.5-0.1-1,0-1.5,0.2
				c-0.1,0.1-0.2,0.2-0.3,0.3c0,0.1,0,0.2,0.1,0.3c0.3,0.1,0.7,0.1,1.1,0l0.7-0.2c1.1-0.4,2.4-0.4,3.5,0.2c0.6,0.3,0.9,0.7,0.9,1.2
				C20.9-26.3,20.6-25.9,20-25.6z"/>
		</g>
		<g id="Groupe_4414" transform="translate(84.441 44.971)" class="st38">
			<path id="Tracé_9726" class="st39" d="M-43.8-3.9L-46-5.2l2.4-1.4l-2.8-1.6l1.9-1.1l2.8,1.6l2.4-1.4l2.2,1.3l-2.4,1.4l2.8,1.6
				l-1.9,1.1l-2.8-1.6L-43.8-3.9z"/>
			<path id="Tracé_9727" class="st39" d="M-26.3-12l2.5,1.4l-7.8,4.5l-0.9-0.5c-0.3-0.2-0.6-0.4-0.9-0.7c-0.2-0.2-0.5-0.4-0.7-0.6
				c-0.2-0.2-0.3-0.4-0.4-0.7c-0.1-0.3-0.2-0.5-0.2-0.7c0-0.2-0.1-0.5,0-0.7c0-0.3,0-0.5,0.1-0.7c0-0.1,0.1-0.4,0.1-0.7
				c0.1-0.3,0.1-0.5,0.1-0.7c0.2-1.3-0.1-2.1-0.9-2.6c-0.5-0.3-1.1-0.4-1.6-0.5c-0.6,0-1.1,0.1-1.6,0.4c-0.5,0.3-0.7,0.6-0.7,1
				c0,0.4,0.3,0.7,0.8,1l-2.2,1.3c-1.3-0.7-2-1.6-2-2.5c-0.1-0.9,0.5-1.7,1.6-2.4c1.1-0.6,2.4-0.9,3.7-0.9c1.4,0,2.8,0.4,4.1,1.1
				c0.8,0.4,1.5,1,2,1.8c0.3,0.7,0.4,1.5,0.2,2.2c0,0.1-0.1,0.3-0.1,0.6c-0.1,0.3-0.1,0.6-0.1,0.7c0,0.2,0,0.4,0,0.6
				c0,0.2,0.1,0.4,0.2,0.6L-26.3-12z"/>
			<path id="Tracé_9728" class="st39" d="M-17.1-14.4l-3-1.7l-5.7,3.3l-2.1-1.2l-2.2-8.1l2-1.1l7.8,4.5l1.5-0.9l2.3,1.4l-1.5,0.9
				l3,1.7L-17.1-14.4z M-25.4-15.8l3-1.7l-4.1-2.3L-25.4-15.8z"/>
			<path id="Tracé_9729" class="st39" d="M-15.2-22.5c-1,0.5-2.2,0.8-3.3,0.7c-1.2,0-2.4-0.4-3.5-1c-0.8-0.4-1.5-1.1-1.7-2
				c-0.1-0.8,0.4-1.6,1.2-1.9c1-0.5,2.2-0.8,3.3-0.7c1.2,0,2.4,0.4,3.5,1c0.8,0.4,1.5,1.1,1.6,2C-14-23.6-14.4-22.8-15.2-22.5z
				 M-18.7-23.4c0.5,0,0.9-0.1,1.4-0.3c0.3-0.1,0.5-0.4,0.5-0.8c-0.1-0.4-0.3-0.7-0.7-0.8c-0.4-0.2-0.9-0.4-1.4-0.4
				c-0.5,0-0.9,0-1.4,0.3c-0.3,0.1-0.5,0.4-0.5,0.8c0.1,0.4,0.3,0.7,0.7,0.8C-19.7-23.6-19.2-23.5-18.7-23.4L-18.7-23.4z M-7.4-20
				l-2.3,1.3l-5.9-11.8l2.3-1.3L-7.4-20z M-0.5-23.8c-1,0.5-2.2,0.8-3.3,0.7c-1.2,0-2.4-0.4-3.5-1c-0.8-0.4-1.5-1.1-1.7-2
				C-9.1-27-8.6-27.7-7.8-28c1-0.5,2.2-0.8,3.3-0.7c1.2,0,2.4,0.4,3.5,1c0.8,0.4,1.5,1.1,1.6,2C0.7-24.9,0.3-24.1-0.5-23.8
				L-0.5-23.8z M-4-24.8c0.5,0,0.9,0,1.4-0.3c0.3-0.1,0.5-0.4,0.5-0.8c-0.1-0.4-0.3-0.7-0.7-0.8c-0.4-0.2-0.9-0.4-1.4-0.4
				c-0.5,0-0.9,0-1.3,0.3C-6-26.7-6.2-26.4-6.1-26c0.1,0.4,0.3,0.7,0.7,0.8C-5-25-4.5-24.8-4-24.8L-4-24.8z"/>
		</g>
		<g id="Groupe_4529" transform="translate(81.342 45.741)" class="st38">
			<path id="Tracé_9914" class="st40" d="M-33,16.9l-2.9-1.6l-5.6,3.2l-2.3-1.3l-2.2-8l2.2-1.3l7.7,4.5l1.5-0.8L-32,13l-1.5,0.8
				l2.9,1.6L-33,16.9z M-41,15.3l2.6-1.5l-3.6-2.1L-41,15.3z"/>
			<path id="Tracé_9915" class="st40" d="M-23.3,11.5c-1.4,0.8-3,1.1-4.6,0.9c-1.8-0.1-3.5-0.6-5-1.5l-3.1-1.8
				c-1.5-0.9-2.4-1.8-2.6-2.9c-0.2-1,0.4-1.9,1.6-2.7c1.4-0.8,3-1.1,4.6-0.9c1.8,0.1,3.5,0.6,5,1.5l3.1,1.8c1.5,0.9,2.4,1.8,2.6,2.9
				C-21.5,9.9-22,10.8-23.3,11.5z M-26,9.9c0.6-0.3,0.8-0.7,0.7-1.2s-0.5-0.9-1.3-1.4l-3.1-1.8C-30.4,5.2-31.2,5-32,4.9
				c-0.7-0.1-1.4,0.1-2,0.4c-0.6,0.3-0.8,0.7-0.7,1.2c0.1,0.5,0.5,0.9,1.3,1.4l3.1,1.8c0.7,0.4,1.5,0.7,2.3,0.8
				C-27.4,10.4-26.6,10.3-26,9.9L-26,9.9z"/>
			<path id="Tracé_9916" class="st40" d="M-17.3,7.8l-1.8-4.3c-1.1,0.5-2.3,0.7-3.5,0.6c-1.4,0-2.7-0.4-3.9-1.1
				c-1.3-0.8-2-1.6-2.2-2.5s0.4-1.7,1.6-2.4c1.3-0.7,2.7-1,4.2-0.9c1.5,0.1,3,0.5,4.4,1.3c0.5,0.3,0.9,0.6,1.3,1.1
				c0.4,0.6,0.7,1.1,0.9,1.7l2.1,4.9L-17.3,7.8z M-20.8,1.8c0.5-0.3,0.7-0.6,0.6-1c-0.1-0.5-0.5-0.8-0.9-1c-0.5-0.3-1.1-0.5-1.8-0.5
				c-0.6,0-1.2,0.1-1.7,0.4c-0.4,0.2-0.6,0.5-0.6,1c0.1,0.5,0.4,0.8,0.9,1c0.5,0.3,1.1,0.5,1.8,0.5C-21.8,2.2-21.3,2.1-20.8,1.8z"/>
			<path id="Tracé_9917" class="st40" d="M-0.3-1.7c-1.4,0.8-3,1.1-4.6,0.9c-1.8-0.1-3.5-0.6-5-1.5L-13-4c-1.5-0.9-2.4-1.8-2.6-2.9
				c-0.2-1,0.4-1.9,1.6-2.7c1.4-0.8,3-1.1,4.6-0.9c1.8,0.1,3.5,0.6,5,1.5l3.1,1.8c1.5,0.9,2.4,1.8,2.6,2.9S0.9-2.4-0.3-1.7z
				 M-3.1-3.3C-2.5-3.6-2.3-4-2.4-4.5s-0.5-0.9-1.3-1.4l-3.1-1.8C-7.5-8-8.3-8.3-9.1-8.4c-0.7-0.1-1.4,0.1-2,0.4
				c-0.6,0.3-0.8,0.7-0.7,1.2c0.1,0.5,0.5,0.9,1.3,1.4l3.1,1.8C-6.8-3.2-6-3-5.1-2.9C-4.4-2.8-3.7-3-3.1-3.3L-3.1-3.3z"/>
			<path id="Tracé_9918" class="st40" d="M9.8-7.6c-1.4,0.8-3,1.1-4.6,0.9c-1.8-0.1-3.5-0.6-5-1.5l-3.1-1.8
				c-1.5-0.9-2.4-1.8-2.6-2.9s0.4-1.9,1.6-2.7c1.4-0.8,3-1.1,4.6-0.9c1.8,0.1,3.5,0.6,5,1.5l3.1,1.8c1.5,0.9,2.4,1.8,2.6,2.9
				C11.6-9.2,11.1-8.3,9.8-7.6z M7.1-9.2c0.6-0.3,0.8-0.7,0.7-1.2c-0.1-0.5-0.5-0.9-1.3-1.4l-3.1-1.8c-0.7-0.4-1.5-0.7-2.3-0.8
				c-0.7-0.1-1.4,0.1-2,0.4c-0.6,0.3-0.8,0.7-0.7,1.2c0.1,0.5,0.5,0.9,1.3,1.4l3.1,1.8C3.4-9.1,4.2-8.8,5-8.8
				C5.7-8.7,6.4-8.8,7.1-9.2L7.1-9.2z"/>
			<path id="Tracé_9919" class="st40" d="M20-13.4c-1.4,0.8-3,1.1-4.6,0.9c-1.8-0.1-3.5-0.6-5-1.5l-3.1-1.8
				c-1.5-0.9-2.4-1.8-2.6-2.9c-0.2-1,0.4-1.9,1.6-2.7c1.4-0.8,3-1.1,4.6-0.9c1.8,0.1,3.5,0.6,5,1.5l3.1,1.8c1.5,0.9,2.4,1.8,2.6,2.9
				C21.8-15,21.2-14.2,20-13.4z M17.2-15c0.6-0.3,0.8-0.7,0.7-1.2c-0.1-0.5-0.5-0.9-1.3-1.4l-3.1-1.8c-0.7-0.4-1.5-0.7-2.3-0.8
				c-0.7-0.1-1.4,0.1-2,0.4c-0.6,0.3-0.8,0.7-0.7,1.2C8.6-18,9-17.6,9.8-17.1l3.1,1.8c0.7,0.4,1.5,0.7,2.3,0.8
				C15.9-14.5,16.6-14.7,17.2-15L17.2-15z"/>
			<path id="Tracé_9920" class="st40" d="M22.9-23.7L21.7-23l-0.7-0.8l1-0.6c-1.1-0.8-1.7-2-1.6-3.3c0.1-1.2,0.9-2.1,2.3-3
				c1.3-0.7,2.8-1.2,4.3-1.3c1.7-0.1,3.5,0.1,5.1,0.5l-2.8,1.6c-1.3-0.2-2.7,0-3.9,0.7c-0.6,0.3-1.1,0.8-1.3,1.5
				c-0.1,0.6,0.1,1.2,0.5,1.7l5.4-3.1l0.8,0.8l-5.4,3.1c0.3,0.2,0.4,0.3,0.6,0.4c0.2,0.1,0.4,0.2,0.6,0.3l5.1-2.9l0.8,0.8l-4.5,2.6
				c1,0.3,2,0.4,3,0.3c0.9-0.1,1.8-0.3,2.6-0.8c1.1-0.6,1.5-1.4,1.2-2.2l2.8-1.6c0.8,0.8,1.1,1.9,1,3c-0.3,1.1-1.1,2-2.2,2.5
				c-1.6,0.9-3.3,1.3-5.1,1.3c-2,0.1-3.9-0.3-5.8-1L24-21.6l-0.7-0.8l0.9-0.5c-0.1-0.1-0.4-0.2-0.6-0.3C23.2-23.4,23-23.6,22.9-23.7
				z"/>
		</g>
	</g>
	
		<linearGradient id="Tracé_9585-2_1_" gradientUnits="userSpaceOnUse" x1="242.8236" y1="3022.8577" x2="242.8236" y2="3022.0117" gradientTransform="matrix(280.245 0 0 -352.82 -67506.1562 1068980.375)">
		<stop  offset="0.101" style="stop-color:#00B9B4;stop-opacity:0"/>
		<stop  offset="0.221" style="stop-color:#00B9B4;stop-opacity:2.400000e-02"/>
		<stop  offset="0.354" style="stop-color:#00B9B4;stop-opacity:9.400000e-02"/>
		<stop  offset="0.492" style="stop-color:#00B9B4;stop-opacity:0.216"/>
		<stop  offset="0.635" style="stop-color:#00B9B4;stop-opacity:0.38"/>
		<stop  offset="0.781" style="stop-color:#00B9B4;stop-opacity:0.596"/>
		<stop  offset="0.927" style="stop-color:#00B9B4;stop-opacity:0.855"/>
		<stop  offset="1" style="stop-color:#00B9B4"/>
	</linearGradient>
	<path id="Tracé_9585-2" class="st41" d="M543.9,2754.2l-118.5-68.4v-230l118.5,68.4l118.5-68.4v230L543.9,2754.2z"/>
	<path id="Tracé_9923" class="st5" d="M577.4,2744.5l338,192.9"/>
	<g id="Groupe_4406" transform="translate(819.563 2899.935)">
		<path id="Tracé_9601" class="st22" d="M-76.9-61.1c-1,0.5-2.1,0.8-3.2,0.7c-1.2,0-2.4-0.4-3.5-1l-5.3-3.1l1.6-0.9l5.3,3.1
			c0.5,0.3,1.2,0.5,1.8,0.5c0.6,0,1.1-0.1,1.6-0.4c0.5-0.3,0.7-0.6,0.6-0.9c-0.1-0.4-0.4-0.7-0.9-1l-5.3-3.1l1.6-0.9l5.3,3.1
			c1.1,0.6,1.7,1.3,1.8,2C-75.6-62.3-76-61.7-76.9-61.1z"/>
		<path id="Tracé_9602" class="st22" d="M-72.4-63.9l-8.8-5.1l2.9-1.7c0.7-0.4,1.6-0.6,2.4-0.5c0.9,0,1.7,0.3,2.5,0.7
			c1.2,0.7,1.4,1.4,0.7,2.2l6.6,0.7l-1.9,1.1l-6.3-0.6l-0.4,0.2l3.7,2.1L-72.4-63.9z M-76-67.9l1.2-0.7c0.3-0.2,0.5-0.4,0.5-0.6
			s-0.1-0.4-0.4-0.6c-0.3-0.2-0.6-0.3-1-0.3c-0.3,0-0.7,0.1-1,0.3l-1.2,0.7L-76-67.9z"/>
		<path id="Tracé_9603" class="st22" d="M-65.3-68l-8.8-5.1l2.8-1.6c0.7-0.4,1.5-0.6,2.4-0.5c0.9,0,1.7,0.2,2.5,0.7
			c0.6,0.4,1,0.8,1,1.3c1.1-0.2,2.2,0,3.2,0.5c0.6,0.3,1,0.8,1.2,1.5c0,0.5-0.3,1-0.9,1.4L-65.3-68z M-69-71.9l1.1-0.6
			c0.3-0.2,0.4-0.3,0.4-0.5c-0.1-0.2-0.2-0.4-0.5-0.5c-0.3-0.2-0.6-0.3-1-0.3c-0.3,0-0.7,0-0.9,0.2l-1.1,0.6L-69-71.9z M-65.4-69.8
			l1.6-0.9c0.3-0.2,0.4-0.4,0.4-0.6c0-0.2-0.2-0.4-0.5-0.6c-0.3-0.2-0.6-0.3-1-0.3c-0.3,0-0.7,0.1-1,0.2l-1.6,0.9L-65.4-69.8z"/>
		<path id="Tracé_9604" class="st22" d="M-59.6-71.3l-5.5-7l1.4-0.8l12.1,3.2l-1.6,0.9l-2.7-0.7l-3.3,1.9l1.3,1.6L-59.6-71.3z
			 M-62-77.3l1.8,2.3l2.1-1.2L-62-77.3z"/>
		<path id="Tracé_9605" class="st22" d="M-43.9-80.3l-1.3,0.8l-9.6-1.1l5.7,3.3l-1.6,0.9l-8.8-5.1l1.3-0.8l9.6,1.1l-5.7-3.3
			l1.6-0.9L-43.9-80.3z"/>
		<path id="Tracé_9606" class="st22" d="M-42.3-81.3l-8.8-5.1l1.6-0.9l8.8,5.1L-42.3-81.3z"/>
		<path id="Tracé_9607" class="st22" d="M-36.6-84.4c-0.6,0.4-1.3,0.6-2.1,0.7c-0.8,0.1-1.5,0.1-2.3,0l0-1.4c0.5,0.1,1,0.1,1.5,0
			c0.4,0,0.8-0.2,1.2-0.4c0.3-0.2,0.5-0.4,0.5-0.6s-0.1-0.4-0.3-0.5c-0.3-0.1-0.6-0.2-0.9-0.2c-0.4,0-0.9,0.1-1.3,0.2l-0.9,0.2
			c-1.5,0.5-3,0.3-4.4-0.4c-0.8-0.5-1.2-1-1.2-1.5c0-0.6,0.4-1,1.1-1.5c1.1-0.6,2.4-0.8,3.6-0.7l0.2,1.3c-0.7-0.1-1.5,0-2.1,0.4
			c-0.2,0.1-0.4,0.3-0.5,0.5c-0.1,0.2,0,0.4,0.3,0.5c0.3,0.2,0.6,0.2,0.9,0.2c0.5,0,1-0.1,1.4-0.2l0.9-0.2c1.5-0.4,3.1-0.3,4.4,0.5
			c0.8,0.5,1.2,1,1.2,1.5C-35.4-85.4-35.8-84.8-36.6-84.4z"/>
		<path id="Tracé_9608" class="st22" d="M-41.7-91.8l1.4-0.8l6.4,0.8l-1.4-3.7l1.4-0.8l8.8,5.1l-1.6,0.9l-5.7-3.3l1.4,3.5l-6-0.8
			l5.7,3.3l-1.6,0.9L-41.7-91.8z"/>
		<path id="Tracé_9609" class="st22" d="M-23.4-92.2l-8.8-5.1l4.7-2.7l1.7,1l-3.2,1.8l1.8,1l2.5-1.5l1.7,1l-2.5,1.5l1.9,1.1
			l3.2-1.8l1.7,1L-23.4-92.2z"/>
	</g>
	<path id="Tracé_9921" class="st2" d="M471.7,3019.5c0.2-0.7,245.3-145.7,249.4-148c4-2.2,5.6-10.9,0-14.2
		c-6.6-3.9-168.9-99.2-168.9-99.2"/>
	<line id="Ligne_60" class="st0" x1="445.5" y1="2706.8" x2="244.2" y2="2819.9"/>
	<circle id="Ellipse_216" class="st1" cx="711.6" cy="2792.2" r="5.9"/>
	<circle id="Ellipse_219" class="st1" cx="460.6" cy="2744.2" r="5.9"/>
	<circle id="Ellipse_217" class="st1" cx="640.1" cy="2751.3" r="4.2"/>
	<circle id="Ellipse_220" class="st1" cx="550.4" cy="2841.1" r="4.2"/>
	<circle id="Ellipse_218" class="st1" cx="677.8" cy="2772.7" r="3.4"/>
	<circle id="Ellipse_221" class="st1" cx="452.5" cy="2784.9" r="3.4"/>
	<circle id="Ellipse_223" class="st1" cx="382.2" cy="2596.3" r="3.4"/>
</g>
</svg>
