<?xml version="1.0" encoding="utf-8"?>
<!-- Generator: Adobe Illustrator 24.3.0, SVG Export Plug-In . SVG Version: 6.00 Build 0)  -->
<svg version="1.1" id="Calque_1" xmlns="http://www.w3.org/2000/svg" xmlns:xlink="http://www.w3.org/1999/xlink" x="0px" y="0px"
	 viewBox="0 0 87 80" style="enable-background:new 0 0 87 80;" xml:space="preserve">
<style type="text/css">
	.st0{fill:#1D2135;}
</style>
<g id="Groupe_3490" transform="translate(-2322.168 -1762.613)">
	<path id="Tracé_8153" class="st0" d="M2349.2,1815.2h-6.2v-5.8h19.1c0.6,0,1.1-0.5,1.1-1.1v0v-12.7c0-0.6-0.5-1.1-1.1-1.1
		s-1.1,0.5-1.1,1.1v11.7H2342c-0.6,0-1.1,0.5-1.1,1.1v0v6.9h-6.1c-0.6,0-1.1,0.5-1.1,1.1v0v19.1c0,0.6,0.5,1.1,1.1,1.1l0,0h14.4
		c0.6,0,1.1-0.5,1.1-1.1v0v-19.1C2350.3,1815.6,2349.8,1815.2,2349.2,1815.2z M2348.2,1834.3h-12.2v-17h12.2V1834.3z"/>
	<path id="Tracé_8154" class="st0" d="M2337.9,1821.5c0,0.6,0.5,1.1,1.1,1.1l0,0h6.3c0.6,0,1.1-0.5,1.1-1.1c0-0.6-0.5-1.1-1.1-1.1
		h-6.3C2338.3,1820.4,2337.9,1820.9,2337.9,1821.5z"/>
	<path id="Tracé_8155" class="st0" d="M2345.2,1824.9h-6.3c-0.6,0-1.1,0.5-1.1,1.1s0.5,1.1,1.1,1.1c0,0,0,0,0,0h6.3
		c0.6,0,1.1-0.5,1.1-1.1C2346.3,1825.4,2345.8,1824.9,2345.2,1824.9z"/>
	<path id="Tracé_8156" class="st0" d="M2340.5,1829.4h-1.7c-0.6,0-1.1,0.5-1.1,1.1s0.5,1.1,1.1,1.1c0,0,0,0,0,0h1.7
		c0.6,0,1.1-0.5,1.1-1.1C2341.6,1829.9,2341.1,1829.4,2340.5,1829.4z"/>
	<path id="Tracé_8157" class="st0" d="M2373.5,1815.2h-6.3v-22.4c0-0.6-0.5-1.1-1.1-1.1s-1.1,0.5-1.1,1.1v22.4h-5.9
		c-0.6,0-1.1,0.5-1.1,1.1v0v19.1c0,0.6,0.5,1.1,1.1,1.1l0,0h14.4c0.6,0,1.1-0.5,1.1-1.1v0v-19.1
		C2374.6,1815.6,2374.1,1815.2,2373.5,1815.2z M2372.5,1834.3h-12.2v-17h12.2L2372.5,1834.3z"/>
	<path id="Tracé_8158" class="st0" d="M2362.2,1821.5c0,0.6,0.5,1.1,1.1,1.1l0,0h6.3c0.6,0,1.1-0.5,1.1-1.1s-0.5-1.1-1.1-1.1
		c0,0,0,0,0,0h-6.3C2362.7,1820.4,2362.2,1820.9,2362.2,1821.5z"/>
	<path id="Tracé_8159" class="st0" d="M2369.6,1824.9h-6.3c-0.6,0-1.1,0.5-1.1,1.1c0,0.6,0.5,1.1,1.1,1.1h6.3
		c0.6,0,1.1-0.5,1.1-1.1S2370.2,1824.9,2369.6,1824.9C2369.6,1824.9,2369.6,1824.9,2369.6,1824.9z"/>
	<path id="Tracé_8160" class="st0" d="M2364.9,1829.4h-1.7c-0.6,0-1.1,0.5-1.1,1.1c0,0.6,0.5,1.1,1.1,1.1h1.7
		c0.6,0,1.1-0.5,1.1-1.1C2365.9,1829.9,2365.5,1829.4,2364.9,1829.4z"/>
	<path id="Tracé_8161" class="st0" d="M2397.9,1815.2h-6.2v-6.9c0-0.6-0.5-1.1-1.1-1.1c0,0,0,0,0,0h-19.3v-11.7
		c0-0.6-0.5-1.1-1.1-1.1s-1.1,0.5-1.1,1.1l0,0v12.7c0,0.6,0.5,1.1,1.1,1.1l0,0h19.3v5.8h-6c-0.6,0-1.1,0.5-1.1,1.1v0v19.1
		c0,0.6,0.5,1.1,1.1,1.1l0,0h14.4c0.6,0,1.1-0.5,1.1-1.1v0v-19.1C2398.9,1815.6,2398.5,1815.2,2397.9,1815.2z M2396.8,1834.3h-12.2
		v-17h12.2V1834.3z"/>
	<path id="Tracé_8162" class="st0" d="M2387.6,1822.5h6.3c0.6,0,1.1-0.5,1.1-1.1c0-0.6-0.5-1.1-1.1-1.1h-6.3
		c-0.6,0-1.1,0.5-1.1,1.1C2386.5,1822.1,2387,1822.5,2387.6,1822.5z"/>
	<path id="Tracé_8163" class="st0" d="M2387.6,1827.1h6.3c0.6,0,1.1-0.5,1.1-1.1s-0.5-1.1-1.1-1.1c0,0,0,0,0,0h-6.3
		c-0.6,0-1.1,0.5-1.1,1.1C2386.5,1826.6,2387,1827.1,2387.6,1827.1z"/>
	<path id="Tracé_8164" class="st0" d="M2387.6,1831.6h1.7c0.6,0,1.1-0.5,1.1-1.1c0-0.6-0.5-1.1-1.1-1.1h-1.7
		c-0.6,0-1.1,0.5-1.1,1.1C2386.5,1831.1,2387,1831.6,2387.6,1831.6z"/>
	<path id="Tracé_8165" class="st0" d="M2350,1802.8h7.4c0.6,0,1.1-0.5,1.1-1.1s-0.5-1.1-1.1-1.1c0,0,0,0,0,0h-7.4
		c-4.6,0-8.3-3.7-8.3-8.3c0-2.9,1.5-5.5,3.9-7c0.1,0,0.1-0.1,0.2-0.1c0.1-0.1,0.2-0.1,0.3-0.2c0.1,0,0.1-0.1,0.2-0.1
		c0.1-0.1,0.3-0.1,0.4-0.2c0.1,0,0.2-0.1,0.2-0.1s0.2-0.1,0.2-0.1c0.1,0,0.3-0.1,0.4-0.1c0.1,0,0.1,0,0.2-0.1c0.1,0,0.2-0.1,0.4-0.1
		l0.2,0c0.2,0,0.3-0.1,0.5-0.1l0.1,0c0.2,0,0.3,0,0.5-0.1l0.1,0c0.2,0,0.4,0,0.6,0c1.8,0,3.6,0.6,5,1.7c0.5,0.4,1.1,0.3,1.5-0.2
		s0.3-1.1-0.2-1.5c-1.4-1-3-1.7-4.6-2c1.8-7.8,9.6-12.6,17.4-10.8c5.4,1.3,9.6,5.5,10.8,10.9c-1.7,0.4-3.3,1.2-4.7,2.4
		c-0.4,0.4-0.5,1.1-0.1,1.5c0.4,0.4,1.1,0.5,1.5,0.1c1.3-1.2,2.9-1.9,4.7-2.1c0.1,0,0.2,0,0.2,0c0.2,0,0.4,0,0.6,0
		c0.1,0,0.3,0,0.4,0c0.1,0,0.2,0,0.2,0s0.1,0,0.2,0c0.1,0,0.2,0,0.3,0l0.1,0c0.1,0,0.2,0,0.3,0.1l0.1,0c0.1,0,0.2,0,0.3,0.1l0.1,0
		c0.1,0,0.2,0.1,0.3,0.1l0.1,0c0.1,0,0.2,0.1,0.3,0.1l0,0c4.3,1.6,6.5,6.4,4.9,10.7c-1.2,3.3-4.3,5.4-7.8,5.4h-8.1
		c-0.6,0-1.1,0.5-1.1,1.1s0.5,1.1,1.1,1.1c0,0,0,0,0,0h8.1c5.8,0,10.4-4.7,10.4-10.4c0-4-2.3-7.7-5.9-9.4c0,0,0,0,0,0
		c-0.1-0.1-0.3-0.1-0.4-0.2l0,0c-0.1-0.1-0.3-0.1-0.4-0.2l-0.1,0c-0.1,0-0.3-0.1-0.4-0.1l-0.1,0c-0.1,0-0.3-0.1-0.4-0.1l-0.1,0
		c-0.1,0-0.3-0.1-0.4-0.1l-0.1,0c-0.1,0-0.3,0-0.4-0.1c-0.1,0-0.1,0-0.2,0c-0.1,0-0.2,0-0.3,0c-0.1,0-0.2,0-0.3,0s-0.2,0-0.3,0
		c-0.2,0-0.4,0-0.6,0c-0.1,0-0.2,0-0.2,0c-1.9-9-10.7-14.7-19.7-12.8c-6.4,1.4-11.5,6.4-12.8,12.8c-0.1,0-0.1,0-0.2,0l-0.2,0
		c-0.2,0-0.4,0-0.7,0.1l-0.1,0c-0.2,0-0.4,0.1-0.5,0.1l-0.2,0c-0.2,0-0.4,0.1-0.6,0.2c-0.1,0-0.2,0.1-0.2,0.1
		c-0.1,0-0.3,0.1-0.4,0.1c-0.1,0-0.2,0.1-0.3,0.1c-0.2,0.1-0.3,0.1-0.5,0.2c-0.1,0-0.2,0.1-0.3,0.1s-0.2,0.1-0.3,0.1
		c-0.2,0.1-0.3,0.2-0.5,0.3c-0.1,0.1-0.2,0.1-0.2,0.2c-0.1,0-0.1,0.1-0.1,0.1c0,0,0,0-0.1,0c-4.8,3.3-6,9.7-2.7,14.5
		C2343.4,1801.1,2346.6,1802.8,2350,1802.8L2350,1802.8z"/>
</g>
</svg>
