<?xml version="1.0" encoding="utf-8"?>
<!-- Generator: Adobe Illustrator 24.3.0, SVG Export Plug-In . SVG Version: 6.00 Build 0)  -->
<svg version="1.1" id="Calque_1" xmlns="http://www.w3.org/2000/svg" xmlns:xlink="http://www.w3.org/1999/xlink" x="0px" y="0px"
	 viewBox="0 0 87 80" style="enable-background:new 0 0 87 80;" xml:space="preserve">
<style type="text/css">
	.st0{fill:#1D2135;}
</style>
<g id="Groupe_3492" transform="translate(-4565.361 -2800.516)">
	<path id="Tracé_8168" class="st0" d="M4637.9,2863.4l-19-6.1l-0.6-7.4c0,0,0,0,0,0c1.3-1.5,3-4.2,3.2-6.2l0.2-1.4
		c0.1-1.1,0.5-2.1,1-3.1c0.9-1.6,1.4-3.4,1.4-5.2v-7.5c0-0.6-0.5-1.1-1.1-1.1s-1.1,0.5-1.1,1.1l0,0v7.5c0,1.4-0.4,2.9-1.1,4.1
		c-0.7,1.2-1.2,2.5-1.3,3.9l-0.2,1.4c-0.2,1.4-1.7,3.9-3,5.4c-0.2,0.4-0.2,0.9-0.3,1.3l0.7,8.1c0,0.4,0.3,0.8,0.8,1l19.7,6.3
		c3.5,1.1,5.8,4.3,5.8,8c0,0.6,0.5,1.1,1.1,1.1s1.1-0.5,1.1-1.1C4645.3,2868.8,4642.3,2864.8,4637.9,2863.4z"/>
	<path id="Tracé_8169" class="st0" d="M4640.2,2850.8l-0.2-2.9c0.7-0.9,1.3-1.9,1.5-3l0.1-0.7c0.1-0.4,0.2-0.9,0.4-1.2
		c0.5-0.8,0.7-1.8,0.7-2.8v-3.2c0-3.9-3.2-7.1-7.1-7.1s-7.1,3.2-7.1,7.1v3.4c0,0.9,0.2,1.7,0.6,2.4l0.1,0.2c0.2,0.3,0.3,0.7,0.3,1
		l0.1,0.8c0.2,1.1,0.7,2.1,1.4,2.9l-0.3,3l-8.6,2.8c-0.6,0.2-0.9,0.8-0.7,1.4c0.2,0.6,0.8,0.9,1.4,0.7l9.3-3c0.4-0.1,0.7-0.5,0.8-1
		l0.3-3.8c0-0.4-0.1-0.8-0.2-1.1c-0.5-0.6-1-1.4-1.2-2.1l-0.1-0.8c-0.1-0.6-0.3-1.2-0.5-1.8l-0.1-0.2c-0.2-0.5-0.3-1-0.3-1.5v-3.4
		c0-2.7,2.2-4.9,4.9-4.9s4.9,2.2,4.9,4.9v3.2c0,0.6-0.2,1.1-0.4,1.6c-0.4,0.6-0.6,1.3-0.7,2.1l-0.1,0.7c-0.3,0.8-0.7,1.6-1.3,2.2
		c-0.2,0.2-0.3,0.5-0.3,0.8c0,0.1,0,0.2,0,0.2l0.3,3.8c0,0.4,0.3,0.8,0.8,1l4.5,1.4c0.6,0.2,1.2-0.1,1.4-0.7
		c0.2-0.6-0.1-1.2-0.7-1.4L4640.2,2850.8z"/>
	<path id="Tracé_8170" class="st0" d="M4575.3,2854.3l5.1-1.6c0.4-0.1,0.7-0.5,0.8-1l0.3-3.8c0,0,0-0.1,0-0.1c0.1-0.3,0-0.7-0.2-1
		c-0.5-0.6-1-1.4-1.2-2.1l-0.1-0.8c-0.1-0.6-0.3-1.2-0.5-1.8l-0.1-0.2c-0.2-0.5-0.3-1-0.3-1.5v-3.4c0-2.7,2.2-4.9,4.9-4.9
		s4.9,2.2,4.9,4.9v3.2c0,0.6-0.2,1.1-0.4,1.6c-0.4,0.6-0.6,1.3-0.7,2.1l-0.1,0.7c-0.3,0.8-0.7,1.6-1.3,2.2c-0.2,0.2-0.3,0.5-0.3,0.8
		c0,0.1,0,0.2,0,0.2l0.3,3.8c0,0.4,0.3,0.8,0.8,1l9.3,3c0.6,0.2,1.2-0.1,1.4-0.7c0.2-0.6-0.1-1.2-0.7-1.4l-8.6-2.8l-0.2-2.9
		c0.7-0.9,1.3-1.9,1.5-3l0.1-0.7c0.1-0.4,0.2-0.9,0.4-1.2c0.5-0.8,0.7-1.8,0.7-2.8v-3.2c0-3.9-3.3-7.1-7.2-7.1c-3.9,0-7,3.2-7.1,7.1
		v3.4c0,0.9,0.2,1.7,0.6,2.4l0.1,0.2c0.2,0.3,0.3,0.7,0.3,1l0.1,0.8c0.2,1.1,0.7,2.1,1.4,2.9l-0.3,3l-4.4,1.4
		c-0.6,0.2-0.9,0.8-0.7,1.4C4574.2,2854.2,4574.8,2854.5,4575.3,2854.3L4575.3,2854.3z"/>
	<path id="Tracé_8171" class="st0" d="M4619.9,2830.1c0-0.5,0-1.1-0.1-1.6c-0.1-0.6-0.6-1-1.2-1c-0.6,0.1-1,0.6-1,1.2
		c0.1,0.4,0.1,0.9,0.1,1.3c0,5.1-3.3,9.2-7.5,9.2s-7.5-4.1-7.5-9.2s3.3-9.2,7.5-9.2c2.6,0.1,5,1.7,6.2,4l-3,1.9
		c-0.7-1-1.9-1.6-3.1-1.6c-2.3,0-4.2,2.2-4.2,4.9s1.9,4.9,4.2,4.9c1.6,0,3-1,3.7-2.5c0.3-0.5,0-1.2-0.5-1.5c-0.5-0.3-1.2,0-1.5,0.5
		l0,0c-0.3,0.7-1,1.2-1.7,1.2c-1.1,0-2-1.2-2-2.7s0.9-2.7,2-2.7c0.5,0,0.9,0.2,1.2,0.6l-1.8,1.1c-0.5,0.3-0.7,1-0.4,1.5
		s1,0.7,1.5,0.4l22.2-13.8l3,1.5c0.3,0.2,0.8,0.2,1.1,0l6.6-4.1c0.5-0.3,0.7-1,0.4-1.5c-0.1-0.2-0.3-0.3-0.4-0.4l-2.9-1.5v-3.6
		c0-0.6-0.5-1.1-1.1-1.1c-0.2,0-0.4,0.1-0.6,0.2l-6.6,4c-0.3,0.2-0.5,0.6-0.5,0.9v3.6l-9.3,5.8c-3.4-6.9-11.7-9.7-18.6-6.3
		c-4.7,2.3-7.7,7.2-7.7,12.4v7.1c0,1.6,0.4,3.2,1.1,4.6l0.2,0.4c0.4,0.8,0.7,1.7,0.8,2.6l0.2,1.7c0.3,2,1.9,4.5,3,6
		c0,0.1-0.1,0.2-0.1,0.3l-0.6,7.4l-19,6.1c-4.4,1.4-7.4,5.5-7.4,10.1c0,0.6,0.5,1.1,1.1,1.1s1.1-0.5,1.1-1.1c0-3.6,2.4-6.9,5.8-8
		l19.7-6.3c0.4-0.1,0.7-0.5,0.8-1l0.7-8.1c0-0.5-0.1-1-0.2-1.5c-1.2-1.5-2.6-3.8-2.8-5.2l-0.2-1.7c-0.1-1.2-0.5-2.3-1-3.3l-0.2-0.4
		c-0.6-1.1-0.9-2.4-0.9-3.6v-7.1c0-6.4,5.2-11.7,11.7-11.7c4.5,0,8.6,2.6,10.6,6.7l-2.5,1.6c-1.6-3-4.6-5-8-5.1
		c-5.3,0-9.7,5.1-9.7,11.4s4.3,11.4,9.7,11.4S4619.9,2836.3,4619.9,2830.1z M4636.5,2816.4l-1.3-0.7l4.4-2.7l1.3,0.7L4636.5,2816.4z
		 M4634.2,2812.3l4.4-2.7v1.5l-4.4,2.8V2812.3z"/>
</g>
</svg>
