<?xml version="1.0" encoding="utf-8"?>
<!-- Generator: Adobe Illustrator 24.3.0, SVG Export Plug-In . SVG Version: 6.00 Build 0)  -->
<svg version="1.1" id="Calque_1" xmlns="http://www.w3.org/2000/svg" xmlns:xlink="http://www.w3.org/1999/xlink" x="0px" y="0px"
	 viewBox="0 0 986.4 778.5" style="enable-background:new 0 0 986.4 778.5;" xml:space="preserve">
<style type="text/css">
	.st0{fill:none;}
	.st1{fill:#424444;}
	.st2{opacity:3.000000e-02;fill:#424444;enable-background:new    ;}
</style>
<polygon class="st0" points="-625.6,618.5 -681,586.5 -736,618.3 -680.6,650.2 "/>
<polygon class="st0" points="-568.5,585.5 -623.9,553.6 -678.9,585.3 -623.5,617.3 "/>
<polygon class="st0" points="-738,617.1 -683,585.3 -738.4,553.4 -793.4,585.1 "/>
<polygon class="st0" points="-511.1,618.7 -566.5,586.7 -621.5,618.5 -566.1,650.4 "/>
<polygon class="st0" points="-739.1,418.8 -684.1,387 -739.5,355.1 -794.5,386.8 "/>
<polygon class="st0" points="-739.5,352.7 -684.5,320.9 -739.8,289 -794.8,320.7 "/>
<polygon class="st0" points="-738.7,484.9 -683.8,453.1 -739.1,421.2 -794.1,452.9 "/>
<polygon class="st0" points="-738.4,551 -683.4,519.2 -738.8,487.3 -793.7,519 "/>
<polygon class="st0" points="-454.1,585.7 -509.4,553.8 -564.4,585.5 -509,617.5 "/>
<polygon class="st0" points="-282.1,619.1 -337.5,587.1 -392.5,618.9 -337.1,650.9 "/>
<polygon class="st0" points="-396.6,618.9 -452,586.9 -507,618.7 -451.6,650.6 "/>
<polygon class="st0" points="-339.6,585.9 -394.9,554 -449.9,585.7 -394.6,617.7 "/>
<polygon class="st0" points="-739.8,286.6 -684.8,254.8 -740.2,222.9 -795.2,254.6 "/>
<polygon class="st0" points="-795.5,188.5 -740.2,220.5 -685.2,188.7 -740.5,156.8 "/>
<polygon class="st0" points="-566.9,122.8 -511.6,154.8 -456.6,123 -511.9,91.1 "/>
<polygon class="st0" points="-681.4,122.6 -626,154.6 -571.1,122.8 -626.4,90.9 "/>
<polygon class="st0" points="-738.5,155.6 -683.1,187.5 -628.1,155.8 -683.5,123.8 "/>
<polygon class="st0" points="-624,155.8 -568.6,187.8 -513.6,156 -569,124 "/>
<polygon class="st0" points="-395,156.2 -339.6,188.2 -284.6,156.4 -340,124.4 "/>
<polygon class="st0" points="-452.4,123 -397.1,155 -342.1,123.2 -397.4,91.3 "/>
<polygon class="st0" points="-509.5,156 -454.1,188 -399.1,156.2 -454.5,124.3 "/>
<polygon class="st0" points="-850.1,684.2 -794.7,716.1 -739.7,684.4 -795.1,652.4 "/>
<polygon class="st0" points="-738,619.5 -793,651.2 -737.7,683.2 -682.7,651.4 "/>
<polygon class="st0" points="-740.1,618.3 -795.5,586.3 -850.4,618.1 -795.1,650 "/>
<polygon class="st0" points="-735.6,684.4 -680.2,716.3 -625.3,684.6 -680.6,652.6 "/>
<polygon class="st0" points="-741.5,353.9 -796.9,321.9 -851.9,353.7 -796.5,385.6 "/>
<polygon class="st0" points="-623.5,619.7 -678.5,651.4 -623.2,683.4 -568.2,651.7 "/>
<polygon class="st0" points="-741.2,420 -796.5,388 -851.5,419.8 -796.2,451.7 "/>
<polygon class="st0" points="-740.5,552.2 -795.8,520.2 -850.8,552 -795.5,583.9 "/>
<polygon class="st0" points="-740.8,486.1 -796.2,454.1 -851.2,485.9 -795.8,517.8 "/>
<polygon class="st0" points="-621.1,684.6 -565.8,716.6 -510.8,684.8 -566.1,652.8 "/>
<polygon class="st0" points="-392.1,685 -336.8,717 -281.8,685.2 -337.1,653.3 "/>
<polygon class="st0" points="-741.9,287.8 -797.3,255.8 -852.2,287.6 -796.9,319.5 "/>
<polygon class="st0" points="-394.6,620.1 -449.5,651.9 -394.2,683.8 -339.2,652.1 "/>
<polygon class="st0" points="-509,619.9 -564,651.7 -508.7,683.6 -453.7,651.9 "/>
<polygon class="st0" points="-506.6,684.8 -451.3,716.8 -396.3,685 -451.6,653.1 "/>
<polygon class="st0" points="-742.3,221.7 -797.6,189.7 -852.6,221.5 -797.3,253.4 "/>
<polygon class="st0" points="-340,122.1 -285,90.3 -340.4,58.3 -395.3,90.1 "/>
<polygon class="st0" points="-342.4,57.1 -397.8,25.2 -452.8,56.9 -397.4,88.9 "/>
<polygon class="st0" points="-685.9,56.5 -741.3,24.6 -796.3,56.3 -740.9,88.3 "/>
<polygon class="st0" points="-685.5,122.6 -740.9,90.7 -795.9,122.4 -740.5,154.4 "/>
<polygon class="st0" points="-742.6,155.6 -798,123.6 -853,155.4 -797.6,187.3 "/>
<polygon class="st0" points="-683.5,121.4 -628.5,89.7 -683.8,57.7 -738.8,89.5 "/>
<polygon class="st0" points="-456.9,56.9 -512.3,25 -567.3,56.7 -511.9,88.7 "/>
<polygon class="st0" points="-454.5,121.8 -399.5,90.1 -454.9,58.1 -509.8,89.9 "/>
<polygon class="st0" points="-569,121.6 -514,89.9 -569.3,57.9 -624.3,89.7 "/>
<polygon class="st0" points="-571.4,56.7 -626.8,24.8 -681.8,56.5 -626.4,88.5 "/>
<polygon class="st0" points="-508.4,354.3 -453.1,386.3 -398.1,354.5 -453.4,322.6 "/>
<polygon class="st0" points="-565.8,321.1 -510.5,353.1 -455.5,321.3 -510.8,289.4 "/>
<polygon class="st0" points="-622.9,354.1 -567.6,386.1 -512.6,354.3 -567.9,322.3 "/>
<polygon class="st0" points="-283.6,354.7 -338.9,322.8 -393.9,354.5 -338.6,386.5 "/>
<polygon class="st0" points="-567.2,452.2 -512.2,420.4 -567.6,388.5 -622.5,420.2 "/>
<polygon class="st0" points="-451.3,321.4 -396,353.3 -341,321.6 -396.4,289.6 "/>
<polygon class="st0" points="-451.7,255.2 -396.3,287.2 -341.4,255.5 -396.7,223.5 "/>
<polygon class="st0" points="-394.3,288.4 -338.9,320.4 -283.9,288.6 -339.3,256.7 "/>
<polygon class="st0" points="-283.2,420.8 -338.6,388.9 -393.6,420.6 -338.2,452.6 "/>
<polygon class="st0" points="-397.7,420.6 -453.1,388.7 -508.1,420.4 -452.7,452.4 "/>
<polygon class="st0" points="-340.6,387.7 -396,355.7 -451,387.5 -395.6,419.4 "/>
<polygon class="st0" points="-455.1,387.5 -510.5,355.5 -565.5,387.3 -510.1,419.2 "/>
<polygon class="st0" points="-623.6,221.9 -568.3,253.9 -513.3,222.1 -568.6,190.2 "/>
<polygon class="st0" points="-738.1,221.7 -682.8,253.6 -627.8,221.9 -683.1,189.9 "/>
<polygon class="st0" points="-681,188.7 -625.7,220.7 -570.7,188.9 -626,157 "/>
<polygon class="st0" points="-682,385.9 -627,354.1 -682.4,322.1 -737.4,353.9 "/>
<polygon class="st0" points="-509.1,222.1 -453.8,254.1 -398.8,222.3 -454.1,190.3 "/>
<polygon class="st0" points="-452.1,189.1 -396.7,221.1 -341.7,189.4 -397.1,157.4 "/>
<polygon class="st0" points="-566.6,189 -511.2,220.9 -456.2,189.2 -511.6,157.2 "/>
<polygon class="st0" points="-394.6,222.3 -339.3,254.3 -284.3,222.5 -339.6,190.6 "/>
<polygon class="st0" points="-681.7,451.9 -626.7,420.2 -682,388.2 -737,420 "/>
<polygon class="st0" points="-681.3,518.1 -626.3,486.3 -681.7,454.3 -736.7,486.1 "/>
<polygon class="st0" points="-397,552.8 -452.3,520.9 -507.3,552.6 -452,584.6 "/>
<polygon class="st0" points="-454.4,519.7 -509.8,487.7 -564.8,519.5 -509.4,551.4 "/>
<polygon class="st0" points="-339.9,519.9 -395.3,487.9 -450.3,519.7 -394.9,551.6 "/>
<polygon class="st0" points="-282.5,553 -337.8,521.1 -392.8,552.8 -337.5,584.8 "/>
<polygon class="st0" points="-681,584.2 -626,552.4 -681.3,520.5 -736.3,552.2 "/>
<polygon class="st0" points="-568.9,519.5 -624.3,487.5 -679.3,519.3 -623.9,551.2 "/>
<polygon class="st0" points="-511.5,552.6 -566.8,520.7 -621.8,552.4 -566.5,584.4 "/>
<polygon class="st0" points="-454.8,453.6 -510.1,421.6 -565.1,453.4 -509.8,485.3 "/>
<polygon class="st0" points="-625,352.9 -570,321.2 -625.3,289.2 -680.3,320.9 "/>
<polygon class="st0" points="-624.6,419 -569.6,387.3 -625,355.3 -680,387 "/>
<polygon class="st0" points="-511.8,486.5 -567.2,454.6 -622.2,486.3 -566.8,518.3 "/>
<polygon class="st0" points="-624.3,485.1 -569.3,453.4 -624.6,421.4 -679.6,453.1 "/>
<polygon class="st0" points="-566.2,255.1 -510.8,287 -455.8,255.3 -511.2,223.3 "/>
<polygon class="st0" points="-623.3,288 -567.9,320 -512.9,288.2 -568.3,256.2 "/>
<polygon class="st0" points="-680.7,254.8 -625.3,286.8 -570.3,255 -625.7,223.1 "/>
<polygon class="st0" points="-282.9,486.9 -338.2,455 -393.2,486.7 -337.9,518.7 "/>
<polygon class="st0" points="-340.3,453.8 -395.6,421.8 -450.6,453.6 -395.3,485.5 "/>
<polygon class="st0" points="-508.8,288.2 -453.4,320.2 -398.4,288.4 -453.8,256.5 "/>
<polygon class="st0" points="-397.3,486.7 -452.7,454.8 -507.7,486.5 -452.3,518.5 "/>
<polygon class="st0" points="-682.4,319.7 -627.4,288 -682.8,256 -737.8,287.8 "/>
<polygon class="st1" points="-817.6,0 -853,20.4 -853,22.8 -813.5,0 "/>
<path id="Tracé_8195" class="st2" d="M986.4,203.2C983.9,204.5,986,200.6,986.4,203.2L653.1,777.9c-0.9-0.6,1.7,1.6,0,0H0V-0.7
	h872.5L986.4,203.2z"/>
</svg>
