<?xml version="1.0" encoding="utf-8"?>
<!-- Generator: Adobe Illustrator 24.3.0, SVG Export Plug-In . SVG Version: 6.00 Build 0)  -->
<svg version="1.1" id="Calque_1" xmlns="http://www.w3.org/2000/svg" xmlns:xlink="http://www.w3.org/1999/xlink" x="0px" y="0px"
	 viewBox="0 0 87 80" style="enable-background:new 0 0 87 80;" xml:space="preserve">
<style type="text/css">
	.st0{fill:#00B9B4;}
</style>
<g id="Groupe_3491" transform="translate(92.67 -1245.833)">
	<path id="Tracé_8166" class="st0" d="M-45.1,1281.6h-7.5c-0.6,0-1.1,0.5-1.1,1.1v7.5c0,0.6,0.5,1.1,1.1,1.1h7.5
		c0.6,0,1.1-0.5,1.1-1.1v-7.5C-44.1,1282-44.5,1281.6-45.1,1281.6z M-46.2,1289h-5.4v-5.4h5.4V1289z"/>
	<path id="Tracé_8167" class="st0" d="M-18.4,1283.7c-1.2,0-2.2,0.7-2.6,1.8h-18v-1.8h5.3c0.3,0,0.7-0.2,0.9-0.5l1.7-2.5h5.3
		c0.6,1.4,2.2,2.1,3.7,1.5c1.4-0.6,2.1-2.2,1.5-3.7s-2.2-2.1-3.7-1.5c-0.7,0.3-1.3,0.9-1.6,1.6h-5.8c-0.3,0-0.7,0.2-0.9,0.5
		l-1.7,2.5H-39v-4.1c0-0.6-0.5-1.1-1.1-1.1h-0.3v-1.5l3.6-1.5c0.3-0.1,0.5-0.4,0.6-0.7l1-3.9c1.5-0.3,2.6-1.7,2.3-3.2
		c-0.3-1.5-1.7-2.6-3.2-2.3c-1.5,0.3-2.6,1.7-2.3,3.2c0.1,0.8,0.6,1.4,1.2,1.9l-0.8,3.4l-3.8,1.6c-0.4,0.2-0.6,0.5-0.6,1v2.2h-1.7
		v-4.6l2.5-1.7c0.3-0.2,0.5-0.5,0.5-0.9v-5.8c1.4-0.6,2.1-2.3,1.5-3.7c-0.6-1.4-2.3-2.1-3.7-1.5c-1.4,0.6-2.1,2.3-1.5,3.7
		c0.3,0.7,0.9,1.3,1.6,1.5v5.2l-2.5,1.7c-0.3,0.2-0.5,0.5-0.5,0.9v5.1H-48v-17.8c1.4-0.6,2.2-2.2,1.6-3.7c-0.6-1.4-2.2-2.2-3.7-1.6
		c-1.4,0.6-2.2,2.2-1.6,3.7c0.3,0.7,0.9,1.3,1.6,1.6v17.8h-1.8v-5.1c0-0.3-0.2-0.7-0.5-0.9l-2.5-1.7v-5.2c1.5-0.6,2.2-2.2,1.6-3.6
		c-0.6-1.5-2.2-2.2-3.6-1.6c-1.5,0.6-2.2,2.2-1.6,3.6c0.3,0.7,0.8,1.3,1.5,1.6v5.8c0,0.3,0.2,0.7,0.5,0.9l2.5,1.7v4.6h-1.7v-2.2
		c0-0.4-0.3-0.8-0.6-1l-3.8-1.6l-0.8-3.4c1.3-0.9,1.6-2.6,0.7-3.9c-0.9-1.3-2.6-1.6-3.9-0.7c-1.3,0.9-1.6,2.6-0.7,3.9
		c0.4,0.6,1.1,1.1,1.9,1.2l1,3.9c0.1,0.3,0.3,0.6,0.6,0.7l3.6,1.5v1.5c-0.5,0.1-0.9,0.5-0.9,1v4.1h-4.9l-1.7-2.5
		c-0.2-0.3-0.5-0.5-0.9-0.5H-72c-0.6-1.5-2.2-2.2-3.7-1.6c-1.5,0.6-2.2,2.2-1.6,3.7c0.6,1.5,2.2,2.2,3.7,1.6
		c0.7-0.3,1.3-0.8,1.6-1.6h5.3l1.7,2.5c0.2,0.3,0.5,0.5,0.9,0.5h5.5v1.8h-18.1c-0.6-1.5-2.2-2.2-3.6-1.6c-1.5,0.6-2.2,2.2-1.6,3.6
		s2.2,2.2,3.6,1.6c0.7-0.3,1.3-0.8,1.6-1.5h18.1v1.8h-5.5c-0.3,0-0.7,0.2-0.9,0.5l-1.7,2.5H-72c-0.5-1.5-2.1-2.2-3.6-1.7
		s-2.2,2.1-1.7,3.6c0.5,1.5,2.1,2.2,3.6,1.7c0.7-0.3,1.3-0.8,1.6-1.5h5.9c0.3,0,0.7-0.2,0.9-0.5l1.7-2.5h4.9v3.7c0,0.5,0.4,1,0.9,1
		v1.8l-3.6,1.5c-0.3,0.1-0.5,0.4-0.6,0.7l-1,3.9c-1.5,0.3-2.6,1.7-2.3,3.2c0.3,1.5,1.7,2.6,3.2,2.3c1.5-0.3,2.6-1.7,2.3-3.2
		c-0.1-0.8-0.6-1.4-1.2-1.9l0.8-3.4l3.8-1.6c0.4-0.2,0.7-0.5,0.7-1v-2.5h1.7v4.8l-2.5,1.7c-0.3,0.2-0.5,0.5-0.5,0.9v5.8
		c-1.4,0.6-2.1,2.3-1.5,3.7c0.6,1.4,2.3,2.1,3.7,1.5s2.1-2.3,1.5-3.7c-0.3-0.7-0.9-1.3-1.6-1.5v-5.2l2.5-1.7
		c0.3-0.2,0.5-0.5,0.5-0.9v-5.4h1.8v18c-1.4,0.6-2.1,2.2-1.6,3.7c0.6,1.4,2.2,2.1,3.7,1.6c1.4-0.6,2.1-2.2,1.6-3.7
		c-0.3-0.7-0.9-1.3-1.6-1.6v-18h1.8v5.4c0,0.3,0.2,0.7,0.5,0.9l2.5,1.7v5.2c-1.5,0.6-2.2,2.2-1.6,3.6c0.6,1.5,2.2,2.2,3.6,1.6
		c1.5-0.6,2.2-2.2,1.6-3.6c-0.3-0.7-0.8-1.3-1.5-1.6v-5.8c0-0.3-0.2-0.7-0.5-0.9l-2.5-1.7v-4.8h1.7v2.5c0,0.4,0.3,0.8,0.7,1l3.8,1.6
		l0.8,3.4c-1.3,0.9-1.6,2.6-0.7,3.9c0.9,1.3,2.6,1.6,3.9,0.7c1.3-0.9,1.6-2.6,0.7-3.9c-0.4-0.6-1.1-1.1-1.9-1.2l-1-3.9
		c-0.1-0.3-0.3-0.6-0.6-0.7l-3.6-1.5v-1.7h0.3c0.6,0,1.1-0.5,1.1-1.1v-3.7h4.8l1.7,2.5c0.2,0.3,0.5,0.5,0.9,0.5h5.9
		c0.6,1.4,2.3,2.1,3.7,1.4s2.1-2.3,1.4-3.7s-2.3-2.1-3.7-1.4c-0.7,0.3-1.2,0.9-1.5,1.6h-5.2l-1.7-2.5c-0.2-0.3-0.5-0.5-0.9-0.5H-39
		v-1.8h18c0.6,1.4,2.3,2.1,3.7,1.5c1.4-0.6,2.1-2.3,1.5-3.7C-16.2,1284.3-17.2,1283.7-18.4,1283.7L-18.4,1283.7z M-23.2,1278.9
		c0.4,0,0.7,0.3,0.7,0.7c0,0.4-0.3,0.7-0.7,0.7s-0.7-0.3-0.7-0.7C-23.9,1279.3-23.6,1278.9-23.2,1278.9L-23.2,1278.9z M-35.5,1265.3
		c0.4,0,0.7,0.3,0.7,0.7c0,0.4-0.3,0.7-0.7,0.7s-0.7-0.3-0.7-0.7C-36.2,1265.7-35.9,1265.3-35.5,1265.3L-35.5,1265.3z M-42.2,1260.2
		c0.4,0,0.7,0.3,0.7,0.7c0,0.4-0.3,0.7-0.7,0.7s-0.7-0.3-0.7-0.7C-42.9,1260.5-42.6,1260.2-42.2,1260.2L-42.2,1260.2z M-49.1,1255.3
		c0.4,0,0.7,0.3,0.7,0.7c0,0.3-0.2,0.6-0.6,0.7c0,0-0.1,0-0.1,0c0,0-0.1,0-0.1,0c-0.4-0.1-0.6-0.5-0.6-0.9
		C-49.7,1255.6-49.4,1255.4-49.1,1255.3z M-55.9,1260.2c0.4,0,0.7,0.3,0.7,0.7c0,0.4-0.3,0.7-0.7,0.7s-0.7-0.3-0.7-0.7
		C-56.6,1260.5-56.3,1260.2-55.9,1260.2L-55.9,1260.2z M-62.6,1265.3c0.4,0,0.7,0.3,0.7,0.7c0,0.4-0.3,0.7-0.7,0.7s-0.7-0.3-0.7-0.7
		C-63.3,1265.7-63,1265.3-62.6,1265.3L-62.6,1265.3z M-74.6,1280.4c-0.4,0-0.7-0.3-0.7-0.7s0.3-0.7,0.7-0.7c0.4,0,0.7,0.3,0.7,0.7
		c0,0,0,0,0,0.1s0,0,0,0C-74,1280.1-74.3,1280.4-74.6,1280.4L-74.6,1280.4z M-79.5,1287.2c-0.4,0-0.7-0.3-0.7-0.7s0.3-0.7,0.7-0.7
		c0.3,0,0.6,0.2,0.7,0.5c-0.1,0.2-0.1,0.4,0,0.5C-78.9,1287-79.2,1287.2-79.5,1287.2L-79.5,1287.2z M-74.6,1294
		c-0.4,0-0.7-0.3-0.7-0.7c0-0.4,0.3-0.7,0.7-0.7c0.4,0,0.7,0.3,0.7,0.7c0,0,0,0.1,0,0.1l0,0C-74,1293.8-74.3,1294-74.6,1294
		L-74.6,1294z M-62.6,1307.6c-0.4,0-0.7-0.3-0.7-0.7c0-0.4,0.3-0.7,0.7-0.7s0.7,0.3,0.7,0.7C-61.9,1307.3-62.2,1307.6-62.6,1307.6
		L-62.6,1307.6z M-55.9,1312.8c-0.4,0-0.7-0.3-0.7-0.7c0-0.4,0.3-0.7,0.7-0.7s0.7,0.3,0.7,0.7C-55.2,1312.5-55.5,1312.8-55.9,1312.8
		L-55.9,1312.8z M-49,1317.6c-0.4,0-0.7-0.3-0.7-0.7c0-0.4,0.3-0.7,0.7-0.7c0,0,0,0,0,0s0,0,0.1,0c0.4,0,0.7,0.4,0.7,0.8
		C-48.3,1317.3-48.7,1317.6-49,1317.6L-49,1317.6z M-42.2,1312.8c-0.4,0-0.7-0.3-0.7-0.7c0-0.4,0.3-0.7,0.7-0.7s0.7,0.3,0.7,0.7
		C-41.5,1312.5-41.8,1312.8-42.2,1312.8L-42.2,1312.8z M-35.5,1307.6c-0.4,0-0.7-0.3-0.7-0.7c0-0.4,0.3-0.7,0.7-0.7s0.7,0.3,0.7,0.7
		C-34.8,1307.3-35.1,1307.6-35.5,1307.6L-35.5,1307.6z M-23.2,1292.6c0.4,0,0.7,0.3,0.7,0.7c0,0.4-0.3,0.7-0.7,0.7s-0.7-0.3-0.7-0.7
		C-23.9,1292.9-23.6,1292.6-23.2,1292.6L-23.2,1292.6z M-56.6,1294.1v-15.6h15.6v15.6H-56.6z M-18.3,1287.2c-0.4,0-0.7-0.3-0.7-0.7
		c0-0.4,0.3-0.7,0.7-0.7s0.7,0.3,0.7,0.7C-17.6,1286.9-17.9,1287.2-18.3,1287.2C-18.3,1287.2-18.3,1287.2-18.3,1287.2L-18.3,1287.2z
		"/>
</g>
</svg>
