<?xml version="1.0" encoding="utf-8"?>
<!-- Generator: Adobe Illustrator 24.3.0, SVG Export Plug-In . SVG Version: 6.00 Build 0)  -->
<svg version="1.1" id="Calque_1" xmlns="http://www.w3.org/2000/svg" xmlns:xlink="http://www.w3.org/1999/xlink" x="0px" y="0px"
	 viewBox="0 0 216.2 40" style="enable-background:new 0 0 216.2 40;" xml:space="preserve">
<style type="text/css">
	.st0{fill:#0E0D0C;}
	.st1{clip-path:url(#SVGID_2_);}
	.st2{opacity:0.1;fill:#FFFFFF;enable-background:new    ;}
	.st3{fill:#FFFFFF;}
	.st4{fill:#FFE905;}
	.st5{fill:#161615;}
	.st6{fill:#424444;}
</style>
<g id="Groupe_25" transform="translate(-12.834 -9.463)">
	<g id="Groupe_19" transform="translate(12.834 9.463)">
		<path id="Rectangle_6" class="st0" d="M19.5,0H21c10.6,0,19.2,8.6,19.2,19.2v1.5C40.3,31.4,31.7,40,21,40h-1.5
			C8.9,40,0.3,31.4,0.3,20.8v-1.5C0.3,8.6,8.9,0,19.5,0z"/>
		<g id="Groupe_18">
			<g>
				<defs>
					<path id="SVGID_1_" d="M19.5,0H21c10.6,0,19.2,8.6,19.2,19.2v1.5C40.3,31.4,31.7,40,21,40h-1.5C8.9,40,0.3,31.4,0.3,20.8v-1.5
						C0.3,8.6,8.9,0,19.5,0z"/>
				</defs>
				<clipPath id="SVGID_2_">
					<use xlink:href="#SVGID_1_"  style="overflow:visible;"/>
				</clipPath>
				<g id="Groupe_17" class="st1">
					<ellipse id="Ellipse_3" class="st2" cx="34.6" cy="-13.4" rx="50.9" ry="43.5"/>
				</g>
			</g>
		</g>
	</g>
	<g id="Groupe_22" transform="translate(19.484 16.301)">
		<g id="Groupe_20" transform="translate(3.447 3.497)">
			<path id="Tracé_64" class="st3" d="M3,0.5c-0.6-0.6-1.6-0.6-2.2,0c-0.6,0.6-0.6,1.6,0,2.2l16.6,16.6c0.6,0.6,1.6,0.6,2.2,0
				s0.6-1.6,0-2.2L3,0.5z"/>
			<path id="Tracé_65" class="st3" d="M20.1,1.6c0-0.9-0.7-1.6-1.6-1.6c-0.4,0-0.8,0.2-1.1,0.5L0.7,17.1c-0.6,0.6-0.6,1.6,0.1,2.2
				c0.6,0.6,1.6,0.6,2.2,0L19.6,2.7C19.9,2.4,20.1,2,20.1,1.6z"/>
		</g>
		<g id="Groupe_21">
			<path id="Tracé_66" class="st4" d="M13.6,0c-1.1,0-2.1,0.9-2.1,2.1c0,1.1,0.9,2.1,2.1,2.1s2.1-0.9,2.1-2.1c0,0,0,0,0,0
				C15.7,0.9,14.8,0,13.6,0z"/>
			<path id="Tracé_67" class="st4" d="M13.6,22.2c-1.1,0-2.1,0.9-2.1,2.1c0,1.1,0.9,2.1,2.1,2.1c1.1,0,2.1-0.9,2.1-2.1
				C15.7,23.1,14.8,22.2,13.6,22.2z"/>
			<path id="Tracé_68" class="st4" d="M25.4,11.6H1.9c-0.9,0-1.6,0.7-1.5,1.6c0,0.8,0.7,1.5,1.5,1.5h23.5c0.9,0,1.6-0.7,1.5-1.6
				C26.9,12.3,26.2,11.6,25.4,11.6z"/>
		</g>
	</g>
	<g id="Groupe_23" transform="translate(65.31 17.587)">
		<path id="Tracé_69" class="st5" d="M4.1,4.5v9.8c0.1,0.8-0.3,1.6-0.8,2.2c-0.6,0.5-1.3,0.8-2.1,0.8c-0.3,0-0.6,0-0.8-0.1v-1.7
			c0.2,0,0.3,0,0.5,0c0.9,0,1.4-0.5,1.4-1.5V4.5H4.1z M3.1,2.6c-0.3,0-0.7-0.1-0.9-0.4C1.9,2,1.8,1.6,1.8,1.3c0-0.3,0.1-0.7,0.4-0.9
			C2.4,0.1,2.8,0,3.1,0C3.5,0,3.8,0.1,4,0.4c0.2,0.2,0.4,0.6,0.4,0.9C4.4,1.6,4.3,2,4,2.2C3.8,2.5,3.5,2.6,3.1,2.6L3.1,2.6z"/>
		<path id="Tracé_70" class="st5" d="M11,13.5c-1.2,0-2.4-0.4-3.3-1.3c-0.9-0.9-1.3-2.1-1.3-3.3c-0.1-2.5,1.9-4.5,4.4-4.6
			c0.1,0,0.2,0,0.2,0c2.3-0.1,4.2,1.6,4.3,3.9c0,0.2,0,0.3,0,0.5c0,0.2,0,0.4,0,0.6H8.3c0,0.7,0.3,1.3,0.8,1.7
			c1.3,1,3.2,0.8,4.3-0.5c0.1-0.1,0.1-0.1,0.1-0.2l1.5,1.1C14.2,12.9,12.7,13.7,11,13.5z M8.4,8h4.9c-0.1-0.6-0.4-1.1-0.8-1.4
			C12.1,6.2,11.5,6,11,6c-0.6,0-1.2,0.2-1.6,0.5C8.9,6.8,8.5,7.4,8.4,8L8.4,8z"/>
		<path id="Tracé_71" class="st5" d="M21.3,13.5c-1.2,0-2.3-0.5-3-1.3c-1.6-1.9-1.6-4.6,0-6.5c0.8-0.9,1.9-1.4,3-1.3
			c0.6,0,1.1,0.1,1.7,0.4c0.5,0.2,0.9,0.6,1.2,1V0.1H26v13.2h-1.9v-1.2c-0.3,0.4-0.7,0.7-1.2,1C22.4,13.4,21.9,13.5,21.3,13.5z
			 M19.7,11c1,1,2.6,1.1,3.7,0.1c0,0,0.1-0.1,0.1-0.1c1-1.2,1-2.9,0-4c-1-1-2.6-1.1-3.7-0.1c0,0-0.1,0.1-0.1,0.1
			C18.7,8.1,18.7,9.8,19.7,11z"/>
		<path id="Tracé_72" class="st5" d="M30,2.6c-0.3,0-0.7-0.1-0.9-0.4c-0.3-0.2-0.4-0.6-0.4-0.9c0-0.3,0.1-0.7,0.4-0.9
			C29.3,0.1,29.7,0,30,0c0.3,0,0.7,0.1,0.9,0.4c0.2,0.2,0.4,0.6,0.4,0.9c0,0.3-0.1,0.7-0.4,0.9C30.7,2.5,30.3,2.6,30,2.6z M29,13.4
			V4.5H31v8.8L29,13.4z"/>
		<path id="Tracé_73" class="st5" d="M36.7,13.4l-4-8.8h2.2l2.7,6.2l2.7-6.2h2.2l-4,8.8L36.7,13.4z"/>
		<path id="Tracé_74" class="st5" d="M45.1,2.6c-0.3,0-0.7-0.1-0.9-0.4c-0.3-0.2-0.4-0.6-0.4-0.9c0-0.3,0.1-0.7,0.4-0.9
			C44.4,0.1,44.8,0,45.1,0c0.3,0,0.7,0.1,0.9,0.4c0.2,0.2,0.4,0.6,0.4,0.9c0,0.3-0.1,0.7-0.4,0.9C45.8,2.5,45.5,2.6,45.1,2.6z
			 M44.1,13.4V4.5h1.9v8.8L44.1,13.4z"/>
		<path id="Tracé_75" class="st5" d="M51.9,13.5c-0.7,0-1.5-0.1-2.2-0.5c-0.6-0.3-1.1-0.8-1.4-1.4l1.4-1c0.2,0.4,0.5,0.7,0.8,0.9
			c0.4,0.2,0.8,0.3,1.3,0.3c0.3,0,0.6-0.1,0.9-0.2c0.4-0.3,0.5-0.8,0.2-1.2c0-0.1-0.1-0.1-0.1-0.2c-0.3-0.2-0.7-0.4-1.1-0.5L51,9.6
			c-1.6-0.4-2.3-1.3-2.3-2.7c0-0.7,0.3-1.4,0.9-1.8c0.7-0.5,1.5-0.7,2.3-0.7c1.2-0.1,2.3,0.5,3,1.5l-1.3,1c-0.4-0.6-1-0.9-1.7-0.9
			C51.5,6,51.2,6,51,6.2c-0.2,0.1-0.4,0.4-0.4,0.6c0,0.2,0.1,0.4,0.2,0.6c0.2,0.2,0.5,0.4,0.8,0.4l0.9,0.3c0.7,0.2,1.3,0.5,1.9,1
			c0.4,0.5,0.6,1.1,0.6,1.7c0,0.8-0.3,1.5-0.9,2C53.5,13.3,52.7,13.6,51.9,13.5z"/>
		<path id="Tracé_76" class="st5" d="M61.4,13.5c-1.2,0-2.4-0.4-3.3-1.3c-0.9-0.9-1.3-2.1-1.3-3.3c-0.1-2.5,1.9-4.5,4.4-4.6
			c0.1,0,0.2,0,0.2,0c2.3-0.1,4.2,1.6,4.3,3.9c0,0.2,0,0.3,0,0.5c0,0.2,0,0.4,0,0.6h-6.9c0,0.7,0.3,1.3,0.8,1.7
			c1.3,1,3.2,0.8,4.3-0.5c0.1-0.1,0.1-0.1,0.1-0.2l1.5,1.1C64.6,12.9,63,13.6,61.4,13.5z M58.8,8h4.9c-0.1-0.6-0.4-1.1-0.8-1.4
			c-0.4-0.3-1-0.5-1.5-0.5c-0.6,0-1.2,0.2-1.6,0.5C59.2,6.9,58.9,7.4,58.8,8L58.8,8z"/>
		<path id="Tracé_77" class="st5" d="M79.3,13.4v-5c0-0.6-0.1-1.2-0.4-1.7c-0.3-0.4-0.7-0.6-1.2-0.6c-0.6,0-1.1,0.3-1.5,0.7
			c-0.4,0.6-0.6,1.3-0.6,2v4.5h-1.9v-5c0-0.6-0.1-1.2-0.4-1.7c-0.3-0.4-0.7-0.6-1.2-0.6c-0.6,0-1.2,0.3-1.5,0.8
			C70.1,7.5,69.9,8.3,70,9v4.3H68V4.5H70v1.2c0.9-1.4,2.8-1.8,4.1-0.9c0.5,0.3,0.9,0.8,1.1,1.3c0.2-0.5,0.6-1,1.1-1.3
			c0.5-0.3,1.1-0.5,1.7-0.5c0.9,0,1.8,0.3,2.3,1c0.6,0.8,0.9,1.7,0.8,2.7v5.3L79.3,13.4z"/>
		<path id="Tracé_78" class="st5" d="M91.4,12.2c-1.8,1.8-4.8,1.8-6.6,0c-1.8-1.8-1.8-4.7,0-6.5c1.8-1.8,4.7-1.8,6.6,0
			S93.2,10.4,91.4,12.2L91.4,12.2z M88.1,11.7c0.7,0,1.4-0.3,1.9-0.8c1-1.1,1-2.8,0-4c-1-1.1-2.7-1.1-3.8,0c0,0,0,0,0,0
			c-1,1.1-1,2.8,0,4C86.6,11.5,87.3,11.8,88.1,11.7L88.1,11.7z"/>
		<path id="Tracé_79" class="st5" d="M95,13.4V4.5H97v1.2c0.6-0.9,1.6-1.5,2.7-1.4c0.9,0,1.8,0.3,2.5,1c0.6,0.7,1,1.7,0.9,2.7v5.3
			h-1.9v-5c0-0.6-0.1-1.2-0.5-1.7c-0.3-0.4-0.8-0.6-1.3-0.6c-0.6,0-1.2,0.3-1.6,0.8C97.1,7.5,96.9,8.2,97,9v4.3L95,13.4z"/>
		<path id="Tracé_80" class="st5" d="M109.6,13.4c-0.8,0-1.6-0.2-2.2-0.8c-0.6-0.6-0.9-1.4-0.8-2.2V6.3h-1.8V4.5h1.8V2.1h1.9v2.5
			h2.5v1.7h-2.5v3.9c-0.1,0.7,0.3,1.4,1,1.5c0.2,0,0.3,0,0.5,0c0.4,0,0.7,0,1-0.2v1.7C110.6,13.4,110.1,13.5,109.6,13.4z"/>
		<path id="Tracé_81" class="st5" d="M117.1,13.5c-2.5,0.1-4.7-1.8-4.8-4.4c-0.1-2.5,1.8-4.7,4.4-4.8c0.1,0,0.3,0,0.4,0
			c2.3-0.1,4.2,1.6,4.3,3.9c0,0.2,0,0.3,0,0.5c0,0.2,0,0.4,0,0.6h-6.9c0,0.7,0.3,1.3,0.8,1.7c1.3,1,3.2,0.8,4.3-0.5
			c0.1-0.1,0.1-0.1,0.1-0.2l1.5,1.1C120.3,12.9,118.7,13.6,117.1,13.5z M114.5,8h4.9c-0.1-0.6-0.4-1.1-0.8-1.4
			c-0.4-0.3-1-0.5-1.5-0.5c-0.6,0-1.2,0.2-1.6,0.5C114.9,6.8,114.6,7.4,114.5,8L114.5,8z"/>
		<path id="Tracé_82" class="st5" d="M123.7,13.4V4.5h1.9v1.6c0.2-0.5,0.5-0.9,0.9-1.2c0.4-0.3,0.9-0.5,1.4-0.5
			c0.3,0,0.5,0,0.8,0.1v2c-0.3-0.1-0.6-0.2-1-0.2c-0.6,0-1.1,0.3-1.5,0.7c-0.4,0.6-0.7,1.3-0.6,2v4.3H123.7z"/>
		<path id="Tracé_83" class="st5" d="M130.8,13.4V4.5h1.9v1.6c0.2-0.5,0.5-0.9,0.9-1.2c0.4-0.3,0.9-0.5,1.4-0.5
			c0.3,0,0.5,0,0.8,0.1v2c-0.3-0.1-0.6-0.2-1-0.2c-0.6,0-1.1,0.3-1.5,0.7c-0.4,0.6-0.7,1.3-0.6,2v4.3L130.8,13.4z"/>
		<path id="Tracé_84" class="st5" d="M141.2,13.5c-1.2,0-2.3-0.5-3-1.3c-1.6-1.9-1.6-4.6,0-6.5c0.8-0.9,1.9-1.4,3-1.3
			c0.6,0,1.1,0.1,1.7,0.4c0.5,0.2,0.9,0.6,1.2,1V4.5h1.9v8.8H144v-1.2c-0.3,0.4-0.7,0.7-1.2,1C142.3,13.4,141.8,13.5,141.2,13.5z
			 M139.6,11c1,1,2.6,1.1,3.7,0.1c0,0,0.1-0.1,0.1-0.1c1-1.2,1-2.9,0-4c-1-1-2.6-1.1-3.7-0.1c0,0-0.1,0.1-0.1,0.1
			C138.6,8.1,138.6,9.8,139.6,11z"/>
		<path id="Tracé_85" class="st5" d="M149.9,2.6c-0.3,0-0.7-0.1-0.9-0.4c-0.3-0.2-0.4-0.6-0.4-0.9c0-0.3,0.1-0.7,0.4-0.9
			c0.2-0.2,0.6-0.4,0.9-0.4c0.3,0,0.7,0.1,0.9,0.4c0.2,0.2,0.4,0.6,0.4,0.9c0,0.3-0.1,0.7-0.4,0.9C150.6,2.5,150.3,2.6,149.9,2.6z
			 M148.9,13.4V4.5h1.9v8.8L148.9,13.4z"/>
		<path id="Tracé_86" class="st5" d="M153.8,13.4V4.5h1.9v1.2c0.6-0.9,1.6-1.5,2.7-1.4c0.9,0,1.8,0.3,2.5,1c0.6,0.7,1,1.7,0.9,2.7
			v5.3h-1.9v-5c0-0.6-0.1-1.2-0.5-1.7c-0.3-0.4-0.8-0.6-1.3-0.6c-0.6,0-1.2,0.3-1.6,0.8c-0.5,0.6-0.7,1.4-0.6,2.1v4.3L153.8,13.4z"
			/>
	</g>
	<g id="Groupe_24" transform="translate(66.145 35.721)">
		<path id="Tracé_87" class="st6" d="M0.3,6.4V2.2h0.6V3C1,2.5,1.5,2.1,2.1,2.1c0.1,0,0.2,0,0.3,0v0.6C2.3,2.7,2.2,2.7,2,2.7
			c-0.3,0-0.6,0.2-0.8,0.4C1,3.4,0.8,3.8,0.9,4.2v2.1L0.3,6.4z"/>
		<path id="Tracé_88" class="st6" d="M5.1,6.4C4.5,6.5,4,6.2,3.5,5.8c-0.4-0.4-0.6-1-0.6-1.6c0-0.6,0.2-1.1,0.6-1.6
			c0.4-0.4,1-0.7,1.6-0.6c0.5,0,1,0.2,1.4,0.6c0.4,0.4,0.6,1,0.6,1.6v0.2H3.6c0,0.8,0.6,1.5,1.5,1.5c0,0,0.1,0,0.1,0
			c0.3,0,0.6-0.1,0.8-0.2c0.2-0.1,0.4-0.4,0.6-0.6L7,5.4C6.6,6.1,5.9,6.5,5.1,6.4z M3.6,3.8h2.9c0-0.3-0.2-0.7-0.5-0.9
			C5.8,2.7,5.4,2.6,5.1,2.6c-0.4,0-0.7,0.1-1,0.3C3.9,3.2,3.7,3.5,3.6,3.8z M4.9,1.7l0.8-1.6h0.8L5.4,1.7H4.9z"/>
		<path id="Tracé_89" class="st6" d="M9.6,6.4l-2-4.2h0.7l1.5,3.3l1.5-3.3h0.7l-2,4.2L9.6,6.4z"/>
		<path id="Tracé_90" class="st6" d="M14.7,6.4c-0.6,0-1.2-0.2-1.6-0.6c-0.4-0.4-0.6-1-0.6-1.6c0-0.6,0.2-1.1,0.6-1.6
			c0.4-0.4,1-0.7,1.6-0.6c0.5,0,1,0.2,1.4,0.6c0.4,0.4,0.6,1,0.6,1.6v0.2h-3.6c0,0.8,0.6,1.5,1.5,1.5c0,0,0.1,0,0.1,0
			c0.3,0,0.6-0.1,0.8-0.2c0.2-0.1,0.4-0.4,0.6-0.6l0.5,0.3C16.2,6.1,15.5,6.5,14.7,6.4z M13.2,3.8h2.9c0-0.3-0.2-0.7-0.5-0.9
			c-0.3-0.2-0.6-0.3-0.9-0.3c-0.4,0-0.7,0.1-1,0.3C13.5,3.2,13.3,3.5,13.2,3.8z M14.5,1.7l-1.1-1.6h0.8L15,1.7H14.5z"/>
		<path id="Tracé_91" class="st6" d="M18,6.4V0.1h0.6v6.3H18z"/>
		<path id="Tracé_92" class="st6" d="M22,6.5c-0.6,0-1.2-0.2-1.6-0.6c-0.4-0.4-0.6-1-0.6-1.6c0-0.6,0.2-1.1,0.6-1.6
			c0.4-0.4,1-0.7,1.6-0.6c0.5,0,1,0.2,1.4,0.6c0.4,0.4,0.6,1,0.6,1.6v0.2h-3.6c0,0.8,0.6,1.5,1.5,1.5c0,0,0.1,0,0.1,0
			c0.3,0,0.6-0.1,0.8-0.2c0.2-0.1,0.4-0.4,0.6-0.6l0.5,0.3C23.5,6.1,22.8,6.5,22,6.5z M20.5,3.8h2.9c0-0.3-0.2-0.7-0.5-0.9
			c-0.3-0.2-0.6-0.3-0.9-0.3c-0.4,0-0.7,0.1-1,0.3C20.7,3.2,20.6,3.5,20.5,3.8L20.5,3.8z"/>
		<path id="Tracé_93" class="st6" d="M27.5,6.4V0.1h0.6v6.3H27.5z"/>
		<path id="Tracé_94" class="st6" d="M31.5,6.5c-0.6,0-1.2-0.2-1.6-0.6c-0.4-0.4-0.6-1-0.6-1.6c0-0.6,0.2-1.1,0.6-1.6
			c0.4-0.4,1-0.7,1.6-0.6c0.5,0,1,0.2,1.4,0.6c0.4,0.4,0.6,1,0.6,1.6v0.2h-3.6c0,0.8,0.6,1.5,1.5,1.5c0,0,0.1,0,0.1,0
			c0.3,0,0.6-0.1,0.8-0.2c0.2-0.1,0.4-0.4,0.6-0.6l0.5,0.3C33,6.1,32.3,6.5,31.5,6.5z M30,3.8h2.9c0-0.3-0.2-0.7-0.5-0.9
			c-0.3-0.2-0.6-0.3-0.9-0.3c-0.4,0-0.7,0.1-1,0.3C30.2,3.2,30,3.5,30,3.8L30,3.8z"/>
		<path id="Tracé_95" class="st6" d="M38.8,6.4l-2.5-6h1.1l1.9,4.5l1.9-4.5h1.1l-2.5,6L38.8,6.4z"/>
		<path id="Tracé_96" class="st6" d="M43.1,6.4v-6h2.2c0.5,0,1,0.1,1.3,0.5c0.3,0.3,0.5,0.8,0.5,1.2c0,0.4-0.1,0.7-0.3,1
			c-0.3,0.3-0.6,0.5-1,0.6l2.2,2.7h-1.2l-2.2-2.6h-0.4v2.6L43.1,6.4z M44.1,2.9h1.1c0.2,0,0.5-0.1,0.7-0.2c0.3-0.3,0.3-0.8,0-1.1
			c0,0,0,0,0,0c-0.2-0.1-0.4-0.2-0.7-0.2h-1.1V2.9z"/>
		<path id="Tracé_97" class="st6" d="M48,6.4l2.6-6h0.9l2.6,6h-1l-0.7-1.6h-2.7L49,6.4L48,6.4z M51,1.7l-1,2.2H52L51,1.7z"/>
		<path id="Tracé_98" class="st6" d="M55,6.4v-6h1v6L55,6.4z"/>
		<path id="Tracé_99" class="st6" d="M60.6,8.1h-0.9v-6h0.9v0.6c0.1-0.2,0.3-0.4,0.6-0.5c0.2-0.1,0.5-0.2,0.8-0.2
			c0.6,0,1.1,0.2,1.4,0.6c0.8,0.9,0.8,2.2,0,3.1c-0.4,0.4-0.9,0.6-1.4,0.6c-0.3,0-0.6-0.1-0.8-0.2c-0.2-0.1-0.4-0.3-0.6-0.5V8.1z
			 M61.7,5.6c0.3,0,0.7-0.1,0.9-0.4c0.5-0.6,0.5-1.4,0-1.9c-0.2-0.3-0.6-0.4-0.9-0.4c-0.3,0-0.7,0.1-0.9,0.4c-0.5,0.6-0.5,1.4,0,1.9
			C61.1,5.5,61.4,5.6,61.7,5.6L61.7,5.6z"/>
		<path id="Tracé_100" class="st6" d="M68.5,5.8c-0.9,0.9-2.3,0.9-3.1,0c-0.9-0.9-0.9-2.3,0-3.1c0.9-0.9,2.3-0.9,3.1,0
			c0.4,0.4,0.7,1,0.7,1.6C69.2,4.8,68.9,5.4,68.5,5.8z M67,5.6c0.3,0,0.7-0.1,0.9-0.4c0.5-0.5,0.5-1.4,0-1.9c-0.5-0.5-1.3-0.5-1.8,0
			c0,0,0,0,0,0c-0.5,0.5-0.5,1.4,0,1.9C66.3,5.5,66.6,5.6,67,5.6L67,5.6z"/>
		<path id="Tracé_101" class="st6" d="M72,6.4c-0.4,0-0.8-0.1-1-0.4c-0.3-0.3-0.4-0.7-0.4-1V3h-0.9V2.2h0.9V1h0.9v1.2h1.2V3h-1.2
			v1.9c-0.1,0.3,0.1,0.6,0.5,0.7c0.1,0,0.2,0,0.2,0c0.2,0,0.3,0,0.5-0.1v0.8C72.5,6.4,72.2,6.4,72,6.4z"/>
		<path id="Tracé_102" class="st6" d="M75.6,6.5c-0.6,0-1.2-0.2-1.6-0.6c-0.9-0.9-0.9-2.2,0-3.1c0.4-0.4,1-0.7,1.6-0.7
			c1.1,0,2,0.8,2,1.9c0,0.1,0,0.2,0,0.2c0,0.1,0,0.2,0,0.3h-3.3c0,0.3,0.2,0.6,0.4,0.8c0.6,0.5,1.5,0.4,2-0.2c0,0,0-0.1,0.1-0.1
			l0.7,0.5C77.1,6.1,76.3,6.5,75.6,6.5z M74.3,3.8h2.3c0-0.3-0.2-0.5-0.4-0.7c-0.2-0.2-0.5-0.3-0.7-0.2c-0.3,0-0.6,0.1-0.8,0.2
			C74.5,3.3,74.4,3.5,74.3,3.8L74.3,3.8z"/>
		<path id="Tracé_103" class="st6" d="M78.7,6.4V2.2h0.9v0.6c0.3-0.4,0.8-0.7,1.3-0.7c0.4,0,0.9,0.2,1.2,0.5
			c0.3,0.4,0.5,0.8,0.4,1.3v2.5h-0.9V4c0-0.3-0.1-0.6-0.2-0.8C81.2,3,81,2.9,80.7,2.9c-0.3,0-0.6,0.1-0.8,0.4
			c-0.2,0.3-0.3,0.7-0.3,1v2.1L78.7,6.4z"/>
		<path id="Tracé_104" class="st6" d="M85.6,6.4c-0.4,0-0.8-0.1-1-0.4c-0.3-0.3-0.4-0.7-0.4-1V3h-0.9V2.2h0.9V1h0.9v1.2h1.2V3h-1.2
			v1.9c-0.1,0.3,0.1,0.6,0.5,0.7c0.1,0,0.2,0,0.2,0c0.2,0,0.3,0,0.5-0.1v0.8C86.1,6.4,85.9,6.4,85.6,6.4z"/>
		<path id="Tracé_105" class="st6" d="M87.8,1.2c-0.2,0-0.3-0.1-0.4-0.2c-0.1-0.1-0.2-0.3-0.2-0.4c0-0.2,0.1-0.3,0.2-0.4
			C87.5,0.1,87.7,0,87.8,0c0.2,0,0.3,0.1,0.4,0.2c0.1,0.1,0.2,0.3,0.2,0.4c0,0.2-0.1,0.3-0.2,0.4C88.2,1.2,88,1.2,87.8,1.2z
			 M87.4,6.4V2.2h0.9v4.2H87.4z"/>
		<path id="Tracé_106" class="st6" d="M91.6,6.5c-1.2,0-2.2-1-2.2-2.2c0-0.6,0.2-1.1,0.6-1.5c0.4-0.4,1-0.6,1.6-0.6
			c1.1,0,2,0.8,2,1.9c0,0.1,0,0.2,0,0.2c0,0.1,0,0.2,0,0.3h-3.3c0,0.3,0.2,0.6,0.4,0.8c0.6,0.5,1.5,0.4,2-0.2c0,0,0-0.1,0.1-0.1
			l0.7,0.5C93.1,6.1,92.4,6.5,91.6,6.5z M90.4,3.8h2.3c0-0.3-0.2-0.5-0.4-0.7c-0.2-0.2-0.5-0.3-0.7-0.2c-0.3,0-0.6,0.1-0.8,0.2
			C90.6,3.3,90.4,3.5,90.4,3.8L90.4,3.8z"/>
		<path id="Tracé_107" class="st6" d="M94.7,6.4V0.1h0.9v6.3H94.7z"/>
		<path id="Tracé_108" class="st6" d="M101.1,6.4c-0.6,0-1.1-0.2-1.5-0.6c-0.8-0.9-0.8-2.2,0-3.1c0.4-0.4,0.9-0.6,1.5-0.6
			c0.3,0,0.6,0.1,0.9,0.2c0.3,0.1,0.5,0.3,0.7,0.6V0.1h0.6v6.3h-0.6V5.7c-0.2,0.2-0.4,0.4-0.7,0.6C101.7,6.4,101.4,6.5,101.1,6.4z
			 M100,5.4c0.6,0.6,1.6,0.6,2.2,0c0,0,0,0,0,0c0.6-0.7,0.6-1.7,0-2.3c-0.6-0.6-1.6-0.6-2.2,0c0,0,0,0,0,0
			C99.4,3.8,99.4,4.8,100,5.4z"/>
		<path id="Tracé_109" class="st6" d="M106.6,6.5c-0.6,0-1.2-0.2-1.6-0.6c-0.4-0.4-0.6-1-0.6-1.6c0-0.6,0.2-1.1,0.6-1.6
			c0.4-0.4,1-0.7,1.6-0.6c0.5,0,1,0.2,1.4,0.6c0.4,0.4,0.6,1,0.6,1.6v0.2h-3.6c0,0.8,0.6,1.5,1.5,1.5c0,0,0.1,0,0.1,0
			c0.3,0,0.6-0.1,0.8-0.2c0.2-0.1,0.4-0.4,0.6-0.6l0.5,0.3C108.1,6.1,107.4,6.5,106.6,6.5z M105.1,3.8h2.9c0-0.3-0.2-0.7-0.5-0.9
			c-0.3-0.2-0.6-0.3-0.9-0.3c-0.4,0-0.7,0.1-1,0.3C105.4,3.2,105.2,3.5,105.1,3.8z"/>
		<path id="Tracé_110" class="st6" d="M113.2,6.4l-2-4.2h0.7l1.5,3.3l1.5-3.3h0.7l-2,4.2H113.2z"/>
		<path id="Tracé_111" class="st6" d="M120,5.8c-0.8,0.9-2.2,0.9-3.1,0c-0.4-0.4-0.7-1-0.7-1.6c0-0.6,0.2-1.1,0.6-1.6
			c0.9-0.8,2.3-0.8,3.1,0C120.8,3.6,120.8,4.9,120,5.8z M117.2,5.4c0.6,0.6,1.7,0.6,2.3,0c0,0,0,0,0,0c0.6-0.7,0.6-1.7,0-2.3
			c-0.6-0.6-1.7-0.6-2.3,0c0,0,0,0,0,0C116.6,3.8,116.6,4.8,117.2,5.4z"/>
		<path id="Tracé_112" class="st6" d="M123.3,6.4c-0.3,0-0.6-0.1-0.9-0.3c-0.2-0.2-0.4-0.6-0.3-0.9V2.7h-0.9V2.2h0.9V1h0.6v1.2h1.2
			v0.6h-1.2v2.4c-0.1,0.3,0.2,0.6,0.5,0.7c0.1,0,0.1,0,0.2,0c0.2,0,0.4,0,0.5-0.1v0.5C123.7,6.4,123.5,6.4,123.3,6.4z"/>
		<path id="Tracé_113" class="st6" d="M125,6.4V2.2h0.6V3c0.2-0.5,0.7-0.9,1.2-0.9c0.1,0,0.2,0,0.3,0v0.6c-0.1,0-0.2-0.1-0.4-0.1
			c-0.3,0-0.6,0.2-0.8,0.4c-0.3,0.3-0.4,0.7-0.4,1.1v2.1L125,6.4z"/>
		<path id="Tracé_114" class="st6" d="M129.9,6.5c-0.6,0-1.2-0.2-1.6-0.6c-0.4-0.4-0.6-1-0.6-1.6c0-0.6,0.2-1.1,0.6-1.6
			c0.4-0.4,1-0.7,1.6-0.6c0.5,0,1,0.2,1.4,0.6c0.4,0.4,0.6,1,0.6,1.6v0.2h-3.6c0,0.8,0.6,1.5,1.5,1.5c0,0,0.1,0,0.1,0
			c0.3,0,0.6-0.1,0.8-0.2c0.2-0.1,0.4-0.4,0.6-0.6l0.5,0.3C131.3,6.1,130.6,6.5,129.9,6.5z M128.3,3.8h2.9c0-0.3-0.2-0.7-0.5-0.9
			c-0.3-0.2-0.6-0.3-0.9-0.3c-0.4,0-0.7,0.1-1,0.3C128.6,3.2,128.4,3.5,128.3,3.8L128.3,3.8z"/>
		<path id="Tracé_115" class="st6" d="M136.7,6.4c-0.3,0-0.6-0.1-0.9-0.3c-0.2-0.2-0.4-0.6-0.3-0.9V2.7h-0.9V2.2h0.9V1h0.6v1.2h1.2
			v0.6h-1.2v2.4c-0.1,0.3,0.2,0.6,0.5,0.7c0.1,0,0.1,0,0.2,0c0.2,0,0.4,0,0.5-0.1v0.5C137.1,6.4,136.9,6.4,136.7,6.4z"/>
		<path id="Tracé_116" class="st6" d="M140.2,6.5c-0.6,0-1.2-0.2-1.6-0.6c-0.4-0.4-0.6-1-0.6-1.6c0-0.6,0.2-1.1,0.6-1.6
			c0.4-0.4,1-0.7,1.6-0.6c0.5,0,1,0.2,1.4,0.6c0.4,0.4,0.6,1,0.6,1.6v0.2h-3.6c0,0.8,0.6,1.5,1.5,1.5c0,0,0.1,0,0.1,0
			c0.3,0,0.6-0.1,0.8-0.2c0.2-0.1,0.4-0.4,0.6-0.6l0.5,0.3C141.7,6.1,141,6.5,140.2,6.5z M138.7,3.8h2.9c0-0.3-0.2-0.7-0.5-0.9
			c-0.3-0.2-0.6-0.3-0.9-0.3c-0.4,0-0.7,0.1-1,0.3C138.9,3.2,138.7,3.5,138.7,3.8L138.7,3.8z"/>
		<path id="Tracé_117" class="st6" d="M143.4,6.4V2.2h0.6V3c0.2-0.5,0.7-0.9,1.2-0.9c0.1,0,0.2,0,0.3,0v0.6c-0.1,0-0.2-0.1-0.4-0.1
			c-0.3,0-0.6,0.2-0.8,0.4c-0.3,0.3-0.4,0.7-0.4,1.1v2.1L143.4,6.4z"/>
		<path id="Tracé_118" class="st6" d="M146.6,6.4V2.2h0.6V3c0.2-0.5,0.7-0.9,1.2-0.9c0.1,0,0.2,0,0.3,0v0.6c-0.1,0-0.2-0.1-0.4-0.1
			c-0.3,0-0.6,0.2-0.8,0.4c-0.3,0.3-0.4,0.7-0.4,1.1v2.1L146.6,6.4z"/>
		<path id="Tracé_119" class="st6" d="M151.4,6.5c-0.6,0-1.1-0.2-1.5-0.6c-0.8-0.9-0.8-2.2,0-3.1c0.4-0.4,0.9-0.6,1.5-0.6
			c0.3,0,0.6,0.1,0.9,0.2c0.3,0.1,0.5,0.3,0.7,0.6V2.2h0.6v4.2h-0.6V5.7c-0.2,0.2-0.4,0.4-0.7,0.6C152,6.4,151.7,6.5,151.4,6.5z
			 M150.3,5.4c0.6,0.6,1.6,0.6,2.2,0c0,0,0,0,0,0c0.6-0.7,0.6-1.7,0-2.3c-0.6-0.6-1.6-0.6-2.2,0c0,0,0,0,0,0
			C149.7,3.8,149.7,4.8,150.3,5.4z"/>
		<path id="Tracé_120" class="st6" d="M155.4,0.9c-0.1,0-0.2,0-0.3-0.1c-0.2-0.2-0.2-0.5,0-0.6c0,0,0,0,0,0
			c0.1-0.1,0.2-0.1,0.3-0.1c0.1,0,0.2,0,0.3,0.1c0.2,0.2,0.2,0.5,0,0.6C155.6,0.8,155.5,0.9,155.4,0.9z M155.1,6.4V2.2h0.6v4.2
			H155.1z"/>
		<path id="Tracé_121" class="st6" d="M157.3,6.4V2.2h0.6v0.7c0.3-0.5,0.8-0.8,1.4-0.8c0.4,0,0.8,0.1,1.1,0.4
			c0.3,0.3,0.5,0.8,0.4,1.2v2.6h-0.6V3.8c0-0.3-0.1-0.6-0.3-0.9c-0.2-0.2-0.5-0.3-0.8-0.3c-0.4,0-0.7,0.2-0.9,0.4
			c-0.3,0.3-0.4,0.8-0.4,1.2v2.1L157.3,6.4z"/>
	</g>
</g>
</svg>
