<?xml version="1.0" encoding="utf-8"?>
<!-- Generator: Adobe Illustrator 24.3.0, SVG Export Plug-In . SVG Version: 6.00 Build 0)  -->
<svg version="1.1" id="Calque_1" xmlns="http://www.w3.org/2000/svg" xmlns:xlink="http://www.w3.org/1999/xlink" x="0px" y="0px"
	 viewBox="0 0 670 335" style="enable-background:new 0 0 670 335;" xml:space="preserve">
<style type="text/css">
	.st0{fill:#E85D00;}
	.st1{fill:#00B9B4;}
	.st2{fill:#90D960;}
	.st3{fill:#60C8D9;}
	.st4{fill:#3CDB81;}
	.st5{fill:#AEBBC0;}
	.st6{enable-background:new    ;}
	.st7{fill:#FFFFFF;}
	.st8{fill:none;stroke:#D8DDE2;stroke-linecap:round;}
	.st9{fill:none;stroke:#D8DDE2;stroke-linecap:round;stroke-dasharray:5,5;}
	.st10{fill:#9D68D9;}
	.st11{fill:#FFAD4D;}
	.st12{fill:#FFE920;}
</style>
<path id="Rectangle_938" class="st0" d="M212,102.5h219c13.8,0,25,11.2,25,25l0,0c0,13.8-11.2,25-25,25H212c-13.8,0-25-11.2-25-25
	l0,0C187,113.7,198.2,102.5,212,102.5z"/>
<path id="Rectangle_939" class="st1" d="M212,2.5h219c13.8,0,25,11.2,25,25l0,0c0,13.8-11.2,25-25,25H212c-13.8,0-25-11.2-25-25l0,0
	C187,13.7,198.2,2.5,212,2.5z"/>
<path id="Rectangle_940" class="st2" d="M362,202.5h93c11,0,20,9,20,20l0,0c0,11-9,20-20,20h-93c-11,0-20-9-20-20l0,0
	C342,211.5,351,202.5,362,202.5z"/>
<path id="Rectangle_942" class="st3" d="M81,291.5h79c11,0,20,9,20,20l0,0c0,11-9,20-20,20H81c-11,0-20-9-20-20l0,0
	C61,300.5,70,291.5,81,291.5z"/>
<path id="Rectangle_943" class="st4" d="M362,291.5h140c11,0,20,9,20,20l0,0c0,11-9,20-20,20H362c-11,0-20-9-20-20l0,0
	C342,300.5,351,291.5,362,291.5z"/>
<path id="Rectangle_944" class="st5" d="M220,291.5h61c11,0,20,9,20,20l0,0c0,11-9,20-20,20h-61c-11,0-20-9-20-20l0,0
	C200,300.5,209,291.5,220,291.5z"/>
<g class="st6">
	<path class="st7" d="M208.1,134.5l6.2-14.2h2l6.2,14.2h-2.4l-1.6-3.7h-6.4l-1.6,3.7H208.1z M215.3,123.5l-2.3,5.2h4.6L215.3,123.5z
		"/>
	<path class="st7" d="M230.7,134.7c-2.2,0-4.1-0.7-5.5-2.1c-1.4-1.4-2.2-3.1-2.2-5.2c0-2.1,0.7-3.8,2.1-5.2c1.4-1.4,3.2-2.1,5.3-2.1
		c2.3,0,4.1,0.7,5.5,2.1l-1.6,1.7c-1-1-2.3-1.5-3.9-1.5c-1.5,0-2.7,0.5-3.6,1.5c-1,1-1.4,2.2-1.4,3.6c0,1.5,0.5,2.7,1.4,3.6
		s2.2,1.4,3.9,1.4c1.5,0,2.7-0.3,3.4-0.9v-3.2h-3.6v-2.2h5.8v6.5c-0.6,0.7-1.4,1.2-2.4,1.5C232.9,134.6,231.8,134.7,230.7,134.7z"/>
	<path class="st7" d="M239.2,134.5v-14.2h8.5v2.2h-6.2v3.6h5v2.2h-5v3.8h6.2v2.2H239.2z"/>
	<path class="st7" d="M262.8,134.5h-2l-8-10.2v10.2h-2.3v-14.2h2l8,10.2v-10.2h2.4V134.5z"/>
	<path class="st7" d="M272.7,134.7c-2,0-3.8-0.7-5.2-2.1s-2.1-3.2-2.1-5.2c0-2.1,0.7-3.8,2.1-5.2c1.4-1.4,3.2-2.1,5.2-2.1
		c1.4,0,2.6,0.3,3.7,1s2,1.5,2.7,2.6l-2,1.2c-1-1.7-2.5-2.5-4.4-2.5c-1.4,0-2.6,0.5-3.5,1.5c-1,1-1.4,2.2-1.4,3.6s0.5,2.6,1.4,3.6
		c1,1,2.1,1.5,3.5,1.5c1.9,0,3.4-0.8,4.4-2.5l2,1.2c-0.7,1.1-1.5,2-2.7,2.6C275.3,134.4,274.1,134.7,272.7,134.7z"/>
	<path class="st7" d="M281.3,134.5v-14.2h8.5v2.2h-6.2v3.6h5v2.2h-5v3.8h6.2v2.2H281.3z"/>
	<path class="st7" d="M296.5,134.7c-1.1,0-2.2-0.2-3.1-0.7c-0.9-0.5-1.6-1.1-2-1.9l1.8-1.5c0.8,1.2,1.9,1.8,3.3,1.8
		c0.7,0,1.2-0.2,1.7-0.5c0.4-0.3,0.6-0.8,0.6-1.3c0-0.9-0.7-1.7-2-2.2l-1.6-0.6c-1.1-0.4-2-0.9-2.5-1.6c-0.5-0.6-0.8-1.5-0.8-2.4
		c0-1.2,0.4-2.2,1.3-2.9s2-1.1,3.3-1.1c1.8,0,3.2,0.6,4.3,1.9l-1.6,1.6c-0.7-0.9-1.6-1.3-2.7-1.3c-0.6,0-1.2,0.1-1.6,0.4
		s-0.6,0.7-0.6,1.2c0,0.5,0.2,0.9,0.5,1.2c0.3,0.3,0.9,0.6,1.7,0.9l1.4,0.5c1.1,0.4,1.9,1,2.5,1.6c0.6,0.7,0.9,1.5,0.8,2.5
		c0,1.2-0.4,2.2-1.3,3C299.1,134.4,297.9,134.7,296.5,134.7z"/>
	<path class="st7" d="M308.5,134.5v-14.2h2.3v14.2H308.5z"/>
	<path class="st7" d="M314.3,120.3h2.1l5,6.7l5-6.7h2.1v14.2h-2.4v-10.2l-4.7,6.4l-4.8-6.5v10.2h-2.3V120.3z"/>
	<path class="st7" d="M332,120.3h2.1l5,6.7l5-6.7h2.1v14.2h-2.4v-10.2l-4.7,6.4l-4.8-6.5v10.2H332V120.3z"/>
	<path class="st7" d="M361.4,132.6c-1.4,1.4-3.2,2.1-5.2,2.1c-2,0-3.8-0.7-5.2-2.1c-1.4-1.4-2.1-3.2-2.1-5.2c0-2.1,0.7-3.8,2.1-5.2
		c1.4-1.4,3.2-2.1,5.2-2.1c2,0,3.8,0.7,5.2,2.1s2.1,3.2,2.1,5.2S362.8,131.2,361.4,132.6z M356.2,132.5c1.4,0,2.6-0.5,3.5-1.5
		c1-1,1.4-2.2,1.4-3.6s-0.5-2.6-1.4-3.6c-1-1-2.1-1.5-3.5-1.5c-1.4,0-2.6,0.5-3.5,1.5c-1,1-1.4,2.2-1.4,3.6s0.5,2.6,1.4,3.6
		C353.6,132,354.8,132.5,356.2,132.5z"/>
	<path class="st7" d="M366.1,134.5v-14.2h4.9c1.2,0,2.3,0.4,3,1.1c0.8,0.8,1.2,1.7,1.2,2.8c0,1.2-0.4,2.1-1.3,2.7
		c1.5,0.6,2.3,1.8,2.3,3.4c0,1.2-0.4,2.2-1.3,3c-0.9,0.8-2,1.2-3.3,1.2H366.1z M368.4,126.3h2.4c0.6,0,1.1-0.2,1.5-0.5
		c0.4-0.4,0.6-0.8,0.6-1.4c0-0.5-0.2-1-0.6-1.4c-0.4-0.4-0.9-0.6-1.5-0.6h-2.4V126.3z M368.4,132.4h3.1c0.7,0,1.3-0.2,1.7-0.6
		c0.4-0.4,0.6-0.9,0.6-1.5c0-0.6-0.2-1.1-0.6-1.5c-0.4-0.4-1-0.6-1.7-0.6h-3.1V132.4z"/>
	<path class="st7" d="M378.7,134.5v-14.2h2.3v14.2H378.7z"/>
	<path class="st7" d="M384.5,134.5v-14.2h2.3v12h6.5v2.2H384.5z"/>
	<path class="st7" d="M395.5,134.5v-14.2h2.3v14.2H395.5z"/>
	<path class="st7" d="M401.3,134.5v-14.2h8.5v2.2h-6.2v3.6h5v2.2h-5v3.8h6.2v2.2H401.3z M406.4,119.1h-1.7l-2.4-3.1h2.6L406.4,119.1
		z"/>
	<path class="st7" d="M412.6,134.5v-14.2h5.1c1.3,0,2.3,0.4,3.1,1.1c0.8,0.8,1.2,1.7,1.2,2.9c0,1-0.3,1.8-0.8,2.5
		c-0.6,0.6-1.4,1.1-2.4,1.3l5.3,6.4h-2.9l-5.2-6.2h-1.1v6.2H412.6z M414.9,126.2h2.5c0.7,0,1.2-0.2,1.6-0.5c0.4-0.3,0.6-0.8,0.6-1.4
		c0-0.6-0.2-1.1-0.6-1.4c-0.4-0.3-0.9-0.5-1.6-0.5h-2.5V126.2z"/>
	<path class="st7" d="M425.5,134.5v-14.2h8.5v2.2h-6.2v3.6h5v2.2h-5v3.8h6.2v2.2H425.5z"/>
</g>
<g class="st6">
	<path class="st7" d="M368,218.5c0.6,0.6,1,1.4,1,2.3c0,0.9-0.3,1.7-1,2.3c-0.6,0.6-1.5,0.9-2.5,0.9H364v3.4h-1.6v-9.9h3.2
		C366.6,217.6,367.4,217.9,368,218.5z M366.9,222c0.3-0.3,0.5-0.7,0.5-1.2c0-0.5-0.2-0.9-0.5-1.2c-0.3-0.3-0.8-0.5-1.4-0.5H364v3.4
		h1.5C366.1,222.5,366.6,222.4,366.9,222z"/>
	<path class="st7" d="M370.6,227.5v-9.9h3.6c0.9,0,1.6,0.3,2.2,0.8c0.5,0.5,0.8,1.2,0.8,2c0,0.7-0.2,1.3-0.6,1.7
		c-0.4,0.5-0.9,0.8-1.7,0.9l3.7,4.5h-2l-3.6-4.4h-0.7v4.4H370.6z M372.3,221.7h1.8c0.5,0,0.9-0.1,1.1-0.3s0.4-0.6,0.4-1
		s-0.1-0.7-0.4-1s-0.7-0.3-1.1-0.3h-1.8V221.7z"/>
	<path class="st7" d="M387.6,226.2c-1,1-2.2,1.5-3.6,1.5c-1.4,0-2.6-0.5-3.6-1.5c-1-1-1.5-2.2-1.5-3.6s0.5-2.7,1.5-3.6
		c1-1,2.2-1.5,3.6-1.5c1.4,0,2.6,0.5,3.6,1.5c1,1,1.5,2.2,1.5,3.6C389.1,224,388.6,225.2,387.6,226.2z M383.9,226.1
		c1,0,1.8-0.3,2.5-1c0.7-0.7,1-1.5,1-2.5s-0.3-1.8-1-2.5c-0.7-0.7-1.5-1-2.5-1c-1,0-1.8,0.3-2.5,1c-0.7,0.7-1,1.5-1,2.5
		s0.3,1.8,1,2.5C382.1,225.7,382.9,226.1,383.9,226.1z"/>
	<path class="st7" d="M390.8,217.6h1.5l3.5,4.7l3.5-4.7h1.5v9.9h-1.7v-7.1l-3.3,4.5l-3.3-4.5v7.1h-1.6V217.6z"/>
	<path class="st7" d="M411.4,226.2c-1,1-2.2,1.5-3.6,1.5c-1.4,0-2.6-0.5-3.6-1.5c-1-1-1.5-2.2-1.5-3.6s0.5-2.7,1.5-3.6
		c1-1,2.2-1.5,3.6-1.5c1.4,0,2.6,0.5,3.6,1.5c1,1,1.5,2.2,1.5,3.6C412.9,224,412.4,225.2,411.4,226.2z M407.7,226.1
		c1,0,1.8-0.3,2.5-1c0.7-0.7,1-1.5,1-2.5s-0.3-1.8-1-2.5c-0.7-0.7-1.5-1-2.5-1c-1,0-1.8,0.3-2.5,1c-0.7,0.7-1,1.5-1,2.5
		s0.3,1.8,1,2.5C405.9,225.7,406.8,226.1,407.7,226.1z"/>
	<path class="st7" d="M416.1,227.5v-8.4h-2.9v-1.6h7.4v1.6h-2.9v8.4H416.1z"/>
	<path class="st7" d="M422.1,227.5v-9.9h6v1.6h-4.3v2.5h3.5v1.6h-3.5v2.7h4.3v1.6H422.1z"/>
	<path class="st7" d="M433.9,227.7c-1.2,0-2.1-0.4-2.9-1.1c-0.7-0.7-1.1-1.7-1.1-3v-6h1.6v6.1c0,0.8,0.2,1.4,0.6,1.8
		c0.4,0.4,1,0.6,1.7,0.6c0.7,0,1.3-0.2,1.7-0.6c0.4-0.4,0.6-1,0.6-1.8v-6.1h1.6v6c0,1.2-0.4,2.2-1.1,2.9
		C436,227.3,435,227.7,433.9,227.7z"/>
	<path class="st7" d="M440.1,227.5v-9.9h3.6c0.9,0,1.6,0.3,2.2,0.8c0.5,0.5,0.8,1.2,0.8,2c0,0.7-0.2,1.3-0.6,1.7
		c-0.4,0.5-0.9,0.8-1.7,0.9l3.7,4.5h-2l-3.6-4.4h-0.7v4.4H440.1z M441.8,221.7h1.8c0.5,0,0.9-0.1,1.1-0.3c0.3-0.2,0.4-0.6,0.4-1
		s-0.1-0.7-0.4-1c-0.3-0.2-0.7-0.3-1.1-0.3h-1.8V221.7z"/>
	<path class="st7" d="M451.9,227.7c-0.8,0-1.5-0.2-2.1-0.5c-0.6-0.3-1.1-0.8-1.4-1.3l1.3-1c0.6,0.8,1.3,1.3,2.3,1.3
		c0.5,0,0.9-0.1,1.2-0.3s0.4-0.5,0.4-0.9c0-0.7-0.5-1.2-1.4-1.5l-1.1-0.4c-0.8-0.3-1.4-0.7-1.8-1.1c-0.4-0.5-0.6-1-0.6-1.7
		c0-0.8,0.3-1.5,0.9-2c0.6-0.5,1.4-0.8,2.3-0.8c1.3,0,2.3,0.5,3,1.4l-1.1,1.1c-0.5-0.6-1.1-0.9-1.9-0.9c-0.4,0-0.8,0.1-1.1,0.3
		c-0.3,0.2-0.5,0.5-0.5,0.8c0,0.3,0.1,0.6,0.3,0.8c0.2,0.2,0.6,0.4,1.2,0.6l1,0.4c0.8,0.3,1.3,0.7,1.8,1.1c0.4,0.5,0.6,1.1,0.6,1.8
		c0,0.9-0.3,1.6-0.9,2.1S452.9,227.7,451.9,227.7z"/>
</g>
<g class="st6">
	<path class="st7" d="M81.3,316.5v-9.9H83v8.4h4.5v1.6H81.3z"/>
	<path class="st7" d="M96.6,315.2c-1,1-2.2,1.5-3.6,1.5c-1.4,0-2.6-0.5-3.6-1.5s-1.5-2.2-1.5-3.6s0.5-2.7,1.5-3.6s2.2-1.5,3.6-1.5
		c1.4,0,2.6,0.5,3.6,1.5c1,1,1.5,2.2,1.5,3.6C98.1,313,97.6,314.2,96.6,315.2z M93,315.1c1,0,1.8-0.3,2.5-1c0.7-0.7,1-1.5,1-2.5
		s-0.3-1.8-1-2.5c-0.7-0.7-1.5-1-2.5-1c-1,0-1.8,0.3-2.5,1c-0.7,0.7-1,1.5-1,2.5s0.3,1.8,1,2.5C91.2,314.7,92,315.1,93,315.1z"/>
	<path class="st7" d="M101.4,316.5v-8.4h-2.9v-1.6h7.4v1.6H103v8.4H101.4z"/>
	<path class="st7" d="M107.4,316.5v-9.9h1.6v9.9H107.4z"/>
	<path class="st7" d="M114.2,316.7c-0.8,0-1.5-0.2-2.1-0.5c-0.6-0.3-1.1-0.8-1.4-1.3l1.3-1c0.6,0.8,1.3,1.3,2.3,1.3
		c0.5,0,0.9-0.1,1.2-0.3s0.4-0.5,0.4-0.9c0-0.7-0.5-1.2-1.4-1.5l-1.1-0.4c-0.8-0.3-1.4-0.7-1.8-1.1c-0.4-0.5-0.6-1-0.6-1.7
		c0-0.8,0.3-1.5,0.9-2c0.6-0.5,1.4-0.8,2.3-0.8c1.3,0,2.3,0.5,3,1.4l-1.1,1.1c-0.5-0.6-1.1-0.9-1.9-0.9c-0.4,0-0.8,0.1-1.1,0.3
		s-0.5,0.5-0.5,0.8c0,0.3,0.1,0.6,0.3,0.8c0.2,0.2,0.6,0.4,1.2,0.6l1,0.4c0.8,0.3,1.3,0.7,1.8,1.1c0.4,0.5,0.6,1.1,0.6,1.8
		c0,0.9-0.3,1.6-0.9,2.1C116,316.4,115.2,316.7,114.2,316.7z"/>
	<path class="st7" d="M122.1,316.7c-0.8,0-1.5-0.2-2.1-0.5c-0.6-0.3-1.1-0.8-1.4-1.3l1.3-1c0.6,0.8,1.3,1.3,2.3,1.3
		c0.5,0,0.9-0.1,1.2-0.3s0.4-0.5,0.4-0.9c0-0.7-0.5-1.2-1.4-1.5l-1.1-0.4c-0.8-0.3-1.4-0.7-1.8-1.1c-0.4-0.5-0.6-1-0.6-1.7
		c0-0.8,0.3-1.5,0.9-2c0.6-0.5,1.4-0.8,2.3-0.8c1.3,0,2.3,0.5,3,1.4l-1.1,1.1c-0.5-0.6-1.1-0.9-1.9-0.9c-0.4,0-0.8,0.1-1.1,0.3
		s-0.5,0.5-0.5,0.8c0,0.3,0.1,0.6,0.3,0.8c0.2,0.2,0.6,0.4,1.2,0.6l1,0.4c0.8,0.3,1.3,0.7,1.8,1.1c0.4,0.5,0.6,1.1,0.6,1.8
		c0,0.9-0.3,1.6-0.9,2.1C123.9,316.4,123.1,316.7,122.1,316.7z"/>
	<path class="st7" d="M127.2,316.5v-9.9h6v1.6h-4.3v2.5h3.5v1.6h-3.5v2.7h4.3v1.6H127.2z"/>
	<path class="st7" d="M138.9,316.7c-1.2,0-2.1-0.4-2.9-1.1c-0.7-0.7-1.1-1.7-1.1-3v-6h1.6v6.1c0,0.8,0.2,1.4,0.6,1.8
		c0.4,0.4,1,0.6,1.7,0.6s1.3-0.2,1.7-0.6c0.4-0.4,0.6-1,0.6-1.8v-6.1h1.6v6c0,1.2-0.4,2.2-1.1,2.9
		C141,316.3,140.1,316.7,138.9,316.7z"/>
	<path class="st7" d="M145.2,316.5v-9.9h3.6c0.9,0,1.6,0.3,2.2,0.8c0.5,0.5,0.8,1.2,0.8,2c0,0.7-0.2,1.3-0.6,1.7
		c-0.4,0.5-0.9,0.8-1.7,0.9l3.7,4.5h-2l-3.6-4.4h-0.7v4.4H145.2z M146.8,310.7h1.8c0.5,0,0.9-0.1,1.1-0.3c0.3-0.2,0.4-0.6,0.4-1
		s-0.1-0.7-0.4-1c-0.3-0.2-0.7-0.3-1.1-0.3h-1.8V310.7z"/>
	<path class="st7" d="M157,316.7c-0.8,0-1.5-0.2-2.1-0.5c-0.6-0.3-1.1-0.8-1.4-1.3l1.3-1c0.6,0.8,1.3,1.3,2.3,1.3
		c0.5,0,0.9-0.1,1.2-0.3s0.4-0.5,0.4-0.9c0-0.7-0.5-1.2-1.4-1.5l-1.1-0.4c-0.8-0.3-1.4-0.7-1.8-1.1c-0.4-0.5-0.6-1-0.6-1.7
		c0-0.8,0.3-1.5,0.9-2c0.6-0.5,1.4-0.8,2.3-0.8c1.3,0,2.3,0.5,3,1.4l-1.1,1.1c-0.5-0.6-1.1-0.9-1.9-0.9c-0.4,0-0.8,0.1-1.1,0.3
		s-0.5,0.5-0.5,0.8c0,0.3,0.1,0.6,0.3,0.8c0.2,0.2,0.6,0.4,1.2,0.6l1,0.4c0.8,0.3,1.3,0.7,1.8,1.1c0.4,0.5,0.6,1.1,0.6,1.8
		c0,0.9-0.3,1.6-0.9,2.1C158.8,316.4,158,316.7,157,316.7z"/>
</g>
<g class="st6">
	<path class="st7" d="M362.3,315.5v-9.9h6v1.6h-4.3v2.5h3.5v1.6h-3.5v2.7h4.3v1.6H362.3z"/>
	<path class="st7" d="M378.8,315.5h-1.4l-5.6-7.2v7.2h-1.6v-9.9h1.4l5.6,7.1v-7.1h1.7V315.5z"/>
	<path class="st7" d="M383.2,315.5v-8.4h-2.9v-1.6h7.4v1.6h-2.9v8.4H383.2z"/>
	<path class="st7" d="M389.2,315.5v-9.9h3.6c0.9,0,1.6,0.3,2.2,0.8c0.5,0.5,0.8,1.2,0.8,2c0,0.7-0.2,1.3-0.6,1.7
		c-0.4,0.5-0.9,0.8-1.7,0.9l3.7,4.5h-2l-3.6-4.4h-0.7v4.4H389.2z M390.8,309.7h1.8c0.5,0,0.9-0.1,1.1-0.3c0.3-0.2,0.4-0.6,0.4-1
		s-0.1-0.7-0.4-1c-0.3-0.2-0.7-0.3-1.1-0.3h-1.8V309.7z"/>
	<path class="st7" d="M398.2,315.5v-9.9h6v1.6h-4.3v2.5h3.5v1.6h-3.5v2.7h4.3v1.6H398.2z"/>
	<path class="st7" d="M411.7,306.5c0.6,0.6,1,1.4,1,2.3c0,0.9-0.3,1.7-1,2.3c-0.6,0.6-1.5,0.9-2.5,0.9h-1.5v3.4h-1.6v-9.9h3.2
		C410.3,305.6,411.1,305.9,411.7,306.5z M410.6,310c0.3-0.3,0.5-0.7,0.5-1.2c0-0.5-0.2-0.9-0.5-1.2s-0.8-0.5-1.4-0.5h-1.5v3.4h1.5
		C409.8,310.5,410.3,310.4,410.6,310z"/>
	<path class="st7" d="M414.3,315.5v-9.9h3.6c0.9,0,1.6,0.3,2.2,0.8c0.5,0.5,0.8,1.2,0.8,2c0,0.7-0.2,1.3-0.6,1.7
		c-0.4,0.5-0.9,0.8-1.7,0.9l3.7,4.5h-2l-3.6-4.4H416v4.4H414.3z M416,309.7h1.8c0.5,0,0.9-0.1,1.1-0.3c0.3-0.2,0.4-0.6,0.4-1
		s-0.1-0.7-0.4-1c-0.3-0.2-0.7-0.3-1.1-0.3H416V309.7z"/>
	<path class="st7" d="M423.4,315.5v-9.9h1.6v9.9H423.4z"/>
	<path class="st7" d="M430.2,315.7c-0.8,0-1.5-0.2-2.1-0.5c-0.6-0.3-1.1-0.8-1.4-1.3l1.3-1c0.6,0.8,1.3,1.3,2.3,1.3
		c0.5,0,0.9-0.1,1.2-0.3s0.4-0.5,0.4-0.9c0-0.7-0.5-1.2-1.4-1.5l-1.1-0.4c-0.8-0.3-1.4-0.7-1.8-1.1c-0.4-0.5-0.6-1-0.6-1.7
		c0-0.8,0.3-1.5,0.9-2s1.4-0.8,2.3-0.8c1.3,0,2.3,0.5,3,1.4l-1.1,1.1c-0.5-0.6-1.1-0.9-1.9-0.9c-0.4,0-0.8,0.1-1.1,0.3
		c-0.3,0.2-0.5,0.5-0.5,0.8c0,0.3,0.1,0.6,0.3,0.8c0.2,0.2,0.6,0.4,1.2,0.6l1,0.4c0.8,0.3,1.3,0.7,1.8,1.1c0.4,0.5,0.6,1.1,0.6,1.8
		c0,0.9-0.3,1.6-0.9,2.1C432,315.4,431.2,315.7,430.2,315.7z"/>
	<path class="st7" d="M435.3,315.5v-9.9h6v1.6h-4.3v2.5h3.5v1.6h-3.5v2.7h4.3v1.6H435.3z"/>
	<path class="st7" d="M445.9,315.7c-0.8,0-1.5-0.2-2.1-0.5c-0.6-0.3-1.1-0.8-1.4-1.3l1.3-1c0.6,0.8,1.3,1.3,2.3,1.3
		c0.5,0,0.9-0.1,1.2-0.3s0.4-0.5,0.4-0.9c0-0.7-0.5-1.2-1.4-1.5l-1.1-0.4c-0.8-0.3-1.4-0.7-1.8-1.1c-0.4-0.5-0.6-1-0.6-1.7
		c0-0.8,0.3-1.5,0.9-2c0.6-0.5,1.4-0.8,2.3-0.8c1.3,0,2.3,0.5,3,1.4l-1.1,1.1c-0.5-0.6-1.1-0.9-1.9-0.9c-0.4,0-0.8,0.1-1.1,0.3
		c-0.3,0.2-0.5,0.5-0.5,0.8c0,0.3,0.1,0.6,0.3,0.8c0.2,0.2,0.6,0.4,1.2,0.6l1,0.4c0.8,0.3,1.3,0.7,1.8,1.1c0.4,0.5,0.6,1.1,0.6,1.8
		c0,0.9-0.3,1.6-0.9,2.1S446.9,315.7,445.9,315.7z"/>
	<path class="st7" d="M454.3,315.5v-9.9h3.1c1.5,0,2.7,0.5,3.7,1.4c1,1,1.5,2.1,1.5,3.5s-0.5,2.6-1.5,3.5c-1,1-2.2,1.4-3.7,1.4
		H454.3z M456,314h1.4c1,0,1.9-0.3,2.6-1s1-1.5,1-2.5s-0.3-1.8-1-2.5s-1.5-1-2.6-1H456V314z"/>
	<path class="st7" d="M464.4,315.5v-9.9h6v1.6H466v2.5h3.5v1.6H466v2.7h4.3v1.6H464.4z"/>
	<path class="st7" d="M478.1,315.5l-4.2-9.9h1.8l3.1,7.4l3.1-7.4h1.8l-4.2,9.9H478.1z"/>
	<path class="st7" d="M485.1,315.5v-9.9h3.6c0.9,0,1.6,0.3,2.2,0.8c0.5,0.5,0.8,1.2,0.8,2c0,0.7-0.2,1.3-0.6,1.7
		c-0.4,0.5-0.9,0.8-1.7,0.9l3.7,4.5h-2l-3.6-4.4h-0.7v4.4H485.1z M486.7,309.7h1.8c0.5,0,0.9-0.1,1.1-0.3s0.4-0.6,0.4-1
		s-0.1-0.7-0.4-1s-0.7-0.3-1.1-0.3h-1.8V309.7z"/>
	<path class="st7" d="M494.1,315.5v-9.9h3.1c1.5,0,2.7,0.5,3.7,1.4c1,1,1.5,2.1,1.5,3.5s-0.5,2.6-1.5,3.5c-1,1-2.2,1.4-3.7,1.4
		H494.1z M495.7,314h1.4c1,0,1.9-0.3,2.6-1s1-1.5,1-2.5s-0.3-1.8-1-2.5s-1.5-1-2.6-1h-1.4V314z"/>
</g>
<g class="st6">
	<path class="st7" d="M220.9,316.5v-9.9h1.6v4.1h4.9v-4.1h1.6v9.9h-1.6v-4.3h-4.9v4.3H220.9z"/>
	<path class="st7" d="M235.4,316.7c-1.2,0-2.1-0.4-2.9-1.1c-0.7-0.7-1.1-1.7-1.1-3v-6h1.6v6.1c0,0.8,0.2,1.4,0.6,1.8
		c0.4,0.4,1,0.6,1.7,0.6s1.3-0.2,1.7-0.6c0.4-0.4,0.6-1,0.6-1.8v-6.1h1.6v6c0,1.2-0.4,2.2-1.1,2.9
		C237.5,316.3,236.6,316.7,235.4,316.7z"/>
	<path class="st7" d="M241.7,316.5v-9.9h1.6v9.9H241.7z"/>
	<path class="st7" d="M248.6,316.7c-0.8,0-1.5-0.2-2.1-0.5c-0.6-0.3-1.1-0.8-1.4-1.3l1.3-1c0.6,0.8,1.3,1.3,2.3,1.3
		c0.5,0,0.9-0.1,1.2-0.3s0.4-0.5,0.4-0.9c0-0.7-0.5-1.2-1.4-1.5l-1.1-0.4c-0.8-0.3-1.4-0.7-1.8-1.1c-0.4-0.5-0.6-1-0.6-1.7
		c0-0.8,0.3-1.5,0.9-2c0.6-0.5,1.4-0.8,2.3-0.8c1.3,0,2.3,0.5,3,1.4l-1.1,1.1c-0.5-0.6-1.1-0.9-1.9-0.9c-0.4,0-0.8,0.1-1.1,0.3
		s-0.5,0.5-0.5,0.8c0,0.3,0.1,0.6,0.3,0.8c0.2,0.2,0.6,0.4,1.2,0.6l1,0.4c0.8,0.3,1.3,0.7,1.8,1.1c0.4,0.5,0.6,1.1,0.6,1.8
		c0,0.9-0.3,1.6-0.9,2.1C250.3,316.4,249.5,316.7,248.6,316.7z"/>
	<path class="st7" d="M256.4,316.7c-0.8,0-1.5-0.2-2.1-0.5c-0.6-0.3-1.1-0.8-1.4-1.3l1.3-1c0.6,0.8,1.3,1.3,2.3,1.3
		c0.5,0,0.9-0.1,1.2-0.3s0.4-0.5,0.4-0.9c0-0.7-0.5-1.2-1.4-1.5l-1.1-0.4c-0.8-0.3-1.4-0.7-1.8-1.1c-0.4-0.5-0.6-1-0.6-1.7
		c0-0.8,0.3-1.5,0.9-2c0.6-0.5,1.4-0.8,2.3-0.8c1.3,0,2.3,0.5,3,1.4l-1.1,1.1c-0.5-0.6-1.1-0.9-1.9-0.9c-0.4,0-0.8,0.1-1.1,0.3
		s-0.5,0.5-0.5,0.8c0,0.3,0.1,0.6,0.3,0.8c0.2,0.2,0.6,0.4,1.2,0.6l1,0.4c0.8,0.3,1.3,0.7,1.8,1.1c0.4,0.5,0.6,1.1,0.6,1.8
		c0,0.9-0.3,1.6-0.9,2.1C258.2,316.4,257.4,316.7,256.4,316.7z"/>
	<path class="st7" d="M261.5,316.5v-9.9h1.6v9.9H261.5z"/>
	<path class="st7" d="M265.6,316.5v-9.9h6v1.6h-4.3v2.5h3.5v1.6h-3.5v2.7h4.3v1.6H265.6z"/>
	<path class="st7" d="M273.5,316.5v-9.9h3.6c0.9,0,1.6,0.3,2.2,0.8c0.5,0.5,0.8,1.2,0.8,2c0,0.7-0.2,1.3-0.6,1.7
		c-0.4,0.5-0.9,0.8-1.7,0.9l3.7,4.5h-2l-3.6-4.4h-0.7v4.4H273.5z M275.1,310.7h1.8c0.5,0,0.9-0.1,1.1-0.3c0.3-0.2,0.4-0.6,0.4-1
		s-0.1-0.7-0.4-1c-0.3-0.2-0.7-0.3-1.1-0.3h-1.8V310.7z"/>
</g>
<g class="st6">
	<path class="st7" d="M299.7,34.5l-6-14.2h2.6l4.4,10.6l4.4-10.6h2.6l-6,14.2H299.7z"/>
	<path class="st7" d="M320.7,32.6c-1.4,1.4-3.2,2.1-5.2,2.1s-3.8-0.7-5.2-2.1s-2.1-3.2-2.1-5.2c0-2.1,0.7-3.8,2.1-5.2
		c1.4-1.4,3.2-2.1,5.2-2.1s3.8,0.7,5.2,2.1s2.1,3.2,2.1,5.2S322.1,31.2,320.7,32.6z M315.5,32.5c1.4,0,2.6-0.5,3.5-1.5
		c1-1,1.4-2.2,1.4-3.6s-0.5-2.6-1.4-3.6c-1-1-2.1-1.5-3.5-1.5c-1.4,0-2.6,0.5-3.5,1.5c-1,1-1.4,2.2-1.4,3.6S311,30,312,31
		C312.9,32,314.1,32.5,315.5,32.5z"/>
	<path class="st7" d="M330.9,34.7c-1.7,0-3.1-0.5-4.1-1.6s-1.6-2.5-1.6-4.2v-8.6h2.3V29c0,1.1,0.3,2,0.9,2.6
		c0.6,0.6,1.4,0.9,2.4,0.9c1,0,1.8-0.3,2.4-0.9c0.6-0.6,0.9-1.5,0.9-2.6v-8.7h2.3v8.6c0,1.7-0.5,3.1-1.6,4.2
		C333.9,34.2,332.6,34.7,330.9,34.7z"/>
	<path class="st7" d="M343.8,34.7c-1.1,0-2.2-0.2-3.1-0.7c-0.9-0.5-1.6-1.1-2-1.9l1.8-1.5c0.8,1.2,1.9,1.8,3.3,1.8
		c0.7,0,1.2-0.2,1.7-0.5c0.4-0.3,0.6-0.8,0.6-1.3c0-0.9-0.7-1.7-2-2.2l-1.6-0.6c-1.1-0.4-2-0.9-2.5-1.6c-0.5-0.6-0.8-1.5-0.8-2.4
		c0-1.2,0.4-2.2,1.3-2.9s2-1.1,3.3-1.1c1.8,0,3.2,0.6,4.3,1.9l-1.6,1.6c-0.7-0.9-1.6-1.3-2.7-1.3c-0.6,0-1.2,0.1-1.6,0.4
		c-0.4,0.3-0.6,0.7-0.6,1.2c0,0.5,0.2,0.9,0.5,1.2c0.3,0.3,0.9,0.6,1.7,0.9l1.4,0.5c1.1,0.4,1.9,1,2.5,1.6c0.6,0.7,0.9,1.5,0.8,2.5
		c0,1.2-0.4,2.2-1.3,3C346.4,34.4,345.2,34.7,343.8,34.7z"/>
</g>
<line id="Ligne_73" class="st8" x1="321" y1="62.5" x2="321" y2="92.5"/>
<line id="Ligne_74" class="st9" x1="321" y1="162.5" x2="321" y2="177.5"/>
<path id="Tracé_10511" class="st9" d="M575,177.5H321"/>
<line id="Ligne_77" class="st9" x1="235" y1="177.5" x2="235" y2="192.5"/>
<line id="Ligne_78" class="st9" x1="321" y1="177.5" x2="321" y2="267.5"/>
<line id="Ligne_79" class="st9" x1="409" y1="177.5" x2="409" y2="192.5"/>
<line id="Ligne_80" class="st9" x1="575" y1="177.5" x2="575" y2="192.5"/>
<path id="Rectangle_946" class="st10" d="M46,202.5h82c11,0,20,9,20,20l0,0c0,11-9,20-20,20H46c-11,0-20-9-20-20l0,0
	C26,211.5,35,202.5,46,202.5z"/>
<path id="Rectangle_945" class="st11" d="M188,202.5h93c11,0,20,9,20,20l0,0c0,11-9,20-20,20h-93c-11,0-20-9-20-20l0,0
	C168,211.5,177,202.5,188,202.5z"/>
<path id="Rectangle_941" class="st12" d="M515,202.5h120c11,0,20,9,20,20l0,0c0,11-9,20-20,20H515c-11,0-20-9-20-20l0,0
	C495,211.5,504,202.5,515,202.5z"/>
<g class="st6">
	<path class="st7" d="M187.5,227.5l4.3-9.9h1.4l4.3,9.9h-1.7l-1.1-2.6h-4.5l-1.1,2.6H187.5z M192.6,219.8l-1.6,3.7h3.2L192.6,219.8z
		"/>
	<path class="st7" d="M198.9,227.5v-9.9h3.6c0.9,0,1.6,0.3,2.2,0.8c0.5,0.5,0.8,1.2,0.8,2c0,0.7-0.2,1.3-0.6,1.7
		c-0.4,0.5-0.9,0.8-1.7,0.9l3.7,4.5h-2l-3.6-4.4h-0.7v4.4H198.9z M200.6,221.7h1.8c0.5,0,0.9-0.1,1.1-0.3c0.3-0.2,0.4-0.6,0.4-1
		s-0.1-0.7-0.4-1c-0.3-0.2-0.7-0.3-1.1-0.3h-1.8V221.7z"/>
	<path class="st7" d="M212.2,227.7c-1.4,0-2.6-0.5-3.6-1.5s-1.5-2.2-1.5-3.6s0.5-2.7,1.5-3.6s2.2-1.5,3.6-1.5c1,0,1.8,0.2,2.6,0.7
		c0.8,0.5,1.4,1.1,1.9,1.8l-1.4,0.8c-0.7-1.2-1.7-1.8-3.1-1.8c-1,0-1.8,0.3-2.5,1c-0.7,0.7-1,1.5-1,2.5s0.3,1.8,1,2.5
		c0.7,0.7,1.5,1,2.5,1c1.3,0,2.3-0.6,3.1-1.8l1.4,0.8c-0.5,0.8-1.1,1.4-1.9,1.8C214,227.4,213.2,227.7,212.2,227.7z"/>
	<path class="st7" d="M218.3,227.5v-9.9h1.6v4.1h4.9v-4.1h1.6v9.9h-1.6v-4.3h-4.9v4.3H218.3z"/>
	<path class="st7" d="M228.9,227.5v-9.9h1.6v9.9H228.9z"/>
	<path class="st7" d="M234.9,227.5v-8.4H232v-1.6h7.4v1.6h-2.9v8.4H234.9z"/>
	<path class="st7" d="M240.9,227.5v-9.9h6v1.6h-4.3v2.5h3.5v1.6h-3.5v2.7h4.3v1.6H240.9z"/>
	<path class="st7" d="M253,227.7c-1.4,0-2.6-0.5-3.6-1.5s-1.5-2.2-1.5-3.6s0.5-2.7,1.5-3.6s2.2-1.5,3.6-1.5c1,0,1.8,0.2,2.6,0.7
		c0.8,0.5,1.4,1.1,1.9,1.8l-1.4,0.8c-0.7-1.2-1.7-1.8-3.1-1.8c-1,0-1.8,0.3-2.5,1c-0.7,0.7-1,1.5-1,2.5s0.3,1.8,1,2.5
		c0.7,0.7,1.5,1,2.5,1c1.3,0,2.3-0.6,3.1-1.8l1.4,0.8c-0.5,0.8-1.1,1.4-1.9,1.8C254.8,227.4,254,227.7,253,227.7z"/>
	<path class="st7" d="M261,227.5v-8.4h-2.9v-1.6h7.4v1.6h-2.9v8.4H261z"/>
	<path class="st7" d="M267,227.5v-9.9h6v1.6h-4.3v2.5h3.5v1.6h-3.5v2.7h4.3v1.6H267z"/>
	<path class="st7" d="M277.6,227.7c-0.8,0-1.5-0.2-2.1-0.5c-0.6-0.3-1.1-0.8-1.4-1.3l1.3-1c0.6,0.8,1.3,1.3,2.3,1.3
		c0.5,0,0.9-0.1,1.2-0.3s0.4-0.5,0.4-0.9c0-0.7-0.5-1.2-1.4-1.5l-1.1-0.4c-0.8-0.3-1.4-0.7-1.8-1.1c-0.4-0.5-0.6-1-0.6-1.7
		c0-0.8,0.3-1.5,0.9-2c0.6-0.5,1.4-0.8,2.3-0.8c1.3,0,2.3,0.5,3,1.4l-1.1,1.1c-0.5-0.6-1.1-0.9-1.9-0.9c-0.4,0-0.8,0.1-1.1,0.3
		s-0.5,0.5-0.5,0.8c0,0.3,0.1,0.6,0.3,0.8c0.2,0.2,0.6,0.4,1.2,0.6l1,0.4c0.8,0.3,1.3,0.7,1.8,1.1c0.4,0.5,0.6,1.1,0.6,1.8
		c0,0.9-0.3,1.6-0.9,2.1C279.4,227.4,278.6,227.7,277.6,227.7z"/>
</g>
<g class="st6">
	<path class="st7" d="M520.1,227.7c-1.4,0-2.6-0.5-3.6-1.5c-1-1-1.5-2.2-1.5-3.6s0.5-2.7,1.5-3.6c1-1,2.2-1.5,3.6-1.5
		c1,0,1.8,0.2,2.6,0.7c0.8,0.5,1.4,1.1,1.9,1.8l-1.4,0.8c-0.7-1.2-1.7-1.8-3.1-1.8c-1,0-1.8,0.3-2.5,1c-0.7,0.7-1,1.5-1,2.5
		s0.3,1.8,1,2.5c0.7,0.7,1.5,1,2.5,1c1.3,0,2.3-0.6,3.1-1.8l1.4,0.8c-0.5,0.8-1.1,1.4-1.9,1.8C522,227.4,521.1,227.7,520.1,227.7z"
		/>
	<path class="st7" d="M534.3,226.2c-1,1-2.2,1.5-3.6,1.5c-1.4,0-2.6-0.5-3.6-1.5c-1-1-1.5-2.2-1.5-3.6s0.5-2.7,1.5-3.6
		c1-1,2.2-1.5,3.6-1.5c1.4,0,2.6,0.5,3.6,1.5c1,1,1.5,2.2,1.5,3.6C535.8,224,535.3,225.2,534.3,226.2z M530.7,226.1
		c1,0,1.8-0.3,2.5-1c0.7-0.7,1-1.5,1-2.5s-0.3-1.8-1-2.5c-0.7-0.7-1.5-1-2.5-1c-1,0-1.8,0.3-2.5,1c-0.7,0.7-1,1.5-1,2.5
		s0.3,1.8,1,2.5C528.9,225.7,529.7,226.1,530.7,226.1z"/>
	<path class="st7" d="M546.3,227.5h-1.4l-5.6-7.2v7.2h-1.6v-9.9h1.4l5.6,7.1v-7.1h1.7V227.5z"/>
	<path class="st7" d="M551.5,227.7c-0.8,0-1.5-0.2-2.1-0.5c-0.6-0.3-1.1-0.8-1.4-1.3l1.3-1c0.6,0.8,1.3,1.3,2.3,1.3
		c0.5,0,0.9-0.1,1.2-0.3s0.4-0.5,0.4-0.9c0-0.7-0.5-1.2-1.4-1.5l-1.1-0.4c-0.8-0.3-1.4-0.7-1.8-1.1c-0.4-0.5-0.6-1-0.6-1.7
		c0-0.8,0.3-1.5,0.9-2c0.6-0.5,1.4-0.8,2.3-0.8c1.3,0,2.3,0.5,3,1.4l-1.1,1.1c-0.5-0.6-1.1-0.9-1.9-0.9c-0.4,0-0.8,0.1-1.1,0.3
		c-0.3,0.2-0.5,0.5-0.5,0.8c0,0.3,0.1,0.6,0.3,0.8c0.2,0.2,0.6,0.4,1.2,0.6l1,0.4c0.8,0.3,1.3,0.7,1.8,1.1c0.4,0.5,0.6,1.1,0.6,1.8
		c0,0.9-0.3,1.6-0.9,2.1S552.5,227.7,551.5,227.7z"/>
	<path class="st7" d="M558.4,227.5v-8.4h-2.9v-1.6h7.4v1.6H560v8.4H558.4z"/>
	<path class="st7" d="M564.4,227.5v-9.9h3.6c0.9,0,1.6,0.3,2.2,0.8c0.5,0.5,0.8,1.2,0.8,2c0,0.7-0.2,1.3-0.6,1.7
		c-0.4,0.5-0.9,0.8-1.7,0.9l3.7,4.5h-2l-3.6-4.4H566v4.4H564.4z M566,221.7h1.8c0.5,0,0.9-0.1,1.1-0.3c0.3-0.2,0.4-0.6,0.4-1
		s-0.1-0.7-0.4-1c-0.3-0.2-0.7-0.3-1.1-0.3H566V221.7z"/>
	<path class="st7" d="M577.2,227.7c-1.2,0-2.1-0.4-2.9-1.1c-0.7-0.7-1.1-1.7-1.1-3v-6h1.6v6.1c0,0.8,0.2,1.4,0.6,1.8
		c0.4,0.4,1,0.6,1.7,0.6c0.7,0,1.3-0.2,1.7-0.6c0.4-0.4,0.6-1,0.6-1.8v-6.1h1.6v6c0,1.2-0.4,2.2-1.1,2.9
		C579.3,227.3,578.3,227.7,577.2,227.7z"/>
	<path class="st7" d="M587.9,227.7c-1.4,0-2.6-0.5-3.6-1.5c-1-1-1.5-2.2-1.5-3.6s0.5-2.7,1.5-3.6c1-1,2.2-1.5,3.6-1.5
		c1,0,1.8,0.2,2.6,0.7c0.8,0.5,1.4,1.1,1.9,1.8l-1.4,0.8c-0.7-1.2-1.7-1.8-3.1-1.8c-1,0-1.8,0.3-2.5,1c-0.7,0.7-1,1.5-1,2.5
		s0.3,1.8,1,2.5c0.7,0.7,1.5,1,2.5,1c1.3,0,2.3-0.6,3.1-1.8l1.4,0.8c-0.5,0.8-1.1,1.4-1.9,1.8C589.8,227.4,588.9,227.7,587.9,227.7z
		"/>
	<path class="st7" d="M595.9,227.5v-8.4H593v-1.6h7.4v1.6h-2.9v8.4H595.9z"/>
	<path class="st7" d="M601.9,227.5v-9.9h6v1.6h-4.3v2.5h3.5v1.6h-3.5v2.7h4.3v1.6H601.9z"/>
	<path class="st7" d="M613.6,227.7c-1.2,0-2.1-0.4-2.9-1.1c-0.7-0.7-1.1-1.7-1.1-3v-6h1.6v6.1c0,0.8,0.2,1.4,0.6,1.8
		c0.4,0.4,1,0.6,1.7,0.6c0.7,0,1.3-0.2,1.7-0.6c0.4-0.4,0.6-1,0.6-1.8v-6.1h1.6v6c0,1.2-0.4,2.2-1.1,2.9
		C615.7,227.3,614.8,227.7,613.6,227.7z"/>
	<path class="st7" d="M619.9,227.5v-9.9h3.6c0.9,0,1.6,0.3,2.2,0.8c0.5,0.5,0.8,1.2,0.8,2c0,0.7-0.2,1.3-0.6,1.7
		c-0.4,0.5-0.9,0.8-1.7,0.9l3.7,4.5h-2l-3.6-4.4h-0.7v4.4H619.9z M621.5,221.7h1.8c0.5,0,0.9-0.1,1.1-0.3s0.4-0.6,0.4-1
		s-0.1-0.7-0.4-1s-0.7-0.3-1.1-0.3h-1.8V221.7z"/>
	<path class="st7" d="M631.7,227.7c-0.8,0-1.5-0.2-2.1-0.5c-0.6-0.3-1.1-0.8-1.4-1.3l1.3-1c0.6,0.8,1.3,1.3,2.3,1.3
		c0.5,0,0.9-0.1,1.2-0.3s0.4-0.5,0.4-0.9c0-0.7-0.5-1.2-1.4-1.5l-1.1-0.4c-0.8-0.3-1.4-0.7-1.8-1.1c-0.4-0.5-0.6-1-0.6-1.7
		c0-0.8,0.3-1.5,0.9-2s1.4-0.8,2.3-0.8c1.3,0,2.3,0.5,3,1.4l-1.1,1.1c-0.5-0.6-1.1-0.9-1.9-0.9c-0.4,0-0.8,0.1-1.1,0.3
		c-0.3,0.2-0.5,0.5-0.5,0.8c0,0.3,0.1,0.6,0.3,0.8c0.2,0.2,0.6,0.4,1.2,0.6l1,0.4c0.8,0.3,1.3,0.7,1.8,1.1c0.4,0.5,0.6,1.1,0.6,1.8
		c0,0.9-0.3,1.6-0.9,2.1C633.5,227.4,632.7,227.7,631.7,227.7z"/>
</g>
<g class="st6">
	<path class="st7" d="M51.6,227.7c-1.6,0-2.8-0.5-3.9-1.5c-1-1-1.5-2.2-1.5-3.7c0-1.4,0.5-2.7,1.5-3.7s2.2-1.5,3.7-1.5
		c1.6,0,2.9,0.5,3.9,1.5l-1.1,1.2c-0.7-0.7-1.6-1.1-2.7-1.1c-1,0-1.9,0.3-2.5,1c-0.7,0.7-1,1.5-1,2.5c0,1,0.3,1.9,1,2.5s1.6,1,2.7,1
		c1.1,0,1.9-0.2,2.4-0.6v-2.2h-2.5v-1.5h4.1v4.5c-0.4,0.5-1,0.8-1.7,1.1C53.2,227.5,52.4,227.7,51.6,227.7z"/>
	<path class="st7" d="M57.6,227.5v-9.9h6v1.6h-4.3v2.5h3.5v1.6h-3.5v2.7h4.3v1.6H57.6z M60.1,216.7l1-2.2h1.8l-1.7,2.2H60.1z"/>
	<path class="st7" d="M73.3,226.2c-1,1-2.2,1.5-3.6,1.5c-1.4,0-2.6-0.5-3.6-1.5s-1.5-2.2-1.5-3.6s0.5-2.7,1.5-3.6s2.2-1.5,3.6-1.5
		c1.4,0,2.6,0.5,3.6,1.5c1,1,1.5,2.2,1.5,3.6C74.8,224,74.3,225.2,73.3,226.2z M69.7,226.1c1,0,1.8-0.3,2.5-1c0.7-0.7,1-1.5,1-2.5
		s-0.3-1.8-1-2.5c-0.7-0.7-1.5-1-2.5-1c-1,0-1.8,0.3-2.5,1c-0.7,0.7-1,1.5-1,2.5s0.3,1.8,1,2.5C67.9,225.7,68.7,226.1,69.7,226.1z"
		/>
	<path class="st7" d="M76.6,217.6h1.5l3.5,4.7l3.5-4.7h1.5v9.9h-1.7v-7.1l-3.3,4.5l-3.3-4.5v7.1h-1.6V217.6z"/>
	<path class="st7" d="M89,227.5v-9.9h6v1.6h-4.3v2.5h3.5v1.6h-3.5v2.7H95v1.6H89z M92.5,216.7h-1.2l-1.7-2.2h1.8L92.5,216.7z"/>
	<path class="st7" d="M98.8,227.5v-8.4h-2.9v-1.6h7.4v1.6h-2.9v8.4H98.8z"/>
	<path class="st7" d="M104.8,227.5v-9.9h3.6c0.9,0,1.6,0.3,2.2,0.8c0.5,0.5,0.8,1.2,0.8,2c0,0.7-0.2,1.3-0.6,1.7
		c-0.4,0.5-0.9,0.8-1.7,0.9l3.7,4.5h-2l-3.6-4.4h-0.7v4.4H104.8z M106.4,221.7h1.8c0.5,0,0.9-0.1,1.1-0.3c0.3-0.2,0.4-0.6,0.4-1
		s-0.1-0.7-0.4-1c-0.3-0.2-0.7-0.3-1.1-0.3h-1.8V221.7z"/>
	<path class="st7" d="M113.8,227.5v-9.9h6v1.6h-4.3v2.5h3.5v1.6h-3.5v2.7h4.3v1.6H113.8z"/>
	<path class="st7" d="M124.5,227.7c-0.8,0-1.5-0.2-2.1-0.5c-0.6-0.3-1.1-0.8-1.4-1.3l1.3-1c0.6,0.8,1.3,1.3,2.3,1.3
		c0.5,0,0.9-0.1,1.2-0.3s0.4-0.5,0.4-0.9c0-0.7-0.5-1.2-1.4-1.5l-1.1-0.4c-0.8-0.3-1.4-0.7-1.8-1.1c-0.4-0.5-0.6-1-0.6-1.7
		c0-0.8,0.3-1.5,0.9-2c0.6-0.5,1.4-0.8,2.3-0.8c1.3,0,2.3,0.5,3,1.4l-1.1,1.1c-0.5-0.6-1.1-0.9-1.9-0.9c-0.4,0-0.8,0.1-1.1,0.3
		s-0.5,0.5-0.5,0.8c0,0.3,0.1,0.6,0.3,0.8c0.2,0.2,0.6,0.4,1.2,0.6l1,0.4c0.8,0.3,1.3,0.7,1.8,1.1c0.4,0.5,0.6,1.1,0.6,1.8
		c0,0.9-0.3,1.6-0.9,2.1C126.2,227.4,125.5,227.7,124.5,227.7z"/>
</g>
<line id="Ligne_75" class="st9" x1="321" y1="177.5" x2="87" y2="177.5"/>
<line id="Ligne_82" class="st9" x1="87" y1="177.5" x2="87" y2="192.5"/>
<line id="Ligne_83" class="st9" x1="432" y1="267.5" x2="321" y2="267.5"/>
<line id="Ligne_84" class="st9" x1="432" y1="267.5" x2="432" y2="282.5"/>
<line id="Ligne_85" class="st9" x1="321" y1="267.5" x2="121" y2="267.5"/>
<line id="Ligne_86" class="st9" x1="121" y1="267.5" x2="121" y2="282.5"/>
<line id="Ligne_87" class="st9" x1="251" y1="267.5" x2="251" y2="282.5"/>
</svg>
