<?xml version="1.0" encoding="utf-8"?>
<!-- Generator: Adobe Illustrator 24.3.0, SVG Export Plug-In . SVG Version: 6.00 Build 0)  -->
<svg version="1.1" id="Calque_1" xmlns="http://www.w3.org/2000/svg" xmlns:xlink="http://www.w3.org/1999/xlink" x="0px" y="0px"
	 viewBox="0 0 1131 243" style="enable-background:new 0 0 1131 243;" xml:space="preserve">
<style type="text/css">
	.st0{fill:#E85D00;}
	.st1{fill:#00B9B4;}
	.st2{fill:#9D68D9;}
	.st3{fill:#FFAD4D;}
	.st4{fill:#90D960;}
	.st5{fill:#FFE920;}
	.st6{fill:#60C8D9;}
	.st7{fill:#3CDB81;}
	.st8{fill:#AEBBC0;}
	.st9{enable-background:new    ;}
	.st10{fill:#FFFFFF;}
	.st11{fill:none;stroke:#D8DDE2;stroke-linecap:round;}
	.st12{fill:none;stroke:#D8DDE2;stroke-linecap:round;stroke-dasharray:5,5;}
</style>
<path id="Rectangle_923" class="st0" d="M456.5,101h219c13.8,0,25,11.2,25,25l0,0c0,13.8-11.2,25-25,25h-219c-13.8,0-25-11.2-25-25
	l0,0C431.5,112.2,442.7,101,456.5,101z"/>
<path id="Rectangle_931" class="st1" d="M456.5,1h219c13.8,0,25,11.2,25,25l0,0c0,13.8-11.2,25-25,25h-219c-13.8,0-25-11.2-25-25
	l0,0C431.5,12.2,442.7,1,456.5,1z"/>
<path id="Rectangle_924" class="st2" d="M21.5,201h82c11,0,20,9,20,20l0,0c0,11-9,20-20,20h-82c-11,0-20-9-20-20l0,0
	C1.5,210,10.5,201,21.5,201z"/>
<path id="Rectangle_932" class="st3" d="M173.5,201h93c11,0,20,9,20,20l0,0c0,11-9,20-20,20h-93c-11,0-20-9-20-20l0,0
	C153.5,210,162.5,201,173.5,201z"/>
<path id="Rectangle_933" class="st4" d="M526.5,201h93c11,0,20,9,20,20l0,0c0,11-9,20-20,20h-93c-11,0-20-9-20-20l0,0
	C506.5,210,515.5,201,526.5,201z"/>
<path id="Rectangle_935" class="st5" d="M336.5,201h120c11,0,20,9,20,20l0,0c0,11-9,20-20,20h-120c-11,0-20-9-20-20l0,0
	C316.5,210,325.5,201,336.5,201z"/>
<path id="Rectangle_934" class="st6" d="M689.5,201h79c11,0,20,9,20,20l0,0c0,11-9,20-20,20h-79c-11,0-20-9-20-20l0,0
	C669.5,210,678.5,201,689.5,201z"/>
<path id="Rectangle_936" class="st7" d="M838.5,201h140c11,0,20,9,20,20l0,0c0,11-9,20-20,20h-140c-11,0-20-9-20-20l0,0
	C818.5,210,827.5,201,838.5,201z"/>
<path id="Rectangle_937" class="st8" d="M1048.5,201h61c11,0,20,9,20,20l0,0c0,11-9,20-20,20h-61c-11,0-20-9-20-20l0,0
	C1028.5,210,1037.5,201,1048.5,201z"/>
<g class="st9">
	<path class="st10" d="M452.6,133l6.2-14.2h2l6.2,14.2h-2.4l-1.6-3.7h-6.4L455,133H452.6z M459.8,122l-2.3,5.2h4.6L459.8,122z"/>
	<path class="st10" d="M475.2,133.2c-2.2,0-4.1-0.7-5.5-2.1c-1.4-1.4-2.2-3.1-2.2-5.2c0-2.1,0.7-3.8,2.1-5.2
		c1.4-1.4,3.2-2.1,5.3-2.1c2.3,0,4.1,0.7,5.5,2.1l-1.6,1.7c-1-1-2.3-1.5-3.9-1.5c-1.5,0-2.7,0.5-3.6,1.5c-1,1-1.4,2.2-1.4,3.6
		c0,1.5,0.5,2.7,1.4,3.6s2.2,1.4,3.9,1.4c1.5,0,2.7-0.3,3.4-0.9v-3.2H475v-2.2h5.8v6.5c-0.6,0.7-1.4,1.2-2.4,1.5
		C477.4,133.1,476.3,133.2,475.2,133.2z"/>
	<path class="st10" d="M483.7,133v-14.2h8.5v2.2H486v3.6h5v2.2h-5v3.8h6.2v2.2H483.7z"/>
	<path class="st10" d="M507.3,133h-2l-8-10.2V133h-2.3v-14.2h2l8,10.2v-10.2h2.4V133z"/>
	<path class="st10" d="M517.2,133.2c-2,0-3.8-0.7-5.2-2.1s-2.1-3.2-2.1-5.2c0-2.1,0.7-3.8,2.1-5.2c1.4-1.4,3.2-2.1,5.2-2.1
		c1.4,0,2.6,0.3,3.7,1s2,1.5,2.7,2.6l-2,1.2c-1-1.7-2.5-2.5-4.4-2.5c-1.4,0-2.6,0.5-3.5,1.5c-1,1-1.4,2.2-1.4,3.6s0.5,2.6,1.4,3.6
		c1,1,2.1,1.5,3.5,1.5c1.9,0,3.4-0.8,4.4-2.5l2,1.2c-0.7,1.1-1.5,2-2.7,2.6C519.8,132.9,518.6,133.2,517.2,133.2z"/>
	<path class="st10" d="M525.8,133v-14.2h8.5v2.2h-6.2v3.6h5v2.2h-5v3.8h6.2v2.2H525.8z"/>
	<path class="st10" d="M541,133.2c-1.1,0-2.2-0.2-3.1-0.7c-0.9-0.5-1.6-1.1-2-1.9l1.8-1.5c0.8,1.2,1.9,1.8,3.3,1.8
		c0.7,0,1.2-0.2,1.7-0.5c0.4-0.3,0.6-0.8,0.6-1.3c0-0.9-0.7-1.7-2-2.2l-1.6-0.6c-1.1-0.4-2-0.9-2.5-1.6c-0.5-0.6-0.8-1.5-0.8-2.4
		c0-1.2,0.4-2.2,1.3-2.9s2-1.1,3.3-1.1c1.8,0,3.2,0.6,4.3,1.9l-1.6,1.6c-0.7-0.9-1.6-1.3-2.7-1.3c-0.6,0-1.2,0.1-1.6,0.4
		s-0.6,0.7-0.6,1.2c0,0.5,0.2,0.9,0.5,1.2c0.3,0.3,0.9,0.6,1.7,0.9l1.4,0.5c1.1,0.4,1.9,1,2.5,1.6c0.6,0.7,0.9,1.5,0.8,2.5
		c0,1.2-0.4,2.2-1.3,3C543.6,132.9,542.4,133.2,541,133.2z"/>
	<path class="st10" d="M553,133v-14.2h2.3V133H553z"/>
	<path class="st10" d="M558.8,118.8h2.1l5,6.7l5-6.7h2.1V133h-2.4v-10.2l-4.7,6.4l-4.8-6.5V133h-2.3V118.8z"/>
	<path class="st10" d="M576.5,118.8h2.1l5,6.7l5-6.7h2.1V133h-2.4v-10.2l-4.7,6.4l-4.8-6.5V133h-2.3V118.8z"/>
	<path class="st10" d="M605.9,131.1c-1.4,1.4-3.2,2.1-5.2,2.1s-3.8-0.7-5.2-2.1s-2.1-3.2-2.1-5.2c0-2.1,0.7-3.8,2.1-5.2
		c1.4-1.4,3.2-2.1,5.2-2.1s3.8,0.7,5.2,2.1s2.1,3.2,2.1,5.2S607.3,129.7,605.9,131.1z M600.7,131c1.4,0,2.6-0.5,3.5-1.5
		c1-1,1.4-2.2,1.4-3.6s-0.5-2.6-1.4-3.6c-1-1-2.1-1.5-3.5-1.5c-1.4,0-2.6,0.5-3.5,1.5c-1,1-1.4,2.2-1.4,3.6s0.5,2.6,1.4,3.6
		C598.1,130.5,599.3,131,600.7,131z"/>
	<path class="st10" d="M610.6,133v-14.2h4.9c1.2,0,2.3,0.4,3,1.1c0.8,0.8,1.2,1.7,1.2,2.8c0,1.2-0.4,2.1-1.3,2.7
		c1.5,0.6,2.3,1.8,2.3,3.4c0,1.2-0.4,2.2-1.3,3c-0.9,0.8-2,1.2-3.3,1.2H610.6z M612.9,124.8h2.4c0.6,0,1.1-0.2,1.5-0.5
		c0.4-0.4,0.6-0.8,0.6-1.4c0-0.5-0.2-1-0.6-1.4c-0.4-0.4-0.9-0.6-1.5-0.6h-2.4V124.8z M612.9,130.9h3.1c0.7,0,1.3-0.2,1.7-0.6
		c0.4-0.4,0.6-0.9,0.6-1.5c0-0.6-0.2-1.1-0.6-1.5c-0.4-0.4-1-0.6-1.7-0.6h-3.1V130.9z"/>
	<path class="st10" d="M623.2,133v-14.2h2.3V133H623.2z"/>
	<path class="st10" d="M629,133v-14.2h2.3v12h6.5v2.2H629z"/>
	<path class="st10" d="M640,133v-14.2h2.3V133H640z"/>
	<path class="st10" d="M645.8,133v-14.2h8.5v2.2h-6.2v3.6h5v2.2h-5v3.8h6.2v2.2H645.8z M650.9,117.6h-1.7l-2.4-3.1h2.6L650.9,117.6z
		"/>
	<path class="st10" d="M657.1,133v-14.2h5.1c1.3,0,2.4,0.4,3.1,1.1c0.8,0.8,1.2,1.7,1.2,2.9c0,1-0.3,1.8-0.8,2.5
		c-0.6,0.6-1.4,1.1-2.4,1.3l5.3,6.4h-2.9l-5.2-6.2h-1.1v6.2H657.1z M659.4,124.7h2.5c0.7,0,1.2-0.2,1.6-0.5c0.4-0.3,0.6-0.8,0.6-1.4
		c0-0.6-0.2-1.1-0.6-1.4c-0.4-0.3-0.9-0.5-1.6-0.5h-2.5V124.7z"/>
	<path class="st10" d="M670,133v-14.2h8.5v2.2h-6.2v3.6h5v2.2h-5v3.8h6.2v2.2H670z"/>
</g>
<g class="st9">
	<path class="st10" d="M173,226l4.3-9.9h1.4l4.3,9.9h-1.7l-1.1-2.6h-4.5l-1.1,2.6H173z M178.1,218.3l-1.6,3.7h3.2L178.1,218.3z"/>
	<path class="st10" d="M184.4,226v-9.9h3.6c0.9,0,1.6,0.3,2.2,0.8c0.5,0.5,0.8,1.2,0.8,2c0,0.7-0.2,1.3-0.6,1.7
		c-0.4,0.5-0.9,0.8-1.7,0.9l3.7,4.5h-2l-3.6-4.4h-0.7v4.4H184.4z M186.1,220.2h1.8c0.5,0,0.9-0.1,1.1-0.3c0.3-0.2,0.4-0.6,0.4-1
		s-0.1-0.7-0.4-1c-0.3-0.2-0.7-0.3-1.1-0.3h-1.8V220.2z"/>
	<path class="st10" d="M197.7,226.2c-1.4,0-2.6-0.5-3.6-1.5s-1.5-2.2-1.5-3.6s0.5-2.7,1.5-3.6s2.2-1.5,3.6-1.5c1,0,1.8,0.2,2.6,0.7
		c0.8,0.5,1.4,1.1,1.9,1.8l-1.4,0.8c-0.7-1.2-1.7-1.8-3.1-1.8c-1,0-1.8,0.3-2.5,1c-0.7,0.7-1,1.5-1,2.5s0.3,1.8,1,2.5
		c0.7,0.7,1.5,1,2.5,1c1.3,0,2.3-0.6,3.1-1.8l1.4,0.8c-0.5,0.8-1.1,1.4-1.9,1.8C199.5,225.9,198.7,226.2,197.7,226.2z"/>
	<path class="st10" d="M203.8,226v-9.9h1.6v4.1h4.9v-4.1h1.6v9.9h-1.6v-4.3h-4.9v4.3H203.8z"/>
	<path class="st10" d="M214.4,226v-9.9h1.6v9.9H214.4z"/>
	<path class="st10" d="M220.4,226v-8.4h-2.9v-1.6h7.4v1.6H222v8.4H220.4z"/>
	<path class="st10" d="M226.4,226v-9.9h6v1.6H228v2.5h3.5v1.6H228v2.7h4.3v1.6H226.4z"/>
	<path class="st10" d="M238.5,226.2c-1.4,0-2.6-0.5-3.6-1.5s-1.5-2.2-1.5-3.6s0.5-2.7,1.5-3.6s2.2-1.5,3.6-1.5c1,0,1.8,0.2,2.6,0.7
		c0.8,0.5,1.4,1.1,1.9,1.8l-1.4,0.8c-0.7-1.2-1.7-1.8-3.1-1.8c-1,0-1.8,0.3-2.5,1c-0.7,0.7-1,1.5-1,2.5s0.3,1.8,1,2.5
		c0.7,0.7,1.5,1,2.5,1c1.3,0,2.3-0.6,3.1-1.8l1.4,0.8c-0.5,0.8-1.1,1.4-1.9,1.8C240.3,225.9,239.5,226.2,238.5,226.2z"/>
	<path class="st10" d="M246.5,226v-8.4h-2.9v-1.6h7.4v1.6h-2.9v8.4H246.5z"/>
	<path class="st10" d="M252.5,226v-9.9h6v1.6h-4.3v2.5h3.5v1.6h-3.5v2.7h4.3v1.6H252.5z"/>
	<path class="st10" d="M263.1,226.2c-0.8,0-1.5-0.2-2.1-0.5c-0.6-0.3-1.1-0.8-1.4-1.3l1.3-1c0.6,0.8,1.3,1.3,2.3,1.3
		c0.5,0,0.9-0.1,1.2-0.3s0.4-0.5,0.4-0.9c0-0.7-0.5-1.2-1.4-1.5l-1.1-0.4c-0.8-0.3-1.4-0.7-1.8-1.1c-0.4-0.5-0.6-1-0.6-1.7
		c0-0.8,0.3-1.5,0.9-2c0.6-0.5,1.4-0.8,2.3-0.8c1.3,0,2.3,0.5,3,1.4l-1.1,1.1c-0.5-0.6-1.1-0.9-1.9-0.9c-0.4,0-0.8,0.1-1.1,0.3
		s-0.5,0.5-0.5,0.8c0,0.3,0.1,0.6,0.3,0.8c0.2,0.2,0.6,0.4,1.2,0.6l1,0.4c0.8,0.3,1.3,0.7,1.8,1.1c0.4,0.5,0.6,1.1,0.6,1.8
		c0,0.9-0.3,1.6-0.9,2.1C264.9,225.9,264.1,226.2,263.1,226.2z"/>
</g>
<g class="st9">
	<path class="st10" d="M341.6,226.2c-1.4,0-2.6-0.5-3.6-1.5s-1.5-2.2-1.5-3.6s0.5-2.7,1.5-3.6s2.2-1.5,3.6-1.5c1,0,1.8,0.2,2.6,0.7
		c0.8,0.5,1.4,1.1,1.9,1.8l-1.4,0.8c-0.7-1.2-1.7-1.8-3.1-1.8c-1,0-1.8,0.3-2.5,1c-0.7,0.7-1,1.5-1,2.5s0.3,1.8,1,2.5
		c0.7,0.7,1.5,1,2.5,1c1.3,0,2.3-0.6,3.1-1.8l1.4,0.8c-0.5,0.8-1.1,1.4-1.9,1.8C343.5,225.9,342.6,226.2,341.6,226.2z"/>
	<path class="st10" d="M355.8,224.7c-1,1-2.2,1.5-3.6,1.5c-1.4,0-2.6-0.5-3.6-1.5s-1.5-2.2-1.5-3.6s0.5-2.7,1.5-3.6s2.2-1.5,3.6-1.5
		c1.4,0,2.6,0.5,3.6,1.5c1,1,1.5,2.2,1.5,3.6C357.3,222.5,356.8,223.7,355.8,224.7z M352.2,224.6c1,0,1.8-0.3,2.5-1
		c0.7-0.7,1-1.5,1-2.5s-0.3-1.8-1-2.5c-0.7-0.7-1.5-1-2.5-1c-1,0-1.8,0.3-2.5,1c-0.7,0.7-1,1.5-1,2.5s0.3,1.8,1,2.5
		C350.4,224.2,351.2,224.6,352.2,224.6z"/>
	<path class="st10" d="M367.8,226h-1.4l-5.6-7.2v7.2h-1.6v-9.9h1.4l5.6,7.1v-7.1h1.7V226z"/>
	<path class="st10" d="M373,226.2c-0.8,0-1.5-0.2-2.1-0.5c-0.6-0.3-1.1-0.8-1.4-1.3l1.3-1c0.6,0.8,1.3,1.3,2.3,1.3
		c0.5,0,0.9-0.1,1.2-0.3s0.4-0.5,0.4-0.9c0-0.7-0.5-1.2-1.4-1.5l-1.1-0.4c-0.8-0.3-1.4-0.7-1.8-1.1c-0.4-0.5-0.6-1-0.6-1.7
		c0-0.8,0.3-1.5,0.9-2c0.6-0.5,1.4-0.8,2.3-0.8c1.3,0,2.3,0.5,3,1.4l-1.1,1.1c-0.5-0.6-1.1-0.9-1.9-0.9c-0.4,0-0.8,0.1-1.1,0.3
		s-0.5,0.5-0.5,0.8c0,0.3,0.1,0.6,0.3,0.8c0.2,0.2,0.6,0.4,1.2,0.6l1,0.4c0.8,0.3,1.3,0.7,1.8,1.1c0.4,0.5,0.6,1.1,0.6,1.8
		c0,0.9-0.3,1.6-0.9,2.1C374.8,225.9,374,226.2,373,226.2z"/>
	<path class="st10" d="M379.9,226v-8.4H377v-1.6h7.4v1.6h-2.9v8.4H379.9z"/>
	<path class="st10" d="M385.9,226v-9.9h3.6c0.9,0,1.6,0.3,2.2,0.8c0.5,0.5,0.8,1.2,0.8,2c0,0.7-0.2,1.3-0.6,1.7
		c-0.4,0.5-0.9,0.8-1.7,0.9l3.7,4.5h-2l-3.6-4.4h-0.7v4.4H385.9z M387.5,220.2h1.8c0.5,0,0.9-0.1,1.1-0.3c0.3-0.2,0.4-0.6,0.4-1
		s-0.1-0.7-0.4-1c-0.3-0.2-0.7-0.3-1.1-0.3h-1.8V220.2z"/>
	<path class="st10" d="M398.7,226.2c-1.2,0-2.1-0.4-2.9-1.1c-0.7-0.7-1.1-1.7-1.1-3v-6h1.6v6.1c0,0.8,0.2,1.4,0.6,1.8
		c0.4,0.4,1,0.6,1.7,0.6s1.3-0.2,1.7-0.6c0.4-0.4,0.6-1,0.6-1.8v-6.1h1.6v6c0,1.2-0.4,2.2-1.1,2.9
		C400.8,225.8,399.8,226.2,398.7,226.2z"/>
	<path class="st10" d="M409.4,226.2c-1.4,0-2.6-0.5-3.6-1.5s-1.5-2.2-1.5-3.6s0.5-2.7,1.5-3.6s2.2-1.5,3.6-1.5c1,0,1.8,0.2,2.6,0.7
		c0.8,0.5,1.4,1.1,1.9,1.8l-1.4,0.8c-0.7-1.2-1.7-1.8-3.1-1.8c-1,0-1.8,0.3-2.5,1c-0.7,0.7-1,1.5-1,2.5s0.3,1.8,1,2.5
		c0.7,0.7,1.5,1,2.5,1c1.3,0,2.3-0.6,3.1-1.8l1.4,0.8c-0.5,0.8-1.1,1.4-1.9,1.8C411.3,225.9,410.4,226.2,409.4,226.2z"/>
	<path class="st10" d="M417.4,226v-8.4h-2.9v-1.6h7.4v1.6h-2.9v8.4H417.4z"/>
	<path class="st10" d="M423.4,226v-9.9h6v1.6h-4.3v2.5h3.5v1.6h-3.5v2.7h4.3v1.6H423.4z"/>
	<path class="st10" d="M435.1,226.2c-1.2,0-2.1-0.4-2.9-1.1c-0.7-0.7-1.1-1.7-1.1-3v-6h1.6v6.1c0,0.8,0.2,1.4,0.6,1.8
		c0.4,0.4,1,0.6,1.7,0.6s1.3-0.2,1.7-0.6c0.4-0.4,0.6-1,0.6-1.8v-6.1h1.6v6c0,1.2-0.4,2.2-1.1,2.9
		C437.2,225.8,436.3,226.2,435.1,226.2z"/>
	<path class="st10" d="M441.4,226v-9.9h3.6c0.9,0,1.6,0.3,2.2,0.8c0.5,0.5,0.8,1.2,0.8,2c0,0.7-0.2,1.3-0.6,1.7
		c-0.4,0.5-0.9,0.8-1.7,0.9l3.7,4.5h-2l-3.6-4.4H443v4.4H441.4z M443,220.2h1.8c0.5,0,0.9-0.1,1.1-0.3c0.3-0.2,0.4-0.6,0.4-1
		s-0.1-0.7-0.4-1c-0.3-0.2-0.7-0.3-1.1-0.3H443V220.2z"/>
	<path class="st10" d="M453.2,226.2c-0.8,0-1.5-0.2-2.1-0.5c-0.6-0.3-1.1-0.8-1.4-1.3l1.3-1c0.6,0.8,1.3,1.3,2.3,1.3
		c0.5,0,0.9-0.1,1.2-0.3s0.4-0.5,0.4-0.9c0-0.7-0.5-1.2-1.4-1.5l-1.1-0.4c-0.8-0.3-1.4-0.7-1.8-1.1c-0.4-0.5-0.6-1-0.6-1.7
		c0-0.8,0.3-1.5,0.9-2c0.6-0.5,1.4-0.8,2.3-0.8c1.3,0,2.3,0.5,3,1.4l-1.1,1.1c-0.5-0.6-1.1-0.9-1.9-0.9c-0.4,0-0.8,0.1-1.1,0.3
		s-0.5,0.5-0.5,0.8c0,0.3,0.1,0.6,0.3,0.8c0.2,0.2,0.6,0.4,1.2,0.6l1,0.4c0.8,0.3,1.3,0.7,1.8,1.1c0.4,0.5,0.6,1.1,0.6,1.8
		c0,0.9-0.3,1.6-0.9,2.1C455,225.9,454.2,226.2,453.2,226.2z"/>
</g>
<g class="st9">
	<path class="st10" d="M532.5,217c0.6,0.6,1,1.4,1,2.3c0,0.9-0.3,1.7-1,2.3c-0.6,0.6-1.5,0.9-2.5,0.9h-1.5v3.4h-1.6v-9.9h3.2
		C531.1,216.1,531.9,216.4,532.5,217z M531.4,220.5c0.3-0.3,0.5-0.7,0.5-1.2c0-0.5-0.2-0.9-0.5-1.2c-0.3-0.3-0.8-0.5-1.4-0.5h-1.5
		v3.4h1.5C530.6,221,531.1,220.9,531.4,220.5z"/>
	<path class="st10" d="M535.1,226v-9.9h3.6c0.9,0,1.6,0.3,2.2,0.8c0.5,0.5,0.8,1.2,0.8,2c0,0.7-0.2,1.3-0.6,1.7
		c-0.4,0.5-0.9,0.8-1.7,0.9l3.7,4.5h-2l-3.6-4.4h-0.7v4.4H535.1z M536.8,220.2h1.8c0.5,0,0.9-0.1,1.1-0.3c0.3-0.2,0.4-0.6,0.4-1
		s-0.1-0.7-0.4-1c-0.3-0.2-0.7-0.3-1.1-0.3h-1.8V220.2z"/>
	<path class="st10" d="M552.1,224.7c-1,1-2.2,1.5-3.6,1.5c-1.4,0-2.6-0.5-3.6-1.5s-1.5-2.2-1.5-3.6s0.5-2.7,1.5-3.6s2.2-1.5,3.6-1.5
		c1.4,0,2.6,0.5,3.6,1.5c1,1,1.5,2.2,1.5,3.6C553.6,222.5,553.1,223.7,552.1,224.7z M548.4,224.6c1,0,1.8-0.3,2.5-1
		c0.7-0.7,1-1.5,1-2.5s-0.3-1.8-1-2.5c-0.7-0.7-1.5-1-2.5-1c-1,0-1.8,0.3-2.5,1c-0.7,0.7-1,1.5-1,2.5s0.3,1.8,1,2.5
		C546.6,224.2,547.4,224.6,548.4,224.6z"/>
	<path class="st10" d="M555.3,216.1h1.5l3.5,4.7l3.5-4.7h1.5v9.9h-1.7v-7.1l-3.3,4.5l-3.3-4.5v7.1h-1.6V216.1z"/>
	<path class="st10" d="M575.9,224.7c-1,1-2.2,1.5-3.6,1.5c-1.4,0-2.6-0.5-3.6-1.5s-1.5-2.2-1.5-3.6s0.5-2.7,1.5-3.6s2.2-1.5,3.6-1.5
		c1.4,0,2.6,0.5,3.6,1.5c1,1,1.5,2.2,1.5,3.6C577.4,222.5,576.9,223.7,575.9,224.7z M572.2,224.6c1,0,1.8-0.3,2.5-1
		c0.7-0.7,1-1.5,1-2.5s-0.3-1.8-1-2.5c-0.7-0.7-1.5-1-2.5-1c-1,0-1.8,0.3-2.5,1c-0.7,0.7-1,1.5-1,2.5s0.3,1.8,1,2.5
		C570.4,224.2,571.3,224.6,572.2,224.6z"/>
	<path class="st10" d="M580.6,226v-8.4h-2.9v-1.6h7.4v1.6h-2.9v8.4H580.6z"/>
	<path class="st10" d="M586.6,226v-9.9h6v1.6h-4.3v2.5h3.5v1.6h-3.5v2.7h4.3v1.6H586.6z"/>
	<path class="st10" d="M598.4,226.2c-1.2,0-2.1-0.4-2.9-1.1c-0.7-0.7-1.1-1.7-1.1-3v-6h1.6v6.1c0,0.8,0.2,1.4,0.6,1.8
		c0.4,0.4,1,0.6,1.7,0.6s1.3-0.2,1.7-0.6c0.4-0.4,0.6-1,0.6-1.8v-6.1h1.6v6c0,1.2-0.4,2.2-1.1,2.9
		C600.5,225.8,599.5,226.2,598.4,226.2z"/>
	<path class="st10" d="M604.6,226v-9.9h3.6c0.9,0,1.6,0.3,2.2,0.8c0.5,0.5,0.8,1.2,0.8,2c0,0.7-0.2,1.3-0.6,1.7
		c-0.4,0.5-0.9,0.8-1.7,0.9l3.7,4.5h-2l-3.6-4.4h-0.7v4.4H604.6z M606.3,220.2h1.8c0.5,0,0.9-0.1,1.1-0.3c0.3-0.2,0.4-0.6,0.4-1
		s-0.1-0.7-0.4-1c-0.3-0.2-0.7-0.3-1.1-0.3h-1.8V220.2z"/>
	<path class="st10" d="M616.4,226.2c-0.8,0-1.5-0.2-2.1-0.5c-0.6-0.3-1.1-0.8-1.4-1.3l1.3-1c0.6,0.8,1.3,1.3,2.3,1.3
		c0.5,0,0.9-0.1,1.2-0.3s0.4-0.5,0.4-0.9c0-0.7-0.5-1.2-1.4-1.5l-1.1-0.4c-0.8-0.3-1.4-0.7-1.8-1.1c-0.4-0.5-0.6-1-0.6-1.7
		c0-0.8,0.3-1.5,0.9-2c0.6-0.5,1.4-0.8,2.3-0.8c1.3,0,2.3,0.5,3,1.4l-1.1,1.1c-0.5-0.6-1.1-0.9-1.9-0.9c-0.4,0-0.8,0.1-1.1,0.3
		s-0.5,0.5-0.5,0.8c0,0.3,0.1,0.6,0.3,0.8c0.2,0.2,0.6,0.4,1.2,0.6l1,0.4c0.8,0.3,1.3,0.7,1.8,1.1c0.4,0.5,0.6,1.1,0.6,1.8
		c0,0.9-0.3,1.6-0.9,2.1C618.2,225.9,617.4,226.2,616.4,226.2z"/>
</g>
<g class="st9">
	<path class="st10" d="M689.8,226v-9.9h1.6v8.4h4.5v1.6H689.8z"/>
	<path class="st10" d="M705.1,224.7c-1,1-2.2,1.5-3.6,1.5s-2.6-0.5-3.6-1.5c-1-1-1.5-2.2-1.5-3.6s0.5-2.7,1.5-3.6
		c1-1,2.2-1.5,3.6-1.5s2.6,0.5,3.6,1.5c1,1,1.5,2.2,1.5,3.6C706.6,222.5,706.1,223.7,705.1,224.7z M701.5,224.6c1,0,1.8-0.3,2.5-1
		c0.7-0.7,1-1.5,1-2.5s-0.3-1.8-1-2.5c-0.7-0.7-1.5-1-2.5-1c-1,0-1.8,0.3-2.5,1c-0.7,0.7-1,1.5-1,2.5s0.3,1.8,1,2.5
		C699.7,224.2,700.5,224.6,701.5,224.6z"/>
	<path class="st10" d="M709.9,226v-8.4H707v-1.6h7.4v1.6h-2.9v8.4H709.9z"/>
	<path class="st10" d="M715.9,226v-9.9h1.6v9.9H715.9z"/>
	<path class="st10" d="M722.7,226.2c-0.8,0-1.5-0.2-2.1-0.5c-0.6-0.3-1.1-0.8-1.4-1.3l1.3-1c0.6,0.8,1.3,1.3,2.3,1.3
		c0.5,0,0.9-0.1,1.2-0.3s0.4-0.5,0.4-0.9c0-0.7-0.5-1.2-1.4-1.5l-1.1-0.4c-0.8-0.3-1.4-0.7-1.8-1.1c-0.4-0.5-0.6-1-0.6-1.7
		c0-0.8,0.3-1.5,0.9-2s1.4-0.8,2.3-0.8c1.3,0,2.3,0.5,3,1.4l-1.1,1.1c-0.5-0.6-1.1-0.9-1.9-0.9c-0.4,0-0.8,0.1-1.1,0.3
		c-0.3,0.2-0.5,0.5-0.5,0.8c0,0.3,0.1,0.6,0.3,0.8c0.2,0.2,0.6,0.4,1.2,0.6l1,0.4c0.8,0.3,1.3,0.7,1.8,1.1c0.4,0.5,0.6,1.1,0.6,1.8
		c0,0.9-0.3,1.6-0.9,2.1S723.7,226.2,722.7,226.2z"/>
	<path class="st10" d="M730.6,226.2c-0.8,0-1.5-0.2-2.1-0.5c-0.6-0.3-1.1-0.8-1.4-1.3l1.3-1c0.6,0.8,1.3,1.3,2.3,1.3
		c0.5,0,0.9-0.1,1.2-0.3s0.4-0.5,0.4-0.9c0-0.7-0.5-1.2-1.4-1.5l-1.1-0.4c-0.8-0.3-1.4-0.7-1.8-1.1c-0.4-0.5-0.6-1-0.6-1.7
		c0-0.8,0.3-1.5,0.9-2c0.6-0.5,1.4-0.8,2.3-0.8c1.3,0,2.3,0.5,3,1.4l-1.1,1.1c-0.5-0.6-1.1-0.9-1.9-0.9c-0.4,0-0.8,0.1-1.1,0.3
		s-0.5,0.5-0.5,0.8c0,0.3,0.1,0.6,0.3,0.8c0.2,0.2,0.6,0.4,1.2,0.6l1,0.4c0.8,0.3,1.3,0.7,1.8,1.1c0.4,0.5,0.6,1.1,0.6,1.8
		c0,0.9-0.3,1.6-0.9,2.1C732.4,225.9,731.6,226.2,730.6,226.2z"/>
	<path class="st10" d="M735.7,226v-9.9h6v1.6h-4.3v2.5h3.5v1.6h-3.5v2.7h4.3v1.6H735.7z"/>
	<path class="st10" d="M747.4,226.2c-1.2,0-2.1-0.4-2.9-1.1c-0.7-0.7-1.1-1.7-1.1-3v-6h1.6v6.1c0,0.8,0.2,1.4,0.6,1.8
		c0.4,0.4,1,0.6,1.7,0.6c0.7,0,1.3-0.2,1.7-0.6c0.4-0.4,0.6-1,0.6-1.8v-6.1h1.6v6c0,1.2-0.4,2.2-1.1,2.9
		C749.5,225.8,748.6,226.2,747.4,226.2z"/>
	<path class="st10" d="M753.7,226v-9.9h3.6c0.9,0,1.6,0.3,2.2,0.8c0.5,0.5,0.8,1.2,0.8,2c0,0.7-0.2,1.3-0.6,1.7
		c-0.4,0.5-0.9,0.8-1.7,0.9l3.7,4.5h-2l-3.6-4.4h-0.7v4.4H753.7z M755.3,220.2h1.8c0.5,0,0.9-0.1,1.1-0.3s0.4-0.6,0.4-1
		s-0.1-0.7-0.4-1s-0.7-0.3-1.1-0.3h-1.8V220.2z"/>
	<path class="st10" d="M765.5,226.2c-0.8,0-1.5-0.2-2.1-0.5c-0.6-0.3-1.1-0.8-1.4-1.3l1.3-1c0.6,0.8,1.3,1.3,2.3,1.3
		c0.5,0,0.9-0.1,1.2-0.3s0.4-0.5,0.4-0.9c0-0.7-0.5-1.2-1.4-1.5l-1.1-0.4c-0.8-0.3-1.4-0.7-1.8-1.1c-0.4-0.5-0.6-1-0.6-1.7
		c0-0.8,0.3-1.5,0.9-2c0.6-0.5,1.4-0.8,2.3-0.8c1.3,0,2.3,0.5,3,1.4l-1.1,1.1c-0.5-0.6-1.1-0.9-1.9-0.9c-0.4,0-0.8,0.1-1.1,0.3
		s-0.5,0.5-0.5,0.8c0,0.3,0.1,0.6,0.3,0.8c0.2,0.2,0.6,0.4,1.2,0.6l1,0.4c0.8,0.3,1.3,0.7,1.8,1.1c0.4,0.5,0.6,1.1,0.6,1.8
		c0,0.9-0.3,1.6-0.9,2.1C767.3,225.9,766.5,226.2,765.5,226.2z"/>
</g>
<g class="st9">
	<path class="st10" d="M838.8,225v-9.9h6v1.6h-4.3v2.5h3.5v1.6h-3.5v2.7h4.3v1.6H838.8z"/>
	<path class="st10" d="M855.3,225h-1.4l-5.6-7.2v7.2h-1.6v-9.9h1.4l5.6,7.1v-7.1h1.7V225z"/>
	<path class="st10" d="M859.7,225v-8.4h-2.9v-1.6h7.4v1.6h-2.9v8.4H859.7z"/>
	<path class="st10" d="M865.7,225v-9.9h3.6c0.9,0,1.6,0.3,2.2,0.8c0.5,0.5,0.8,1.2,0.8,2c0,0.7-0.2,1.3-0.6,1.7
		c-0.4,0.5-0.9,0.8-1.7,0.9l3.7,4.5h-2l-3.6-4.4h-0.7v4.4H865.7z M867.3,219.2h1.8c0.5,0,0.9-0.1,1.1-0.3c0.3-0.2,0.4-0.6,0.4-1
		s-0.1-0.7-0.4-1c-0.3-0.2-0.7-0.3-1.1-0.3h-1.8V219.2z"/>
	<path class="st10" d="M874.7,225v-9.9h6v1.6h-4.3v2.5h3.5v1.6h-3.5v2.7h4.3v1.6H874.7z"/>
	<path class="st10" d="M888.2,216c0.6,0.6,1,1.4,1,2.3c0,0.9-0.3,1.7-1,2.3c-0.6,0.6-1.5,0.9-2.5,0.9h-1.5v3.4h-1.6v-9.9h3.2
		C886.8,215.1,887.6,215.4,888.2,216z M887.1,219.5c0.3-0.3,0.5-0.7,0.5-1.2c0-0.5-0.2-0.9-0.5-1.2s-0.8-0.5-1.4-0.5h-1.5v3.4h1.5
		C886.3,220,886.8,219.9,887.1,219.5z"/>
	<path class="st10" d="M890.8,225v-9.9h3.6c0.9,0,1.6,0.3,2.2,0.8c0.5,0.5,0.8,1.2,0.8,2c0,0.7-0.2,1.3-0.6,1.7
		c-0.4,0.5-0.9,0.8-1.7,0.9l3.7,4.5h-2l-3.6-4.4h-0.7v4.4H890.8z M892.5,219.2h1.8c0.5,0,0.9-0.1,1.1-0.3c0.3-0.2,0.4-0.6,0.4-1
		s-0.1-0.7-0.4-1c-0.3-0.2-0.7-0.3-1.1-0.3h-1.8V219.2z"/>
	<path class="st10" d="M899.9,225v-9.9h1.6v9.9H899.9z"/>
	<path class="st10" d="M906.7,225.2c-0.8,0-1.5-0.2-2.1-0.5c-0.6-0.3-1.1-0.8-1.4-1.3l1.3-1c0.6,0.8,1.3,1.3,2.3,1.3
		c0.5,0,0.9-0.1,1.2-0.3s0.4-0.5,0.4-0.9c0-0.7-0.5-1.2-1.4-1.5l-1.1-0.4c-0.8-0.3-1.4-0.7-1.8-1.1c-0.4-0.5-0.6-1-0.6-1.7
		c0-0.8,0.3-1.5,0.9-2s1.4-0.8,2.3-0.8c1.3,0,2.3,0.5,3,1.4l-1.1,1.1c-0.5-0.6-1.1-0.9-1.9-0.9c-0.4,0-0.8,0.1-1.1,0.3
		c-0.3,0.2-0.5,0.5-0.5,0.8c0,0.3,0.1,0.6,0.3,0.8c0.2,0.2,0.6,0.4,1.2,0.6l1,0.4c0.8,0.3,1.3,0.7,1.8,1.1c0.4,0.5,0.6,1.1,0.6,1.8
		c0,0.9-0.3,1.6-0.9,2.1C908.5,224.9,907.7,225.2,906.7,225.2z"/>
	<path class="st10" d="M911.8,225v-9.9h6v1.6h-4.3v2.5h3.5v1.6h-3.5v2.7h4.3v1.6H911.8z"/>
	<path class="st10" d="M922.4,225.2c-0.8,0-1.5-0.2-2.1-0.5c-0.6-0.3-1.1-0.8-1.4-1.3l1.3-1c0.6,0.8,1.3,1.3,2.3,1.3
		c0.5,0,0.9-0.1,1.2-0.3s0.4-0.5,0.4-0.9c0-0.7-0.5-1.2-1.4-1.5l-1.1-0.4c-0.8-0.3-1.4-0.7-1.8-1.1c-0.4-0.5-0.6-1-0.6-1.7
		c0-0.8,0.3-1.5,0.9-2c0.6-0.5,1.4-0.8,2.3-0.8c1.3,0,2.3,0.5,3,1.4l-1.1,1.1c-0.5-0.6-1.1-0.9-1.9-0.9c-0.4,0-0.8,0.1-1.1,0.3
		c-0.3,0.2-0.5,0.5-0.5,0.8c0,0.3,0.1,0.6,0.3,0.8c0.2,0.2,0.6,0.4,1.2,0.6l1,0.4c0.8,0.3,1.3,0.7,1.8,1.1c0.4,0.5,0.6,1.1,0.6,1.8
		c0,0.9-0.3,1.6-0.9,2.1S923.4,225.2,922.4,225.2z"/>
	<path class="st10" d="M930.8,225v-9.9h3.1c1.5,0,2.7,0.5,3.7,1.4c1,1,1.5,2.1,1.5,3.5s-0.5,2.6-1.5,3.5c-1,1-2.2,1.4-3.7,1.4H930.8
		z M932.5,223.5h1.4c1,0,1.9-0.3,2.6-1s1-1.5,1-2.5s-0.3-1.8-1-2.5s-1.5-1-2.6-1h-1.4V223.5z"/>
	<path class="st10" d="M940.9,225v-9.9h6v1.6h-4.3v2.5h3.5v1.6h-3.5v2.7h4.3v1.6H940.9z"/>
	<path class="st10" d="M954.6,225l-4.2-9.9h1.8l3.1,7.4l3.1-7.4h1.8l-4.2,9.9H954.6z"/>
	<path class="st10" d="M961.6,225v-9.9h3.6c0.9,0,1.6,0.3,2.2,0.8c0.5,0.5,0.8,1.2,0.8,2c0,0.7-0.2,1.3-0.6,1.7
		c-0.4,0.5-0.9,0.8-1.7,0.9l3.7,4.5h-2l-3.6-4.4h-0.7v4.4H961.6z M963.2,219.2h1.8c0.5,0,0.9-0.1,1.1-0.3s0.4-0.6,0.4-1
		s-0.1-0.7-0.4-1s-0.7-0.3-1.1-0.3h-1.8V219.2z"/>
	<path class="st10" d="M970.6,225v-9.9h3.1c1.5,0,2.7,0.5,3.7,1.4c1,1,1.5,2.1,1.5,3.5s-0.5,2.6-1.5,3.5c-1,1-2.2,1.4-3.7,1.4H970.6
		z M972.2,223.5h1.4c1,0,1.9-0.3,2.6-1s1-1.5,1-2.5s-0.3-1.8-1-2.5s-1.5-1-2.6-1h-1.4V223.5z"/>
</g>
<g class="st9">
	<path class="st10" d="M1049.4,226v-9.9h1.6v4.1h4.9v-4.1h1.6v9.9h-1.6v-4.3h-4.9v4.3H1049.4z"/>
	<path class="st10" d="M1063.9,226.2c-1.2,0-2.1-0.4-2.9-1.1c-0.7-0.7-1.1-1.7-1.1-3v-6h1.6v6.1c0,0.8,0.2,1.4,0.6,1.8
		c0.4,0.4,1,0.6,1.7,0.6c0.7,0,1.3-0.2,1.7-0.6c0.4-0.4,0.6-1,0.6-1.8v-6.1h1.6v6c0,1.2-0.4,2.2-1.1,2.9
		C1066,225.8,1065.1,226.2,1063.9,226.2z"/>
	<path class="st10" d="M1070.2,226v-9.9h1.6v9.9H1070.2z"/>
	<path class="st10" d="M1077.1,226.2c-0.8,0-1.5-0.2-2.1-0.5c-0.6-0.3-1.1-0.8-1.4-1.3l1.3-1c0.6,0.8,1.3,1.3,2.3,1.3
		c0.5,0,0.9-0.1,1.2-0.3s0.4-0.5,0.4-0.9c0-0.7-0.5-1.2-1.4-1.5l-1.1-0.4c-0.8-0.3-1.4-0.7-1.8-1.1c-0.4-0.5-0.6-1-0.6-1.7
		c0-0.8,0.3-1.5,0.9-2c0.6-0.5,1.4-0.8,2.3-0.8c1.3,0,2.3,0.5,3,1.4l-1.1,1.1c-0.5-0.6-1.1-0.9-1.9-0.9c-0.4,0-0.8,0.1-1.1,0.3
		c-0.3,0.2-0.5,0.5-0.5,0.8c0,0.3,0.1,0.6,0.3,0.8c0.2,0.2,0.6,0.4,1.2,0.6l1,0.4c0.8,0.3,1.3,0.7,1.8,1.1c0.4,0.5,0.6,1.1,0.6,1.8
		c0,0.9-0.3,1.6-0.9,2.1C1078.8,225.9,1078,226.2,1077.1,226.2z"/>
	<path class="st10" d="M1084.9,226.2c-0.8,0-1.5-0.2-2.1-0.5c-0.6-0.3-1.1-0.8-1.4-1.3l1.3-1c0.6,0.8,1.3,1.3,2.3,1.3
		c0.5,0,0.9-0.1,1.2-0.3s0.4-0.5,0.4-0.9c0-0.7-0.5-1.2-1.4-1.5l-1.1-0.4c-0.8-0.3-1.4-0.7-1.8-1.1c-0.4-0.5-0.6-1-0.6-1.7
		c0-0.8,0.3-1.5,0.9-2s1.4-0.8,2.3-0.8c1.3,0,2.3,0.5,3,1.4l-1.1,1.1c-0.5-0.6-1.1-0.9-1.9-0.9c-0.4,0-0.8,0.1-1.1,0.3
		c-0.3,0.2-0.5,0.5-0.5,0.8c0,0.3,0.1,0.6,0.3,0.8c0.2,0.2,0.6,0.4,1.2,0.6l1,0.4c0.8,0.3,1.3,0.7,1.8,1.1c0.4,0.5,0.6,1.1,0.6,1.8
		c0,0.9-0.3,1.6-0.9,2.1S1085.9,226.2,1084.9,226.2z"/>
	<path class="st10" d="M1090,226v-9.9h1.6v9.9H1090z"/>
	<path class="st10" d="M1094.1,226v-9.9h6v1.6h-4.3v2.5h3.5v1.6h-3.5v2.7h4.3v1.6H1094.1z"/>
	<path class="st10" d="M1102,226v-9.9h3.6c0.9,0,1.6,0.3,2.2,0.8c0.5,0.5,0.8,1.2,0.8,2c0,0.7-0.2,1.3-0.6,1.7
		c-0.4,0.5-0.9,0.8-1.7,0.9l3.7,4.5h-2l-3.6-4.4h-0.7v4.4H1102z M1103.6,220.2h1.8c0.5,0,0.9-0.1,1.1-0.3s0.4-0.6,0.4-1
		s-0.1-0.7-0.4-1s-0.7-0.3-1.1-0.3h-1.8V220.2z"/>
</g>
<g class="st9">
	<path class="st10" d="M27.1,226.2c-1.6,0-2.8-0.5-3.9-1.5c-1-1-1.5-2.2-1.5-3.7c0-1.4,0.5-2.7,1.5-3.7s2.2-1.5,3.7-1.5
		c1.6,0,2.9,0.5,3.9,1.5l-1.1,1.2c-0.7-0.7-1.6-1.1-2.7-1.1c-1,0-1.9,0.3-2.5,1c-0.7,0.7-1,1.5-1,2.5c0,1,0.3,1.9,1,2.5s1.6,1,2.7,1
		c1.1,0,1.9-0.2,2.4-0.6v-2.2H27v-1.5h4.1v4.5c-0.4,0.5-1,0.8-1.7,1.1C28.7,226,27.9,226.2,27.1,226.2z"/>
	<path class="st10" d="M33.1,226v-9.9h6v1.6h-4.3v2.5h3.5v1.6h-3.5v2.7H39v1.6H33.1z M35.6,215.2l1-2.2h1.8l-1.7,2.2H35.6z"/>
	<path class="st10" d="M48.8,224.7c-1,1-2.2,1.5-3.6,1.5c-1.4,0-2.6-0.5-3.6-1.5S40,222.5,40,221s0.5-2.7,1.5-3.6s2.2-1.5,3.6-1.5
		c1.4,0,2.6,0.5,3.6,1.5c1,1,1.5,2.2,1.5,3.6C50.3,222.5,49.8,223.7,48.8,224.7z M45.2,224.6c1,0,1.8-0.3,2.5-1c0.7-0.7,1-1.5,1-2.5
		s-0.3-1.8-1-2.5c-0.7-0.7-1.5-1-2.5-1c-1,0-1.8,0.3-2.5,1c-0.7,0.7-1,1.5-1,2.5s0.3,1.8,1,2.5C43.4,224.2,44.2,224.6,45.2,224.6z"
		/>
	<path class="st10" d="M52.1,216.1h1.5l3.5,4.7l3.5-4.7h1.5v9.9h-1.7v-7.1l-3.3,4.5l-3.3-4.5v7.1h-1.6V216.1z"/>
	<path class="st10" d="M64.5,226v-9.9h6v1.6h-4.3v2.5h3.5v1.6h-3.5v2.7h4.3v1.6H64.5z M68,215.2h-1.2l-1.7-2.2H67L68,215.2z"/>
	<path class="st10" d="M74.3,226v-8.4h-2.9v-1.6h7.4v1.6h-2.9v8.4H74.3z"/>
	<path class="st10" d="M80.3,226v-9.9h3.6c0.9,0,1.6,0.3,2.2,0.8c0.5,0.5,0.8,1.2,0.8,2c0,0.7-0.2,1.3-0.6,1.7
		c-0.4,0.5-0.9,0.8-1.7,0.9l3.7,4.5h-2l-3.6-4.4h-0.7v4.4H80.3z M81.9,220.2h1.8c0.5,0,0.9-0.1,1.1-0.3c0.3-0.2,0.4-0.6,0.4-1
		s-0.1-0.7-0.4-1c-0.3-0.2-0.7-0.3-1.1-0.3h-1.8V220.2z"/>
	<path class="st10" d="M89.3,226v-9.9h6v1.6H91v2.5h3.5v1.6H91v2.7h4.3v1.6H89.3z"/>
	<path class="st10" d="M100,226.2c-0.8,0-1.5-0.2-2.1-0.5c-0.6-0.3-1.1-0.8-1.4-1.3l1.3-1c0.6,0.8,1.3,1.3,2.3,1.3
		c0.5,0,0.9-0.1,1.2-0.3s0.4-0.5,0.4-0.9c0-0.7-0.5-1.2-1.4-1.5l-1.1-0.4c-0.8-0.3-1.4-0.7-1.8-1.1c-0.4-0.5-0.6-1-0.6-1.7
		c0-0.8,0.3-1.5,0.9-2c0.6-0.5,1.4-0.8,2.3-0.8c1.3,0,2.3,0.5,3,1.4l-1.1,1.1c-0.5-0.6-1.1-0.9-1.9-0.9c-0.4,0-0.8,0.1-1.1,0.3
		s-0.5,0.5-0.5,0.8c0,0.3,0.1,0.6,0.3,0.8c0.2,0.2,0.6,0.4,1.2,0.6l1,0.4c0.8,0.3,1.3,0.7,1.8,1.1c0.4,0.5,0.6,1.1,0.6,1.8
		c0,0.9-0.3,1.6-0.9,2.1C101.7,225.9,101,226.2,100,226.2z"/>
</g>
<g class="st9">
	<path class="st10" d="M544.2,33l-6-14.2h2.6l4.4,10.6l4.4-10.6h2.6l-6,14.2H544.2z"/>
	<path class="st10" d="M565.2,31.1c-1.4,1.4-3.2,2.1-5.2,2.1s-3.8-0.7-5.2-2.1s-2.1-3.2-2.1-5.2c0-2.1,0.7-3.8,2.1-5.2
		c1.4-1.4,3.2-2.1,5.2-2.1s3.8,0.7,5.2,2.1s2.1,3.2,2.1,5.2S566.6,29.7,565.2,31.1z M560,31c1.4,0,2.6-0.5,3.5-1.5
		c1-1,1.4-2.2,1.4-3.6s-0.5-2.6-1.4-3.6c-1-1-2.1-1.5-3.5-1.5c-1.4,0-2.6,0.5-3.5,1.5c-1,1-1.4,2.2-1.4,3.6s0.5,2.6,1.4,3.6
		C557.4,30.5,558.6,31,560,31z"/>
	<path class="st10" d="M575.4,33.2c-1.7,0-3.1-0.5-4.1-1.6s-1.6-2.5-1.6-4.2v-8.6h2.3v8.7c0,1.1,0.3,2,0.9,2.6
		c0.6,0.6,1.4,0.9,2.4,0.9c1,0,1.8-0.3,2.4-0.9c0.6-0.6,0.9-1.5,0.9-2.6v-8.7h2.3v8.6c0,1.7-0.5,3.1-1.6,4.2
		C578.4,32.7,577.1,33.2,575.4,33.2z"/>
	<path class="st10" d="M588.3,33.2c-1.1,0-2.2-0.2-3.1-0.7c-0.9-0.5-1.6-1.1-2-1.9l1.8-1.5c0.8,1.2,1.9,1.8,3.3,1.8
		c0.7,0,1.2-0.2,1.7-0.5c0.4-0.3,0.6-0.8,0.6-1.3c0-0.9-0.7-1.7-2-2.2l-1.6-0.6c-1.1-0.4-2-0.9-2.5-1.6c-0.5-0.6-0.8-1.5-0.8-2.4
		c0-1.2,0.4-2.2,1.3-2.9s2-1.1,3.3-1.1c1.8,0,3.2,0.6,4.3,1.9l-1.6,1.6c-0.7-0.9-1.6-1.3-2.7-1.3c-0.6,0-1.2,0.1-1.6,0.4
		s-0.6,0.7-0.6,1.2c0,0.5,0.2,0.9,0.5,1.2c0.3,0.3,0.9,0.6,1.7,0.9l1.4,0.5c1.1,0.4,1.9,1,2.5,1.6c0.6,0.7,0.9,1.5,0.8,2.5
		c0,1.2-0.4,2.2-1.3,3C590.9,32.9,589.7,33.2,588.3,33.2z"/>
</g>
<line id="Ligne_62" class="st11" x1="565.5" y1="61" x2="565.5" y2="91"/>
<line id="Ligne_63" class="st12" x1="565.5" y1="161" x2="565.5" y2="176"/>
<line id="Ligne_64" class="st12" x1="565.5" y1="176" x2="62.5" y2="176"/>
<line id="Ligne_69" class="st12" x1="1079.5" y1="176" x2="565.5" y2="176"/>
<line id="Ligne_65" class="st12" x1="62.5" y1="176" x2="62.5" y2="191"/>
<line id="Ligne_66" class="st12" x1="220.5" y1="176" x2="220.5" y2="191"/>
<line id="Ligne_67" class="st12" x1="396.5" y1="176" x2="396.5" y2="191"/>
<line id="Ligne_68" class="st12" x1="565.5" y1="176" x2="565.5" y2="191"/>
<line id="Ligne_70" class="st12" x1="729.5" y1="176" x2="729.5" y2="191"/>
<line id="Ligne_71" class="st12" x1="908.5" y1="176" x2="908.5" y2="191"/>
<line id="Ligne_72" class="st12" x1="1079.5" y1="176" x2="1079.5" y2="191"/>
</svg>
