<?xml version="1.0" encoding="utf-8"?>
<!-- Generator: Adobe Illustrator 24.3.0, SVG Export Plug-In . SVG Version: 6.00 Build 0)  -->
<svg version="1.1" id="Calque_1" xmlns="http://www.w3.org/2000/svg" xmlns:xlink="http://www.w3.org/1999/xlink" x="0px" y="0px"
	 viewBox="0 0 50 112.8" style="enable-background:new 0 0 50 112.8;" xml:space="preserve">
<style type="text/css">
	.st0{fill:#AEBBC0;}
	.st1{fill:#F1F5F9;}
	.st2{fill:#CED5DB;}
	.st3{fill:#FBBA0E;}
	.st4{fill:#FEED53;}
	.st5{fill:#FFE905;}
</style>
<g id="Groupe_4464" transform="translate(-674.574 -110.971)">
	<g id="Groupe_3924" transform="translate(674.574 140.744)">
		<path id="Tracé_8793" class="st0" d="M0,68.6V14.4l25,14.4V83L0,68.6z"/>
		<path id="Tracé_8794" class="st1" d="M0,14.4L25,0l25,14.4L25,28.9L0,14.4z"/>
		<path id="Tracé_8795" class="st2" d="M25,28.9V83l25-14.4V14.4L25,28.9z"/>
	</g>
	<g id="Groupe_3925" transform="translate(674.574 110.971)">
		<path id="Tracé_8796" class="st3" d="M0,44.2V14.4l25,14.4v29.8L0,44.2z"/>
		<path id="Tracé_8797" class="st4" d="M0,14.4L25,0l25,14.4L25,28.9L0,14.4z"/>
		<path id="Tracé_8798" class="st5" d="M25,28.9v29.8l25-14.4V14.4L25,28.9z"/>
	</g>
</g>
</svg>
