<?xml version="1.0" encoding="utf-8"?>
<!-- Generator: Adobe Illustrator 24.3.0, SVG Export Plug-In . SVG Version: 6.00 Build 0)  -->
<svg version="1.1" id="Calque_1" xmlns="http://www.w3.org/2000/svg" xmlns:xlink="http://www.w3.org/1999/xlink" x="0px" y="0px"
	 viewBox="0 0 50 98.2" style="enable-background:new 0 0 50 98.2;" xml:space="preserve">
<style type="text/css">
	.st0{fill:#AEBBC0;}
	.st1{fill:#F1F5F9;}
	.st2{fill:#CED5DB;}
	.st3{fill:#FBBA0E;}
	.st4{fill:#FEED53;}
	.st5{fill:#FFE905;}
</style>
<g id="Groupe_4460" transform="translate(-650.061 -116.971)">
	<g id="Groupe_3643" transform="translate(650.062 132.137)">
		<path id="Tracé_8507" class="st0" d="M0,68.6V14.4l25,14.4V83L0,68.6z"/>
		<path id="Tracé_8508" class="st1" d="M0,14.4L25,0l25,14.4L25,28.9L0,14.4z"/>
		<path id="Tracé_8509" class="st2" d="M25,28.9V83l25-14.4V14.4L25,28.9z"/>
	</g>
	<g id="Groupe_3644" transform="translate(650.061 116.971)">
		<path id="Tracé_8510" class="st3" d="M0,29.6V14.4l25,14.4V44L0,29.6z"/>
		<path id="Tracé_8511" class="st4" d="M0,14.4L25,0l25,14.4L25,28.9L0,14.4z"/>
		<path id="Tracé_8512" class="st5" d="M25,28.9V44l25-14.4V14.4L25,28.9z"/>
	</g>
</g>
</svg>
