<?xml version="1.0" encoding="utf-8"?>
<!-- Generator: Adobe Illustrator 24.3.0, SVG Export Plug-In . SVG Version: 6.00 Build 0)  -->
<svg version="1.1" id="Calque_1" xmlns="http://www.w3.org/2000/svg" xmlns:xlink="http://www.w3.org/1999/xlink" x="0px" y="0px"
	 viewBox="0 0 591 491.8" style="enable-background:new 0 0 591 491.8;" xml:space="preserve">
<style type="text/css">
	.st0{fill:#441610;}
	.st1{fill:#30120D;}
	.st2{fill:#5B1B15;}
	.st3{fill:#424444;}
	.st4{fill:#161615;}
	.st5{fill:#243E8B;}
	.st6{fill:#FFE905;}
	.st7{fill:#07A4A4;}
	.st8{fill:#0C7B79;}
	.st9{fill:#20B4B1;}
	.st10{fill:#D87265;}
	.st11{fill:#F29785;}
	.st12{fill:#F6B09F;}
	.st13{fill:#BD675A;}
	.st14{fill:#F4A08D;}
	.st15{fill:#FFFFFF;}
	.st16{fill:#D2D0D1;}
	.st17{fill:#8F9090;}
	.st18{fill:#6A6969;}
	.st19{fill:#B8B8B7;}
	.st20{fill:#E87D71;}
	.st21{fill:#CA625D;}
	.st22{fill:#EA8A7F;}
	.st23{fill:#F4A195;}
	.st24{fill:#5C1B15;}
	.st25{fill:none;stroke:#FFE905;stroke-dasharray:8,12;}
	.st26{fill:#FBBA0E;}
	.st27{fill:#FEED53;}
	.st28{fill:#F1F5F9;}
	.st29{fill:#CED5DB;}
</style>
<g id="Groupe_3607" transform="translate(0 53)">
	<g id="Groupe_3583" transform="translate(6.278 35.925)">
		<g id="Groupe_3576" transform="translate(0.572 97.703)">
			<path id="Tracé_8292" class="st0" d="M27.6,25.4l5.1-3.5V18l-5.1,3.5V25.4z"/>
			<path id="Tracé_8293" class="st1" d="M27.6,25.4l-13.8-9.6v-3.9l13.8,9.6V25.4z"/>
			<path id="Tracé_8294" class="st2" d="M18.9,9l13.8,9l-5.1,3.5l-13.8-9.6L18.9,9z"/>
		</g>
		<g id="Groupe_3578" transform="translate(8.262 41.088)">
			<g id="Groupe_3577" transform="translate(0.45 46.46)">
				<path id="Tracé_8295" class="st0" d="M30.8,27.6l5.1-3.5v-3.9l-5.1,3.5V27.6z"/>
				<path id="Tracé_8296" class="st1" d="M30.8,27.6l-17-11.8v-3.9l17,11.8V27.6z"/>
				<path id="Tracé_8297" class="st2" d="M18.9,9l17,11.2l-5.1,3.5l-17-11.8L18.9,9z"/>
			</g>
			<path id="Tracé_8298" class="st3" d="M26,66.4l4.9-3.4V17.5L26,20.9V66.4z"/>
			<path id="Tracé_8299" class="st4" d="M26,66.4l-12.2-8.5V12.4L26,20.9V66.4z"/>
			<path id="Tracé_8300" class="st5" d="M18.7,9l12.2,8.5L26,20.9l-12.2-8.5L18.7,9z"/>
		</g>
		<g id="Groupe_3579" transform="translate(0.032 51.292)">
			<path id="Tracé_8301" class="st3" d="M22.8,64.2l4.9-3.4V15.3l-4.9,3.4V64.2z"/>
			<path id="Tracé_8302" class="st4" d="M22.8,64.2l-9-6.3V12.4l9,6.3V64.2z"/>
			<path id="Tracé_8303" class="st5" d="M18.7,9l9,6.3l-4.9,3.4l-9-6.3L18.7,9z"/>
		</g>
		<g id="Groupe_3580" transform="translate(0.032 32.131)">
			<path id="Tracé_8304" class="st3" d="M22.8,37.9l16.3-11.4v-9L22.8,28.9V37.9z"/>
			<path id="Tracé_8305" class="st4" d="M22.8,37.9l-9-6.3v-9l9,6.3V37.9z"/>
			<path id="Tracé_8306" class="st5" d="M26.9,9l12.2,8.5L22.8,28.9l-9-6.3L26.9,9z"/>
		</g>
		<g id="Groupe_3581" transform="translate(0 40.65)">
			<path id="Tracé_8307" class="st6" d="M22.8,23.5l16.3-11.3V9L22.8,20.3V23.5z"/>
			<path id="Tracé_8308" class="st6" d="M22.8,23.5l-9-6.3V14l9,6.3V23.5z"/>
		</g>
		<g id="Groupe_3582" transform="translate(0.03 0)">
			<path id="Tracé_8309" class="st7" d="M22.8,61l16.3-11.3V15.3L22.8,26.7V61z"/>
			<path id="Tracé_8310" class="st8" d="M22.8,61l-9-6.3V20.4l9,6.3V61z"/>
			<path id="Tracé_8311" class="st9" d="M30.1,9l9,6.3L22.8,26.6l-9-6.3L30.1,9z"/>
		</g>
	</g>
	<g id="Groupe_3602" transform="translate(4.447 50.429)">
		<g id="Groupe_3596" transform="translate(0 0)">
			<g id="Groupe_3594" transform="translate(1.354 1.85)">
				<g id="Groupe_3592" transform="translate(0 34.426)">
					<g id="Groupe_3588" transform="translate(0 5.968)">
						<g id="Groupe_3584" transform="translate(0)">
							<path id="Tracé_8312" class="st10" d="M14.5,14.2l-0.6-0.4V9.4l0.6,0.4V14.2z"/>
							<path id="Tracé_8313" class="st11" d="M14.5,14.2l0.6-0.4V9.4l-0.6,0.4V14.2z"/>
							<path id="Tracé_8314" class="st12" d="M14.4,9l-0.6,0.4l0.6,0.4L15,9.4L14.4,9z"/>
						</g>
						<g id="Groupe_3585" transform="translate(1.363 0.98)">
							<path id="Tracé_8315" class="st10" d="M14.5,16.2l-0.6-0.4V9.4l0.6,0.4V16.2z"/>
							<path id="Tracé_8316" class="st11" d="M14.5,16.2l0.6-0.4V9.4l-0.6,0.4L14.5,16.2z"/>
							<path id="Tracé_8317" class="st12" d="M14.4,9l-0.6,0.4l0.6,0.4L15,9.4L14.4,9z"/>
						</g>
						<g id="Groupe_3586" transform="translate(2.755 1.958)">
							<path id="Tracé_8318" class="st10" d="M14.5,16.2l-0.6-0.4V9.4l0.6,0.4V16.2z"/>
							<path id="Tracé_8319" class="st11" d="M14.5,16.2l0.6-0.4V9.4l-0.6,0.4V16.2z"/>
							<path id="Tracé_8320" class="st12" d="M14.4,9l-0.6,0.4l0.6,0.4L15,9.4L14.4,9z"/>
						</g>
						<g id="Groupe_3587" transform="translate(4.146 2.952)">
							<path id="Tracé_8321" class="st10" d="M14.5,15.2l-0.6-0.4V9.4l0.6,0.4V15.2z"/>
							<path id="Tracé_8322" class="st11" d="M14.5,15.2l0.6-0.4V9.4l-0.6,0.4V15.2z"/>
							<path id="Tracé_8323" class="st12" d="M14.4,9l-0.6,0.4l0.6,0.4L15,9.4L14.4,9z"/>
						</g>
					</g>
					<g id="Groupe_3591" transform="translate(0)">
						<g id="Groupe_3589" transform="translate(5.681 7.851)">
							<path id="Tracé_8324" class="st11" d="M14.5,12.2l0.7-0.5V9.4l-0.7,0.5V12.2z"/>
							<path id="Tracé_8325" class="st13" d="M14.5,12.2l-0.6-0.4V9.5l0.6,0.4V12.2z"/>
							<path id="Tracé_8326" class="st14" d="M14.5,9l0.6,0.4l-0.7,0.5l-0.6-0.4L14.5,9z"/>
						</g>
						<g id="Groupe_3590" transform="translate(0)">
							<path id="Tracé_8327" class="st10" d="M18.6,19.1l-4.8-3.4v-5.2l4.8,3.4V19.1z"/>
							<path id="Tracé_8328" class="st11" d="M18.6,19.1l2.2-1.6v-5.2l-2.2,1.6V19.1z"/>
							<path id="Tracé_8329" class="st12" d="M16.1,9l-2.3,1.6l4.8,3.4l2.3-1.6L16.1,9z"/>
						</g>
					</g>
				</g>
				<path id="Tracé_8330" class="st11" d="M18.6,48.4l2.2-1.6V12.4L18.6,14V48.4z"/>
				<g id="Groupe_3593" transform="translate(0)">
					<path id="Tracé_8331" class="st10" d="M18.6,48.4L13.8,45V10.6l4.8,3.4V48.4z"/>
					<path id="Tracé_8332" class="st12" d="M16.1,9l4.8,3.4L18.6,14l-4.8-3.4L16.1,9z"/>
				</g>
			</g>
			<g id="Groupe_3595">
				<path id="Tracé_8333" class="st7" d="M20,23.4l3.6-2.5v-7.6L20,15.8V23.4z"/>
				<path id="Tracé_8334" class="st8" d="M20,23.4l-6.2-4.3v-7.6l6.2,4.3V23.4z"/>
				<path id="Tracé_8335" class="st9" d="M17.5,9l6.2,4.3L20,15.8l-6.2-4.3L17.5,9z"/>
			</g>
		</g>
		<g id="Groupe_3601" transform="translate(1.354 35.849)">
			<path id="Tracé_8336" class="st1" d="M18.6,14l-4.8-3.4V9l4.8,3.4V14z"/>
			<path id="Tracé_8337" class="st0" d="M20.9,10.8v1.6L18.6,14v-1.6L20.9,10.8z"/>
			<g id="Groupe_3600" transform="translate(0.411 0.784)">
				<path id="Tracé_8338" class="st0" d="M17,10c-0.6-0.9-1.6-1.3-2.2-0.9c0,0,0,0-0.1,0l0,0l-0.4,0.3c0.6-0.4,1.6,0,2.2,0.9
					c0.6,0.7,0.6,1.7,0,2.4l0.4-0.3c0,0,0,0,0,0C17.6,11.8,17.7,10.7,17,10z"/>
				<path id="Tracé_8339" class="st1" d="M16.6,10.3c0.6,0.7,0.6,1.7-0.1,2.4c-0.6,0.4-1.6,0-2.2-0.9c-0.6-0.7-0.6-1.7,0.1-2.4
					C15,9.1,16,9.4,16.6,10.3z"/>
				<path id="Tracé_8340" class="st15" d="M16.4,10.5c0.5,0.6,0.5,1.5-0.1,2c-0.5,0.4-1.4,0-1.9-0.7c-0.5-0.6-0.5-1.5,0.1-2
					C15,9.4,15.9,9.7,16.4,10.5z"/>
				<path id="Tracé_8341" class="st16" d="M16.3,10.6c-0.5-0.8-1.4-1.1-1.9-0.7c0,0-0.1,0.1-0.1,0.1c0.1-0.1,0.1-0.2,0.2-0.2
					c0.5-0.4,1.4,0,1.9,0.7c0.5,0.5,0.5,1.3,0.1,1.9C16.8,11.8,16.7,11.1,16.3,10.6z"/>
				<g id="Groupe_3599" transform="translate(1.492 1.158)">
					<g id="Groupe_3597" transform="translate(0.009)">
						<path id="Tracé_8342" class="st17" d="M14,9v1.1l-0.1,0.1L14,9L14,9z"/>
						<path id="Tracé_8343" class="st18" d="M14,9L14,9l-0.2,0L14,9L14,9z"/>
					</g>
					<g id="Groupe_3598" transform="translate(0 0.057)">
						<path id="Tracé_8344" class="st19" d="M14.5,10.5L13.9,10V9l-0.1,0l0,1.1l0,0l0,0l0.7,0.5L14.5,10.5z"/>
						<path id="Tracé_8345" class="st18" d="M14.5,10.6L14.5,10.6l0.1-0.1L14.5,10.6L14.5,10.6z"/>
						<path id="Tracé_8346" class="st17" d="M13.9,10L13.9,10l0.6,0.5l0.1,0L13.9,10z"/>
					</g>
				</g>
			</g>
		</g>
	</g>
	<g id="Groupe_3606" transform="translate(0 0)">
		<g id="Groupe_3603" transform="translate(12.32 28.811)">
			<path id="Tracé_8347" class="st20" d="M18.4,28l6.6-4.7V12.2l-6.6,4.7V28z"/>
			<path id="Tracé_8348" class="st21" d="M18.4,28l-4.6-3.2V13.6l4.6,3.2V28z"/>
			<path id="Tracé_8349" class="st22" d="M20.5,9l4.6,3.2l-6.6,4.7l-4.6-3.2L20.5,9z"/>
		</g>
		<g id="Groupe_3604" transform="translate(0 0)">
			<path id="Tracé_8350" class="st11" d="M30.8,52.8l18.7-13.1V21L30.8,34.1V52.8z"/>
			<path id="Tracé_8351" class="st10" d="M30.8,52.8L13.8,40.9V22.3l16.9,11.9V52.8z"/>
			<path id="Tracé_8352" class="st23" d="M13.8,22.3L32.5,9l16.9,12.1L30.8,34.1L13.8,22.3z"/>
		</g>
		<g id="Groupe_3605" transform="translate(0 0)">
			<path id="Tracé_8353" class="st0" d="M30.8,40.4l18.7-13.1v-6.3L30.8,34.1V40.4z"/>
			<path id="Tracé_8354" class="st24" d="M13.8,22.3L32.5,9l16.9,12.1L30.8,34.1L13.8,22.3z"/>
			<path id="Tracé_8355" class="st1" d="M13.8,22.3L13.8,22.3L13.8,22.3l8.3,5.8v0l8.6,6v6.3l-8.6-6.1v12.5l-8.3-5.8v-8.7l0,0V22.3
				z"/>
		</g>
	</g>
</g>
<line id="Ligne_48" class="st25" x1="51.1" y1="211.5" x2="397.5" y2="411.5"/>
<ellipse id="Ellipse_107" class="st9" cx="89.4" cy="233.3" rx="14.8" ry="10.6"/>
<ellipse id="Ellipse_110" class="st9" cx="245.4" cy="324.3" rx="14.8" ry="10.6"/>
<ellipse id="Ellipse_112" class="st9" cx="367.4" cy="393.3" rx="14.8" ry="10.6"/>
<ellipse id="Ellipse_108" class="st8" cx="89.4" cy="233.3" rx="7.8" ry="5.6"/>
<ellipse id="Ellipse_109" class="st8" cx="245.4" cy="324.3" rx="7.8" ry="5.6"/>
<ellipse id="Ellipse_111" class="st8" cx="367.4" cy="393.3" rx="7.8" ry="5.6"/>
<g id="Groupe_3636" transform="translate(-546.198 -310.257)">
	<path id="Tracé_8492" class="st26" d="M589.6,322.5l-3.1-2l0,0c-2.4-1.9-6.3-1.6-10.5,0.9c-5.9,3.5-10.2,9.3-11.8,16l0,0
		c0,0.1,0,0.2,0,0.2l0,0.1c0,0,0,0.1,0,0.1s0,0.1,0,0.1s0,0,0,0c0,0,0,0.1,0,0.1v0c0,0,0,0,0,0l4.2,2.7c0.3-1,0.7-1.9,1.3-2.8l1.1,0
		c0.4-1.8,1-3.5,1.9-5l0.2-0.2c0.8-1.3,1.9-2.4,3.2-3.2c2-1.2,3.6-0.3,3.6,2.2c0,3.7-2.6,5.3-5.3,8.9c-1.6,1.9-2.3,4.4-2.1,6.9v5.7
		l2.5,1.6c-2.4,2.1-3.8,5-4,8.1c-0.1,1.2,0.4,2.3,1.2,3.1l0,0l0.1,0.1c0.1,0.1,0.2,0.1,0.2,0.2l4,2.6l2.4-2l-0.1-3.4
		c1-1.3,1.8-2.9,2.2-4.5l3-2.6l-4.7-3l-0.1,0.1c-0.9-0.2-1.8-0.1-2.6,0.3l0-3l3.2-1.8V346c-0.2-1.8,0.4-3.5,1.6-4.9
		c4.3-4.6,7.6-9.6,7.6-14.7c0-0.9-0.1-1.8-0.3-2.7l0.8,0.3L589.6,322.5z"/>
	<path id="Tracé_8493" class="st27" d="M588.5,323.6l0.8,0.3l0.3-1.5l-3.1-2l0,0c-2.4-1.9-6.3-1.6-10.5,0.9
		c-5.9,3.5-10.2,9.3-11.8,16l0,0c0,0.1,0,0.2,0,0.2l0,0.1c0,0,0,0.1,0,0.1s0,0.1,0,0.1s0,0,0,0c0,0,0,0.1,0,0.1v0c0,0,0,0,0,0
		l4.2,2.7c0.3-1,0.7-1.9,1.3-2.8l1.1,0c0.4-1.8,1-3.5,1.9-5l0.2-0.2c0.8-1.3,1.9-2.4,3.2-3.2c2-1.2,3.6-0.3,3.6,2.2
		c0,3.7-2.6,5.3-5.3,8.9c-0.5,0.7-1,1.4-1.3,2.2l15.7-17.9C588.7,324.5,588.6,324.1,588.5,323.6z"/>
	<g id="Groupe_3635" transform="translate(554.417 312.945)">
		<path id="Tracé_8494" class="st6" d="M13.8,27.8c1.5-7,5.8-13.1,12-16.7c6.8-3.9,12.8-2.3,12.8,5c0,5.1-3.3,10.1-7.6,14.7
			c-1.2,1.3-1.8,3.1-1.6,4.9v2.9L22,42.9v-5.7c-0.2-2.5,0.6-4.9,2.1-6.9c2.7-3.6,5.3-5.3,5.3-8.9c0-2.5-1.6-3.3-3.6-2.2
			c-3.2,1.9-4.8,5.9-5.3,8.4L13.8,27.8z M30.9,46.7c-0.2,3.6-2.1,6.9-5.2,8.9c-2.8,1.6-5.1,0.3-5.1-3c0.2-3.6,2.1-7,5.1-8.9
			C28.6,42,30.9,43.4,30.9,46.7z"/>
	</g>
</g>
<g id="Groupe_3637" transform="translate(356 390.598)">
	<path id="Tracé_8495" class="st3" d="M35.1,52.9L13.8,47l3-1.7l14.7,4.1l-7.1-8.5l3.1-1.8l10.1,12.3L35.1,52.9z"/>
	<path id="Tracé_8496" class="st3" d="M44.8,47.3l-15.7-9.1l8.5-4.9l3,1.8l-5.7,3.3l3.2,1.9l4.5-2.6l3.1,1.8L41.2,42l3.3,1.9
		l5.7-3.3l3,1.8L44.8,47.3z"/>
	<path id="Tracé_8497" class="st3" d="M67.8,34l-2.4,1.4l-17.2-1.9l10.2,5.9L55.6,41L40,32l2.4-1.4l17.2,1.9l-10.2-5.9l2.8-1.6
		L67.8,34z"/>
	<path id="Tracé_8498" class="st3" d="M70.8,32.3l-15.7-9.1l4.5-2.6c2.2-1.2,4.7-1.7,7.2-1.5c2.7,0,5.3,0.7,7.6,2
		c2.2,1.3,3.4,2.7,3.5,4.4c0.2,1.7-0.7,3-2.7,4.2L70.8,32.3z M70.6,29l1.7-1c1.2-0.7,1.8-1.6,1.6-2.6c-0.3-1.2-1.2-2.2-2.3-2.7
		c-1.4-0.8-3-1.3-4.7-1.3c-1.5-0.1-3.1,0.2-4.4,0.9l-1.7,1L70.6,29z"/>
	<path id="Tracé_8499" class="st3" d="M90.2,21.4c-1.8,1-3.8,1.4-5.8,1.3c-2.2-0.1-4.3-0.7-6.2-1.8l-9.5-5.5l2.8-1.6l9.5,5.5
		c1,0.6,2.1,0.9,3.2,1c1,0.1,2-0.2,2.9-0.7c0.8-0.5,1.2-1,1.1-1.7c-0.1-0.6-0.7-1.2-1.7-1.8L77,10.6L79.7,9l9.5,5.5
		c1.9,1.1,3,2.3,3.1,3.6S91.8,20.5,90.2,21.4z"/>
</g>
<g id="Groupe_3638" transform="translate(380.889 399.901)">
	<path id="Tracé_8500" class="st9" d="M19.8,73.9l-5.1-3l5.6-3.2l-6.5-3.8l4.4-2.6l6.5,3.8l5.6-3.2l5.1,3l-5.6,3.2l6.5,3.8L32,74.4
		l-6.5-3.8L19.8,73.9z"/>
	<path id="Tracé_8501" class="st9" d="M58.3,63.6c-2.9,1.6-6.3,2.4-9.6,2.3c-3.7,0-7.4-0.9-10.6-2.7l5.1-2.9
		c1.5,0.8,3.2,1.1,4.9,1.1c1.6,0,3.1-0.4,4.5-1.2c1.2-0.7,1.8-1.4,1.9-2.3s-0.5-1.6-1.7-2.3c-1.3-0.7-2.7-1.1-4.2-1.1
		c-1.5,0-3,0.5-4.2,1.2l-2.2,1.3l-4.8-2.8l2-1.2c1.2-0.7,1.8-1.4,1.8-2.2s-0.6-1.5-1.7-2.1c-1.1-0.6-2.3-0.9-3.5-0.9
		c-1.2,0-2.4,0.3-3.5,0.9c-1.2,0.7-1.8,1.5-1.7,2.4c0,0.9,0.7,1.7,2,2.4l-5.1,3c-3-1.8-4.6-3.7-4.6-5.8c0-2.1,1.2-3.9,3.7-5.3
		c2.7-1.5,5.7-2.3,8.8-2.1c3,0,6,0.8,8.6,2.3c1.2,0.6,2.2,1.6,3,2.7c0.5,0.8,0.8,1.8,0.6,2.8c1.8-0.3,3.6-0.3,5.3,0
		c1.9,0.3,3.7,0.9,5.3,1.9c2.7,1.6,4.1,3.3,4.1,5.3S61.1,62,58.3,63.6z"/>
	<path id="Tracé_8502" class="st9" d="M80.9,50.6c-3.2,1.7-6.9,2.5-10.5,2.1c-4-0.2-8-1.4-11.4-3.4L51.5,45c-3.5-2-5.5-4.2-5.9-6.6
		s0.8-4.4,3.7-6.1c3.2-1.7,6.9-2.5,10.5-2.1c4,0.2,7.9,1.4,11.4,3.4l7.4,4.3c3.5,2,5.5,4.2,5.9,6.6S83.8,48.9,80.9,50.6z M69.9,48.3
		c1.8,0.2,3.6-0.2,5.1-1c1.4-0.8,2-1.8,1.8-3c-0.3-1.1-1.4-2.3-3.3-3.4l-7.4-4.3c-1.8-1.1-3.8-1.7-5.9-1.9c-1.8-0.2-3.5,0.2-5.1,1
		c-1.4,0.8-2,1.8-1.8,3s1.3,2.3,3.3,3.4l7.4,4.3C65.8,47.5,67.9,48.1,69.9,48.3L69.9,48.3z"/>
	<path id="Tracé_8503" class="st9" d="M86.6,30.7c-2.4,1.2-5,1.8-7.7,1.6c-2.8-0.1-5.6-0.8-8.1-2.2c-2.3-1.4-3.6-2.9-3.9-4.7
		s0.7-3.3,2.7-4.4c2.4-1.2,5-1.8,7.7-1.6c2.9,0.1,5.7,0.8,8.2,2.2c2.3,1.3,3.6,2.9,3.8,4.7C89.5,28,88.6,29.5,86.6,30.7z M78.5,28.4
		c1.1,0.1,2.2-0.1,3.1-0.6c0.7-0.3,1.2-1,1.1-1.8c-0.2-0.9-0.8-1.6-1.6-1.9c-1-0.6-2.2-0.9-3.3-0.9c-1.1-0.1-2.2,0.1-3.1,0.6
		c-0.7,0.3-1.2,1-1.1,1.8c0.2,0.9,0.8,1.6,1.6,1.9C76.2,28.1,77.3,28.4,78.5,28.4z M104.7,36.3l-5.3,3.1L85.6,12.1L90.9,9
		L104.7,36.3z M120.6,27.5c-2.4,1.2-5,1.8-7.7,1.6c-2.8-0.1-5.6-0.8-8.1-2.2c-2.4-1.4-3.6-2.9-3.9-4.7c-0.2-1.8,0.7-3.3,2.7-4.4
		c2.4-1.2,5-1.8,7.7-1.6c2.9,0.1,5.7,0.8,8.2,2.2c2.3,1.3,3.6,2.9,3.8,4.7C123.6,24.9,122.7,26.3,120.6,27.5L120.6,27.5z
		 M112.5,25.2c1.1,0.1,2.2-0.1,3.1-0.6c0.7-0.3,1.2-1,1.1-1.8c-0.2-0.8-0.8-1.6-1.6-1.9c-1-0.6-2.1-0.9-3.3-0.9
		c-1.1-0.1-2.2,0.1-3.1,0.6c-0.7,0.3-1.2,1-1.1,1.8c0.2,0.9,0.8,1.6,1.6,1.9C110.2,24.9,111.3,25.2,112.5,25.2L112.5,25.2z"/>
</g>
<g id="Groupe_3639" transform="translate(-212.976 -587.297)">
	<g id="Groupe_3621">
		<path id="Tracé_8369" class="st28" d="M514.5,617.1V669L341.3,769l-36,54.2v-85.3L514.5,617.1z"/>
	</g>
	<path id="Tracé_8372" class="st29" d="M298.8,734.5l209.1-121.2l6.6,3.8L305.4,737.9v85.3l-6.5-3.8L298.8,734.5z"/>
</g>
<g id="Groupe_3641" transform="translate(64.024 -427.297)">
	<g id="Groupe_3621-2">
		<path id="Tracé_8369-2" class="st28" d="M514.5,617.1V669L341.3,769l-36,54.2v-85.3L514.5,617.1z"/>
	</g>
	<path id="Tracé_8372-2" class="st29" d="M298.8,734.5l209.1-121.2l6.6,3.8L305.4,737.9v85.3l-6.5-3.8L298.8,734.5z"/>
</g>
<g id="Groupe_3632" transform="translate(93 63.646)">
	<path id="Tracé_8430" class="st3" d="M19.6,95.7c0.7,0.6,1.1,1.6,1,2.6c0,1.3-0.4,2.6-1,3.7c-0.6,1.1-1.5,2.1-2.5,2.7l-1.6,0.9
		v4.7l-1.7,1V97.8l3.2-1.9C17.8,95.3,18.8,95.2,19.6,95.7z M18.5,101.2c0.3-0.6,0.5-1.3,0.5-2c0.1-0.5-0.1-1-0.5-1.4
		c-0.3-0.2-0.8-0.2-1.4,0.1l-1.6,0.9v4.7l1.6-0.9C17.7,102.3,18.1,101.8,18.5,101.2L18.5,101.2z"/>
	<path id="Tracé_8431" class="st3" d="M27.8,102.1c-0.6,1.2-1.5,2.3-2.7,3c-0.8,0.6-1.9,0.7-2.7,0.1c-0.8-0.7-1.2-1.8-1.1-2.9
		c0-1.5,0.4-2.9,1.1-4.2c0.6-1.2,1.5-2.3,2.7-3c0.8-0.6,1.9-0.7,2.7-0.1c0.8,0.7,1.2,1.8,1.1,2.9C28.8,99.4,28.5,100.8,27.8,102.1z
		 M25.1,103.1c0.7-0.4,1.2-1,1.5-1.8c0.4-0.8,0.6-1.6,0.6-2.5c0.1-0.7-0.2-1.3-0.6-1.8c-0.5-0.4-1.1-0.3-1.5,0
		c-0.7,0.4-1.2,1-1.6,1.8c-0.4,0.8-0.6,1.6-0.6,2.5c-0.1,0.7,0.2,1.3,0.6,1.8C24,103.5,24.6,103.5,25.1,103.1z"/>
	<path id="Tracé_8432" class="st3" d="M33.4,100.2c-0.5,0.4-1.2,0.5-1.8,0.2c-0.5-0.3-0.7-0.9-0.7-2v-4.6l-1.5,0.9v-1.9l1.5-0.9
		v-2.7l1.6-0.9V91l2.1-1.2v1.9l-2.1,1.2v4.3c0,0.6,0.1,0.9,0.3,1.1s0.5,0.1,0.9-0.2c0.3-0.2,0.6-0.4,0.8-0.7v1.9
		C34.2,99.6,33.9,99.9,33.4,100.2z"/>
	<path id="Tracé_8433" class="st3" d="M39.2,96.9c-0.8,0.6-1.9,0.7-2.7,0.2c-0.8-0.8-1.2-1.9-1.1-3c0-1.5,0.4-2.9,1.1-4.2
		c0.6-1.2,1.5-2.3,2.7-3c0.7-0.6,1.7-0.6,2.5-0.2c0.7,0.5,1,1.4,1,2.9c0,0.3,0,0.5,0,0.7L37,93.6c0,0.6,0.2,1.2,0.7,1.5
		c0.5,0.2,1.1,0.2,1.5-0.2c1-0.6,1.7-1.5,2.1-2.6l1.2,0.5C42,94.5,40.8,96,39.2,96.9z M37.1,92.1l4-2.3c0-0.5-0.3-0.9-0.7-1.2
		c-0.4-0.2-0.9-0.1-1.3,0.2c-0.5,0.3-1,0.8-1.3,1.3C37.5,90.7,37.2,91.4,37.1,92.1L37.1,92.1z"/>
	<path id="Tracé_8434" class="st3" d="M44.3,93.8v-9.6l1.6-0.9v1.3c0.4-1.2,1.1-2.1,2.2-2.8c0.8-0.5,1.5-0.5,2-0.1
		c0.6,0.7,0.9,1.6,0.7,2.5V90l-1.6,0.9v-5.4c0.1-0.6-0.1-1.1-0.4-1.6c-0.3-0.3-0.6-0.3-1.1,0c-0.6,0.4-1.1,0.9-1.3,1.6
		c-0.4,0.8-0.5,1.7-0.5,2.6v4.7L44.3,93.8z"/>
	<path id="Tracé_8435" class="st3" d="M55.9,87.2c-0.5,0.4-1.2,0.5-1.8,0.2c-0.5-0.3-0.7-0.9-0.7-2v-4.6l-1.5,0.9v-1.9l1.5-0.9
		v-2.7l1.6-0.9V78l2.1-1.2v1.9L55,79.9v4.3c0,0.6,0.1,1,0.3,1.1s0.5,0.1,0.9-0.2c0.3-0.2,0.6-0.4,0.8-0.7v1.9
		C56.7,86.6,56.3,86.9,55.9,87.2z"/>
	<path id="Tracé_8436" class="st3" d="M59.4,73.4c-0.2,0.2-0.5,0.2-0.7,0c-0.2-0.2-0.4-0.5-0.3-0.8c0-0.4,0.1-0.8,0.3-1.2
		c0.2-0.3,0.4-0.6,0.7-0.8c0.2-0.2,0.5-0.2,0.7,0c0.2,0.2,0.3,0.5,0.3,0.8c0,0.4-0.1,0.8-0.3,1.2C59.9,72.9,59.7,73.2,59.4,73.4z
		 M58.6,85.5V76l1.6-0.9v9.6L58.6,85.5z"/>
	<path id="Tracé_8437" class="st3" d="M65.5,81.7c-0.8,0.6-1.9,0.7-2.7,0.2c-0.8-0.8-1.2-1.9-1.1-3c0-1.5,0.4-2.9,1.1-4.2
		c0.6-1.2,1.5-2.3,2.7-3c0.7-0.6,1.7-0.6,2.5-0.2c0.7,0.5,1,1.4,1,2.9c0,0.3,0,0.5,0,0.7l-5.6,3.3c0,0.6,0.2,1.1,0.7,1.5
		c0.5,0.2,1.1,0.2,1.5-0.2c1-0.6,1.7-1.5,2.1-2.6l1.2,0.5C68.2,79.3,67.1,80.8,65.5,81.7z M63.4,76.9l4-2.3c0-0.5-0.3-0.9-0.7-1.2
		c-0.4-0.2-0.9-0.1-1.3,0.2c-0.5,0.3-1,0.8-1.3,1.3C63.7,75.5,63.5,76.2,63.4,76.9L63.4,76.9z"/>
	<path id="Tracé_8438" class="st3" d="M70.6,78.6V64.2l1.6-0.9v14.4L70.6,78.6z"/>
	<path id="Tracé_8439" class="st3" d="M80.6,73c-0.7,0.6-1.8,0.6-2.5,0c-0.7-0.8-1.1-1.9-1-2.9c0-1.4,0.4-2.8,1-4.1
		c0.5-1.2,1.4-2.2,2.5-2.9c0.4-0.3,0.9-0.4,1.4-0.3c0.4,0,0.7,0.2,0.9,0.5v-6.1l1.6-0.9v14.4l-1.6,0.9v-1.3
		c-0.2,0.6-0.6,1.1-0.9,1.6C81.6,72.3,81.2,72.7,80.6,73z M79.4,70.9c0.4,0.4,1.1,0.4,1.5,0c0.7-0.4,1.2-1,1.5-1.8
		c0.4-0.8,0.6-1.7,0.6-2.5c0.1-0.7-0.1-1.3-0.6-1.8c-0.4-0.4-1.1-0.4-1.5,0c-0.7,0.4-1.2,1-1.5,1.8c-0.4,0.8-0.6,1.7-0.6,2.5
		C78.7,69.8,78.9,70.4,79.4,70.9L79.4,70.9z"/>
	<path id="Tracé_8440" class="st3" d="M89.9,67.6c-0.8,0.6-1.9,0.7-2.7,0.2c-0.8-0.8-1.2-1.9-1.1-3c0-1.5,0.4-2.9,1.1-4.2
		c0.6-1.2,1.5-2.3,2.7-3c0.7-0.6,1.7-0.6,2.5-0.2c0.7,0.5,1,1.4,1,2.9c0,0.3,0,0.5,0,0.7l-5.6,3.3c0,0.6,0.2,1.2,0.7,1.5
		c0.5,0.2,1.1,0.2,1.5-0.2c1-0.6,1.7-1.5,2.1-2.6l1.2,0.5C92.6,65.3,91.4,66.7,89.9,67.6z M87.8,62.8l4-2.3c0-0.5-0.3-0.9-0.7-1.2
		c-0.4-0.2-0.9-0.1-1.3,0.2c-0.5,0.3-1,0.8-1.3,1.3C88.1,61.4,87.9,62.1,87.8,62.8L87.8,62.8z"/>
	<path id="Tracé_8441" class="st3" d="M107.5,57.3v-5.4c0-0.6-0.1-1.1-0.3-1.6c-0.2-0.3-0.5-0.3-1-0.1c-0.6,0.4-1,0.9-1.2,1.5
		c-0.3,0.8-0.5,1.6-0.5,2.5V59l-1.6,0.9v-5.4c0-0.6-0.1-1.1-0.3-1.6c-0.2-0.3-0.5-0.3-1-0.1c-0.6,0.4-1,0.9-1.3,1.5
		c-0.3,0.8-0.5,1.7-0.5,2.6v4.7l-1.6,0.9V53l1.6-0.9v1.3c0.3-1.1,1.1-2.1,2-2.7c1.1-0.6,1.8-0.4,2.2,0.6c0.2-0.7,0.5-1.4,0.9-1.9
		c0.4-0.5,0.8-1,1.4-1.3c0.8-0.5,1.4-0.5,1.9,0c0.5,0.7,0.8,1.6,0.7,2.6v5.7L107.5,57.3z"/>
	<path id="Tracé_8442" class="st3" d="M117,50.5c-0.6,1.2-1.5,2.3-2.7,3c-0.8,0.6-1.9,0.7-2.7,0.1c-0.8-0.7-1.2-1.8-1.1-2.9
		c0-1.5,0.4-2.9,1.1-4.2c0.6-1.2,1.5-2.3,2.7-3c0.8-0.6,1.9-0.7,2.7-0.1c0.8,0.7,1.2,1.8,1.1,2.9C118.1,47.8,117.7,49.3,117,50.5z
		 M114.4,51.6c0.7-0.4,1.2-1,1.5-1.8c0.4-0.8,0.6-1.6,0.6-2.5c0.1-0.7-0.2-1.3-0.6-1.8c-0.5-0.4-1.1-0.3-1.5,0
		c-0.7,0.4-1.2,1-1.6,1.8c-0.4,0.8-0.6,1.6-0.6,2.5c-0.1,0.7,0.2,1.3,0.6,1.8C113.3,51.9,113.9,51.9,114.4,51.6L114.4,51.6z"/>
	<path id="Tracé_8443" class="st3" d="M119.7,50.2v-9.6l1.6-0.9V41c0.4-1.2,1.1-2.1,2.2-2.8c0.8-0.5,1.5-0.5,2-0.1
		c0.6,0.7,0.9,1.6,0.7,2.5v5.8l-1.6,0.9V42c0.1-0.6-0.1-1.1-0.4-1.6c-0.3-0.3-0.6-0.3-1.1,0c-0.6,0.4-1.1,0.9-1.3,1.6
		c-0.4,0.8-0.5,1.7-0.5,2.6v4.7L119.7,50.2z"/>
	<path id="Tracé_8444" class="st3" d="M134.5,41.8c-0.5,0.4-1.2,0.5-1.8,0.2c-0.5-0.3-0.7-0.9-0.7-2v-4.6l-1.5,0.9v-1.9l1.5-0.9
		v-2.7l1.6-0.9v2.7l2.1-1.2v1.9l-2.1,1.2v4.3c0,0.6,0.1,0.9,0.3,1.1s0.5,0.1,0.9-0.2c0.3-0.2,0.6-0.4,0.8-0.7v1.9
		C135.3,41.3,134.9,41.6,134.5,41.8z"/>
	<path id="Tracé_8445" class="st3" d="M140.3,38.5c-0.8,0.6-1.9,0.7-2.7,0.2c-0.8-0.8-1.2-1.9-1.1-3c0-1.5,0.4-2.9,1.1-4.2
		c0.6-1.2,1.5-2.3,2.7-3c0.7-0.6,1.7-0.6,2.5-0.2c0.7,0.5,1,1.4,1,2.9c0,0.3,0,0.5,0,0.7l-5.6,3.3c0,0.6,0.2,1.1,0.7,1.5
		c0.5,0.2,1.1,0.2,1.5-0.2c1-0.6,1.7-1.5,2.1-2.6l1.2,0.5C143,36.1,141.9,37.6,140.3,38.5z M138.2,33.7l4-2.3c0-0.5-0.3-0.9-0.7-1.2
		c-0.4-0.2-0.9-0.1-1.3,0.2c-0.5,0.3-1,0.8-1.3,1.3C138.5,32.3,138.3,33,138.2,33.7L138.2,33.7z"/>
	<path id="Tracé_8446" class="st3" d="M145.4,35.4v-9.6l1.6-0.9v1.7c0.1-0.6,0.4-1.2,0.7-1.7c0.3-0.5,0.7-0.9,1.2-1.2
		c0.2-0.1,0.4-0.2,0.6-0.3v2.2c-0.3,0-0.6,0.1-0.8,0.3c-0.5,0.4-1,0.9-1.2,1.5c-0.3,0.8-0.5,1.6-0.5,2.4v4.7L145.4,35.4z"/>
	<path id="Tracé_8447" class="st3" d="M150.9,32.3v-9.6l1.6-0.9v1.7c0.1-0.6,0.4-1.2,0.7-1.7c0.3-0.5,0.7-0.9,1.2-1.2
		c0.2-0.1,0.4-0.2,0.6-0.3v2.2c-0.3,0-0.6,0.1-0.8,0.3c-0.5,0.4-1,0.9-1.2,1.5c-0.3,0.8-0.5,1.6-0.5,2.4v4.7L150.9,32.3z"/>
	<path id="Tracé_8448" class="st3" d="M159,27.7c-0.7,0.6-1.8,0.6-2.5,0c-0.7-0.8-1.1-1.9-1-2.9c0-1.4,0.4-2.8,1-4.1
		c0.5-1.2,1.4-2.2,2.5-2.9c0.4-0.3,0.9-0.4,1.4-0.3c0.4,0,0.7,0.2,0.9,0.5v-1.3l1.6-0.9v9.6l-1.6,0.9v-1.3c-0.2,0.6-0.6,1.1-0.9,1.6
		C160,27,159.6,27.4,159,27.7z M157.8,25.7c0.5,0.4,1.1,0.4,1.5,0c0.7-0.4,1.2-1,1.5-1.8c0.4-0.8,0.6-1.7,0.6-2.5
		c0.1-0.7-0.1-1.3-0.6-1.8c-0.4-0.4-1.1-0.4-1.5,0c-0.7,0.4-1.2,1-1.5,1.8c-0.4,0.8-0.6,1.7-0.6,2.5
		C157.1,24.5,157.3,25.2,157.8,25.7L157.8,25.7z"/>
	<path id="Tracé_8449" class="st3" d="M165.8,11.9c-0.2,0.2-0.5,0.2-0.7,0c-0.2-0.2-0.4-0.5-0.3-0.8c0-0.4,0.1-0.8,0.3-1.2
		c0.2-0.3,0.4-0.6,0.7-0.8c0.2-0.2,0.5-0.2,0.7,0c0.2,0.2,0.3,0.5,0.3,0.8c0,0.4-0.1,0.8-0.3,1.2C166.4,11.4,166.2,11.7,165.8,11.9z
		 M165,24.1v-9.6l1.6-0.9v9.6L165,24.1z"/>
	<path id="Tracé_8450" class="st3" d="M168.8,21.9v-9.6l1.6-0.9v1.3c0.4-1.2,1.1-2.1,2.2-2.8c0.8-0.5,1.5-0.5,2-0.1
		c0.6,0.7,0.9,1.6,0.7,2.5v5.8l-1.6,0.9v-5.4c0.1-0.6-0.1-1.1-0.4-1.6c-0.3-0.3-0.6-0.3-1.1,0c-0.6,0.4-1.1,0.9-1.3,1.6
		c-0.4,0.8-0.5,1.7-0.5,2.6V21L168.8,21.9z"/>
</g>
<g id="Groupe_3640" transform="translate(-266.976 -571.314)">
	<g id="Groupe_3625">
		<path id="Tracé_8373" class="st28" d="M305.5,933.1v52l173.2-100.3l36.3,12.6v-85.3L305.5,933.1z"/>
	</g>
	<path id="Tracé_8374" class="st29" d="M514.9,812.1l-209.5,121v52l-6.6-3.8v-51.9l209.6-121.1L514.9,812.1z"/>
</g>
<g id="Groupe_3633" transform="translate(38 261.655)">
	<path id="Tracé_8451" class="st3" d="M13.8,109.8l1.5-0.9l3.6,4.4l3.6-8.5l1.5-0.9v13.6l-1.7,1v-9.8l-3.4,8.2l-3.4-4.2v9.8l-1.7,1
		L13.8,109.8z"/>
	<path id="Tracé_8452" class="st3" d="M32.2,111.6c-0.6,1.2-1.5,2.3-2.7,3c-0.8,0.6-1.9,0.7-2.7,0.1c-0.8-0.7-1.2-1.8-1.1-2.9
		c0-1.5,0.4-2.9,1.1-4.2c0.6-1.2,1.5-2.3,2.7-3c0.8-0.6,1.9-0.7,2.7-0.1c0.8,0.7,1.2,1.8,1.1,2.9C33.3,108.9,32.9,110.3,32.2,111.6z
		 M29.5,112.6c0.7-0.4,1.2-1,1.6-1.8c0.4-0.8,0.6-1.6,0.6-2.5c0.1-0.7-0.2-1.3-0.6-1.8c-0.5-0.4-1.1-0.3-1.6,0
		c-0.7,0.4-1.2,1-1.6,1.8c-0.4,0.8-0.6,1.6-0.6,2.5c-0.1,0.7,0.2,1.3,0.6,1.8C28.4,113,29.1,113,29.5,112.6L29.5,112.6z"/>
	<path id="Tracé_8453" class="st3" d="M34.9,111.3v-9.6l1.6-0.9v1.3c0.4-1.2,1.1-2.1,2.2-2.8c0.8-0.5,1.5-0.5,2-0.1
		c0.6,0.7,0.9,1.6,0.8,2.5v5.8l-1.6,0.9V103c0.1-0.6-0.1-1.1-0.4-1.6c-0.3-0.3-0.6-0.3-1.1,0c-0.6,0.4-1.1,0.9-1.3,1.6
		c-0.4,0.8-0.5,1.7-0.5,2.6v4.7L34.9,111.3z"/>
	<path id="Tracé_8454" class="st3" d="M49.8,102.9c-0.7,0.6-1.8,0.6-2.5,0c-0.7-0.8-1.1-1.9-1-3c0-1.4,0.4-2.8,1-4.1
		c0.5-1.2,1.4-2.2,2.5-2.9c0.4-0.3,0.9-0.4,1.4-0.3c0.4,0,0.7,0.2,1,0.5v-6.1l1.6-0.9v14.4l-1.6,0.9v-1.3c-0.2,0.6-0.6,1.1-1,1.6
		C50.8,102.2,50.3,102.6,49.8,102.9z M48.6,100.8c0.5,0.4,1.1,0.4,1.5,0c0.7-0.4,1.2-1,1.5-1.8c0.4-0.8,0.6-1.7,0.6-2.5
		c0.1-0.7-0.1-1.3-0.6-1.8c-0.5-0.4-1.1-0.4-1.5,0c-0.7,0.4-1.2,1-1.5,1.8c-0.4,0.8-0.6,1.7-0.6,2.5
		C47.9,99.6,48.1,100.3,48.6,100.8z"/>
	<path id="Tracé_8455" class="st3" d="M61.8,94.5c-0.6,1.2-1.5,2.3-2.7,3c-0.8,0.6-1.9,0.7-2.7,0.1c-0.8-0.7-1.2-1.8-1.1-2.9
		c0-1.5,0.4-2.9,1.1-4.2c0.6-1.2,1.5-2.3,2.7-3c0.8-0.6,1.9-0.7,2.7-0.1c0.8,0.7,1.2,1.8,1.1,2.9C62.9,91.8,62.5,93.2,61.8,94.5z
		 M59.1,95.6c0.7-0.4,1.2-1,1.6-1.8c0.4-0.8,0.6-1.6,0.6-2.5c0.1-0.7-0.2-1.3-0.6-1.8c-0.5-0.4-1.1-0.3-1.6,0
		c-0.7,0.4-1.2,1-1.6,1.8c-0.4,0.8-0.6,1.6-0.6,2.5c-0.1,0.7,0.2,1.3,0.6,1.8C58,95.9,58.7,95.9,59.1,95.6L59.1,95.6z"/>
	<path id="Tracé_8456" class="st3" d="M66.7,93.1c-0.5,0.3-1.1,0.5-1.8,0.5c-0.5,0-1-0.4-1.1-0.9l1.2-1.8c0.1,0.3,0.4,0.5,0.7,0.6
		c0.4,0,0.7,0,1-0.2c0.3-0.2,0.6-0.4,0.7-0.7c0.2-0.3,0.3-0.6,0.3-0.9c0-0.2-0.1-0.4-0.2-0.6c-0.3-0.1-0.6-0.1-0.9,0L66,89.2
		c-1.3,0.3-1.9-0.3-1.9-1.9c0-0.9,0.3-1.7,0.7-2.4c0.5-0.7,1.1-1.4,1.8-1.8c1.1-0.6,1.9-0.6,2.4,0.2l-1.1,1.7
		c-0.3-0.4-0.9-0.5-1.4-0.2c0,0,0,0,0,0c-0.3,0.2-0.5,0.4-0.7,0.6c-0.2,0.2-0.3,0.5-0.3,0.8c0,0.2,0,0.4,0.2,0.5
		c0.2,0.1,0.4,0.2,0.7,0.1l0.7-0.1c0.8-0.3,1.6,0,2,0.8c0.1,0.3,0.2,0.6,0.1,1c0,0.9-0.3,1.8-0.7,2.6C68.2,92,67.5,92.6,66.7,93.1z"
		/>
	<path id="Tracé_8457" class="st3" d="M73.3,89.3c-0.5,0.3-1.1,0.5-1.8,0.5c-0.5,0-1-0.4-1.1-0.9l1.2-1.8c0.1,0.3,0.4,0.5,0.7,0.6
		c0.4,0,0.7,0,1-0.2c0.3-0.2,0.6-0.4,0.7-0.7c0.2-0.3,0.3-0.6,0.3-0.9c0-0.2-0.1-0.4-0.2-0.6c-0.3-0.1-0.6-0.1-0.9,0l-0.6,0.1
		c-1.3,0.3-1.9-0.3-1.9-1.9c0-0.9,0.3-1.7,0.7-2.4c0.5-0.7,1.1-1.4,1.8-1.8c1.1-0.6,1.9-0.6,2.4,0.2l-1.1,1.7
		c-0.3-0.4-0.9-0.5-1.4-0.2c0,0,0,0,0,0c-0.3,0.2-0.5,0.4-0.7,0.6c-0.2,0.2-0.3,0.5-0.3,0.8c0,0.2,0,0.4,0.2,0.5
		c0.2,0.1,0.4,0.2,0.7,0.1l0.7-0.1c0.8-0.3,1.6,0,2,0.8c0.1,0.3,0.2,0.6,0.1,1c0,0.9-0.3,1.8-0.7,2.6C74.7,88.2,74.1,88.9,73.3,89.3
		z"/>
	<path id="Tracé_8458" class="st3" d="M78.3,74.5c-0.2,0.2-0.5,0.2-0.8,0c-0.2-0.2-0.4-0.5-0.3-0.8c0-0.4,0.1-0.8,0.3-1.2
		c0.2-0.3,0.4-0.6,0.8-0.8c0.2-0.2,0.5-0.2,0.7,0c0.2,0.2,0.3,0.5,0.3,0.8c0,0.4-0.1,0.8-0.3,1.2C78.9,74,78.7,74.3,78.3,74.5z
		 M77.5,86.7v-9.6l1.6-0.9v9.6L77.5,86.7z"/>
	<path id="Tracé_8459" class="st3" d="M84.5,82.8c-0.8,0.6-1.9,0.7-2.7,0.2c-0.8-0.8-1.2-1.9-1.1-3c0-1.5,0.4-2.9,1.1-4.2
		c0.6-1.2,1.5-2.3,2.7-3c0.7-0.6,1.7-0.6,2.5-0.2c0.7,0.5,1,1.4,1,2.9c0,0.3,0,0.5,0,0.7l-5.7,3.3c0,0.6,0.2,1.2,0.7,1.5
		c0.5,0.2,1.1,0.2,1.5-0.2c1-0.6,1.7-1.5,2.1-2.7l1.2,0.5C87.2,80.4,86.1,81.9,84.5,82.8z M82.4,78l4-2.3c0-0.5-0.3-0.9-0.7-1.2
		c-0.4-0.2-0.9-0.1-1.3,0.2c-0.5,0.3-1,0.8-1.3,1.3C82.7,76.6,82.5,77.3,82.4,78L82.4,78z"/>
	<path id="Tracé_8460" class="st3" d="M89.6,79.7v-9.6l1.6-0.9v1.7c0.1-0.6,0.4-1.2,0.7-1.7c0.3-0.5,0.7-0.9,1.2-1.2
		c0.2-0.1,0.4-0.2,0.6-0.3v2.2c-0.3,0-0.6,0.1-0.8,0.3c-0.6,0.4-1,0.9-1.2,1.5c-0.3,0.8-0.5,1.6-0.5,2.5v4.7L89.6,79.7z"/>
	<path id="Tracé_8461" class="st3" d="M101.1,73.3c-0.7,0.6-1.8,0.6-2.5,0c-0.7-0.8-1.1-1.9-1-3c0-1.4,0.4-2.8,1-4.1
		c0.5-1.2,1.4-2.2,2.5-2.9c0.4-0.3,0.9-0.4,1.4-0.3c0.4,0,0.7,0.2,1,0.5v-6.1l1.6-0.9v14.4l-1.6,0.9v-1.3c-0.2,0.6-0.6,1.1-1,1.6
		C102.1,72.5,101.6,73,101.1,73.3z M99.8,71.2c0.5,0.4,1.1,0.4,1.5,0c0.7-0.4,1.2-1,1.5-1.8c0.4-0.8,0.6-1.7,0.6-2.5
		c0.1-0.7-0.1-1.3-0.6-1.8c-0.5-0.4-1.1-0.4-1.5,0c-0.7,0.4-1.2,1-1.5,1.8c-0.4,0.8-0.6,1.7-0.6,2.5C99.2,70,99.4,70.7,99.8,71.2z"
		/>
	<path id="Tracé_8462" class="st3" d="M110.4,67.9c-0.8,0.6-1.9,0.7-2.7,0.2c-0.8-0.8-1.2-1.9-1.1-3c0-1.5,0.4-2.9,1.1-4.2
		c0.6-1.2,1.5-2.3,2.7-3c0.7-0.6,1.7-0.6,2.5-0.2c0.7,0.5,1,1.4,1,2.9c0,0.3,0,0.5,0,0.7l-5.7,3.3c0,0.6,0.2,1.2,0.7,1.5
		c0.5,0.2,1.1,0.2,1.5-0.2c1-0.6,1.7-1.5,2.1-2.7l1.2,0.5C113.1,65.5,112,67,110.4,67.9z M108.3,63.1l4-2.3c0-0.5-0.3-0.9-0.7-1.2
		c-0.4-0.2-0.9-0.1-1.3,0.2c-0.5,0.3-1,0.8-1.3,1.3C108.6,61.7,108.4,62.3,108.3,63.1L108.3,63.1z"/>
	<path id="Tracé_8463" class="st3" d="M120.8,61.7l-3.3-7.7l1.8-1l2.2,5.5l2.2-8l1.8-1l-3.3,11.5L120.8,61.7z"/>
	<path id="Tracé_8464" class="st3" d="M129.4,56.9c-0.7,0.6-1.8,0.6-2.5,0c-0.7-0.8-1.1-1.9-1-3c0-1.4,0.4-2.8,1-4.1
		c0.5-1.2,1.4-2.2,2.5-2.9c0.4-0.3,0.9-0.4,1.4-0.3c0.4,0,0.7,0.2,1,0.5v-1.3l1.6-0.9v9.6l-1.6,0.9v-1.3c-0.2,0.6-0.6,1.1-1,1.6
		C130.4,56.2,129.9,56.6,129.4,56.9z M128.1,54.9c0.5,0.4,1.1,0.4,1.5,0c0.7-0.4,1.2-1,1.5-1.8c0.4-0.8,0.6-1.7,0.6-2.5
		c0.1-0.7-0.1-1.3-0.6-1.8c-0.5-0.4-1.1-0.4-1.5,0c-0.7,0.4-1.2,1-1.5,1.8c-0.4,0.8-0.6,1.7-0.6,2.5
		C127.4,53.7,127.7,54.4,128.1,54.9L128.1,54.9z"/>
	<path id="Tracé_8465" class="st3" d="M135.4,53.3V38.8l1.6-0.9v14.4L135.4,53.3z"/>
	<path id="Tracé_8466" class="st3" d="M145.1,46.4c-0.6,1.2-1.5,2.3-2.7,3c-0.8,0.6-1.9,0.7-2.7,0.1c-0.8-0.7-1.2-1.8-1.1-2.9
		c0-1.5,0.4-2.9,1.1-4.2c0.6-1.2,1.5-2.3,2.7-3c0.8-0.6,1.9-0.7,2.7-0.1c0.8,0.7,1.2,1.8,1.1,2.9C146.2,43.7,145.8,45.1,145.1,46.4z
		 M142.4,47.5c0.7-0.4,1.2-1,1.6-1.8c0.4-0.8,0.6-1.6,0.6-2.5c0.1-0.7-0.2-1.3-0.6-1.8c-0.5-0.4-1.1-0.3-1.6,0
		c-0.7,0.4-1.2,1-1.6,1.8c-0.4,0.8-0.6,1.6-0.6,2.5c-0.1,0.7,0.2,1.3,0.6,1.8C141.3,47.8,141.9,47.8,142.4,47.5L142.4,47.5z"/>
	<path id="Tracé_8467" class="st3" d="M147.8,46.1v-9.6l1.6-0.9v1.7c0.1-0.6,0.4-1.2,0.7-1.7c0.3-0.5,0.7-0.9,1.2-1.2
		c0.2-0.1,0.4-0.2,0.6-0.3v2.2c-0.3,0-0.6,0.1-0.8,0.3c-0.5,0.4-1,0.9-1.2,1.5c-0.3,0.8-0.5,1.6-0.5,2.5v4.7L147.8,46.1z"/>
	<path id="Tracé_8468" class="st3" d="M154,30.8c-0.2,0.2-0.5,0.2-0.8,0c-0.2-0.2-0.4-0.5-0.3-0.8c0-0.4,0.1-0.8,0.3-1.2
		c0.2-0.3,0.4-0.6,0.8-0.8c0.2-0.2,0.5-0.2,0.7,0c0.2,0.2,0.3,0.5,0.3,0.8c0,0.4-0.1,0.8-0.3,1.2C154.6,30.3,154.4,30.6,154,30.8z
		 M153.3,43v-9.6l1.6-0.9V42L153.3,43z"/>
	<path id="Tracé_8469" class="st3" d="M159.3,39.7c-0.5,0.3-1.1,0.5-1.8,0.5c-0.5,0-1-0.4-1.1-0.9l1.2-1.8c0.1,0.3,0.4,0.5,0.7,0.6
		c0.4,0,0.7,0,1-0.2c0.3-0.2,0.6-0.4,0.7-0.7c0.2-0.3,0.3-0.6,0.3-0.9c0-0.2-0.1-0.4-0.2-0.6c-0.3-0.1-0.6-0.1-0.9,0l-0.6,0.1
		c-1.3,0.3-1.9-0.3-1.9-1.9c0-0.9,0.3-1.7,0.7-2.4c0.5-0.7,1.1-1.4,1.8-1.8c1.1-0.6,1.9-0.6,2.4,0.2l-1.1,1.7
		c-0.3-0.4-0.9-0.5-1.4-0.2c0,0,0,0,0,0c-0.3,0.2-0.5,0.4-0.7,0.6c-0.2,0.2-0.3,0.5-0.3,0.8c0,0.2,0,0.4,0.2,0.5
		c0.2,0.1,0.4,0.2,0.7,0.1l0.7-0.1c0.8-0.3,1.6,0,1.9,0.8c0.1,0.3,0.1,0.6,0.1,0.9c0,0.9-0.3,1.8-0.7,2.6
		C160.7,38.6,160,39.2,159.3,39.7z"/>
	<path id="Tracé_8470" class="st3" d="M166.5,35.5c-0.7,0.6-1.8,0.6-2.5,0c-0.7-0.8-1.1-1.9-1-3c0-1.4,0.4-2.8,1-4.1
		c0.5-1.2,1.4-2.2,2.5-2.9c0.4-0.3,0.9-0.4,1.4-0.3c0.4,0,0.7,0.2,1,0.5v-1.3l1.6-0.9v9.6l-1.6,0.9v-1.3c-0.2,0.6-0.6,1.1-1,1.6
		C167.5,34.8,167,35.2,166.5,35.5z M165.2,33.4c0.5,0.4,1.1,0.4,1.5,0c0.7-0.4,1.2-1,1.5-1.8c0.4-0.8,0.6-1.7,0.6-2.5
		c0.1-0.7-0.1-1.3-0.6-1.8c-0.5-0.4-1.1-0.4-1.5,0c-0.7,0.4-1.2,1-1.5,1.8c-0.4,0.8-0.6,1.7-0.6,2.5
		C164.5,32.3,164.8,32.9,165.2,33.4z"/>
	<path id="Tracé_8471" class="st3" d="M175.6,30.1c-0.5,0.4-1.2,0.5-1.8,0.2c-0.5-0.3-0.7-0.9-0.7-2v-4.6l-1.5,0.9v-1.9l1.5-0.9
		v-2.7l1.6-0.9v2.7l2.1-1.2v1.9l-2.1,1.2v4.3c0,0.6,0.1,1,0.3,1.1s0.5,0.1,0.9-0.2c0.3-0.2,0.6-0.4,0.8-0.7v1.9
		C176.5,29.6,176.1,29.9,175.6,30.1z"/>
	<path id="Tracé_8472" class="st3" d="M179.1,16.3c-0.2,0.2-0.5,0.2-0.8,0c-0.2-0.2-0.4-0.5-0.3-0.8c0-0.4,0.1-0.8,0.3-1.2
		c0.2-0.3,0.4-0.6,0.8-0.8c0.2-0.2,0.5-0.2,0.7,0c0.2,0.2,0.3,0.5,0.3,0.8c0,0.4-0.1,0.8-0.3,1.2C179.7,15.8,179.4,16.1,179.1,16.3z
		 M178.3,28.5v-9.6l1.6-0.9v9.6L178.3,28.5z"/>
	<path id="Tracé_8473" class="st3" d="M188,21.6c-0.6,1.2-1.5,2.3-2.7,3c-0.8,0.6-1.9,0.7-2.7,0.1c-0.8-0.7-1.2-1.8-1.1-2.9
		c0-1.5,0.4-2.9,1.1-4.2c0.6-1.2,1.5-2.3,2.7-3c0.8-0.6,1.9-0.7,2.7-0.1c0.8,0.7,1.2,1.8,1.1,2.9C189.1,18.9,188.7,20.4,188,21.6z
		 M185.3,22.7c0.7-0.4,1.2-1,1.5-1.8c0.4-0.8,0.6-1.6,0.6-2.5c0.1-0.7-0.2-1.3-0.6-1.8c-0.5-0.4-1.1-0.3-1.5,0
		c-0.7,0.4-1.2,1-1.6,1.8c-0.4,0.8-0.6,1.6-0.6,2.5c-0.1,0.7,0.2,1.3,0.6,1.8C184.2,23.1,184.8,23.1,185.3,22.7L185.3,22.7z"/>
	<path id="Tracé_8474" class="st3" d="M190.7,21.4v-9.6l1.6-0.9v1.3c0.4-1.2,1.1-2.1,2.2-2.8c0.8-0.5,1.5-0.5,2-0.1
		c0.6,0.7,0.9,1.6,0.8,2.5v5.8l-1.6,0.9v-5.4c0.1-0.6-0.1-1.1-0.4-1.6c-0.3-0.3-0.6-0.3-1.1,0c-0.6,0.4-1.1,0.9-1.3,1.6
		c-0.4,0.8-0.5,1.7-0.5,2.6v4.7L190.7,21.4z"/>
</g>
<g id="Groupe_3634" transform="translate(368 236.367)">
	<path id="Tracé_8475" class="st3" d="M13.8,85.5l1.5-0.9L19,89l3.6-8.5l1.5-0.9v13.6l-1.7,1v-9.8L19,92.6l-3.4-4.2v9.8l-1.7,1
		L13.8,85.5z"/>
	<path id="Tracé_8476" class="st3" d="M32.2,87.3c-0.6,1.2-1.5,2.3-2.7,3c-0.8,0.6-1.9,0.7-2.7,0.1c-0.8-0.7-1.2-1.8-1.1-2.9
		c0-1.5,0.4-2.9,1.1-4.2c0.6-1.2,1.5-2.3,2.7-3c0.8-0.6,1.9-0.7,2.7-0.1c0.8,0.7,1.2,1.8,1.1,2.9C33.3,84.6,32.9,86,32.2,87.3z
		 M29.5,88.4c0.7-0.4,1.2-1,1.6-1.8c0.4-0.8,0.6-1.6,0.6-2.5c0.1-0.7-0.2-1.3-0.6-1.8c-0.5-0.4-1.1-0.3-1.6,0
		c-0.7,0.4-1.2,1-1.6,1.8c-0.4,0.8-0.6,1.6-0.6,2.5c-0.1,0.7,0.2,1.3,0.6,1.8C28.4,88.7,29.1,88.7,29.5,88.4L29.5,88.4z"/>
	<path id="Tracé_8477" class="st3" d="M34.9,87v-9.6l1.6-0.9v1.3c0.4-1.2,1.1-2.1,2.2-2.8c0.8-0.5,1.5-0.5,2-0.1
		c0.6,0.7,0.9,1.6,0.8,2.5v5.8l-1.6,0.9v-5.4c0.1-0.6-0.1-1.1-0.4-1.6c-0.3-0.3-0.6-0.3-1.1,0c-0.6,0.4-1.1,0.9-1.3,1.6
		c-0.4,0.8-0.5,1.7-0.5,2.6v4.7L34.9,87z"/>
	<path id="Tracé_8478" class="st3" d="M49.8,78.6c-0.7,0.6-1.8,0.6-2.5,0c-0.7-0.8-1.1-1.9-1-3c0-1.4,0.4-2.8,1-4.1
		c0.5-1.2,1.4-2.2,2.5-2.9c0.4-0.3,0.9-0.4,1.4-0.3c0.4,0,0.7,0.2,1,0.5v-6.1l1.6-0.9v14.4l-1.6,0.9v-1.3c-0.2,0.6-0.6,1.1-1,1.6
		C50.8,77.9,50.3,78.3,49.8,78.6z M48.6,76.5c0.5,0.4,1.1,0.4,1.5,0c0.7-0.4,1.2-1,1.5-1.8c0.4-0.8,0.6-1.7,0.6-2.5
		c0.1-0.7-0.1-1.3-0.6-1.8c-0.5-0.4-1.1-0.4-1.5,0c-0.7,0.4-1.2,1-1.5,1.8c-0.4,0.8-0.6,1.7-0.6,2.5C47.9,75.3,48.1,76,48.6,76.5
		L48.6,76.5z"/>
	<path id="Tracé_8479" class="st3" d="M61.8,70.2c-0.6,1.2-1.5,2.3-2.7,3c-0.8,0.6-1.9,0.7-2.7,0.1c-0.8-0.7-1.2-1.8-1.1-2.9
		c0-1.5,0.4-2.9,1.1-4.2c0.6-1.2,1.5-2.3,2.7-3c0.8-0.6,1.9-0.7,2.7-0.1c0.8,0.7,1.2,1.8,1.1,2.9C62.9,67.5,62.5,68.9,61.8,70.2z
		 M59.1,71.3c0.7-0.4,1.2-1,1.6-1.8c0.4-0.8,0.6-1.6,0.6-2.5c0.1-0.7-0.2-1.3-0.6-1.8c-0.5-0.4-1.1-0.3-1.6,0
		c-0.7,0.4-1.2,1-1.6,1.8c-0.4,0.8-0.6,1.6-0.6,2.5c-0.1,0.7,0.2,1.3,0.6,1.8C58,71.6,58.7,71.6,59.1,71.3L59.1,71.3z"/>
	<path id="Tracé_8480" class="st3" d="M66.8,68.8c-0.5,0.3-1.1,0.5-1.8,0.5c-0.5,0-1-0.4-1.1-0.9l1.2-1.8c0.1,0.3,0.4,0.5,0.7,0.6
		c0.4,0,0.7,0,1-0.2c0.3-0.2,0.6-0.4,0.7-0.7c0.2-0.3,0.3-0.6,0.3-0.9c0-0.2-0.1-0.4-0.2-0.6c-0.3-0.1-0.6-0.1-0.9,0l-0.6,0.1
		c-1.3,0.3-1.9-0.3-1.9-1.9c0-0.9,0.3-1.7,0.7-2.4c0.5-0.7,1.1-1.4,1.8-1.8c1.1-0.6,1.9-0.6,2.4,0.2l-1.1,1.7
		c-0.3-0.4-0.9-0.5-1.4-0.2c0,0,0,0,0,0c-0.3,0.2-0.5,0.4-0.7,0.6c-0.2,0.2-0.3,0.5-0.3,0.8c0,0.2,0,0.4,0.2,0.5
		c0.2,0.1,0.4,0.2,0.7,0.1l0.7-0.1c0.8-0.3,1.6,0,2,0.8c0.1,0.3,0.2,0.6,0.1,1c0,0.9-0.3,1.8-0.7,2.6C68.2,67.7,67.5,68.4,66.8,68.8
		z"/>
	<path id="Tracé_8481" class="st3" d="M73.3,65c-0.5,0.3-1.1,0.5-1.8,0.5c-0.5,0-1-0.4-1.1-0.9l1.2-1.8c0.1,0.3,0.4,0.5,0.7,0.6
		c0.4,0,0.7,0,1-0.2c0.3-0.2,0.6-0.4,0.7-0.7c0.2-0.3,0.3-0.6,0.3-0.9c0-0.2-0.1-0.4-0.2-0.6c-0.3-0.1-0.6-0.1-0.9,0l-0.6,0.1
		c-1.3,0.3-1.9-0.3-1.9-1.9c0-0.9,0.3-1.7,0.7-2.4c0.5-0.7,1.1-1.4,1.8-1.8c1.1-0.6,1.9-0.6,2.4,0.2L74.6,57
		c-0.3-0.4-0.9-0.5-1.4-0.2c0,0,0,0,0,0c-0.3,0.2-0.5,0.4-0.7,0.6c-0.2,0.2-0.3,0.5-0.3,0.8c0,0.2,0,0.4,0.2,0.5
		c0.2,0.1,0.4,0.2,0.7,0.1l0.7-0.1c0.8-0.3,1.6,0,2,0.8c0.1,0.3,0.2,0.6,0.1,1c0,0.9-0.3,1.8-0.7,2.6C74.7,63.9,74.1,64.6,73.3,65z"
		/>
	<path id="Tracé_8482" class="st3" d="M78.3,50.2c-0.2,0.2-0.5,0.2-0.8,0c-0.2-0.2-0.4-0.5-0.3-0.8c0-0.4,0.1-0.8,0.3-1.2
		c0.2-0.3,0.4-0.6,0.8-0.8c0.2-0.2,0.5-0.2,0.7,0c0.2,0.2,0.3,0.5,0.3,0.8c0,0.4-0.1,0.8-0.3,1.2C78.9,49.7,78.7,50,78.3,50.2z
		 M77.5,62.4v-9.6l1.6-0.9v9.6L77.5,62.4z"/>
	<path id="Tracé_8483" class="st3" d="M84.5,58.6c-0.8,0.6-1.9,0.7-2.7,0.2c-0.8-0.8-1.2-1.9-1.1-3c0-1.5,0.4-2.9,1.1-4.2
		c0.6-1.2,1.5-2.3,2.7-3c0.7-0.6,1.7-0.6,2.5-0.2c0.7,0.5,1,1.4,1,2.9c0,0.3,0,0.5,0,0.7l-5.7,3.3c0,0.6,0.2,1.2,0.7,1.5
		c0.5,0.2,1.1,0.2,1.5-0.2c1-0.6,1.7-1.5,2.1-2.7l1.2,0.5C87.3,56.2,86.1,57.6,84.5,58.6z M82.4,53.7l4-2.3c0-0.5-0.3-0.9-0.7-1.2
		c-0.4-0.2-0.9-0.1-1.3,0.2c-0.5,0.3-1,0.8-1.3,1.3C82.7,52.3,82.5,53,82.4,53.7L82.4,53.7z"/>
	<path id="Tracé_8484" class="st3" d="M89.6,55.4v-9.6l1.6-0.9v1.7c0.1-0.6,0.4-1.2,0.7-1.7c0.3-0.5,0.7-0.9,1.2-1.2
		c0.2-0.1,0.4-0.2,0.6-0.3v2.2c-0.3,0-0.6,0.1-0.8,0.3c-0.6,0.4-1,0.9-1.2,1.5c-0.3,0.8-0.5,1.6-0.5,2.5v4.7L89.6,55.4z"/>
	<path id="Tracé_8485" class="st3" d="M101.1,49c-0.7,0.6-1.8,0.6-2.5,0c-0.7-0.8-1.1-1.9-1-3c0-1.4,0.4-2.8,1-4.1
		c0.5-1.2,1.4-2.2,2.5-2.9c0.4-0.3,0.9-0.4,1.4-0.3c0.4,0,0.7,0.2,1,0.5V33l1.6-0.9v14.4l-1.6,0.9v-1.3c-0.2,0.6-0.6,1.1-1,1.6
		C102.1,48.3,101.6,48.7,101.1,49z M99.8,46.9c0.5,0.4,1.1,0.4,1.5,0c0.7-0.4,1.2-1,1.5-1.8c0.4-0.8,0.6-1.7,0.6-2.5
		c0.1-0.7-0.1-1.3-0.6-1.8c-0.5-0.4-1.1-0.4-1.5,0c-0.7,0.4-1.2,1-1.5,1.8c-0.4,0.8-0.6,1.7-0.6,2.5C99.2,45.7,99.4,46.4,99.8,46.9
		L99.8,46.9z"/>
	<path id="Tracé_8486" class="st3" d="M110.4,43.6c-0.8,0.6-1.9,0.7-2.7,0.2c-0.8-0.8-1.2-1.9-1.1-3c0-1.5,0.4-2.9,1.1-4.2
		c0.6-1.2,1.5-2.3,2.7-3c0.7-0.6,1.7-0.6,2.5-0.2c0.7,0.5,1,1.4,1,2.9c0,0.3,0,0.5,0,0.7l-5.7,3.3c0,0.6,0.2,1.2,0.7,1.5
		c0.5,0.2,1.1,0.2,1.5-0.2c1-0.6,1.7-1.5,2.1-2.7l1.2,0.5C113.1,41.2,112,42.7,110.4,43.6z M108.3,38.8l4-2.3c0-0.5-0.3-0.9-0.7-1.2
		c-0.4-0.2-0.9-0.1-1.3,0.2c-0.5,0.3-1,0.8-1.3,1.3C108.6,37.4,108.4,38.1,108.3,38.8L108.3,38.8z"/>
	<path id="Tracé_8487" class="st3" d="M120.8,37.4l-3.3-7.7l1.8-1l2.2,5.5l2.2-8l1.8-1l-3.3,11.5L120.8,37.4z"/>
	<path id="Tracé_8488" class="st3" d="M129.7,32.5c-0.8,0.6-1.9,0.7-2.7,0.2c-0.8-0.8-1.2-1.9-1.1-3c0-1.5,0.4-2.9,1.1-4.2
		c0.6-1.2,1.5-2.3,2.7-3c0.7-0.6,1.7-0.6,2.5-0.2c0.7,0.5,1,1.4,1,2.9c0,0.3,0,0.5,0,0.7l-5.7,3.3c0,0.6,0.2,1.2,0.7,1.5
		c0.5,0.2,1.1,0.2,1.5-0.2c1-0.6,1.7-1.5,2.1-2.7l1.2,0.5C132.4,30.1,131.2,31.6,129.7,32.5z M127.5,27.6l4-2.3
		c0-0.5-0.3-0.9-0.7-1.2c-0.4-0.2-0.9-0.1-1.3,0.2c-0.5,0.3-1,0.8-1.3,1.3C127.9,26.2,127.6,26.9,127.5,27.6L127.5,27.6z"/>
	<path id="Tracé_8489" class="st3" d="M134.8,29.4v-9.6l1.6-0.9v1.3c0.4-1.2,1.1-2.1,2.2-2.8c0.8-0.5,1.5-0.5,2-0.1
		c0.6,0.7,0.9,1.6,0.8,2.5v5.8l-1.6,0.9v-5.4c0.1-0.6-0.1-1.1-0.4-1.6c-0.3-0.3-0.6-0.3-1.1,0c-0.6,0.4-1.1,0.9-1.3,1.6
		c-0.4,0.8-0.5,1.7-0.5,2.6v4.7L134.8,29.4z"/>
	<path id="Tracé_8490" class="st3" d="M146.4,22.7c-0.5,0.4-1.2,0.5-1.8,0.2c-0.5-0.3-0.7-0.9-0.7-2v-4.6l-1.5,0.9v-1.9l1.5-0.9
		v-2.7l1.6-0.9v2.7l2.1-1.2v1.9l-2.1,1.2v4.3c0,0.6,0.1,1,0.3,1.1s0.5,0.1,0.9-0.2c0.3-0.2,0.6-0.4,0.8-0.7v1.9
		C147.2,22.2,146.8,22.5,146.4,22.7z"/>
	<path id="Tracé_8491" class="st3" d="M152.2,19.5c-0.8,0.6-1.9,0.7-2.7,0.2c-0.8-0.8-1.2-1.9-1.1-3c0-1.5,0.4-2.9,1.1-4.2
		c0.6-1.2,1.5-2.3,2.7-3c0.7-0.6,1.7-0.6,2.5-0.2c0.7,0.5,1,1.4,1,2.9c0,0.3,0,0.5,0,0.7l-5.7,3.3c0,0.6,0.2,1.2,0.7,1.5
		c0.5,0.2,1.1,0.2,1.5-0.2c1-0.6,1.7-1.5,2.1-2.7l1.2,0.5C155,17.1,153.8,18.5,152.2,19.5z M150.1,14.6l4-2.3c0-0.5-0.3-0.9-0.7-1.2
		c-0.4-0.2-0.9-0.1-1.3,0.2c-0.5,0.3-1,0.8-1.3,1.3C150.4,13.2,150.2,13.9,150.1,14.6L150.1,14.6z"/>
</g>
</svg>
