<?xml version="1.0" encoding="utf-8"?>
<!-- Generator: Adobe Illustrator 24.3.0, SVG Export Plug-In . SVG Version: 6.00 Build 0)  -->
<svg version="1.1" id="Calque_1" xmlns="http://www.w3.org/2000/svg" xmlns:xlink="http://www.w3.org/1999/xlink" x="0px" y="0px"
	 viewBox="0 0 87 80" style="enable-background:new 0 0 87 80;" xml:space="preserve">
<style type="text/css">
	.st0{fill:#00B9B4;}
</style>
<g id="Groupe_3488" transform="translate(-768.036 -3318.81)">
	<g id="Groupe_3448" transform="translate(780.053 3328.81)">
		<path id="Tracé_8140" class="st0" d="M31.5,44.5c-0.6,0-1-0.5-1-1v0c0-2.6-0.9-9.4-9.2-17.3c-6-5.6-6.2-15.1-0.6-21
			c5.6-6,15.1-6.2,21-0.6c3,2.8,4.6,6.7,4.6,10.8c0,4.1-1.7,8-4.6,10.8c-6.8,6.4-9.2,13.1-9.2,17.3C32.5,44.1,32.1,44.5,31.5,44.5
			C31.5,44.5,31.5,44.5,31.5,44.5z M31.5,2.6L31.5,2.6c-7.2,0.1-12.8,5.8-12.8,12.9c0,3.5,1.5,6.8,4,9.2c2.3,2.1,6.8,7,8.8,12.9
			c1.9-4.9,4.9-9.3,8.8-12.9c5.1-4.9,5.3-12.9,0.5-18.1C38.3,4.1,35,2.6,31.5,2.6L31.5,2.6z"/>
		<path id="Tracé_8141" class="st0" d="M31.5,50.7c-5.2,0.1-10.4-0.3-15.5-1.1C12.6,49,8.7,48,8.7,45.8c0-1.5,1.7-2.6,5.6-3.4
			c4-0.8,8-1.2,12.1-1.4c0.6,0,1.1,0.4,1.1,1s-0.4,1.1-1,1.1c0,0,0,0,0,0c-10.1,0.4-14.7,1.9-15.5,2.7c0.4,0.3,1.7,1.1,6.2,1.8
			c4.8,0.7,9.6,1,14.4,1c0.7,0,1,0,1.6,0l0.3,0h0c0.6,0,1,0.5,1.1,1s-0.5,1-1,1.1l-0.3,0C32.5,50.7,32.2,50.7,31.5,50.7z"/>
		<path id="Tracé_8142" class="st0" d="M48.7,49.3c-0.6,0-1-0.5-1-1c0-0.5,0.3-0.9,0.7-1l1-0.3l0,0c1-0.2,1.9-0.6,2.7-1.1
			c-0.9-0.8-5.5-2.3-15.8-2.7c-0.6,0-1-0.5-1-1.1s0.5-1,1.1-1c0,0,0,0,0,0c4.1,0.1,8.2,0.6,12.3,1.4c3.9,0.9,5.7,1.9,5.7,3.4
			c0,1.7-2.4,2.6-4.3,3.1l-1,0.3C48.9,49.2,48.8,49.3,48.7,49.3z M52.2,46L52.2,46z"/>
		<path id="Tracé_8143" class="st0" d="M31.5,20.3c-2.7,0-4.8-2.2-4.8-4.8s2.2-4.8,4.8-4.8c2.7,0,4.8,2.2,4.8,4.8
			C36.3,18.1,34.1,20.3,31.5,20.3z M31.5,12.7c-1.5,0-2.7,1.2-2.7,2.7c0,1.5,1.2,2.7,2.7,2.7s2.7-1.2,2.7-2.7
			C34.2,14,33,12.7,31.5,12.7L31.5,12.7z"/>
	</g>
	<g id="Groupe_3449" transform="translate(771.332 3358.62)">
		<path id="Tracé_8144" class="st0" d="M13.8,10.7c-2.8,0-5.1-2.3-5.1-5.1s2.3-5.1,5.1-5.1c2.8,0,5.1,2.3,5.1,5.1
			C18.9,8.4,16.6,10.7,13.8,10.7z M13.8,2.6c-1.6,0-3,1.3-3,3s1.3,3,3,3s3-1.3,3-3C16.8,4,15.4,2.6,13.8,2.6L13.8,2.6z"/>
		<path id="Tracé_8145" class="st0" d="M13.8,16.8c-0.6,0-1-0.5-1-1V9.7c0-0.6,0.5-1,1-1s1,0.5,1,1c0,0,0,0,0,0v6.1
			C14.8,16.3,14.4,16.8,13.8,16.8z"/>
	</g>
	<g id="Groupe_3450" transform="translate(807.552 3373.02)">
		<path id="Tracé_8146" class="st0" d="M13.8,10.7c-2.8,0-5.1-2.3-5.1-5.1s2.3-5.1,5.1-5.1s5.1,2.3,5.1,5.1l0,0
			C18.9,8.4,16.6,10.7,13.8,10.7z M13.8,2.6c-1.6,0-3,1.3-3,3s1.3,3,3,3s3-1.3,3-3C16.8,4,15.4,2.6,13.8,2.6L13.8,2.6z"/>
		<path id="Tracé_8147" class="st0" d="M13.8,16.8c-0.6,0-1-0.5-1-1V9.7c0-0.6,0.5-1,1-1s1,0.5,1,1c0,0,0,0,0,0v6.1
			C14.8,16.3,14.4,16.8,13.8,16.8z"/>
	</g>
	<g id="Groupe_3451" transform="translate(824.77 3359.038)">
		<path id="Tracé_8148" class="st0" d="M13.8,10.7c-2.8,0-5.1-2.3-5.1-5.1s2.3-5.1,5.1-5.1s5.1,2.3,5.1,5.1l0,0
			C18.9,8.4,16.6,10.7,13.8,10.7z M13.8,2.6c-1.6,0-3,1.3-3,3s1.3,3,3,3s3-1.3,3-3C16.8,4,15.4,2.6,13.8,2.6z"/>
		<path id="Tracé_8149" class="st0" d="M13.8,16.8c-0.6,0-1-0.5-1-1V9.7c0-0.6,0.5-1,1-1c0.6,0,1,0.5,1,1v6.1
			C14.8,16.3,14.4,16.8,13.8,16.8z"/>
	</g>
	<path id="Tracé_8150" class="st0" d="M811.5,3386.8c-8.1,0.1-16.2-0.7-24.1-2.5c-4.9-1.2-10.7-3.4-10.7-7c0-1.5,1.1-3,3.2-4.2
		c0.5-0.3,1.1-0.1,1.4,0.4s0.1,1.1-0.4,1.4c-1.4,0.8-2.2,1.7-2.2,2.4c0,3.1,12.4,7.4,32.7,7.4c1.9,0,3.8,0,5.7-0.1
		c0.6,0,1.1,0.4,1.1,1c0,0.6-0.4,1.1-1,1.1c0,0,0,0,0,0C815.4,3386.7,813.5,3386.8,811.5,3386.8z"/>
	<path id="Tracé_8151" class="st0" d="M825.3,3386.1c-0.6,0-1-0.5-1-1c0-0.5,0.4-1,0.9-1c4.9-0.4,9.6-1.4,14.3-3
		c3-1.2,4.8-2.6,4.8-3.8c0-0.8-0.8-1.5-1.5-2c-0.5-0.3-0.7-0.9-0.4-1.4c0.3-0.5,0.9-0.7,1.4-0.4c0,0,0.1,0.1,0.1,0.1
		c1.6,1.1,2.4,2.4,2.4,3.7c0,2.2-2,4.1-6.1,5.7c-4.8,1.7-9.7,2.7-14.8,3.1C825.4,3386.1,825.4,3386.1,825.3,3386.1z"/>
	<path id="Tracé_8152" class="st0" d="M813.5,3378.5"/>
</g>
</svg>
