<?xml version="1.0" encoding="utf-8"?>
<!-- Generator: Adobe Illustrator 24.3.0, SVG Export Plug-In . SVG Version: 6.00 Build 0)  -->
<svg version="1.1" id="Calque_1" xmlns="http://www.w3.org/2000/svg" xmlns:xlink="http://www.w3.org/1999/xlink" x="0px" y="0px"
	 viewBox="0 0 210 174.5" style="enable-background:new 0 0 210 174.5;" xml:space="preserve">
<style type="text/css">
	.st0{opacity:0.1;}
	.st1{clip-path:url(#SVGID_2_);}
	.st2{fill:none;}
	.st3{fill:#F4F7FA;}
	.st4{fill:#9AC462;}
	.st5{fill:#FEED53;}
	.st6{fill:#20B4B1;}
	.st7{fill:#D8DDE2;}
	.st8{fill:#7B6A58;}
	.st9{fill:#A48A7B;}
	.st10{fill:#E6E6E6;stroke:#000000;stroke-width:0.6037;stroke-linecap:round;stroke-linejoin:round;stroke-miterlimit:10;}
	.st11{fill:#CDCCCC;stroke:#000000;stroke-width:7.546788e-02;stroke-miterlimit:10;}
	.st12{fill:#FFFFFF;stroke:#000000;stroke-width:7.546788e-02;stroke-miterlimit:10;}
	.st13{fill:#E6E6E6;stroke:#000000;stroke-width:7.546788e-02;stroke-miterlimit:10;}
	.st14{fill:#0C7B79;stroke:#000000;stroke-width:7.546788e-02;stroke-miterlimit:10;}
	.st15{fill:#20B4B1;stroke:#000000;stroke-width:7.546788e-02;stroke-miterlimit:10;}
	.st16{fill:#07A4A4;stroke:#000000;stroke-width:7.546788e-02;stroke-miterlimit:10;}
	.st17{fill:#4E4D4D;}
	.st18{fill:none;stroke:#4E4D4D;stroke-width:0.6037;stroke-miterlimit:10;}
	.st19{enable-background:new    ;}
	.st20{fill:#161615;}
</style>
<polygon class="st0" points="204.1,88.7 77.7,161.7 11.4,123.5 137.4,50.6 "/>
<g>
	<defs>
		<polygon id="SVGID_1_" points="204.1,69.1 77.7,142.1 11.4,104 137.4,31 		"/>
	</defs>
	<clipPath id="SVGID_2_">
		<use xlink:href="#SVGID_1_"  style="overflow:visible;"/>
	</clipPath>
	<g class="st1">
		<path class="st2" d="M18.4,108.4c-2.1-1.2-3.3-2.8-3.3-4.4c0-1.6,1.1-3.1,3.2-4.4l110.5-64.2c2.4-1.4,5.5-2.1,8.6-2.1
			s6.3,0.7,8.7,2.1l50.7,29.3c2.1,1.2,3.3,2.8,3.3,4.4c0,1.6-1.1,3.1-3.2,4.4L85.4,138.2c-4.8,2.8-11.2,2.5-15.9-0.2L18.4,108.4z"/>
		<path id="Tracé_8203" class="st3" d="M18.4,108.4c-2.1-1.2-3.3-2.8-3.3-4.4c0-1.6,1.1-3.1,3.2-4.4l110.5-64.2
			c2.4-1.4,5.5-2.1,8.6-2.1s6.3,0.7,8.7,2.1l50.7,29.3c2.1,1.2,17.5,3.7,17.5,5.4c0,1.6-15.4,2.2-17.4,3.4L85.4,138.2
			c-4.8,2.8-10.6,2.8-15.4,0L18.4,108.4z"/>
		<path id="Tracé_8204" class="st4" d="M18.3,99.7l20.9-12.1c1.4,6.7,0.7,13.6-2,19.8c-1.4,3.2-3.3,6.1-5.6,8.7l-13.2-7.6
			c-2.1-1.2-15.4-2.4-15.4-4C2.9,102.8,16.2,100.9,18.3,99.7z"/>
		<path id="Tracé_8205" class="st5" d="M39.2,87.5l2.7-1.6c1.8,7.5,1.1,15.5-2,22.6c-1.4,3.3-3.4,6.3-5.7,9.1l-2.6-1.5
			c2.3-2.6,4.2-5.5,5.6-8.7C39.9,101.1,40.6,94.2,39.2,87.5z"/>
		<path id="Tracé_8206" class="st4" d="M73.9,132l10.7-5.8c2.9,0.5,11.9,2,14.2,1.6c2.2-0.4,32.4-17.6,46.1-25.5l1.3,0.8
			l-60.6,35.2c-3.9,12-16.8,8-15.4,0l-11-6.3l2.6-1.6L73.9,132z"/>
		<path id="Tracé_8207" class="st6" d="M133.6,44.1c-4.9,1.8-10.2,2.1-15.4,2.5l-9.5,0.6l20.2-11.7c2.4-1.4,6-7.6,9.1-7.6
			s5.8,6.2,8.2,7.6l3.4,1.9c-2,0.5-4,1.2-5.9,2C140.2,40.9,137.1,42.8,133.6,44.1z"/>
		<g id="Groupe_3498" transform="translate(190.536 107.422)">
			<g id="Groupe_3497">
				<g id="Groupe_3496">
					<path id="Tracé_8208" class="st7" d="M-117.8-20.7c0.6-0.1,15-2.1,16.7-2.5c1.7-0.5,27.6-15.3,30.6-17l-0.7-1.3
						c-11.4,6.6-28.9,16.5-30.2,16.9c-1.3,0.4-12.4,1.9-16.5,2.5L-117.8-20.7z"/>
				</g>
			</g>
		</g>
		<path id="Tracé_8209" class="st7" d="M69.7,90.9c2.9,0,5.2-1.4,5.2-3.3s-2.3-3.3-5.2-3.3c-2.9,0-5.2,1.4-5.2,3.3
			S66.8,90.9,69.7,90.9z M69.7,85.8c2.1,0,3.7,0.9,3.7,1.8c0,0.8-1.6,1.8-3.7,1.8S66,88.5,66,87.6C66,86.8,67.6,85.8,69.7,85.8z"/>
		<ellipse id="Ellipse_90" class="st6" cx="69.8" cy="87.6" rx="2.5" ry="1.2"/>
		<path id="Tracé_8210" class="st7" d="M49.7,96.7c1.8,1,17.5,9.4,18.8,10.4c0.6,0.5,3.8,0.5,5.7,0.5c1.7,0,3.1,0,3.9,0.2
			c1.9,0.4,13.6,7.3,16.3,8.9c3.8-2.5,8.4-5.6,12.3-8.2L88.9,84.6l1.2-0.9l3.9,5.3l15.7-9.5l0.8,1.3l-15.6,9.4l4.6,6.1L118.6,85
			l0.8,1.3l-18.9,11.2l7.5,10.1c3.7-2.5,6.4-4.3,6.7-4.5c0.2-0.2,0.7-1.5,1.1-2.4c0.8-1.9,1.2-3,1.7-3.5c0.8-0.8,9.2-6,10.9-7
			l0.8,1.3c-3.8,2.4-10.1,6.3-10.6,6.8c-0.3,0.3-1,2-1.4,3c-0.8,1.9-1.1,2.6-1.5,3c-0.2,0.2-3.2,2.2-6.8,4.6l6.2,8.3l-1.2,0.9
			l-6.2-8.3c-5.3,3.6-11.6,7.7-12.7,8.5l-0.4,0.3l-0.4-0.2c-5.6-3.3-14.9-8.6-16.2-8.9c-0.7-0.1-2.1-0.2-3.6-0.2
			c-3.4-0.1-5.7-0.1-6.6-0.9C66.7,107.6,56,101.7,49,98L49.7,96.7z"/>
		<g id="Groupe_3499" transform="translate(147.462 183.953)">
			
				<rect id="Rectangle_804" x="-91.7" y="-88.5" transform="matrix(0.4101 -0.912 0.912 0.4101 30.4595 -128.4534)" class="st7" width="15.3" height="1.5"/>
		</g>
		<g id="Groupe_3501" transform="translate(189.183 184.133)">
			<g id="Groupe_3500">
				<path id="Tracé_8211" class="st7" d="M-109-81.2c0.5,0.2,1,0.2,1.4,0l4.6-2.6c0.7-0.4,1-1.4,0.6-2.1c-0.1-0.2-0.3-0.4-0.5-0.5
					l-13.3-8.7l-0.8,1.3l13.3,8.7l-5.3,3.1c-0.2,0.1-0.3,0.5-0.2,0.7C-109.1-81.3-109-81.2-109-81.2L-109-81.2z"/>
			</g>
		</g>
		<g id="Groupe_3502" transform="translate(130.806 114.682)">
			<path id="Tracé_8212" class="st7" d="M-64.7-28.6l0.8-1.2c0,0-4.4-2.9-5.8-3.8c0.1-0.3,0.4-0.9,0.6-1.3c1.4-3.1,1.9-4.6,1.3-5.3
				c-0.7-0.8-6.8-5.9-7.5-6.4l-1,1.1c2.5,2,6.4,5.4,7.2,6.2c0,0.7-1,2.8-1.4,3.8c-0.9,2-1.1,2.5-0.5,2.9
				C-70.7-32.5-64.7-28.6-64.7-28.6z"/>
		</g>
		<g id="Groupe_3503" transform="translate(576.293 92.64)">
			<path id="Tracé_8213" class="st5" d="M-385.2-8.7c1.1-1.1,6.6-6.6,5.6-10.5c-0.4-1.6-1.3-2.8-2-3.8c-1-1.4-1.2-1.8-0.9-2.3
				c0.8-1.5,4-2.7,5.5-3.1l-0.7-2.9c-0.6,0.2-5.8,1.5-7.4,4.6c-1.2,2.3,0.1,4.1,1.1,5.5c0.6,0.8,1.2,1.7,1.5,2.8
				c0.4,1.6-2.6,5.5-4.8,7.6L-385.2-8.7z"/>
		</g>
		<path id="Tracé_8214" class="st7" d="M122.9,68.3c2.9,0,5.2-1.4,5.2-3.3s-2.3-3.3-5.2-3.3s-5.2,1.4-5.2,3.3
			C117.7,66.8,120,68.3,122.9,68.3z M122.9,63.2c2.1,0,3.7,0.9,3.7,1.8c0,0.8-1.6,1.8-3.7,1.8s-3.7-0.9-3.7-1.8
			C119.2,64.1,120.8,63.2,122.9,63.2L122.9,63.2z"/>
		<path id="Tracé_8215" class="st6" d="M120.5,65c0,0.6,1.1,1.2,2.5,1.2s2.5-0.5,2.5-1.2c0-0.6-1.1-1.2-2.5-1.2
			S120.5,64.4,120.5,65z"/>
		<path id="Tracé_8216" class="st4" d="M189,55.5l-24.9,12.3l-22.7-12.6c0,0,10-0.5,11.2-1.2c1.2-0.7,13.5-6.9,13.5-6.9l5.9-2.6
			L189,55.5z"/>
		<g id="Groupe_3507" transform="translate(286.709 44.445)">
			<g id="Groupe_3506">
				<g id="Groupe_3504" transform="translate(80.083 1.437)">
					<path id="Tracé_8217" class="st7" d="M-226.6,8.3L-226.6,8.3c4.6-0.3,12.3-0.9,12.9-1.1c0.6-0.2,11.2-5.5,15.5-7.6l0.7,1.3
						c-1.9,0.9-14.9,7.5-15.7,7.7c-0.6,0.2-6.3,0.6-10.2,0.9c3.1,1.5,9,4.7,20.7,11.6c9.1-4.7,21.2-10.8,23.2-11.8l0.7,1.3
						c-13,6.6-32.7,16.6-33.6,17.3c-0.5,0.7-0.3,5.1,0.2,9.2c8.8,2.7,21.2,10.4,21.7,10.8l-0.8,1.3c-0.1-0.1-14.5-9.1-23.1-11.1
						c-8.4-2-22.8,7.3-23,7.4l-0.8-1.3c0.6-0.4,15.1-9.7,24.1-7.6c0.1,0,0.2,0,0.3,0.1c-0.5-4.3-0.8-9.1,0.5-9.9
						c0.5-0.3,4.2-2.3,9-4.8c-8.2-4.7-20.3-11.6-22.2-12.1c-1.3,0.7-9,5.3-13.8,8.2l-0.8-1.3c2.2-1.3,13.2-8,14.2-8.4
						C-226.7,8.3-226.7,8.3-226.6,8.3z"/>
				</g>
				<g id="Groupe_3505">
					<path id="Tracé_8218" class="st7" d="M-183.8,2.4c0.5,0.8,2.7,4.8,3,6.1c0.8,1,7.9,5.6,14.5,9.6l-0.8,1.3
						c-14.8-9-15.1-10.1-15.2-10.4c-0.2-0.7-1.9-3.9-2.9-5.8L-183.8,2.4z"/>
				</g>
			</g>
		</g>
		<g id="Groupe_3508" transform="translate(234.458 43.15)">
			<path id="Tracé_8219" class="st5" d="M-89.5,59.1l1.5-2.6c-15.7-9.1-39.2-22.8-42.2-24.6c-0.4-1.5-1-7.4-1.9-17.6
				c-0.1-1.8-0.2-2.1-0.2-2.3c-0.2-0.9-0.2-1.3-15.1-8.8l-1.3,2.7c5.6,2.8,11.9,6.1,13.5,7.1c0,0.4,0.1,0.9,0.1,1.5
				c1.4,18.4,2,18.9,2.6,19.5C-131.4,34.9-102,51.9-89.5,59.1z"/>
		</g>
		<path id="Tracé_8221" class="st6" d="M173.5,59.7l-9.5,5.4l-6.3-3.4l4.9-2l3,1.1l5.3-3L173.5,59.7z"/>
		<path id="Tracé_8223" class="st5" d="M61,127.2l12.4,1.7l10.7-5.8l0.5,0.1c4.8,0.8,12.1,1.9,13.6,1.7
			c2.5-0.8,28.7-15.7,45.9-25.6l0.8-0.4l4.2,2.5l-3,1.7l-1.3-0.8c-13.7,7.9-43.9,25.2-46.1,25.5c-2.2,0.4-11.3-1.1-14.2-1.6
			L73.9,132l-12.3-1.7l-2.6,1.6l-2.9-1.7L61,127.2z"/>
	</g>
</g>
<polygon class="st8" points="77.7,146.6 11.4,108.4 11.4,104 77.7,142.1 "/>
<polygon class="st9" points="204.1,73.6 77.7,146.6 77.7,142.1 204.1,69.1 "/>
<g>
	<g>
		<polygon class="st10" points="123.4,46.9 117.5,50.3 117.5,57.2 123.8,60.9 129.6,57.6 129.6,50.6 		"/>
		<g id="Groupe_3536_2_" transform="translate(2075.496 114.778)">
			<path id="Tracé_7903-23_2_" class="st11" d="M-1951.7-53.9l-6.3-3.7v-6.9l6.3,3.7V-53.9z"/>
			<path id="Tracé_7904-23_2_" class="st12" d="M-1951.7-60.8l-6.3-3.7l5.9-3.4l6.3,3.7L-1951.7-60.8z"/>
			<path id="Tracé_7905-23_2_" class="st13" d="M-1951.7-53.9l5.9-3.4v-6.9l-5.9,3.4V-53.9z"/>
		</g>
	</g>
	<g>
		<polygon class="st10" points="117.3,72.5 114.9,74 114.9,76.9 117.5,78.4 120,77 120,74.1 		"/>
		<g id="Groupe_3536_10_" transform="translate(2075.496 114.778)">
			<path id="Tracé_7903-23_10_" class="st11" d="M-1958-36.4l-2.6-1.6v-2.9l2.6,1.6V-36.4z"/>
			<path id="Tracé_7904-23_10_" class="st12" d="M-1958-39.3l-2.6-1.6l2.5-1.4l2.6,1.6L-1958-39.3z"/>
			<path id="Tracé_7905-23_10_" class="st13" d="M-1958-36.4l2.5-1.4v-2.9l-2.5,1.4V-36.4z"/>
		</g>
	</g>
	<g>
		<polygon class="st10" points="108.9,82 106.4,83.4 106.4,86.3 109,87.9 111.5,86.5 111.5,83.6 		"/>
		<g id="Groupe_3536_11_" transform="translate(2075.496 114.778)">
			<path id="Tracé_7903-23_11_" class="st11" d="M-1966.5-26.9l-2.6-1.6v-2.9l2.6,1.6V-26.9z"/>
			<path id="Tracé_7904-23_11_" class="st12" d="M-1966.5-29.8l-2.6-1.6l2.5-1.4l2.6,1.6L-1966.5-29.8z"/>
			<path id="Tracé_7905-23_11_" class="st13" d="M-1966.5-26.9l2.5-1.4v-2.9l-2.5,1.4V-26.9z"/>
		</g>
	</g>
	<g>
		<polygon class="st10" points="102.8,84.6 100.3,86 100.3,88.9 103,90.5 105.5,89.1 105.5,86.2 		"/>
		<g id="Groupe_3536_12_" transform="translate(2075.496 114.778)">
			<path id="Tracé_7903-23_12_" class="st11" d="M-1972.5-24.3l-2.6-1.6v-2.9l2.6,1.6V-24.3z"/>
			<path id="Tracé_7904-23_12_" class="st12" d="M-1972.5-27.2l-2.6-1.6l2.5-1.4l2.6,1.6L-1972.5-27.2z"/>
			<path id="Tracé_7905-23_12_" class="st13" d="M-1972.5-24.3l2.5-1.4v-2.9l-2.5,1.4V-24.3z"/>
		</g>
	</g>
	<g>
		<polygon class="st10" points="118,87.6 115.5,89 115.5,91.9 118.2,93.4 120.6,92 120.6,89.1 		"/>
		<g id="Groupe_3536_13_" transform="translate(2075.496 114.778)">
			<path id="Tracé_7903-23_13_" class="st11" d="M-1957.3-21.3l-2.6-1.6v-2.9l2.6,1.6V-21.3z"/>
			<path id="Tracé_7904-23_13_" class="st12" d="M-1957.3-24.3l-2.6-1.6l2.5-1.4l2.6,1.6L-1957.3-24.3z"/>
			<path id="Tracé_7905-23_13_" class="st13" d="M-1957.3-21.3l2.5-1.4v-2.9l-2.5,1.4V-21.3z"/>
		</g>
	</g>
	<g>
		<polygon class="st10" points="76.1,95.5 73.6,96.9 73.6,99.8 76.2,101.4 78.7,100 78.7,97.1 		"/>
		<g id="Groupe_3536_16_" transform="translate(2075.496 114.778)">
			<path id="Tracé_7903-23_16_" class="st11" d="M-1999.3-13.4l-2.6-1.6v-2.9l2.6,1.6V-13.4z"/>
			<path id="Tracé_7904-23_16_" class="st12" d="M-1999.3-16.3l-2.6-1.6l2.5-1.4l2.6,1.6L-1999.3-16.3z"/>
			<path id="Tracé_7905-23_16_" class="st13" d="M-1999.3-13.4l2.5-1.4v-2.9l-2.5,1.4V-13.4z"/>
		</g>
	</g>
	<g>
		<polygon class="st10" points="58.3,116.1 55.8,117.5 55.8,120.4 58.5,122 60.9,120.6 60.9,117.7 		"/>
		<g id="Groupe_3536_21_" transform="translate(2075.496 114.778)">
			<path id="Tracé_7903-23_21_" class="st11" d="M-2017,7.2l-2.6-1.6V2.7l2.6,1.6V7.2z"/>
			<path id="Tracé_7904-23_21_" class="st12" d="M-2017,4.3l-2.6-1.6l2.5-1.4l2.6,1.6L-2017,4.3z"/>
			<path id="Tracé_7905-23_21_" class="st13" d="M-2017,7.2l2.5-1.4V2.9l-2.5,1.4V7.2z"/>
		</g>
	</g>
	<g>
		<polygon class="st10" points="159.4,76.7 156.9,78.1 156.9,81 159.5,82.5 162,81.1 162,78.2 		"/>
		<g id="Groupe_3536_25_" transform="translate(2075.496 114.778)">
			<path id="Tracé_7903-23_25_" class="st11" d="M-1916-32.2l-2.6-1.6v-2.9l2.6,1.6V-32.2z"/>
			<path id="Tracé_7904-23_25_" class="st12" d="M-1916-35.2l-2.6-1.6l2.5-1.4l2.6,1.6L-1916-35.2z"/>
			<path id="Tracé_7905-23_25_" class="st13" d="M-1916-32.2l2.5-1.4v-2.9l-2.5,1.4V-32.2z"/>
		</g>
	</g>
	<g>
		<polygon class="st10" points="92.6,41.4 87.1,44.5 87.1,65.5 93,69 98.5,65.9 98.5,44.9 		"/>
		<g id="Groupe_3536_30_" transform="translate(2075.496 114.778)">
			<path id="Tracé_7903-23_30_" class="st11" d="M-1982.5-45.8l-5.9-3.5v-21l5.9,3.5V-45.8z"/>
			<path id="Tracé_7904-23_30_" class="st12" d="M-1982.5-66.8l-5.9-3.5l5.5-3.2l5.9,3.5L-1982.5-66.8z"/>
			<path id="Tracé_7905-23_30_" class="st13" d="M-1982.5-45.8l5.5-3.1v-21l-5.5,3.2V-45.8z"/>
		</g>
	</g>
	<g>
		<polygon class="st10" points="141,41.9 137,44.2 137,59.6 141.3,62.2 145.3,59.9 145.3,44.5 		"/>
		<g id="Groupe_3536_34_" transform="translate(2075.496 114.778)">
			<path id="Tracé_7903-23_34_" class="st14" d="M-1934.2-52.6l-4.3-2.6v-15.4l4.3,2.6V-52.6z"/>
			<path id="Tracé_7904-23_34_" class="st15" d="M-1934.2-68l-4.3-2.6l4-2.3l4.3,2.6L-1934.2-68z"/>
			<path id="Tracé_7905-23_34_" class="st16" d="M-1934.2-52.6l4-2.3v-15.4l-4,2.3V-52.6z"/>
		</g>
	</g>
	<g>
		<polygon class="st10" points="116,93.5 112,95.8 112,111.2 116.3,113.7 120.4,111.4 120.4,96 		"/>
		<g id="Groupe_3536_42_" transform="translate(2075.496 114.778)">
			<path id="Tracé_7903-23_42_" class="st11" d="M-1959.2-1l-4.3-2.6V-19l4.3,2.6V-1z"/>
			<path id="Tracé_7904-23_42_" class="st12" d="M-1959.2-16.4l-4.3-2.6l4-2.3l4.3,2.6L-1959.2-16.4z"/>
			<path id="Tracé_7905-23_42_" class="st13" d="M-1959.2-1l4-2.3v-15.4l-4,2.3V-1z"/>
		</g>
	</g>
	<g>
		<polygon class="st10" points="84.2,52.8 80.1,55.1 80.1,70.5 84.4,73.1 88.5,70.8 88.5,55.4 		"/>
		<g id="Groupe_3536_45_" transform="translate(2075.496 114.778)">
			<path id="Tracé_7903-23_45_" class="st11" d="M-1991.1-41.7l-4.3-2.6v-15.4l4.3,2.6V-41.7z"/>
			<path id="Tracé_7904-23_45_" class="st12" d="M-1991.1-57.1l-4.3-2.6l4-2.3l4.3,2.6L-1991.1-57.1z"/>
			<path id="Tracé_7905-23_45_" class="st13" d="M-1991.1-41.7l4-2.3v-15.4l-4,2.3V-41.7z"/>
		</g>
	</g>
	<g>
		<polygon class="st10" points="91.2,93.6 88.2,95.4 88.2,106.9 91.4,108.8 94.5,107.1 94.5,95.6 		"/>
		<g id="Groupe_3536_44_" transform="translate(2075.496 114.778)">
			<path id="Tracé_7903-23_44_" class="st11" d="M-1984.1-6l-3.2-1.9v-11.5l3.2,1.9V-6z"/>
			<path id="Tracé_7904-23_44_" class="st12" d="M-1984.1-17.5l-3.2-1.9l3-1.7l3.2,1.9L-1984.1-17.5z"/>
			<path id="Tracé_7905-23_44_" class="st13" d="M-1984.1-6l3-1.7v-11.5l-3,1.7V-6z"/>
		</g>
	</g>
	<g>
		<polygon class="st10" points="42.3,100.1 38.2,102.4 38.2,117.8 42.5,120.4 46.6,118.1 46.6,102.7 		"/>
		<g id="Groupe_3536_43_" transform="translate(2075.496 114.778)">
			<path id="Tracé_7903-23_43_" class="st11" d="M-2033,5.6l-4.3-2.6v-15.4l4.3,2.6V5.6z"/>
			<path id="Tracé_7904-23_43_" class="st12" d="M-2033-9.8l-4.3-2.6l4-2.3l4.3,2.6L-2033-9.8z"/>
			<path id="Tracé_7905-23_43_" class="st13" d="M-2033,5.6l4-2.3v-15.4l-4,2.3V5.6z"/>
		</g>
	</g>
	<g>
		<polygon class="st10" points="136.5,53.9 134,55.3 134,64.7 136.7,66.2 139.1,64.8 139.1,55.5 		"/>
		<g id="Groupe_3536_35_" transform="translate(2075.496 114.778)">
			<path id="Tracé_7903-23_35_" class="st11" d="M-1938.8-48.6l-2.6-1.6v-9.4l2.6,1.6V-48.6z"/>
			<path id="Tracé_7904-23_35_" class="st12" d="M-1938.8-57.9l-2.6-1.6l2.5-1.4l2.6,1.6L-1938.8-57.9z"/>
			<path id="Tracé_7905-23_35_" class="st13" d="M-1938.8-48.6l2.5-1.4v-9.4l-2.5,1.4V-48.6z"/>
		</g>
	</g>
	<g>
		<polygon class="st10" points="94.7,64.2 92.3,65.6 92.3,75 94.9,76.5 97.3,75.1 97.3,65.8 		"/>
		<g id="Groupe_3536_38_" transform="translate(2075.496 114.778)">
			<path id="Tracé_7903-23_38_" class="st11" d="M-1980.6-38.3l-2.6-1.6v-9.4l2.6,1.6V-38.3z"/>
			<path id="Tracé_7904-23_38_" class="st12" d="M-1980.6-47.6l-2.6-1.6l2.5-1.4l2.6,1.6L-1980.6-47.6z"/>
			<path id="Tracé_7905-23_38_" class="st13" d="M-1980.6-38.3l2.5-1.4V-49l-2.5,1.4V-38.3z"/>
		</g>
	</g>
	<g>
		<polygon class="st10" points="89.3,66.4 86.9,67.8 86.9,77.1 89.5,78.7 92,77.3 92,67.9 		"/>
		<g id="Groupe_3536_39_" transform="translate(2075.496 114.778)">
			<path id="Tracé_7903-23_39_" class="st11" d="M-1986-36.1l-2.6-1.6V-47l2.6,1.6V-36.1z"/>
			<path id="Tracé_7904-23_39_" class="st12" d="M-1986-45.5l-2.6-1.6l2.5-1.4l2.6,1.6L-1986-45.5z"/>
			<path id="Tracé_7905-23_39_" class="st13" d="M-1986-36.1l2.5-1.4v-9.4l-2.5,1.4V-36.1z"/>
		</g>
	</g>
	<g>
		<polygon class="st10" points="99.1,97.6 96.6,99 96.6,108.4 99.2,109.9 101.7,108.5 101.7,99.2 		"/>
		<g id="Groupe_3536_40_" transform="translate(2075.496 114.778)">
			<path id="Tracé_7903-23_40_" class="st11" d="M-1976.3-4.9l-2.6-1.6v-9.4l2.6,1.6V-4.9z"/>
			<path id="Tracé_7904-23_40_" class="st12" d="M-1976.3-14.2l-2.6-1.6l2.5-1.4l2.6,1.6L-1976.3-14.2z"/>
			<path id="Tracé_7905-23_40_" class="st13" d="M-1976.3-4.9l2.5-1.4v-9.4l-2.5,1.4V-4.9z"/>
		</g>
	</g>
	<g>
		<polygon class="st10" points="186.6,55.3 182.5,57.7 182.5,73 186.8,75.6 190.9,73.3 190.9,57.9 		"/>
		<g id="Groupe_3536_37_" transform="translate(2075.496 114.778)">
			<path id="Tracé_7903-23_37_" class="st11" d="M-1888.7-39.2l-4.3-2.6v-15.4l4.3,2.6V-39.2z"/>
			<path id="Tracé_7904-23_37_" class="st12" d="M-1888.7-54.6l-4.3-2.6l4-2.3l4.3,2.6L-1888.7-54.6z"/>
			<path id="Tracé_7905-23_37_" class="st13" d="M-1888.7-39.2l4-2.3v-15.4l-4,2.3V-39.2z"/>
		</g>
	</g>
	<g>
		<polygon class="st10" points="180.3,66.7 177.8,68.1 177.8,77.5 180.4,79 182.9,77.6 182.9,68.3 		"/>
		<g id="Groupe_3536_36_" transform="translate(2075.496 114.778)">
			<path id="Tracé_7903-23_36_" class="st11" d="M-1895.1-35.7l-2.6-1.6v-9.4l2.6,1.6V-35.7z"/>
			<path id="Tracé_7904-23_36_" class="st12" d="M-1895.1-45.1l-2.6-1.6l2.5-1.4l2.6,1.6L-1895.1-45.1z"/>
			<path id="Tracé_7905-23_36_" class="st13" d="M-1895.1-35.7l2.5-1.4v-9.4l-2.5,1.4V-35.7z"/>
		</g>
	</g>
	<g>
		<polygon class="st10" points="170.9,73.7 165,77.1 165,84 171.3,87.7 177.2,84.4 177.2,77.4 		"/>
		<g id="Groupe_3536_3_" transform="translate(2075.496 114.778)">
			<path id="Tracé_7903-23_3_" class="st11" d="M-1904.2-27.1l-6.3-3.7v-6.9l6.3,3.7V-27.1z"/>
			<path id="Tracé_7904-23_3_" class="st12" d="M-1904.2-34l-6.3-3.7l5.9-3.4l6.3,3.7L-1904.2-34z"/>
			<path id="Tracé_7905-23_3_" class="st13" d="M-1904.2-27.1l5.9-3.4v-6.9l-5.9,3.4V-27.1z"/>
		</g>
	</g>
	<g>
		<polygon class="st10" points="151.8,80.6 145.9,84 145.9,90.9 152.2,94.7 158.1,91.3 158.1,84.4 		"/>
		<g id="Groupe_3536_23_" transform="translate(2075.496 114.778)">
			<path id="Tracé_7903-23_24_" class="st11" d="M-1923.3-20.1l-6.3-3.7v-6.9l6.3,3.7V-20.1z"/>
			<path id="Tracé_7904-23_23_" class="st12" d="M-1923.3-27.1l-6.3-3.7l5.9-3.4l6.3,3.7L-1923.3-27.1z"/>
			<path id="Tracé_7905-23_23_" class="st13" d="M-1923.3-20.1l5.9-3.4v-6.9l-5.9,3.4V-20.1z"/>
		</g>
	</g>
	<g>
		<polygon class="st10" points="128.5,71 122.6,74.3 122.6,81.3 128.9,85 134.7,81.6 134.7,74.7 		"/>
		<g id="Groupe_3536_4_" transform="translate(2075.496 114.778)">
			<path id="Tracé_7903-23_4_" class="st11" d="M-1946.6-29.8l-6.3-3.7v-6.9l6.3,3.7V-29.8z"/>
			<path id="Tracé_7904-23_4_" class="st12" d="M-1946.6-36.7l-6.3-3.7l5.9-3.4l6.3,3.7L-1946.6-36.7z"/>
			<path id="Tracé_7905-23_4_" class="st13" d="M-1946.6-29.8l5.9-3.4v-6.9l-5.9,3.4V-29.8z"/>
		</g>
	</g>
	<g>
		<polygon class="st10" points="128.9,92 123,95.4 123,102.3 129.3,106 135.2,102.7 135.2,95.7 		"/>
		<g id="Groupe_3536_6_" transform="translate(2075.496 114.778)">
			<path id="Tracé_7903-23_6_" class="st11" d="M-1946.2-8.7l-6.3-3.7v-6.9l6.3,3.7V-8.7z"/>
			<path id="Tracé_7904-23_6_" class="st12" d="M-1946.2-15.7l-6.3-3.7l5.9-3.4l6.3,3.7L-1946.2-15.7z"/>
			<path id="Tracé_7905-23_6_" class="st13" d="M-1946.2-8.7l5.9-3.4V-19l-5.9,3.4V-8.7z"/>
		</g>
	</g>
	<g>
		<polygon class="st10" points="73.8,66.1 67.9,69.5 67.9,76.4 74.2,80.2 80.1,76.8 80.1,69.9 		"/>
		<g id="Groupe_3536_8_" transform="translate(2075.496 114.778)">
			<path id="Tracé_7903-23_8_" class="st11" d="M-2001.3-34.6l-6.3-3.7v-6.9l6.3,3.7V-34.6z"/>
			<path id="Tracé_7904-23_8_" class="st12" d="M-2001.3-41.6l-6.3-3.7l5.9-3.4l6.3,3.7L-2001.3-41.6z"/>
			<path id="Tracé_7905-23_8_" class="st13" d="M-2001.3-34.6l5.9-3.4v-6.9l-5.9,3.4V-34.6z"/>
		</g>
	</g>
	<g>
		<polygon class="st10" points="56.3,96.9 49.9,100.6 49.9,108.3 56.8,112.3 63.2,108.7 63.2,101 		"/>
		<g id="Groupe_3536_9_" transform="translate(2075.496 114.778)">
			<path id="Tracé_7903-23_9_" class="st11" d="M-2018.7-2.4l-6.9-4.1v-7.6l6.9,4.1V-2.4z"/>
			<path id="Tracé_7904-23_9_" class="st12" d="M-2018.7-10.1l-6.9-4.1l6.5-3.7l6.9,4.1L-2018.7-10.1z"/>
			<path id="Tracé_7905-23_9_" class="st13" d="M-2018.7-2.4l6.5-3.7v-7.6l-6.5,3.7V-2.4z"/>
		</g>
	</g>
	<g>
		<polygon class="st10" points="145.1,87.8 140.8,90.3 140.8,95.4 145.4,98.1 149.7,95.6 149.7,90.6 		"/>
		<g id="Groupe_3536_31_" transform="translate(2075.496 114.778)">
			<path id="Tracé_7903-23_31_" class="st11" d="M-1930.1-16.7l-4.6-2.7v-5.1l4.6,2.7V-16.7z"/>
			<path id="Tracé_7904-23_31_" class="st12" d="M-1930.1-21.8l-4.6-2.7l4.3-2.5l4.6,2.7L-1930.1-21.8z"/>
			<path id="Tracé_7905-23_31_" class="st13" d="M-1930.1-16.7l4.3-2.5v-5.1l-4.3,2.5V-16.7z"/>
		</g>
	</g>
	<g>
		<polygon class="st10" points="59.3,87.3 56.8,88.7 56.8,91.6 59.4,93.2 61.9,91.8 61.9,88.8 		"/>
		<g id="Groupe_3536_26_" transform="translate(2075.496 114.778)">
			<path id="Tracé_7903-23_26_" class="st14" d="M-2016.1-21.6l-2.6-1.6v-2.9l2.6,1.6V-21.6z"/>
			<path id="Tracé_7904-23_26_" class="st15" d="M-2016.1-24.5l-2.6-1.6l2.5-1.4l2.6,1.6L-2016.1-24.5z"/>
			<path id="Tracé_7905-23_26_" class="st16" d="M-2016.1-21.6l2.5-1.4v-2.9l-2.5,1.4V-21.6z"/>
		</g>
	</g>
	<g>
		<polygon class="st10" points="54.7,90.1 52.2,91.5 52.2,94.4 54.9,96 57.3,94.6 57.3,91.6 		"/>
		<g id="Groupe_3536_47_" transform="translate(2075.496 114.778)">
			<path id="Tracé_7903-23_47_" class="st14" d="M-2020.6-18.8l-2.6-1.6v-2.9l2.6,1.6V-18.8z"/>
			<path id="Tracé_7904-23_47_" class="st15" d="M-2020.6-21.7l-2.6-1.6l2.5-1.4l2.6,1.6L-2020.6-21.7z"/>
			<path id="Tracé_7905-23_47_" class="st16" d="M-2020.6-18.8l2.5-1.4v-2.9l-2.5,1.4V-18.8z"/>
		</g>
	</g>
	<g>
		<polygon class="st10" points="106.8,108.7 104.4,110.2 104.4,113.1 107,114.6 109.5,113.2 109.5,110.3 		"/>
		<g id="Groupe_3536_17_" transform="translate(2075.496 114.778)">
			<path id="Tracé_7903-23_17_" class="st14" d="M-1968.5-0.1l-2.6-1.6v-2.9l2.6,1.6V-0.1z"/>
			<path id="Tracé_7904-23_17_" class="st15" d="M-1968.5-3.1l-2.6-1.6l2.5-1.4l2.6,1.6L-1968.5-3.1z"/>
			<path id="Tracé_7905-23_17_" class="st16" d="M-1968.5-0.1l2.5-1.4v-2.9l-2.5,1.4V-0.1z"/>
		</g>
	</g>
	<g>
		<polygon class="st10" points="103.2,111 100.7,112.4 100.7,115.3 103.4,116.9 105.8,115.5 105.8,112.6 		"/>
		<g id="Groupe_3536_18_" transform="translate(2075.496 114.778)">
			<path id="Tracé_7903-23_18_" class="st14" d="M-1972.1,2.1l-2.6-1.6v-2.9l2.6,1.6V2.1z"/>
			<path id="Tracé_7904-23_18_" class="st15" d="M-1972.1-0.8l-2.6-1.6l2.5-1.4l2.6,1.6L-1972.1-0.8z"/>
			<path id="Tracé_7905-23_18_" class="st16" d="M-1972.1,2.1l2.5-1.4v-2.9l-2.5,1.4V2.1z"/>
		</g>
	</g>
	<g>
		<polygon class="st10" points="99.5,113.3 97,114.8 97,117.7 99.7,119.2 102.2,117.8 102.2,114.9 		"/>
		<g id="Groupe_3536_46_" transform="translate(2075.496 114.778)">
			<path id="Tracé_7903-23_50_" class="st14" d="M-1975.8,4.5l-2.6-1.6V0l2.6,1.6V4.5z"/>
			<path id="Tracé_7904-23_46_" class="st15" d="M-1975.8,1.5l-2.6-1.6l2.5-1.4l2.6,1.6L-1975.8,1.5z"/>
			<path id="Tracé_7905-23_46_" class="st16" d="M-1975.8,4.5l2.5-1.4V0.1l-2.5,1.4V4.5z"/>
		</g>
	</g>
	<g>
		<polygon class="st10" points="95.9,115.6 93.4,117 93.4,119.9 96,121.5 98.5,120.1 98.5,117.2 		"/>
		<g id="Groupe_3536_27_" transform="translate(2075.496 114.778)">
			<path id="Tracé_7903-23_46_" class="st14" d="M-1979.5,6.7l-2.6-1.6V2.2l2.6,1.6V6.7z"/>
			<path id="Tracé_7904-23_27_" class="st15" d="M-1979.5,3.8l-2.6-1.6l2.5-1.4l2.6,1.6L-1979.5,3.8z"/>
			<path id="Tracé_7905-23_27_" class="st16" d="M-1979.5,6.7l2.5-1.4V2.4l-2.5,1.4V6.7z"/>
		</g>
	</g>
	<g>
		<polygon class="st10" points="148.3,55.8 142.4,59.1 142.4,66.1 148.7,69.8 154.6,66.4 154.6,59.5 		"/>
		<g id="Groupe_3536_1_" transform="translate(2075.496 114.778)">
			<path id="Tracé_7903-23_1_" class="st14" d="M-1926.8-45l-6.3-3.7v-6.9l6.3,3.7V-45z"/>
			<path id="Tracé_7904-23_1_" class="st15" d="M-1926.8-51.9l-6.3-3.7l5.9-3.4l6.3,3.7L-1926.8-51.9z"/>
			<path id="Tracé_7905-23_1_" class="st16" d="M-1926.8-45l5.9-3.4v-6.9l-5.9,3.4V-45z"/>
		</g>
	</g>
	<g>
		<polygon class="st10" points="156.3,63.9 153.8,65.3 153.8,68.2 156.4,69.7 158.9,68.3 158.9,65.4 		"/>
		<g id="Groupe_3536_28_" transform="translate(2075.496 114.778)">
			<path id="Tracé_7903-23_28_" class="st11" d="M-1919.1-45l-2.6-1.6v-2.9l2.6,1.6V-45z"/>
			<path id="Tracé_7904-23_28_" class="st12" d="M-1919.1-47.9l-2.6-1.6l2.5-1.4l2.6,1.6L-1919.1-47.9z"/>
			<path id="Tracé_7905-23_28_" class="st13" d="M-1919.1-45l2.5-1.4v-2.9l-2.5,1.4V-45z"/>
		</g>
	</g>
	<g>
		<polygon class="st10" points="151,67.1 148.5,68.5 148.5,71.5 151.1,73 153.6,71.6 153.6,68.7 		"/>
		<g id="Groupe_3536_29_" transform="translate(2075.496 114.778)">
			<path id="Tracé_7903-23_29_" class="st11" d="M-1924.4-41.8l-2.6-1.6v-2.9l2.6,1.6V-41.8z"/>
			<path id="Tracé_7904-23_29_" class="st12" d="M-1924.4-44.7l-2.6-1.6l2.5-1.4l2.6,1.6L-1924.4-44.7z"/>
			<path id="Tracé_7905-23_29_" class="st13" d="M-1924.4-41.8l2.5-1.4v-2.9l-2.5,1.4V-41.8z"/>
		</g>
	</g>
	<g>
		<polygon class="st10" points="93.5,107 91.1,108.4 91.1,111.3 93.7,112.9 96.2,111.5 96.2,108.6 		"/>
		<g id="Groupe_3536_22_" transform="translate(2075.496 114.778)">
			<path id="Tracé_7903-23_22_" class="st11" d="M-1981.8-1.9l-2.6-1.6v-2.9l2.6,1.6V-1.9z"/>
			<path id="Tracé_7904-23_22_" class="st12" d="M-1981.8-4.8l-2.6-1.6l2.5-1.4l2.6,1.6L-1981.8-4.8z"/>
			<path id="Tracé_7905-23_22_" class="st13" d="M-1981.8-1.9l2.5-1.4v-2.9l-2.5,1.4V-1.9z"/>
		</g>
	</g>
	<g>
		<polygon class="st10" points="86.1,74.7 83.6,76.1 83.6,79 86.2,80.6 88.7,79.1 88.7,76.2 		"/>
		<g id="Groupe_3536_14_" transform="translate(2075.496 114.778)">
			<path id="Tracé_7903-23_14_" class="st11" d="M-1989.3-34.2l-2.6-1.6v-2.9l2.6,1.6V-34.2z"/>
			<path id="Tracé_7904-23_14_" class="st12" d="M-1989.3-37.1l-2.6-1.6l2.5-1.4l2.6,1.6L-1989.3-37.1z"/>
			<path id="Tracé_7905-23_14_" class="st13" d="M-1989.3-34.2l2.5-1.4v-2.9l-2.5,1.4V-34.2z"/>
		</g>
	</g>
	<g>
		<polygon class="st10" points="78.9,77.9 76.4,79.3 76.4,82.3 79.1,83.8 81.5,82.4 81.5,79.5 		"/>
		<g id="Groupe_3536_15_" transform="translate(2075.496 114.778)">
			<path id="Tracé_7903-23_15_" class="st11" d="M-1996.4-31l-2.6-1.6v-2.9l2.6,1.6V-31z"/>
			<path id="Tracé_7904-23_15_" class="st12" d="M-1996.4-33.9l-2.6-1.6l2.5-1.4l2.6,1.6L-1996.4-33.9z"/>
			<path id="Tracé_7905-23_15_" class="st13" d="M-1996.4-31l2.5-1.4v-2.9l-2.5,1.4V-31z"/>
		</g>
	</g>
	<g>
		<polygon class="st10" points="67.1,73.3 62.8,75.7 62.8,80.8 67.4,83.5 71.7,81.1 71.7,76 		"/>
		<g id="Groupe_3536_33_" transform="translate(2075.496 114.778)">
			<path id="Tracé_7903-23_33_" class="st11" d="M-2008.1-31.3l-4.6-2.7V-39l4.6,2.7V-31.3z"/>
			<path id="Tracé_7904-23_33_" class="st12" d="M-2008.1-36.3l-4.6-2.7l4.3-2.5l4.6,2.7L-2008.1-36.3z"/>
			<path id="Tracé_7905-23_33_" class="st13" d="M-2008.1-31.3l4.3-2.5v-5.1l-4.3,2.5V-31.3z"/>
		</g>
	</g>
	<g>
		<polygon class="st10" points="64.3,106.5 61.8,107.9 61.8,110.9 64.4,112.4 66.9,111 66.9,108.1 		"/>
		<g id="Groupe_3536_19_" transform="translate(2075.496 114.778)">
			<path id="Tracé_7903-23_19_" class="st11" d="M-2011.1-2.4l-2.6-1.6v-2.9l2.6,1.6V-2.4z"/>
			<path id="Tracé_7904-23_19_" class="st12" d="M-2011.1-5.3l-2.6-1.6l2.5-1.4l2.6,1.6L-2011.1-5.3z"/>
			<path id="Tracé_7905-23_19_" class="st13" d="M-2011.1-2.4l2.5-1.4v-2.9l-2.5,1.4V-2.4z"/>
		</g>
	</g>
	<g>
		<polygon class="st10" points="59.3,110.1 56.8,111.5 56.8,114.4 59.4,116 61.9,114.6 61.9,111.7 		"/>
		<g id="Groupe_3536_20_" transform="translate(2075.496 114.778)">
			<path id="Tracé_7903-23_20_" class="st11" d="M-2016.1,1.2l-2.6-1.6v-2.9l2.6,1.6V1.2z"/>
			<path id="Tracé_7904-23_20_" class="st12" d="M-2016.1-1.7l-2.6-1.6l2.5-1.4l2.6,1.6L-2016.1-1.7z"/>
			<path id="Tracé_7905-23_20_" class="st13" d="M-2016.1,1.2l2.5-1.4v-2.9l-2.5,1.4V1.2z"/>
		</g>
	</g>
	<g>
		<polygon class="st10" points="52.1,106.7 49.7,108.1 49.7,117.4 52.3,119 54.8,117.6 54.8,108.2 		"/>
		<g id="Groupe_3536_41_" transform="translate(2075.496 114.778)">
			<path id="Tracé_7903-23_41_" class="st11" d="M-2023.2,4.2l-2.6-1.6v-9.4l2.6,1.6V4.2z"/>
			<path id="Tracé_7904-23_41_" class="st12" d="M-2023.2-5.2l-2.6-1.6l2.5-1.4l2.6,1.6L-2023.2-5.2z"/>
			<path id="Tracé_7905-23_41_" class="st13" d="M-2023.2,4.2l2.5-1.4v-9.4l-2.5,1.4V4.2z"/>
		</g>
	</g>
	<g>
		<polygon class="st10" points="71.4,108.7 65.5,112.1 65.5,119 71.8,122.7 77.6,119.4 77.6,112.4 		"/>
		<g id="Groupe_3536_7_" transform="translate(2075.496 114.778)">
			<path id="Tracé_7903-23_7_" class="st11" d="M-2003.7,7.9l-6.3-3.7v-6.9l6.3,3.7V7.9z"/>
			<path id="Tracé_7904-23_7_" class="st12" d="M-2003.7,1l-6.3-3.7l5.9-3.4l6.3,3.7L-2003.7,1z"/>
			<path id="Tracé_7905-23_7_" class="st13" d="M-2003.7,7.9l5.9-3.4v-6.9l-5.9,3.4V7.9z"/>
		</g>
	</g>
	<g>
		<polygon class="st10" points="65.3,116.1 61,118.5 61,123.6 65.6,126.3 69.9,123.9 69.9,118.8 		"/>
		<g id="Groupe_3536_32_" transform="translate(2075.496 114.778)">
			<path id="Tracé_7903-23_32_" class="st11" d="M-2009.9,11.5l-4.6-2.7V3.8l4.6,2.7V11.5z"/>
			<path id="Tracé_7904-23_32_" class="st12" d="M-2009.9,6.5l-4.6-2.7l4.3-2.5l4.6,2.7L-2009.9,6.5z"/>
			<path id="Tracé_7905-23_32_" class="st13" d="M-2009.9,11.5l4.3-2.5V4l-4.3,2.5V11.5z"/>
		</g>
	</g>
	<g>
		<polygon class="st10" points="154.7,91.7 152.2,93.1 152.2,96 154.8,97.6 157.3,96.2 157.3,93.3 		"/>
		<g id="Groupe_3536_24_" transform="translate(2075.496 114.778)">
			<path id="Tracé_7903-23_49_" class="st11" d="M-1920.7-17.2l-2.6-1.6v-2.9l2.6,1.6V-17.2z"/>
			<path id="Tracé_7904-23_24_" class="st12" d="M-1920.7-20.1l-2.6-1.6l2.5-1.4l2.6,1.6L-1920.7-20.1z"/>
			<path id="Tracé_7905-23_24_" class="st13" d="M-1920.7-17.2l2.5-1.4v-2.9l-2.5,1.4V-17.2z"/>
		</g>
	</g>
	<g>
		<polygon class="st10" points="159.9,88.3 157.5,89.7 157.5,92.6 160.1,94.1 162.6,92.7 162.6,89.8 		"/>
		<g id="Groupe_3536_5_" transform="translate(2075.496 114.778)">
			<path id="Tracé_7903-23_48_" class="st11" d="M-1915.4-20.6l-2.6-1.6v-2.9l2.6,1.6V-20.6z"/>
			<path id="Tracé_7904-23_5_" class="st12" d="M-1915.4-23.5l-2.6-1.6l2.5-1.4l2.6,1.6L-1915.4-23.5z"/>
			<path id="Tracé_7905-23_5_" class="st13" d="M-1915.4-20.6l2.5-1.4V-25l-2.5,1.4V-20.6z"/>
		</g>
	</g>
	<g>
		<polygon class="st10" points="107.7,112.6 105.2,114.1 105.2,117 107.9,118.5 110.3,117.1 110.3,114.2 		"/>
		<g id="Groupe_3536_48_" transform="translate(2075.496 114.778)">
			<path id="Tracé_7903-23_51_" class="st14" d="M-1967.6,3.8l-2.6-1.6v-2.9l2.6,1.6V3.8z"/>
			<path id="Tracé_7904-23_48_" class="st15" d="M-1967.6,0.8l-2.6-1.6l2.5-1.4l2.6,1.6L-1967.6,0.8z"/>
			<path id="Tracé_7905-23_48_" class="st16" d="M-1967.6,3.8l2.5-1.4v-2.9l-2.5,1.4V3.8z"/>
		</g>
	</g>
	<g>
		<polygon class="st10" points="103.9,115 101.4,116.4 101.4,119.3 104.1,120.9 106.5,119.4 106.5,116.5 		"/>
		<g id="Groupe_3536_49_" transform="translate(2075.496 114.778)">
			<path id="Tracé_7903-23_52_" class="st14" d="M-1971.4,6.1l-2.6-1.6V1.6l2.6,1.6V6.1z"/>
			<path id="Tracé_7904-23_49_" class="st15" d="M-1971.4,3.2l-2.6-1.6l2.5-1.4l2.6,1.6L-1971.4,3.2z"/>
			<path id="Tracé_7905-23_49_" class="st16" d="M-1971.4,6.1l2.5-1.4V1.7l-2.5,1.4V6.1z"/>
		</g>
	</g>
	<g>
		<polygon class="st10" points="99.5,117.7 97,119.2 97,122.1 99.7,123.6 102.2,122.2 102.2,119.3 		"/>
		<g id="Groupe_3536_50_" transform="translate(2075.496 114.778)">
			<path id="Tracé_7903-23_53_" class="st14" d="M-1975.8,8.9l-2.6-1.6V4.4l2.6,1.6V8.9z"/>
			<path id="Tracé_7904-23_50_" class="st15" d="M-1975.8,5.9l-2.6-1.6l2.5-1.4l2.6,1.6L-1975.8,5.9z"/>
			<path id="Tracé_7905-23_50_" class="st16" d="M-1975.8,8.9l2.5-1.4V4.5l-2.5,1.4V8.9z"/>
		</g>
	</g>
	<g>
		<polygon class="st10" points="92.1,117.9 89.6,119.3 89.6,122.2 92.3,123.8 94.7,122.4 94.7,119.5 		"/>
		<g id="Groupe_3536_51_" transform="translate(2075.496 114.778)">
			<path id="Tracé_7903-23_54_" class="st14" d="M-1983.2,9l-2.6-1.6V4.5l2.6,1.6V9z"/>
			<path id="Tracé_7904-23_51_" class="st15" d="M-1983.2,6.1l-2.6-1.6l2.5-1.4l2.6,1.6L-1983.2,6.1z"/>
			<path id="Tracé_7905-23_51_" class="st16" d="M-1983.2,9l2.5-1.4V4.7l-2.5,1.4V9z"/>
		</g>
	</g>
</g>
<g id="Groupe_3561" transform="translate(-1704.803 34.826)">
	<circle id="Ellipse_92" class="st17" cx="1850.1" cy="22.7" r="1.9"/>
	<path id="Tracé_8229" class="st18" d="M1850.1,22.7V-8.6h-51.3"/>
</g>
<g id="Groupe_3563" transform="translate(-2016.803 143.826)">
	<circle id="Ellipse_92-2" class="st17" cx="2074.1" cy="-52.8" r="1.9"/>
	<path id="Tracé_8229-2" class="st18" d="M2074.1-52.8v-28.3h-51.3"/>
</g>
<g id="Groupe_3562" transform="translate(2485.974 564.174) rotate(180)">
	<circle id="Ellipse_92-3" class="st17" cx="2384.5" cy="446.9" r="1.9"/>
	<path id="Tracé_8229-3" class="st18" d="M2384.5,446.9v-31.3h-51.3"/>
</g>
<g class="st19">
	<path class="st20" d="M96,9.4c-0.5,0-0.9-0.2-1.3-0.5c-0.3-0.3-0.5-0.8-0.5-1.3s0.2-0.9,0.5-1.3C95.1,6,95.5,5.8,96,5.8
		c0.3,0,0.7,0.1,0.9,0.2c0.3,0.2,0.5,0.4,0.6,0.7L97,7.1c-0.2-0.4-0.6-0.6-1-0.6c-0.3,0-0.5,0.1-0.8,0.3C95,7,94.9,7.3,94.9,7.6
		c0,0.3,0.1,0.6,0.3,0.8c0.2,0.2,0.5,0.3,0.8,0.3c0.4,0,0.8-0.2,1-0.6l0.6,0.3c-0.1,0.3-0.4,0.5-0.6,0.7S96.3,9.4,96,9.4z"/>
	<path class="st20" d="M100,9c-0.2,0.2-0.5,0.4-0.9,0.4c-0.4,0-0.7-0.1-0.9-0.4c-0.2-0.2-0.4-0.5-0.4-0.9c0-0.4,0.1-0.6,0.4-0.9
		c0.2-0.2,0.5-0.4,0.9-0.4c0.4,0,0.7,0.1,0.9,0.4c0.2,0.2,0.4,0.5,0.4,0.9C100.4,8.5,100.2,8.8,100,9z M99.1,8.7
		c0.2,0,0.3-0.1,0.4-0.2c0.1-0.1,0.2-0.3,0.2-0.5c0-0.2-0.1-0.3-0.2-0.5c-0.1-0.1-0.3-0.2-0.4-0.2c-0.2,0-0.3,0.1-0.4,0.2
		c-0.1,0.1-0.2,0.3-0.2,0.5c0,0.2,0.1,0.3,0.2,0.5C98.8,8.7,98.9,8.7,99.1,8.7z"/>
	<path class="st20" d="M100.8,9.3V5.7h0.7v3.6H100.8z"/>
	<path class="st20" d="M102.1,9.3V5.7h0.7v3.6H102.1z"/>
	<path class="st20" d="M104.6,9.4c-0.4,0-0.7-0.1-0.9-0.3c-0.2-0.2-0.4-0.5-0.4-0.9c0-0.4,0.1-0.7,0.4-0.9c0.2-0.2,0.5-0.4,0.9-0.4
		c0.3,0,0.6,0.1,0.8,0.3c0.2,0.2,0.3,0.5,0.3,0.9c0,0.1,0,0.2,0,0.2h-1.8c0,0.2,0.1,0.3,0.2,0.4c0.1,0.1,0.3,0.1,0.4,0.1
		c0.3,0,0.5-0.1,0.6-0.3l0.5,0.4C105.4,9.2,105.1,9.4,104.6,9.4z M104,7.8h1.1c0-0.1-0.1-0.2-0.2-0.3c-0.1-0.1-0.2-0.1-0.4-0.1
		c-0.1,0-0.3,0-0.4,0.1C104.1,7.6,104,7.7,104,7.8z"/>
	<path class="st20" d="M107.4,9.4c-0.4,0-0.7-0.1-0.9-0.4c-0.2-0.2-0.4-0.5-0.4-0.9c0-0.4,0.1-0.7,0.4-0.9c0.2-0.2,0.5-0.4,0.9-0.4
		c0.2,0,0.5,0.1,0.7,0.2c0.2,0.1,0.4,0.3,0.5,0.5l-0.6,0.3c-0.1-0.1-0.1-0.2-0.2-0.3c-0.1-0.1-0.2-0.1-0.3-0.1
		c-0.2,0-0.3,0.1-0.4,0.2c-0.1,0.1-0.2,0.3-0.2,0.5c0,0.2,0.1,0.3,0.2,0.5c0.1,0.1,0.3,0.2,0.4,0.2c0.1,0,0.2,0,0.3-0.1
		c0.1-0.1,0.2-0.2,0.2-0.3l0.6,0.3c-0.1,0.2-0.3,0.4-0.5,0.5C107.8,9.3,107.6,9.4,107.4,9.4z"/>
	<path class="st20" d="M110.1,9.3c-0.3,0-0.5-0.1-0.7-0.2c-0.2-0.1-0.3-0.4-0.3-0.6v-1h-0.5V6.9h0.5V6.2h0.7v0.7h0.7v0.6h-0.7v0.9
		c0,0.1,0,0.3,0.1,0.3c0.1,0.1,0.2,0.1,0.3,0.1c0.1,0,0.2,0,0.3,0v0.6C110.4,9.3,110.3,9.3,110.1,9.3z"/>
	<path class="st20" d="M111.3,6.5c-0.1,0-0.2,0-0.3-0.1c-0.1-0.1-0.1-0.2-0.1-0.3c0-0.1,0-0.2,0.1-0.3c0.1-0.1,0.2-0.1,0.3-0.1
		c0.1,0,0.2,0,0.3,0.1c0.1,0.1,0.1,0.2,0.1,0.3c0,0.1,0,0.2-0.1,0.3C111.5,6.5,111.4,6.5,111.3,6.5z M111,9.3V6.9h0.7v2.4H111z"/>
	<path class="st20" d="M112.6,9.3V7.5h-0.5V6.9h0.5V6.6c0-0.3,0.1-0.5,0.3-0.7c0.2-0.2,0.4-0.2,0.7-0.2c0.2,0,0.3,0,0.4,0.1v0.6
		c-0.1,0-0.2,0-0.3,0c-0.1,0-0.2,0-0.3,0.1c-0.1,0.1-0.1,0.2-0.1,0.3v0.2h0.7v0.6h-0.7v1.8H112.6z"/>
	<path class="st20" d="M117.5,8.7v0.7h-2.3V9.1c0-0.1,0-0.2,0-0.3c0-0.1,0-0.2,0.1-0.2c0-0.1,0.1-0.1,0.1-0.2
		c0.1-0.1,0.1-0.1,0.1-0.2c0,0,0.1-0.1,0.2-0.2c0.1-0.1,0.1-0.1,0.2-0.1c0,0,0.1-0.1,0.2-0.1s0.2-0.1,0.2-0.1
		c0.4-0.3,0.5-0.5,0.5-0.7c0-0.1,0-0.2-0.1-0.3c-0.1-0.1-0.2-0.1-0.3-0.1c-0.2,0-0.3,0-0.4,0.1c-0.1,0.1-0.1,0.2-0.1,0.3h-0.7
		c0-0.3,0.1-0.6,0.3-0.8c0.2-0.2,0.5-0.3,0.9-0.3c0.3,0,0.6,0.1,0.8,0.3c0.2,0.2,0.3,0.4,0.3,0.8c0,0.3-0.1,0.5-0.2,0.7
		c-0.1,0.2-0.3,0.4-0.5,0.5c0,0-0.1,0.1-0.2,0.1c-0.1,0.1-0.2,0.1-0.2,0.1s-0.1,0.1-0.2,0.1c-0.1,0.1-0.1,0.1-0.1,0.2H117.5z"/>
	<path class="st20" d="M119.5,9.3V8.5h-1.7V8l1.8-2.1h0.6v2h0.4v0.6h-0.4v0.8H119.5z M118.6,7.9h0.9V6.9L118.6,7.9z"/>
	<path class="st20" d="M122.2,9.3V5.7h0.7v3.6H122.2z"/>
	<path class="st20" d="M125.5,9c-0.2,0.2-0.5,0.4-0.9,0.4c-0.4,0-0.7-0.1-0.9-0.4c-0.2-0.2-0.4-0.5-0.4-0.9c0-0.4,0.1-0.6,0.4-0.9
		c0.2-0.2,0.5-0.4,0.9-0.4c0.4,0,0.7,0.1,0.9,0.4c0.2,0.2,0.4,0.5,0.4,0.9C125.9,8.5,125.8,8.8,125.5,9z M124.6,8.7
		c0.2,0,0.3-0.1,0.4-0.2c0.1-0.1,0.2-0.3,0.2-0.5c0-0.2-0.1-0.3-0.2-0.5c-0.1-0.1-0.3-0.2-0.4-0.2c-0.2,0-0.3,0.1-0.4,0.2
		c-0.1,0.1-0.2,0.3-0.2,0.5c0,0.2,0.1,0.3,0.2,0.5C124.3,8.7,124.4,8.7,124.6,8.7z"/>
	<path class="st20" d="M127.4,10.4c-0.5,0-0.9-0.1-1.1-0.4l0.4-0.5c0.2,0.2,0.5,0.3,0.8,0.3c0.2,0,0.3-0.1,0.5-0.2
		c0.1-0.1,0.2-0.3,0.2-0.5V9c-0.1,0.1-0.2,0.2-0.3,0.2c-0.1,0.1-0.3,0.1-0.4,0.1c-0.3,0-0.6-0.1-0.8-0.4c-0.2-0.2-0.3-0.5-0.3-0.9
		c0-0.3,0.1-0.6,0.3-0.9c0.2-0.2,0.5-0.4,0.8-0.4c0.2,0,0.3,0,0.4,0.1c0.1,0.1,0.2,0.1,0.3,0.2V6.9h0.7v2.2c0,0.4-0.1,0.7-0.4,0.9
		C128.1,10.3,127.8,10.4,127.4,10.4z M127.1,8.5c0.1,0.1,0.3,0.2,0.4,0.2c0.2,0,0.3-0.1,0.4-0.2c0.1-0.1,0.2-0.3,0.2-0.4
		s-0.1-0.3-0.2-0.4c-0.1-0.1-0.3-0.2-0.4-0.2c-0.2,0-0.3,0.1-0.4,0.2c-0.1,0.1-0.2,0.3-0.2,0.4S126.9,8.4,127.1,8.5z"/>
	<path class="st20" d="M130.5,9.4c-0.4,0-0.7-0.1-0.9-0.3c-0.2-0.2-0.4-0.5-0.4-0.9c0-0.4,0.1-0.7,0.4-0.9c0.2-0.2,0.5-0.4,0.9-0.4
		c0.3,0,0.6,0.1,0.8,0.3c0.2,0.2,0.3,0.5,0.3,0.9c0,0.1,0,0.2,0,0.2h-1.8c0,0.2,0.1,0.3,0.2,0.4c0.1,0.1,0.3,0.1,0.4,0.1
		c0.3,0,0.5-0.1,0.6-0.3l0.5,0.4C131.3,9.2,131,9.4,130.5,9.4z M129.9,7.8h1.1c0-0.1-0.1-0.2-0.2-0.3c-0.1-0.1-0.2-0.1-0.3-0.1
		c-0.1,0-0.3,0-0.4,0.1C130,7.6,129.9,7.7,129.9,7.8z"/>
	<path class="st20" d="M135.2,9.3V8c0-0.4-0.1-0.6-0.4-0.6c-0.1,0-0.3,0.1-0.3,0.2c-0.1,0.1-0.1,0.3-0.1,0.5v1.2h-0.7V8
		c0-0.4-0.1-0.6-0.4-0.6c-0.1,0-0.3,0.1-0.4,0.2c-0.1,0.1-0.1,0.3-0.1,0.5v1.2h-0.7V6.9h0.7v0.3c0.2-0.2,0.4-0.3,0.6-0.3
		c0.3,0,0.6,0.1,0.7,0.4c0.1-0.1,0.2-0.2,0.3-0.3c0.1-0.1,0.3-0.1,0.4-0.1c0.3,0,0.5,0.1,0.7,0.3c0.2,0.2,0.2,0.5,0.2,0.8v1.4H135.2
		z"/>
	<path class="st20" d="M137.6,9.4c-0.4,0-0.7-0.1-0.9-0.3c-0.2-0.2-0.4-0.5-0.4-0.9c0-0.4,0.1-0.7,0.4-0.9c0.2-0.2,0.5-0.4,0.9-0.4
		c0.3,0,0.6,0.1,0.8,0.3c0.2,0.2,0.3,0.5,0.3,0.9c0,0.1,0,0.2,0,0.2h-1.8c0,0.2,0.1,0.3,0.2,0.4c0.1,0.1,0.3,0.1,0.4,0.1
		c0.3,0,0.5-0.1,0.6-0.3l0.5,0.4C138.4,9.2,138.1,9.4,137.6,9.4z M137,7.8h1.1c0-0.1-0.1-0.2-0.2-0.3c-0.1-0.1-0.2-0.1-0.3-0.1
		c-0.1,0-0.3,0-0.4,0.1C137.1,7.6,137,7.7,137,7.8z"/>
	<path class="st20" d="M139.2,9.3V6.9h0.7v0.3c0.1-0.2,0.4-0.3,0.7-0.3c0.3,0,0.5,0.1,0.7,0.3c0.2,0.2,0.2,0.4,0.2,0.8v1.4h-0.7V8
		c0-0.2,0-0.3-0.1-0.4c-0.1-0.1-0.2-0.1-0.3-0.1c-0.2,0-0.3,0.1-0.4,0.2c-0.1,0.1-0.1,0.3-0.1,0.5v1.2H139.2z"/>
	<path class="st20" d="M143.3,9.3c-0.3,0-0.5-0.1-0.7-0.2c-0.2-0.1-0.3-0.4-0.3-0.6v-1h-0.5V6.9h0.5V6.2h0.7v0.7h0.7v0.6H143v0.9
		c0,0.1,0,0.3,0.1,0.3c0.1,0.1,0.2,0.1,0.3,0.1c0.1,0,0.2,0,0.3,0v0.6C143.6,9.3,143.4,9.3,143.3,9.3z"/>
	<path class="st20" d="M145,9.4c-0.5,0-0.8-0.2-1-0.5l0.5-0.4c0.1,0.2,0.3,0.3,0.5,0.3c0.1,0,0.1,0,0.2,0c0.1,0,0.1-0.1,0.1-0.1
		c0-0.1,0-0.1-0.1-0.1c0,0-0.1-0.1-0.3-0.1l-0.2,0c-0.2-0.1-0.4-0.2-0.5-0.3c-0.1-0.1-0.2-0.3-0.2-0.5c0-0.2,0.1-0.4,0.3-0.5
		c0.2-0.1,0.4-0.2,0.6-0.2c0.4,0,0.6,0.1,0.8,0.4l-0.4,0.4c-0.1-0.1-0.2-0.2-0.4-0.2c-0.1,0-0.1,0-0.2,0c0,0-0.1,0.1-0.1,0.1
		c0,0.1,0.1,0.2,0.2,0.2l0.2,0.1c0.5,0.1,0.7,0.4,0.7,0.7c0,0.2-0.1,0.4-0.3,0.6C145.5,9.3,145.2,9.4,145,9.4z"/>
</g>
<g class="st19">
	<path class="st20" d="M94.3,15.3l0.9-1.1c0,0-0.1,0-0.1,0c-0.3,0-0.5-0.1-0.7-0.3c-0.2-0.2-0.3-0.4-0.3-0.7c0-0.3,0.1-0.5,0.3-0.7
		c0.2-0.2,0.4-0.3,0.7-0.3c0.3,0,0.5,0.1,0.7,0.3c0.2,0.2,0.3,0.4,0.3,0.7c0,0.1,0,0.3-0.1,0.4c-0.1,0.1-0.1,0.2-0.3,0.4l-1.1,1.3
		H94.3z M94.8,13.7c0.1,0.1,0.3,0.2,0.5,0.2c0.2,0,0.3-0.1,0.5-0.2c0.1-0.1,0.2-0.3,0.2-0.5c0-0.2-0.1-0.3-0.2-0.5
		c-0.1-0.1-0.3-0.2-0.5-0.2c-0.2,0-0.3,0.1-0.5,0.2c-0.1,0.1-0.2,0.3-0.2,0.5C94.6,13.5,94.6,13.6,94.8,13.7z"/>
	<path class="st20" d="M97,15.3v-2.6h-0.6l0.3-0.4h0.6v3H97z"/>
	<path class="st20" d="M99.1,15.4c-0.3,0-0.6-0.1-0.8-0.3S98,14.6,98,14.3v-0.8c0-0.3,0.1-0.6,0.3-0.8c0.2-0.2,0.5-0.3,0.8-0.3
		c0.3,0,0.6,0.1,0.8,0.3c0.2,0.2,0.3,0.5,0.3,0.8v0.8c0,0.3-0.1,0.6-0.3,0.8C99.7,15.3,99.4,15.4,99.1,15.4z M99.1,15
		c0.2,0,0.4-0.1,0.5-0.2c0.1-0.1,0.2-0.3,0.2-0.6v-0.8c0-0.2-0.1-0.4-0.2-0.6c-0.1-0.1-0.3-0.2-0.5-0.2c-0.2,0-0.4,0.1-0.5,0.2
		c-0.1,0.1-0.2,0.3-0.2,0.6v0.8c0,0.2,0.1,0.4,0.2,0.6C98.7,15,98.9,15,99.1,15z"/>
	<path class="st20" d="M102.7,15.4c-0.3,0-0.6-0.1-0.8-0.3c-0.2-0.2-0.3-0.5-0.3-0.8v-0.8c0-0.3,0.1-0.6,0.3-0.8
		c0.2-0.2,0.5-0.3,0.8-0.3c0.3,0,0.6,0.1,0.8,0.3c0.2,0.2,0.3,0.5,0.3,0.8v0.8c0,0.3-0.1,0.6-0.3,0.8
		C103.3,15.3,103,15.4,102.7,15.4z M102.7,15c0.2,0,0.4-0.1,0.5-0.2c0.1-0.1,0.2-0.3,0.2-0.6v-0.8c0-0.2-0.1-0.4-0.2-0.6
		c-0.1-0.1-0.3-0.2-0.5-0.2c-0.2,0-0.4,0.1-0.5,0.2c-0.1,0.1-0.2,0.3-0.2,0.6v0.8c0,0.2,0.1,0.4,0.2,0.6C102.4,15,102.5,15,102.7,15
		z"/>
	<path class="st20" d="M105.4,15.4c-0.3,0-0.6-0.1-0.8-0.3c-0.2-0.2-0.3-0.5-0.3-0.8v-0.8c0-0.3,0.1-0.6,0.3-0.8
		c0.2-0.2,0.5-0.3,0.8-0.3c0.3,0,0.6,0.1,0.8,0.3c0.2,0.2,0.3,0.5,0.3,0.8v0.8c0,0.3-0.1,0.6-0.3,0.8
		C105.9,15.3,105.7,15.4,105.4,15.4z M105.4,15c0.2,0,0.4-0.1,0.5-0.2c0.1-0.1,0.2-0.3,0.2-0.6v-0.8c0-0.2-0.1-0.4-0.2-0.6
		c-0.1-0.1-0.3-0.2-0.5-0.2c-0.2,0-0.4,0.1-0.5,0.2c-0.1,0.1-0.2,0.3-0.2,0.6v0.8c0,0.2,0.1,0.4,0.2,0.6C105,15,105.2,15,105.4,15z"
		/>
	<path class="st20" d="M108,15.4c-0.3,0-0.6-0.1-0.8-0.3s-0.3-0.5-0.3-0.8v-0.8c0-0.3,0.1-0.6,0.3-0.8c0.2-0.2,0.5-0.3,0.8-0.3
		c0.3,0,0.6,0.1,0.8,0.3c0.2,0.2,0.3,0.5,0.3,0.8v0.8c0,0.3-0.1,0.6-0.3,0.8C108.6,15.3,108.3,15.4,108,15.4z M108,15
		c0.2,0,0.4-0.1,0.5-0.2c0.1-0.1,0.2-0.3,0.2-0.6v-0.8c0-0.2-0.1-0.4-0.2-0.6c-0.1-0.1-0.3-0.2-0.5-0.2c-0.2,0-0.4,0.1-0.5,0.2
		c-0.1,0.1-0.2,0.3-0.2,0.6v0.8c0,0.2,0.1,0.4,0.2,0.6C107.6,15,107.8,15,108,15z"/>
	<path class="st20" d="M111,13.6h-0.5l0.1-0.2h0.4c0.1-0.3,0.3-0.6,0.5-0.8c0.3-0.2,0.6-0.3,1-0.3c0.3,0,0.6,0.1,0.9,0.3
		c0.3,0.2,0.4,0.4,0.6,0.7h-0.4c-0.1-0.2-0.2-0.3-0.4-0.4c-0.2-0.1-0.4-0.2-0.6-0.2c-0.3,0-0.5,0.1-0.7,0.2
		c-0.2,0.1-0.3,0.3-0.4,0.6h1.8l-0.1,0.2h-1.7c0,0.1,0,0.1,0,0.2c0,0.1,0,0.1,0,0.2h1.5l-0.1,0.2h-1.4c0.1,0.2,0.2,0.4,0.4,0.6
		c0.2,0.1,0.4,0.2,0.7,0.2c0.2,0,0.4-0.1,0.6-0.2c0.2-0.1,0.3-0.2,0.4-0.4h0.4c-0.1,0.3-0.3,0.5-0.6,0.7c-0.3,0.2-0.5,0.3-0.9,0.3
		c-0.4,0-0.7-0.1-1-0.3c-0.3-0.2-0.5-0.5-0.5-0.8h-0.5l0.1-0.2h0.4c0,0,0-0.1,0-0.2C111,13.8,111,13.7,111,13.6z"/>
</g>
<g class="st19">
	<path class="st20" d="M94.2,20v-0.8h0.9v-0.9h0.8v0.9h0.9V20h-0.9v0.9h-0.8V20H94.2z"/>
	<path class="st20" d="M99.2,21.4v-0.9h-2.1v-0.7l2.2-2.6h0.8v2.5h0.5v0.8h-0.5v0.9H99.2z M98.2,19.6h1v-1.2L98.2,19.6z"/>
	<path class="st20" d="M102.7,21.4c-0.4,0-0.8-0.1-1.1-0.4c-0.3-0.3-0.5-0.6-0.5-1.1h0.9c0,0.2,0.1,0.3,0.2,0.4
		c0.1,0.1,0.3,0.1,0.5,0.1c0.2,0,0.3,0,0.4-0.1c0.1-0.1,0.2-0.2,0.2-0.3c0-0.2-0.1-0.3-0.2-0.4c-0.1-0.1-0.3-0.1-0.5-0.1h-0.4v-0.7
		h0.3c0.4,0,0.6-0.2,0.6-0.5c0-0.1,0-0.2-0.1-0.3c-0.1-0.1-0.2-0.1-0.4-0.1c-0.2,0-0.3,0.1-0.4,0.2c-0.1,0.1-0.2,0.2-0.2,0.4h-0.9
		c0-0.4,0.2-0.8,0.5-1c0.3-0.3,0.7-0.4,1.1-0.4c0.4,0,0.8,0.1,1,0.4c0.2,0.2,0.4,0.5,0.4,0.9c0,0.2,0,0.4-0.1,0.5
		c-0.1,0.2-0.2,0.3-0.3,0.4c0.2,0.1,0.3,0.2,0.4,0.4s0.2,0.4,0.2,0.6c0,0.4-0.1,0.7-0.4,0.9C103.5,21.3,103.1,21.4,102.7,21.4z"/>
	<path class="st20" d="M105.8,19.4c-0.3,0-0.6-0.1-0.8-0.3c-0.2-0.2-0.3-0.5-0.3-0.8c0-0.3,0.1-0.6,0.3-0.8c0.2-0.2,0.5-0.3,0.8-0.3
		c0.3,0,0.6,0.1,0.8,0.3c0.2,0.2,0.4,0.5,0.4,0.8c0,0.3-0.1,0.6-0.4,0.8C106.4,19.3,106.1,19.4,105.8,19.4z M105.8,18.7
		c0.1,0,0.2,0,0.3-0.1c0.1-0.1,0.1-0.2,0.1-0.3c0-0.1,0-0.2-0.1-0.3c-0.1-0.1-0.2-0.1-0.3-0.1c-0.1,0-0.2,0-0.3,0.1
		c-0.1,0.1-0.1,0.2-0.1,0.3c0,0.1,0,0.2,0.1,0.3C105.6,18.6,105.7,18.7,105.8,18.7z M106.5,21.4h-0.9l2.7-4.3h0.9L106.5,21.4z
		 M109,21.4c-0.3,0-0.6-0.1-0.8-0.4c-0.2-0.2-0.3-0.5-0.3-0.8c0-0.3,0.1-0.6,0.3-0.8c0.2-0.2,0.5-0.3,0.8-0.3c0.3,0,0.6,0.1,0.8,0.3
		c0.2,0.2,0.4,0.5,0.4,0.8c0,0.3-0.1,0.6-0.4,0.8C109.6,21.3,109.3,21.4,109,21.4z M108.7,20.5c0.1,0.1,0.2,0.1,0.3,0.1
		c0.1,0,0.2,0,0.3-0.1c0.1-0.1,0.1-0.2,0.1-0.3s0-0.2-0.1-0.3c-0.1-0.1-0.2-0.1-0.3-0.1c-0.1,0-0.2,0-0.3,0.1
		c-0.1,0.1-0.1,0.2-0.1,0.3S108.6,20.5,108.7,20.5z"/>
</g>
<g class="st19">
	<path class="st20" d="M6.4,45.8v-3.4h1.1c0.5,0,0.9,0.2,1.3,0.5c0.3,0.3,0.5,0.7,0.5,1.2c0,0.5-0.2,0.9-0.5,1.2
		c-0.3,0.3-0.8,0.5-1.3,0.5H6.4z M7.1,45.2h0.4c0.3,0,0.6-0.1,0.8-0.3c0.2-0.2,0.3-0.5,0.3-0.8c0-0.3-0.1-0.6-0.3-0.8
		C8.1,43.2,7.9,43,7.6,43H7.1V45.2z"/>
	<path class="st20" d="M10.1,43c-0.1,0-0.2,0-0.3-0.1c-0.1-0.1-0.1-0.2-0.1-0.3c0-0.1,0-0.2,0.1-0.3c0.1-0.1,0.2-0.1,0.3-0.1
		c0.1,0,0.2,0,0.3,0.1c0.1,0.1,0.1,0.2,0.1,0.3c0,0.1,0,0.2-0.1,0.3C10.3,43,10.2,43,10.1,43z M9.8,45.8v-2.4h0.7v2.4H9.8z"/>
	<path class="st20" d="M11.8,45.8l-1.1-2.4h0.7l0.6,1.5l0.6-1.5h0.7l-1.1,2.4H11.8z"/>
	<path class="st20" d="M14.2,43c-0.1,0-0.2,0-0.3-0.1c-0.1-0.1-0.1-0.2-0.1-0.3c0-0.1,0-0.2,0.1-0.3c0.1-0.1,0.2-0.1,0.3-0.1
		c0.1,0,0.2,0,0.3,0.1c0.1,0.1,0.1,0.2,0.1,0.3c0,0.1,0,0.2-0.1,0.3C14.4,43,14.3,43,14.2,43z M13.8,45.8v-2.4h0.7v2.4H13.8z"/>
	<path class="st20" d="M15.9,45.9c-0.5,0-0.8-0.2-1-0.5l0.5-0.4c0.1,0.2,0.3,0.3,0.5,0.3c0.1,0,0.1,0,0.2,0c0.1,0,0.1-0.1,0.1-0.1
		c0-0.1,0-0.1-0.1-0.1c0,0-0.1-0.1-0.3-0.1l-0.2,0c-0.2-0.1-0.4-0.2-0.5-0.3c-0.1-0.1-0.2-0.3-0.2-0.5c0-0.2,0.1-0.4,0.3-0.5
		c0.2-0.1,0.4-0.2,0.6-0.2c0.4,0,0.6,0.1,0.8,0.4l-0.4,0.4c-0.1-0.1-0.2-0.2-0.4-0.2c-0.1,0-0.1,0-0.2,0c0,0-0.1,0.1-0.1,0.1
		c0,0.1,0.1,0.2,0.2,0.2l0.2,0.1c0.5,0.1,0.7,0.4,0.7,0.7c0,0.2-0.1,0.4-0.3,0.6C16.4,45.8,16.2,45.9,15.9,45.9z"/>
	<path class="st20" d="M17.7,43c-0.1,0-0.2,0-0.3-0.1c-0.1-0.1-0.1-0.2-0.1-0.3c0-0.1,0-0.2,0.1-0.3c0.1-0.1,0.2-0.1,0.3-0.1
		c0.1,0,0.2,0,0.3,0.1c0.1,0.1,0.1,0.2,0.1,0.3c0,0.1,0,0.2-0.1,0.3C17.9,43,17.8,43,17.7,43z M17.4,45.8v-2.4H18v2.4H17.4z"/>
	<path class="st20" d="M20.7,45.5c-0.2,0.2-0.5,0.4-0.9,0.4c-0.4,0-0.7-0.1-0.9-0.4c-0.2-0.2-0.4-0.5-0.4-0.9c0-0.4,0.1-0.6,0.4-0.9
		c0.2-0.2,0.5-0.4,0.9-0.4c0.4,0,0.7,0.1,0.9,0.4c0.2,0.2,0.4,0.5,0.4,0.9C21,45,20.9,45.3,20.7,45.5z M19.8,45.3
		c0.2,0,0.3-0.1,0.4-0.2c0.1-0.1,0.2-0.3,0.2-0.5c0-0.2-0.1-0.3-0.2-0.5C20.1,44,19.9,44,19.8,44c-0.2,0-0.3,0.1-0.4,0.2
		c-0.1,0.1-0.2,0.3-0.2,0.5c0,0.2,0.1,0.3,0.2,0.5C19.4,45.2,19.6,45.3,19.8,45.3z"/>
	<path class="st20" d="M21.5,45.8v-2.4h0.7v0.3c0.1-0.2,0.4-0.3,0.7-0.3c0.3,0,0.5,0.1,0.7,0.3s0.2,0.4,0.2,0.8v1.4h-0.7v-1.3
		c0-0.2,0-0.3-0.1-0.4C23,44,22.8,44,22.7,44c-0.2,0-0.3,0.1-0.4,0.2c-0.1,0.1-0.1,0.3-0.1,0.5v1.2H21.5z"/>
	<path class="st20" d="M27.7,45.2v0.7h-2.3v-0.2c0-0.1,0-0.2,0-0.3c0-0.1,0-0.2,0.1-0.2c0-0.1,0.1-0.1,0.1-0.2
		c0.1-0.1,0.1-0.1,0.1-0.2c0,0,0.1-0.1,0.2-0.2c0.1-0.1,0.1-0.1,0.2-0.1c0,0,0.1-0.1,0.2-0.1c0.1-0.1,0.2-0.1,0.2-0.1
		c0.4-0.3,0.5-0.5,0.5-0.7c0-0.1,0-0.2-0.1-0.3C26.8,43,26.7,43,26.6,43c-0.2,0-0.3,0-0.4,0.1c-0.1,0.1-0.1,0.2-0.1,0.3h-0.7
		c0-0.3,0.1-0.6,0.3-0.8c0.2-0.2,0.5-0.3,0.9-0.3c0.3,0,0.6,0.1,0.8,0.3c0.2,0.2,0.3,0.4,0.3,0.8c0,0.3-0.1,0.5-0.2,0.7
		c-0.1,0.2-0.3,0.4-0.5,0.5c0,0-0.1,0.1-0.2,0.1c-0.1,0.1-0.2,0.1-0.2,0.1c0,0-0.1,0.1-0.2,0.1c-0.1,0.1-0.1,0.1-0.1,0.2H27.7z"/>
	<path class="st20" d="M29.4,45.8v-3.6H30v3.6H29.4z"/>
	<path class="st20" d="M32.7,45.5c-0.2,0.2-0.5,0.4-0.9,0.4c-0.4,0-0.7-0.1-0.9-0.4c-0.2-0.2-0.4-0.5-0.4-0.9c0-0.4,0.1-0.6,0.4-0.9
		c0.2-0.2,0.5-0.4,0.9-0.4c0.4,0,0.7,0.1,0.9,0.4c0.2,0.2,0.4,0.5,0.4,0.9C33.1,45,32.9,45.3,32.7,45.5z M31.8,45.3
		c0.2,0,0.3-0.1,0.4-0.2c0.1-0.1,0.2-0.3,0.2-0.5c0-0.2-0.1-0.3-0.2-0.5C32.1,44,32,44,31.8,44c-0.2,0-0.3,0.1-0.4,0.2
		c-0.1,0.1-0.2,0.3-0.2,0.5c0,0.2,0.1,0.3,0.2,0.5C31.5,45.2,31.6,45.3,31.8,45.3z"/>
	<path class="st20" d="M34.7,45.9c-0.3,0-0.5-0.1-0.7-0.2c-0.2-0.1-0.3-0.4-0.3-0.6v-1h-0.5v-0.6h0.5v-0.7h0.7v0.7h0.7V44h-0.7v0.9
		c0,0.1,0,0.3,0.1,0.3c0.1,0.1,0.2,0.1,0.3,0.1c0.1,0,0.2,0,0.3,0v0.6C35,45.8,34.8,45.9,34.7,45.9z"/>
	<path class="st20" d="M36.4,45.9c-0.5,0-0.8-0.2-1-0.5l0.5-0.4c0.1,0.2,0.3,0.3,0.5,0.3c0.1,0,0.1,0,0.2,0c0.1,0,0.1-0.1,0.1-0.1
		c0-0.1,0-0.1-0.1-0.1c0,0-0.1-0.1-0.3-0.1l-0.2,0c-0.2-0.1-0.4-0.2-0.5-0.3c-0.1-0.1-0.2-0.3-0.2-0.5c0-0.2,0.1-0.4,0.3-0.5
		c0.2-0.1,0.4-0.2,0.6-0.2c0.4,0,0.6,0.1,0.8,0.4l-0.4,0.4c-0.1-0.1-0.2-0.2-0.4-0.2c-0.1,0-0.1,0-0.2,0c0,0-0.1,0.1-0.1,0.1
		c0,0.1,0.1,0.2,0.2,0.2l0.2,0.1c0.5,0.1,0.7,0.4,0.7,0.7c0,0.2-0.1,0.4-0.3,0.6C36.8,45.8,36.6,45.9,36.4,45.9z"/>
</g>
<g class="st19">
	<path class="st20" d="M7.2,51.9c-0.3,0-0.5-0.1-0.7-0.3c-0.2-0.2-0.3-0.4-0.3-0.6h0.4c0,0.1,0.1,0.3,0.2,0.4
		c0.1,0.1,0.3,0.1,0.4,0.1c0.2,0,0.3-0.1,0.5-0.2c0.1-0.1,0.2-0.3,0.2-0.5c0-0.2-0.1-0.3-0.2-0.5c-0.1-0.1-0.3-0.2-0.5-0.2
		c-0.3,0-0.4,0.1-0.6,0.3l-0.3-0.1l0.3-1.6H8v0.4H6.9l-0.2,0.9c0.1-0.1,0.3-0.2,0.5-0.2c0.3,0,0.5,0.1,0.7,0.3
		c0.2,0.2,0.3,0.4,0.3,0.7c0,0.3-0.1,0.5-0.3,0.7C7.7,51.8,7.5,51.9,7.2,51.9z"/>
	<path class="st20" d="M10.5,51.5v0.4H8.6v-0.1c0-0.1,0-0.2,0-0.3c0-0.1,0.1-0.2,0.1-0.2c0-0.1,0.1-0.1,0.2-0.2
		c0.1-0.1,0.2-0.1,0.2-0.2c0,0,0.1-0.1,0.2-0.2c0.1-0.1,0.2-0.1,0.2-0.2c0.2-0.1,0.3-0.3,0.4-0.4c0.1-0.1,0.1-0.2,0.1-0.4
		c0-0.2-0.1-0.3-0.2-0.4s-0.2-0.1-0.4-0.1c-0.2,0-0.3,0.1-0.4,0.2C9,49.4,9,49.6,9,49.8H8.6c0-0.3,0.1-0.5,0.3-0.7
		c0.2-0.2,0.4-0.3,0.7-0.3c0.3,0,0.5,0.1,0.7,0.2c0.2,0.2,0.3,0.4,0.3,0.7c0,0.2-0.1,0.4-0.2,0.5c-0.1,0.2-0.3,0.3-0.5,0.5
		c0,0-0.1,0.1-0.2,0.1C9.5,50.9,9.5,51,9.4,51c0,0-0.1,0.1-0.2,0.1c-0.1,0.1-0.1,0.1-0.1,0.2c0,0.1-0.1,0.1-0.1,0.2H10.5z"/>
	<path class="st20" d="M11.9,51.9c-0.3,0-0.5-0.1-0.7-0.3c-0.2-0.2-0.3-0.4-0.3-0.6h0.4c0,0.1,0.1,0.3,0.2,0.4
		c0.1,0.1,0.3,0.1,0.4,0.1c0.2,0,0.3-0.1,0.5-0.2c0.1-0.1,0.2-0.3,0.2-0.5c0-0.2-0.1-0.3-0.2-0.5c-0.1-0.1-0.3-0.2-0.5-0.2
		c-0.3,0-0.4,0.1-0.6,0.3L11,50.5l0.3-1.6h1.4v0.4h-1.1l-0.2,0.9c0.1-0.1,0.3-0.2,0.5-0.2c0.3,0,0.5,0.1,0.7,0.3
		c0.2,0.2,0.3,0.4,0.3,0.7c0,0.3-0.1,0.5-0.3,0.7C12.4,51.8,12.2,51.9,11.9,51.9z"/>
	<path class="st20" d="M15.4,51.9c-0.3,0-0.6-0.1-0.8-0.3c-0.2-0.2-0.3-0.5-0.3-0.8v-0.8c0-0.3,0.1-0.6,0.3-0.8
		c0.2-0.2,0.5-0.3,0.8-0.3c0.3,0,0.6,0.1,0.8,0.3c0.2,0.2,0.3,0.5,0.3,0.8v0.8c0,0.3-0.1,0.6-0.3,0.8C16,51.8,15.7,51.9,15.4,51.9z
		 M15.4,51.6c0.2,0,0.4-0.1,0.5-0.2c0.1-0.1,0.2-0.3,0.2-0.6v-0.8c0-0.2-0.1-0.4-0.2-0.6c-0.1-0.1-0.3-0.2-0.5-0.2
		c-0.2,0-0.4,0.1-0.5,0.2s-0.2,0.3-0.2,0.6v0.8c0,0.2,0.1,0.4,0.2,0.6C15.1,51.5,15.2,51.6,15.4,51.6z"/>
	<path class="st20" d="M18.1,51.9c-0.3,0-0.6-0.1-0.8-0.3c-0.2-0.2-0.3-0.5-0.3-0.8v-0.8c0-0.3,0.1-0.6,0.3-0.8
		c0.2-0.2,0.5-0.3,0.8-0.3c0.3,0,0.6,0.1,0.8,0.3c0.2,0.2,0.3,0.5,0.3,0.8v0.8c0,0.3-0.1,0.6-0.3,0.8C18.6,51.8,18.4,51.9,18.1,51.9
		z M18.1,51.6c0.2,0,0.4-0.1,0.5-0.2c0.1-0.1,0.2-0.3,0.2-0.6v-0.8c0-0.2-0.1-0.4-0.2-0.6c-0.1-0.1-0.3-0.2-0.5-0.2
		c-0.2,0-0.4,0.1-0.5,0.2c-0.1,0.1-0.2,0.3-0.2,0.6v0.8c0,0.2,0.1,0.4,0.2,0.6C17.7,51.5,17.9,51.6,18.1,51.6z"/>
	<path class="st20" d="M20.7,51.9c-0.3,0-0.6-0.1-0.8-0.3c-0.2-0.2-0.3-0.5-0.3-0.8v-0.8c0-0.3,0.1-0.6,0.3-0.8
		c0.2-0.2,0.5-0.3,0.8-0.3c0.3,0,0.6,0.1,0.8,0.3c0.2,0.2,0.3,0.5,0.3,0.8v0.8c0,0.3-0.1,0.6-0.3,0.8C21.3,51.8,21,51.9,20.7,51.9z
		 M20.7,51.6c0.2,0,0.4-0.1,0.5-0.2c0.1-0.1,0.2-0.3,0.2-0.6v-0.8c0-0.2-0.1-0.4-0.2-0.6c-0.1-0.1-0.3-0.2-0.5-0.2
		c-0.2,0-0.4,0.1-0.5,0.2c-0.1,0.1-0.2,0.3-0.2,0.6v0.8c0,0.2,0.1,0.4,0.2,0.6C20.3,51.5,20.5,51.6,20.7,51.6z"/>
	<path class="st20" d="M23.7,50.2h-0.5l0.1-0.2h0.4c0.1-0.3,0.3-0.6,0.5-0.8c0.3-0.2,0.6-0.3,1-0.3c0.3,0,0.6,0.1,0.9,0.3
		c0.3,0.2,0.4,0.4,0.6,0.7h-0.4c-0.1-0.2-0.2-0.3-0.4-0.4s-0.4-0.2-0.6-0.2c-0.3,0-0.5,0.1-0.7,0.2c-0.2,0.1-0.3,0.3-0.4,0.6h1.8
		l-0.1,0.2H24c0,0.1,0,0.1,0,0.2c0,0.1,0,0.1,0,0.2h1.5l-0.1,0.2h-1.4c0.1,0.2,0.2,0.4,0.4,0.6c0.2,0.1,0.4,0.2,0.7,0.2
		c0.2,0,0.4-0.1,0.6-0.2c0.2-0.1,0.3-0.2,0.4-0.4h0.4c-0.1,0.3-0.3,0.5-0.6,0.7c-0.3,0.2-0.5,0.3-0.9,0.3c-0.4,0-0.7-0.1-1-0.3
		c-0.3-0.2-0.5-0.5-0.5-0.8h-0.5l0.1-0.2h0.4c0,0,0-0.1,0-0.2C23.6,50.3,23.6,50.2,23.7,50.2z"/>
</g>
<g class="st19">
	<path class="st20" d="M6.3,56.6v-0.8h0.9v-0.9h0.8v0.9h0.9v0.8H7.9v0.9H7.1v-0.9H6.3z"/>
	<path class="st20" d="M12.2,57v0.9h-3v-0.3c0-0.1,0-0.2,0-0.3c0-0.1,0.1-0.2,0.1-0.3c0-0.1,0.1-0.2,0.2-0.3
		c0.1-0.1,0.1-0.2,0.2-0.2c0-0.1,0.1-0.1,0.2-0.2c0.1-0.1,0.2-0.1,0.2-0.2c0.1,0,0.1-0.1,0.2-0.2c0.1-0.1,0.2-0.1,0.2-0.2
		c0.4-0.3,0.6-0.6,0.6-0.8c0-0.1,0-0.3-0.1-0.4c-0.1-0.1-0.2-0.1-0.4-0.1c-0.2,0-0.3,0.1-0.4,0.2c-0.1,0.1-0.2,0.2-0.2,0.4H9.3
		c0-0.4,0.1-0.8,0.4-1c0.3-0.3,0.7-0.4,1.1-0.4c0.4,0,0.7,0.1,1,0.4c0.3,0.2,0.4,0.6,0.4,1c0,0.2,0,0.5-0.1,0.7
		c-0.1,0.2-0.2,0.3-0.3,0.5c-0.1,0.1-0.3,0.2-0.5,0.4c0,0-0.1,0.1-0.2,0.2c-0.2,0.1-0.3,0.2-0.3,0.3c-0.1,0.1-0.1,0.1-0.2,0.2H12.2z
		"/>
	<path class="st20" d="M14.2,58c-0.4,0-0.8-0.1-1.1-0.4c-0.3-0.3-0.5-0.6-0.5-1h0.9c0,0.1,0.1,0.2,0.2,0.3c0.1,0.1,0.2,0.1,0.4,0.1
		c0.2,0,0.3-0.1,0.4-0.2c0.1-0.1,0.2-0.3,0.2-0.4c0-0.2-0.1-0.3-0.2-0.4c-0.1-0.1-0.3-0.2-0.4-0.2c-0.2,0-0.3,0-0.4,0.1
		c-0.1,0.1-0.2,0.2-0.2,0.3l-0.8-0.2l0.5-2.5h2.1v0.9H14l-0.1,0.7c0.1-0.1,0.3-0.1,0.5-0.1c0.4,0,0.7,0.1,1,0.4
		c0.2,0.3,0.4,0.6,0.4,1.1c0,0.4-0.1,0.8-0.4,1S14.7,58,14.2,58z"/>
	<path class="st20" d="M17.3,56c-0.3,0-0.6-0.1-0.8-0.3s-0.3-0.5-0.3-0.8c0-0.3,0.1-0.6,0.3-0.8c0.2-0.2,0.5-0.3,0.8-0.3
		c0.3,0,0.6,0.1,0.8,0.3c0.2,0.2,0.4,0.5,0.4,0.8c0,0.3-0.1,0.6-0.4,0.8S17.6,56,17.3,56z M17.3,55.2c0.1,0,0.2,0,0.3-0.1
		c0.1-0.1,0.1-0.2,0.1-0.3s0-0.2-0.1-0.3c-0.1-0.1-0.2-0.1-0.3-0.1c-0.1,0-0.2,0-0.3,0.1c-0.1,0.1-0.1,0.2-0.1,0.3s0,0.2,0.1,0.3
		C17.1,55.2,17.2,55.2,17.3,55.2z M18,57.9h-0.9l2.7-4.3h0.9L18,57.9z M20.5,58c-0.3,0-0.6-0.1-0.8-0.4c-0.2-0.2-0.3-0.5-0.3-0.8
		c0-0.3,0.1-0.6,0.3-0.8c0.2-0.2,0.5-0.3,0.8-0.3c0.3,0,0.6,0.1,0.8,0.3c0.2,0.2,0.4,0.5,0.4,0.8c0,0.3-0.1,0.6-0.4,0.8
		S20.8,58,20.5,58z M20.2,57.1c0.1,0.1,0.2,0.1,0.3,0.1s0.2,0,0.3-0.1c0.1-0.1,0.1-0.2,0.1-0.3c0-0.1,0-0.2-0.1-0.3
		c-0.1-0.1-0.2-0.1-0.3-0.1s-0.2,0-0.3,0.1c-0.1,0.1-0.1,0.2-0.1,0.3C20.1,56.9,20.1,57,20.2,57.1z"/>
</g>
<g class="st19">
	<path class="st20" d="M101.4,156.7v-3.4h0.7v2.8h1.5v0.7H101.4z"/>
	<path class="st20" d="M106,156.4c-0.2,0.2-0.5,0.4-0.9,0.4c-0.4,0-0.7-0.1-0.9-0.4c-0.2-0.2-0.4-0.5-0.4-0.9c0-0.4,0.1-0.6,0.4-0.9
		c0.2-0.2,0.5-0.4,0.9-0.4c0.4,0,0.7,0.1,0.9,0.4c0.2,0.2,0.4,0.5,0.4,0.9C106.4,155.9,106.2,156.2,106,156.4z M105.1,156.2
		c0.2,0,0.3-0.1,0.4-0.2c0.1-0.1,0.2-0.3,0.2-0.5c0-0.2-0.1-0.3-0.2-0.5c-0.1-0.1-0.3-0.2-0.4-0.2c-0.2,0-0.3,0.1-0.4,0.2
		c-0.1,0.1-0.2,0.3-0.2,0.5c0,0.2,0.1,0.3,0.2,0.5C104.8,156.1,104.9,156.2,105.1,156.2z"/>
	<path class="st20" d="M108,156.7c-0.3,0-0.5-0.1-0.7-0.2c-0.2-0.1-0.3-0.4-0.3-0.6v-1h-0.5v-0.6h0.5v-0.7h0.7v0.7h0.7v0.6h-0.7v0.9
		c0,0.1,0,0.3,0.1,0.3s0.2,0.1,0.3,0.1c0.1,0,0.2,0,0.3,0v0.6C108.3,156.7,108.1,156.7,108,156.7z"/>
	<path class="st20" d="M109.2,153.9c-0.1,0-0.2,0-0.3-0.1c-0.1-0.1-0.1-0.2-0.1-0.3c0-0.1,0-0.2,0.1-0.3c0.1-0.1,0.2-0.1,0.3-0.1
		c0.1,0,0.2,0,0.3,0.1c0.1,0.1,0.1,0.2,0.1,0.3c0,0.1,0,0.2-0.1,0.3C109.4,153.9,109.3,153.9,109.2,153.9z M108.9,156.7v-2.4h0.7
		v2.4H108.9z"/>
	<path class="st20" d="M111,156.8c-0.5,0-0.8-0.2-1-0.5l0.5-0.4c0.1,0.2,0.3,0.3,0.5,0.3c0.1,0,0.1,0,0.2,0c0.1,0,0.1-0.1,0.1-0.1
		c0-0.1,0-0.1-0.1-0.1c0,0-0.1-0.1-0.3-0.1l-0.2,0c-0.2-0.1-0.4-0.2-0.5-0.3c-0.1-0.1-0.2-0.3-0.2-0.5c0-0.2,0.1-0.4,0.3-0.5
		c0.2-0.1,0.4-0.2,0.6-0.2c0.4,0,0.6,0.1,0.8,0.4l-0.4,0.4c-0.1-0.1-0.2-0.2-0.4-0.2c-0.1,0-0.1,0-0.2,0c0,0-0.1,0.1-0.1,0.1
		c0,0.1,0.1,0.2,0.2,0.2l0.2,0.1c0.5,0.1,0.7,0.4,0.7,0.7c0,0.2-0.1,0.4-0.3,0.6C111.4,156.7,111.2,156.8,111,156.8z"/>
	<path class="st20" d="M113.2,156.8c-0.5,0-0.8-0.2-1-0.5l0.5-0.4c0.1,0.2,0.3,0.3,0.5,0.3c0.1,0,0.1,0,0.2,0c0.1,0,0.1-0.1,0.1-0.1
		c0-0.1,0-0.1-0.1-0.1c0,0-0.1-0.1-0.3-0.1l-0.2,0c-0.2-0.1-0.4-0.2-0.5-0.3c-0.1-0.1-0.2-0.3-0.2-0.5c0-0.2,0.1-0.4,0.3-0.5
		c0.2-0.1,0.4-0.2,0.6-0.2c0.4,0,0.6,0.1,0.8,0.4l-0.4,0.4c-0.1-0.1-0.2-0.2-0.4-0.2c-0.1,0-0.1,0-0.2,0c0,0-0.1,0.1-0.1,0.1
		c0,0.1,0.1,0.2,0.2,0.2l0.2,0.1c0.5,0.1,0.7,0.4,0.7,0.7c0,0.2-0.1,0.4-0.3,0.6C113.7,156.7,113.4,156.8,113.2,156.8z"/>
	<path class="st20" d="M115.7,156.8c-0.4,0-0.7-0.1-0.9-0.3c-0.2-0.2-0.4-0.5-0.4-0.9c0-0.4,0.1-0.7,0.4-0.9
		c0.2-0.2,0.5-0.4,0.9-0.4c0.3,0,0.6,0.1,0.8,0.3c0.2,0.2,0.3,0.5,0.3,0.9c0,0.1,0,0.2,0,0.2h-1.8c0,0.2,0.1,0.3,0.2,0.4
		c0.1,0.1,0.3,0.1,0.4,0.1c0.3,0,0.5-0.1,0.6-0.3l0.5,0.4C116.6,156.6,116.2,156.8,115.7,156.8z M115.1,155.2h1.1
		c0-0.1-0.1-0.2-0.2-0.3c-0.1-0.1-0.2-0.1-0.4-0.1c-0.1,0-0.3,0-0.4,0.1C115.2,155,115.1,155.1,115.1,155.2z"/>
	<path class="st20" d="M120.4,156.7v-1.3c0-0.4-0.1-0.6-0.4-0.6c-0.1,0-0.3,0.1-0.3,0.2c-0.1,0.1-0.1,0.3-0.1,0.5v1.2h-0.7v-1.3
		c0-0.4-0.1-0.6-0.4-0.6c-0.1,0-0.3,0.1-0.4,0.2c-0.1,0.1-0.1,0.3-0.1,0.5v1.2h-0.7v-2.4h0.7v0.3c0.2-0.2,0.4-0.3,0.6-0.3
		c0.3,0,0.6,0.1,0.7,0.4c0.1-0.1,0.2-0.2,0.3-0.3c0.1-0.1,0.3-0.1,0.4-0.1c0.3,0,0.5,0.1,0.7,0.3c0.2,0.2,0.2,0.5,0.2,0.8v1.4H120.4
		z"/>
	<path class="st20" d="M122.8,156.8c-0.4,0-0.7-0.1-0.9-0.3c-0.2-0.2-0.4-0.5-0.4-0.9c0-0.4,0.1-0.7,0.4-0.9
		c0.2-0.2,0.5-0.4,0.9-0.4c0.3,0,0.6,0.1,0.8,0.3c0.2,0.2,0.3,0.5,0.3,0.9c0,0.1,0,0.2,0,0.2h-1.8c0,0.2,0.1,0.3,0.2,0.4
		c0.1,0.1,0.3,0.1,0.4,0.1c0.3,0,0.5-0.1,0.6-0.3l0.5,0.4C123.7,156.6,123.3,156.8,122.8,156.8z M122.2,155.2h1.1
		c0-0.1-0.1-0.2-0.2-0.3c-0.1-0.1-0.2-0.1-0.4-0.1c-0.1,0-0.3,0-0.4,0.1C122.3,155,122.2,155.1,122.2,155.2z"/>
	<path class="st20" d="M124.5,156.7v-2.4h0.7v0.3c0.1-0.2,0.4-0.3,0.7-0.3c0.3,0,0.5,0.1,0.7,0.3c0.2,0.2,0.2,0.4,0.2,0.8v1.4h-0.7
		v-1.3c0-0.2,0-0.3-0.1-0.4c-0.1-0.1-0.2-0.1-0.3-0.1c-0.2,0-0.3,0.1-0.4,0.2c-0.1,0.1-0.1,0.3-0.1,0.5v1.2H124.5z"/>
	<path class="st20" d="M128.5,156.7c-0.3,0-0.5-0.1-0.7-0.2c-0.2-0.1-0.3-0.4-0.3-0.6v-1h-0.5v-0.6h0.5v-0.7h0.7v0.7h0.7v0.6h-0.7
		v0.9c0,0.1,0,0.3,0.1,0.3c0.1,0.1,0.2,0.1,0.3,0.1c0.1,0,0.2,0,0.3,0v0.6C128.8,156.7,128.7,156.7,128.5,156.7z"/>
	<path class="st20" d="M132.5,156.5c-0.2,0.2-0.5,0.3-0.9,0.3c-0.3,0-0.6-0.1-0.9-0.3c-0.2-0.2-0.3-0.5-0.3-0.8
		c0-0.4,0.1-0.6,0.4-0.8c-0.2-0.2-0.3-0.4-0.3-0.7c0-0.3,0.1-0.5,0.3-0.7c0.2-0.2,0.5-0.3,0.8-0.3c0.3,0,0.6,0.1,0.8,0.3
		c0.2,0.2,0.3,0.4,0.3,0.7c0,0.3-0.1,0.5-0.3,0.7c0.3,0.2,0.4,0.5,0.4,0.8C132.8,156,132.7,156.2,132.5,156.5z M131.6,156.2
		c0.2,0,0.3,0,0.4-0.1c0.1-0.1,0.1-0.2,0.1-0.4c0-0.1,0-0.3-0.1-0.4c-0.1-0.1-0.2-0.1-0.4-0.1c-0.2,0-0.3,0-0.4,0.1
		c-0.1,0.1-0.1,0.2-0.1,0.4c0,0.1,0,0.3,0.1,0.4C131.3,156.1,131.4,156.2,131.6,156.2z M131.3,154.5c0.1,0.1,0.2,0.1,0.3,0.1
		c0.1,0,0.2,0,0.3-0.1c0.1-0.1,0.1-0.2,0.1-0.3c0-0.1,0-0.2-0.1-0.3c-0.1-0.1-0.2-0.1-0.3-0.1c-0.1,0-0.2,0-0.3,0.1
		c-0.1,0.1-0.1,0.2-0.1,0.3C131.2,154.3,131.2,154.4,131.3,154.5z"/>
	<path class="st20" d="M134.5,156.7v-3.6h0.7v3.6H134.5z"/>
	<path class="st20" d="M137.8,156.4c-0.2,0.2-0.5,0.4-0.9,0.4c-0.4,0-0.7-0.1-0.9-0.4c-0.2-0.2-0.4-0.5-0.4-0.9
		c0-0.4,0.1-0.6,0.4-0.9c0.2-0.2,0.5-0.4,0.9-0.4c0.4,0,0.7,0.1,0.9,0.4c0.2,0.2,0.4,0.5,0.4,0.9C138.1,155.9,138,156.2,137.8,156.4
		z M136.9,156.2c0.2,0,0.3-0.1,0.4-0.2c0.1-0.1,0.2-0.3,0.2-0.5c0-0.2-0.1-0.3-0.2-0.5c-0.1-0.1-0.3-0.2-0.4-0.2
		c-0.2,0-0.3,0.1-0.4,0.2c-0.1,0.1-0.2,0.3-0.2,0.5c0,0.2,0.1,0.3,0.2,0.5C136.5,156.1,136.7,156.2,136.9,156.2z"/>
	<path class="st20" d="M139.7,156.7c-0.3,0-0.5-0.1-0.7-0.2c-0.2-0.1-0.3-0.4-0.3-0.6v-1h-0.5v-0.6h0.5v-0.7h0.7v0.7h0.7v0.6h-0.7
		v0.9c0,0.1,0,0.3,0.1,0.3c0.1,0.1,0.2,0.1,0.3,0.1c0.1,0,0.2,0,0.3,0v0.6C140,156.7,139.9,156.7,139.7,156.7z"/>
	<path class="st20" d="M141.4,156.8c-0.5,0-0.8-0.2-1-0.5l0.5-0.4c0.1,0.2,0.3,0.3,0.5,0.3c0.1,0,0.1,0,0.2,0c0.1,0,0.1-0.1,0.1-0.1
		c0-0.1,0-0.1-0.1-0.1c0,0-0.1-0.1-0.3-0.1l-0.2,0c-0.2-0.1-0.4-0.2-0.5-0.3c-0.1-0.1-0.2-0.3-0.2-0.5c0-0.2,0.1-0.4,0.3-0.5
		c0.2-0.1,0.4-0.2,0.6-0.2c0.4,0,0.6,0.1,0.8,0.4l-0.4,0.4c-0.1-0.1-0.2-0.2-0.4-0.2c-0.1,0-0.1,0-0.2,0c0,0-0.1,0.1-0.1,0.1
		c0,0.1,0.1,0.2,0.2,0.2l0.2,0.1c0.5,0.1,0.7,0.4,0.7,0.7c0,0.2-0.1,0.4-0.3,0.6C141.9,156.7,141.7,156.8,141.4,156.8z"/>
</g>
<g class="st19">
	<path class="st20" d="M101.7,162.8h-0.4l1.4-2.6h-1.5v-0.4h2v0.3L101.7,162.8z"/>
	<path class="st20" d="M104.4,162.8c-0.3,0-0.5-0.1-0.7-0.3c-0.2-0.2-0.3-0.4-0.3-0.7c0-0.4,0.2-0.6,0.5-0.8
		c-0.2-0.1-0.3-0.3-0.3-0.6c0-0.2,0.1-0.4,0.2-0.6c0.2-0.1,0.4-0.2,0.6-0.2c0.2,0,0.5,0.1,0.6,0.2c0.2,0.1,0.2,0.3,0.2,0.6
		c0,0.3-0.1,0.5-0.3,0.6c0.3,0.2,0.5,0.4,0.5,0.8c0,0.3-0.1,0.5-0.3,0.7C104.9,162.7,104.7,162.8,104.4,162.8z M104.4,162.5
		c0.2,0,0.4-0.1,0.5-0.2c0.1-0.1,0.2-0.3,0.2-0.4c0-0.2-0.1-0.3-0.2-0.4c-0.1-0.1-0.3-0.2-0.5-0.2c-0.2,0-0.3,0.1-0.5,0.2
		c-0.1,0.1-0.2,0.3-0.2,0.4c0,0.2,0.1,0.3,0.2,0.4C104,162.4,104.2,162.5,104.4,162.5z M104.4,160.9c0.1,0,0.3,0,0.4-0.1
		c0.1-0.1,0.1-0.2,0.1-0.3c0-0.1,0-0.2-0.1-0.3c-0.1-0.1-0.2-0.1-0.4-0.1c-0.1,0-0.3,0-0.4,0.1s-0.1,0.2-0.1,0.3
		c0,0.1,0,0.2,0.1,0.3C104.1,160.9,104.2,160.9,104.4,160.9z"/>
	<path class="st20" d="M106.9,162.8c-0.3,0-0.6-0.1-0.8-0.3c-0.2-0.2-0.3-0.5-0.3-0.8v-0.8c0-0.3,0.1-0.6,0.3-0.8
		c0.2-0.2,0.5-0.3,0.8-0.3c0.3,0,0.6,0.1,0.8,0.3c0.2,0.2,0.3,0.5,0.3,0.8v0.8c0,0.3-0.1,0.6-0.3,0.8
		C107.5,162.7,107.2,162.8,106.9,162.8z M106.9,162.4c0.2,0,0.4-0.1,0.5-0.2c0.1-0.1,0.2-0.3,0.2-0.6v-0.8c0-0.2-0.1-0.4-0.2-0.6
		c-0.1-0.1-0.3-0.2-0.5-0.2c-0.2,0-0.4,0.1-0.5,0.2s-0.2,0.3-0.2,0.6v0.8c0,0.2,0.1,0.4,0.2,0.6
		C106.5,162.4,106.7,162.4,106.9,162.4z"/>
	<path class="st20" d="M110.6,162.8c-0.3,0-0.6-0.1-0.8-0.3c-0.2-0.2-0.3-0.5-0.3-0.8v-0.8c0-0.3,0.1-0.6,0.3-0.8
		c0.2-0.2,0.5-0.3,0.8-0.3c0.3,0,0.6,0.1,0.8,0.3c0.2,0.2,0.3,0.5,0.3,0.8v0.8c0,0.3-0.1,0.6-0.3,0.8
		C111.1,162.7,110.9,162.8,110.6,162.8z M110.6,162.4c0.2,0,0.4-0.1,0.5-0.2c0.1-0.1,0.2-0.3,0.2-0.6v-0.8c0-0.2-0.1-0.4-0.2-0.6
		c-0.1-0.1-0.3-0.2-0.5-0.2c-0.2,0-0.4,0.1-0.5,0.2c-0.1,0.1-0.2,0.3-0.2,0.6v0.8c0,0.2,0.1,0.4,0.2,0.6
		C110.2,162.4,110.4,162.4,110.6,162.4z"/>
	<path class="st20" d="M113.2,162.8c-0.3,0-0.6-0.1-0.8-0.3c-0.2-0.2-0.3-0.5-0.3-0.8v-0.8c0-0.3,0.1-0.6,0.3-0.8
		c0.2-0.2,0.5-0.3,0.8-0.3c0.3,0,0.6,0.1,0.8,0.3c0.2,0.2,0.3,0.5,0.3,0.8v0.8c0,0.3-0.1,0.6-0.3,0.8
		C113.8,162.7,113.5,162.8,113.2,162.8z M113.2,162.4c0.2,0,0.4-0.1,0.5-0.2c0.1-0.1,0.2-0.3,0.2-0.6v-0.8c0-0.2-0.1-0.4-0.2-0.6
		c-0.1-0.1-0.3-0.2-0.5-0.2c-0.2,0-0.4,0.1-0.5,0.2c-0.1,0.1-0.2,0.3-0.2,0.6v0.8c0,0.2,0.1,0.4,0.2,0.6
		C112.8,162.4,113,162.4,113.2,162.4z"/>
	<path class="st20" d="M115.8,162.8c-0.3,0-0.6-0.1-0.8-0.3c-0.2-0.2-0.3-0.5-0.3-0.8v-0.8c0-0.3,0.1-0.6,0.3-0.8
		c0.2-0.2,0.5-0.3,0.8-0.3s0.6,0.1,0.8,0.3c0.2,0.2,0.3,0.5,0.3,0.8v0.8c0,0.3-0.1,0.6-0.3,0.8C116.4,162.7,116.1,162.8,115.8,162.8
		z M115.8,162.4c0.2,0,0.4-0.1,0.5-0.2c0.1-0.1,0.2-0.3,0.2-0.6v-0.8c0-0.2-0.1-0.4-0.2-0.6c-0.1-0.1-0.3-0.2-0.5-0.2
		c-0.2,0-0.4,0.1-0.5,0.2c-0.1,0.1-0.2,0.3-0.2,0.6v0.8c0,0.2,0.1,0.4,0.2,0.6C115.5,162.4,115.6,162.4,115.8,162.4z"/>
	<path class="st20" d="M117.8,161h-0.5l0.1-0.2h0.4c0.1-0.3,0.3-0.6,0.5-0.8c0.3-0.2,0.6-0.3,1-0.3c0.3,0,0.6,0.1,0.9,0.3
		c0.3,0.2,0.4,0.4,0.6,0.7h-0.4c-0.1-0.2-0.2-0.3-0.4-0.4c-0.2-0.1-0.4-0.2-0.6-0.2c-0.3,0-0.5,0.1-0.7,0.2s-0.3,0.3-0.4,0.6h1.8
		l-0.1,0.2h-1.7c0,0.1,0,0.1,0,0.2c0,0.1,0,0.1,0,0.2h1.5l-0.1,0.2h-1.4c0.1,0.2,0.2,0.4,0.4,0.6c0.2,0.1,0.4,0.2,0.7,0.2
		c0.2,0,0.4-0.1,0.6-0.2s0.3-0.2,0.4-0.4h0.4c-0.1,0.3-0.3,0.5-0.6,0.7c-0.3,0.2-0.5,0.3-0.9,0.3c-0.4,0-0.7-0.1-1-0.3
		c-0.3-0.2-0.5-0.5-0.5-0.8h-0.5l0.1-0.2h0.4c0,0,0-0.1,0-0.2C117.8,161.2,117.8,161.1,117.8,161z"/>
</g>
<g class="st19">
	<path class="st20" d="M101.3,167.4v-0.8h0.9v-0.9h0.8v0.9h0.9v0.8h-0.9v0.9h-0.8v-0.9H101.3z"/>
	<path class="st20" d="M104.8,168.8v-3.4h-0.9l0.7-0.9h1.2v4.3H104.8z"/>
	<path class="st20" d="M107.9,168.9c-0.4,0-0.8-0.1-1.1-0.4c-0.3-0.3-0.4-0.6-0.4-1c0-0.5,0.2-0.8,0.5-1c-0.2-0.2-0.3-0.5-0.3-0.9
		c0-0.3,0.1-0.6,0.4-0.8s0.6-0.3,1-0.3c0.4,0,0.7,0.1,1,0.3c0.3,0.2,0.4,0.5,0.4,0.8c0,0.3-0.1,0.6-0.4,0.9c0.3,0.2,0.5,0.6,0.5,1
		c0,0.4-0.1,0.7-0.4,1C108.7,168.7,108.4,168.9,107.9,168.9z M107.9,168c0.2,0,0.3-0.1,0.4-0.2c0.1-0.1,0.2-0.2,0.2-0.4
		s-0.1-0.3-0.2-0.4c-0.1-0.1-0.3-0.2-0.4-0.2c-0.2,0-0.3,0.1-0.4,0.2c-0.1,0.1-0.2,0.2-0.2,0.4s0.1,0.3,0.2,0.4
		C107.6,168,107.7,168,107.9,168z M107.6,166c0.1,0.1,0.2,0.1,0.4,0.1c0.1,0,0.3,0,0.4-0.1c0.1-0.1,0.1-0.2,0.1-0.3
		c0-0.1,0-0.2-0.1-0.3c-0.1-0.1-0.2-0.1-0.4-0.1c-0.1,0-0.3,0-0.4,0.1c-0.1,0.1-0.1,0.2-0.1,0.3C107.4,165.8,107.5,165.9,107.6,166z
		"/>
	<path class="st20" d="M111.1,166.8c-0.3,0-0.6-0.1-0.8-0.3s-0.3-0.5-0.3-0.8c0-0.3,0.1-0.6,0.3-0.8s0.5-0.3,0.8-0.3
		c0.3,0,0.6,0.1,0.8,0.3c0.2,0.2,0.4,0.5,0.4,0.8c0,0.3-0.1,0.6-0.4,0.8C111.7,166.7,111.4,166.8,111.1,166.8z M111.1,166.1
		c0.1,0,0.2,0,0.3-0.1c0.1-0.1,0.1-0.2,0.1-0.3c0-0.1,0-0.2-0.1-0.3c-0.1-0.1-0.2-0.1-0.3-0.1c-0.1,0-0.2,0-0.3,0.1
		c-0.1,0.1-0.1,0.2-0.1,0.3s0,0.2,0.1,0.3C110.8,166,110.9,166.1,111.1,166.1z M111.8,168.8h-0.9l2.7-4.3h0.9L111.8,168.8z
		 M114.2,168.8c-0.3,0-0.6-0.1-0.8-0.4s-0.3-0.5-0.3-0.8c0-0.3,0.1-0.6,0.3-0.8c0.2-0.2,0.5-0.3,0.8-0.3c0.3,0,0.6,0.1,0.8,0.3
		c0.2,0.2,0.4,0.5,0.4,0.8c0,0.3-0.1,0.6-0.4,0.8C114.9,168.7,114.6,168.8,114.2,168.8z M114,168c0.1,0.1,0.2,0.1,0.3,0.1
		s0.2,0,0.3-0.1c0.1-0.1,0.1-0.2,0.1-0.3c0-0.1,0-0.2-0.1-0.3c-0.1-0.1-0.2-0.1-0.3-0.1s-0.2,0-0.3,0.1c-0.1,0.1-0.1,0.2-0.1,0.3
		C113.8,167.8,113.9,167.9,114,168z"/>
</g>
</svg>
