<?xml version="1.0" encoding="utf-8"?>
<!-- Generator: Adobe Illustrator 24.3.0, SVG Export Plug-In . SVG Version: 6.00 Build 0)  -->
<svg version="1.1" id="Calque_1" xmlns="http://www.w3.org/2000/svg" xmlns:xlink="http://www.w3.org/1999/xlink" x="0px" y="0px"
	 viewBox="0 0 591 491.8" style="enable-background:new 0 0 591 491.8;" xml:space="preserve">
<style type="text/css">
	.st0{opacity:0.2;fill:#424444;enable-background:new    ;}
	.st1{fill:none;stroke:#FFE905;stroke-width:3;stroke-linecap:round;}
	.st2{fill:#0C7B79;}
	.st3{fill:#07A4A4;}
	.st4{fill:#20B4B1;}
	.st5{fill:none;stroke:#FFE905;stroke-width:3;stroke-linecap:round;stroke-linejoin:round;stroke-miterlimit:10;}
	.st6{opacity:0.4;}
	.st7{fill:#0E0D0C;}
	.st8{clip-path:url(#SVGID_2_);}
	.st9{opacity:0.1;fill:#FFFFFF;enable-background:new    ;}
	.st10{fill:#FFFFFF;}
	.st11{fill:#FFE905;}
	.st12{fill:#161615;}
	.st13{fill:#424444;}
	.st14{opacity:0.7;fill:#FEED53;enable-background:new    ;}
	.st15{opacity:0.5;fill:#FEED53;enable-background:new    ;}
	.st16{fill:#FEED53;}
	.st17{opacity:0.8;fill:#FEED53;enable-background:new    ;}
	.st18{fill:#010202;}
	.st19{opacity:0.8;}
	.st20{opacity:0.8;fill:#FFFFFF;stroke:#424444;enable-background:new    ;}
	.st21{fill:#55AF31;}
	.st22{opacity:0.5;}
	.st23{opacity:0.7;}
	.st24{opacity:0.5;fill:#FFFFFF;stroke:#424444;enable-background:new    ;}
	.st25{fill:#A7C720;}
	.st26{opacity:0.2;fill:#FFFFFF;stroke:#424444;enable-background:new    ;}
	.st27{opacity:0.2;}
	.st28{opacity:0.3;}
	.st29{fill:#E5E024;}
	.st30{opacity:0.1;fill:#FFFFFF;stroke:#424444;enable-background:new    ;}
	.st31{opacity:0.1;}
	.st32{fill:#FBBA0E;}
	.st33{opacity:0.6;fill:url(#Tracé_9585-2_1_);enable-background:new    ;}
</style>
<g id="Groupe_4466" transform="translate(-880 -73.423)">
	<path id="Tracé_9669" class="st0" d="M1172.1,468.7l-116.4-67.2l116.4-67.2l116.4,67.2L1172.1,468.7z"/>
	<line id="Ligne_52" class="st1" x1="978.5" y1="264.1" x2="1120.7" y2="346.2"/>
	<path id="Tracé_9583" class="st2" d="M1169.6,454.8L1053,387.5v-16.4l116.6,67.3V454.8z"/>
	<path id="Tracé_9584" class="st3" d="M1169.5,454.8l116.6-67.3v-16.4l-116.6,67.3V454.8z"/>
	<path id="Tracé_9585" class="st4" d="M1169.7,438.3l-116.4-67.2l116.4-67.2l116.4,67.2L1169.7,438.3z"/>
	<line id="Ligne_51" class="st1" x1="1227.8" y1="413.6" x2="1370" y2="495.7"/>
	<path id="Tracé_9588" class="st5" d="M1199.1,536.5c0,0-130.1-75.3-137.3-79.3c-3.9-2.2-5.5-10.7,0-13.9
		c6.5-3.9,48.9-28.1,48.9-28.1"/>
	<g id="Groupe_4403" transform="translate(1090.244 392.78)">
		<path id="Tracé_9589" class="st2" d="M68.4,22.6L55.1,5.9L58.5,4l29,7.6l-3.9,2.3L77,12.1l-7.8,4.5l3.1,3.8L68.4,22.6z M62.5,8.2
			l4.3,5.4l5-2.9L62.5,8.2z"/>
		<path id="Tracé_9590" class="st2" d="M63,25.7L41.8,13.5l3.7-2.2l21.1,12.2L63,25.7z"/>
	</g>
	<g id="Groupe_25" transform="translate(1118.935 388.526)" class="st6">
		<g id="Groupe_19" transform="translate(0 25.447)">
			<path id="Rectangle_6" class="st7" d="M43.7,5.3l0.4-0.2c2.8-1.6,7.6-1.4,10.8,0.4l0.5,0.3c3.2,1.8,3.5,4.6,0.8,6.2l-0.4,0.2
				c-2.8,1.6-7.6,1.4-10.8-0.4l-0.5-0.3C41.3,9.7,40.9,6.9,43.7,5.3z"/>
			<g id="Groupe_18">
				<g id="Groupe_4405">
					<g>
						<defs>
							<path id="SVGID_1_" d="M43.7,5.3l0.4-0.2c2.8-1.6,7.6-1.4,10.8,0.4l0.5,0.3c3.2,1.8,3.5,4.6,0.8,6.2l-0.4,0.2
								c-2.8,1.6-7.6,1.4-10.8-0.4l-0.5-0.3C41.3,9.7,40.9,6.9,43.7,5.3z"/>
						</defs>
						<clipPath id="SVGID_2_">
							<use xlink:href="#SVGID_1_"  style="overflow:visible;"/>
						</clipPath>
						<g id="Groupe_4404" class="st8">
							<g id="Groupe_17" transform="translate(-16.927 -14.219)">
								
									<ellipse id="Ellipse_3" transform="matrix(0.9999 -1.129204e-02 1.129204e-02 0.9999 -0.1645 0.6846)" class="st9" cx="60.5" cy="14.9" rx="18.6" ry="10.7"/>
							</g>
						</g>
					</g>
				</g>
			</g>
		</g>
		<g id="Groupe_22" transform="translate(2.846 27.09)">
			<g id="Groupe_20">
				<path id="Tracé_64" class="st10" d="M42.4,6.5c-0.3,0-0.6,0.1-0.6,0.3s0.3,0.4,0.7,0.4l9.3,0.4c0.3,0,0.6-0.1,0.6-0.3
					s-0.3-0.4-0.7-0.4L42.4,6.5z"/>
				<path id="Tracé_65" class="st10" d="M47.2,4.1c-0.3-0.2-0.6-0.2-0.9,0c-0.1,0-0.2,0.1-0.2,0.2l0.7,5.4c0,0.2,0.3,0.4,0.7,0.4
					c0.3,0,0.6-0.1,0.6-0.3l-0.7-5.4C47.4,4.2,47.3,4.2,47.2,4.1z"/>
			</g>
			<g id="Groupe_21" transform="translate(1.066 0.615)">
				<path id="Tracé_66" class="st11" d="M42,4.1c-0.3,0.2-0.3,0.5,0.1,0.7c0.4,0.2,0.8,0.2,1.2,0c0.3-0.2,0.3-0.5-0.1-0.7l0,0
					C42.8,3.9,42.4,3.9,42,4.1z"/>
				<path id="Tracé_67" class="st11" d="M48.7,7.9c-0.3,0.2-0.3,0.5,0.1,0.7c0.4,0.2,0.8,0.2,1.2,0c0.3-0.2,0.3-0.5-0.1-0.7
					C49.5,7.8,49.1,7.8,48.7,7.9z"/>
				<path id="Tracé_68" class="st11" d="M48.6,4.3l-6.1,3.5c-0.2,0.1-0.2,0.4,0.1,0.5c0.3,0.1,0.6,0.2,0.9,0l6.1-3.5
					c0.2-0.1,0.2-0.4-0.1-0.5C49.2,4.2,48.9,4.2,48.6,4.3z"/>
			</g>
		</g>
		<g id="Groupe_23" transform="translate(13.542)">
			<path id="Tracé_69" class="st12" d="M43.6,27.4l2.9,1.7c0.2,0.1,0.4,0.3,0.4,0.5c0,0.2-0.1,0.4-0.3,0.5c-0.1,0-0.2,0.1-0.2,0.1
				l-0.5-0.3c0,0,0.1,0,0.1-0.1c0.2-0.1,0.2-0.3-0.1-0.5l-2.8-1.6L43.6,27.4z M42.7,27.2c-0.1,0.1-0.2,0.1-0.4,0.1
				c-0.1,0-0.3,0-0.4-0.1c-0.1,0-0.2-0.1-0.2-0.2c0-0.1,0-0.2,0.1-0.2c0.1-0.1,0.2-0.1,0.4-0.1c0.1,0,0.3,0,0.4,0.1
				c0.1,0,0.2,0.1,0.2,0.2C42.9,27.1,42.8,27.1,42.7,27.2L42.7,27.2z"/>
			<path id="Tracé_70" class="st12" d="M48.1,27.9c-0.4,0.2-0.8,0.3-1.2,0.3c-0.5,0-0.9-0.1-1.3-0.4c-0.8-0.4-0.9-1.1-0.2-1.5
				l0.1,0c0.7-0.4,1.6-0.3,2.3,0c0.1,0,0.1,0.1,0.1,0.1c0.1,0,0.1,0.1,0.2,0.1l-1.8,1c0.2,0.1,0.5,0.2,0.7,0.2c0.7,0,1.1-0.3,1-0.7
				c0,0,0,0,0-0.1l0.7,0C48.7,27.3,48.5,27.7,48.1,27.9z M45.7,27.3l1.3-0.7c-0.2-0.1-0.4-0.1-0.6-0.1c-0.2,0-0.4,0-0.6,0.1
				c-0.1,0.1-0.2,0.2-0.3,0.3C45.5,27.1,45.6,27.2,45.7,27.3L45.7,27.3z"/>
			<path id="Tracé_71" class="st12" d="M50.7,26.3c-0.4,0.2-0.8,0.3-1.2,0.2c-1-0.1-1.8-0.6-2-1.1c0-0.3,0.1-0.6,0.4-0.7
				c0.2-0.1,0.4-0.2,0.6-0.2c0.2,0,0.4,0,0.6,0l-1.7-1l0.5-0.3l4,2.3l-0.5,0.3l-0.4-0.2c0,0.1,0,0.2,0,0.3
				C51,26.2,50.9,26.3,50.7,26.3z M49.6,26.1c0.6,0,1-0.2,1-0.5c0,0,0,0,0,0c-0.1-0.3-0.6-0.6-1.2-0.7c-0.6,0-1,0.2-1,0.5
				c0,0,0,0,0,0C48.5,25.8,49,26.1,49.6,26.1L49.6,26.1z"/>
			<path id="Tracé_72" class="st12" d="M49.7,23.1c-0.1,0.1-0.2,0.1-0.4,0.1c-0.1,0-0.3,0-0.4-0.1c-0.1,0-0.2-0.1-0.2-0.2
				c0-0.1,0-0.2,0.1-0.2c0.1-0.1,0.2-0.1,0.4-0.1c0.1,0,0.3,0,0.4,0.1c0.1,0,0.2,0.1,0.2,0.2C49.9,23,49.8,23.1,49.7,23.1z
				 M52.7,25.2l-2.7-1.5l0.5-0.3l2.7,1.5L52.7,25.2z"/>
			<path id="Tracé_73" class="st12" d="M54.7,24L51,23.1l0.6-0.3l2.6,0.7L53,21.9l0.6-0.3l1.6,2.1L54.7,24z"/>
			<path id="Tracé_74" class="st12" d="M53.7,20.9c-0.1,0.1-0.2,0.1-0.4,0.1c-0.1,0-0.3,0-0.4-0.1c-0.1,0-0.2-0.1-0.2-0.2
				c0-0.1,0-0.2,0.1-0.2c0.1-0.1,0.2-0.1,0.4-0.1c0.1,0,0.3,0,0.4,0.1c0.1,0,0.2,0.1,0.2,0.2C53.8,20.8,53.7,20.8,53.7,20.9z
				 M56.6,22.9L54,21.4l0.5-0.3l2.7,1.5L56.6,22.9z"/>
			<path id="Tracé_75" class="st12" d="M58.7,21.8C58.5,21.9,58.2,22,58,22c-0.3,0-0.5,0-0.8,0l0.1-0.4c0.2,0,0.3,0,0.5,0
				c0.2,0,0.3-0.1,0.4-0.1c0.1,0,0.1-0.1,0.2-0.2c0-0.1-0.1-0.2-0.3-0.2c0,0-0.1,0-0.1,0c-0.1,0-0.3,0-0.4,0.1l-0.3,0.1
				c-0.5,0.2-1,0.1-1.4-0.1c-0.2-0.1-0.3-0.3-0.3-0.5c0-0.2,0.2-0.4,0.4-0.5c0.4-0.2,0.8-0.3,1.2-0.2l0,0.4c-0.2,0-0.5,0-0.7,0.1
				c-0.1,0-0.1,0.1-0.1,0.2c0,0.1,0,0.1,0.1,0.2c0.1,0,0.2,0.1,0.2,0.1c0.1,0,0.2,0,0.3,0l0.3-0.1c0.3-0.1,0.5-0.1,0.8-0.1
				c0.2,0,0.5,0.1,0.7,0.2c0.2,0.1,0.4,0.3,0.4,0.5C59,21.5,58.9,21.7,58.7,21.8z"/>
			<path id="Tracé_76" class="st12" d="M61.2,20.3c-0.4,0.2-0.8,0.3-1.2,0.3c-0.5,0-0.9-0.1-1.3-0.4c-0.8-0.4-0.9-1.1-0.2-1.5
				l0.1,0c0.7-0.4,1.6-0.3,2.3,0c0.1,0,0.1,0.1,0.1,0.1c0.1,0,0.1,0.1,0.2,0.1l-1.8,1c0.2,0.1,0.5,0.2,0.7,0.2c0.7,0,1.1-0.3,1-0.7
				c0,0,0,0,0-0.1l0.7,0C61.8,19.7,61.6,20.1,61.2,20.3z M58.8,19.8l1.3-0.7c-0.2-0.1-0.4-0.1-0.6-0.1c-0.2,0-0.4,0-0.6,0.1
				c-0.1,0.1-0.2,0.2-0.3,0.3C58.6,19.5,58.7,19.7,58.8,19.8L58.8,19.8z"/>
			<path id="Tracé_77" class="st12" d="M65.8,17.6l-1.5-0.9c-0.2-0.1-0.4-0.2-0.6-0.2c-0.2,0-0.3,0-0.5,0.1
				C63,16.6,63,16.8,63,16.9c0.1,0.2,0.3,0.3,0.5,0.4l1.3,0.8l-0.5,0.3l-1.5-0.9c-0.2-0.1-0.4-0.2-0.6-0.2c-0.2,0-0.3,0-0.5,0.1
				c-0.1,0.1-0.2,0.2-0.2,0.4c0.1,0.2,0.3,0.4,0.5,0.5l1.3,0.8l-0.5,0.3l-2.7-1.5l0.5-0.3l0.4,0.2c-0.2-0.4,0.2-0.7,0.8-0.8
				c0.2,0,0.4,0,0.7,0.1c-0.1-0.1-0.1-0.3-0.1-0.4c0.1-0.1,0.2-0.3,0.3-0.3c0.3-0.2,0.6-0.2,0.9-0.2c0.4,0,0.7,0.2,1,0.3l1.6,0.9
				L65.8,17.6z"/>
			<path id="Tracé_78" class="st12" d="M68.6,15.6c0.1,0.6-0.7,1-1.7,1s-1.9-0.5-2-1.1s0.7-1,1.7-1S68.5,15,68.6,15.6L68.6,15.6z
				 M67.6,16c0.2-0.1,0.3-0.2,0.3-0.4c-0.1-0.3-0.6-0.6-1.2-0.7c-0.6,0-1,0.2-1,0.6v0c0.1,0.3,0.6,0.6,1.2,0.7
				C67.1,16.2,67.3,16.1,67.6,16L67.6,16z"/>
			<path id="Tracé_79" class="st12" d="M69.8,15.3l-2.7-1.5l0.5-0.3l0.4,0.2c-0.1-0.2,0-0.5,0.3-0.6c0.3-0.2,0.6-0.2,0.9-0.2
				c0.4,0,0.7,0.1,1,0.3l1.6,0.9l-0.5,0.3l-1.5-0.9c-0.2-0.1-0.4-0.2-0.6-0.2c-0.2,0-0.4,0-0.5,0.1c-0.2,0.1-0.2,0.2-0.2,0.4
				c0.1,0.2,0.3,0.4,0.5,0.5l1.3,0.8L69.8,15.3z"/>
			<path id="Tracé_80" class="st12" d="M73.7,13.1c-0.2,0.1-0.5,0.2-0.8,0.2c-0.3,0-0.6-0.1-0.9-0.3l-1.3-0.7l-0.5,0.3l-0.5-0.3
				l0.5-0.3l-0.7-0.4l0.5-0.3l0.7,0.4l0.7-0.4l0.5,0.3L71.2,12l1.2,0.7c0.2,0.1,0.5,0.2,0.7,0.1c0,0,0.1,0,0.1-0.1
				c0.1,0,0.2-0.1,0.2-0.2l0.5,0.3C73.9,12.9,73.8,13,73.7,13.1z"/>
			<path id="Tracé_81" class="st12" d="M75.6,12c-0.8,0.4-1.8,0.4-2.6,0c-0.8-0.4-0.9-1.1-0.3-1.5c0,0,0.1,0,0.1-0.1
				c0.7-0.4,1.6-0.3,2.3,0c0.1,0,0.1,0.1,0.1,0.1c0.1,0,0.1,0.1,0.2,0.1l-1.8,1c0.2,0.1,0.5,0.2,0.7,0.2c0.7,0,1.1-0.3,1-0.7
				c0,0,0,0,0-0.1l0.7,0C76.3,11.4,76.1,11.8,75.6,12z M73.3,11.4l1.3-0.7c-0.2-0.1-0.4-0.1-0.6-0.1c-0.2,0-0.4,0-0.6,0.1
				c-0.1,0.1-0.2,0.2-0.3,0.3C73.1,11.2,73.2,11.3,73.3,11.4z"/>
			<path id="Tracé_82" class="st12" d="M77.3,11l-2.7-1.5l0.5-0.3l0.5,0.3c-0.1-0.1-0.1-0.2-0.1-0.3c0-0.1,0.1-0.2,0.2-0.3
				c0.1,0,0.1-0.1,0.2-0.1L76.6,9c-0.1,0-0.2,0.1-0.3,0.1c-0.1,0.1-0.2,0.2-0.2,0.3c0.1,0.2,0.2,0.4,0.4,0.4l1.3,0.7L77.3,11z"/>
			<path id="Tracé_83" class="st12" d="M79.1,9.9l-2.7-1.5L77,8.1l0.5,0.3c-0.1-0.1-0.1-0.2-0.1-0.3c0-0.1,0.1-0.2,0.2-0.3
				c0.1,0,0.1-0.1,0.2-0.1l0.6,0.3c-0.1,0-0.2,0.1-0.3,0.1c-0.1,0.1-0.2,0.2-0.2,0.3c0.1,0.2,0.2,0.4,0.4,0.4l1.3,0.7L79.1,9.9z"/>
			<path id="Tracé_84" class="st12" d="M81.9,8.4c-0.4,0.2-0.8,0.3-1.2,0.2c-1-0.1-1.8-0.6-2-1.1c0-0.3,0.1-0.6,0.4-0.7
				c0.2-0.1,0.4-0.2,0.6-0.2c0.2,0,0.4,0,0.6,0l-0.4-0.2l0.5-0.3l2.7,1.5l-0.5,0.3l-0.4-0.2c0,0.1,0,0.2,0,0.3
				C82.1,8.2,82,8.3,81.9,8.4z M80.7,8.1c0.6,0,1-0.2,1-0.5c0,0,0,0,0,0c-0.1-0.3-0.6-0.6-1.2-0.7c-0.6,0-1,0.2-1,0.5c0,0,0,0,0,0
				C79.6,7.8,80.1,8.1,80.7,8.1L80.7,8.1z"/>
			<path id="Tracé_85" class="st12" d="M80.9,5.2c-0.1,0.1-0.2,0.1-0.4,0.1c-0.1,0-0.3,0-0.4-0.1C80.1,5.1,80,5,80,4.9
				c0-0.1,0-0.2,0.1-0.2c0.1-0.1,0.2-0.1,0.4-0.1c0.1,0,0.3,0,0.4,0.1C80.9,4.8,81,4.9,81,5C81,5,81,5.1,80.9,5.2z M83.9,7.2
				l-2.7-1.5l0.5-0.3l2.7,1.5L83.9,7.2z"/>
			<path id="Tracé_86" class="st12" d="M85.1,6.4l-2.7-1.5L83,4.6l0.4,0.2c-0.1-0.2,0-0.5,0.3-0.6C83.9,4,84.2,4,84.6,4
				c0.4,0,0.7,0.1,1,0.3l1.6,0.9l-0.5,0.3l-1.5-0.9c-0.2-0.1-0.4-0.2-0.6-0.2c-0.2,0-0.4,0-0.5,0.1c-0.2,0.1-0.2,0.2-0.2,0.4
				c0.1,0.2,0.3,0.4,0.5,0.5l1.3,0.8L85.1,6.4z"/>
		</g>
		<g id="Groupe_24" transform="translate(19.239 2.605)">
			<path id="Tracé_87" class="st13" d="M43.1,28.7l-1.3-0.7l0.2-0.1l0.3,0.1c-0.1-0.1-0.1-0.2,0-0.3c0,0,0,0,0.1-0.1
				c0,0,0.1,0,0.1,0l0.2,0.1c0,0-0.1,0-0.1,0c-0.1,0-0.1,0.1-0.1,0.2c0,0.1,0.1,0.2,0.2,0.3l0.6,0.4L43.1,28.7z"/>
			<path id="Tracé_88" class="st13" d="M44.4,28c-0.2,0.1-0.4,0.1-0.6,0.1c-0.2,0-0.4-0.1-0.6-0.2c-0.2-0.1-0.3-0.2-0.3-0.4
				c0-0.1,0.1-0.3,0.2-0.3c0.2-0.1,0.4-0.1,0.5-0.1c0.2,0,0.4,0.1,0.6,0.2l0,0l-0.9,0.5c0.3,0.1,0.6,0.2,0.8,0l0,0
				c0.1,0,0.1-0.1,0.2-0.2c0-0.1,0-0.1,0-0.2l0.2,0C44.7,27.7,44.6,27.8,44.4,28z M43.2,27.7l0.8-0.4c-0.1-0.1-0.3-0.1-0.4-0.1
				c-0.1,0-0.2,0-0.3,0.1c-0.1,0-0.1,0.1-0.2,0.2C43.1,27.6,43.1,27.7,43.2,27.7L43.2,27.7z M42.9,27.2l-0.3-0.4l0.2-0.1l0.2,0.4
				L42.9,27.2z"/>
			<path id="Tracé_89" class="st13" d="M45.5,27.3l-1.8-0.4l0.2-0.1l1.4,0.3l-0.6-0.8l0.2-0.1l0.8,1L45.5,27.3z"/>
			<path id="Tracé_90" class="st13" d="M46.9,26.5c-0.2,0.1-0.4,0.1-0.6,0.1c-0.2,0-0.4-0.1-0.6-0.2c-0.2-0.1-0.3-0.2-0.3-0.4
				c0-0.1,0.1-0.3,0.2-0.3c0.2-0.1,0.4-0.1,0.5-0.1c0.2,0,0.4,0.1,0.6,0.2l0,0l-0.9,0.5c0.3,0.1,0.6,0.2,0.8,0l0,0
				c0.1,0,0.1-0.1,0.2-0.2c0-0.1,0-0.1,0-0.2l0.2,0C47.2,26.2,47.1,26.4,46.9,26.5z M45.7,26.3l0.8-0.4c-0.1-0.1-0.3-0.1-0.4-0.1
				c-0.1,0-0.2,0-0.3,0.1c-0.1,0-0.1,0.1-0.2,0.2C45.6,26.1,45.6,26.2,45.7,26.3L45.7,26.3z M45.4,25.7l-0.8-0.1l0.2-0.1l0.7,0.2
				L45.4,25.7z"/>
			<path id="Tracé_91" class="st13" d="M47.7,26l-1.9-1.1l0.2-0.1l1.9,1.1L47.7,26z"/>
			<path id="Tracé_92" class="st13" d="M48.8,25.4c-0.2,0.1-0.4,0.1-0.6,0.1c-0.2,0-0.4-0.1-0.6-0.2c-0.2-0.1-0.3-0.2-0.3-0.4
				c0-0.1,0.1-0.3,0.2-0.3c0.2-0.1,0.4-0.1,0.5-0.1c0.2,0,0.4,0.1,0.6,0.2l0,0l-0.9,0.5c0.3,0.1,0.6,0.2,0.8,0l0,0
				c0.1,0,0.1-0.1,0.2-0.2c0-0.1,0-0.1,0-0.2l0.2,0C49.1,25.1,49,25.3,48.8,25.4z M47.6,25.2l0.8-0.4c-0.1-0.1-0.3-0.1-0.4-0.1
				c-0.1,0-0.2,0-0.3,0.1c-0.1,0-0.1,0.1-0.2,0.2C47.5,25.1,47.5,25.1,47.6,25.2L47.6,25.2z"/>
			<path id="Tracé_93" class="st13" d="M50.2,24.6l-1.9-1.1l0.2-0.1l1.9,1.1L50.2,24.6z"/>
			<path id="Tracé_94" class="st13" d="M51.2,24c-0.2,0.1-0.4,0.1-0.6,0.1c-0.2,0-0.4-0.1-0.6-0.2c-0.2-0.1-0.3-0.2-0.3-0.4
				c0-0.1,0.1-0.3,0.2-0.3c0.2-0.1,0.4-0.1,0.5-0.1c0.2,0,0.4,0.1,0.6,0.2l0,0l-0.9,0.5c0.3,0.1,0.6,0.2,0.8,0l0,0
				c0.1,0,0.1-0.1,0.2-0.2c0-0.1,0-0.1,0-0.2l0.2,0C51.5,23.7,51.4,23.9,51.2,24z M50.1,23.8l0.8-0.4c-0.1-0.1-0.3-0.1-0.4-0.1
				c-0.1,0-0.2,0-0.3,0.1c-0.1,0-0.1,0.1-0.2,0.2C49.9,23.6,50,23.7,50.1,23.8L50.1,23.8z"/>
			<path id="Tracé_95" class="st13" d="M53.1,22.9l-2.4-0.7l0.3-0.2l1.8,0.5l-0.9-1.1l0.3-0.2l1.1,1.4L53.1,22.9z"/>
			<path id="Tracé_96" class="st13" d="M54.2,22.2l-1.8-1l0.6-0.3c0.1-0.1,0.3-0.1,0.5-0.1c0.2,0,0.3,0.1,0.5,0.1
				c0.1,0,0.2,0.1,0.2,0.2c0,0.1,0,0.2-0.1,0.2l1.4,0.1l-0.3,0.2l-1.4-0.1l-0.1,0.1l0.8,0.5L54.2,22.2z M53.4,21.5l0.3-0.2
				c0.1,0,0.1-0.1,0.1-0.1c0-0.1-0.2-0.2-0.3-0.2h0c-0.1,0-0.2,0-0.2,0.1L53,21.2L53.4,21.5z"/>
			<path id="Tracé_97" class="st13" d="M55.5,21.5l-1.1-1.4l0.2-0.1l2.5,0.6l-0.3,0.2l-0.6-0.2L55.5,21l0.3,0.4L55.5,21.5z
				 M54.9,20.2l0.4,0.5l0.5-0.3L54.9,20.2z"/>
			<path id="Tracé_98" class="st13" d="M57.3,20.5l-1.8-1l0.3-0.1l1.8,1L57.3,20.5z"/>
			<path id="Tracé_99" class="st13" d="M59.3,19.9L59,20.1l-1.8-1l0.2-0.1l0.2,0.1c0-0.1,0-0.1,0-0.2c0-0.1,0.1-0.1,0.2-0.2
				c0.2-0.1,0.4-0.1,0.6-0.1c0.5,0,0.9,0.3,0.9,0.5c0,0.1-0.1,0.3-0.2,0.3c-0.1,0-0.2,0.1-0.3,0.1c-0.1,0-0.2,0-0.3,0L59.3,19.9z
				 M58.8,19.3c0.1,0,0.1-0.1,0.1-0.2c0-0.2-0.3-0.3-0.6-0.3c-0.1,0-0.2,0-0.3,0.1c-0.1,0-0.1,0.1-0.1,0.2c0,0.2,0.3,0.3,0.6,0.3
				C58.6,19.4,58.7,19.4,58.8,19.3L58.8,19.3z"/>
			<path id="Tracé_100" class="st13" d="M60.7,18.3c0,0.3-0.3,0.5-0.8,0.5s-0.9-0.3-0.9-0.5s0.3-0.5,0.8-0.5c0.2,0,0.4,0.1,0.6,0.2
				C60.5,18,60.6,18.2,60.7,18.3z M60.2,18.5c0.1,0,0.1-0.1,0.1-0.2c0-0.2-0.3-0.3-0.6-0.3s-0.5,0.1-0.5,0.3v0
				c0,0.2,0.3,0.3,0.6,0.3C60,18.6,60.1,18.6,60.2,18.5L60.2,18.5z"/>
			<path id="Tracé_101" class="st13" d="M61.7,17.9C61.6,18,61.5,18,61.4,18c-0.1,0-0.3,0-0.4-0.1l-0.6-0.4l-0.2,0.1l-0.2-0.1
				l0.2-0.1l-0.4-0.2l0.2-0.1l0.4,0.2l0.3-0.2l0.2,0.1l-0.3,0.2l0.6,0.3c0.1,0.1,0.2,0.1,0.3,0.1c0,0,0,0,0.1,0c0,0,0.1-0.1,0.1-0.1
				l0.2,0.1C61.9,17.8,61.8,17.9,61.7,17.9z"/>
			<path id="Tracé_102" class="st13" d="M62.7,17.4c-0.2,0.1-0.4,0.1-0.6,0.1c-0.5,0-0.9-0.3-0.9-0.5c0-0.2,0.1-0.3,0.2-0.4
				c0.3-0.2,0.7-0.2,1.1,0c0,0,0,0,0.1,0s0.1,0,0.1,0.1l-0.9,0.5c0.1,0.1,0.2,0.1,0.4,0.1c0.3,0,0.5-0.2,0.5-0.3c0,0,0,0,0,0l0.3,0
				C63,17.1,62.9,17.3,62.7,17.4z M61.6,17.1l0.6-0.4c-0.1,0-0.2-0.1-0.3-0.1c-0.1,0-0.2,0-0.3,0.1c-0.1,0-0.1,0.1-0.1,0.2
				C61.5,17,61.5,17.1,61.6,17.1L61.6,17.1z"/>
			<path id="Tracé_103" class="st13" d="M63.5,16.9l-1.3-0.7l0.2-0.1l0.2,0.1c-0.1-0.1,0-0.2,0.1-0.3c0.1-0.1,0.3-0.1,0.4-0.1
				c0.2,0,0.3,0.1,0.5,0.2l0.8,0.4l-0.2,0.1l-0.7-0.4C63.4,16,63.3,16,63.2,16c-0.1,0-0.2,0-0.3,0c-0.1,0-0.1,0.1-0.1,0.2
				c0,0.1,0.1,0.2,0.2,0.2l0.6,0.4L63.5,16.9z"/>
			<path id="Tracé_104" class="st13" d="M65.3,15.9C65.2,15.9,65,16,64.9,16c-0.1,0-0.3,0-0.4-0.1l-0.6-0.4l-0.2,0.1l-0.2-0.1
				l0.2-0.1l-0.4-0.2l0.2-0.1l0.4,0.2l0.3-0.2l0.2,0.1l-0.3,0.2l0.6,0.3c0.1,0.1,0.2,0.1,0.3,0.1c0,0,0,0,0.1,0c0,0,0.1-0.1,0.1-0.1
				l0.2,0.1C65.4,15.8,65.3,15.8,65.3,15.9z"/>
			<path id="Tracé_105" class="st13" d="M64.3,14.6c-0.1,0-0.1,0-0.2,0c-0.1,0-0.1,0-0.2,0c0,0-0.1-0.1-0.1-0.1c0,0,0-0.1,0.1-0.1
				c0.1,0,0.1,0,0.2,0c0.1,0,0.1,0,0.2,0c0,0,0.1,0.1,0.1,0.1C64.4,14.6,64.3,14.6,64.3,14.6z M65.7,15.6l-1.3-0.7l0.2-0.1l1.3,0.7
				L65.7,15.6z"/>
			<path id="Tracé_106" class="st13" d="M66.9,15c-0.4,0.2-0.9,0.2-1.2-0.1c-0.1-0.1-0.3-0.2-0.3-0.4c0-0.2,0.1-0.3,0.2-0.3
				c0.3-0.2,0.7-0.2,1.1,0c0,0,0,0,0.1,0s0.1,0,0.1,0.1l-0.9,0.5c0.1,0.1,0.2,0.1,0.4,0.1c0.3,0,0.5-0.2,0.5-0.3c0,0,0,0,0,0l0.3,0
				C67.1,14.7,67.1,14.9,66.9,15z M65.7,14.7l0.6-0.4c-0.1,0-0.2-0.1-0.3-0.1c-0.1,0-0.2,0-0.3,0.1c-0.1,0-0.1,0.1-0.1,0.2
				C65.6,14.6,65.7,14.7,65.7,14.7L65.7,14.7z"/>
			<path id="Tracé_107" class="st13" d="M67.6,14.5l-1.9-1.1l0.2-0.1l1.9,1.1L67.6,14.5z"/>
			<path id="Tracé_108" class="st13" d="M69.3,13.6c-0.2,0.1-0.4,0.1-0.6,0.1c-0.5,0-0.9-0.3-0.9-0.5c0-0.1,0.1-0.3,0.2-0.3
				c0.1-0.1,0.2-0.1,0.3-0.1c0.1,0,0.2,0,0.3,0l-0.8-0.5l0.2-0.1l1.9,1.1l-0.2,0.1l-0.2-0.1c0,0.1,0,0.1,0,0.2
				C69.4,13.5,69.4,13.5,69.3,13.6z M68.7,13.5c0.3,0,0.6-0.1,0.6-0.3c0,0,0,0,0,0c-0.1-0.2-0.3-0.4-0.7-0.4S68,12.9,68,13.1
				c0,0,0,0,0,0C68.1,13.3,68.4,13.5,68.7,13.5L68.7,13.5z"/>
			<path id="Tracé_109" class="st13" d="M70.8,12.7c-0.2,0.1-0.4,0.1-0.6,0.1c-0.2,0-0.4-0.1-0.6-0.2c-0.2-0.1-0.3-0.2-0.3-0.4
				c0-0.1,0.1-0.3,0.2-0.3c0.2-0.1,0.4-0.1,0.5-0.1c0.2,0,0.4,0.1,0.6,0.2l0,0l-0.9,0.5c0.3,0.1,0.6,0.2,0.8,0l0,0
				c0.1,0,0.1-0.1,0.2-0.2c0-0.1,0-0.1,0-0.2l0.2,0C71,12.4,71,12.6,70.8,12.7z M69.6,12.5l0.8-0.4C70.2,12,70.1,12,69.9,12
				c-0.1,0-0.2,0-0.3,0.1c-0.1,0-0.1,0.1-0.2,0.2C69.5,12.4,69.5,12.5,69.6,12.5L69.6,12.5z"/>
			<path id="Tracé_110" class="st13" d="M72.4,11.7l-1.8-0.4l0.2-0.1l1.4,0.3l-0.6-0.8l0.2-0.1l0.8,1L72.4,11.7z"/>
			<path id="Tracé_111" class="st13" d="M74,10.6c0,0.3-0.3,0.5-0.8,0.5c-0.2,0-0.4-0.1-0.6-0.2c-0.2-0.1-0.3-0.2-0.3-0.4
				c0-0.3,0.3-0.5,0.8-0.5S74,10.3,74,10.6z M73.2,11c0.4,0,0.6-0.1,0.6-0.3l0,0c0-0.2-0.3-0.4-0.7-0.4s-0.6,0.1-0.6,0.3l0,0
				C72.5,10.8,72.8,10.9,73.2,11L73.2,11z"/>
			<path id="Tracé_112" class="st13" d="M75.1,10.2c-0.1,0.1-0.2,0.1-0.3,0.1c-0.1,0-0.2,0-0.4-0.1l-0.7-0.4l-0.2,0.1l-0.2-0.1
				l0.2-0.1l-0.4-0.2l0.2-0.1l0.4,0.2L74,9.4l0.2,0.1l-0.3,0.2l0.7,0.4c0.1,0.1,0.2,0.1,0.3,0.1c0,0,0,0,0.1,0c0,0,0.1-0.1,0.1-0.1
				l0.2,0.1C75.2,10.2,75.1,10.2,75.1,10.2z"/>
			<path id="Tracé_113" class="st13" d="M75.5,10l-1.3-0.7l0.2-0.1l0.3,0.1c-0.1-0.1-0.1-0.2,0-0.3c0,0,0,0,0.1-0.1
				c0,0,0.1,0,0.1,0L75,9c0,0-0.1,0-0.1,0c-0.1,0-0.1,0.1-0.1,0.2c0,0.1,0.1,0.2,0.2,0.3l0.6,0.4L75.5,10z"/>
			<path id="Tracé_114" class="st13" d="M76.8,9.2c-0.2,0.1-0.4,0.1-0.6,0.1c-0.2,0-0.4-0.1-0.6-0.2c-0.2-0.1-0.3-0.2-0.3-0.4
				c0-0.1,0.1-0.3,0.2-0.3c0.2-0.1,0.4-0.1,0.5-0.1c0.2,0,0.4,0.1,0.6,0.2l0,0l-0.9,0.5c0.3,0.1,0.6,0.2,0.8,0l0,0
				c0.1,0,0.1-0.1,0.2-0.2c0-0.1,0-0.1,0-0.2l0.2,0C77.1,9,77,9.1,76.8,9.2z M75.6,9l0.8-0.4c-0.1-0.1-0.3-0.1-0.4-0.1
				c-0.1,0-0.2,0-0.3,0.1c-0.1,0-0.1,0.1-0.2,0.2C75.5,8.9,75.5,9,75.6,9L75.6,9z"/>
			<path id="Tracé_115" class="st13" d="M78.5,8.2c-0.1,0.1-0.2,0.1-0.3,0.1c-0.1,0-0.2,0-0.4-0.1l-0.7-0.4l-0.2,0.1l-0.2-0.1
				L77,7.7l-0.4-0.2l0.2-0.1l0.4,0.2l0.3-0.2l0.2,0.1l-0.3,0.2L78,8.1c0.1,0.1,0.2,0.1,0.3,0.1c0,0,0,0,0.1,0c0,0,0.1-0.1,0.1-0.1
				l0.2,0.1C78.6,8.1,78.6,8.2,78.5,8.2z"/>
			<path id="Tracé_116" class="st13" d="M79.5,7.7c-0.2,0.1-0.4,0.1-0.6,0.1c-0.2,0-0.4-0.1-0.6-0.2c-0.2-0.1-0.3-0.2-0.3-0.4
				c0-0.1,0.1-0.3,0.2-0.3c0.2-0.1,0.4-0.1,0.5-0.1c0.2,0,0.4,0.1,0.6,0.2l0,0l-0.9,0.5c0.3,0.1,0.6,0.2,0.8,0l0,0
				c0.1,0,0.1-0.1,0.2-0.2c0-0.1,0-0.1,0-0.2l0.2,0C79.8,7.4,79.7,7.6,79.5,7.7z M78.3,7.5L79,7C78.9,7,78.8,7,78.7,7
				c-0.1,0-0.2,0-0.3,0.1c-0.1,0-0.1,0.1-0.2,0.2C78.2,7.3,78.2,7.4,78.3,7.5L78.3,7.5z"/>
			<path id="Tracé_117" class="st13" d="M80.3,7.2L79,6.5l0.2-0.1l0.3,0.1c-0.1-0.1-0.1-0.2,0-0.3c0,0,0,0,0.1-0.1c0,0,0.1,0,0.1,0
				l0.2,0.1c0,0-0.1,0-0.1,0c-0.1,0-0.1,0.1-0.1,0.2c0,0.1,0.1,0.2,0.2,0.3l0.6,0.4L80.3,7.2z"/>
			<path id="Tracé_118" class="st13" d="M81.1,6.7L79.8,6L80,5.9l0.3,0.1c-0.1-0.1-0.1-0.2,0-0.3c0,0,0,0,0.1-0.1c0,0,0.1,0,0.1,0
				l0.2,0.1c0,0-0.1,0-0.1,0c-0.1,0-0.1,0.1-0.1,0.2c0,0.1,0.1,0.2,0.2,0.3l0.6,0.4L81.1,6.7z"/>
			<path id="Tracé_119" class="st13" d="M82.4,6c-0.2,0.1-0.4,0.1-0.6,0.1c-0.5,0-0.9-0.3-0.9-0.5c0-0.1,0.1-0.3,0.2-0.3
				c0.1-0.1,0.2-0.1,0.3-0.1c0.1,0,0.2,0,0.3,0L81.5,5L81.6,5l1.3,0.7l-0.2,0.1l-0.2-0.1c0,0.1,0,0.1,0,0.2C82.5,5.9,82.4,6,82.4,6z
				 M81.8,6c0.3,0,0.6-0.1,0.6-0.3c0,0,0,0,0,0c-0.1-0.2-0.3-0.4-0.7-0.4s-0.6,0.1-0.6,0.3v0C81.1,5.8,81.4,6,81.8,6L81.8,6z"/>
			<path id="Tracé_120" class="st13" d="M81.8,4.4c0,0-0.1,0-0.1,0c-0.1,0-0.2-0.1-0.2-0.1l0,0c0,0,0-0.1,0-0.1c0,0,0.1,0,0.1,0
				C81.7,4.3,81.8,4.3,81.8,4.4C81.8,4.4,81.8,4.4,81.8,4.4z M83.3,5.4l-1.3-0.7l0.2-0.1l1.3,0.7L83.3,5.4z"/>
			<path id="Tracé_121" class="st13" d="M83.9,5.1l-1.3-0.7l0.2-0.1L83,4.4c-0.1-0.1,0-0.3,0.1-0.3C83.2,4,83.4,4,83.5,4
				C83.7,4,83.9,4,84,4.1l0.8,0.5l-0.2,0.1l-0.8-0.4c-0.1-0.1-0.2-0.1-0.3-0.1c-0.1,0-0.2,0-0.3,0.1c-0.1,0-0.1,0.1-0.1,0.2
				c0.1,0.1,0.1,0.2,0.3,0.3L84,5L83.9,5.1z"/>
		</g>
	</g>
	<circle id="Ellipse_125" class="st14" cx="1053.9" cy="170.1" r="4.3"/>
	<circle id="Ellipse_127" class="st15" cx="1169.5" cy="161.4" r="4.3"/>
	<circle id="Ellipse_130" class="st16" cx="1044.8" cy="270.4" r="3"/>
	<circle id="Ellipse_131" class="st14" cx="1181.2" cy="343.4" r="3"/>
	<circle id="Ellipse_134" class="st16" cx="1102.1" cy="194" r="3"/>
	<circle id="Ellipse_132" class="st16" cx="1286.3" cy="227.9" r="3"/>
	<circle id="Ellipse_136" class="st15" cx="1319.3" cy="343.4" r="3"/>
	<circle id="Ellipse_128" class="st15" cx="1242.4" cy="375.1" r="4.3"/>
	<circle id="Ellipse_124" class="st17" cx="1269.8" cy="135.8" r="6.5"/>
	<circle id="Ellipse_133" class="st15" cx="1107.8" cy="120.6" r="8.7"/>
	<circle id="Ellipse_135" class="st17" cx="1033.1" cy="340.4" r="8.7"/>
	<circle id="Ellipse_129" class="st14" cx="1131.7" cy="386" r="6.5"/>
	<circle id="Ellipse_126" class="st17" cx="1288.1" cy="293.9" r="6.5"/>
	<g id="Groupe_4406" transform="translate(1310.953 478.887)">
		<path id="Tracé_9601" class="st18" d="M53.7,42.2c-1,0.5-2.1,0.8-3.2,0.7c-1.2,0-2.4-0.4-3.4-1l-5.2-3l1.5-0.9l5.3,3
			c0.5,0.3,1.1,0.5,1.8,0.5c0.6,0,1.1-0.1,1.6-0.4c0.5-0.3,0.7-0.6,0.6-0.9c0-0.3-0.4-0.7-0.9-1l-5.3-3l1.5-0.9l5.2,3
			c1.1,0.6,1.6,1.3,1.7,2S54.6,41.7,53.7,42.2z"/>
		<path id="Tracé_9602" class="st18" d="M58.1,39.4l-8.6-5l2.9-1.7c0.7-0.4,1.6-0.6,2.4-0.5c0.9,0,1.7,0.3,2.5,0.7
			c1.1,0.7,1.4,1.4,0.7,2.2l6.5,0.7l-1.8,1.1l-6.2-0.6L56,36.4l3.6,2.1L58.1,39.4z M54.5,35.6l1.2-0.7c0.3-0.2,0.4-0.4,0.5-0.5
			S56,34,55.7,33.8c-0.3-0.2-0.6-0.3-0.9-0.2c-0.3,0-0.7,0.1-0.9,0.3l-1.2,0.7L54.5,35.6z"/>
		<path id="Tracé_9603" class="st18" d="M65.1,35.4l-8.6-5l2.7-1.6c0.7-0.4,1.5-0.5,2.3-0.5c0.8,0,1.7,0.2,2.4,0.7
			c0.6,0.4,0.9,0.8,1,1.2c1.1-0.2,2.2,0,3.1,0.5c0.6,0.3,1,0.8,1.1,1.4c0,0.5-0.3,1-0.9,1.4L65.1,35.4z M61.5,31.6l1.1-0.6
			c0.3-0.2,0.4-0.3,0.4-0.5c-0.1-0.2-0.2-0.4-0.4-0.5c-0.3-0.2-0.6-0.2-0.9-0.3c-0.3,0-0.6,0-0.9,0.2l-1.1,0.6L61.5,31.6z M65,33.6
			l1.5-0.9c0.3-0.2,0.4-0.4,0.4-0.6s-0.2-0.4-0.5-0.6c-0.3-0.2-0.6-0.3-1-0.3c-0.3,0-0.7,0.1-1,0.2L63,32.5L65,33.6z"/>
		<path id="Tracé_9604" class="st18" d="M70.7,32.2l-5.4-6.8l1.4-0.8l11.9,3.1l-1.6,0.9l-2.7-0.7L71,29.7l1.3,1.6L70.7,32.2z
			 M68.3,26.3l1.8,2.2l2.1-1.2L68.3,26.3z"/>
		<path id="Tracé_9605" class="st18" d="M86,23.3l-1.3,0.8l-9.5-1l5.6,3.3l-1.5,0.9l-8.6-5l1.3-0.8l9.5,1l-5.6-3.3l1.5-0.9L86,23.3
			z"/>
		<path id="Tracé_9606" class="st18" d="M87.7,22.3l-8.6-5l1.5-0.9l8.6,5L87.7,22.3z"/>
		<path id="Tracé_9607" class="st18" d="M93.2,19.3c-0.6,0.4-1.3,0.6-2,0.7c-0.7,0.1-1.5,0.1-2.3,0l0-1.3c0.5,0.1,1,0.1,1.5,0
			c0.4,0,0.8-0.2,1.2-0.4c0.3-0.2,0.5-0.4,0.5-0.6s-0.1-0.4-0.3-0.5c-0.3-0.1-0.6-0.2-0.9-0.2c-0.4,0-0.9,0.1-1.3,0.2l-0.9,0.2
			c-1.4,0.5-3,0.3-4.3-0.4c-0.8-0.5-1.2-1-1.2-1.5c0-0.5,0.4-1,1.1-1.5c1.1-0.6,2.3-0.8,3.6-0.7l0.2,1.3c-0.7-0.1-1.4,0-2.1,0.3
			c-0.2,0.1-0.4,0.3-0.5,0.5c-0.1,0.2,0,0.4,0.3,0.5c0.3,0.1,0.6,0.2,0.9,0.2c0.5,0,0.9-0.1,1.4-0.2l0.9-0.2c1.5-0.4,3-0.3,4.3,0.5
			c0.8,0.4,1.2,0.9,1.1,1.5S94,18.9,93.2,19.3z"/>
		<path id="Tracé_9608" class="st18" d="M88.3,12l1.4-0.8l6.3,0.8l-1.4-3.6l1.4-0.8l8.6,5l-1.5,0.9l-5.6-3.2l1.3,3.4l-5.9-0.8
			l5.6,3.2L96.9,17L88.3,12z"/>
		<path id="Tracé_9609" class="st18" d="M106.2,11.7l-8.6-5l4.7-2.7l1.7,1l-3.1,1.8l1.8,1l2.5-1.4l1.7,1l-2.5,1.4l1.8,1.1l3.1-1.8
			l1.7,1L106.2,11.7z"/>
	</g>
	<g id="Groupe_4407" transform="translate(1146.739 524.936)">
		<path id="Tracé_9610" class="st18" d="M41.8,30.9l1.4-0.8l6.3,0.8l-1.4-3.6l1.4-0.8l8.6,5l-1.5,0.9L51,29.1l1.3,3.4l-5.9-0.8
			L52,35l-1.5,0.9L41.8,30.9z"/>
		<path id="Tracé_9611" class="st18" d="M59,30.9l-5.4-6.8l1.4-0.8l11.9,3.1l-1.6,0.9l-2.7-0.7l-3.2,1.8l1.3,1.6L59,30.9z
			 M56.5,25.1l1.8,2.2l2.1-1.2L56.5,25.1z"/>
		<path id="Tracé_9612" class="st18" d="M67.6,26L59,21l2.9-1.7c0.7-0.4,1.6-0.6,2.4-0.5c0.9,0,1.7,0.3,2.5,0.7
			c1.1,0.7,1.4,1.4,0.7,2.2l6.5,0.7l-1.8,1.1l-6.2-0.6L65.5,23l3.6,2.1L67.6,26z M64,22.1l1.2-0.7c0.3-0.2,0.4-0.4,0.5-0.5
			c0-0.2-0.1-0.4-0.4-0.5c-0.3-0.2-0.6-0.3-0.9-0.2c-0.3,0-0.7,0.1-1,0.3L62.1,21L64,22.1z"/>
		<path id="Tracé_9613" class="st18" d="M77.8,20.2c-1.2,0.7-2.6,0.9-4,0.8c-1.5,0-3-0.4-4.3-1.2c-1-0.5-1.8-1.4-2-2.5
			c-0.1-1,0.5-1.9,1.4-2.3c0.8-0.5,1.7-0.7,2.7-0.8c1-0.1,2.1-0.1,3.1,0.1l-0.5,1.3c-1.2-0.3-2.5-0.2-3.6,0.4
			c-0.6,0.2-0.9,0.8-0.8,1.4c0.2,0.7,0.6,1.2,1.3,1.5c0.8,0.5,1.7,0.7,2.6,0.7c0.8,0.1,1.7-0.1,2.5-0.5c0.9-0.5,1.2-1.2,0.7-2.1
			l2.2-0.3c0.4,0.5,0.5,1.2,0.3,1.8C79,19.3,78.5,19.9,77.8,20.2z"/>
		<path id="Tracé_9614" class="st18" d="M82.2,17.5l-8.6-5l1.5-0.9l3.4,2l3.2-1.9l-3.4-2l1.5-0.9l8.6,5L87,14.8l-3.5-2l-3.2,1.9
			l3.5,2L82.2,17.5z"/>
		<path id="Tracé_9615" class="st18" d="M90.2,12.9l-8.6-5l4.7-2.7l1.7,1L84.7,8l1.8,1L89,7.6l1.7,1L88.2,10l1.8,1.1l3.1-1.8l1.7,1
			L90.2,12.9z M82.7,6.5l-1.2-1.5L83.1,4l0.6,1.9L82.7,6.5z"/>
	</g>
	<g id="Groupe_4408" transform="translate(880 224.312)">
		<path id="Tracé_9616" class="st18" d="M52.2,55.2c-1.2,0.7-2.6,0.9-4,0.8c-1.5,0-3-0.4-4.3-1.2c-1-0.5-1.8-1.4-2-2.5
			c-0.1-1,0.5-1.9,1.4-2.3c0.8-0.5,1.7-0.7,2.7-0.8c1-0.1,2.1-0.1,3.1,0.1l-0.5,1.3c-1.2-0.3-2.5-0.2-3.6,0.4
			c-0.6,0.2-0.9,0.8-0.8,1.4c0.2,0.7,0.6,1.2,1.3,1.5c0.8,0.5,1.7,0.7,2.6,0.7c0.8,0.1,1.7-0.1,2.5-0.5c0.9-0.5,1.2-1.2,0.7-2.1
			l2.2-0.3c0.4,0.5,0.5,1.2,0.3,1.8C53.4,54.3,52.9,54.9,52.2,55.2z"/>
		<path id="Tracé_9617" class="st18" d="M61.6,48.3c0.1,1-0.5,1.9-1.4,2.3c-1.2,0.7-2.6,0.9-4,0.8c-1.5,0-3-0.4-4.3-1.2
			c-1-0.5-1.8-1.4-2-2.5c-0.1-1,0.5-1.9,1.4-2.3c1.2-0.7,2.6-0.9,4-0.8c1.5,0,3,0.4,4.3,1.2C60.6,46.3,61.3,47.2,61.6,48.3z
			 M56,50.1c0.8,0.1,1.7-0.1,2.5-0.5c0.6-0.2,0.9-0.8,0.8-1.4c-0.2-0.7-0.6-1.2-1.3-1.5c-0.8-0.5-1.7-0.7-2.6-0.7
			c-0.8-0.1-1.7,0.1-2.5,0.5c-0.6,0.2-0.9,0.8-0.8,1.4c0.2,0.7,0.6,1.2,1.3,1.5C54.2,49.8,55.1,50.1,56,50.1L56,50.1z"/>
		<path id="Tracé_9618" class="st18" d="M71.8,43.7l-1.3,0.8l-9.5-1l5.6,3.3l-1.5,0.9l-8.6-5l1.3-0.8l9.5,1l-5.6-3.3l1.5-0.9
			L71.8,43.7z"/>
		<path id="Tracé_9619" class="st18" d="M75.8,41.6c-0.6,0.4-1.3,0.6-2,0.7c-0.7,0.1-1.5,0.1-2.3,0l0-1.3c0.5,0.1,1,0.1,1.5,0
			c0.4,0,0.8-0.2,1.2-0.4c0.3-0.2,0.5-0.4,0.5-0.6s-0.1-0.4-0.3-0.5c-0.3-0.1-0.6-0.2-0.9-0.2c-0.4,0-0.9,0.1-1.3,0.2l-0.9,0.2
			c-1.4,0.5-3,0.3-4.3-0.4c-0.8-0.5-1.2-1-1.2-1.5c0-0.5,0.4-1,1.1-1.5c1.1-0.6,2.3-0.8,3.6-0.7l0.2,1.3c-0.7-0.1-1.4,0-2.1,0.3
			c-0.2,0.1-0.4,0.3-0.5,0.5c-0.1,0.2,0,0.4,0.3,0.5c0.3,0.1,0.6,0.2,0.9,0.2c0.5,0,0.9-0.1,1.4-0.2l0.9-0.2c1.5-0.4,3-0.3,4.3,0.5
			c0.8,0.4,1.2,0.9,1.1,1.5S76.5,41.2,75.8,41.6z"/>
		<path id="Tracé_9620" class="st18" d="M80.7,38.6l-7-4l-2,1.1l-1.7-1l5.5-3.2l1.7,1l-2,1.2l7,4L80.7,38.6z"/>
		<path id="Tracé_9621" class="st18" d="M85.3,35.9l-8.6-5l2.9-1.7c0.7-0.4,1.6-0.6,2.4-0.5c0.9,0,1.7,0.3,2.5,0.7
			c1.1,0.7,1.4,1.4,0.7,2.2l6.5,0.7l-1.8,1.1l-6.2-0.6l-0.4,0.2l3.6,2.1L85.3,35.9z M81.7,32.1l1.2-0.7c0.3-0.2,0.4-0.4,0.5-0.5
			s-0.1-0.4-0.4-0.5c-0.3-0.2-0.6-0.3-0.9-0.2c-0.3,0-0.7,0.1-1,0.3L79.8,31L81.7,32.1z"/>
		<path id="Tracé_9622" class="st18" d="M95.2,30.4c-1,0.5-2.1,0.8-3.2,0.7c-1.2,0-2.4-0.4-3.4-1l-5.2-3l1.5-0.9l5.3,3
			c0.5,0.3,1.1,0.5,1.8,0.5c0.6,0,1.1-0.1,1.6-0.4c0.5-0.3,0.7-0.6,0.6-0.9c0-0.3-0.4-0.7-0.9-1l-5.3-3l1.5-0.9l5.2,3
			c1.1,0.6,1.6,1.3,1.7,2C96.5,29.2,96.1,29.9,95.2,30.4z"/>
		<path id="Tracé_9623" class="st18" d="M103.3,25.7c-1.2,0.7-2.6,0.9-4,0.8c-1.5,0-3-0.4-4.3-1.2c-1-0.5-1.8-1.4-2-2.5
			c-0.1-1,0.5-1.9,1.4-2.3c0.8-0.5,1.7-0.7,2.7-0.8c1-0.1,2.1-0.1,3.1,0.1l-0.5,1.3c-1.2-0.3-2.5-0.2-3.6,0.4
			c-0.6,0.2-0.9,0.8-0.8,1.4c0.2,0.7,0.6,1.2,1.3,1.5c0.8,0.5,1.7,0.7,2.6,0.7c0.8,0.1,1.7-0.1,2.5-0.5c0.9-0.5,1.2-1.2,0.7-2.1
			l2.2-0.3c0.4,0.5,0.5,1.2,0.3,1.8C104.4,24.8,103.9,25.4,103.3,25.7z"/>
		<path id="Tracé_9624" class="st18" d="M109,22.2l-7-4l-2,1.1l-1.7-1l5.5-3.2l1.7,1l-2,1.2l7,4L109,22.2z"/>
		<path id="Tracé_9625" class="st18" d="M113.6,19.6l-8.6-5l1.5-0.9l8.6,5L113.6,19.6z"/>
		<path id="Tracé_9626" class="st18" d="M121.8,13.5c0.1,1-0.5,1.9-1.4,2.3c-1.2,0.7-2.6,0.9-4,0.8c-1.5,0-3-0.4-4.3-1.2
			c-1-0.5-1.8-1.4-2-2.5c-0.1-1,0.5-1.9,1.4-2.3c1.2-0.7,2.6-0.9,4-0.8c1.5,0,3,0.4,4.3,1.2C120.8,11.5,121.5,12.4,121.8,13.5z
			 M116.2,15.3c0.8,0.1,1.7-0.1,2.5-0.5c0.6-0.2,0.9-0.8,0.8-1.4c-0.2-0.7-0.6-1.2-1.3-1.5c-0.8-0.5-1.7-0.7-2.6-0.7
			c-0.8-0.1-1.7,0.1-2.5,0.5c-0.6,0.2-0.9,0.8-0.8,1.4c0.2,0.7,0.6,1.2,1.3,1.5C114.4,15.1,115.3,15.3,116.2,15.3L116.2,15.3z"/>
		<path id="Tracé_9627" class="st18" d="M132,9l-1.3,0.8l-9.5-1l5.6,3.3l-1.5,0.9l-8.6-5l1.3-0.8l9.5,1l-5.6-3.3l1.5-0.9L132,9z"/>
	</g>
	<g id="Groupe_4424" transform="translate(1011.424 247.771)" class="st19">
		<path id="Tracé_9596" class="st20" d="M158.2,138.4L41.8,71.2L158.3,4l116.4,67.2L158.2,138.4z"/>
		<g id="Groupe_4409" transform="translate(108.381 81.673)">
			<path id="Tracé_9670" class="st13" d="M51.8,45.1c-0.6,0.4-1.3,0.6-2,0.7c-0.7,0.1-1.5,0.1-2.3,0l0-1.3c0.5,0.1,1,0.1,1.5,0
				c0.4,0,0.8-0.2,1.2-0.4c0.3-0.2,0.5-0.4,0.5-0.6s-0.1-0.4-0.3-0.5c-0.3-0.1-0.6-0.2-0.9-0.2c-0.4,0-0.9,0.1-1.3,0.2l-0.9,0.2
				c-1.4,0.5-3,0.3-4.3-0.4c-0.8-0.5-1.2-1-1.2-1.5c0-0.5,0.4-1,1.1-1.5c1.1-0.6,2.3-0.8,3.5-0.7l0.2,1.3c-0.7-0.1-1.4,0-2.1,0.3
				c-0.2,0.1-0.4,0.3-0.5,0.5c-0.1,0.2,0,0.4,0.3,0.5c0.3,0.1,0.6,0.2,0.9,0.2c0.5,0,0.9-0.1,1.4-0.2l0.9-0.2c1.5-0.4,3-0.3,4.3,0.5
				c0.8,0.4,1.2,0.9,1.1,1.5S52.6,44.6,51.8,45.1z"/>
			<path id="Tracé_9671" class="st13" d="M59,39.9c0,0.7-0.4,1.4-1,1.7C57,42,56,42.2,55,42.2c-1.1,0-2.1-0.3-3.1-0.8
				c-0.7-0.3-1.3-1-1.4-1.8c0-0.7,0.4-1.4,1-1.7c0.9-0.5,1.9-0.7,2.9-0.6c1.1,0,2.1,0.3,3.1,0.8C58.3,38.4,58.8,39.1,59,39.9z
				 M56.4,40.7c0.3-0.1,0.5-0.5,0.5-0.8c-0.1-0.4-0.4-0.7-0.8-0.9c-0.5-0.3-1-0.4-1.5-0.5c-0.5,0-1,0-1.4,0.3
				c-0.4,0.2-0.5,0.5-0.5,0.8c0.1,0.4,0.4,0.7,0.8,0.9c0.5,0.3,1,0.4,1.5,0.5C55.5,41,55.9,40.9,56.4,40.7L56.4,40.7z"/>
			<path id="Tracé_9672" class="st13" d="M61.6,39.3L52.5,34l1.4-0.8l9.1,5.3L61.6,39.3z"/>
			<path id="Tracé_9673" class="st13" d="M66.5,36.6c-0.7,0.4-1.4,0.5-2.2,0.4c-0.9-0.1-1.7-0.4-2.5-0.8l-3.5-2l1.4-0.8l3.2,1.9
				c0.7,0.5,1.6,0.6,2.3,0.3c0.3-0.2,0.5-0.4,0.4-0.7c-0.2-0.4-0.6-0.7-1-0.9l-3-1.7l1.4-0.8l6.1,3.5l-1.4,0.8l-0.7-0.4
				C67.3,35.8,67.1,36.2,66.5,36.6z"/>
			<path id="Tracé_9674" class="st13" d="M73.3,32.6c-0.6,0.3-1.3,0.5-2,0.5c-0.8,0-1.5-0.2-2.2-0.6l-2.5-1.4l-1.1,0.6L64,30.9
				l1.1-0.6l-1.7-1l1.4-0.8l1.7,1l1.5-0.9l1.5,0.8L68,30.3l2.2,1.2c0.3,0.2,0.6,0.3,1,0.3c0.3,0,0.6-0.1,0.9-0.3
				c0.2-0.1,0.4-0.2,0.5-0.4L74,32C73.8,32.3,73.5,32.5,73.3,32.6z"/>
			<path id="Tracé_9675" class="st13" d="M68.8,27c-0.3,0.2-0.6,0.2-1,0.2c-0.4,0-0.7-0.1-1-0.3c-0.2-0.1-0.4-0.3-0.5-0.6
				c0-0.2,0.1-0.5,0.3-0.5c0.3-0.2,0.6-0.2,1-0.2c0.4,0,0.7,0.1,1,0.3c0.2,0.1,0.4,0.3,0.5,0.6C69.1,26.7,69,26.9,68.8,27z
				 M75.1,31.5L69.1,28l1.4-0.8l6.1,3.5L75.1,31.5z"/>
			<path id="Tracé_9676" class="st13" d="M81.6,26.8c0,0.7-0.4,1.4-1,1.7c-0.9,0.5-1.9,0.7-2.9,0.6c-1.1,0-2.1-0.3-3.1-0.8
				c-0.7-0.3-1.3-1-1.4-1.8c0-0.7,0.4-1.4,1-1.7c0.9-0.5,1.9-0.7,2.9-0.6c1.1,0,2.1,0.3,3.1,0.8C80.9,25.4,81.4,26.1,81.6,26.8z
				 M79,27.6c0.3-0.1,0.5-0.5,0.5-0.8c-0.1-0.4-0.4-0.7-0.8-0.9c-0.5-0.3-1-0.4-1.5-0.5c-0.5,0-1,0-1.4,0.3
				c-0.4,0.2-0.5,0.5-0.5,0.8c0.1,0.4,0.4,0.7,0.8,0.9c0.5,0.3,1,0.4,1.5,0.5C78,27.9,78.5,27.8,79,27.6L79,27.6z"/>
			<path id="Tracé_9677" class="st13" d="M84.2,26.2l-6.1-3.5l1.4-0.8l0.7,0.4c-0.2-0.5,0-1,0.7-1.3c0.7-0.4,1.4-0.5,2.2-0.4
				c0.9,0.1,1.7,0.4,2.5,0.8l3.6,2.1l-1.4,0.8l-3.3-1.9c-0.4-0.2-0.8-0.4-1.3-0.5c-0.4-0.1-0.7,0-1.1,0.2c-0.3,0.2-0.5,0.4-0.4,0.7
				s0.4,0.6,1,0.9l3,1.7L84.2,26.2z"/>
			<path id="Tracé_9678" class="st13" d="M99.7,17.3L98.4,18l-9.5-1l5.6,3.3L93,21.1l-8.6-5l1.3-0.8l9.5,1l-5.6-3.3l1.5-0.9
				L99.7,17.3z"/>
			<path id="Tracé_9679" class="st13" d="M97.6,12.8c-0.5,0.3-1.1,0.4-1.7,0.3c-0.6,0-1.2-0.2-1.8-0.5c-0.4-0.2-0.8-0.6-0.9-1
				c0-0.4,0.2-0.8,0.6-1c0.5-0.3,1.1-0.4,1.7-0.3c0.6,0,1.2,0.2,1.8,0.5c0.4,0.2,0.7,0.6,0.9,1C98.2,12.2,98,12.6,97.6,12.8z
				 M96.5,12.1c0.2-0.1,0.3-0.2,0.2-0.4c0-0.2-0.2-0.3-0.3-0.4c-0.2-0.1-0.5-0.2-0.7-0.2c-0.2,0-0.5,0-0.7,0.1
				c-0.2,0.1-0.3,0.2-0.3,0.4c0,0.2,0.2,0.3,0.3,0.4c0.2,0.1,0.5,0.2,0.7,0.2C96,12.3,96.3,12.3,96.5,12.1L96.5,12.1z"/>
			<path id="Tracé_9680" class="st13" d="M106.5,13.4l-7-4l-1.6,0.9l-0.6-1.6l2-1.1l8.6,5L106.5,13.4z"/>
			<path id="Tracé_9681" class="st13" d="M112.7,9.8l-2-1.1l-3.7,2.1l-1.4-0.8l-1.4-5.3l1.3-0.7l5.1,3l1-0.6l1.5,0.9l-1,0.6l2,1.1
				L112.7,9.8z M107.2,8.9l2-1.1l-2.7-1.5L107.2,8.9z"/>
		</g>
		<g id="Groupe_4422" transform="translate(70.151 39.967)">
			<path id="Tracé_9758" class="st21" d="M44.4,29.1l-2.2-1.3l2.4-1.4l-2.7-1.6l1.9-1.1l2.7,1.6l2.4-1.4l2.2,1.3l-2.4,1.4l2.8,1.6
				l-1.9,1.1l-2.8-1.6L44.4,29.1z"/>
			<path id="Tracé_9759" class="st21" d="M60.7,24.7c-1.2,0.7-2.7,1-4.1,1c-1.6,0-3.1-0.4-4.5-1.1l2.1-1.2c0.6,0.3,1.3,0.5,2.1,0.5
				c0.7,0,1.3-0.2,1.9-0.5c0.5-0.3,0.8-0.6,0.8-1s-0.2-0.7-0.7-1c-0.5-0.3-1.1-0.5-1.8-0.5c-0.6,0-1.3,0.2-1.8,0.5L53.8,22l-2-1.2
				l0.8-0.5c0.5-0.3,0.8-0.6,0.8-0.9s-0.2-0.6-0.7-0.9c-0.4-0.3-1-0.4-1.5-0.4c-0.5,0-1,0.1-1.5,0.4c-0.5,0.3-0.7,0.6-0.7,1
				s0.3,0.7,0.8,1l-2.2,1.3c-1.3-0.7-1.9-1.6-1.9-2.5c0-1,0.7-1.9,1.6-2.3c1.1-0.6,2.4-1,3.7-0.9c1.3,0,2.5,0.4,3.7,1
				c0.5,0.3,1,0.7,1.3,1.2c0.2,0.3,0.3,0.8,0.3,1.2c0.7-0.1,1.5-0.1,2.3,0c0.8,0.1,1.6,0.4,2.2,0.8c1.1,0.7,1.7,1.4,1.7,2.2
				S61.9,24.1,60.7,24.7z"/>
			<path id="Tracé_9760" class="st21" d="M67.5,20.6L57,14.5l-2.4,1.4l-0.9-2.3l3-1.7l13,7.5L67.5,20.6z"/>
			<path id="Tracé_9761" class="st21" d="M68.5,13.2c-1,0.5-2.1,0.8-3.3,0.7c-1.2,0-2.4-0.4-3.4-0.9c-0.8-0.4-1.4-1.1-1.6-2
				c-0.1-0.8,0.4-1.6,1.2-1.9c1-0.5,2.1-0.8,3.2-0.7c1.2,0,2.4,0.3,3.5,0.9c0.8,0.4,1.4,1.1,1.6,2C69.7,12.1,69.3,12.8,68.5,13.2z
				 M65.1,12.2c0.5,0,0.9,0,1.3-0.3c0.3-0.1,0.5-0.4,0.5-0.8c-0.1-0.4-0.3-0.7-0.7-0.8c-0.4-0.2-0.9-0.4-1.4-0.4
				c-0.5,0-0.9,0-1.3,0.3c-0.3,0.1-0.5,0.4-0.5,0.8c0.1,0.4,0.3,0.7,0.7,0.8C64.1,12.1,64.6,12.2,65.1,12.2L65.1,12.2z M76.2,15.6
				l-2.2,1.3L68.1,5.3L70.3,4L76.2,15.6z M82.9,11.8c-1,0.5-2.1,0.8-3.3,0.7c-1.2,0-2.4-0.4-3.4-0.9c-0.8-0.4-1.4-1.1-1.6-2
				C74.5,8.7,75,8,75.8,7.7c1-0.5,2.1-0.8,3.2-0.7c1.2,0,2.4,0.3,3.5,0.9c0.8,0.4,1.4,1.1,1.6,2C84.1,10.7,83.7,11.5,82.9,11.8
				L82.9,11.8z M79.5,10.9c0.5,0,0.9,0,1.3-0.3c0.3-0.1,0.5-0.4,0.4-0.8c-0.1-0.4-0.3-0.7-0.7-0.8c-0.4-0.2-0.9-0.4-1.4-0.4
				c-0.5,0-0.9,0-1.3,0.3c-0.3,0.1-0.5,0.4-0.5,0.8c0.1,0.4,0.3,0.7,0.7,0.8C78.5,10.7,79,10.9,79.5,10.9z"/>
		</g>
		<g id="Groupe_4423" transform="translate(44.954 26.935)" class="st22">
			<path id="Tracé_9744" class="st13" d="M51.8,37.4c-0.8,0.5-1.8,0.7-2.7,0.7c-1,0-2.1-0.2-3-0.8l1.4-0.8c0.4,0.2,0.9,0.3,1.4,0.3
				c0.4,0,0.9-0.1,1.3-0.3c0.3-0.2,0.5-0.4,0.5-0.6c0-0.2-0.1-0.4-0.5-0.6c-0.4-0.2-0.8-0.3-1.2-0.3c-0.4,0-0.8,0.1-1.2,0.3
				l-0.6,0.4l-1.4-0.8l0.6-0.3c0.3-0.2,0.5-0.4,0.5-0.6s-0.2-0.4-0.5-0.6c-0.3-0.2-0.6-0.3-1-0.3c-0.3,0-0.7,0.1-1,0.2
				c-0.3,0.2-0.5,0.4-0.5,0.7s0.2,0.5,0.6,0.7l-1.5,0.8c-0.9-0.5-1.3-1-1.3-1.6c0-0.7,0.4-1.2,1-1.5c0.8-0.4,1.6-0.6,2.5-0.6
				c0.9,0,1.7,0.2,2.4,0.6c0.3,0.2,0.6,0.4,0.8,0.8c0.2,0.2,0.2,0.5,0.2,0.8c0.5-0.1,1-0.1,1.5,0c0.5,0.1,1,0.3,1.5,0.5
				c0.8,0.4,1.1,0.9,1.2,1.5C53,36.5,52.6,37,51.8,37.4z"/>
			<path id="Tracé_9745" class="st13" d="M57.8,33.8l-9.1-5.3l1.4-0.8l9.1,5.3L57.8,33.8z"/>
			<path id="Tracé_9746" class="st13" d="M64.3,29.2c0,0.7-0.4,1.4-1,1.7c-0.9,0.5-1.9,0.7-2.9,0.6c-1.1,0-2.1-0.3-3.1-0.8
				c-0.7-0.3-1.3-1-1.4-1.8c-0.1-0.7,0.4-1.4,1-1.7c0.9-0.5,1.9-0.7,2.9-0.6c1.1,0,2.1,0.3,3.1,0.8C63.6,27.7,64.1,28.4,64.3,29.2z
				 M61.7,29.9c0.3-0.1,0.5-0.5,0.5-0.8c-0.1-0.4-0.4-0.7-0.8-0.9c-0.5-0.3-1-0.4-1.5-0.5c-0.5,0-1,0.1-1.4,0.3
				c-0.4,0.2-0.5,0.5-0.5,0.8c0.1,0.4,0.4,0.7,0.8,0.9c0.5,0.3,1,0.4,1.5,0.5C60.8,30.3,61.3,30.2,61.7,29.9L61.7,29.9z"/>
			<path id="Tracé_9747" class="st13" d="M69.4,27.2c-0.6,0.3-1.3,0.5-2,0.5c-0.8,0-1.5-0.2-2.2-0.6l-2.5-1.4l-1.1,0.6l-1.5-0.8
				l1.1-0.6l-1.7-1L61,23l1.7,1l1.5-0.9l1.5,0.8l-1.5,0.9l2.2,1.3c0.3,0.2,0.6,0.3,1,0.3c0.3,0,0.6-0.1,0.9-0.3
				c0.2-0.1,0.4-0.2,0.5-0.4l1.5,0.8C70,26.8,69.7,27,69.4,27.2z"/>
			<path id="Tracé_9748" class="st13" d="M73.2,25.1c-1,0.6-2.2,0.8-3.3,0.6l0-1.1c0.6,0.1,1.3,0,1.9-0.3c0.1-0.1,0.2-0.2,0.3-0.3
				c0-0.1,0-0.2-0.2-0.3c-0.1-0.1-0.3-0.1-0.5-0.1c-0.3,0-0.6,0.1-0.8,0.2l-0.5,0.2c-0.6,0.2-1.2,0.3-1.8,0.2
				c-0.6,0-1.1-0.2-1.6-0.5c-0.5-0.3-0.8-0.7-0.8-1.1c0.1-0.5,0.4-0.9,0.9-1.1c0.9-0.5,1.9-0.6,2.8-0.5L69.6,22
				c-0.5-0.1-1,0-1.4,0.2c-0.1,0.1-0.2,0.2-0.3,0.3c0,0.1,0,0.2,0.1,0.3c0.3,0.1,0.7,0.1,1,0l0.7-0.2c1.1-0.4,2.4-0.3,3.4,0.2
				c0.6,0.3,0.9,0.7,0.9,1.2C74,24.4,73.7,24.9,73.2,25.1z"/>
			<path id="Tracé_9749" class="st13" d="M81.1,20.5c-0.9,0.5-1.9,0.7-2.9,0.6c-1.1,0-2.1-0.3-3.1-0.8c-0.7-0.3-1.3-1-1.5-1.8
				c0-0.7,0.4-1.4,1.1-1.7c0.6-0.3,1.3-0.5,2-0.6c0.8-0.1,1.5,0,2.3,0.1l-0.5,1.2c-0.4-0.1-0.8-0.1-1.2-0.1c-0.4,0-0.7,0.1-1,0.3
				c-0.3,0.1-0.5,0.5-0.5,0.8c0.1,0.4,0.4,0.7,0.8,0.9c0.5,0.3,1,0.4,1.5,0.4c0.5,0,1-0.1,1.4-0.3c0.2-0.1,0.4-0.3,0.5-0.6
				c0-0.3,0-0.5-0.2-0.7l2-0.3c0.3,0.4,0.4,0.9,0.3,1.3C82,19.9,81.6,20.3,81.1,20.5z"/>
			<path id="Tracé_9750" class="st13" d="M84.4,18.4l-6.1-3.5l1.4-0.8l1,0.6c-0.2-0.2-0.3-0.5-0.2-0.7c0.1-0.3,0.3-0.5,0.5-0.6
				c0.2-0.1,0.4-0.2,0.6-0.2l1.7,1c-0.3,0.1-0.5,0.2-0.8,0.3c-0.3,0.2-0.5,0.4-0.4,0.7c0.2,0.4,0.5,0.7,0.9,0.9l2.9,1.7L84.4,18.4z"
				/>
			<path id="Tracé_9751" class="st13" d="M83.5,11.1l-1.2-2l1.7-1l0.6,2.3L83.5,11.1z M91,14.8c-0.9,0.5-1.9,0.7-2.9,0.6
				c-1.1,0-2.2-0.3-3.1-0.9c-0.7-0.3-1.3-1-1.5-1.8c0-0.7,0.4-1.4,1.1-1.7c0.8-0.4,1.7-0.7,2.6-0.6c1.3,0.1,2.5,0.5,3.5,1.2L86.8,14
				c0.4,0.2,0.9,0.3,1.4,0.3c0.4,0,0.9-0.1,1.3-0.4c0.6-0.4,0.8-0.8,0.6-1.2l2-0.1C92.4,13.4,92.1,14.2,91,14.8z M85.7,13.3l2.5-1.4
				c-0.4-0.2-0.8-0.2-1.2-0.2c-0.4,0-0.7,0.1-1,0.3c-0.3,0.1-0.5,0.4-0.5,0.6C85.3,12.9,85.5,13.2,85.7,13.3L85.7,13.3z"/>
			<path id="Tracé_9752" class="st13" d="M89.6,7.6l-1.2-2l1.7-1l0.6,2.3L89.6,7.6z M97.1,11.3c-0.9,0.5-1.9,0.7-2.9,0.6
				c-1.1,0-2.2-0.3-3.1-0.9c-0.7-0.3-1.3-1-1.5-1.8c-0.1-0.7,0.3-1.2,1.1-1.7C91.5,7.2,92.4,7,93.3,7c1,0,2.1,0.3,3,0.8
				c0.3,0.2,0.5,0.3,0.6,0.3l-3.9,2.3c0.4,0.2,0.9,0.3,1.4,0.3c0.4,0,0.9-0.1,1.3-0.4c0.6-0.4,0.8-0.8,0.6-1.2l2-0.1
				C98.5,9.9,98.2,10.7,97.1,11.3z M91.8,9.8l2.5-1.4c-0.4-0.2-0.8-0.2-1.2-0.2c-0.4,0-0.7,0.1-1,0.3c-0.3,0.1-0.5,0.4-0.5,0.6
				C91.4,9.4,91.6,9.7,91.8,9.8z"/>
			<path id="Tracé_9753" class="st13" d="M102.5,8.2c-1,0.6-2.2,0.8-3.3,0.6l0-1.1c0.6,0.1,1.3,0,1.9-0.3c0.1-0.1,0.2-0.2,0.3-0.3
				c0-0.1,0-0.2-0.2-0.3c-0.1-0.1-0.3-0.1-0.5-0.1c-0.3,0-0.6,0.1-0.8,0.2L99.4,7c-0.6,0.2-1.2,0.3-1.8,0.2C97,7.2,96.5,7,96,6.7
				c-0.5-0.3-0.8-0.7-0.8-1.1s0.3-0.8,0.9-1.1C97,4,98,3.9,99,4l-0.1,1.1c-0.5-0.1-1,0-1.4,0.2c-0.1,0.1-0.2,0.2-0.3,0.3
				c0,0.1,0,0.2,0.1,0.3c0.3,0.1,0.7,0.1,1,0l0.7-0.2c1.1-0.4,2.4-0.3,3.4,0.2c0.6,0.3,0.9,0.7,0.9,1.1S103,7.8,102.5,8.2z"/>
		</g>
	</g>
	<g id="Groupe_4421" transform="translate(1011.424 186.951)" class="st23">
		<path id="Tracé_9597" class="st24" d="M158.2,138.4L41.8,71.2L158.3,4l116.4,67.2L158.2,138.4z"/>
		<g id="Groupe_4410" transform="translate(110.119 81.672)" class="st22">
			<path id="Tracé_9682" class="st13" d="M51.8,45.2c-0.6,0.4-1.3,0.6-2,0.7c-0.7,0.1-1.5,0.1-2.3,0l0-1.3c0.5,0.1,1,0.1,1.5,0
				c0.4,0,0.8-0.2,1.2-0.4c0.3-0.2,0.5-0.4,0.5-0.6s-0.1-0.4-0.3-0.5C50.1,43,49.8,43,49.5,43c-0.4,0-0.9,0.1-1.3,0.2l-0.9,0.2
				c-1.4,0.5-3,0.3-4.3-0.4c-0.8-0.5-1.2-1-1.2-1.5c0-0.5,0.4-1,1.1-1.5c1.1-0.6,2.3-0.8,3.6-0.7l0.2,1.3c-0.7-0.1-1.4,0-2.1,0.3
				c-0.2,0.1-0.4,0.3-0.5,0.5c-0.1,0.2,0,0.4,0.3,0.5c0.3,0.1,0.6,0.2,0.9,0.2c0.5,0,0.9-0.1,1.4-0.2l0.9-0.2c1.5-0.4,3-0.3,4.3,0.5
				c0.8,0.4,1.2,0.9,1.1,1.5S52.6,44.8,51.8,45.2z"/>
			<path id="Tracé_9683" class="st13" d="M59,40c0,0.7-0.4,1.4-1,1.7c-0.9,0.5-1.9,0.7-2.9,0.6c-1.1,0-2.1-0.3-3.1-0.8
				c-0.7-0.3-1.3-1-1.4-1.8c0-0.7,0.4-1.4,1-1.7c0.9-0.5,1.9-0.7,2.9-0.6c1.1,0,2.1,0.3,3.1,0.8C58.3,38.6,58.8,39.2,59,40z
				 M56.4,40.8c0.3-0.1,0.5-0.5,0.5-0.8c-0.1-0.4-0.4-0.7-0.8-0.9c-0.5-0.3-1-0.4-1.5-0.5c-0.5,0-1,0-1.4,0.3
				c-0.4,0.2-0.5,0.5-0.5,0.8c0.1,0.4,0.4,0.7,0.8,0.9c0.5,0.3,1,0.4,1.5,0.5C55.5,41.1,55.9,41,56.4,40.8L56.4,40.8z"/>
			<path id="Tracé_9684" class="st13" d="M61.6,39.4l-9.1-5.3l1.4-0.8l9.1,5.3L61.6,39.4z"/>
			<path id="Tracé_9685" class="st13" d="M66.5,36.7c-0.7,0.4-1.4,0.5-2.2,0.4c-0.9-0.1-1.7-0.4-2.5-0.8l-3.5-2l1.4-0.8l3.2,1.9
				c0.7,0.5,1.6,0.6,2.3,0.3c0.3-0.2,0.5-0.4,0.4-0.7c-0.2-0.4-0.6-0.7-1-0.9l-3-1.7l1.4-0.8l6.1,3.5l-1.4,0.8l-0.7-0.4
				C67.3,35.9,67.1,36.4,66.5,36.7z"/>
			<path id="Tracé_9686" class="st13" d="M73.3,32.8c-0.6,0.3-1.3,0.5-2,0.5c-0.8,0-1.5-0.2-2.2-0.6l-2.5-1.4l-1.1,0.6L64,31
				l1.1-0.6l-1.7-1l1.4-0.8l1.7,1l1.5-0.9l1.5,0.8L68,30.4l2.2,1.3c0.3,0.2,0.6,0.3,1,0.3c0.3,0,0.6-0.1,0.9-0.3
				c0.2-0.1,0.4-0.2,0.5-0.4l1.5,0.9C73.8,32.4,73.6,32.6,73.3,32.8z"/>
			<path id="Tracé_9687" class="st13" d="M68.8,27.1c-0.3,0.2-0.6,0.2-1,0.2c-0.4,0-0.7-0.1-1-0.3c-0.2-0.1-0.4-0.3-0.5-0.6
				c0-0.2,0.1-0.5,0.3-0.6c0.3-0.2,0.6-0.2,1-0.2c0.4,0,0.7,0.1,1,0.3c0.2,0.1,0.4,0.3,0.5,0.6C69.1,26.8,69,27,68.8,27.1z
				 M75.1,31.6l-6.1-3.5l1.4-0.8l6.1,3.5L75.1,31.6z"/>
			<path id="Tracé_9688" class="st13" d="M81.6,27c0,0.7-0.4,1.4-1,1.7c-0.9,0.5-1.9,0.7-2.9,0.6c-1.1,0-2.1-0.3-3.1-0.8
				c-0.7-0.3-1.3-1-1.4-1.8c0-0.7,0.4-1.4,1-1.7c0.9-0.5,1.9-0.7,2.9-0.6c1.1,0,2.1,0.3,3.1,0.8C80.9,25.5,81.4,26.2,81.6,27z
				 M79,27.7c0.3-0.1,0.5-0.5,0.5-0.8c-0.1-0.4-0.4-0.7-0.8-0.9c-0.5-0.3-1-0.4-1.5-0.5c-0.5,0-1,0-1.4,0.3
				c-0.4,0.2-0.5,0.5-0.5,0.8c0.1,0.4,0.4,0.7,0.8,0.9c0.5,0.3,1,0.4,1.5,0.5C78.1,28.1,78.5,28,79,27.7L79,27.7z"/>
			<path id="Tracé_9689" class="st13" d="M84.2,26.4l-6.1-3.5l1.4-0.8l0.7,0.4c-0.2-0.5,0-1,0.7-1.3c0.7-0.4,1.4-0.5,2.2-0.4
				c0.9,0.1,1.7,0.4,2.5,0.8l3.6,2.1l-1.4,0.8l-3.3-1.9c-0.4-0.2-0.8-0.4-1.3-0.5c-0.4-0.1-0.7,0-1.1,0.2c-0.4,0.2-0.5,0.5-0.4,0.7
				s0.4,0.6,1,0.9l3,1.7L84.2,26.4z"/>
			<path id="Tracé_9690" class="st13" d="M99.7,17.4l-1.3,0.8l-9.5-1l5.6,3.3l-1.5,0.9l-8.6-5l1.3-0.8l9.5,1l-5.6-3.3l1.5-0.9
				L99.7,17.4z"/>
			<path id="Tracé_9691" class="st13" d="M97.6,12.9c-0.5,0.3-1.1,0.4-1.7,0.3c-0.6,0-1.2-0.2-1.8-0.5c-0.4-0.2-0.8-0.6-0.9-1
				c0-0.4,0.2-0.8,0.6-1c0.5-0.3,1.1-0.4,1.7-0.3c0.6,0,1.2,0.2,1.8,0.5c0.4,0.2,0.7,0.6,0.9,1C98.2,12.4,98,12.8,97.6,12.9z
				 M96.5,12.3c0.2-0.1,0.3-0.2,0.2-0.4c0-0.2-0.2-0.3-0.3-0.4c-0.2-0.1-0.5-0.2-0.7-0.2c-0.2,0-0.5,0-0.7,0.1
				c-0.2,0.1-0.3,0.2-0.3,0.4c0,0.2,0.2,0.3,0.3,0.4c0.2,0.1,0.5,0.2,0.7,0.2C96,12.4,96.3,12.4,96.5,12.3L96.5,12.3z"/>
			<path id="Tracé_9692" class="st13" d="M106.5,13.5l-7-4l-1.6,0.9l-0.6-1.6l2-1.1l8.6,5L106.5,13.5z"/>
			<path id="Tracé_9693" class="st13" d="M110.9,11l-1.6,0.9l-3.6-6l-3.5,2L100.5,7l5.2-3l1.4,0.8L110.9,11z"/>
		</g>
		<g id="Groupe_4417" transform="translate(44.954 26.935)" class="st22">
			<path id="Tracé_9744-2" class="st13" d="M51.8,37.4c-0.8,0.5-1.8,0.7-2.7,0.7c-1,0-2.1-0.2-3-0.8l1.4-0.8
				c0.4,0.2,0.9,0.3,1.4,0.3c0.4,0,0.9-0.1,1.3-0.3c0.3-0.2,0.5-0.4,0.5-0.6c0-0.2-0.1-0.4-0.5-0.6c-0.4-0.2-0.8-0.3-1.2-0.3
				c-0.4,0-0.8,0.1-1.2,0.3l-0.6,0.4l-1.4-0.8l0.6-0.3c0.3-0.2,0.5-0.4,0.5-0.6s-0.2-0.4-0.5-0.6c-0.3-0.2-0.6-0.3-1-0.3
				c-0.3,0-0.7,0.1-1,0.2c-0.3,0.2-0.5,0.4-0.5,0.7s0.2,0.5,0.6,0.7l-1.5,0.8c-0.9-0.5-1.3-1-1.3-1.6c0-0.7,0.4-1.2,1-1.5
				c0.8-0.4,1.6-0.6,2.5-0.6c0.9,0,1.7,0.2,2.4,0.6c0.3,0.2,0.6,0.4,0.8,0.8c0.2,0.2,0.2,0.5,0.2,0.8c0.5-0.1,1-0.1,1.5,0
				c0.5,0.1,1,0.3,1.5,0.5c0.8,0.4,1.1,0.9,1.2,1.5C53,36.5,52.6,37,51.8,37.4z"/>
			<path id="Tracé_9745-2" class="st13" d="M57.8,33.8l-9.1-5.3l1.4-0.8l9.1,5.3L57.8,33.8z"/>
			<path id="Tracé_9746-2" class="st13" d="M64.3,29.2c0,0.7-0.4,1.4-1,1.7c-0.9,0.5-1.9,0.7-2.9,0.6c-1.1,0-2.1-0.3-3.1-0.8
				c-0.7-0.3-1.3-1-1.4-1.8c-0.1-0.7,0.4-1.4,1-1.7c0.9-0.5,1.9-0.7,2.9-0.6c1.1,0,2.1,0.3,3.1,0.8C63.6,27.7,64.1,28.4,64.3,29.2z
				 M61.7,29.9c0.3-0.1,0.5-0.5,0.5-0.8c-0.1-0.4-0.4-0.7-0.8-0.9c-0.5-0.3-1-0.4-1.5-0.5c-0.5,0-1,0.1-1.4,0.3
				c-0.4,0.2-0.5,0.5-0.5,0.8c0.1,0.4,0.4,0.7,0.8,0.9c0.5,0.3,1,0.4,1.5,0.5C60.8,30.3,61.3,30.2,61.7,29.9L61.7,29.9z"/>
			<path id="Tracé_9747-2" class="st13" d="M69.4,27.2c-0.6,0.3-1.3,0.5-2,0.5c-0.8,0-1.5-0.2-2.2-0.6l-2.5-1.4l-1.1,0.6l-1.5-0.8
				l1.1-0.6l-1.7-1L61,23l1.7,1l1.5-0.9l1.5,0.8l-1.5,0.9l2.2,1.3c0.3,0.2,0.6,0.3,1,0.3c0.3,0,0.6-0.1,0.9-0.3
				c0.2-0.1,0.4-0.2,0.5-0.4l1.5,0.8C70,26.8,69.7,27,69.4,27.2z"/>
			<path id="Tracé_9748-2" class="st13" d="M73.2,25.1c-1,0.6-2.2,0.8-3.3,0.6l0-1.1c0.6,0.1,1.3,0,1.9-0.3
				c0.1-0.1,0.2-0.2,0.3-0.3c0-0.1,0-0.2-0.2-0.3c-0.1-0.1-0.3-0.1-0.5-0.1c-0.3,0-0.6,0.1-0.8,0.2l-0.5,0.2
				c-0.6,0.2-1.2,0.3-1.8,0.2c-0.6,0-1.1-0.2-1.6-0.5c-0.5-0.3-0.8-0.7-0.8-1.1c0.1-0.5,0.4-0.9,0.9-1.1c0.9-0.5,1.9-0.6,2.8-0.5
				L69.6,22c-0.5-0.1-1,0-1.4,0.2c-0.1,0.1-0.2,0.2-0.3,0.3c0,0.1,0,0.2,0.1,0.3c0.3,0.1,0.7,0.1,1,0l0.7-0.2
				c1.1-0.4,2.4-0.3,3.4,0.2c0.6,0.3,0.9,0.7,0.9,1.2C74,24.4,73.7,24.9,73.2,25.1z"/>
			<path id="Tracé_9749-2" class="st13" d="M81.1,20.5c-0.9,0.5-1.9,0.7-2.9,0.6c-1.1,0-2.1-0.3-3.1-0.8c-0.7-0.3-1.3-1-1.5-1.8
				c0-0.7,0.4-1.4,1.1-1.7c0.6-0.3,1.3-0.5,2-0.6c0.8-0.1,1.5,0,2.3,0.1l-0.5,1.2c-0.4-0.1-0.8-0.1-1.2-0.1c-0.4,0-0.7,0.1-1,0.3
				c-0.3,0.1-0.5,0.5-0.5,0.8c0.1,0.4,0.4,0.7,0.8,0.9c0.5,0.3,1,0.4,1.5,0.4c0.5,0,1-0.1,1.4-0.3c0.2-0.1,0.4-0.3,0.5-0.6
				c0-0.3,0-0.5-0.2-0.7l2-0.3c0.3,0.4,0.4,0.9,0.3,1.3C82,19.9,81.6,20.3,81.1,20.5z"/>
			<path id="Tracé_9750-2" class="st13" d="M84.4,18.4l-6.1-3.5l1.4-0.8l1,0.6c-0.2-0.2-0.3-0.5-0.2-0.7c0.1-0.3,0.3-0.5,0.5-0.6
				c0.2-0.1,0.4-0.2,0.6-0.2l1.7,1c-0.3,0.1-0.5,0.2-0.8,0.3c-0.3,0.2-0.5,0.4-0.4,0.7c0.2,0.4,0.5,0.7,0.9,0.9l2.9,1.7L84.4,18.4z"
				/>
			<path id="Tracé_9751-2" class="st13" d="M83.5,11.1l-1.2-2l1.7-1l0.6,2.3L83.5,11.1z M91,14.8c-0.9,0.5-1.9,0.7-2.9,0.6
				c-1.1,0-2.2-0.3-3.1-0.9c-0.7-0.3-1.3-1-1.5-1.8c0-0.7,0.4-1.4,1.1-1.7c0.8-0.4,1.7-0.7,2.6-0.6c1.3,0.1,2.5,0.5,3.5,1.2L86.8,14
				c0.4,0.2,0.9,0.3,1.4,0.3c0.4,0,0.9-0.1,1.3-0.4c0.6-0.4,0.8-0.8,0.6-1.2l2-0.1C92.4,13.4,92.1,14.2,91,14.8z M85.7,13.3l2.5-1.4
				c-0.4-0.2-0.8-0.2-1.2-0.2c-0.4,0-0.7,0.1-1,0.3c-0.3,0.1-0.5,0.4-0.5,0.6C85.3,12.9,85.5,13.2,85.7,13.3L85.7,13.3z"/>
			<path id="Tracé_9752-2" class="st13" d="M89.6,7.6l-1.2-2l1.7-1l0.6,2.3L89.6,7.6z M97.1,11.3c-0.9,0.5-1.9,0.7-2.9,0.6
				c-1.1,0-2.2-0.3-3.1-0.9c-0.7-0.3-1.3-1-1.5-1.8c-0.1-0.7,0.3-1.2,1.1-1.7C91.5,7.2,92.4,7,93.3,7c1,0,2.1,0.3,3,0.8
				c0.3,0.2,0.5,0.3,0.6,0.3l-3.9,2.3c0.4,0.2,0.9,0.3,1.4,0.3c0.4,0,0.9-0.1,1.3-0.4c0.6-0.4,0.8-0.8,0.6-1.2l2-0.1
				C98.5,9.9,98.2,10.7,97.1,11.3z M91.8,9.8l2.5-1.4c-0.4-0.2-0.8-0.2-1.2-0.2c-0.4,0-0.7,0.1-1,0.3c-0.3,0.1-0.5,0.4-0.5,0.6
				C91.4,9.4,91.6,9.7,91.8,9.8z"/>
			<path id="Tracé_9753-2" class="st13" d="M102.5,8.2c-1,0.6-2.2,0.8-3.3,0.6l0-1.1c0.6,0.1,1.3,0,1.9-0.3
				c0.1-0.1,0.2-0.2,0.3-0.3c0-0.1,0-0.2-0.2-0.3c-0.1-0.1-0.3-0.1-0.5-0.1c-0.3,0-0.6,0.1-0.8,0.2L99.4,7c-0.6,0.2-1.2,0.3-1.8,0.2
				C97,7.2,96.5,7,96,6.7c-0.5-0.3-0.8-0.7-0.8-1.1s0.3-0.8,0.9-1.1C97,4,98,3.9,99,4l-0.1,1.1c-0.5-0.1-1,0-1.4,0.2
				c-0.1,0.1-0.2,0.2-0.3,0.3c0,0.1,0,0.2,0.1,0.3c0.3,0.1,0.7,0.1,1,0l0.7-0.2c1.1-0.4,2.4-0.3,3.4,0.2c0.6,0.3,0.9,0.7,0.9,1.1
				S103,7.8,102.5,8.2z"/>
		</g>
		<g id="Groupe_4418" transform="translate(70.151 37.361)" class="st22">
			<path id="Tracé_9754" class="st25" d="M44.4,31l-2.2-1.3l2.4-1.4l-2.8-1.6l1.9-1.1l2.8,1.6l2.4-1.4l2.2,1.3l-2.4,1.4l2.8,1.6
				l-1.9,1.1l-2.8-1.6L44.4,31z"/>
			<path id="Tracé_9755" class="st25" d="M61.6,23l2.5,1.4l-7.6,4.4l-0.9-0.5c-0.3-0.2-0.6-0.4-0.9-0.6c-0.2-0.2-0.4-0.4-0.6-0.6
				c-0.2-0.2-0.3-0.4-0.4-0.7c-0.1-0.3-0.2-0.5-0.2-0.6c0-0.2-0.1-0.5,0-0.7c0-0.3,0-0.5,0.1-0.7s0.1-0.4,0.1-0.7s0.1-0.5,0.1-0.6
				c0.3-1,0-2-0.9-2.6c-0.5-0.3-1-0.4-1.6-0.5c-0.5,0-1.1,0.1-1.6,0.4c-0.5,0.3-0.7,0.6-0.7,1c0.1,0.5,0.4,0.8,0.8,1l-2.2,1.3
				c-1.3-0.7-1.9-1.5-2-2.4c0-0.9,0.5-1.7,1.6-2.3c1.1-0.6,2.4-0.9,3.6-0.9c1.4,0,2.8,0.4,4,1.1c0.8,0.4,1.5,1,2,1.8
				c0.3,0.7,0.4,1.5,0.2,2.2c0,0.1,0,0.3-0.1,0.6c-0.1,0.3-0.1,0.6-0.1,0.7c0,0.2,0,0.4,0,0.6c0,0.2,0.1,0.4,0.2,0.6L61.6,23z"/>
			<path id="Tracé_9756" class="st25" d="M71.3,19.1c0,0.9-0.5,1.7-1.7,2.3c-1.2,0.7-2.6,1-4,1c-1.4,0-2.9-0.4-4.1-1.1
				c-1.4-0.8-2-1.7-1.7-2.6c-1.2,0-2.5-0.3-3.6-0.9c-1-0.6-1.5-1.3-1.5-2c0-0.8,0.5-1.4,1.5-2c2.2-1.2,4.8-1.2,7,0
				c1,0.6,1.6,1.3,1.6,2c1.6-0.2,3.2,0.2,4.6,1C70.5,17.1,71.2,18,71.3,19.1z M60.1,17c0.5,0,1-0.1,1.4-0.3c0.3-0.1,0.6-0.5,0.6-0.8
				c-0.1-0.4-0.3-0.7-0.7-0.8c-0.4-0.3-1-0.4-1.5-0.4c-0.5,0-1,0.1-1.4,0.3c-0.3,0.1-0.6,0.5-0.6,0.8c0.1,0.4,0.3,0.7,0.7,0.8
				C59.1,16.9,59.6,17,60.1,17L60.1,17z M67.4,20.1c0.5-0.3,0.8-0.7,0.7-1.1c-0.1-0.5-0.4-0.9-0.9-1.1c-0.6-0.3-1.2-0.5-1.8-0.5
				c-0.6,0-1.3,0.1-1.8,0.4c-0.5,0.3-0.8,0.7-0.7,1.1c0.1,0.5,0.4,0.9,0.9,1.1c0.6,0.3,1.2,0.5,1.8,0.5
				C66.2,20.5,66.8,20.4,67.4,20.1L67.4,20.1z"/>
			<path id="Tracé_9757" class="st25" d="M71.8,13.2c-1,0.5-2.1,0.8-3.3,0.7c-1.2,0-2.4-0.3-3.4-0.9c-0.8-0.4-1.4-1.1-1.6-2
				c-0.1-0.8,0.4-1.6,1.2-1.9c1-0.5,2.1-0.8,3.2-0.7c1.2,0,2.4,0.3,3.5,0.9c0.8,0.4,1.4,1.1,1.6,2C73,12.1,72.5,12.8,71.8,13.2z
				 M68.3,12.2c0.5,0,0.9,0,1.3-0.3c0.3-0.1,0.5-0.4,0.5-0.8c-0.1-0.4-0.3-0.7-0.7-0.8C69,10.1,68.5,10,68,10c-0.5,0-0.9,0-1.3,0.3
				c-0.3,0.1-0.5,0.4-0.5,0.8c0.1,0.4,0.3,0.7,0.7,0.8C67.3,12.1,67.8,12.2,68.3,12.2L68.3,12.2z M79.4,15.6l-2.2,1.3L71.3,5.3
				L73.6,4L79.4,15.6z M86.2,11.8c-1,0.5-2.1,0.8-3.3,0.7c-1.2,0-2.4-0.4-3.4-0.9c-0.8-0.4-1.4-1.1-1.6-2C77.8,8.7,78.3,8,79,7.7
				c1-0.5,2.1-0.8,3.2-0.7c1.2,0,2.4,0.3,3.5,0.9c0.8,0.4,1.4,1.1,1.6,2C87.4,10.8,86.9,11.5,86.2,11.8L86.2,11.8z M82.7,10.9
				c0.5,0,0.9,0,1.3-0.3c0.3-0.1,0.5-0.4,0.4-0.8c-0.1-0.4-0.3-0.7-0.7-0.8c-0.4-0.2-0.9-0.4-1.4-0.4c-0.5,0-0.9,0-1.3,0.3
				c-0.3,0.1-0.5,0.4-0.5,0.8c0.1,0.4,0.3,0.7,0.7,0.8C81.8,10.7,82.3,10.8,82.7,10.9L82.7,10.9z"/>
		</g>
	</g>
	<g id="Groupe_4420" transform="translate(1011.424 134.82)" class="st22">
		<path id="Tracé_9598" class="st26" d="M158.2,138.4L41.8,71.2L158.3,4l116.4,67.2L158.2,138.4z"/>
		<g id="Groupe_4411" transform="translate(110.119 84.279)" class="st27">
			<path id="Tracé_9694" class="st18" d="M51.8,42.5c-0.6,0.4-1.3,0.6-2,0.7c-0.7,0.1-1.5,0.1-2.3,0l0-1.3c0.5,0.1,1,0.1,1.5,0
				c0.4,0,0.8-0.2,1.2-0.4c0.3-0.2,0.5-0.4,0.5-0.6s-0.1-0.4-0.3-0.5c-0.3-0.1-0.6-0.2-0.9-0.2c-0.4,0-0.9,0.1-1.3,0.2l-0.9,0.2
				c-1.4,0.5-3,0.3-4.3-0.4c-0.8-0.5-1.2-1-1.2-1.5s0.4-1,1.1-1.5c1.1-0.6,2.3-0.8,3.6-0.7l0.2,1.3c-0.7-0.1-1.4,0-2.1,0.3
				c-0.2,0.1-0.4,0.3-0.5,0.5c-0.1,0.2,0,0.4,0.3,0.5c0.3,0.1,0.6,0.2,0.9,0.2c0.5,0,0.9-0.1,1.4-0.2l0.9-0.2c1.5-0.4,3-0.3,4.3,0.5
				c0.8,0.4,1.2,0.9,1.1,1.5C53,41.5,52.6,42,51.8,42.5z"/>
			<path id="Tracé_9695" class="st18" d="M59,37.3c0,0.7-0.4,1.4-1,1.7C57,39.4,56,39.6,55,39.5c-1.1,0-2.1-0.3-3.1-0.8
				c-0.7-0.3-1.3-1-1.4-1.8c0-0.7,0.4-1.4,1-1.7c0.9-0.5,1.9-0.7,2.9-0.6c1.1,0,2.1,0.3,3.1,0.8C58.3,35.8,58.8,36.5,59,37.3z
				 M56.4,38c0.3-0.1,0.5-0.5,0.5-0.8c-0.1-0.4-0.4-0.7-0.8-0.9c-0.5-0.3-1-0.4-1.5-0.5c-0.5,0-1,0-1.4,0.3
				c-0.4,0.2-0.5,0.5-0.5,0.8c0.1,0.4,0.4,0.7,0.8,0.9c0.5,0.3,1,0.4,1.5,0.5C55.5,38.4,55.9,38.3,56.4,38L56.4,38z"/>
			<path id="Tracé_9696" class="st18" d="M61.6,36.6l-9.1-5.3l1.4-0.8l9.1,5.3L61.6,36.6z"/>
			<path id="Tracé_9697" class="st18" d="M66.5,34c-0.7,0.4-1.4,0.5-2.2,0.4c-0.9-0.1-1.7-0.4-2.5-0.8l-3.5-2l1.4-0.8l3.2,1.9
				c0.7,0.5,1.6,0.6,2.3,0.3c0.3-0.2,0.5-0.4,0.4-0.7c-0.2-0.4-0.6-0.7-1-0.9l-3-1.7l1.4-0.8l6.1,3.5l-1.4,0.8l-0.7-0.4
				C67.3,33.2,67.1,33.6,66.5,34z"/>
			<path id="Tracé_9698" class="st18" d="M73.3,30c-0.6,0.3-1.3,0.5-2,0.5c-0.8,0-1.5-0.2-2.2-0.6l-2.5-1.4l-1.1,0.6L64,28.2
				l1.1-0.6l-1.7-1l1.4-0.8l1.7,1l1.5-0.9l1.5,0.8L68,27.6l2.2,1.3c0.3,0.2,0.7,0.3,1,0.3c0.3,0,0.6-0.1,0.9-0.3
				c0.2-0.1,0.4-0.2,0.5-0.4l1.5,0.9C73.8,29.6,73.5,29.9,73.3,30z"/>
			<path id="Tracé_9699" class="st18" d="M68.8,24.3c-0.3,0.2-0.6,0.2-1,0.2c-0.4,0-0.7-0.1-1-0.3c-0.2-0.1-0.4-0.3-0.5-0.6
				c0-0.2,0.1-0.5,0.3-0.6c0.3-0.2,0.6-0.2,1-0.2c0.4,0,0.7,0.1,1,0.3c0.2,0.1,0.4,0.3,0.5,0.6C69.1,24,69,24.2,68.8,24.3z
				 M75.1,28.8L69,25.3l1.4-0.8l6.1,3.5L75.1,28.8z"/>
			<path id="Tracé_9700" class="st18" d="M81.6,24.2c0,0.7-0.4,1.4-1,1.7c-0.9,0.5-1.9,0.7-2.9,0.6c-1.1,0-2.1-0.3-3.1-0.8
				c-0.7-0.3-1.3-1-1.4-1.8c0-0.7,0.4-1.4,1-1.7c0.9-0.5,1.9-0.7,2.9-0.6c1.1,0,2.1,0.3,3.1,0.8C80.9,22.8,81.4,23.4,81.6,24.2z
				 M79,25c0.3-0.1,0.5-0.5,0.5-0.8c-0.1-0.4-0.4-0.7-0.8-0.9c-0.5-0.3-1-0.4-1.5-0.5c-0.5,0-1,0-1.4,0.3c-0.4,0.2-0.5,0.5-0.5,0.8
				c0.1,0.4,0.4,0.7,0.8,0.9c0.5,0.3,1,0.4,1.5,0.5C78,25.3,78.5,25.2,79,25L79,25z"/>
			<path id="Tracé_9701" class="st18" d="M84.2,23.6l-6.1-3.5l1.4-0.8l0.7,0.4c-0.2-0.5,0-1,0.7-1.3c0.7-0.4,1.4-0.5,2.2-0.4
				c0.9,0.1,1.7,0.4,2.5,0.8l3.6,2.1l-1.4,0.8l-3.3-1.9c-0.4-0.2-0.8-0.4-1.3-0.5c-0.4-0.1-0.7,0-1.1,0.2c-0.4,0.2-0.5,0.4-0.4,0.7
				c0.1,0.3,0.4,0.6,1,0.9l3,1.7L84.2,23.6z"/>
			<path id="Tracé_9702" class="st18" d="M99.7,14.6l-1.3,0.8l-9.5-1l5.6,3.3l-1.5,0.9l-8.6-5l1.3-0.8l9.5,1l-5.6-3.3l1.5-0.9
				L99.7,14.6z"/>
			<path id="Tracé_9703" class="st18" d="M97.6,10.2c-0.5,0.3-1.1,0.4-1.7,0.3c-0.6,0-1.2-0.2-1.8-0.5c-0.4-0.2-0.8-0.6-0.9-1
				c0-0.4,0.2-0.8,0.6-1c0.5-0.3,1.1-0.4,1.7-0.3c0.6,0,1.2,0.2,1.8,0.5c0.4,0.2,0.7,0.6,0.9,1C98.2,9.6,98,10,97.6,10.2z M96.5,9.5
				c0.2-0.1,0.3-0.2,0.2-0.4c0-0.2-0.2-0.3-0.3-0.4c-0.2-0.1-0.5-0.2-0.7-0.2c-0.2,0-0.5,0-0.7,0.1c-0.2,0.1-0.3,0.2-0.3,0.4
				c0,0.2,0.2,0.3,0.3,0.4c0.2,0.1,0.5,0.2,0.7,0.2C96,9.7,96.3,9.6,96.5,9.5L96.5,9.5z"/>
			<path id="Tracé_9704" class="st18" d="M107.6,10.2c-0.8,0.4-1.7,0.6-2.6,0.6c-0.9,0-1.9-0.2-2.7-0.6l1.5-0.9
				c0.4,0.1,0.7,0.2,1.1,0.2c0.4,0,0.7-0.1,1-0.3c0.4-0.2,0.5-0.5,0.5-0.7c-0.1-0.3-0.3-0.6-0.6-0.7c-0.4-0.2-0.8-0.4-1.3-0.4
				c-0.4,0-0.8,0.1-1.2,0.3c-0.2,0.1-0.4,0.3-0.5,0.6c0,0.2,0.1,0.5,0.2,0.6l-1.7,0.5l-4.1-3.3l3.6-2.1l1.6,0.9L100,6.4l1.3,1.1
				c0.1-0.3,0.4-0.6,0.7-0.8c0.8-0.4,1.6-0.6,2.5-0.5c1,0.1,1.9,0.4,2.8,0.9c0.9,0.5,1.3,1,1.3,1.6S108.4,9.8,107.6,10.2z"/>
		</g>
		<g id="Groupe_4415" transform="translate(44.954 26.935)" class="st27">
			<path id="Tracé_9730" class="st13" d="M52.5,34.9l1.6,0.9l-5.1,2.9l-0.6-0.3c-0.2-0.1-0.4-0.3-0.6-0.4c-0.2-0.1-0.3-0.3-0.4-0.4
				c-0.1-0.1-0.2-0.3-0.2-0.5c-0.1-0.2-0.1-0.3-0.1-0.4c0-0.2,0-0.3,0-0.5c0-0.2,0-0.3,0-0.4s0-0.2,0.1-0.5s0.1-0.3,0.1-0.4
				c0.2-0.6,0-1.3-0.6-1.7c-0.3-0.2-0.7-0.3-1.1-0.3c-0.4,0-0.7,0.1-1,0.2c-0.3,0.2-0.5,0.4-0.5,0.7s0.2,0.5,0.6,0.7l-1.5,0.8
				c-0.8-0.5-1.3-1-1.3-1.6s0.3-1.1,1.1-1.5c0.7-0.4,1.6-0.6,2.4-0.6c0.9,0,1.9,0.3,2.7,0.7c0.5,0.3,1,0.7,1.3,1.2
				c0.2,0.5,0.2,1,0.1,1.5c0,0.1,0,0.2-0.1,0.4s-0.1,0.4-0.1,0.5c0,0.1,0,0.3,0,0.4c0,0.1,0.1,0.3,0.2,0.4L52.5,34.9z"/>
			<path id="Tracé_9731" class="st13" d="M57.8,33.8l-9.1-5.3l1.4-0.8l9.1,5.3L57.8,33.8z"/>
			<path id="Tracé_9732" class="st13" d="M64.2,29.2c0,0.7-0.4,1.4-1,1.7c-0.9,0.5-1.9,0.7-2.9,0.6c-1.1,0-2.1-0.3-3.1-0.8
				c-0.7-0.3-1.3-1-1.4-1.8c0-0.7,0.4-1.4,1-1.7c0.9-0.5,1.9-0.7,2.9-0.6c1.1,0,2.1,0.3,3.1,0.8C63.5,27.7,64,28.4,64.2,29.2z
				 M61.6,29.9c0.3-0.1,0.5-0.5,0.5-0.8c-0.1-0.4-0.4-0.7-0.8-0.9c-0.5-0.3-1-0.4-1.5-0.5c-0.5,0-1,0-1.4,0.3
				c-0.4,0.2-0.5,0.5-0.5,0.8c0.1,0.4,0.4,0.7,0.8,0.9c0.5,0.3,1,0.4,1.5,0.5C60.7,30.3,61.2,30.2,61.6,29.9L61.6,29.9z"/>
			<path id="Tracé_9733" class="st13" d="M69.3,27.2c-0.6,0.3-1.3,0.5-2,0.5c-0.8,0-1.5-0.2-2.2-0.6l-2.5-1.4l-1.1,0.6l-1.5-0.8
				l1.1-0.6l-1.7-1l1.4-0.8l1.7,1l1.5-0.9l1.5,0.8l-1.5,0.9l2.2,1.2c0.3,0.2,0.6,0.3,1,0.3c0.3,0,0.6-0.1,0.9-0.3
				c0.2-0.1,0.4-0.2,0.5-0.4l1.5,0.8C69.9,26.8,69.6,27,69.3,27.2z"/>
			<path id="Tracé_9734" class="st13" d="M73.1,25.1c-1,0.6-2.2,0.8-3.3,0.6l0-1.1c0.6,0.1,1.3,0,1.9-0.3c0.1-0.1,0.2-0.2,0.3-0.3
				c0-0.1,0-0.2-0.2-0.3c-0.1-0.1-0.3-0.1-0.5-0.1c-0.3,0-0.6,0.1-0.8,0.2L70,23.9c-0.6,0.2-1.2,0.3-1.8,0.2c-0.6,0-1.1-0.2-1.6-0.5
				c-0.5-0.3-0.8-0.7-0.8-1.1c0-0.4,0.3-0.8,0.9-1.1c0.9-0.5,1.9-0.6,2.8-0.5L69.6,22c-0.5-0.1-1,0-1.4,0.2
				c-0.1,0.1-0.2,0.2-0.3,0.3c0,0.1,0,0.2,0.1,0.3c0.3,0.1,0.7,0.1,1,0l0.7-0.2c1.1-0.4,2.4-0.3,3.4,0.2c0.6,0.3,0.9,0.7,0.9,1.2
				S73.7,24.7,73.1,25.1z"/>
			<path id="Tracé_9735" class="st13" d="M81,20.5c-0.9,0.5-1.9,0.7-2.9,0.6c-1.1,0-2.1-0.3-3.1-0.8c-0.7-0.3-1.3-1-1.5-1.8
				c0-0.7,0.4-1.4,1.1-1.7c0.6-0.3,1.3-0.5,2-0.6c0.8-0.1,1.5,0,2.3,0.1l-0.5,1.2c-0.4-0.1-0.8-0.1-1.2-0.1c-0.4,0-0.7,0.1-1,0.3
				c-0.3,0.1-0.5,0.5-0.5,0.8c0.1,0.4,0.4,0.7,0.8,0.9c0.5,0.3,1,0.4,1.5,0.4c0.5,0,1-0.1,1.4-0.3c0.2-0.1,0.4-0.3,0.5-0.6
				c0-0.3,0-0.5-0.2-0.7l2-0.3c0.3,0.4,0.4,0.9,0.3,1.3C81.9,19.9,81.5,20.3,81,20.5z"/>
			<path id="Tracé_9736" class="st13" d="M84.3,18.4l-6.1-3.5l1.4-0.8l1,0.6c-0.2-0.2-0.3-0.5-0.2-0.7c0.1-0.3,0.3-0.5,0.5-0.6
				c0.2-0.1,0.4-0.2,0.6-0.2l1.7,1c-0.3,0.1-0.5,0.2-0.8,0.3c-0.3,0.2-0.5,0.4-0.4,0.7s0.4,0.6,0.9,0.9l2.9,1.7L84.3,18.4z"/>
			<path id="Tracé_9737" class="st13" d="M83.5,11.1l-1.2-2l1.7-1l0.6,2.3L83.5,11.1z M90.9,14.8C90,15.3,89,15.5,88,15.5
				c-1.1,0-2.2-0.3-3.1-0.9c-0.7-0.3-1.3-1-1.5-1.8c-0.1-0.7,0.3-1.2,1.1-1.7c0.8-0.4,1.7-0.6,2.6-0.6c1,0,2.1,0.3,3,0.8
				c0.3,0.2,0.5,0.3,0.6,0.3L86.7,14c0.4,0.2,0.9,0.3,1.4,0.3c0.4,0,0.9-0.1,1.3-0.4c0.6-0.4,0.8-0.8,0.6-1.2l2-0.1
				C92.3,13.4,92,14.2,90.9,14.8L90.9,14.8z M85.6,13.3l2.5-1.4c-0.4-0.2-0.8-0.2-1.2-0.2c-0.4,0-0.7,0.1-1,0.3
				c-0.3,0.1-0.5,0.4-0.5,0.6C85.3,12.9,85.4,13.2,85.6,13.3L85.6,13.3z"/>
			<path id="Tracé_9738" class="st13" d="M89.5,7.6l-1.2-2l1.7-1l0.6,2.3L89.5,7.6z M97,11.3c-0.9,0.5-1.9,0.7-2.9,0.6
				c-1.1,0-2.2-0.3-3.1-0.9c-0.7-0.3-1.3-1-1.5-1.8c-0.1-0.7,0.3-1.2,1.1-1.7C91.4,7.2,92.3,7,93.2,7c1.3,0.1,2.5,0.5,3.5,1.2
				l-3.9,2.3c0.4,0.2,0.9,0.3,1.4,0.3c0.4,0,0.9-0.1,1.3-0.4c0.6-0.4,0.8-0.8,0.6-1.2l2-0.1C98.4,9.9,98.1,10.7,97,11.3L97,11.3z
				 M91.7,9.8l2.5-1.4c-0.4-0.2-0.8-0.2-1.2-0.2c-0.4,0-0.7,0.1-1,0.3c-0.3,0.1-0.5,0.4-0.5,0.6C91.3,9.3,91.4,9.6,91.7,9.8
				L91.7,9.8z"/>
			<path id="Tracé_9739" class="st13" d="M102.4,8.2c-1,0.6-2.2,0.8-3.3,0.6l0-1.1c0.6,0.1,1.3,0,1.9-0.3c0.1-0.1,0.2-0.2,0.3-0.3
				c0-0.1,0-0.2-0.2-0.3c-0.1-0.1-0.3-0.1-0.5-0.1c-0.3,0-0.6,0.1-0.8,0.2L99.3,7c-0.6,0.2-1.2,0.3-1.8,0.2c-0.6,0-1.1-0.2-1.6-0.5
				c-0.5-0.3-0.8-0.7-0.8-1.1s0.3-0.8,0.9-1.1C96.9,4,97.9,3.9,98.9,4l-0.1,1.1c-0.5-0.1-1,0-1.4,0.2c-0.1,0.1-0.2,0.2-0.3,0.3
				c0,0.1,0,0.2,0.1,0.3c0.3,0.1,0.7,0.1,1,0L99,5.7c1.1-0.4,2.4-0.3,3.4,0.2c0.6,0.3,0.9,0.7,0.9,1.2C103.2,7.5,102.9,8,102.4,8.2z
				"/>
		</g>
		<g id="Groupe_4416" transform="translate(69.282 38.23)" class="st28">
			<path id="Tracé_9740" class="st29" d="M44.4,30.8l-2.2-1.3l2.4-1.4l-2.8-1.6l1.9-1.1l2.8,1.6l2.4-1.4L51,27l-2.4,1.4l2.8,1.6
				L49.5,31l-2.8-1.6L44.4,30.8z"/>
			<path id="Tracé_9741" class="st29" d="M61.6,22.9l2.5,1.4l-7.7,4.4l-0.9-0.5c-0.3-0.2-0.6-0.4-0.9-0.6c-0.2-0.2-0.4-0.4-0.6-0.6
				c-0.2-0.2-0.3-0.4-0.4-0.7c-0.1-0.2-0.1-0.4-0.2-0.6c-0.1-0.2-0.1-0.5,0-0.7c0-0.3,0-0.5,0.1-0.7s0.1-0.4,0.1-0.7
				s0.1-0.5,0.1-0.6c0.3-1,0-2-0.9-2.6c-0.5-0.3-1-0.4-1.6-0.5c-0.5,0-1.1,0.1-1.6,0.4c-0.5,0.3-0.7,0.6-0.7,1s0.3,0.7,0.8,1
				l-2.2,1.3c-1.3-0.7-1.9-1.5-2-2.4s0.5-1.7,1.6-2.3c1.1-0.6,2.4-0.9,3.6-0.9c1.4,0,2.8,0.4,4,1.1c0.8,0.4,1.5,1,2,1.8
				c0.3,0.7,0.4,1.5,0.2,2.2c0,0.1-0.1,0.3-0.1,0.6s-0.1,0.6-0.1,0.7c0,0.2,0,0.4,0,0.6c0,0.2,0.1,0.4,0.2,0.6L61.6,22.9z"/>
			<path id="Tracé_9742" class="st29" d="M69.5,21.4c-1.2,0.6-2.5,1-3.9,0.9c-1.4,0-2.8-0.3-4.1-0.9l2.2-1.3
				c0.5,0.2,1.1,0.3,1.7,0.3c0.5,0,1.1-0.1,1.6-0.4c0.6-0.3,0.8-0.7,0.7-1.1c-0.1-0.5-0.5-0.9-1-1.1c-0.6-0.3-1.2-0.5-1.9-0.6
				c-0.6,0-1.3,0.1-1.8,0.4c-0.4,0.2-0.6,0.5-0.7,0.8c-0.1,0.4,0.1,0.7,0.3,0.9l-2.6,0.7l-6.1-5l5.5-3.2l2.4,1.4l-3.8,2.2l2,1.6
				c0.2-0.5,0.6-0.9,1.1-1.1c1.2-0.6,2.5-0.9,3.8-0.7c1.5,0.1,2.9,0.6,4.2,1.3c1.3,0.7,2,1.5,2,2.4S70.7,20.7,69.5,21.4z"/>
			<path id="Tracé_9743" class="st29" d="M71.5,13.2c-1,0.5-2.1,0.8-3.3,0.7c-1.2,0-2.4-0.4-3.4-0.9c-0.8-0.4-1.4-1.1-1.6-2
				c-0.1-0.8,0.4-1.6,1.2-1.9c1-0.5,2.1-0.8,3.2-0.7c1.2,0,2.4,0.3,3.5,0.9c0.8,0.4,1.4,1.1,1.6,2C72.7,12.1,72.3,12.9,71.5,13.2z
				 M68.1,12.2c0.5,0,0.9,0,1.3-0.3c0.3-0.1,0.5-0.4,0.5-0.8c-0.1-0.4-0.3-0.7-0.7-0.8c-0.4-0.2-0.9-0.4-1.4-0.4
				c-0.5,0-0.9,0-1.3,0.3C66.1,10.4,66,10.7,66,11c0.1,0.4,0.3,0.7,0.7,0.8C67.1,12.1,67.6,12.2,68.1,12.2L68.1,12.2z M79.2,15.6
				L77,16.9L71.1,5.3L73.3,4L79.2,15.6z M86,11.8c-1,0.5-2.1,0.8-3.3,0.7c-1.2,0-2.4-0.4-3.4-0.9c-0.8-0.4-1.4-1.1-1.6-2
				C77.6,8.7,78,8,78.8,7.7c1-0.5,2.1-0.8,3.3-0.7c1.2,0,2.4,0.3,3.5,0.9c0.8,0.4,1.4,1.1,1.6,2C87.2,10.8,86.7,11.5,86,11.8
				L86,11.8z M82.5,10.9c0.5,0,0.9,0,1.3-0.3c0.3-0.1,0.5-0.4,0.4-0.8C84.2,9.5,84,9.2,83.6,9c-0.4-0.2-0.9-0.4-1.4-0.4
				c-0.5,0-0.9,0-1.3,0.3c-0.3,0.1-0.5,0.4-0.5,0.8c0.1,0.4,0.3,0.7,0.7,0.8C81.5,10.7,82,10.9,82.5,10.9L82.5,10.9z"/>
		</g>
	</g>
	<g id="Groupe_4419" transform="translate(1011.424 74)" class="st22">
		<path id="Tracé_9600" class="st30" d="M158.2,138.4L41.8,71.2L158.3,4l116.4,67.2L158.2,138.4z"/>
		<g id="Groupe_4412" transform="translate(110.118 83.41)" class="st31">
			<path id="Tracé_9705" class="st18" d="M51.8,42.8c-0.6,0.4-1.3,0.6-2,0.7c-0.7,0.1-1.5,0.1-2.3,0l0-1.3c0.5,0.1,1,0.1,1.5,0
				c0.4,0,0.8-0.2,1.2-0.4c0.3-0.2,0.5-0.4,0.5-0.6s-0.1-0.4-0.3-0.5c-0.3-0.1-0.6-0.2-0.9-0.2c-0.4,0-0.9,0.1-1.3,0.2l-0.9,0.2
				c-1.4,0.5-3,0.3-4.3-0.4c-0.8-0.5-1.2-1-1.2-1.5s0.4-1,1.1-1.5c1.1-0.6,2.3-0.8,3.6-0.7l0.2,1.3c-0.7-0.1-1.4,0-2.1,0.3
				c-0.2,0.1-0.4,0.3-0.5,0.5c-0.1,0.2,0,0.4,0.3,0.5c0.3,0.1,0.6,0.2,0.9,0.2c0.5,0,0.9-0.1,1.4-0.2l0.9-0.2c1.5-0.4,3-0.3,4.3,0.5
				c0.8,0.4,1.2,0.9,1.1,1.5S52.6,42.4,51.8,42.8z"/>
			<path id="Tracé_9706" class="st18" d="M59,37.6c0,0.7-0.4,1.4-1,1.7C57,39.7,56,40,55,39.9c-1.1,0-2.1-0.3-3.1-0.8
				c-0.7-0.3-1.3-1-1.4-1.8c0-0.7,0.4-1.4,1-1.7c0.9-0.5,1.9-0.7,2.9-0.6c1.1,0,2.1,0.3,3.1,0.8C58.3,36.2,58.8,36.8,59,37.6z
				 M56.4,38.4c0.3-0.1,0.5-0.5,0.5-0.8c-0.1-0.4-0.4-0.7-0.8-0.9c-0.5-0.3-1-0.4-1.5-0.5c-0.5,0-1,0-1.4,0.3
				c-0.4,0.2-0.5,0.5-0.5,0.8c0.1,0.4,0.4,0.7,0.8,0.9c0.5,0.3,1,0.4,1.5,0.5C55.5,38.7,55.9,38.6,56.4,38.4L56.4,38.4z"/>
			<path id="Tracé_9707" class="st18" d="M61.6,37l-9.1-5.3l1.4-0.8l9.1,5.3L61.6,37z"/>
			<path id="Tracé_9708" class="st18" d="M66.5,34.3c-0.7,0.4-1.4,0.5-2.2,0.4c-0.9-0.1-1.7-0.4-2.5-0.8l-3.5-2l1.4-0.8l3.2,1.9
				c0.7,0.5,1.6,0.6,2.3,0.3c0.3-0.2,0.5-0.4,0.4-0.7c-0.2-0.4-0.6-0.7-1-0.9l-3-1.7l1.4-0.8l6.1,3.5l-1.4,0.8L67.1,33
				C67.3,33.5,67.1,34,66.5,34.3z"/>
			<path id="Tracé_9709" class="st18" d="M73.3,30.4c-0.6,0.3-1.3,0.5-2,0.5c-0.8,0-1.5-0.2-2.2-0.6l-2.5-1.4l-1.1,0.6L64,28.6
				l1.1-0.6l-1.7-1l1.4-0.8l1.7,1l1.5-0.9l1.5,0.8L68,28l2.2,1.2c0.3,0.2,0.6,0.3,1,0.3c0.3,0,0.6-0.1,0.9-0.3
				c0.2-0.1,0.4-0.2,0.5-0.4l1.5,0.8C73.8,30,73.6,30.2,73.3,30.4z"/>
			<path id="Tracé_9710" class="st18" d="M68.8,24.7c-0.3,0.2-0.6,0.2-1,0.2c-0.4,0-0.7-0.1-1-0.3c-0.2-0.1-0.4-0.3-0.5-0.6
				c0-0.2,0.1-0.5,0.3-0.5c0.3-0.2,0.6-0.2,1-0.2c0.4,0,0.7,0.1,1,0.3c0.2,0.1,0.4,0.3,0.5,0.6C69.1,24.4,69,24.6,68.8,24.7z
				 M75.1,29.2l-6.1-3.5l1.4-0.8l6.1,3.5L75.1,29.2z"/>
			<path id="Tracé_9711" class="st18" d="M81.6,24.6c0,0.7-0.4,1.4-1,1.7c-0.9,0.5-1.9,0.7-2.9,0.6c-1.1,0-2.1-0.3-3.1-0.8
				c-0.7-0.3-1.3-1-1.4-1.8c0-0.7,0.4-1.4,1-1.7c0.9-0.5,1.9-0.7,2.9-0.6c1.1,0,2.1,0.3,3.1,0.8C80.9,23.1,81.4,23.8,81.6,24.6z
				 M79,25.3c0.3-0.1,0.5-0.5,0.5-0.8c-0.1-0.4-0.4-0.7-0.8-0.9c-0.5-0.3-1-0.4-1.5-0.5c-0.5,0-1,0-1.4,0.3
				c-0.4,0.2-0.5,0.5-0.5,0.8c0.1,0.4,0.4,0.7,0.8,0.9c0.5,0.3,1,0.4,1.5,0.5C78.1,25.7,78.5,25.6,79,25.3L79,25.3z"/>
			<path id="Tracé_9712" class="st18" d="M84.2,23.9l-6.1-3.5l1.4-0.8l0.7,0.4c-0.2-0.5,0-1,0.7-1.3c0.7-0.4,1.4-0.5,2.2-0.4
				c0.9,0.1,1.7,0.4,2.5,0.8l3.6,2.1l-1.4,0.8L84.5,20c-0.4-0.2-0.8-0.4-1.3-0.5c-0.4-0.1-0.7,0-1.1,0.2c-0.3,0.2-0.5,0.4-0.4,0.7
				s0.4,0.6,1,0.9l3,1.7L84.2,23.9z"/>
			<path id="Tracé_9713" class="st18" d="M99.7,15l-1.3,0.8l-9.5-1l5.6,3.3l-1.5,0.9l-8.6-5l1.3-0.8l9.5,1l-5.6-3.3l1.5-0.9
				L99.7,15z"/>
			<path id="Tracé_9714" class="st18" d="M97.6,10.5c-0.5,0.3-1.1,0.4-1.7,0.3c-0.6,0-1.2-0.2-1.8-0.5c-0.4-0.2-0.8-0.6-0.9-1
				c0-0.4,0.2-0.8,0.6-1C94.4,8.1,95,7.9,95.6,8c0.6,0,1.2,0.2,1.8,0.5c0.4,0.2,0.7,0.6,0.9,1C98.2,9.9,98,10.3,97.6,10.5z
				 M96.5,9.9c0.2-0.1,0.3-0.2,0.2-0.4c0-0.2-0.2-0.3-0.3-0.4c-0.2-0.1-0.5-0.2-0.7-0.2c-0.2,0-0.5,0-0.7,0.1
				c-0.2,0.1-0.3,0.2-0.3,0.4c0,0.2,0.2,0.3,0.3,0.4c0.2,0.1,0.5,0.2,0.7,0.2C96,10,96.3,10,96.5,9.9L96.5,9.9z"/>
			<path id="Tracé_9715" class="st18" d="M106.7,11l-1.6,0.9l-3.6-6l-3.5,2L96.3,7l5.2-3l1.4,0.8L106.7,11z"/>
		</g>
		<g id="Groupe_4413" transform="translate(44.954 26.935)" class="st31">
			<path id="Tracé_9716" class="st13" d="M51.8,37.4c-0.8,0.5-1.8,0.7-2.7,0.7c-1,0-2.1-0.2-3-0.8l1.4-0.8c0.4,0.2,0.9,0.3,1.4,0.3
				c0.4,0,0.9-0.1,1.3-0.3c0.3-0.2,0.5-0.4,0.5-0.6c0-0.2-0.1-0.4-0.5-0.6c-0.4-0.2-0.8-0.3-1.2-0.3c-0.4,0-0.8,0.1-1.2,0.3
				l-0.6,0.4l-1.4-0.8l0.6-0.3c0.3-0.2,0.5-0.4,0.5-0.6s-0.2-0.4-0.5-0.6c-0.3-0.2-0.6-0.3-1-0.3c-0.3,0-0.7,0.1-1,0.2
				c-0.3,0.2-0.5,0.4-0.5,0.7s0.2,0.5,0.6,0.7l-1.5,0.8c-0.9-0.5-1.3-1-1.3-1.6c0-0.7,0.4-1.2,1-1.5c0.8-0.4,1.6-0.6,2.5-0.6
				c0.9,0,1.7,0.2,2.4,0.6c0.3,0.2,0.6,0.4,0.8,0.8c0.2,0.2,0.2,0.5,0.2,0.8c0.5-0.1,1-0.1,1.5,0c0.5,0.1,1,0.3,1.5,0.5
				c0.8,0.4,1.1,0.9,1.2,1.5C53,36.5,52.6,37,51.8,37.4z"/>
			<path id="Tracé_9717" class="st13" d="M57.8,33.8l-9.1-5.3l1.4-0.8l9.1,5.3L57.8,33.8z"/>
			<path id="Tracé_9718" class="st13" d="M64.3,29.2c0,0.7-0.4,1.4-1,1.7c-0.9,0.5-1.9,0.7-2.9,0.6c-1.1,0-2.1-0.3-3.1-0.8
				c-0.7-0.3-1.3-1-1.4-1.8c-0.1-0.7,0.4-1.4,1-1.7c0.9-0.5,1.9-0.7,2.9-0.6c1.1,0,2.1,0.3,3.1,0.8C63.6,27.7,64.1,28.4,64.3,29.2z
				 M61.7,29.9c0.3-0.1,0.5-0.5,0.5-0.8c-0.1-0.4-0.4-0.7-0.8-0.9c-0.5-0.3-1-0.4-1.5-0.5c-0.5,0-1,0.1-1.4,0.3
				c-0.4,0.2-0.5,0.5-0.5,0.8c0.1,0.4,0.4,0.7,0.8,0.9c0.5,0.3,1,0.4,1.5,0.5C60.8,30.3,61.3,30.2,61.7,29.9L61.7,29.9z"/>
			<path id="Tracé_9719" class="st13" d="M69.4,27.2c-0.6,0.3-1.3,0.5-2,0.5c-0.8,0-1.5-0.2-2.2-0.6l-2.5-1.4l-1.1,0.6l-1.5-0.8
				l1.1-0.6l-1.7-1L61,23l1.7,1l1.5-0.9l1.5,0.8l-1.5,0.9l2.2,1.3c0.3,0.2,0.6,0.3,1,0.3c0.3,0,0.6-0.1,0.9-0.3
				c0.2-0.1,0.4-0.2,0.5-0.4l1.5,0.8C70,26.8,69.7,27,69.4,27.2z"/>
			<path id="Tracé_9720" class="st13" d="M73.2,25.1c-1,0.6-2.2,0.8-3.3,0.6l0-1.1c0.6,0.1,1.3,0,1.9-0.3c0.1-0.1,0.2-0.2,0.3-0.3
				c0-0.1,0-0.2-0.2-0.3c-0.1-0.1-0.3-0.1-0.5-0.1c-0.3,0-0.6,0.1-0.8,0.2l-0.5,0.2c-0.6,0.2-1.2,0.3-1.8,0.2
				c-0.6,0-1.1-0.2-1.6-0.5c-0.5-0.3-0.8-0.7-0.8-1.1c0.1-0.5,0.4-0.9,0.9-1.1c0.9-0.5,1.9-0.6,2.8-0.5L69.6,22
				c-0.5-0.1-1,0-1.4,0.2c-0.1,0.1-0.2,0.2-0.3,0.3c0,0.1,0,0.2,0.1,0.3c0.3,0.1,0.7,0.1,1,0l0.7-0.2c1.1-0.4,2.4-0.3,3.4,0.2
				c0.6,0.3,0.9,0.7,0.9,1.2C74,24.4,73.7,24.9,73.2,25.1z"/>
			<path id="Tracé_9721" class="st13" d="M81.1,20.5c-0.9,0.5-1.9,0.7-2.9,0.6c-1.1,0-2.1-0.3-3.1-0.8c-0.7-0.3-1.3-1-1.5-1.8
				c0-0.7,0.4-1.4,1.1-1.7c0.6-0.3,1.3-0.5,2-0.6c0.8-0.1,1.5,0,2.3,0.1l-0.5,1.2c-0.4-0.1-0.8-0.1-1.2-0.1c-0.4,0-0.7,0.1-1,0.3
				c-0.3,0.1-0.5,0.5-0.5,0.8c0.1,0.4,0.4,0.7,0.8,0.9c0.5,0.3,1,0.4,1.5,0.4c0.5,0,1-0.1,1.4-0.3c0.2-0.1,0.4-0.3,0.5-0.6
				c0-0.3,0-0.5-0.2-0.7l2-0.3c0.3,0.4,0.4,0.9,0.3,1.3C82,19.9,81.6,20.3,81.1,20.5z"/>
			<path id="Tracé_9722" class="st13" d="M84.4,18.4l-6.1-3.5l1.4-0.8l1,0.6c-0.2-0.2-0.3-0.5-0.2-0.7c0.1-0.3,0.3-0.5,0.5-0.6
				c0.2-0.1,0.4-0.2,0.6-0.2l1.7,1c-0.3,0.1-0.5,0.2-0.8,0.3c-0.3,0.2-0.5,0.4-0.4,0.7c0.2,0.4,0.5,0.7,0.9,0.9l2.9,1.7L84.4,18.4z"
				/>
			<path id="Tracé_9723" class="st13" d="M83.5,11.1l-1.2-2l1.7-1l0.6,2.3L83.5,11.1z M91,14.8c-0.9,0.5-1.9,0.7-2.9,0.6
				c-1.1,0-2.2-0.3-3.1-0.9c-0.7-0.3-1.3-1-1.5-1.8c0-0.7,0.4-1.4,1.1-1.7c0.8-0.4,1.7-0.7,2.6-0.6c1.3,0.1,2.5,0.5,3.5,1.2L86.8,14
				c0.4,0.2,0.9,0.3,1.4,0.3c0.4,0,0.9-0.1,1.3-0.4c0.6-0.4,0.8-0.8,0.6-1.2l2-0.1C92.4,13.4,92.1,14.2,91,14.8z M85.7,13.3l2.5-1.4
				c-0.4-0.2-0.8-0.2-1.2-0.2c-0.4,0-0.7,0.1-1,0.3c-0.3,0.1-0.5,0.4-0.5,0.6C85.3,12.9,85.5,13.2,85.7,13.3L85.7,13.3z"/>
			<path id="Tracé_9724" class="st13" d="M89.6,7.6l-1.2-2l1.7-1l0.6,2.3L89.6,7.6z M97.1,11.3c-0.9,0.5-1.9,0.7-2.9,0.6
				c-1.1,0-2.2-0.3-3.1-0.9c-0.7-0.3-1.3-1-1.5-1.8c-0.1-0.7,0.3-1.2,1.1-1.7C91.5,7.2,92.4,7,93.3,7c1,0,2.1,0.3,3,0.8
				c0.3,0.2,0.5,0.3,0.6,0.3l-3.9,2.3c0.4,0.2,0.9,0.3,1.4,0.3c0.4,0,0.9-0.1,1.3-0.4c0.6-0.4,0.8-0.8,0.6-1.2l2-0.1
				C98.5,9.9,98.2,10.7,97.1,11.3z M91.8,9.8l2.5-1.4c-0.4-0.2-0.8-0.2-1.2-0.2c-0.4,0-0.7,0.1-1,0.3c-0.3,0.1-0.5,0.4-0.5,0.6
				C91.4,9.4,91.6,9.7,91.8,9.8z"/>
			<path id="Tracé_9725" class="st13" d="M102.5,8.2c-1,0.6-2.2,0.8-3.3,0.6l0-1.1c0.6,0.1,1.3,0,1.9-0.3c0.1-0.1,0.2-0.2,0.3-0.3
				c0-0.1,0-0.2-0.2-0.3c-0.1-0.1-0.3-0.1-0.5-0.1c-0.3,0-0.6,0.1-0.8,0.2L99.4,7c-0.6,0.2-1.2,0.3-1.8,0.2C97,7.2,96.5,7,96,6.7
				c-0.5-0.3-0.8-0.7-0.8-1.1s0.3-0.8,0.9-1.1C97,4,98,3.9,99,4l-0.1,1.1c-0.5-0.1-1,0-1.4,0.2c-0.1,0.1-0.2,0.2-0.3,0.3
				c0,0.1,0,0.2,0.1,0.3c0.3,0.1,0.7,0.1,1,0l0.7-0.2c1.1-0.4,2.4-0.3,3.4,0.2c0.6,0.3,0.9,0.7,0.9,1.1S103,7.8,102.5,8.2z"/>
		</g>
		<g id="Groupe_4414" transform="translate(70.151 37.361)" class="st31">
			<path id="Tracé_9726" class="st32" d="M44.4,31.4l-2.2-1.2l2.4-1.4l-2.7-1.6l1.9-1.1l2.8,1.6l2.4-1.4l2.2,1.3l-2.4,1.4l2.8,1.6
				l-1.9,1.1L46.8,30L44.4,31.4z"/>
			<path id="Tracé_9727" class="st32" d="M61.6,23.4l2.5,1.4l-7.6,4.4l-0.9-0.5c-0.3-0.2-0.6-0.4-0.9-0.6c-0.2-0.2-0.4-0.4-0.6-0.6
				c-0.2-0.2-0.3-0.4-0.4-0.7c-0.1-0.3-0.2-0.5-0.2-0.6c0-0.2-0.1-0.5,0-0.7c0-0.3,0-0.5,0.1-0.7s0.1-0.4,0.1-0.7s0.1-0.5,0.1-0.6
				c0.3-1,0-2-0.9-2.6c-0.5-0.3-1-0.4-1.6-0.5c-0.5,0-1.1,0.1-1.6,0.4c-0.5,0.3-0.7,0.6-0.7,1c0,0.4,0.3,0.7,0.8,1l-2.2,1.3
				c-1.3-0.7-1.9-1.5-2-2.4s0.5-1.7,1.6-2.3c1.1-0.6,2.3-0.9,3.6-0.9c1.4,0,2.8,0.4,4,1.1c0.8,0.4,1.5,1,2,1.8
				c0.3,0.7,0.4,1.5,0.2,2.2c0,0.1-0.1,0.3-0.1,0.6s-0.1,0.6-0.1,0.7c0,0.2,0,0.4,0,0.6c0,0.2,0.1,0.4,0.2,0.6L61.6,23.4z"/>
			<path id="Tracé_9728" class="st32" d="M70.6,21.1l-3-1.7l-5.6,3.2l-2-1.2l-2.2-8l1.9-1.1l7.7,4.4l1.5-0.8l2.3,1.3l-1.5,0.8
				l3,1.7L70.6,21.1z M62.5,19.7l2.9-1.7l-4-2.3L62.5,19.7z"/>
			<path id="Tracé_9729" class="st32" d="M72.5,13.2c-1,0.5-2.1,0.8-3.3,0.7c-1.2,0-2.4-0.3-3.4-0.9c-0.8-0.4-1.4-1.1-1.6-2
				c-0.1-0.8,0.4-1.6,1.2-1.9c1-0.5,2.1-0.8,3.2-0.7c1.2,0,2.4,0.3,3.5,0.9c0.8,0.4,1.4,1.1,1.6,2C73.7,12.1,73.2,12.8,72.5,13.2z
				 M69,12.2c0.5,0,0.9,0,1.3-0.3c0.3-0.1,0.5-0.4,0.5-0.8c-0.1-0.4-0.3-0.7-0.7-0.8c-0.4-0.2-0.9-0.4-1.4-0.4c-0.5,0-0.9,0-1.3,0.3
				c-0.3,0.1-0.5,0.4-0.4,0.8c0.1,0.4,0.3,0.7,0.7,0.8C68.1,12.1,68.5,12.2,69,12.2L69,12.2z M80.1,15.6l-2.2,1.3L72.1,5.3L74.3,4
				L80.1,15.6z M86.9,11.8c-1,0.5-2.1,0.8-3.3,0.7c-1.2,0-2.4-0.3-3.4-0.9c-0.8-0.4-1.4-1.1-1.6-2C78.5,8.7,79,8,79.7,7.7
				c1-0.5,2.1-0.8,3.2-0.7c1.2,0,2.4,0.3,3.5,0.9c0.8,0.4,1.4,1.1,1.6,2C88.1,10.7,87.7,11.5,86.9,11.8L86.9,11.8z M83.5,10.9
				c0.5,0,0.9,0,1.3-0.3c0.3-0.1,0.5-0.4,0.4-0.8c-0.1-0.4-0.3-0.7-0.7-0.8c-0.4-0.2-0.9-0.4-1.4-0.4c-0.5,0-0.9,0-1.3,0.3
				c-0.3,0.1-0.5,0.4-0.5,0.8c0.1,0.4,0.3,0.7,0.7,0.8C82.5,10.7,83,10.9,83.5,10.9L83.5,10.9z"/>
		</g>
	</g>
	
		<linearGradient id="Tracé_9585-2_1_" gradientUnits="userSpaceOnUse" x1="881.6747" y1="915.4095" x2="881.6747" y2="914.4095" gradientTransform="matrix(232.818 0 0 -293.109 -204100.2969 268459.6562)">
		<stop  offset="0.101" style="stop-color:#20B4B1;stop-opacity:0"/>
		<stop  offset="0.221" style="stop-color:#20B4B1;stop-opacity:2.400000e-02"/>
		<stop  offset="0.354" style="stop-color:#20B4B1;stop-opacity:9.400000e-02"/>
		<stop  offset="0.492" style="stop-color:#20B4B1;stop-opacity:0.216"/>
		<stop  offset="0.635" style="stop-color:#20B4B1;stop-opacity:0.38"/>
		<stop  offset="0.781" style="stop-color:#20B4B1;stop-opacity:0.596"/>
		<stop  offset="0.927" style="stop-color:#20B4B1;stop-opacity:0.855"/>
		<stop  offset="1" style="stop-color:#20B4B1"/>
	</linearGradient>
	<path id="Tracé_9585-2" class="st33" d="M1169.4,438L1053,370.8V144.9l116.4,67.2l116.4-67.2v225.9L1169.4,438z"/>
</g>
</svg>
