<?xml version="1.0" encoding="utf-8"?>
<!-- Generator: Adobe Illustrator 24.3.0, SVG Export Plug-In . SVG Version: 6.00 Build 0)  -->
<svg version="1.1" id="Calque_1" xmlns="http://www.w3.org/2000/svg" xmlns:xlink="http://www.w3.org/1999/xlink" x="0px" y="0px"
	 viewBox="0 0 591 491.8" style="enable-background:new 0 0 591 491.8;" xml:space="preserve">
<style type="text/css">
	.st0{fill:#C7CDD2;}
	.st1{fill:#8669AB;}
	.st2{fill:#AEBBC0;}
	.st3{fill:#F7AB50;}
	.st4{fill:#FFEA23;}
	.st5{fill:#95C462;}
	.st6{fill:#E75E0D;}
	.st7{fill:#63C3D6;}
	.st8{fill:#63B879;}
	.st9{fill:#F4F7FA;}
	.st10{fill:#FBBA0E;}
	.st11{fill:#EADDEB;}
	.st12{fill:#FFE905;}
	.st13{opacity:0.4;fill:#B19FB7;enable-background:new    ;}
	.st14{opacity:0.5;fill:#B19FB7;enable-background:new    ;}
	.st15{fill:#0E0D0C;}
	.st16{clip-path:url(#SVGID_2_);}
	.st17{opacity:0.1;fill:#FFFFFF;enable-background:new    ;}
	.st18{fill:#FFFFFF;}
	.st19{fill:#161615;}
	.st20{fill:#424444;}
	.st21{fill:#010202;}
</style>
<g id="Groupe_4467" transform="translate(-859 -116)">
	<path id="Tracé_9887" class="st0" d="M1292.8,345.8l-17.2-34c-22.8-34.9-65.8-17.5-115.2-17.5s-92.4-17.4-115.2,17.5l-17.2,34
		l-0.1,13.4c0,1.2,0.1,2.4,0.2,3.6c0,0.4,0.1,0.8,0.1,1.1c0.1,0.8,0.2,1.6,0.3,2.4c0.1,0.4,0.2,0.9,0.2,1.3c0.1,0.8,0.3,1.5,0.5,2.3
		c0.1,0.4,0.2,0.8,0.3,1.3c0.2,0.8,0.5,1.6,0.8,2.4c0.1,0.3,0.2,0.7,0.3,1c0.4,1.1,0.9,2.2,1.3,3.3c0.1,0.3,0.3,0.6,0.4,0.9
		c0.4,0.8,0.8,1.6,1.2,2.4c0.2,0.4,0.5,0.9,0.7,1.3c0.4,0.7,0.8,1.3,1.2,2c0.3,0.5,0.6,0.9,0.9,1.4c0.4,0.6,0.8,1.2,1.3,1.9
		c0.3,0.4,0.6,0.9,1,1.3c0.5,0.7,1,1.3,1.5,2c0.3,0.4,0.7,0.8,1,1.3c0.8,0.9,1.6,1.8,2.4,2.7c0.4,0.5,0.9,0.9,1.4,1.4
		c0.5,0.5,1,1,1.5,1.5c0.5,0.5,1.1,1,1.6,1.5c0.5,0.4,1,0.9,1.4,1.3c0.6,0.5,1.2,1,1.8,1.5c0.5,0.4,0.9,0.8,1.4,1.1
		c0.7,0.5,1.3,1.1,2,1.6c0.3,0.2,0.6,0.4,0.9,0.6c1.7,1.2,3.4,2.4,5.2,3.6c0.3,0.2,0.5,0.3,0.8,0.5c0.9,0.6,1.8,1.1,2.7,1.7
		c0.4,0.2,0.8,0.5,1.1,0.7c0.9,0.5,1.9,1.1,2.8,1.6c0.4,0.2,0.7,0.4,1.1,0.6c1,0.5,2,1.1,3.1,1.6c0.2,0.1,0.4,0.2,0.6,0.3
		c3.8,1.9,7.7,3.7,11.8,5.3l0,0c1.3,0.5,2.7,1,4,1.5c0.2,0.1,0.4,0.2,0.6,0.2c1.3,0.5,2.7,1,4.1,1.4l0.4,0.1
		c7.7,2.5,15.6,4.6,23.6,6.1l0.4,0.1c1.6,0.3,3.2,0.6,4.9,0.9v-0.1c24.7,4.2,50,4.2,74.8,0v0.1c1.6-0.3,3.3-0.6,4.9-0.9l0.4-0.1
		c8-1.5,15.9-3.6,23.6-6.1l0.4-0.1c1.4-0.5,2.7-0.9,4.1-1.4c0.2-0.1,0.4-0.1,0.6-0.2c1.4-0.5,2.7-1,4-1.5l0,0
		c4.1-1.6,8.1-3.4,11.8-5.3c0.2-0.1,0.4-0.2,0.6-0.3c1-0.5,2.1-1.1,3.1-1.6c0.4-0.2,0.7-0.4,1.1-0.6c1-0.5,1.9-1.1,2.8-1.6
		c0.4-0.2,0.8-0.5,1.1-0.7c0.9-0.6,1.8-1.1,2.7-1.7c0.3-0.2,0.5-0.3,0.8-0.5c1.8-1.2,3.5-2.4,5.2-3.6c0.3-0.2,0.6-0.4,0.9-0.6
		c0.7-0.5,1.4-1.1,2-1.6c0.5-0.4,0.9-0.7,1.4-1.1c0.6-0.5,1.2-1,1.8-1.5c0.5-0.4,1-0.9,1.4-1.3c0.5-0.5,1.1-1,1.6-1.5
		c0.5-0.5,1-1,1.5-1.5c0.5-0.5,0.9-0.9,1.4-1.4c0.8-0.9,1.6-1.8,2.4-2.7c0.4-0.4,0.7-0.8,1-1.3c0.5-0.6,1.1-1.3,1.5-2
		c0.3-0.4,0.6-0.9,1-1.3c0.4-0.6,0.9-1.2,1.3-1.9c0.3-0.5,0.6-0.9,0.9-1.4c0.4-0.7,0.8-1.3,1.2-2c0.2-0.4,0.5-0.9,0.7-1.3
		c0.4-0.8,0.8-1.6,1.2-2.4c0.1-0.3,0.3-0.6,0.4-0.9c0.5-1.1,0.9-2.2,1.3-3.3c0.1-0.3,0.2-0.7,0.3-1c0.3-0.8,0.5-1.6,0.8-2.4
		c0.1-0.4,0.2-0.8,0.3-1.3c0.2-0.8,0.4-1.5,0.5-2.3c0.1-0.4,0.2-0.9,0.2-1.3c0.1-0.8,0.2-1.6,0.3-2.4c0-0.4,0.1-0.8,0.1-1.1
		c0.1-1.2,0.2-2.4,0.2-3.6L1292.8,345.8z"/>
	<path id="Tracé_9762" class="st1" d="M1320.9,207.5c3.1,1.8,8.6-0.5,5.5-2.2C1323.3,203.5,1317.8,205.7,1320.9,207.5z"/>
	<path id="Tracé_9763" class="st2" d="M1001.5,284.4c3.1,1.8,8.6-0.5,5.5-2.2C1004,280.4,998.5,282.7,1001.5,284.4z"/>
	<g id="Groupe_4438" transform="translate(1256.788 312.648)">
		<path id="Tracé_9764" class="st3" d="M93.9,82.2c-0.1,0-0.2,0-0.3-0.1L35.2,48.5c-0.3-0.2-0.4-0.5-0.3-0.8
			c0.2-0.3,0.5-0.4,0.8-0.3c0,0,0,0,0,0l58.3,33.7c0.3,0.2,0.4,0.5,0.2,0.8C94.3,82.1,94.1,82.2,93.9,82.2L93.9,82.2z"/>
	</g>
	<path id="Tracé_9765" class="st3" d="M1347.9,395.4c3.1,1.8,8.6-0.5,5.5-2.2C1350.3,391.4,1344.9,393.6,1347.9,395.4z"/>
	<path id="Tracé_9766" class="st4" d="M1279.7,419c3.1,1.8,8.6-0.5,5.5-2.2C1282.1,415,1276.6,417.2,1279.7,419z"/>
	<path id="Tracé_9767" class="st5" d="M1256,489c3.1,1.8,8.6-0.5,5.5-2.2C1258.5,485,1253,487.3,1256,489z"/>
	<g id="Groupe_4439" transform="translate(969.184 235.91)">
		<path id="Tracé_9768" class="st2" d="M76.5,72.2c-0.1,0-0.2,0-0.3-0.1l-41-23.7c-0.3-0.2-0.4-0.5-0.2-0.8s0.5-0.4,0.8-0.2
			l41,23.7c0.3,0.2,0.4,0.5,0.2,0.8C77,72.1,76.8,72.2,76.5,72.2L76.5,72.2z"/>
	</g>
	<path id="Tracé_9769" class="st6" d="M988.4,231c3.1,1.8,8.6-0.5,5.5-2.2C990.9,227,985.4,229.2,988.4,231z"/>
	<g id="Groupe_4440" transform="translate(956.09 182.466)">
		<path id="Tracé_9770" class="st6" d="M127,101.4c-0.1,0-0.2,0-0.3-0.1L35.2,48.5c-0.3-0.2-0.4-0.6-0.2-0.8
			c0.2-0.3,0.5-0.4,0.8-0.2l91.5,52.8c0.3,0.2,0.4,0.5,0.2,0.8C127.4,101.3,127.2,101.4,127,101.4L127,101.4z"/>
	</g>
	<path id="Tracé_9771" class="st7" d="M1007.2,538.5c3.1,1.8,8.6-0.5,5.5-2.2C1009.7,534.5,1004.2,536.8,1007.2,538.5z"/>
	<path id="Tracé_9772" class="st8" d="M916.5,434.5c3.1,1.8,8.6-0.5,5.5-2.2C918.9,430.5,913.5,432.8,916.5,434.5z"/>
	<g id="Groupe_4441" transform="translate(1120.984 379.619)">
		<path id="Tracé_9773" class="st5" d="M137.8,108.9c-0.1,0-0.2,0-0.3-0.1L35.2,48.5c-0.3-0.2-0.4-0.5-0.2-0.8s0.5-0.4,0.8-0.2
			c0,0,0,0,0,0l102.2,60.4c0.3,0.2,0.4,0.5,0.2,0.8C138.2,108.8,138,108.9,137.8,108.9L137.8,108.9z"/>
	</g>
	<g id="Groupe_4442" transform="translate(1172.073 158.42)">
		<path id="Tracé_9775" class="st1" d="M35.5,115.6c-0.3,0-0.6-0.3-0.6-0.6c0-0.2,0.1-0.4,0.3-0.5l116-67c0.3-0.2,0.7-0.1,0.8,0.2
			c0.2,0.3,0.1,0.7-0.2,0.8l-116,67C35.8,115.5,35.6,115.6,35.5,115.6z"/>
	</g>
	<g id="Groupe_4443" transform="translate(884.014 342.756)">
		<path id="Tracé_9776" class="st8" d="M35.5,90.9c-0.3,0-0.6-0.3-0.6-0.6c0-0.2,0.1-0.4,0.3-0.5l73.6-42.4c0.2-0.1,0.4-0.1,0.6,0
			l26.4,15.2l25.6-14.8c0.3-0.2,0.7-0.1,0.8,0.2s0.1,0.7-0.2,0.8c0,0,0,0,0,0l-25.9,14.9c-0.2,0.1-0.4,0.1-0.6,0l-26.4-15.2
			L35.8,90.8C35.8,90.9,35.6,90.9,35.5,90.9z"/>
	</g>
	<g id="Groupe_4444" transform="translate(974.67 367.909)">
		<path id="Tracé_9777" class="st7" d="M35.5,170.1c-0.3,0-0.6-0.3-0.6-0.6c0-0.2,0.1-0.4,0.3-0.5l101-58L71.3,73.3
			c-0.3-0.2-0.4-0.5-0.2-0.8c0.1-0.1,0.1-0.2,0.2-0.2l43-24.8c0.3-0.2,0.7-0.1,0.8,0.2c0.2,0.3,0.1,0.7-0.2,0.8c0,0,0,0,0,0
			l-42,24.3l64.9,37.6c0.3,0.2,0.4,0.5,0.2,0.8c-0.1,0.1-0.1,0.2-0.2,0.2L35.9,170C35.8,170.1,35.7,170.1,35.5,170.1z"/>
	</g>
	<g id="Groupe_4445" transform="translate(1223.305 356.176)">
		<path id="Tracé_9778" class="st4" d="M59.1,62.2c-0.1,0-0.2,0-0.3-0.1L35.2,48.5c-0.3-0.2-0.4-0.5-0.3-0.8s0.5-0.4,0.8-0.3
			c0,0,0,0,0,0L59.4,61c0.3,0.2,0.4,0.5,0.2,0.8C59.5,62,59.3,62.2,59.1,62.2L59.1,62.2z"/>
	</g>
	<g id="Groupe_4446" transform="translate(859 363.415)">
		<path id="Tracé_9779" class="st8" d="M43.4,104.6l-8.4-4.9l4.3-2.5l1.6,0.9L38,99.9l1.7,1l2.3-1.3l1.6,0.9l-2.3,1.3l1.8,1
			l2.9-1.7l1.6,0.9L43.4,104.6z"/>
		<path id="Tracé_9780" class="st8" d="M55.1,97.9l-1.2,0.7l-9.1-1.1l5.5,3.2l-1.4,0.8l-8.4-4.9l1.2-0.7l9.1,1.1l-5.5-3.2l1.4-0.8
			L55.1,97.9z"/>
		<path id="Tracé_9781" class="st8" d="M57.9,96.2l-6.8-3.9l-1.8,1.1l-1.6-0.9l5.1-3l1.6,0.9l-1.9,1.1l6.8,3.9L57.9,96.2z"/>
		<path id="Tracé_9782" class="st8" d="M62.2,93.8l-8.4-4.9l2.7-1.5c0.7-0.4,1.5-0.5,2.3-0.5c0.8,0,1.6,0.3,2.4,0.7
			c1.1,0.6,1.4,1.3,0.8,2.1l6.2,0.7l-1.7,1l-5.9-0.7l-0.3,0.2l3.5,2L62.2,93.8z M58.6,90l1.1-0.6c0.3-0.2,0.4-0.3,0.4-0.5
			s-0.1-0.4-0.4-0.5c-0.3-0.2-0.6-0.2-0.9-0.2c-0.3,0-0.6,0.1-0.9,0.2L56.8,89L58.6,90z"/>
		<path id="Tracé_9783" class="st8" d="M68.6,90.1l-8.4-4.9l4.3-2.5l1.6,0.9l-2.9,1.7l1.7,1l2.3-1.3l1.6,0.9l-2.3,1.3l1.8,1
			l2.9-1.7l1.6,0.9L68.6,90.1z"/>
		<path id="Tracé_9784" class="st8" d="M70.6,80.1c1,0,1.9,0.3,2.7,0.8c0.7,0.3,1.2,0.9,1.3,1.6c0.1,0.6-0.2,1.1-0.9,1.5l-0.9,0.5
			l2.8,1.6l-1.4,0.8L65.7,82l2.3-1.3C68.8,80.2,69.7,80.1,70.6,80.1z M72.5,82.4c-0.1-0.3-0.3-0.6-0.6-0.7c-0.4-0.2-0.8-0.3-1.2-0.3
			c-0.4,0-0.8,0.1-1.1,0.3l-0.9,0.5l2.4,1.4l0.9-0.5C72.4,82.8,72.5,82.6,72.5,82.4L72.5,82.4z"/>
		<path id="Tracé_9785" class="st8" d="M79.9,83.5l-8.4-4.9l2.7-1.5c0.7-0.4,1.5-0.5,2.2-0.5c0.8,0,1.6,0.3,2.4,0.7
			c1.1,0.6,1.4,1.3,0.8,2.1l6.2,0.7l-1.7,1l-5.9-0.7l-0.3,0.2l3.6,2L79.9,83.5z M76.3,79.8l1.1-0.6c0.3-0.2,0.4-0.3,0.4-0.5
			s-0.1-0.4-0.4-0.5c-0.3-0.2-0.6-0.2-0.9-0.2c-0.3,0-0.6,0.1-0.9,0.2l-1.1,0.6L76.3,79.8z"/>
		<path id="Tracé_9786" class="st8" d="M86.3,79.8L77.9,75l1.4-0.8l8.4,4.9L86.3,79.8z"/>
		<path id="Tracé_9787" class="st8" d="M91.4,77c-0.6,0.3-1.2,0.5-1.9,0.6c-0.7,0.1-1.4,0.1-2.2,0l0-1.3c0.5,0.1,0.9,0.1,1.4,0
			c0.4,0,0.8-0.1,1.1-0.3c0.3-0.2,0.4-0.3,0.4-0.5s-0.1-0.3-0.3-0.5c-0.3-0.1-0.5-0.2-0.8-0.2c-0.4,0-0.8,0-1.2,0.2l-0.8,0.2
			c-1.4,0.4-2.9,0.3-4.1-0.4c-0.8-0.4-1.2-0.9-1.2-1.4c0-0.5,0.3-1,1-1.4c1-0.5,2.2-0.7,3.4-0.6l0.2,1.2c-0.7-0.1-1.4,0-2,0.3
			c-0.2,0.1-0.4,0.3-0.5,0.5c-0.1,0.2,0,0.3,0.3,0.5c0.2,0.1,0.5,0.2,0.8,0.2c0.4,0,0.9-0.1,1.3-0.2l0.8-0.2
			c1.4-0.4,2.9-0.2,4.2,0.5c0.8,0.4,1.1,0.9,1.2,1.5S92.2,76.6,91.4,77z"/>
		<path id="Tracé_9788" class="st8" d="M94.9,74.9L86.4,70l4.3-2.5l1.6,0.9l-2.9,1.7l1.7,1l2.3-1.3l1.6,0.9l-2.3,1.3l1.8,1l2.9-1.7
			l1.6,0.9L94.9,74.9z"/>
		<path id="Tracé_9789" class="st8" d="M102.6,70.4l-8.4-4.9l2.3-1.3c1.2-0.6,2.5-0.9,3.8-0.8c1.4,0,2.8,0.4,4,1.1
			c1,0.4,1.7,1.3,2,2.3c0.1,0.9-0.4,1.8-1.3,2.2L102.6,70.4z M102.5,68.7l0.9-0.5c0.6-0.4,0.9-0.8,0.8-1.3c-0.2-0.6-0.7-1.2-1.3-1.4
			c-0.8-0.4-1.6-0.7-2.5-0.7c-0.8-0.1-1.6,0.1-2.3,0.5l-0.9,0.5L102.5,68.7z"/>
		<path id="Tracé_9790" class="st8" d="M109.6,66.4l-8.4-4.9l4.3-2.5l1.6,0.9l-2.9,1.7l1.7,1l2.3-1.3l1.6,0.9l-2.3,1.3l1.8,1
			l2.9-1.7l1.6,0.9L109.6,66.4z"/>
		<path id="Tracé_9791" class="st8" d="M119.2,60.8l-11.3-3.2l1.5-0.9l7.8,2.2l-3.9-4.5l1.6-0.9l5.6,6.5L119.2,60.8z"/>
		<path id="Tracé_9792" class="st8" d="M124.2,58l-8.4-4.9l2.7-1.5c0.7-0.4,1.5-0.5,2.3-0.5c0.8,0,1.6,0.3,2.4,0.7
			c1.1,0.6,1.4,1.3,0.8,2.1l6.2,0.7l-1.7,1l-5.9-0.7l-0.3,0.2l3.5,2L124.2,58z M120.6,54.3l1.1-0.6c0.3-0.2,0.4-0.3,0.4-0.5
			s-0.1-0.4-0.4-0.5c-0.3-0.2-0.6-0.2-0.9-0.2c-0.3,0-0.6,0.1-0.9,0.2l-1.1,0.6L120.6,54.3z"/>
		<path id="Tracé_9793" class="st8" d="M130.6,54.3l-8.4-4.9l2.3-1.3c1.2-0.6,2.5-0.9,3.8-0.8c1.4,0,2.8,0.4,4,1.1
			c1,0.4,1.7,1.3,2,2.3c0.1,0.9-0.4,1.8-1.3,2.2L130.6,54.3z M130.4,52.6l0.9-0.5c0.6-0.4,0.9-0.8,0.8-1.3c-0.2-0.6-0.7-1.2-1.3-1.4
			c-0.8-0.4-1.6-0.7-2.5-0.7c-0.8-0.1-1.6,0.1-2.3,0.5l-0.9,0.5L130.4,52.6z"/>
	</g>
	<g id="Groupe_4447" transform="translate(929.543 116)">
		<path id="Tracé_9794" class="st6" d="M40.4,113.1l-5.4-6.6l1.3-0.7l11.4,3.1l-1.5,0.9l-2.6-0.7l-3,1.7l1.3,1.5L40.4,113.1z
			 M37.8,107.5l1.8,2.1l1.9-1.1L37.8,107.5z"/>
		<path id="Tracé_9795" class="st6" d="M51.6,106.8c-1.2,0.6-2.6,0.9-3.9,0.8c-1.5,0-2.9-0.4-4.2-1.2c-1-0.4-1.8-1.3-2.1-2.4
			c-0.2-0.9,0.3-1.6,1.3-2.2c1.3-0.7,2.7-1,4.2-0.8l0.2,1.3c-0.9-0.1-1.9,0.1-2.7,0.5c-0.7,0.4-0.9,0.8-0.8,1.4
			c0.2,0.7,0.7,1.2,1.3,1.5c0.8,0.5,1.7,0.7,2.6,0.7c0.9,0.1,1.7-0.1,2.5-0.5c0.7-0.4,1-0.7,1-1.1l-1.5-0.8l-1.5,0.9l-1.6-0.9
			l2.9-1.7l4,2.3c0.1,0.4,0,0.9-0.3,1.2C52.5,106.1,52.1,106.5,51.6,106.8z"/>
		<path id="Tracé_9796" class="st6" d="M55.5,104.3l-8.4-4.9l4.3-2.5l1.6,0.9l-2.9,1.7l1.7,1l2.3-1.3l1.6,0.9l-2.3,1.3l1.8,1
			l2.9-1.7l1.6,0.9L55.5,104.3z"/>
		<path id="Tracé_9797" class="st6" d="M67.3,97.6l-1.2,0.7L57,97.1l5.5,3.2l-1.4,0.8l-8.4-4.9l1.2-0.7l9.1,1.1l-5.5-3.2l1.4-0.8
			L67.3,97.6z"/>
		<path id="Tracé_9798" class="st6" d="M72.1,94.9c-1.2,0.6-2.5,0.9-3.8,0.7c-1.5-0.1-2.9-0.5-4.1-1.2c-1-0.4-1.7-1.3-2-2.4
			c-0.1-0.9,0.4-1.8,1.3-2.2c0.8-0.4,1.6-0.7,2.5-0.7c1-0.1,2,0,2.9,0.2l-0.4,1.2c-1.1-0.3-2.3-0.2-3.4,0.3
			c-0.5,0.2-0.8,0.8-0.7,1.3c0.2,0.7,0.7,1.2,1.3,1.5c0.8,0.4,1.6,0.7,2.5,0.7c0.8,0.1,1.6-0.1,2.3-0.4c0.7-0.2,1-1,0.7-1.6
			c0-0.1-0.1-0.2-0.2-0.3l2.1-0.2c0.4,0.5,0.5,1.1,0.3,1.7C73.2,94.1,72.8,94.6,72.1,94.9z"/>
		<path id="Tracé_9799" class="st6" d="M76.2,92.4l-8.4-4.9l4.3-2.5l1.6,0.9l-2.9,1.7l1.7,1l2.3-1.3l1.6,0.9l-2.3,1.3l1.8,1
			l2.9-1.7l1.6,0.9L76.2,92.4z"/>
		<path id="Tracé_9800" class="st6" d="M84,87.9l-8.4-4.9l1.4-0.8l8.4,4.9L84,87.9z"/>
		<path id="Tracé_9801" class="st6" d="M78.5,81.4l1.3-0.7l6,0.9L84.3,78l1.3-0.7l8.4,4.9l-1.4,0.8l-5.5-3.2l1.4,3.3l-5.7-0.8
			l5.5,3.2l-1.4,0.8L78.5,81.4z"/>
		<path id="Tracé_9802" class="st6" d="M87.1,76.4l1.3-0.7l6,0.9L92.9,73l1.3-0.7l8.4,4.9l-1.4,0.8l-5.5-3.2l1.4,3.3l-5.7-0.8
			l5.5,3.2l-1.4,0.8L87.1,76.4z"/>
		<path id="Tracé_9803" class="st6" d="M108.8,72.3c0.1,0.9-0.4,1.8-1.3,2.2c-1.2,0.6-2.5,0.9-3.8,0.7c-1.5-0.1-2.9-0.5-4.1-1.2
			c-1-0.4-1.7-1.3-2-2.4c-0.1-0.9,0.4-1.8,1.3-2.2c1.2-0.6,2.5-0.9,3.8-0.7c1.5,0.1,2.9,0.5,4.1,1.2
			C107.7,70.4,108.5,71.2,108.8,72.3z M103.5,74c0.8,0.1,1.6-0.1,2.3-0.4c0.5-0.2,0.8-0.8,0.7-1.3c-0.2-0.7-0.7-1.2-1.3-1.5
			c-0.8-0.4-1.6-0.7-2.5-0.7c-0.8-0.1-1.6,0.1-2.3,0.4c-0.5,0.2-0.8,0.8-0.7,1.3c0.2,0.7,0.7,1.2,1.3,1.5
			C101.8,73.7,102.6,73.9,103.5,74L103.5,74z"/>
		<path id="Tracé_9804" class="st6" d="M112.1,71.7l-8.4-4.9l2.5-1.5c0.7-0.4,1.4-0.5,2.2-0.4c0.8,0,1.6,0.3,2.3,0.7
			c0.6,0.4,0.9,0.7,1,1.2c1-0.2,2.1,0,3,0.6c0.6,0.3,1,0.8,1.2,1.4c0.1,0.5-0.2,0.9-0.8,1.3L112.1,71.7z M108.5,68l1-0.6
			c0.2-0.1,0.4-0.3,0.3-0.5c-0.1-0.2-0.2-0.4-0.4-0.5c-0.3-0.2-0.6-0.2-0.9-0.3c-0.3,0-0.6,0-0.9,0.2l-1,0.6L108.5,68z M111.9,70
			l1.4-0.8c0.3-0.2,0.4-0.3,0.4-0.5s-0.2-0.4-0.5-0.5c-0.3-0.2-0.6-0.3-0.9-0.3c-0.3,0-0.6,0.1-0.9,0.2l-1.4,0.8L111.9,70z"/>
		<path id="Tracé_9805" class="st6" d="M118.3,68.1l-8.4-4.9l1.4-0.8l8.4,4.9L118.3,68.1z"/>
		<path id="Tracé_9806" class="st6" d="M121.2,66.4l-8.4-4.9l1.4-0.8l6.8,3.9l3-1.7l1.6,0.9L121.2,66.4z"/>
		<path id="Tracé_9807" class="st6" d="M126.6,63.3l-8.4-4.9l1.4-0.8l8.4,4.9L126.6,63.3z"/>
		<path id="Tracé_9808" class="st6" d="M123,54.8l-1,0.6L119,55l1.5-0.9L123,54.8z M129.6,61.6l-8.4-4.9l4.3-2.5l1.6,0.9l-2.9,1.7
			l1.7,1l2.3-1.3l1.6,0.9l-2.3,1.3l1.8,1l2.9-1.7l1.6,0.9L129.6,61.6z"/>
		<path id="Tracé_9809" class="st6" d="M135.1,58.4l-8.4-4.9l2.7-1.5c0.7-0.4,1.5-0.5,2.2-0.5c0.8,0,1.6,0.3,2.4,0.7
			c1.1,0.6,1.4,1.3,0.8,2.1L141,55l-1.7,1l-5.9-0.7l-0.3,0.2l3.6,2L135.1,58.4z M131.5,54.7l1.1-0.6c0.3-0.2,0.4-0.3,0.4-0.5
			s-0.1-0.4-0.4-0.5c-0.3-0.2-0.6-0.2-0.9-0.2c-0.3,0-0.6,0.1-0.9,0.2l-1.1,0.6L131.5,54.7z"/>
		<path id="Tracé_9810" class="st6" d="M141.5,54.7l-8.4-4.9l4.3-2.5l1.6,0.9l-2.9,1.7l1.7,1l2.3-1.3l1.6,0.9l-2.3,1.3l1.8,1
			l2.9-1.7l1.6,0.9L141.5,54.7z"/>
	</g>
	<g id="Groupe_4448" transform="translate(1246.305 130.252)">
		<path id="Tracé_9811" class="st1" d="M45.1,79.9c-1.2,0.6-2.6,0.9-3.9,0.8c-1.5,0-2.9-0.4-4.2-1.2c-1-0.4-1.8-1.3-2.1-2.4
			c-0.2-0.9,0.3-1.6,1.3-2.2c1.3-0.7,2.7-1,4.2-0.8l0.2,1.3c-0.9-0.1-1.9,0.1-2.7,0.5c-0.7,0.4-0.9,0.8-0.8,1.4
			c0.2,0.7,0.7,1.2,1.3,1.5c0.8,0.4,1.7,0.7,2.6,0.7c0.9,0.1,1.7-0.1,2.5-0.5c0.7-0.4,1-0.7,1-1.1L43,77l-1.5,0.9l-1.6-0.9l2.9-1.7
			l4,2.3c0.1,0.4,0,0.9-0.3,1.2C46.1,79.2,45.6,79.6,45.1,79.9z"/>
		<path id="Tracé_9812" class="st1" d="M41.7,71.2l-1.2-1.5l1.5-0.9l0.7,1.8L41.7,71.2z M49.1,77.4l-8.4-4.9l4.3-2.5l1.6,0.9
			l-2.9,1.7l1.7,1l2.3-1.3l1.6,0.9l-2.3,1.3l1.8,1l2.9-1.7l1.6,0.9L49.1,77.4z"/>
		<path id="Tracé_9813" class="st1" d="M59,70.4c0.1,0.9-0.4,1.8-1.3,2.2c-1.2,0.6-2.5,0.9-3.8,0.7c-1.5-0.1-2.9-0.5-4.1-1.2
			c-1-0.4-1.7-1.3-2-2.4c-0.1-0.9,0.4-1.8,1.3-2.2c1.2-0.6,2.5-0.9,3.8-0.7c1.5,0.1,2.9,0.5,4.1,1.2C58,68.4,58.8,69.3,59,70.4z
			 M53.8,72.1c0.8,0.1,1.6-0.1,2.3-0.4c0.5-0.2,0.8-0.8,0.7-1.3c-0.2-0.7-0.7-1.2-1.3-1.5c-0.8-0.4-1.6-0.7-2.5-0.7
			c-0.8-0.1-1.6,0.1-2.3,0.4c-0.5,0.2-0.8,0.8-0.7,1.3c0.2,0.7,0.7,1.2,1.3,1.5C52,71.8,52.9,72,53.8,72.1z"/>
		<path id="Tracé_9814" class="st1" d="M53.9,64.9l1.3-0.7l6,0.9l-1.5-3.5l1.3-0.7l8.4,4.9L68,66.5l-5.5-3.2l1.4,3.3l-5.7-0.8
			l5.5,3.2l-1.4,0.8L53.9,64.9z"/>
		<path id="Tracé_9815" class="st1" d="M64.4,58l-1,0.6l-3.1-0.4l1.5-0.9L64.4,58z M71,64.8l-8.4-4.9l4.3-2.5l1.6,0.9l-2.9,1.7
			l1.7,1l2.3-1.3l1.6,0.9L69,62l1.8,1l2.9-1.7l1.6,0.9L71,64.8z"/>
		<path id="Tracé_9816" class="st1" d="M77.8,60.9L71,56.9L69.2,58l-1.6-0.9l5.1-3l1.6,0.9l-1.9,1.1l6.8,3.9L77.8,60.9z"/>
		<path id="Tracé_9817" class="st1" d="M82.1,58.4l-8.4-4.9l2.7-1.5c0.7-0.4,1.5-0.5,2.3-0.5c0.8,0,1.6,0.3,2.4,0.7
			c1.1,0.6,1.4,1.3,0.8,2.1l6.2,0.7l-1.7,1l-5.9-0.7l-0.3,0.2l3.6,2.1L82.1,58.4z M78.5,54.7l1.1-0.6c0.3-0.2,0.4-0.3,0.4-0.5
			s-0.1-0.4-0.4-0.5c-0.3-0.2-0.6-0.2-0.9-0.2c-0.3,0-0.6,0.1-0.9,0.2l-1.1,0.6L78.5,54.7z"/>
		<path id="Tracé_9818" class="st1" d="M88.5,54.7l-8.4-4.9l4.3-2.5l1.6,0.9L83.1,50l1.7,1l2.3-1.3l1.6,0.9l-2.3,1.3l1.8,1l2.9-1.7
			l1.6,0.9L88.5,54.7z"/>
	</g>
	<g id="Groupe_4449" transform="translate(1313.969 328.117)">
		<path id="Tracé_9819" class="st3" d="M40.4,86.9l-5.4-6.6l1.3-0.7l11.4,3.1l-1.5,0.9l-2.6-0.7l-3,1.7l1.3,1.5L40.4,86.9z
			 M37.8,81.2l1.8,2.1l1.9-1.1L37.8,81.2z"/>
		<path id="Tracé_9820" class="st3" d="M48.4,82.2L40,77.4l2.7-1.5c0.7-0.4,1.5-0.5,2.3-0.5c0.8,0,1.6,0.3,2.4,0.7
			c1.1,0.6,1.4,1.3,0.8,2.1l6.2,0.7l-1.7,1l-5.9-0.7l-0.3,0.2l3.5,2L48.4,82.2z M44.8,78.5l1.1-0.6c0.3-0.2,0.4-0.3,0.4-0.5
			s-0.1-0.4-0.4-0.5c-0.3-0.2-0.6-0.2-0.9-0.2c-0.3,0-0.6,0.1-0.9,0.2L43,77.5L44.8,78.5z"/>
		<path id="Tracé_9821" class="st3" d="M57.9,76.9c-1.2,0.6-2.5,0.9-3.8,0.7c-1.5-0.1-2.9-0.5-4.1-1.2c-1-0.4-1.7-1.3-2-2.4
			c-0.1-0.9,0.4-1.8,1.3-2.2c0.8-0.4,1.6-0.7,2.5-0.7c1-0.1,2,0,2.9,0.2l-0.4,1.2c-1.1-0.3-2.3-0.2-3.4,0.3
			c-0.5,0.2-0.8,0.8-0.7,1.3c0.2,0.7,0.7,1.2,1.3,1.5c0.8,0.4,1.6,0.7,2.5,0.7c0.8,0.1,1.6-0.1,2.3-0.4c0.7-0.2,1-1,0.7-1.6
			c0-0.1-0.1-0.2-0.2-0.3l2.1-0.2c0.4,0.5,0.5,1.1,0.3,1.7C59,76.1,58.5,76.6,57.9,76.9z"/>
		<path id="Tracé_9822" class="st3" d="M61.9,74.4l-8.4-4.9l1.4-0.8l3.4,1.9l3-1.7L57.9,67l1.4-0.8l8.4,4.9l-1.4,0.8l-3.4-2l-3,1.7
			l3.4,2L61.9,74.4z"/>
		<path id="Tracé_9823" class="st3" d="M69.3,70.2l-8.4-4.9l1.4-0.8l8.4,4.9L69.3,70.2z"/>
		<path id="Tracé_9824" class="st3" d="M73.5,67.7l-6.8-3.9l-1.8,1.1l-1.6-0.9l5.1-3l1.6,0.9L68.2,63l6.8,3.9L73.5,67.7z"/>
		<path id="Tracé_9825" class="st3" d="M77.8,65.2l-8.4-4.9l4.3-2.5l1.6,0.9l-2.9,1.7l1.7,1l2.3-1.3l1.6,0.9l-2.3,1.3l1.8,1
			l2.9-1.7l1.6,0.9L77.8,65.2z"/>
		<path id="Tracé_9826" class="st3" d="M86.5,60.4c-1.2,0.6-2.5,0.9-3.8,0.7c-1.5-0.1-2.9-0.5-4.1-1.2c-1-0.4-1.7-1.3-2-2.4
			c-0.1-0.9,0.4-1.8,1.3-2.2c0.8-0.4,1.6-0.7,2.5-0.7c1-0.1,2,0,2.9,0.2L82.8,56c-1.1-0.3-2.3-0.2-3.4,0.3c-0.5,0.2-0.8,0.8-0.7,1.3
			c0.2,0.7,0.7,1.2,1.3,1.5c0.8,0.4,1.6,0.7,2.5,0.7c0.8,0.1,1.6-0.1,2.3-0.4c0.7-0.2,1-1,0.8-1.6c0-0.1-0.1-0.2-0.2-0.3l2.1-0.2
			c0.4,0.5,0.5,1.1,0.3,1.7C87.6,59.6,87.1,60.1,86.5,60.4z"/>
		<path id="Tracé_9827" class="st3" d="M91.8,57.2L85,53.2l-1.8,1.1l-1.6-0.9l5.1-3l1.6,0.9l-1.9,1.1l6.8,3.9L91.8,57.2z"/>
		<path id="Tracé_9828" class="st3" d="M96.1,54.7l-8.4-4.9l4.3-2.5l1.6,0.9L90.7,50l1.7,1l2.3-1.3l1.6,0.9l-2.3,1.3l1.8,1l2.9-1.7
			l1.6,0.9L96.1,54.7z"/>
	</g>
	<g id="Groupe_4450" transform="translate(1210.075 360.72)">
		<path id="Tracé_9829" class="st4" d="M44.9,94.5c-1.2,0.6-2.5,0.9-3.8,0.7c-1.5-0.1-2.9-0.5-4.1-1.2c-1-0.4-1.7-1.3-2-2.4
			c-0.1-0.9,0.4-1.8,1.3-2.2c0.8-0.4,1.6-0.7,2.5-0.7c1-0.1,2,0,2.9,0.2l-0.4,1.2c-1.1-0.3-2.3-0.2-3.4,0.3
			c-0.5,0.2-0.8,0.8-0.7,1.3c0.2,0.7,0.7,1.2,1.3,1.5c0.8,0.4,1.6,0.7,2.5,0.7c0.8,0.1,1.6-0.1,2.3-0.4c0.7-0.2,1-1,0.8-1.6
			c0-0.1-0.1-0.2-0.2-0.3l2.1-0.2c0.4,0.5,0.5,1.1,0.3,1.7C46,93.7,45.5,94.2,44.9,94.5z"/>
		<path id="Tracé_9830" class="st4" d="M53.5,88.1c0.1,0.9-0.4,1.8-1.3,2.2c-1.2,0.6-2.5,0.9-3.8,0.7c-1.5-0.1-2.9-0.5-4.1-1.2
			c-1-0.4-1.7-1.3-2-2.4c-0.1-0.9,0.4-1.8,1.3-2.2c1.2-0.6,2.5-0.9,3.8-0.7c1.4,0.1,2.9,0.5,4.1,1.2C52.5,86.1,53.3,87,53.5,88.1z
			 M48.3,89.7c0.8,0.1,1.6-0.1,2.3-0.4c0.5-0.2,0.8-0.8,0.7-1.3c-0.2-0.7-0.7-1.2-1.3-1.5c-0.8-0.4-1.6-0.7-2.5-0.7
			c-0.8-0.1-1.6,0.1-2.3,0.4c-0.5,0.2-0.8,0.8-0.7,1.3c0.2,0.7,0.7,1.2,1.3,1.5C46.5,89.4,47.4,89.7,48.3,89.7L48.3,89.7z"/>
		<path id="Tracé_9831" class="st4" d="M63.1,83.9l-1.2,0.7l-9.1-1.1l5.5,3.2l-1.4,0.8l-8.4-4.9l1.2-0.7l9.1,1.1l-5.5-3.2l1.4-0.8
			L63.1,83.9z"/>
		<path id="Tracé_9832" class="st4" d="M66.8,81.9c-0.6,0.3-1.2,0.5-1.9,0.6c-0.7,0.1-1.4,0.1-2.1,0l0-1.3c0.5,0.1,0.9,0.1,1.4,0
			c0.4,0,0.8-0.1,1.1-0.3c0.3-0.2,0.4-0.3,0.4-0.5s-0.1-0.3-0.3-0.5c-0.3-0.1-0.5-0.2-0.8-0.2c-0.4,0-0.8,0-1.2,0.2l-0.8,0.2
			c-1.4,0.4-2.9,0.3-4.1-0.4c-0.8-0.4-1.2-0.9-1.2-1.4s0.3-1,1-1.4c1-0.5,2.2-0.7,3.4-0.6l0.2,1.2c-0.7-0.1-1.4,0-2,0.3
			c-0.2,0.1-0.4,0.3-0.5,0.5c-0.1,0.2,0,0.3,0.3,0.5c0.2,0.1,0.5,0.2,0.8,0.2c0.4,0,0.9-0.1,1.3-0.2l0.8-0.2
			c1.4-0.4,2.9-0.2,4.2,0.5c0.8,0.4,1.1,0.9,1.2,1.5C67.8,81,67.5,81.5,66.8,81.9z"/>
		<path id="Tracé_9833" class="st4" d="M71.4,79.1l-6.8-3.9l-1.8,1.1l-1.6-0.9l5.1-3l1.6,0.9L66,74.3l6.8,3.9L71.4,79.1z"/>
		<path id="Tracé_9834" class="st4" d="M75.6,76.6l-8.4-4.9l2.7-1.5c0.7-0.4,1.5-0.5,2.2-0.5c0.8,0,1.6,0.3,2.4,0.7
			c1.1,0.6,1.4,1.3,0.8,2.1l6.2,0.7l-1.7,1l-5.9-0.7l-0.3,0.2l3.6,2L75.6,76.6z M72,72.9l1.1-0.6c0.3-0.2,0.4-0.3,0.4-0.5
			s-0.1-0.4-0.4-0.5c-0.3-0.2-0.6-0.2-0.9-0.2c-0.3,0-0.6,0.1-0.9,0.2l-1.1,0.6L72,72.9z"/>
		<path id="Tracé_9835" class="st4" d="M84.8,71.5c-0.9,0.5-2,0.7-3,0.6c-1.2-0.1-2.3-0.4-3.3-1l-5.1-2.9l1.4-0.8l5.1,3
			c0.5,0.3,1.1,0.5,1.7,0.5c0.5,0,1-0.1,1.5-0.3c0.4-0.2,0.6-0.5,0.6-0.9c-0.1-0.3-0.4-0.7-0.9-1l-5.1-3l1.4-0.8l5.1,2.9
			c1,0.6,1.6,1.2,1.7,1.9C86,70.4,85.6,71,84.8,71.5z"/>
		<path id="Tracé_9836" class="st4" d="M92.3,67.2c-1.2,0.6-2.5,0.9-3.8,0.7c-1.5-0.1-2.9-0.5-4.1-1.2c-1-0.4-1.7-1.3-2-2.4
			c-0.1-0.9,0.4-1.8,1.3-2.2c0.8-0.4,1.6-0.7,2.5-0.7c1-0.1,2,0,2.9,0.2l-0.4,1.2c-1.1-0.3-2.3-0.2-3.4,0.3
			c-0.5,0.2-0.8,0.8-0.7,1.3c0.2,0.7,0.7,1.2,1.3,1.5c0.8,0.4,1.6,0.7,2.5,0.7c0.8,0.1,1.6-0.1,2.3-0.4c0.7-0.2,1-1,0.8-1.6
			c0-0.1-0.1-0.2-0.2-0.3l2.1-0.2c0.4,0.5,0.5,1.1,0.3,1.7C93.3,66.4,92.9,66.9,92.3,67.2z"/>
		<path id="Tracé_9837" class="st4" d="M97.6,63.9L90.8,60l-1.8,1.1l-1.6-0.9l5.1-3l1.6,0.9l-1.9,1.1l6.8,3.9L97.6,63.9z"/>
		<path id="Tracé_9838" class="st4" d="M101.8,61.5l-8.4-4.9l4.3-2.5l1.6,0.9l-2.9,1.7l1.7,1l2.3-1.3l1.6,0.9l-2.3,1.3l1.8,1
			l2.9-1.7l1.6,0.9L101.8,61.5z"/>
		<path id="Tracé_9839" class="st4" d="M110.3,56.8c-0.9,0.5-2,0.7-3,0.6c-1.2-0.1-2.3-0.4-3.3-1l-5.1-2.9l1.4-0.8l5.1,3
			c0.5,0.3,1.1,0.5,1.7,0.5c0.5,0,1-0.1,1.5-0.3c0.4-0.2,0.6-0.5,0.5-0.9s-0.4-0.7-0.9-1l-5.1-3l1.4-0.8l5.1,2.9
			c1,0.6,1.6,1.2,1.7,1.9S111.1,56.3,110.3,56.8z"/>
		<path id="Tracé_9840" class="st4" d="M114.4,54.2l-8.4-4.9l2.7-1.5c0.7-0.4,1.5-0.5,2.2-0.5c0.8,0,1.6,0.3,2.4,0.7
			c1.1,0.6,1.4,1.3,0.8,2.1l6.2,0.7l-1.7,1l-5.9-0.7l-0.3,0.2l3.5,2L114.4,54.2z M110.8,50.5l1.1-0.6c0.3-0.2,0.4-0.3,0.4-0.5
			s-0.1-0.4-0.4-0.5c-0.3-0.2-0.6-0.2-0.9-0.2c-0.3,0-0.6,0.1-0.9,0.2l-1.1,0.6L110.8,50.5z"/>
	</g>
	<g id="Groupe_4451" transform="translate(1185.681 442.364)">
		<path id="Tracé_9841" class="st5" d="M39.8,78.8c1,0,1.9,0.3,2.7,0.8c0.7,0.3,1.2,0.9,1.3,1.6c0.1,0.6-0.2,1.1-0.9,1.5L42,83.1
			l2.8,1.6l-1.4,0.8l-8.4-4.9l2.3-1.3C38,78.9,38.9,78.7,39.8,78.8z M41.7,81c-0.1-0.3-0.3-0.6-0.6-0.7C40.8,80.1,40.4,80,40,80
			c-0.4,0-0.8,0.1-1.1,0.3L38,80.8l2.4,1.4l0.9-0.5C41.6,81.5,41.7,81.3,41.7,81z"/>
		<path id="Tracé_9842" class="st5" d="M49.1,82.2l-8.4-4.9l2.7-1.5c0.7-0.4,1.5-0.5,2.2-0.5c0.8,0,1.6,0.3,2.4,0.7
			c1.1,0.6,1.4,1.3,0.8,2.1l6.2,0.7l-1.7,1l-5.9-0.7L47,79.3l3.6,2L49.1,82.2z M45.5,78.5l1.1-0.6c0.3-0.2,0.4-0.3,0.4-0.5
			s-0.1-0.4-0.4-0.5c-0.3-0.2-0.6-0.2-0.9-0.2c-0.3,0-0.6,0.1-0.9,0.2l-1.1,0.6L45.5,78.5z"/>
		<path id="Tracé_9843" class="st5" d="M59.9,74.7c0.1,0.9-0.4,1.8-1.3,2.2c-1.2,0.6-2.5,0.9-3.8,0.7c-1.5-0.1-2.9-0.5-4.1-1.2
			c-1-0.4-1.7-1.3-2-2.4c-0.1-0.9,0.4-1.8,1.3-2.2c1.2-0.6,2.5-0.9,3.8-0.7c1.5,0.1,2.9,0.5,4.1,1.2C58.9,72.7,59.6,73.6,59.9,74.7z
			 M54.6,76.3c0.8,0.1,1.6-0.1,2.3-0.4c0.5-0.2,0.8-0.8,0.7-1.3c-0.2-0.7-0.7-1.2-1.3-1.5c-0.8-0.4-1.6-0.7-2.5-0.7
			c-0.8-0.1-1.6,0.1-2.3,0.4c-0.5,0.2-0.8,0.8-0.7,1.3c0.2,0.7,0.7,1.2,1.3,1.5C52.9,76,53.8,76.3,54.6,76.3L54.6,76.3z"/>
		<path id="Tracé_9844" class="st5" d="M54.8,69.2l1.3-0.7l6,0.9l-1.5-3.5l1.3-0.7l8.4,4.9l-1.4,0.8l-5.5-3.2l1.4,3.3l-5.7-0.8
			l5.5,3.2l-1.4,0.8L54.8,69.2z"/>
		<path id="Tracé_9845" class="st5" d="M76.4,65.1c0.1,0.9-0.4,1.8-1.3,2.2c-1.2,0.6-2.5,0.9-3.8,0.7c-1.5-0.1-2.9-0.5-4.1-1.2
			c-1-0.4-1.7-1.3-2-2.4c-0.1-0.9,0.4-1.8,1.3-2.2c1.2-0.6,2.5-0.9,3.8-0.7c1.5,0.1,2.9,0.5,4.1,1.2C75.4,63.2,76.1,64.1,76.4,65.1z
			 M71.2,66.8c0.8,0.1,1.6-0.1,2.3-0.4c0.5-0.2,0.8-0.8,0.7-1.3c-0.2-0.7-0.7-1.2-1.3-1.5c-0.8-0.4-1.6-0.7-2.5-0.7
			c-0.8-0.1-1.6,0.1-2.3,0.4c-0.5,0.2-0.8,0.8-0.7,1.3c0.2,0.7,0.7,1.2,1.3,1.5C69.4,66.5,70.3,66.8,71.2,66.8L71.2,66.8z"/>
		<path id="Tracé_9846" class="st5" d="M80.7,63.9L73.9,60l-1.8,1.1l-1.6-0.9l5.1-3l1.6,0.9l-1.9,1.1l6.8,3.9L80.7,63.9z"/>
		<path id="Tracé_9847" class="st5" d="M85,61.5l-8.4-4.9l4.3-2.5l1.6,0.9l-2.9,1.7l1.7,1l2.3-1.3l1.6,0.9L83,58.7l1.8,1l2.9-1.7
			l1.6,0.9L85,61.5z"/>
		<path id="Tracé_9848" class="st5" d="M93.4,56.8c-0.9,0.5-2,0.7-3,0.6c-1.2-0.1-2.3-0.4-3.3-1L82,53.5l1.4-0.8l5.1,3
			c0.5,0.3,1.1,0.5,1.7,0.5c0.5,0,1-0.1,1.5-0.3c0.4-0.2,0.6-0.5,0.6-0.9s-0.4-0.7-0.9-1l-5.1-3l1.4-0.8l5.1,2.9
			c1,0.6,1.6,1.2,1.7,1.9C94.6,55.7,94.3,56.3,93.4,56.8z"/>
		<path id="Tracé_9849" class="st5" d="M97.6,54.2l-8.4-4.9l2.7-1.5c0.7-0.4,1.5-0.5,2.2-0.5c0.8,0,1.6,0.3,2.4,0.7
			c1.1,0.6,1.4,1.3,0.8,2.1l6.2,0.7l-1.7,1l-5.9-0.7l-0.3,0.2l3.5,2L97.6,54.2z M94,50.5l1.1-0.6c0.3-0.2,0.4-0.3,0.4-0.5
			S95.3,49,95,48.8c-0.3-0.2-0.6-0.2-0.9-0.2c-0.3,0-0.6,0.1-0.9,0.2l-1.1,0.6L94,50.5z"/>
	</g>
	<g id="Groupe_4452" transform="translate(954.355 483.189)">
		<path id="Tracé_9850" class="st7" d="M43.4,80.1l-8.4-4.9l1.4-0.8l6.8,3.9l3-1.7l1.6,0.9L43.4,80.1z"/>
		<path id="Tracé_9851" class="st7" d="M53,73.3c0.1,0.9-0.4,1.8-1.3,2.2c-1.2,0.6-2.5,0.9-3.8,0.7c-1.5-0.1-2.9-0.5-4.1-1.2
			c-1-0.4-1.7-1.3-2-2.4c-0.1-0.9,0.4-1.8,1.3-2.2c1.2-0.6,2.5-0.9,3.8-0.7c1.5,0.1,2.9,0.5,4.1,1.2C52,71.3,52.7,72.2,53,73.3z
			 M47.7,74.9c0.8,0.1,1.6-0.1,2.3-0.4c0.5-0.2,0.8-0.8,0.7-1.3c-0.2-0.7-0.7-1.2-1.3-1.5C48.8,71.3,47.9,71,47,71
			c-0.8-0.1-1.6,0.1-2.3,0.4c-0.5,0.2-0.8,0.8-0.7,1.3c0.2,0.6,0.7,1.2,1.3,1.5C46,74.6,46.9,74.9,47.7,74.9L47.7,74.9z"/>
		<path id="Tracé_9852" class="st7" d="M57.3,72.1l-6.8-3.9l-1.8,1.1L47,68.3l5.1-3l1.6,0.9l-1.9,1.1l6.8,3.9L57.3,72.1z"/>
		<path id="Tracé_9853" class="st7" d="M61.6,69.6l-8.4-4.9l1.4-0.8l8.4,4.9L61.6,69.6z"/>
		<path id="Tracé_9854" class="st7" d="M66.7,66.8c-0.6,0.3-1.2,0.5-1.9,0.6c-0.7,0.1-1.4,0.1-2.2,0l0-1.3c0.5,0.1,0.9,0.1,1.4,0
			c0.4,0,0.8-0.1,1.1-0.3c0.3-0.2,0.4-0.3,0.4-0.5s-0.1-0.3-0.3-0.5c-0.3-0.1-0.5-0.2-0.8-0.2c-0.4,0-0.8,0-1.2,0.2L62.3,65
			c-1.4,0.4-2.9,0.3-4.1-0.4c-0.8-0.4-1.2-0.9-1.2-1.4s0.3-1,1-1.4c1-0.5,2.2-0.7,3.4-0.6l0.2,1.2c-0.7-0.1-1.4,0-2,0.3
			c-0.2,0.1-0.4,0.3-0.5,0.5c-0.1,0.2,0,0.3,0.3,0.5c0.2,0.1,0.5,0.2,0.8,0.2c0.4,0,0.9-0.1,1.3-0.2l0.8-0.2
			c1.4-0.4,2.9-0.2,4.2,0.5c0.8,0.4,1.1,0.9,1.2,1.5S67.4,66.4,66.7,66.8z"/>
		<path id="Tracé_9855" class="st7" d="M72.3,63.6c-0.6,0.3-1.2,0.5-1.9,0.6c-0.7,0.1-1.4,0.1-2.2,0l0-1.3c0.5,0.1,0.9,0.1,1.4,0
			c0.4,0,0.8-0.1,1.1-0.3c0.3-0.2,0.4-0.3,0.4-0.5s-0.1-0.3-0.3-0.5c-0.3-0.1-0.5-0.2-0.8-0.2c-0.4,0-0.8,0.1-1.2,0.2l-0.8,0.2
			c-1.4,0.4-2.9,0.3-4.1-0.4c-0.8-0.4-1.2-0.9-1.2-1.4c0-0.5,0.3-1,1-1.4c1-0.5,2.2-0.7,3.4-0.6l0.2,1.2c-0.7-0.1-1.4,0-2,0.3
			c-0.2,0.1-0.4,0.3-0.5,0.5c-0.1,0.2,0,0.3,0.3,0.5c0.2,0.1,0.5,0.2,0.8,0.2c0.4,0,0.9-0.1,1.3-0.2l0.8-0.2
			c1.4-0.4,2.9-0.2,4.2,0.5c0.8,0.4,1.1,0.9,1.2,1.5C73.3,62.7,73,63.2,72.3,63.6z"/>
		<path id="Tracé_9856" class="st7" d="M75.7,61.5l-8.4-4.9l4.3-2.5l1.6,0.9l-2.9,1.7l1.7,1l2.3-1.3l1.6,0.9l-2.3,1.3l1.8,1
			l2.9-1.7L80,59L75.7,61.5z"/>
		<path id="Tracé_9857" class="st7" d="M84.1,56.8c-0.9,0.5-2,0.7-3,0.6c-1.2-0.1-2.3-0.4-3.3-1l-5.1-2.9l1.4-0.8l5.1,3
			c0.5,0.3,1.1,0.5,1.7,0.5c0.5,0,1-0.1,1.5-0.3c0.4-0.2,0.6-0.5,0.6-0.9c-0.1-0.3-0.4-0.7-0.9-1l-5.1-3l1.4-0.8l5.1,2.9
			c1,0.6,1.6,1.2,1.7,1.9C85.3,55.7,84.9,56.3,84.1,56.8z"/>
		<path id="Tracé_9858" class="st7" d="M88.3,54.2l-8.4-4.9l2.7-1.5c0.7-0.4,1.5-0.5,2.2-0.5c0.8,0,1.6,0.3,2.4,0.7
			c1.1,0.6,1.4,1.3,0.8,2.1l6.2,0.7l-1.7,1l-5.9-0.7l-0.3,0.2l3.5,2L88.3,54.2z M84.7,50.5l1.1-0.6c0.3-0.2,0.4-0.3,0.4-0.5
			S86,49,85.7,48.8c-0.3-0.2-0.6-0.2-0.9-0.2c-0.3,0-0.6,0.1-0.9,0.2l-1.1,0.6L84.7,50.5z"/>
	</g>
	<g id="Groupe_4453" transform="translate(915.607 219.642)">
		<path id="Tracé_9859" class="st2" d="M43.4,75.6l-8.4-4.9l1.4-0.8l3.4,1.9l3-1.7l-3.4-1.9l1.4-0.8l8.4,4.9L47.8,73l-3.4-2l-3,1.7
			l3.4,2L43.4,75.6z"/>
		<path id="Tracé_9860" class="st2" d="M53.6,69.8c-0.9,0.5-2,0.7-3,0.6c-1.2-0.1-2.3-0.4-3.3-1l-5.1-2.9l1.4-0.8l5.1,3
			c0.5,0.3,1.1,0.5,1.7,0.5c0.5,0,1-0.1,1.5-0.3c0.4-0.2,0.6-0.5,0.6-0.9s-0.4-0.7-0.9-1l-5.1-3l1.4-0.8l5.1,2.9
			c1,0.6,1.6,1.2,1.7,1.9C54.8,68.8,54.5,69.4,53.6,69.8z"/>
		<path id="Tracé_9861" class="st2" d="M57.8,67.3l-8.4-4.9l1.4-0.8l8.4,4.9L57.8,67.3z"/>
		<path id="Tracé_9862" class="st2" d="M62.9,64.5c-0.6,0.3-1.2,0.5-1.9,0.6c-0.7,0.1-1.4,0.1-2.2,0l0-1.3c0.5,0.1,0.9,0.1,1.4,0
			c0.4,0,0.8-0.1,1.1-0.3c0.3-0.2,0.4-0.3,0.4-0.5s-0.1-0.3-0.3-0.5c-0.3-0.1-0.5-0.2-0.8-0.2c-0.4,0-0.8,0-1.2,0.2l-0.8,0.2
			c-1.4,0.4-2.9,0.3-4.1-0.4c-0.8-0.4-1.2-0.9-1.2-1.4c0-0.5,0.3-1,1-1.4c1-0.5,2.2-0.7,3.4-0.6l0.2,1.2c-0.7-0.1-1.4,0-2,0.3
			c-0.2,0.1-0.4,0.3-0.5,0.5c-0.1,0.2,0,0.3,0.3,0.5c0.2,0.1,0.5,0.2,0.8,0.2c0.4,0,0.9-0.1,1.3-0.2l0.8-0.2
			c1.4-0.4,2.9-0.2,4.2,0.5c0.8,0.4,1.1,0.9,1.2,1.5C64,63.6,63.6,64.1,62.9,64.5z"/>
		<path id="Tracé_9863" class="st2" d="M68.5,61.3c-0.6,0.3-1.2,0.5-1.9,0.6c-0.7,0.1-1.4,0.1-2.2,0l0-1.3c0.5,0.1,0.9,0.1,1.4,0
			c0.4,0,0.8-0.1,1.1-0.3c0.3-0.2,0.4-0.3,0.4-0.5s-0.1-0.3-0.3-0.5c-0.3-0.1-0.5-0.2-0.8-0.2c-0.4,0-0.8,0-1.2,0.2l-0.8,0.2
			c-1.4,0.4-2.9,0.3-4.1-0.4c-0.8-0.4-1.2-0.9-1.2-1.4s0.3-1,1-1.4c1-0.5,2.2-0.7,3.4-0.6l0.2,1.2c-0.7-0.1-1.4,0-2,0.3
			c-0.2,0.1-0.4,0.3-0.5,0.5c-0.1,0.2,0,0.3,0.3,0.5c0.2,0.1,0.5,0.2,0.8,0.2c0.4,0,0.9-0.1,1.3-0.2l0.8-0.2
			c1.4-0.4,2.9-0.2,4.2,0.5c0.8,0.4,1.1,0.9,1.2,1.5S69.2,60.8,68.5,61.3z"/>
		<path id="Tracé_9864" class="st2" d="M71.9,59.1l-8.4-4.9l1.4-0.8l8.4,4.9L71.9,59.1z"/>
		<path id="Tracé_9865" class="st2" d="M74.8,57.4l-8.4-4.9l4.3-2.5l1.6,0.9l-2.9,1.7l1.7,1l2.3-1.3l1.6,0.9l-2.3,1.3l1.8,1
			l2.9-1.7l1.6,0.9L74.8,57.4z"/>
		<path id="Tracé_9866" class="st2" d="M80.4,54.2L72,49.3l2.7-1.5c0.7-0.4,1.5-0.5,2.2-0.5c0.8,0,1.6,0.3,2.4,0.7
			c1.1,0.6,1.4,1.3,0.8,2.1l6.2,0.7l-1.7,1l-5.9-0.7l-0.3,0.2l3.5,2.1L80.4,54.2z M76.8,50.5l1.1-0.6c0.3-0.2,0.4-0.3,0.4-0.5
			s-0.1-0.4-0.4-0.5c-0.3-0.2-0.6-0.2-0.9-0.2c-0.3,0-0.6,0.1-0.9,0.2L75,49.4L76.8,50.5z"/>
	</g>
	<ellipse id="Ellipse_145" class="st9" cx="1160.6" cy="345" rx="132.5" ry="76.5"/>
	<g id="Groupe_4457" transform="translate(1034.048 236.533)">
		<g id="Axonometric_Cube" transform="translate(0 46.198)">
			<path id="Cube_face_-_left" class="st10" d="M148.1,123.4L34.9,58.1l0-10.7l113.2,22.3V123.4z"/>
			<path id="Cube_face_-_right" class="st11" d="M228.1,77.2l-80,46.2V69.6l80-3.2V77.2z"/>
		</g>
		<path id="Tracé_9867" class="st12" d="M228.1,112.7l-80,46.2L34.9,93.5l80-46.2L228.1,112.7z"/>
		<path id="Tracé_9868" class="st13" d="M157.2,157.4c-3,1.7-6,3.4-9,5.1c-3.2-1.8-0.1,0,0,0c0,0,0,0,0,0c0,0.3,0,0.6,0,0.9
			c0-0.1-3.4-2-0.2-0.1l0.2,0.1l0.2-0.1c3-1.8,6.1-3.5,9.1-5.3c3-1.8,6-3.6,9-5.5C163.4,154,160.3,155.7,157.2,157.4z"/>
		<path id="Tracé_9869" class="st14" d="M211,126.8c5.9-3,11.6-6.3,17.1-9.9C222.2,119.9,216.5,123.2,211,126.8z"/>
		<path id="Tracé_9870" class="st13" d="M167.8,155.5c2.7-1.4,5.4-2.9,8-4.6C173,152.3,170.3,153.9,167.8,155.5z"/>
		<g id="Groupe_25" transform="translate(140.795 63.497)">
			<g id="Groupe_19" transform="translate(0 12.52)">
				<path id="Rectangle_6" class="st15" d="M35.8,48l0.2-0.1c1.7-0.8,3.7-0.7,5.3,0.2l0.2,0.1c1.6,0.9,1.7,2.3,0.4,3.1l-0.2,0.1
					c-1.7,0.8-3.7,0.7-5.3-0.2L36.2,51C34.7,50.1,34.5,48.8,35.8,48z"/>
				<g id="Groupe_18">
					<g id="Groupe_4405">
						<g id="Groupe_4455">
							<g>
								<defs>
									<path id="SVGID_1_" d="M35.8,48l0.2-0.1c1.7-0.8,3.7-0.7,5.3,0.2l0.2,0.1c1.6,0.9,1.7,2.3,0.4,3.1l-0.2,0.1
										c-1.7,0.8-3.7,0.7-5.3-0.2L36.2,51C34.7,50.1,34.5,48.8,35.8,48z"/>
								</defs>
								<clipPath id="SVGID_2_">
									<use xlink:href="#SVGID_1_"  style="overflow:visible;"/>
								</clipPath>
								<g id="Groupe_4454" class="st16">
									<g id="Groupe_4404" transform="translate(-8.326 -6.994)">
										<g id="Groupe_17" transform="translate(0 0)">
											
												<ellipse id="Ellipse_3" transform="matrix(0.9999 -1.129204e-02 1.129204e-02 0.9999 -0.5924 0.5016)" class="st17" cx="44.1" cy="52.7" rx="9.1" ry="5.3"/>
										</g>
									</g>
								</g>
							</g>
						</g>
					</g>
				</g>
			</g>
			<g id="Groupe_22" transform="translate(1.399 13.327)">
				<g id="Groupe_20">
					<path id="Tracé_64" class="st18" d="M35.2,48.6c-0.2,0-0.3,0.1-0.3,0.2s0.2,0.2,0.3,0.2l4.6,0.2c0.2,0,0.3-0.1,0.3-0.2
						s-0.2-0.2-0.3-0.2L35.2,48.6z"/>
					<path id="Tracé_65" class="st18" d="M37.6,47.4c-0.1-0.1-0.3-0.1-0.4,0c0,0-0.1,0.1-0.1,0.1l0.3,2.6c0,0.1,0.2,0.2,0.3,0.2
						s0.3-0.1,0.3-0.2l-0.3-2.6C37.7,47.5,37.6,47.4,37.6,47.4z"/>
				</g>
				<g id="Groupe_21" transform="translate(0.525 0.303)">
					<path id="Tracé_66" class="st12" d="M35,47.4c-0.1,0.1-0.1,0.2,0,0.3c0.2,0.1,0.4,0.1,0.6,0c0.1-0.1,0.1-0.2,0-0.3l0,0
						C35.4,47.3,35.2,47.3,35,47.4z"/>
					<path id="Tracé_67" class="st12" d="M38.3,49.3c-0.1,0.1-0.1,0.2,0,0.3c0.2,0.1,0.4,0.1,0.6,0c0.1-0.1,0.1-0.2,0-0.3
						C38.7,49.2,38.5,49.2,38.3,49.3z"/>
					<path id="Tracé_68" class="st12" d="M38.2,47.5l-3,1.7c-0.1,0.1-0.1,0.2,0,0.3c0.1,0.1,0.3,0.1,0.4,0l3-1.7
						c0.1-0.1,0.1-0.2,0-0.3C38.5,47.5,38.4,47.4,38.2,47.5z"/>
				</g>
			</g>
			<g id="Groupe_23" transform="translate(6.66)">
				<path id="Tracé_69" class="st19" d="M35.8,58.8l1.4,0.8c0.1,0,0.2,0.1,0.2,0.2c0,0.1-0.1,0.2-0.2,0.2c0,0-0.1,0-0.1,0.1
					L36.9,60c0,0,0,0,0.1,0c0.1-0.1,0.1-0.1,0-0.2L35.5,59L35.8,58.8z M35.4,58.7c-0.1,0-0.1,0-0.2,0c-0.1,0-0.1,0-0.2-0.1
					c0,0-0.1-0.1-0.1-0.1c0,0,0-0.1,0.1-0.1c0.1,0,0.1,0,0.2,0c0.1,0,0.1,0,0.2,0.1c0,0,0.1,0.1,0.1,0.1
					C35.4,58.7,35.4,58.7,35.4,58.7L35.4,58.7z"/>
				<path id="Tracé_70" class="st19" d="M38,59.1c-0.2,0.1-0.4,0.2-0.6,0.1c-0.2,0-0.5-0.1-0.7-0.2c-0.4-0.2-0.4-0.5-0.1-0.7l0,0
					c0.4-0.2,0.8-0.2,1.1,0c0,0,0,0,0.1,0c0,0,0.1,0,0.1,0.1L37,58.9c0.1,0.1,0.2,0.1,0.4,0.1c0.3,0,0.5-0.2,0.5-0.4l0,0l0.3,0
					C38.3,58.8,38.2,59,38,59.1z M36.8,58.8l0.6-0.4c-0.1,0-0.2-0.1-0.3-0.1c-0.1,0-0.2,0-0.3,0.1c-0.1,0-0.1,0.1-0.1,0.2
					C36.7,58.7,36.8,58.8,36.8,58.8L36.8,58.8z"/>
				<path id="Tracé_71" class="st19" d="M39.3,58.3c-0.2,0.1-0.4,0.1-0.6,0.1c-0.5,0-0.9-0.3-1-0.6c0-0.1,0.1-0.3,0.2-0.3
					c0.1,0,0.2-0.1,0.3-0.1c0.1,0,0.2,0,0.3,0L37.7,57l0.2-0.1l2,1.1l-0.2,0.1L39.5,58c0,0.1,0,0.1,0,0.2
					C39.4,58.2,39.4,58.3,39.3,58.3z M38.7,58.2c0.3,0,0.5-0.1,0.5-0.3v0c0-0.2-0.3-0.3-0.6-0.3c-0.3,0-0.5,0.1-0.5,0.3v0
					C38.2,58.1,38.4,58.2,38.7,58.2L38.7,58.2z"/>
				<path id="Tracé_72" class="st19" d="M38.8,56.8c-0.1,0-0.1,0-0.2,0c-0.1,0-0.1,0-0.2-0.1c0,0-0.1-0.1-0.1-0.1
					c0,0,0-0.1,0.1-0.1c0.1,0,0.1,0,0.2,0c0.1,0,0.1,0,0.2,0.1c0,0,0.1,0.1,0.1,0.1C38.9,56.7,38.9,56.7,38.8,56.8z M40.3,57.7
					L39,57l0.2-0.1l1.3,0.8L40.3,57.7z"/>
				<path id="Tracé_73" class="st19" d="M41.3,57.2l-1.8-0.5l0.3-0.2l1.3,0.3l-0.6-0.7l0.3-0.2l0.8,1L41.3,57.2z"/>
				<path id="Tracé_74" class="st19" d="M40.7,55.6c-0.1,0-0.1,0-0.2,0c-0.1,0-0.1,0-0.2-0.1c0,0-0.1-0.1-0.1-0.1
					c0,0,0-0.1,0.1-0.1c0.1,0,0.1,0,0.2,0c0.1,0,0.1,0,0.2,0.1C40.8,55.5,40.8,55.5,40.7,55.6C40.8,55.6,40.8,55.6,40.7,55.6z
					 M42.2,56.6l-1.3-0.8l0.2-0.1l1.3,0.8L42.2,56.6z"/>
				<path id="Tracé_75" class="st19" d="M43.2,56.1c-0.2,0.1-0.5,0.2-0.7,0.1l0-0.2c0.1,0,0.2,0,0.2,0c0.1,0,0.1,0,0.2-0.1
					c0,0,0.1,0,0.1-0.1c0-0.1-0.1-0.1-0.1-0.1c0,0,0,0,0,0c-0.1,0-0.1,0-0.2,0l-0.1,0c-0.2,0.1-0.5,0.1-0.7-0.1
					c-0.1-0.1-0.2-0.1-0.2-0.2c0-0.1,0.1-0.2,0.2-0.2c0.2-0.1,0.4-0.1,0.6-0.1l0,0.2c-0.1,0-0.2,0-0.3,0c0,0-0.1,0-0.1,0.1
					c0,0,0,0.1,0,0.1c0,0,0.1,0,0.1,0c0.1,0,0.1,0,0.2,0l0.2,0c0.1,0,0.3-0.1,0.4-0.1c0.1,0,0.2,0,0.3,0.1c0.1,0.1,0.2,0.1,0.2,0.2
					C43.4,55.9,43.3,56,43.2,56.1z"/>
				<path id="Tracé_76" class="st19" d="M44.4,55.4c-0.2,0.1-0.4,0.1-0.6,0.1c-0.2,0-0.5-0.1-0.7-0.2c-0.4-0.2-0.4-0.5-0.1-0.7l0,0
					c0.4-0.2,0.8-0.2,1.1,0c0,0,0,0,0.1,0l0.1,0.1l-0.9,0.5c0.1,0.1,0.2,0.1,0.4,0.1c0.3,0,0.5-0.2,0.5-0.4l0,0l0.3,0
					C44.7,55.1,44.7,55.3,44.4,55.4z M43.3,55.1l0.6-0.4c-0.1,0-0.2-0.1-0.3-0.1c-0.1,0-0.2,0-0.3,0.1c-0.1,0-0.1,0.1-0.1,0.2
					C43.2,55,43.2,55.1,43.3,55.1L43.3,55.1z"/>
				<path id="Tracé_77" class="st19" d="M46.7,54L46,53.6c-0.1-0.1-0.2-0.1-0.3-0.1c-0.1,0-0.2,0-0.2,0c-0.1,0-0.1,0.1-0.1,0.2
					c0,0.1,0.1,0.2,0.2,0.2l0.7,0.4L46,54.5L45.2,54c-0.1-0.1-0.2-0.1-0.3-0.1c-0.1,0-0.2,0-0.2,0c-0.1,0-0.1,0.1-0.1,0.2
					c0.1,0.1,0.1,0.2,0.2,0.2l0.6,0.4l-0.2,0.1L44,54.1l0.2-0.1l0.2,0.1c-0.1-0.2,0.1-0.4,0.4-0.4c0.1,0,0.2,0,0.3,0
					c0-0.1-0.1-0.1,0-0.2c0-0.1,0.1-0.1,0.1-0.2c0.1-0.1,0.3-0.1,0.4-0.1c0.2,0,0.4,0.1,0.5,0.2l0.8,0.4L46.7,54z"/>
				<path id="Tracé_78" class="st19" d="M48.1,53.1c0,0.3-0.3,0.5-0.8,0.5s-0.9-0.3-1-0.6s0.3-0.5,0.8-0.5S48,52.8,48.1,53.1z
					 M47.6,53.3c0.1,0,0.1-0.1,0.1-0.2c0-0.2-0.3-0.3-0.6-0.3s-0.5,0.1-0.5,0.3v0c0,0.2,0.3,0.3,0.6,0.3
					C47.3,53.3,47.5,53.3,47.6,53.3L47.6,53.3z"/>
				<path id="Tracé_79" class="st19" d="M48.7,52.9l-1.3-0.8l0.2-0.1l0.2,0.1c-0.1-0.1,0-0.2,0.1-0.3c0.1-0.1,0.3-0.1,0.5-0.1
					c0.2,0,0.4,0.1,0.5,0.2l0.8,0.5l-0.2,0.1L48.7,52c-0.1-0.1-0.2-0.1-0.3-0.1c-0.1,0-0.2,0-0.3,0.1c-0.1,0-0.1,0.1-0.1,0.2
					c0,0.1,0.1,0.2,0.2,0.2l0.6,0.4L48.7,52.9z"/>
				<path id="Tracé_80" class="st19" d="M50.6,51.8c-0.1,0.1-0.3,0.1-0.4,0.1c-0.2,0-0.3,0-0.4-0.1l-0.6-0.4l-0.2,0.1l-0.3-0.1
					l0.2-0.1l-0.4-0.2l0.2-0.1l0.4,0.2l0.3-0.2l0.3,0.1l-0.3,0.2l0.6,0.3c0.1,0.1,0.2,0.1,0.3,0.1c0,0,0,0,0.1,0
					c0,0,0.1-0.1,0.1-0.1l0.3,0.1C50.7,51.7,50.6,51.8,50.6,51.8z"/>
				<path id="Tracé_81" class="st19" d="M51.6,51.3c-0.4,0.2-0.9,0.2-1.3,0c-0.4-0.2-0.5-0.5-0.1-0.7c0,0,0,0,0.1,0
					c0.4-0.2,0.8-0.2,1.1,0c0,0,0,0,0.1,0c0,0,0.1,0,0.1,0.1l-0.9,0.5c0.1,0.1,0.2,0.1,0.4,0.1c0.3,0,0.5-0.2,0.5-0.4l0,0l0.3,0
					C51.9,51,51.8,51.2,51.6,51.3z M50.4,51l0.6-0.4c-0.1,0-0.2-0.1-0.3-0.1c-0.1,0-0.2,0-0.3,0.1c-0.1,0-0.1,0.1-0.1,0.2
					C50.3,50.9,50.3,50.9,50.4,51L50.4,51z"/>
				<path id="Tracé_82" class="st19" d="M52.4,50.8L51.1,50l0.2-0.1l0.2,0.1c0,0-0.1-0.1-0.1-0.2c0-0.1,0.1-0.1,0.1-0.1
					c0,0,0.1,0,0.1-0.1l0.3,0.2c-0.1,0-0.1,0-0.1,0.1c-0.1,0-0.1,0.1-0.1,0.2c0,0.1,0.1,0.2,0.2,0.2l0.6,0.4L52.4,50.8z"/>
				<path id="Tracé_83" class="st19" d="M53.3,50.2L52,49.5l0.2-0.1l0.2,0.1c0,0-0.1-0.1-0.1-0.2c0-0.1,0.1-0.1,0.1-0.1
					c0,0,0.1,0,0.1-0.1l0.3,0.2c-0.1,0-0.1,0-0.1,0.1c-0.1,0-0.1,0.1-0.1,0.2c0,0.1,0.1,0.2,0.2,0.2l0.6,0.4L53.3,50.2z"/>
				<path id="Tracé_84" class="st19" d="M54.6,49.5c-0.2,0.1-0.4,0.1-0.6,0.1c-0.5,0-0.9-0.3-1-0.6c0-0.1,0.1-0.3,0.2-0.3
					c0.1,0,0.2-0.1,0.3-0.1c0.1,0,0.2,0,0.3,0l-0.2-0.1l0.2-0.1l1.3,0.8L55,49.3l-0.2-0.1c0,0.1,0,0.1,0,0.2
					C54.7,49.4,54.7,49.5,54.6,49.5z M54.1,49.4c0.3,0,0.5-0.1,0.5-0.3v0c0-0.2-0.3-0.3-0.6-0.3c-0.3,0-0.5,0.1-0.5,0.3v0
					C53.5,49.2,53.8,49.4,54.1,49.4z"/>
				<path id="Tracé_85" class="st19" d="M54.1,47.9c-0.1,0-0.1,0-0.2,0c-0.1,0-0.1,0-0.2-0.1c0,0-0.1-0.1-0.1-0.1
					c0,0,0-0.1,0.1-0.1c0.1,0,0.1,0,0.2,0c0.1,0,0.1,0,0.2,0.1C54.1,47.7,54.2,47.8,54.1,47.9C54.2,47.9,54.2,47.9,54.1,47.9z
					 M55.6,48.9l-1.3-0.8l0.2-0.1l1.3,0.8L55.6,48.9z"/>
				<path id="Tracé_86" class="st19" d="M56.2,48.5l-1.3-0.8l0.2-0.1l0.2,0.1c-0.1-0.1,0-0.2,0.1-0.3c0.1-0.1,0.3-0.1,0.5-0.1
					c0.2,0,0.4,0.1,0.5,0.2l0.8,0.5L57,48.1l-0.7-0.4c-0.1-0.1-0.2-0.1-0.3-0.1c-0.1,0-0.2,0-0.3,0.1c-0.1,0-0.1,0.1-0.1,0.2
					c0,0.1,0.1,0.2,0.2,0.2l0.6,0.4L56.2,48.5z"/>
			</g>
			<g id="Groupe_24" transform="translate(9.464 1.281)">
				<path id="Tracé_87" class="st20" d="M35.5,59.5l-0.6-0.4l0.1,0l0.1,0.1c0,0,0-0.1,0-0.1c0,0,0,0,0,0c0,0,0,0,0,0l0.1,0.1
					c0,0,0,0-0.1,0c0,0-0.1,0.1,0,0.1c0,0.1,0.1,0.1,0.1,0.1L35.5,59.5L35.5,59.5z"/>
				<path id="Tracé_88" class="st20" d="M36.2,59.1c-0.1,0-0.2,0.1-0.3,0.1c-0.1,0-0.2,0-0.3-0.1c-0.1,0-0.1-0.1-0.1-0.2
					c0-0.1,0-0.1,0.1-0.2c0.1,0,0.2-0.1,0.3-0.1c0.1,0,0.2,0,0.3,0.1l0,0l-0.5,0.3C35.8,59.1,36,59.1,36.2,59.1L36.2,59.1
					c0-0.1,0-0.1,0-0.1c0,0,0-0.1,0-0.1l0.1,0C36.3,59,36.3,59.1,36.2,59.1z M35.6,59l0.4-0.2c-0.1,0-0.1,0-0.2,0
					c-0.1,0-0.1,0-0.2,0c0,0-0.1,0.1-0.1,0.1C35.5,58.9,35.6,59,35.6,59z M35.4,58.7l-0.1-0.2l0.1-0.1L35.4,58.7L35.4,58.7z"/>
				<path id="Tracé_89" class="st20" d="M36.7,58.8l-0.9-0.2l0.1-0.1L36.7,58.8l-0.4-0.5l0.1-0.1L36.7,58.8L36.7,58.8z"/>
				<path id="Tracé_90" class="st20" d="M37.4,58.4c-0.1,0-0.2,0.1-0.3,0.1c-0.1,0-0.2,0-0.3-0.1c-0.1,0-0.1-0.1-0.2-0.2
					c0-0.1,0-0.1,0.1-0.2c0.1,0,0.2-0.1,0.3-0.1c0.1,0,0.2,0,0.3,0.1l0,0l-0.5,0.3C37,58.4,37.2,58.4,37.4,58.4L37.4,58.4
					c0-0.1,0-0.1,0-0.1c0,0,0-0.1,0-0.1l0.1,0C37.5,58.3,37.5,58.4,37.4,58.4C37.4,58.4,37.4,58.4,37.4,58.4z M36.8,58.3l0.4-0.2
					c-0.1,0-0.1,0-0.2,0c-0.1,0-0.1,0-0.2,0C36.8,58.1,36.8,58.2,36.8,58.3C36.8,58.3,36.8,58.3,36.8,58.3L36.8,58.3z M36.7,58
					L36.3,58l0.1-0.1L36.7,58L36.7,58z"/>
				<path id="Tracé_91" class="st20" d="M37.8,58.2l-0.9-0.5l0.1,0L37.8,58.2L37.8,58.2z"/>
				<path id="Tracé_92" class="st20" d="M38.3,57.9c-0.1,0-0.2,0.1-0.3,0.1c-0.1,0-0.2,0-0.3-0.1c-0.1,0-0.1-0.1-0.2-0.2
					c0-0.1,0-0.1,0.1-0.2c0.1,0,0.2-0.1,0.3-0.1c0.1,0,0.2,0,0.3,0.1l0,0l-0.5,0.3C37.9,57.9,38.1,57.9,38.3,57.9L38.3,57.9
					c0-0.1,0-0.1,0-0.1c0,0,0-0.1,0-0.1l0.1,0C38.5,57.7,38.4,57.8,38.3,57.9z M37.8,57.8l0.4-0.2c-0.1,0-0.1,0-0.2,0
					c-0.1,0-0.1,0-0.2,0c0,0-0.1,0.1-0.1,0.1C37.7,57.7,37.7,57.7,37.8,57.8L37.8,57.8z"/>
				<path id="Tracé_93" class="st20" d="M39,57.5l-0.9-0.5l0.1,0L39,57.5L39,57.5z"/>
				<path id="Tracé_94" class="st20" d="M39.5,57.2c-0.1,0-0.2,0.1-0.3,0.1c-0.1,0-0.2,0-0.3-0.1c-0.1,0-0.1-0.1-0.2-0.2
					c0-0.1,0-0.1,0.1-0.2c0.1,0,0.2-0.1,0.3-0.1c0.1,0,0.2,0,0.3,0.1l0,0L39,57.1C39.2,57.2,39.3,57.2,39.5,57.2L39.5,57.2
					c-0.1-0.1,0-0.1,0-0.1c0,0,0-0.1,0-0.1l0.1,0C39.7,57,39.7,57.1,39.5,57.2z M39,57.1l0.4-0.2c-0.1,0-0.1,0-0.2,0
					c-0.1,0-0.1,0-0.2,0c0,0-0.1,0.1-0.1,0.1C38.9,57,38.9,57,39,57.1L39,57.1z"/>
				<path id="Tracé_95" class="st20" d="M40.5,56.6l-1.2-0.3l0.1-0.1l0.9,0.2L39.9,56l0.1-0.1l0.6,0.7L40.5,56.6z"/>
				<path id="Tracé_96" class="st20" d="M41,56.3l-0.9-0.5l0.3-0.2c0.1,0,0.2-0.1,0.2-0.1c0.1,0,0.2,0,0.2,0.1c0,0,0.1,0.1,0.1,0.1
					c0,0,0,0.1,0,0.1l0.7,0.1l-0.2,0.1L40.8,56l-0.1,0l0.4,0.2L41,56.3z M40.6,55.9l0.1-0.1c0,0,0,0,0.1-0.1c0-0.1-0.1-0.1-0.2-0.1
					h0c0,0-0.1,0-0.1,0l-0.1,0.1L40.6,55.9z"/>
				<path id="Tracé_97" class="st20" d="M41.6,56l-0.5-0.7l0.1-0.1l1.2,0.3l-0.1,0.1L42,55.5l-0.3,0.2l0.1,0.2L41.6,56z M41.3,55.3
					l0.2,0.3l0.2-0.1L41.3,55.3z"/>
				<path id="Tracé_98" class="st20" d="M42.5,55.4l-0.9-0.5l0.1-0.1l0.9,0.5L42.5,55.4z"/>
				<path id="Tracé_99" class="st20" d="M43.5,55.2l-0.1,0.1l-0.9-0.5l0.1-0.1l0.1,0c0,0,0-0.1,0-0.1c0,0,0-0.1,0.1-0.1
					c0.1,0,0.2-0.1,0.3-0.1c0.2,0,0.4,0.1,0.5,0.3c0,0.1,0,0.1-0.1,0.2c0,0-0.1,0-0.1,0c0,0-0.1,0-0.1,0L43.5,55.2z M43.3,54.9
					c0,0,0.1-0.1,0.1-0.1c-0.1-0.1-0.2-0.2-0.3-0.2c-0.1,0-0.1,0-0.2,0c0,0-0.1,0.1-0.1,0.1c0.1,0.1,0.2,0.2,0.3,0.2
					C43.2,54.9,43.2,54.9,43.3,54.9L43.3,54.9z"/>
				<path id="Tracé_100" class="st20" d="M44.2,54.4c0,0.1-0.2,0.2-0.4,0.2s-0.4-0.1-0.5-0.3s0.2-0.2,0.4-0.2c0.1,0,0.2,0,0.3,0.1
					C44.1,54.2,44.2,54.3,44.2,54.4z M44,54.5c0,0,0.1-0.1,0.1-0.1c0-0.1-0.1-0.1-0.3-0.2s-0.2,0.1-0.2,0.1l0,0
					c0,0.1,0.1,0.1,0.3,0.2C43.8,54.5,43.9,54.5,44,54.5L44,54.5z"/>
				<path id="Tracé_101" class="st20" d="M44.7,54.2c-0.1,0-0.1,0-0.2,0c-0.1,0-0.1,0-0.2-0.1L44,54l-0.1,0.1L43.8,54l0.1-0.1
					l-0.2-0.1l0.1-0.1l0.2,0.1l0.2-0.1l0.1,0.1l-0.2,0.1l0.3,0.2c0,0,0.1,0,0.2,0C44.6,54.1,44.6,54.1,44.7,54.2
					c-0.1-0.1-0.1-0.1,0-0.1L44.7,54.2C44.8,54.2,44.7,54.2,44.7,54.2z"/>
				<path id="Tracé_102" class="st20" d="M45.2,53.9C45.1,54,45,54,44.9,54c-0.2,0-0.4-0.1-0.5-0.3c0-0.1,0-0.1,0.1-0.2
					c0.2-0.1,0.4-0.1,0.5,0l0,0l0,0l-0.4,0.2c0.1,0,0.1,0,0.2,0c0.2,0,0.3-0.1,0.2-0.2l0,0l0.2,0C45.3,53.8,45.3,53.9,45.2,53.9z
					 M44.6,53.8l0.3-0.2c0,0-0.1,0-0.2,0c0,0-0.1,0-0.1,0C44.6,53.6,44.6,53.7,44.6,53.8C44.6,53.7,44.6,53.8,44.6,53.8L44.6,53.8z"
					/>
				<path id="Tracé_103" class="st20" d="M45.6,53.7l-0.6-0.4l0.1-0.1l0.1,0.1c0-0.1,0-0.1,0.1-0.1c0.1,0,0.1-0.1,0.2,0
					c0.1,0,0.2,0,0.2,0.1l0.4,0.2l-0.1,0.1l-0.4-0.2c0,0-0.1,0-0.1-0.1c0,0-0.1,0-0.1,0c0,0-0.1,0.1,0,0.1c0,0,0.1,0.1,0.1,0.1
					l0.3,0.2L45.6,53.7z"/>
				<path id="Tracé_104" class="st20" d="M46.5,53.2c-0.1,0-0.1,0-0.2,0c-0.1,0-0.1,0-0.2-0.1L45.8,53l-0.1,0.1L45.5,53l0.1-0.1
					l-0.2-0.1l0.1-0.1l0.2,0.1l0.2-0.1l0.1,0.1l-0.2,0.1l0.3,0.2c0,0,0.1,0,0.2,0C46.3,53.1,46.4,53.1,46.5,53.2
					c-0.1-0.1-0.1-0.1,0-0.1L46.5,53.2C46.5,53.1,46.5,53.2,46.5,53.2z"/>
				<path id="Tracé_105" class="st20" d="M46,52.6C46,52.6,45.9,52.6,46,52.6c-0.1,0-0.1,0-0.2,0c0,0,0,0,0-0.1c0,0,0,0,0,0
					c0,0,0.1,0,0.1,0c0,0,0.1,0,0.1,0C46,52.5,46,52.5,46,52.6C46,52.6,46,52.6,46,52.6z M46.7,53l-0.6-0.4l0.1-0.1l0.6,0.4L46.7,53
					z"/>
				<path id="Tracé_106" class="st20" d="M47.2,52.7c-0.2,0.1-0.4,0.1-0.6,0c-0.1,0-0.1-0.1-0.1-0.2c0-0.1,0-0.1,0.1-0.2
					c0.2-0.1,0.4-0.1,0.5,0l0,0l0,0l-0.4,0.2c0.1,0,0.1,0,0.2,0c0.2,0,0.3-0.1,0.2-0.2l0,0l0.2,0C47.4,52.6,47.3,52.7,47.2,52.7z
					 M46.7,52.6l0.3-0.2c0,0-0.1,0-0.1,0c0,0-0.1,0-0.1,0C46.7,52.5,46.6,52.5,46.7,52.6C46.6,52.6,46.6,52.6,46.7,52.6L46.7,52.6z"
					/>
				<path id="Tracé_107" class="st20" d="M47.6,52.5L46.7,52l0.1-0.1l0.9,0.5L47.6,52.5z"/>
				<path id="Tracé_108" class="st20" d="M48.4,52c-0.1,0-0.2,0.1-0.3,0.1c-0.2,0-0.4-0.1-0.5-0.3c0-0.1,0-0.1,0.1-0.2
					c0,0,0.1,0,0.1,0c0.1,0,0.1,0,0.2,0l-0.4-0.2l0.1,0l0.9,0.5l-0.1,0l-0.1-0.1C48.5,51.9,48.5,51.9,48.4,52
					C48.5,52,48.5,52,48.4,52z M48.2,52c0.2,0,0.3-0.1,0.3-0.2v0c0-0.1-0.2-0.2-0.3-0.2s-0.3,0.1-0.3,0.2v0C47.8,51.9,48,52,48.2,52
					L48.2,52z"/>
				<path id="Tracé_109" class="st20" d="M49.1,51.6c-0.1,0-0.2,0.1-0.3,0.1c-0.1,0-0.2,0-0.3-0.1c-0.1,0-0.1-0.1-0.1-0.2
					c0-0.1,0-0.1,0.1-0.2c0.1,0,0.2-0.1,0.3-0.1c0.1,0,0.2,0,0.3,0.1l0,0l-0.5,0.3C48.8,51.6,48.9,51.7,49.1,51.6L49.1,51.6
					c0-0.1,0-0.1,0-0.1c0,0,0-0.1,0-0.1l0.1,0C49.3,51.5,49.3,51.6,49.1,51.6z M48.6,51.5l0.4-0.2c-0.1,0-0.1,0-0.2,0
					c-0.1,0-0.1,0-0.2,0c0,0-0.1,0.1-0.1,0.1C48.5,51.5,48.5,51.5,48.6,51.5L48.6,51.5z"/>
				<path id="Tracé_110" class="st20" d="M50,51.1l-0.9-0.2l0.1,0L50,51.1l-0.4-0.5l0.1,0L50,51.1L50,51.1z"/>
				<path id="Tracé_111" class="st20" d="M50.8,50.6c0,0.1-0.2,0.2-0.4,0.2c-0.1,0-0.2,0-0.3-0.1c-0.1,0-0.1-0.1-0.1-0.2
					c0-0.1,0.2-0.2,0.4-0.2S50.7,50.5,50.8,50.6z M50.4,50.8c0.2,0,0.3-0.1,0.3-0.2l0,0c0-0.1-0.2-0.2-0.3-0.2S50,50.5,50,50.6l0,0
					C50,50.7,50.2,50.8,50.4,50.8z"/>
				<path id="Tracé_112" class="st20" d="M51.3,50.4c0,0-0.1,0-0.2,0c-0.1,0-0.1,0-0.2-0.1l-0.4-0.2l-0.1,0.1l-0.1,0l0.1-0.1
					L50.3,50l0.1,0l0.2,0.1l0.2-0.1l0.1,0l-0.2,0.1l0.4,0.2C51.1,50.4,51.1,50.4,51.3,50.4C51.2,50.4,51.2,50.4,51.3,50.4
					C51.2,50.3,51.2,50.3,51.3,50.4L51.3,50.4C51.3,50.4,51.3,50.4,51.3,50.4z"/>
				<path id="Tracé_113" class="st20" d="M51.5,50.3l-0.6-0.4l0.1,0l0.1,0.1c0,0-0.1-0.1,0-0.1c0,0,0,0,0,0c0,0,0,0,0,0l0.1,0.1
					c0,0,0,0-0.1,0c0,0-0.1,0.1,0,0.1c0,0.1,0.1,0.1,0.1,0.1L51.5,50.3L51.5,50.3z"/>
				<path id="Tracé_114" class="st20" d="M52.1,49.9C52,50,51.9,50,51.8,50c-0.1,0-0.2,0-0.3-0.1c-0.1,0-0.1-0.1-0.2-0.2
					c0-0.1,0-0.1,0.1-0.2c0.1,0,0.2-0.1,0.3-0.1c0.1,0,0.2,0,0.3,0.1l0,0l-0.5,0.3C51.7,49.9,51.9,49.9,52.1,49.9L52.1,49.9
					c0-0.1,0-0.1,0-0.1c0,0,0-0.1,0-0.1l0.1,0C52.3,49.8,52.2,49.9,52.1,49.9z M51.5,49.8l0.4-0.2c-0.1,0-0.1,0-0.2,0
					c-0.1,0-0.1,0-0.2,0c0,0-0.1,0.1-0.1,0.1C51.5,49.7,51.5,49.8,51.5,49.8L51.5,49.8z"/>
				<path id="Tracé_115" class="st20" d="M53,49.4c0,0-0.1,0-0.2,0c-0.1,0-0.1,0-0.2-0.1l-0.4-0.2l-0.1,0.1l-0.1,0l0.1-0.1L52,49
					l0.1,0l0.2,0.1l0.2-0.1l0.1,0l-0.2,0.1l0.4,0.2C52.8,49.4,52.8,49.4,53,49.4C52.9,49.4,52.9,49.4,53,49.4
					C52.9,49.4,53,49.3,53,49.4L53,49.4C53,49.4,53,49.4,53,49.4z"/>
				<path id="Tracé_116" class="st20" d="M53.4,49.2c-0.1,0-0.2,0.1-0.3,0.1c-0.1,0-0.2,0-0.3-0.1c-0.1,0-0.1-0.1-0.2-0.2
					c0-0.1,0-0.1,0.1-0.2c0.1,0,0.2-0.1,0.3-0.1c0.1,0,0.2,0,0.3,0.1l0,0l-0.5,0.3C53.1,49.2,53.2,49.2,53.4,49.2L53.4,49.2
					c-0.1-0.1,0-0.1,0-0.1c0,0,0-0.1,0-0.1l0.1,0C53.6,49,53.5,49.1,53.4,49.2z M52.9,49.1l0.4-0.2c-0.1,0-0.1,0-0.2,0
					c-0.1,0-0.1,0-0.2,0C52.8,48.9,52.8,48.9,52.9,49.1C52.8,49,52.8,49,52.9,49.1L52.9,49.1z"/>
				<path id="Tracé_117" class="st20" d="M53.8,48.9l-0.6-0.4l0.1,0l0.1,0.1c0,0,0-0.1,0-0.1c0,0,0,0,0,0c0,0,0,0,0,0l0.1,0.1
					c0,0,0,0-0.1,0c0,0-0.1,0.1,0,0.1c0,0.1,0.1,0.1,0.1,0.1L53.8,48.9L53.8,48.9z"/>
				<path id="Tracé_118" class="st20" d="M54.2,48.7l-0.6-0.4l0.1,0l0.1,0.1c0,0,0-0.1,0-0.1c0,0,0,0,0,0c0,0,0,0,0,0l0.1,0.1
					c0,0,0,0-0.1,0c0,0-0.1,0.1,0,0.1c0,0.1,0.1,0.1,0.1,0.1L54.2,48.7L54.2,48.7z"/>
				<path id="Tracé_119" class="st20" d="M54.9,48.3c-0.1,0-0.2,0.1-0.3,0.1c-0.2,0-0.4-0.1-0.5-0.3c0-0.1,0-0.1,0.1-0.2
					c0,0,0.1,0,0.1,0c0.1,0,0.1,0,0.2,0l-0.1-0.1l0.1,0l0.6,0.4l-0.1,0L55,48.2C55,48.2,55,48.2,54.9,48.3
					C54.9,48.3,54.9,48.3,54.9,48.3z M54.6,48.3c0.2,0,0.3-0.1,0.3-0.2v0c0-0.1-0.2-0.2-0.3-0.2s-0.3,0.1-0.3,0.2v0
					C54.3,48.2,54.4,48.3,54.6,48.3L54.6,48.3z"/>
				<path id="Tracé_120" class="st20" d="M54.6,47.6C54.5,47.6,54.5,47.6,54.6,47.6c-0.1,0-0.2,0-0.2,0l0,0c0,0,0,0,0,0
					C54.4,47.5,54.5,47.5,54.6,47.6C54.5,47.5,54.6,47.5,54.6,47.6C54.6,47.5,54.6,47.6,54.6,47.6z M55.3,48.1l-0.6-0.4l0.1,0
					L55.3,48.1L55.3,48.1z"/>
				<path id="Tracé_121" class="st20" d="M55.6,47.9L55,47.5l0.1,0l0.1,0.1c0-0.1,0-0.1,0.1-0.2c0.1,0,0.1-0.1,0.2,0
					c0.1,0,0.2,0,0.2,0.1l0.4,0.2l-0.1,0l-0.4-0.2c-0.1,0-0.1,0-0.2-0.1c-0.1,0-0.1,0-0.1,0c0,0-0.1,0.1-0.1,0.1
					c0,0.1,0.1,0.1,0.1,0.1L55.6,47.9L55.6,47.9z"/>
			</g>
		</g>
		<g id="Groupe_4456" transform="translate(30.206 31.149)">
			<path id="Tracé_9873" class="st21" d="M43.3,70.7l-8.4-4.9l2.4-1.4c1.2-0.6,2.5-0.9,3.9-0.8c1.4,0,2.8,0.4,4.1,1.1
				c1,0.4,1.7,1.3,1.9,2.4c0,1-0.5,1.9-1.4,2.2L43.3,70.7z M43.2,68.9l0.9-0.5c0.7-0.4,1-0.8,0.9-1.4c-0.2-0.6-0.6-1.2-1.2-1.4
				c-0.8-0.4-1.6-0.7-2.5-0.7c-0.8-0.1-1.7,0.1-2.4,0.5L38,65.9L43.2,68.9z"/>
			<path id="Tracé_9874" class="st21" d="M54,63.6c0,0.7-0.4,1.4-1,1.6c-0.9,0.5-1.8,0.7-2.8,0.6c-1,0-2.1-0.3-3-0.8
				c-0.7-0.3-1.2-1-1.4-1.7c0-0.7,0.4-1.4,1-1.6c0.9-0.5,1.8-0.7,2.8-0.6c1,0,2.1,0.3,3,0.8C53.4,62.2,53.9,62.8,54,63.6z
				 M51.5,64.3c0.3-0.1,0.5-0.4,0.5-0.8c-0.1-0.4-0.4-0.7-0.8-0.9c-0.5-0.3-1-0.4-1.5-0.4c-0.5,0-0.9,0-1.4,0.3
				c-0.3,0.1-0.5,0.4-0.5,0.8c0.1,0.4,0.4,0.7,0.8,0.9c0.5,0.3,1,0.4,1.5,0.4C50.6,64.7,51.1,64.6,51.5,64.3L51.5,64.3z"/>
			<path id="Tracé_9875" class="st21" d="M58.4,62.1c-1,0.6-2.1,0.8-3.2,0.6l0-1.1c0.6,0.1,1.3,0,1.8-0.3c0.1-0.1,0.2-0.2,0.3-0.3
				c0-0.1,0-0.2-0.2-0.3c-0.1-0.1-0.3-0.1-0.5-0.1c-0.3,0-0.5,0.1-0.8,0.2L55.4,61c-0.6,0.2-1.2,0.3-1.8,0.2c-0.5,0-1.1-0.2-1.5-0.5
				c-0.5-0.3-0.8-0.7-0.7-1.1s0.3-0.8,0.9-1.1c0.8-0.5,1.8-0.6,2.8-0.4l-0.1,1c-0.5-0.1-1,0-1.4,0.2c-0.1,0.1-0.2,0.1-0.3,0.3
				c0,0.1,0,0.2,0.1,0.3c0.3,0.1,0.7,0.1,1,0l0.6-0.2c1.1-0.4,2.3-0.3,3.3,0.2c0.6,0.3,0.8,0.7,0.8,1.1S59,61.8,58.4,62.1z"/>
			<path id="Tracé_9876" class="st21" d="M63.1,59.4c-1,0.6-2.1,0.8-3.2,0.6l0-1.1c0.6,0.1,1.3,0,1.8-0.3c0.1-0.1,0.2-0.2,0.3-0.3
				c0-0.1,0-0.2-0.2-0.3c-0.1-0.1-0.3-0.1-0.5-0.1c-0.3,0-0.5,0.1-0.8,0.2l-0.5,0.2c-0.6,0.2-1.2,0.3-1.8,0.2
				c-0.5,0-1.1-0.2-1.5-0.5c-0.5-0.3-0.8-0.7-0.7-1.1c0-0.4,0.3-0.8,0.9-1.1c0.8-0.5,1.8-0.6,2.8-0.4l-0.1,1c-0.5-0.1-1,0-1.4,0.2
				c-0.1,0.1-0.2,0.1-0.3,0.3c0,0.1,0,0.2,0.1,0.3c0.3,0.1,0.7,0.1,1,0l0.6-0.2c1.1-0.4,2.3-0.3,3.3,0.2c0.6,0.3,0.8,0.7,0.8,1.1
				S63.7,59.1,63.1,59.4z"/>
			<path id="Tracé_9877" class="st21" d="M59.8,53.2c-0.3,0.1-0.6,0.2-0.9,0.2c-0.3,0-0.7-0.1-1-0.3c-0.2-0.1-0.4-0.3-0.5-0.6
				c0-0.2,0.1-0.4,0.3-0.5c0.3-0.2,0.6-0.2,0.9-0.2c0.3,0,0.7,0.1,1,0.3c0.2,0.1,0.4,0.3,0.5,0.6C60.2,52.9,60,53.1,59.8,53.2z
				 M66,57.6l-5.9-3.4l1.4-0.8l5.9,3.4L66,57.6z"/>
			<path id="Tracé_9878" class="st21" d="M71.3,54.7c-0.9,0.5-1.8,0.7-2.8,0.6c-1.1,0-2.1-0.3-3-0.8c-0.7-0.3-1.3-0.9-1.4-1.7
				c-0.1-0.6,0.3-1.2,1-1.6c0.8-0.4,1.7-0.6,2.6-0.6c1,0,2,0.3,2.9,0.8c0.2,0.1,0.4,0.2,0.5,0.3l-3.8,2.2c0.4,0.2,0.9,0.3,1.4,0.3
				c0.4,0,0.9-0.1,1.2-0.3c0.6-0.3,0.8-0.7,0.6-1.2l1.9-0.1C72.7,53.4,72.3,54.1,71.3,54.7z M66.2,53.2l2.4-1.4
				c-0.4-0.2-0.8-0.2-1.2-0.2c-0.4,0-0.7,0.1-1,0.3c-0.3,0.1-0.4,0.3-0.5,0.6C65.8,52.8,65.9,53.1,66.2,53.2L66.2,53.2z"/>
			<path id="Tracé_9879" class="st21" d="M74.7,52.6l-5.9-3.4l1.4-0.8l0.9,0.5c-0.2-0.2-0.3-0.4-0.2-0.7c0.1-0.3,0.2-0.5,0.5-0.6
				c0.2-0.1,0.4-0.2,0.5-0.2l1.6,0.9c-0.3,0.1-0.5,0.2-0.8,0.3c-0.3,0.2-0.5,0.4-0.4,0.7c0.2,0.4,0.5,0.7,0.9,0.8l2.8,1.6L74.7,52.6
				z"/>
			<path id="Tracé_9880" class="st21" d="M58.7,77.3c-0.8,0.4-1.7,0.6-2.6,0.5c-1-0.1-2-0.4-2.9-0.9c-0.7-0.3-1.2-0.9-1.5-1.7
				c-0.1-0.6,0.2-1.3,0.8-1.5c0.3-0.2,0.7-0.3,1.1-0.4c0.4-0.1,0.8-0.1,1.2,0l-3.6-2.1l1.4-0.8l8.9,5.1l-1.4,0.8L59.4,76
				c0.1,0.2,0.1,0.5,0,0.7C59.2,76.9,59,77.2,58.7,77.3z M56.2,76.6c0.5,0,1-0.1,1.4-0.3c0.4-0.2,0.6-0.5,0.5-0.8
				c-0.1-0.4-0.4-0.7-0.8-0.9c-0.5-0.3-1-0.4-1.5-0.5c-0.5,0-1,0-1.4,0.3c-0.4,0.2-0.6,0.5-0.5,0.8c0.1,0.4,0.4,0.7,0.8,0.9
				C55.1,76.4,55.6,76.5,56.2,76.6z"/>
			<path id="Tracé_9881" class="st21" d="M65.4,73.5c-0.9,0.5-1.8,0.7-2.8,0.6c-1.1,0-2.1-0.3-3-0.8c-0.7-0.3-1.3-1-1.4-1.7
				c-0.1-0.6,0.3-1.2,1-1.6c0.8-0.4,1.7-0.6,2.6-0.6c1,0,2,0.3,2.9,0.8c0.3,0.1,0.4,0.3,0.5,0.3l-3.8,2.2c0.4,0.2,0.9,0.3,1.4,0.3
				c0.4,0,0.9-0.1,1.2-0.3c0.6-0.3,0.8-0.7,0.6-1.2l1.9-0.1C66.8,72.2,66.4,72.9,65.4,73.5z M60.3,72l2.4-1.4
				c-0.4-0.2-0.8-0.2-1.2-0.2c-0.4,0-0.7,0.1-1,0.3c-0.3,0.1-0.4,0.3-0.5,0.6C59.9,71.6,60,71.9,60.3,72z"/>
			<path id="Tracé_9882" class="st21" d="M72.5,69.2l-8.2-2.1l1.5-0.9l5.1,1.4l-2.4-3l1.6-0.9l3.6,4.7L72.5,69.2z"/>
			<path id="Tracé_9883" class="st21" d="M79.1,65.6c-0.9,0.5-1.8,0.7-2.8,0.6c-1.1,0-2.1-0.3-3-0.8c-0.7-0.3-1.3-1-1.4-1.7
				c-0.1-0.6,0.3-1.2,1-1.6c0.8-0.4,1.7-0.6,2.6-0.6c1,0,2,0.3,2.9,0.8c0.3,0.1,0.4,0.3,0.5,0.3L75,64.8c0.4,0.2,0.9,0.3,1.4,0.3
				c0.4,0,0.9-0.1,1.2-0.3c0.6-0.3,0.8-0.7,0.6-1.2l1.9-0.1C80.5,64.2,80.2,64.9,79.1,65.6z M74,64.1l2.4-1.4
				c-0.4-0.2-0.8-0.2-1.2-0.2c-0.4,0-0.7,0.1-1,0.3c-0.3,0.1-0.4,0.3-0.5,0.6C73.6,63.7,73.7,64,74,64.1L74,64.1z"/>
			<path id="Tracé_9884" class="st21" d="M82.5,63.4L76.6,60l1.4-0.8l0.7,0.4c-0.2-0.5,0-0.9,0.7-1.3c0.7-0.4,1.4-0.5,2.2-0.4
				c0.9,0.1,1.7,0.3,2.4,0.8l3.5,2L86,61.4l-3.2-1.8c-0.4-0.2-0.8-0.4-1.2-0.4c-0.4-0.1-0.7,0-1,0.2c-0.3,0.2-0.5,0.4-0.4,0.7
				s0.4,0.6,0.9,0.9l2.9,1.7L82.5,63.4z"/>
			<path id="Tracé_9885" class="st21" d="M91.1,58.5c-0.6,0.3-1.3,0.5-2,0.5c-0.8,0-1.5-0.2-2.1-0.6L84.6,57l-1,0.6l-1.4-0.8l1-0.6
				l-1.6-0.9l1.4-0.8l1.6,0.9l1.4-0.8l1.4,0.8L86,56.2l2.1,1.2c0.3,0.2,0.6,0.3,1,0.3c0.3,0,0.6-0.1,0.9-0.2
				c0.2-0.1,0.3-0.2,0.5-0.4l1.4,0.8C91.7,58.2,91.4,58.4,91.1,58.5z"/>
			<path id="Tracé_9886" class="st21" d="M95.4,56.1c-0.9,0.5-1.8,0.7-2.8,0.6c-1.1,0-2.1-0.3-3-0.8c-0.7-0.3-1.3-1-1.4-1.7
				c-0.1-0.6,0.3-1.2,1-1.6c0.8-0.4,1.7-0.6,2.6-0.6c1,0,2,0.3,2.9,0.8c0.3,0.1,0.4,0.3,0.5,0.3l-3.8,2.2c0.4,0.2,0.9,0.3,1.4,0.3
				c0.4,0,0.9-0.1,1.2-0.3c0.6-0.3,0.8-0.7,0.6-1.2l1.9-0.1C96.8,54.8,96.5,55.5,95.4,56.1z M90.3,54.7l2.4-1.4
				c-0.4-0.2-0.8-0.2-1.2-0.2c-0.4,0-0.7,0.1-1,0.3c-0.3,0.1-0.4,0.3-0.5,0.6C89.9,54.3,90.1,54.5,90.3,54.7z"/>
		</g>
	</g>
</g>
</svg>
